<svg width="48" height="48" viewBox="0 0 48 48" fill="none" xmlns="http://www.w3.org/2000/svg">
<path d="M25.585 38.0996C25.2941 37.9313 25.1895 37.6843 25.1956 37.3464C25.2122 36.4128 25.2016 35.4793 25.2001 34.5458C25.2001 34.3518 25.2107 34.1654 25.3426 34.0063C25.4668 33.8578 25.3835 33.6971 25.3486 33.5471C25.0804 32.4045 25.1486 31.2951 25.679 30.2343C26.2442 29.1038 27.1262 28.3233 28.3189 27.9051C28.5689 27.8172 28.7493 27.6868 28.8932 27.4625C29.4388 26.62 30.001 25.788 30.5587 24.9545C31.1119 24.127 31.8135 23.8633 32.7652 24.1437C33.0137 24.218 32.9819 24.074 32.9819 23.9315C32.9819 22.9177 32.9713 21.9038 32.9865 20.89C33.0077 19.4837 34.4337 18.5638 35.7234 19.1154C36.4099 19.4094 36.7599 19.9716 36.916 20.6763V27.9111C36.8342 28.049 36.7569 28.19 36.669 28.3233C35.5521 30.004 34.4367 31.6846 33.3138 33.3607C33.0925 33.6911 32.8152 33.9942 33.0122 34.4367C33.0228 34.4625 33.0153 34.4958 33.0153 34.5261C33.0153 35.4793 33.0092 36.4341 33.0183 37.3873C33.0213 37.7283 32.894 37.9677 32.5773 38.0996H25.585ZM35.7476 24.2149C35.7476 23.2208 35.7506 22.2266 35.7461 21.2325C35.7461 21.0628 35.7309 20.89 35.6961 20.7248C35.6203 20.3778 35.3369 20.155 34.9853 20.1444C34.4928 20.1292 34.1625 20.4505 34.1609 20.9703C34.1564 22.557 34.1549 24.1437 34.1609 25.7304C34.1609 26.0032 34.0943 26.235 33.9412 26.4623C33.1835 27.5868 32.4364 28.7173 31.6847 29.8464C31.5513 30.0464 31.4256 30.254 31.277 30.4419C31.1225 30.6359 30.9148 30.7253 30.6618 30.6465C30.4148 30.5708 30.2799 30.395 30.2435 30.1464C30.2162 29.9646 30.3072 29.8161 30.4026 29.6721C30.8482 29.0038 31.2937 28.3355 31.7377 27.6656C32.0545 27.1883 32.3757 26.7154 32.6803 26.2305C32.8971 25.885 32.8137 25.5061 32.503 25.3045C32.2121 25.1166 31.8393 25.2045 31.6013 25.5167C31.5468 25.5894 31.4983 25.6652 31.4483 25.741C30.8936 26.5775 30.3253 27.4065 29.7904 28.2566C29.5676 28.6098 29.2903 28.8295 28.8917 28.9507C28.0567 29.2053 27.3854 29.6903 26.9141 30.4389C26.317 31.3876 26.2836 32.3969 26.5322 33.4562C26.5958 33.7305 26.7034 33.8093 26.9717 33.8078C28.4174 33.7972 29.8631 33.7956 31.3104 33.8078C31.5559 33.8093 31.6908 33.7184 31.8196 33.5244C33.0683 31.6301 34.3246 29.7388 35.5824 27.8505C35.6991 27.6747 35.7506 27.4974 35.7491 27.2883C35.7431 26.2638 35.7461 25.2394 35.7461 24.2149H35.7476ZM29.116 34.9777C28.3037 34.9777 27.4899 34.9823 26.6777 34.9747C26.4625 34.9732 26.367 35.0398 26.3715 35.2672C26.3821 35.7294 26.3806 36.1901 26.3715 36.6523C26.3685 36.8538 26.4352 36.9402 26.6489 36.9402C28.2856 36.9342 29.9207 36.9342 31.5574 36.9402C31.7893 36.9402 31.8499 36.8463 31.8453 36.6341C31.8347 36.1931 31.8287 35.7506 31.8468 35.3096C31.859 35.0353 31.7484 34.9686 31.4938 34.9732C30.7012 34.9853 29.9086 34.9777 29.1145 34.9777H29.116Z" fill="#30404F"/>
<path d="M14.8478 38.1036C14.5281 37.9748 14.4008 37.7384 14.4038 37.3944C14.4144 36.4396 14.4068 35.4864 14.4068 34.5317C14.4068 34.5014 14.3977 34.4665 14.4099 34.4423C14.6205 34.0028 14.322 33.7088 14.1113 33.3905C12.9884 31.7008 11.8685 30.0095 10.741 28.3228C10.5849 28.0895 10.4985 27.85 10.5 27.5651C10.5046 25.395 10.5 23.2248 10.5046 21.0547C10.5061 20.0681 11.0562 19.2998 11.9276 19.0422C13.1672 18.6754 14.4205 19.5953 14.4387 20.9016C14.4538 21.8958 14.4493 22.8914 14.4387 23.8856C14.4356 24.1493 14.4841 24.2068 14.7554 24.1205C15.554 23.8689 16.3239 24.1553 16.8058 24.8676C17.4029 25.7496 17.9894 26.6376 18.5713 27.5287C18.688 27.7076 18.832 27.8152 19.032 27.8864C21.1309 28.635 22.3372 30.4536 22.2114 32.6828C22.1978 32.9222 22.1417 33.1587 22.0977 33.3951C22.0477 33.6679 21.9492 33.9361 22.1735 34.1907C22.2523 34.2801 22.2205 34.4226 22.2205 34.5423C22.2205 35.4758 22.2099 36.4108 22.2265 37.3444C22.2326 37.6808 22.128 37.9308 21.8386 38.1006H14.8463L14.8478 38.1036ZM11.6745 24.1765C11.6745 25.2313 11.676 26.2861 11.673 27.3408C11.673 27.5075 11.7048 27.653 11.8003 27.7939C13.0914 29.7216 14.3796 31.6508 15.6616 33.5845C15.7768 33.7588 15.9132 33.8118 16.1132 33.8103C17.1483 33.8027 18.1818 33.8073 19.2169 33.8073C19.6685 33.8073 20.1201 33.8073 20.5732 33.8073C20.6929 33.8073 20.8202 33.8194 20.8596 33.6572C21.0475 32.8889 21.1642 32.1175 20.9293 31.3386C20.5686 30.1429 19.7761 29.3549 18.5971 28.973C18.1697 28.8351 17.8696 28.6032 17.6302 28.2243C17.0725 27.3423 16.4785 26.4815 15.9011 25.6117C15.7874 25.4419 15.6631 25.2798 15.4525 25.2343C15.1903 25.1783 14.9524 25.2283 14.7721 25.4465C14.5932 25.6647 14.5766 25.9057 14.6978 26.1497C14.7736 26.3012 14.8721 26.4437 14.966 26.5861C15.6556 27.6227 16.3512 28.6562 17.0361 29.6958C17.318 30.1232 17.1604 30.5748 16.7103 30.6627C16.4103 30.7218 16.2163 30.5612 16.0602 30.3278C15.1873 29.0154 14.3144 27.7015 13.4385 26.3906C13.3157 26.2073 13.2672 26.0133 13.2672 25.795C13.2718 24.7509 13.2687 23.7052 13.2687 22.6611C13.2687 22.0882 13.2748 21.5154 13.2657 20.9441C13.2566 20.397 12.8262 20.056 12.2928 20.1591C11.9154 20.2318 11.679 20.5622 11.6775 21.0441C11.673 22.0882 11.6775 23.1339 11.6775 24.1781L11.6745 24.1765ZM18.3228 34.9802C17.5105 34.9802 16.6967 34.9848 15.8844 34.9772C15.6692 34.9757 15.5753 35.0424 15.5813 35.2697C15.5934 35.7304 15.5904 36.1926 15.5813 36.6548C15.5783 36.8549 15.6404 36.9443 15.8556 36.9428C17.4923 36.9367 19.1275 36.9367 20.7641 36.9428C20.9945 36.9428 21.0581 36.8488 21.0551 36.6366C21.046 36.1956 21.0384 35.7531 21.0566 35.3121C21.0672 35.0378 20.9551 34.9712 20.702 34.9757C19.9094 34.9878 19.1169 34.9802 18.3228 34.9802Z" fill="#30404F"/>
<path d="M16.5203 16.7576C16.5203 15.8544 16.5279 14.9496 16.5157 14.0464C16.5112 13.6857 16.6582 13.466 16.9855 13.3266C19.1087 12.4173 21.2288 11.5035 23.3458 10.5836C23.5944 10.476 23.8171 10.4699 24.0672 10.579C26.1949 11.502 28.3241 12.4188 30.4548 13.3341C30.7715 13.4705 30.9094 13.6888 30.9079 14.0358C30.9003 15.7028 30.9125 17.3698 30.9019 19.0368C30.8882 21.2357 30.0214 23.0543 28.362 24.4788C26.9981 25.6503 25.6039 26.7838 24.2218 27.9341C23.8278 28.2614 23.5989 28.2629 23.211 27.9401C21.8213 26.7854 20.4165 25.6457 19.048 24.4667C17.3901 23.0391 16.5339 21.2191 16.5203 19.0186C16.5157 18.2654 16.5203 17.5123 16.5203 16.7591V16.7576ZM29.7304 17.0516C29.7304 16.2378 29.7228 15.4255 29.735 14.6117C29.7395 14.3722 29.6531 14.2555 29.4349 14.1631C27.6073 13.3826 25.7827 12.5946 23.9626 11.799C23.749 11.705 23.5792 11.7566 23.3928 11.8369C21.597 12.6143 19.8012 13.3948 18.0024 14.1631C17.7766 14.2601 17.6856 14.3828 17.6872 14.6344C17.6978 16.0999 17.6902 17.5668 17.6932 19.0323C17.6978 20.919 18.46 22.4511 19.8921 23.659C21.0666 24.6486 22.2562 25.6215 23.4277 26.6126C23.6368 26.7884 23.7747 26.799 23.9884 26.6171C25.1689 25.6185 26.3661 24.641 27.5467 23.6423C28.9682 22.4405 29.7168 20.9114 29.7274 19.0383C29.7319 18.3761 29.7274 17.7123 29.7274 17.0501L29.7304 17.0516Z" fill="#30404F"/>
<path d="M21.2164 17.6543C21.4286 17.6619 21.5741 17.7619 21.7059 17.8937C22.0181 18.2059 22.3424 18.5075 22.6394 18.8333C22.8167 19.0273 22.9289 19.0319 23.1168 18.8379C23.9579 17.9771 24.8156 17.1315 25.6673 16.2798C25.7673 16.1798 25.8643 16.0737 26.0052 16.0358C26.2477 15.9706 26.4675 16.0146 26.6296 16.2176C26.7887 16.4177 26.8084 16.642 26.6826 16.8647C26.6251 16.9678 26.5387 17.0572 26.4538 17.1406C25.4476 18.1499 24.4413 19.1576 23.432 20.1639C23.0198 20.5746 22.7395 20.5761 22.3273 20.1684C21.8287 19.6744 21.3316 19.1773 20.8406 18.6757C20.6512 18.4817 20.5754 18.2499 20.7057 17.9877C20.8133 17.771 20.9906 17.6588 21.2164 17.6543Z" fill="#FFB400"/>
</svg>
