<svg width="48" height="48" viewBox="0 0 48 48" fill="none" xmlns="http://www.w3.org/2000/svg">
<path d="M10.5 24.3447C10.5185 24.3544 10.5349 24.3737 10.5513 24.3388C10.6992 24.0171 10.9826 23.9512 11.3112 23.9842C11.9252 24.0443 12.4879 24.2361 12.9725 24.6024C13.603 25.0772 13.9788 25.6955 14.1102 26.4474C14.1451 26.6432 14.1492 26.8389 14.1492 27.0366C14.1492 28.2828 14.1492 29.527 14.1492 30.7732C14.1492 30.8546 14.1739 30.9166 14.2355 30.9728C14.8762 31.5503 15.4923 32.1511 16.1207 32.7403C16.1782 32.7945 16.2377 32.8488 16.2932 32.9069C16.3384 32.9554 16.3651 32.9593 16.4 32.8934C16.5437 32.6104 16.7676 32.3972 17.0448 32.2286C17.6876 31.8371 18.5788 31.9011 19.1846 32.3895C19.5276 32.6647 19.8212 32.9864 20.1396 33.2868C21.0842 34.1802 22.0309 35.0737 22.9756 35.9691C23.0557 36.0446 23.1316 36.1241 23.2097 36.2036C23.2364 36.2326 23.259 36.2462 23.2939 36.2113C24.0989 35.4167 24.9347 34.6531 25.7541 33.8721C26.2367 33.4108 26.7213 32.9535 27.2101 32.498C27.5694 32.1627 28.0089 31.9806 28.5141 31.9806C29.1754 31.9825 29.6887 32.2674 30.0584 32.7829C30.081 32.8159 30.1015 32.8488 30.1221 32.8837C30.1467 32.9263 30.1755 32.9302 30.2104 32.8953C30.2576 32.8507 30.3048 32.8062 30.3521 32.7635C30.9866 32.1685 31.6212 31.5716 32.2598 30.9786C32.3317 30.9127 32.3605 30.8449 32.3605 30.7499C32.3584 29.4572 32.3605 28.1626 32.3605 26.8699C32.3605 25.5463 33.3359 24.3272 34.8227 24.0385C35.0117 24.0016 35.2026 23.9803 35.3957 23.9822C35.7468 23.9861 36.0159 24.2361 36.0159 24.5675C36.0159 27.618 36.0159 30.6666 36.0159 33.717C36.0159 33.8643 35.9584 33.9922 35.8762 34.1105C35.562 34.562 35.2458 35.0136 34.9275 35.4632C33.7959 37.0699 32.6624 38.6746 31.5288 40.2793C31.4199 40.4324 31.307 40.5855 31.1961 40.7366C31.1694 40.7735 31.1571 40.8083 31.1571 40.8529C31.1571 41.3181 31.1571 41.7851 31.1571 42.2503C31.1571 42.3161 31.1797 42.3394 31.2495 42.3375C31.424 42.3336 31.5965 42.3317 31.7711 42.3375C32.0114 42.3452 32.1962 42.4479 32.305 42.6534C32.418 42.8646 32.3974 43.072 32.2516 43.2619C32.1346 43.415 31.9621 43.477 31.769 43.4945C31.7321 43.4984 31.6931 43.4945 31.6561 43.4945C26.0621 43.4945 20.4661 43.4945 14.8721 43.4945C14.8084 43.4945 14.7448 43.4945 14.6832 43.4887C14.3361 43.4422 14.1266 43.196 14.1431 42.8549C14.1574 42.5758 14.4224 42.3491 14.755 42.3375C14.9234 42.3317 15.0898 42.3336 15.2582 42.3375C15.33 42.3375 15.3588 42.322 15.3588 42.2483C15.3547 41.7832 15.3588 41.3161 15.3588 40.851C15.3588 40.8064 15.3465 40.7715 15.3198 40.7347C14.6544 39.7928 13.9911 38.8509 13.3257 37.909C12.6891 37.0059 12.0546 36.1047 11.418 35.2016C11.1839 34.8682 10.9456 34.5368 10.7115 34.2035C10.6397 34.0988 10.5739 33.9903 10.5062 33.8837C10.5062 33 10.5062 32.1143 10.5062 31.2305C10.5637 31.2712 10.5596 31.2131 10.5698 31.1918C10.7115 30.9108 11.0647 30.7867 11.3646 30.9166C11.6233 31.029 11.7239 31.2325 11.726 31.4883C11.7281 32.1278 11.7301 32.7674 11.726 33.405C11.726 33.5213 11.7568 33.6182 11.8246 33.7151C12.6419 34.8702 13.4572 36.0253 14.2745 37.1803C14.9912 38.1959 15.7079 39.2133 16.4267 40.2289C16.5376 40.3859 16.591 40.5525 16.5889 40.7425C16.5827 41.2386 16.5889 41.7347 16.5848 42.2309C16.5848 42.3181 16.6115 42.3413 16.7018 42.3413C18.6445 42.3394 20.5852 42.3394 22.5279 42.3413C22.6265 42.3413 22.647 42.3123 22.647 42.2231C22.6449 40.7483 22.647 39.2715 22.6449 37.7966C22.6449 37.6164 22.6039 37.442 22.5217 37.2772C22.4334 37.097 22.2938 36.9555 22.15 36.8179C21.2814 35.9942 20.4127 35.1725 19.544 34.3508C19.1723 34 18.8027 33.6492 18.4289 33.3004C18.2297 33.1143 17.9258 33.0891 17.6937 33.2248C17.4596 33.3604 17.3467 33.6318 17.4268 33.8779C17.4822 34.0426 17.6095 34.1628 17.7389 34.2771C18.0223 34.5291 18.2934 34.7927 18.5706 35.0504C19.0019 35.4497 19.4187 35.8625 19.8582 36.2539C20.0533 36.4284 20.2443 36.6067 20.425 36.7947C20.6057 36.9846 20.6304 37.2579 20.5051 37.4613C20.3326 37.7424 19.8911 37.909 19.5276 37.5718C19.2853 37.3451 19.0409 37.1203 18.7945 36.8974C18.4618 36.595 18.1394 36.2811 17.8128 35.9729C16.2665 34.5116 14.7181 33.0484 13.1697 31.5891C13.0074 31.436 12.9294 31.2596 12.9294 31.0445C12.9315 29.6646 12.9294 28.2847 12.9294 26.9048C12.9294 26.4591 12.7815 26.0656 12.4735 25.7284C12.2887 25.5249 12.0607 25.3796 11.802 25.271C11.7486 25.2478 11.7239 25.2594 11.726 25.3156C11.726 25.3389 11.726 25.3641 11.726 25.3873C11.726 25.8835 11.7301 26.3796 11.7239 26.8757C11.7198 27.1219 11.5863 27.3002 11.344 27.3971C11.1079 27.4901 10.8758 27.4397 10.6889 27.2711C10.6027 27.1936 10.5739 27.0889 10.5041 27.0037V24.3505L10.5 24.3447ZM34.7837 29.4165C34.7837 28.0599 34.7837 26.7033 34.7837 25.3486C34.7837 25.2381 34.7796 25.2342 34.6749 25.2807C33.9684 25.5947 33.605 26.1238 33.5844 26.8583C33.5762 27.1626 33.5844 27.4669 33.5844 27.7731C33.5844 28.8584 33.5824 29.9417 33.5844 31.027C33.5844 31.246 33.5125 31.4282 33.3462 31.5813C33.2107 31.7054 33.0792 31.8371 32.9457 31.9631C31.461 33.3663 29.9762 34.7675 28.4915 36.1706C28.0705 36.5679 27.6516 36.9652 27.2306 37.3606C27.1341 37.4517 27.0355 37.5408 26.9308 37.6222C26.6186 37.8625 26.1812 37.7792 26.0005 37.4497C25.8793 37.2268 25.9245 36.9671 26.1278 36.7656C26.3147 36.5795 26.5057 36.3954 26.6967 36.2132C27.2902 35.6532 27.8837 35.0969 28.4771 34.5368C28.6353 34.3876 28.7954 34.2384 28.9474 34.0814C29.1651 33.8566 29.1569 33.5349 28.9392 33.3197C28.7277 33.1104 28.3703 33.0852 28.128 33.2655C28.0685 33.3101 28.0151 33.3604 27.9617 33.4108C27.4811 33.8643 27.0006 34.3198 26.5201 34.7733C25.7726 35.4787 25.0251 36.1842 24.2796 36.8896C24.0291 37.1261 23.8689 37.4051 23.8689 37.7482C23.8689 39.2424 23.8689 40.7347 23.8668 42.2289C23.8668 42.3162 23.8956 42.3394 23.9859 42.3394C25.9286 42.3375 27.8693 42.3375 29.812 42.3394C29.9023 42.3394 29.9311 42.3181 29.9311 42.2309C29.927 41.7134 29.929 41.1979 29.9311 40.6804C29.9311 40.6301 29.9331 40.5797 29.9434 40.5293C29.9742 40.3742 30.0748 40.2541 30.1652 40.1262C31.6848 37.973 33.2045 35.8218 34.7242 33.6705C34.7693 33.6066 34.7919 33.5407 34.7899 33.4612C34.7899 32.1143 34.7899 30.7673 34.7899 29.4204L34.7837 29.4165Z" fill="#30404F"/>
<path d="M22.2345 4.5C22.251 4.52519 22.2797 4.53101 22.3064 4.54264C22.561 4.63954 22.6925 4.82753 22.6945 5.07754C22.7027 5.85275 22.7007 6.62991 22.6945 7.40707C22.6925 7.7094 22.4111 7.94972 22.0826 7.94972C21.754 7.94972 21.4747 7.7094 21.4726 7.40513C21.4685 6.62603 21.4665 5.84694 21.4726 5.06785C21.4747 4.83141 21.602 4.65504 21.8361 4.55427C21.8628 4.54264 21.9121 4.55233 21.9121 4.50194H22.2345V4.5Z" fill="#30404F"/>
<path d="M10.5312 29.0314C10.5785 29.0682 10.5805 29.0256 10.5929 29.0004C10.7797 28.6283 11.2767 28.5488 11.5827 28.8434C11.7511 29.0062 11.8024 29.2581 11.708 29.4655C11.6053 29.6922 11.3876 29.826 11.1268 29.826C10.8906 29.826 10.675 29.6845 10.5826 29.4713C10.5641 29.4267 10.5477 29.3822 10.5312 29.3356C10.5312 29.2349 10.5312 29.1322 10.5312 29.0314Z" fill="#30404F"/>
<path d="M21.4748 21.3677C21.4748 20.6738 21.4748 19.982 21.4748 19.2881C21.4748 19.2125 21.4502 19.1699 21.3763 19.135C20.6062 18.7745 19.8381 18.4102 19.068 18.0458C18.3637 17.7125 17.6593 17.383 16.957 17.0478C16.5853 16.8695 16.499 16.4818 16.7598 16.1621C17.0042 15.8617 17.2588 15.569 17.5094 15.2725C18.5875 13.9992 19.6656 12.7259 20.7438 11.4526C21.0251 11.1212 21.3044 10.7898 21.5858 10.4603C21.8445 10.158 22.2778 10.1367 22.5468 10.4119C22.6475 10.5146 22.6865 10.6425 22.6988 10.7801C22.7029 10.8247 22.7008 10.8693 22.7008 10.9138C22.7008 12.2123 22.7008 13.5128 22.6988 14.8113C22.6988 14.9062 22.7275 14.9489 22.8282 14.9702C23.9412 15.2066 25.0419 15.4896 26.1488 15.7512C26.4281 15.8171 26.7074 15.8791 26.9867 15.9431C27.151 15.9818 27.3091 16.0342 27.42 16.164C27.5925 16.3656 27.613 16.6059 27.4529 16.8481C27.2372 17.1737 27.0113 17.4954 26.7834 17.8152C25.9537 18.9916 25.1241 20.1661 24.2944 21.3405C23.7338 22.1351 23.1732 22.9317 22.6105 23.7263C22.4626 23.9336 22.21 24.0363 21.9718 23.9898C21.7172 23.9414 21.5282 23.7631 21.481 23.5247C21.4728 23.4782 21.4728 23.4297 21.4728 23.3813C21.4728 22.7088 21.4728 22.0363 21.4728 21.3657L21.4748 21.3677ZM22.7173 21.4994C22.7234 21.4878 22.7296 21.482 22.7337 21.4742C23.4237 20.4955 24.1137 19.5149 24.8058 18.5362C25.1672 18.0245 25.5307 17.5148 25.8921 17.0032C25.964 16.9024 25.962 16.8966 25.8346 16.8695C25.6375 16.8249 25.4403 16.7842 25.2453 16.7377C24.163 16.4838 23.0808 16.228 22.0006 15.9702C21.635 15.883 21.4748 15.6814 21.4748 15.3248C21.4748 14.4081 21.4748 13.4914 21.4748 12.5747C21.4748 12.5418 21.4851 12.505 21.4605 12.4682C21.4399 12.4914 21.4235 12.5089 21.4071 12.5263C21.1237 12.8655 20.8403 13.2066 20.5548 13.5457C19.793 14.4488 19.029 15.352 18.2671 16.2551C18.2206 16.3094 18.2309 16.3539 18.298 16.3888C18.3288 16.4043 18.3596 16.4198 18.3904 16.4334C19.0557 16.7454 19.7211 17.0574 20.3844 17.3714C21.0128 17.6679 21.6371 17.9703 22.2655 18.2648C22.5653 18.4063 22.7091 18.6214 22.707 18.9432C22.6988 19.761 22.705 20.5789 22.707 21.3987C22.707 21.4297 22.6967 21.4626 22.7214 21.5014L22.7173 21.4994Z" fill="#FFB400"/>
<path d="M28.1401 10.2898C27.865 10.2898 27.6842 10.1871 27.5692 9.99139C27.4583 9.80146 27.4707 9.60765 27.5836 9.41966C27.6165 9.3654 27.6575 9.31501 27.7048 9.27043C28.2675 8.73747 28.8301 8.20451 29.3949 7.67542C29.5879 7.49325 29.8426 7.45255 30.0849 7.55526C30.3067 7.64829 30.4607 7.87698 30.4504 8.10761C30.4422 8.29172 30.3436 8.4332 30.2081 8.55917C29.668 9.06694 29.1279 9.57471 28.5899 10.0825C28.4543 10.2104 28.3024 10.2957 28.1401 10.2918V10.2898Z" fill="#30404F"/>
<path d="M12.3553 15.9735C11.9569 15.9735 11.5585 15.9735 11.1601 15.9735C10.9239 15.9735 10.735 15.8825 10.618 15.6848C10.3756 15.2836 10.6672 14.8243 11.1704 14.8165C11.6797 14.8088 12.1889 14.8146 12.6982 14.8146C12.9857 14.8146 13.2732 14.8146 13.5607 14.8146C13.9222 14.8165 14.1932 15.0607 14.1932 15.3844C14.1932 15.7235 13.9324 15.9697 13.5607 15.9735C13.1603 15.9755 12.7578 15.9735 12.3553 15.9735Z" fill="#30404F"/>
<path d="M31.8022 15.9727C31.3996 15.9727 30.9992 15.9747 30.5967 15.9727C30.3071 15.9708 30.0833 15.8099 30.0032 15.5541C29.8841 15.182 30.1778 14.8215 30.6172 14.8157C31.1204 14.8099 31.6235 14.8138 32.1246 14.8138C32.4182 14.8138 32.7119 14.8138 33.0056 14.8138C33.367 14.8157 33.6381 15.0599 33.6381 15.3836C33.6381 15.7227 33.3773 15.9688 33.0056 15.9727C32.6051 15.9747 32.2026 15.9727 31.8001 15.9727H31.8022Z" fill="#30404F"/>
<path d="M16.6948 9.7579C16.6845 9.95171 16.5818 10.1203 16.3765 10.2269C16.1691 10.3335 15.9576 10.3296 15.7542 10.2095C15.7091 10.1823 15.6659 10.1494 15.629 10.1145C15.0663 9.58542 14.5036 9.05633 13.945 8.52337C13.6657 8.25592 13.7048 7.85087 14.0231 7.63187C14.2633 7.46713 14.5878 7.49039 14.8116 7.6997C15.1258 7.99041 15.4339 8.28499 15.746 8.57957C15.9945 8.81407 16.2409 9.04858 16.4894 9.28308C16.6209 9.40712 16.6948 9.55247 16.6948 9.7579Z" fill="#30404F"/>
</svg>
