<svg width="48" height="48" viewBox="0 0 48 48" fill="none" xmlns="http://www.w3.org/2000/svg">
<path d="M16.2873 12H17.5464C18.8744 12.1959 19.9221 12.871 20.832 13.8338C21.7709 14.8257 22.7619 15.7671 23.7208 16.7406C23.8847 16.9075 23.9781 16.9136 24.1451 16.7437C25.225 15.6492 26.3155 14.567 27.4031 13.4802C27.74 13.1434 28.1107 12.8526 28.5243 12.6153C29.0834 12.2924 29.6915 12.1179 30.321 12.0015H31.5801C32.2832 12.1179 32.951 12.3337 33.5606 12.7148C36.258 14.4047 36.7007 18.1152 34.4659 20.3868C33.36 21.5103 32.2403 22.6201 31.119 23.7283C30.9582 23.8875 30.9628 23.9778 31.1206 24.1355C32.2525 25.2544 33.4013 26.3596 34.495 27.5153C35.898 28.997 36.2672 30.7558 35.5794 32.6676C34.3755 36.0122 30.079 36.972 27.5195 34.4876C26.3768 33.3794 25.2617 32.2436 24.1405 31.1124C23.9827 30.9532 23.8924 30.9502 23.7331 31.1124C22.6072 32.2498 21.4845 33.3886 20.3387 34.5045C18.0932 36.6888 14.3635 36.2143 12.7138 33.5524C12.3354 32.9416 12.1179 32.2773 12 31.5732V30.3149C12.1976 28.9878 12.8746 27.9423 13.8365 27.0316C14.8291 26.0932 15.7711 25.1029 16.7453 24.1446C16.9153 23.9778 16.9107 23.8844 16.7438 23.7191C15.6547 22.6461 14.5748 21.5623 13.4965 20.4786C13.3219 20.3026 13.1565 20.1174 13.0018 19.923C12.4473 19.2249 12.1486 18.4183 12 17.5473C12 17.1279 12 16.7085 12 16.289C12.0123 16.2278 12.0245 16.1681 12.0368 16.1069C12.3018 14.6757 13.037 13.5552 14.2547 12.7546C14.8751 12.3475 15.5643 12.127 16.2904 12.0031L16.2873 12ZM16.7223 12.972C16.4466 12.9781 16.1786 13.021 15.9151 13.0899C14.3435 13.494 12.9619 14.9129 12.9635 16.9319C12.9635 18.0463 13.4 18.9938 14.1919 19.7852C17.0409 22.6262 19.8853 25.4718 22.7313 28.3158C24.5341 30.1175 26.3324 31.9206 28.1383 33.7177C29.3392 34.9117 31.0808 35.2469 32.5895 34.5382C34.0967 33.831 34.8718 32.5988 34.907 30.9502C34.9315 29.8312 34.4812 28.8715 33.6801 28.074C31.0118 25.4151 28.3497 22.7502 25.6845 20.0867C23.707 18.1106 21.728 16.1329 19.7506 14.1568C18.9127 13.321 17.9002 12.9353 16.7223 12.972ZM34.9193 16.8554C34.9039 16.6993 34.8994 16.4957 34.8626 16.2982C34.5792 14.7767 33.726 13.6991 32.2617 13.1894C30.7805 12.675 29.405 12.9613 28.2624 14.0374C27.0692 15.1594 25.9357 16.3457 24.7731 17.5014C24.6613 17.6116 24.6735 17.6866 24.7792 17.7876C25.0473 18.0463 25.3077 18.3126 25.5711 18.5775C27.06 20.0653 28.5488 21.5532 30.0376 23.0425C30.1387 23.1436 30.2169 23.2522 30.3746 23.093C31.5341 21.9236 32.712 20.7725 33.8593 19.5908C34.5792 18.8515 34.8917 17.9269 34.9208 16.8569L34.9193 16.8554ZM16.8556 34.904C17.9707 34.8734 18.9066 34.5274 19.6678 33.7774C20.8136 32.6493 21.944 31.5058 23.0851 30.3731C23.2107 30.2476 23.1985 30.1695 23.079 30.0517C21.3175 28.2975 19.5591 26.5402 17.8053 24.7799C17.6827 24.6559 17.6046 24.6605 17.4836 24.7814C16.3501 25.9218 15.1998 27.0453 14.0786 28.198C13.2376 29.0628 12.8716 30.1144 12.9849 31.3237C13.1733 33.3427 14.8781 34.8979 16.8556 34.9025V34.904Z" fill="#30404F"/>
<path d="M30.377 26.8957C30.3816 27.0641 30.302 27.1927 30.1886 27.306C29.2328 28.2611 28.2801 29.2178 27.3212 30.1699C27.0333 30.4562 26.7775 30.4454 26.4742 30.1424C25.3361 29.0081 24.1996 27.8708 23.063 26.735C21.5206 25.1936 19.9766 23.6506 18.4341 22.1077C18.042 21.7158 18.042 21.5107 18.4387 21.1158C19.3394 20.2157 20.2401 19.3157 21.1407 18.4156C21.5053 18.0513 21.7274 18.0498 22.0843 18.4064C24.7648 21.0836 27.4438 23.7624 30.1243 26.4411C30.253 26.5681 30.3755 26.6983 30.377 26.8957ZM29.1486 26.9064C29.1425 26.8238 29.0689 26.7824 29.0169 26.7289C28.1392 25.8502 27.26 24.9716 26.3823 24.0945C24.8506 22.5638 23.3173 21.0331 21.7871 19.5009C21.6952 19.4075 21.6247 19.3202 21.4884 19.4595C20.8175 20.1392 20.1405 20.8127 19.4619 21.4847C19.3593 21.5857 19.3654 21.6546 19.4665 21.751C19.73 22.0036 19.9843 22.2653 20.2431 22.5225C22.4013 24.6793 24.5595 26.836 26.7177 28.9928C26.8127 29.0877 26.8878 29.2224 27.0517 29.0556C27.7164 28.3805 28.3889 27.7147 29.0582 27.0442C29.0965 27.0059 29.1409 26.9723 29.1486 26.9064Z" fill="#30404F"/>
<path d="M18.1213 15.9898C18.1182 16.2592 17.8977 16.4766 17.6327 16.472C17.3692 16.4674 17.1517 16.2393 17.1563 15.973C17.1594 15.7081 17.3876 15.4862 17.6511 15.4923C17.9222 15.4984 18.1259 15.7127 18.1228 15.9898H18.1213Z" fill="#FFB400"/>
<path d="M18.1228 19.3117C18.1182 19.5811 17.8977 19.7985 17.6327 19.7923C17.3692 19.7862 17.1517 19.5581 17.1563 19.2918C17.1609 19.027 17.3892 18.805 17.6511 18.8127C17.9222 18.8203 18.1259 19.0346 18.1213 19.3117H18.1228Z" fill="#FFB400"/>
<path d="M31.3634 29.2242C31.3634 29.4951 31.1474 29.714 30.8825 29.714C30.6205 29.714 30.3984 29.489 30.3984 29.2227C30.3984 28.9579 30.6221 28.7344 30.8855 28.7344C31.1566 28.7344 31.365 28.9487 31.365 29.2242H31.3634Z" fill="#FFB400"/>
<path d="M31.365 32.532C31.3634 32.8029 31.1459 33.0203 30.8809 33.0187C30.6175 33.0172 30.3984 32.7907 30.3984 32.5243C30.3984 32.2595 30.6251 32.036 30.8886 32.0391C31.1597 32.0422 31.3665 32.2565 31.365 32.532Z" fill="#FFB400"/>
<path d="M15.9839 18.1221C15.7097 18.1221 15.4937 17.914 15.4922 17.6445C15.4907 17.3813 15.7143 17.1578 15.9793 17.1562C16.2458 17.1562 16.471 17.3751 16.4725 17.6384C16.4725 17.9048 16.2565 18.1206 15.9854 18.1221H15.9839Z" fill="#FFB400"/>
<path d="M19.3167 18.1222C19.0425 18.1252 18.825 17.9186 18.8204 17.6492C18.8158 17.3874 19.0379 17.1593 19.3029 17.1563C19.5694 17.1532 19.7961 17.3721 19.8007 17.6339C19.8053 17.8987 19.5878 18.1176 19.3167 18.1206V18.1222Z" fill="#FFB400"/>
<path d="M29.2371 31.3565C28.9644 31.3565 28.7485 31.1422 28.75 30.8743C28.75 30.6095 28.9752 30.3891 29.2417 30.3906C29.5082 30.3922 29.7319 30.6156 29.7303 30.8774C29.7288 31.1437 29.5097 31.3565 29.2386 31.3565H29.2371Z" fill="#FFB400"/>
<path d="M32.5542 31.3565C32.28 31.3565 32.064 31.1468 32.0625 30.8789C32.0625 30.6156 32.2831 30.3922 32.5496 30.3906C32.8161 30.3906 33.0413 30.611 33.0428 30.8743C33.0428 31.1407 32.8253 31.3565 32.5542 31.3565Z" fill="#FFB400"/>
<path d="M28.5807 18.1207C28.3081 18.1253 28.086 17.9171 28.0783 17.6508C28.0707 17.3906 28.2928 17.161 28.5593 17.1564C28.8243 17.1503 29.0525 17.3676 29.0602 17.6309C29.0678 17.8957 28.8503 18.1161 28.5792 18.1207H28.5807Z" fill="#FFB400"/>
<path d="M31.8776 18.1206C31.6065 18.1206 31.3859 17.9094 31.3828 17.6446C31.3798 17.3828 31.6049 17.1578 31.8699 17.1563C32.1349 17.1532 32.3616 17.3752 32.3647 17.6385C32.3677 17.9033 32.1502 18.1206 31.8776 18.1222V18.1206Z" fill="#FFB400"/>
<path d="M30.7057 15.9897C30.7026 16.2561 30.4774 16.4765 30.2155 16.4719C29.949 16.4673 29.7392 16.2469 29.7422 15.9744C29.7453 15.705 29.9643 15.4877 30.2293 15.4923C30.4943 15.4969 30.7087 15.7203 30.7057 15.9897Z" fill="#FFB400"/>
<path d="M29.7422 19.2977C29.7437 19.0268 29.9612 18.811 30.2262 18.8125C30.4897 18.8156 30.7072 19.0375 30.7057 19.3054C30.7057 19.5717 30.4805 19.7937 30.2186 19.7906C29.952 19.7876 29.7407 19.5671 29.7422 19.2962V19.2977Z" fill="#FFB400"/>
<path d="M15.3385 31.3566C15.0659 31.3612 14.8438 31.153 14.8361 30.8867C14.8285 30.6265 15.0521 30.3969 15.3171 30.3908C15.5821 30.3846 15.8103 30.602 15.818 30.8668C15.8256 31.1301 15.6081 31.352 15.337 31.3566H15.3385Z" fill="#FFB400"/>
<path d="M18.6277 31.3565C18.3566 31.355 18.1391 31.1376 18.1406 30.8713C18.1422 30.6095 18.3704 30.3876 18.6354 30.3907C18.8988 30.3922 19.124 30.6187 19.1225 30.8805C19.1225 31.1468 18.9019 31.3581 18.6277 31.3565Z" fill="#FFB400"/>
<path d="M16.5001 29.232C16.4955 28.9595 16.7023 28.7391 16.9703 28.7345C17.2338 28.7284 17.4589 28.9473 17.4635 29.2151C17.4681 29.4815 17.2537 29.708 16.9887 29.7142C16.7237 29.7203 16.5031 29.5029 16.5001 29.2335V29.232Z" fill="#FFB400"/>
<path d="M16.5 32.5258C16.5 32.2549 16.716 32.0375 16.9825 32.0391C17.2475 32.0391 17.465 32.2626 17.4635 32.5304C17.4635 32.7968 17.2398 33.0187 16.9779 33.0172C16.7114 33.0157 16.4985 32.7968 16.5 32.5243V32.5258Z" fill="#FFB400"/>
</svg>
