<svg width="48" height="48" viewBox="0 0 48 48" fill="none" xmlns="http://www.w3.org/2000/svg">
<path d="M37.8002 7.51151C37.8099 7.7015 37.8252 7.89149 37.8252 8.08148C37.8252 13.0174 37.8291 17.9514 37.8195 22.8873C37.8195 23.2193 37.9059 23.463 38.1518 23.6894C38.5897 24.0963 38.9912 24.5415 39.4292 24.9484C39.6443 25.1499 39.6366 25.3072 39.4714 25.5298C39.0699 26.071 38.6934 26.6314 38.2939 27.1745C38.1402 27.3818 38.1057 27.5602 38.2324 27.8001C38.3919 28.1033 38.5359 28.42 38.6339 28.7462C38.7184 29.0264 38.8855 29.1243 39.1506 29.1627C39.8037 29.2586 40.4549 29.3795 41.1099 29.4755C41.3769 29.5158 41.5075 29.6175 41.5018 29.9169C41.4864 30.8572 41.4845 31.7995 41.5018 32.7399C41.5075 33.0431 41.3673 33.1371 41.1042 33.1755C40.4511 33.2734 39.7999 33.3923 39.1449 33.4883C38.8779 33.5267 38.7127 33.6303 38.632 33.9086C38.5436 34.2118 38.4207 34.5131 38.2632 34.7856C38.096 35.0773 38.1479 35.2903 38.34 35.5436C38.7395 36.0714 39.1045 36.6241 39.4964 37.1557C39.6462 37.3591 39.6328 37.5011 39.4522 37.6777C38.778 38.3359 38.1114 38.9999 37.4545 39.6754C37.2662 39.8693 37.1241 39.8885 36.9032 39.7215C36.3442 39.2993 35.7641 38.9059 35.2032 38.4875C35.0169 38.3474 34.8651 38.3244 34.65 38.4357C34.335 38.5988 34.0046 38.7447 33.6646 38.8464C33.3841 38.9308 33.2842 39.1016 33.2439 39.3626C33.144 40.0151 33.023 40.6657 32.9308 41.3201C32.8904 41.6118 32.7694 41.7346 32.4621 41.7308C31.5458 41.7154 30.6277 41.7116 29.7114 41.7308C29.3753 41.7385 29.2677 41.5888 29.2235 41.2952C29.1275 40.6427 29.0064 39.9921 28.9104 39.3377C28.872 39.0805 28.7606 38.927 28.5051 38.8502C28.2496 38.7735 27.9807 38.6967 27.7636 38.5509C27.3468 38.2688 27.0356 38.3897 26.6841 38.6756C26.2212 39.0517 25.7121 39.3722 25.2338 39.7311C25.0321 39.8827 24.89 39.8674 24.7113 39.687C24.0525 39.0134 23.3878 38.3474 22.7117 37.6911C22.5177 37.503 22.4985 37.3572 22.6617 37.1384C23.0498 36.6183 23.4032 36.0733 23.797 35.5571C23.9987 35.2942 24.0544 35.0696 23.8777 34.7664C23.7201 34.4939 23.5972 34.1926 23.5089 33.8894C23.432 33.6246 23.2726 33.5248 23.0229 33.4883C22.3698 33.3885 21.7186 33.2676 21.0636 33.1755C20.7524 33.1333 20.6391 33.0009 20.6448 32.6804C20.6563 31.8724 20.7658 31.9607 19.9091 31.9607C15.4392 31.9588 10.9712 31.9607 6.50135 31.9588C6.33615 31.9588 6.17095 31.9415 6.00768 31.9338C6.00768 23.8986 6.0096 15.8634 6 7.82816C6 7.54606 6.06723 7.5 6.33423 7.5C16.8203 7.50768 27.3065 7.50768 37.7945 7.50768L37.8002 7.51151ZM21.9337 16.0879C17.1987 16.0879 12.4619 16.0918 7.72687 16.0802C7.35806 16.0802 7.25434 16.1858 7.25434 16.5523C7.26587 21.1179 7.26587 25.6834 7.25434 30.2489C7.25434 30.6077 7.36768 30.696 7.71151 30.696C11.8741 30.6864 16.0366 30.6845 20.1992 30.696C20.5738 30.696 20.714 30.5809 20.6621 30.2182C20.6525 30.1568 20.6698 30.0896 20.6602 30.0282C20.6006 29.6501 20.7889 29.5158 21.1423 29.4697C21.7858 29.3853 22.4216 29.2625 23.0632 29.1646C23.3014 29.1281 23.4474 29.0264 23.5281 28.7865C23.6452 28.4373 23.7874 28.0957 23.9545 27.7675C24.0621 27.5545 24.0448 27.4009 23.9046 27.2148C23.4858 26.6544 23.0901 26.0768 22.6714 25.5164C22.5138 25.3053 22.5062 25.1575 22.7078 24.9637C23.384 24.3093 24.0506 23.6434 24.7056 22.9679C24.8996 22.7683 25.0494 22.7759 25.2588 22.9314C25.7601 23.3018 26.2884 23.6376 26.7782 24.0214C27.0721 24.2517 27.3257 24.3247 27.6676 24.1193C27.9269 23.9639 28.2189 23.8506 28.5109 23.77C28.7817 23.6952 28.8662 23.5244 28.9046 23.2787C29.0064 22.6263 29.1236 21.9757 29.2177 21.3232C29.2581 21.0373 29.3714 20.9087 29.6826 20.9144C30.5989 20.9317 31.5151 20.9336 32.4314 20.9144C32.7541 20.9068 32.8847 21.0219 32.927 21.3328C33.0172 21.9872 33.1344 22.6378 33.242 23.2883C33.2727 23.4764 33.3073 23.653 33.5339 23.7355C33.9988 23.9044 34.4617 24.2536 34.9132 24.2364C35.3876 24.2172 35.743 23.6933 36.1771 23.4342C36.4825 23.2538 36.5536 23.012 36.5517 22.6742C36.5382 20.6515 36.5459 18.6307 36.5459 16.608C36.5459 16.2626 36.3711 16.0892 36.0215 16.0879C31.323 16.0879 26.6265 16.0879 21.928 16.0879H21.9337ZM21.9069 14.8136C26.6418 14.8136 31.3768 14.8117 36.1118 14.8194C36.4326 14.8194 36.5613 14.7484 36.5574 14.3991C36.5421 12.6566 36.544 10.916 36.5574 9.17345C36.5593 8.86447 36.4729 8.75508 36.1502 8.75508C26.6553 8.76276 17.1603 8.76276 7.66349 8.75508C7.33694 8.75508 7.25626 8.87023 7.25818 9.17536C7.2697 10.8795 7.26395 12.5837 7.26395 14.2878C7.26395 14.6384 7.43618 14.8136 7.78066 14.8136C12.4907 14.8136 17.1987 14.8136 21.9088 14.8136H21.9069ZM27.2104 36.8294C27.268 36.8563 27.341 36.8813 27.4044 36.9196C28.1363 37.3725 28.9161 37.7045 29.7613 37.8773C29.94 37.9137 30.0034 38.0327 30.0303 38.1997C30.0994 38.6526 30.1724 39.1036 30.2589 39.5526C30.4625 40.6235 30.23 40.4277 31.3173 40.468C31.6765 40.4815 31.7764 40.3279 31.8205 40.0132C31.9031 39.4087 32.0241 38.8099 32.1163 38.2073C32.1451 38.0193 32.2278 37.9099 32.4179 37.8715C33.2401 37.7084 33.9988 37.386 34.7019 36.9407C34.8997 36.8141 35.0591 36.8083 35.2532 36.958C35.5739 37.2075 35.9158 37.432 36.2462 37.67C37.0799 38.2726 37.0761 38.2688 37.7983 37.5165C37.952 37.3572 37.9731 37.2459 37.8367 37.0636C37.4487 36.5435 37.0857 36.0042 36.7034 35.4822C36.5728 35.3018 36.5651 35.1522 36.6861 34.9641C37.1337 34.2598 37.4583 33.5037 37.6254 32.6842C37.6677 32.475 37.7849 32.3925 37.9885 32.3637C38.4284 32.3023 38.8683 32.2236 39.3062 32.143C40.3915 31.9415 40.1841 32.1565 40.2263 31.0875C40.2398 30.7325 40.0938 30.625 39.7749 30.5809C39.1698 30.4984 38.5705 30.3775 37.9674 30.2853C37.7772 30.2566 37.6677 30.174 37.6293 29.984C37.4622 29.1512 37.1279 28.3854 36.6765 27.6677C36.5651 27.4911 36.5728 27.3472 36.6957 27.1822C36.9455 26.8444 37.1817 26.4971 37.4257 26.1555C38.0269 25.3226 38.0231 25.3283 37.2701 24.6048C37.1087 24.4513 36.9973 24.434 36.8168 24.5684C36.2962 24.956 35.7583 25.3207 35.2358 25.7064C35.0572 25.8388 34.9074 25.8503 34.7191 25.7275C34.0199 25.2688 33.2573 24.956 32.4371 24.7891C32.2297 24.7469 32.1413 24.6375 32.1106 24.4321C32.0472 23.9926 31.9704 23.5532 31.8878 23.1175C31.6822 22.0198 31.9185 22.2252 30.8063 22.1868C30.4663 22.1753 30.3703 22.3288 30.328 22.6224C30.2435 23.2135 30.1205 23.7988 30.0399 24.3899C30.0034 24.6528 29.8804 24.7526 29.6307 24.8006C29.1793 24.885 28.7567 25.0673 28.3264 25.2266C27.8923 25.3878 27.5389 25.8983 27.0779 25.764C26.6495 25.6411 26.2922 25.2631 25.908 24.9887C25.0648 24.3861 25.0725 24.3899 24.3541 25.123C24.185 25.2957 24.1773 25.4147 24.3214 25.6066C24.7037 26.1152 25.0571 26.6448 25.4393 27.1534C25.5834 27.3472 25.5873 27.5027 25.4586 27.7022C25.011 28.3912 24.696 29.1396 24.5308 29.9457C24.4847 30.1702 24.3636 30.2585 24.1447 30.2892C23.7163 30.3487 23.2918 30.4254 22.8654 30.506C21.7609 30.7133 21.9587 30.4715 21.9222 31.5769C21.9107 31.9089 22.0451 32.0221 22.3467 32.0663C22.9499 32.1526 23.5492 32.2697 24.1543 32.3618C24.356 32.3925 24.4789 32.4712 24.5193 32.6804C24.6806 33.5017 25.011 34.2559 25.4586 34.9602C25.5892 35.1656 25.5719 35.3229 25.4278 35.5091C25.18 35.8315 24.9553 36.1712 24.7171 36.5013C24.1274 37.3207 24.1332 37.313 24.8535 38.025C25.0398 38.2093 25.1704 38.2112 25.3702 38.0596C25.8581 37.693 26.3594 37.3438 26.8589 36.9906C26.9607 36.9177 27.0567 36.8275 27.2104 36.8237V36.8294Z" fill="#30404F"/>
<path d="M13.3473 19.7509C12.6481 19.7509 11.9489 19.7413 11.2497 19.7547C10.9673 19.7605 10.8713 19.6549 10.8751 19.3767C10.8962 18.3058 10.7541 18.4881 11.751 18.4785C12.9593 18.467 14.1675 18.4881 15.3758 18.469C15.7292 18.4632 15.8387 18.5803 15.8291 18.9257C15.8003 19.8776 15.929 19.7375 15.0261 19.749C14.4672 19.7547 13.9063 19.749 13.3473 19.749V19.7509Z" fill="#30404F"/>
<path d="M13.3166 22.2001C12.6309 22.2001 11.9432 22.1924 11.2575 22.2039C10.9847 22.2097 10.8694 22.1214 10.8752 21.8355C10.8963 20.7531 10.7561 20.9373 11.7434 20.9297C12.9632 20.9182 14.1849 20.9354 15.4066 20.922C15.7139 20.9182 15.8369 21.0084 15.8292 21.3308C15.8023 22.3575 15.9463 22.1848 14.959 22.2001C14.4116 22.2078 13.866 22.2001 13.3186 22.2001H13.3166Z" fill="#30404F"/>
<path d="M13.3938 23.3634C14.0796 23.3634 14.7673 23.373 15.453 23.3596C15.7335 23.3538 15.8334 23.4556 15.8295 23.7357C15.8084 24.8085 15.9486 24.6262 14.9555 24.6358C13.7473 24.6473 12.539 24.6281 11.3308 24.6454C10.9812 24.6512 10.8659 24.5398 10.8755 24.1906C10.9063 23.2291 10.768 23.3769 11.715 23.3654C12.274 23.3577 12.8348 23.3654 13.3938 23.3654V23.3634Z" fill="#30404F"/>
<path d="M12.1516 11.7691C12.1555 12.4869 11.6214 13.0242 10.905 13.0242C10.2154 13.0242 9.66599 12.4888 9.65638 11.8056C9.64678 11.0802 10.1673 10.539 10.8838 10.5313C11.5946 10.5237 12.1497 11.0648 12.1516 11.7691Z" fill="#30404F"/>
<path d="M14.5767 10.5469C15.2836 10.5469 15.8272 11.0977 15.8234 11.8058C15.8195 12.5043 15.2913 13.034 14.5921 13.0398C13.8833 13.0455 13.33 12.5024 13.3281 11.7981C13.3281 11.0765 13.8564 10.5469 14.5767 10.5469Z" fill="#30404F"/>
<path d="M19.4875 11.771C19.4895 12.4888 18.9535 13.0242 18.237 13.0242C17.5474 13.0242 17 12.4849 16.9923 11.8017C16.9827 11.0782 17.5052 10.539 18.2217 10.5313C18.9324 10.5255 19.4856 11.0667 19.4875 11.771Z" fill="#30404F"/>
<path d="M35.3769 31.3568C35.375 33.7326 33.4638 35.6267 31.0684 35.6248C28.6577 35.6248 26.7656 33.7249 26.7656 31.3107C26.7656 28.9099 28.6769 27.0177 31.0934 27.0235C33.4964 27.0292 35.3789 28.9329 35.3769 31.3568ZM28.0449 31.3145C28.0315 32.9189 29.4011 34.3141 31.0223 34.3467C32.6743 34.3793 34.1015 32.9649 34.0976 31.2953C34.0938 29.6929 32.7012 28.3112 31.0818 28.3016C29.4587 28.292 28.0584 29.6814 28.0449 31.3145Z" fill="#FFB400"/>
</svg>
