<svg width="48" height="48" viewBox="0 0 48 48" fill="none" xmlns="http://www.w3.org/2000/svg">
<path d="M24.755 9C24.7104 9.01299 24.6676 9.02598 24.6211 9.04083C24.6397 9.09836 24.6862 9.08537 24.7216 9.08537C25.4491 9.10393 26.1691 9.206 26.8818 9.33962C27.7432 9.50109 28.5768 9.75534 29.3936 10.0671C30.4263 10.4606 31.4087 10.9505 32.3167 11.5759C33.2656 12.2311 34.1661 12.9474 34.9457 13.803C35.8612 14.807 36.6519 15.8983 37.2864 17.1027C38.0437 18.5355 38.5293 20.0573 38.8103 21.6459C38.8977 22.1451 38.9536 22.6481 38.9703 23.1566C38.9796 23.4257 39.0094 23.6948 39.0075 23.962C39.0038 24.3221 38.9833 24.6821 38.9629 25.0421C38.9275 25.6787 38.8307 26.3097 38.7042 26.9351C38.3916 28.4829 37.8669 29.9565 37.0873 31.3335C36.985 31.5136 36.8882 31.6936 36.6947 31.7994C36.4082 31.9553 36.0584 31.9349 35.8221 31.7381C35.5542 31.5117 35.4667 31.1962 35.5914 30.8714C35.6733 30.6562 35.8054 30.465 35.9151 30.2627C36.4305 29.2958 36.812 28.2806 37.0687 27.2154C37.2436 26.4897 37.3571 25.7567 37.4111 25.0125C37.5246 23.409 37.385 21.8333 36.9273 20.2893C36.6333 19.2982 36.2296 18.3536 35.7291 17.4479C35.0406 16.1989 34.1475 15.1095 33.1019 14.1482C31.8273 12.9753 30.3835 12.0678 28.7554 11.459C27.8381 11.1157 26.8948 10.8726 25.9235 10.7427C25.0825 10.6295 24.2397 10.5701 23.3949 10.609C22.366 10.6573 21.3501 10.8095 20.3565 11.0934C19.0522 11.4683 17.8316 12.0176 16.6948 12.7563C16.5255 12.8658 16.3543 12.9734 16.198 13.1015C16.2259 13.1497 16.2668 13.133 16.2985 13.133C16.4938 13.1349 16.6873 13.133 16.8827 13.133C17.3107 13.1386 17.653 13.4856 17.6511 13.9125C17.6511 14.3245 17.3088 14.6678 16.8883 14.6697C15.9468 14.6715 15.0053 14.6715 14.0638 14.6641C13.541 14.6604 13.2061 14.3319 13.2191 13.8104C13.2414 12.8955 13.2266 11.9805 13.2396 11.0656C13.2452 10.6276 13.5094 10.314 13.9094 10.2527C14.3467 10.1859 14.7393 10.5144 14.7783 10.9635C14.81 11.3328 14.7839 11.7003 14.7783 12.0678C14.7783 12.1123 14.7523 12.1735 14.8062 12.1958C14.849 12.2125 14.8844 12.1643 14.9179 12.1383C15.7459 11.511 16.6185 10.9542 17.56 10.5125C18.7545 9.95206 20.0011 9.54934 21.2999 9.30436C21.9064 9.19115 22.5167 9.1262 23.1307 9.08908C23.1865 9.08537 23.2517 9.09465 23.2312 9.00186C23.7391 9.00186 24.249 9.00186 24.7569 9.00186L24.755 9Z" fill="#30404F"/>
<path d="M32.4965 33.3967C32.9654 33.3967 33.4343 33.3949 33.9031 33.3967C34.3292 33.4004 34.6455 33.6306 34.7293 33.9962C34.7739 34.1873 34.7665 34.384 34.7535 34.5771C34.7348 34.8591 34.7404 35.1394 34.7404 35.4196C34.7386 35.9541 34.7404 36.4886 34.7386 37.0249C34.7348 37.4499 34.452 37.7599 34.0297 37.81C33.6482 37.8564 33.2519 37.5502 33.2017 37.1641C33.1607 36.8449 33.1868 36.5239 33.1905 36.2028C33.1905 36.1397 33.1998 36.0766 33.198 36.0135C33.1961 35.9652 33.2277 35.8947 33.1738 35.8724C33.1254 35.852 33.0845 35.9114 33.0435 35.9411C32.917 36.0321 32.7942 36.1248 32.6695 36.2158C31.9792 36.7076 31.2592 37.1493 30.4945 37.513C29.2702 38.0939 27.9938 38.5208 26.6541 38.7583C25.8801 38.8957 25.1005 38.9829 24.3134 39.0014C23.5971 39.0182 22.8845 38.9903 22.1756 38.8994C20.5773 38.6952 19.046 38.2517 17.5891 37.5631C16.1527 36.8839 14.8633 35.9912 13.6985 34.913C12.6156 33.9089 11.7411 32.7453 10.9801 31.487C10.1187 30.0617 9.5921 28.5121 9.25904 26.8919C9.09531 26.092 9.00227 25.2828 9.00413 24.4626C9.00413 24.0914 8.99483 23.7183 9.00413 23.3472C9.01902 22.6995 9.10833 22.0629 9.21253 21.4245C9.4358 20.0456 9.88049 18.7372 10.4908 17.4826C10.6489 17.1597 10.8294 16.8461 11.0155 16.5361C11.2015 16.2262 11.5179 16.0944 11.8379 16.1687C12.1747 16.2485 12.4035 16.5101 12.4389 16.8665C12.4593 17.0632 12.3868 17.2395 12.2882 17.4065C11.8565 18.1433 11.5048 18.9191 11.2257 19.7264C10.9336 20.5708 10.7289 21.4375 10.6266 22.3246C10.541 23.0651 10.4964 23.8093 10.528 24.5535C10.6117 26.5151 11.0787 28.3803 11.983 30.1285C12.2751 30.6927 12.5952 31.2383 12.9673 31.7561C13.7357 32.8251 14.6437 33.7605 15.6708 34.5845C16.7779 35.4734 18.0003 36.1527 19.3307 36.6371C20.1326 36.9284 20.9531 37.166 21.8016 37.2866C22.7189 37.4165 23.6399 37.4926 24.5665 37.4537C25.1805 37.4277 25.7908 37.3497 26.3973 37.2439C27.7277 37.0138 28.9818 36.5628 30.1782 35.9504C30.6973 35.685 31.1996 35.3844 31.6722 35.0429C31.702 35.0206 31.7597 35.0058 31.7429 34.9612C31.7281 34.9222 31.6741 34.9334 31.635 34.9315C31.4564 34.9315 31.2778 34.9315 31.0992 34.9297C30.6712 34.9241 30.34 34.5975 30.34 34.178C30.34 33.7326 30.6563 33.3986 31.0917 33.3949C31.5606 33.3911 32.0295 33.3949 32.4984 33.3949C32.4984 33.3949 32.4984 33.3986 32.4984 33.4004L32.4965 33.3967Z" fill="#30404F"/>
<path d="M16.0824 20.5248C16.0824 20.0293 16.0824 19.5338 16.0824 19.0383C16.0824 18.5836 16.2703 18.3312 16.7094 18.205C17.53 17.9693 18.3505 17.741 19.171 17.5053C20.667 17.0785 22.1629 16.6516 23.6589 16.221C23.8673 16.1617 24.0682 16.1524 24.2785 16.2136C26.1019 16.7351 27.9272 17.2548 29.7525 17.7744C30.2455 17.9154 30.7386 18.0528 31.2298 18.1938C31.682 18.3237 31.8736 18.5817 31.8736 19.055C31.8736 19.9179 31.8717 20.7828 31.8736 21.6458C31.8792 22.9523 31.6261 24.2106 31.1777 25.4336C30.7758 26.5323 30.1767 27.5177 29.4362 28.4178C28.2063 29.9137 26.6694 30.9808 24.8497 31.6452C24.6562 31.7157 24.459 31.7769 24.2617 31.84C24.0794 31.8976 23.8952 31.9013 23.711 31.8456C22.55 31.5023 21.4708 30.9845 20.494 30.2774C19.2529 29.3792 18.2556 28.2564 17.4872 26.9294C16.8248 25.7825 16.4117 24.552 16.2033 23.2492C16.0843 22.5069 16.0712 21.759 16.0805 21.011C16.0805 20.8477 16.0805 20.6863 16.0805 20.5229L16.0824 20.5248ZM30.3144 20.9108C30.3144 20.9108 30.3144 20.9108 30.3162 20.9108C30.3162 20.5378 30.3162 20.1666 30.3162 19.7936C30.3162 19.6142 30.2288 19.4997 30.0539 19.4503C28.8668 19.1125 27.6797 18.7766 26.4908 18.4388C25.6889 18.2105 24.8869 17.9823 24.0868 17.754C24.0068 17.7317 23.9324 17.7373 23.8543 17.7596C23.5882 17.8375 23.3203 17.9117 23.0523 17.9878C21.7164 18.3683 20.3805 18.7487 19.0445 19.1292C18.6203 19.2498 18.1979 19.3742 17.7718 19.4874C17.6453 19.5208 17.6063 19.5857 17.6211 19.7082C17.6342 19.8307 17.6379 19.9532 17.6379 20.0757C17.6397 20.7141 17.636 21.3525 17.6416 21.9891C17.6472 22.4846 17.6956 22.9783 17.796 23.4626C18.1626 25.2369 18.9813 26.7735 20.2539 28.0634C21.2512 29.0748 22.429 29.806 23.778 30.2607C23.9082 30.3052 24.0292 30.3182 24.1575 30.2607C24.2692 30.2106 24.3883 30.1753 24.5036 30.1345C25.7782 29.6724 26.8648 28.9226 27.8025 27.9539C28.5393 27.1911 29.1199 26.3225 29.5441 25.3464C30.0204 24.2495 30.2995 23.1137 30.3107 21.9167C30.3144 21.5808 30.3107 21.243 30.3107 20.9071L30.3144 20.9108Z" fill="#30404F"/>
<path d="M20.1609 24.0262C20.1758 23.707 20.3209 23.4658 20.6167 23.334C20.9312 23.193 21.2289 23.2449 21.4745 23.4843C21.9266 23.9242 22.3694 24.3733 22.8141 24.8206C23.0021 25.0099 22.976 24.982 23.1323 24.8261C24.2282 23.733 25.3223 22.6399 26.4145 21.5449C26.5596 21.3983 26.714 21.2703 26.9261 21.2424C27.2555 21.1998 27.5085 21.3278 27.6909 21.5951C27.8583 21.84 27.849 22.1815 27.6834 22.4246C27.6257 22.51 27.5532 22.5842 27.4806 22.6566C26.1893 23.9446 24.8962 25.2326 23.6049 26.5224C23.3612 26.7655 23.0877 26.8991 22.736 26.7971C22.6076 26.7581 22.4997 26.6857 22.4048 26.5911C21.7313 25.9192 21.0577 25.2456 20.386 24.57C20.239 24.4215 20.146 24.2452 20.1572 24.0244L20.1609 24.0262Z" fill="#FFB400"/>
</svg>
