<svg width="48" height="48" viewBox="0 0 48 48" fill="none" xmlns="http://www.w3.org/2000/svg">
<path d="M24.5164 6.00199C25.402 6.27797 26.0175 6.82003 26.218 7.7572C26.4721 8.94455 25.7037 10.1279 24.5124 10.394C23.331 10.66 22.1218 9.90157 21.8478 8.72018C21.5639 7.50305 22.1993 6.48248 23.5395 6H24.5184L24.5164 6.00199ZM25.1299 8.196C25.1279 7.58247 24.6296 7.08013 24.026 7.08013C23.4164 7.08013 22.926 7.57651 22.924 8.196C22.92 8.83137 23.4244 9.34165 24.0438 9.32775C24.6574 9.31386 25.1319 8.81946 25.1299 8.19799V8.196Z" fill="#FFB400"/>
<path d="M8.39062 15.5703C8.82347 14.373 9.57995 13.7853 10.6601 13.8052C11.7442 13.825 12.7231 14.7165 12.8144 15.7689C12.9196 16.99 12.175 18.0244 11.0353 18.2409C9.95124 18.4454 8.90686 17.8676 8.50975 16.8411C8.47203 16.7438 8.43232 16.6465 8.39261 16.5492V15.5703H8.39062ZM10.5985 14.9469C9.97309 14.9469 9.49259 15.4115 9.48068 16.0349C9.46877 16.6246 9.98303 17.1508 10.5807 17.1568C11.2021 17.1627 11.7263 16.6485 11.7184 16.0369C11.7104 15.4254 11.218 14.9469 10.5985 14.9469Z" fill="#FFB400"/>
<path d="M8.39062 31.2303C8.59712 30.6306 8.91084 30.1164 9.48466 29.7947C10.5807 29.1772 11.9566 29.5604 12.5583 30.6604C13.1678 31.7723 12.735 33.1602 11.5993 33.734C10.4814 34.2979 9.12527 33.8333 8.58123 32.6936C8.50578 32.5367 8.45218 32.37 8.39062 32.2071C8.39062 31.8815 8.39062 31.5559 8.39062 31.2283V31.2303ZM10.5668 32.8306C11.2081 32.8425 11.7124 32.364 11.7184 31.7386C11.7243 31.1409 11.222 30.6306 10.6144 30.6227C10.0128 30.6128 9.49657 31.1091 9.48267 31.7108C9.46678 32.3243 9.94728 32.8207 10.5668 32.8306Z" fill="#FFB400"/>
<path d="M33.0016 23.9089C33.0016 25.2353 32.9896 26.5636 33.0055 27.8899C33.0155 28.6762 32.6998 29.2441 32.0148 29.6372C29.6738 30.9794 27.3368 32.3336 25.0038 33.6877C24.3605 34.061 23.7331 34.065 23.0878 33.6917C20.7528 32.3375 18.4178 30.9814 16.0769 29.6412C15.3899 29.248 15.0742 28.6861 15.0782 27.8999C15.0881 25.2353 15.0901 22.5687 15.0782 19.9041C15.0742 19.1059 15.3819 18.5341 16.0848 18.133C18.4198 16.8007 20.7429 15.4506 23.066 14.1004C23.7212 13.7192 24.3565 13.7152 25.0138 14.0964C27.3587 15.4565 29.7056 16.8146 32.0545 18.1648C32.7037 18.5381 33.0075 19.0841 33.0055 19.8267C32.9996 21.1888 33.0055 22.5508 33.0055 23.9129L33.0016 23.9089ZM21.005 21.4588C21.1062 21.5323 21.1598 21.5779 21.2174 21.6117C22.0752 22.1061 22.9349 22.5945 23.7867 23.0949C23.9714 23.2041 24.1103 23.2021 24.295 23.0949C25.4486 22.4178 26.6101 21.7527 27.7697 21.0835C28.4448 20.6944 29.1159 20.2973 29.7969 19.918C30.0888 19.7552 30.4005 19.8446 30.5594 20.1007C30.7182 20.3568 30.6467 20.6686 30.3747 20.8651C30.2516 20.9525 30.1186 21.026 29.9875 21.1014C28.2939 22.0783 26.6022 23.0591 24.9066 24.0301C24.704 24.1472 24.6048 24.2783 24.6067 24.5245C24.6147 27.0977 24.6147 29.671 24.6067 32.2422C24.6067 32.5401 24.6663 32.5877 24.9324 32.4328C27.0748 31.1859 29.2191 29.941 31.3714 28.712C31.7308 28.5074 31.8698 28.2553 31.8678 27.8423C31.8539 25.1995 31.8539 22.5568 31.8678 19.9141C31.8678 19.5169 31.7388 19.2648 31.3893 19.0702C30.4442 18.544 29.509 17.998 28.5798 17.444C28.3495 17.3051 28.1727 17.3051 27.9424 17.4401C26.8702 18.0735 25.7881 18.691 24.71 19.3124C23.4928 20.0173 22.2757 20.7222 21.007 21.4548L21.005 21.4588ZM23.467 28.3724C23.467 27.0918 23.4631 25.8131 23.471 24.5324C23.471 24.312 23.4134 24.1631 23.2109 24.0499C22.379 23.5813 21.551 23.1108 20.731 22.6223C20.4391 22.4476 20.4172 22.5588 20.4232 22.8229C20.4351 23.357 20.4331 23.8931 20.4232 24.4292C20.4153 24.7727 20.1988 25.001 19.899 25.0208C19.6071 25.0407 19.3729 24.8322 19.3153 24.4907C19.2934 24.3537 19.2915 24.2127 19.2895 24.0737C19.2875 23.4344 19.2776 22.7931 19.2934 22.1537C19.2994 21.8857 19.1942 21.7308 18.9638 21.6018C18.1716 21.159 17.3893 20.7003 16.603 20.2456C16.2337 20.0332 16.2179 20.0411 16.2179 20.4779C16.2179 22.944 16.2238 25.412 16.2099 27.878C16.2079 28.2811 16.3608 28.5174 16.7043 28.712C18.8546 29.941 20.999 31.1839 23.1394 32.4289C23.3856 32.5718 23.473 32.5679 23.469 32.2482C23.4571 30.9576 23.4651 29.665 23.4651 28.3724H23.467ZM27.041 16.5923C26.9914 16.5565 26.9397 16.5108 26.8802 16.4771C26.0542 15.9986 25.2282 15.5201 24.4002 15.0455C24.1322 14.8926 23.8721 14.9284 23.608 15.0813C21.4219 16.348 19.2359 17.6108 17.0458 18.8677C16.8195 18.9987 16.8036 19.0642 17.0418 19.1993C17.8936 19.6798 18.7395 20.1702 19.5813 20.6666C19.7779 20.7837 19.9368 20.7778 20.1293 20.6626C20.729 20.3052 21.3366 19.9617 21.9421 19.6123C23.5743 18.6691 25.2064 17.726 26.8385 16.7809C26.9139 16.7372 27.0192 16.7193 27.041 16.5883V16.5923Z" fill="#30404F"/>
<path d="M24.0488 37.3438C25.2758 37.3477 26.2745 38.3385 26.2785 39.5596C26.2845 40.8065 25.2659 41.8033 23.9951 41.7953C22.776 41.7874 21.7773 40.7787 21.7813 39.5596C21.7872 38.3266 22.7939 37.3398 24.0468 37.3438H24.0488ZM22.9289 39.5537C22.9229 40.1731 23.3955 40.6715 24.009 40.6934C24.6047 40.7132 25.1249 40.2089 25.1348 39.5993C25.1467 38.96 24.6623 38.4497 24.0368 38.4457C23.4273 38.4418 22.9329 38.9342 22.9289 39.5537Z" fill="#FFB400"/>
<path d="M35.2344 31.7439C35.2265 30.5069 36.2331 29.4864 37.4662 29.4844C38.6793 29.4804 39.69 30.4891 39.6959 31.7102C39.7019 32.9611 38.7151 33.9717 37.484 33.9777C36.2431 33.9836 35.2443 32.9928 35.2344 31.7459V31.7439ZM37.4542 32.832C38.0856 32.836 38.5681 32.3733 38.5761 31.7558C38.584 31.1463 38.0936 30.634 37.492 30.6241C36.8685 30.6122 36.3443 31.1205 36.3463 31.732C36.3463 32.3436 36.8367 32.828 37.4542 32.832Z" fill="#FFB400"/>
<path d="M35.2348 16.0092C35.2586 14.7444 36.2752 13.7775 37.544 13.8053C38.7631 13.8331 39.7161 14.8655 39.6943 16.1323C39.6725 17.3177 38.6181 18.3283 37.4387 18.2966C36.1898 18.2628 35.211 17.2462 35.2348 16.0092ZM38.5725 16.043C38.5784 15.4255 38.0979 14.9489 37.4705 14.947C36.849 14.945 36.3566 15.4175 36.3427 16.0271C36.3288 16.6366 36.849 17.1569 37.4685 17.1569C38.0721 17.1569 38.5665 16.6565 38.5705 16.043H38.5725Z" fill="#FFB400"/>
<path d="M9.90824 23.8728C9.90824 22.604 9.91221 21.3333 9.90625 20.0645C9.90625 19.729 10.0353 19.4987 10.3669 19.4192C10.6429 19.3537 10.9308 19.5423 10.9903 19.8422C11.0301 20.0467 11.04 20.2591 11.04 20.4676C11.044 22.749 11.042 25.0323 11.04 27.3137C11.04 27.4646 11.036 27.6175 11.0201 27.7664C10.9745 28.1615 10.7481 28.3919 10.4364 28.372C10.1147 28.3522 9.91221 28.1079 9.91022 27.7148C9.90625 26.6545 9.91022 25.5962 9.91022 24.536C9.91022 24.3156 9.91022 24.0932 9.91022 23.8728H9.90824Z" fill="#30404F"/>
<path d="M38.1809 23.9085C38.1809 25.1316 38.1809 26.3547 38.1809 27.5758C38.1809 27.6929 38.1889 27.812 38.165 27.9232C38.1075 28.1952 37.9228 28.3501 37.6528 28.368C37.3748 28.3859 37.1742 28.235 37.1087 27.9709C37.0551 27.7604 37.0512 27.5321 37.0492 27.3137C37.0452 25.0323 37.0472 22.7489 37.0492 20.4675C37.0492 20.3047 37.0551 20.1419 37.075 19.9791C37.1226 19.6078 37.351 19.3894 37.6528 19.4073C37.9645 19.4271 38.169 19.6634 38.1809 20.0287C38.1869 20.2154 38.1809 20.402 38.1809 20.5867C38.1809 21.6926 38.1809 22.7986 38.1809 23.9045V23.9085Z" fill="#30404F"/>
<path d="M34.6693 14.0157C34.6792 14.4644 34.2226 14.7185 33.7957 14.4842C33.2238 14.1705 32.6659 13.835 32.102 13.5074C30.5195 12.594 28.9371 11.6807 27.3566 10.7673C27.297 10.7316 27.2355 10.6978 27.1759 10.6601C26.89 10.4675 26.7986 10.1776 26.9416 9.90957C27.0925 9.62563 27.4042 9.5204 27.7219 9.69314C28.3255 10.0208 28.9152 10.3722 29.5089 10.7157C31.0715 11.6171 32.6321 12.5186 34.1948 13.42C34.431 13.557 34.6574 13.7 34.6673 14.0157H34.6693Z" fill="#30404F"/>
<path d="M13.9575 14.5955C13.7073 14.5776 13.5128 14.4664 13.4274 14.2182C13.336 13.9541 13.4174 13.7278 13.6438 13.5769C13.9039 13.4022 14.1819 13.2532 14.4539 13.0964C16.3282 12.0123 18.2006 10.9302 20.0749 9.84606C20.1663 9.79444 20.2556 9.73884 20.3509 9.69516C20.6666 9.5522 20.9545 9.63162 21.1114 9.89769C21.2643 10.1558 21.1948 10.4755 20.9089 10.6562C20.5157 10.9044 20.1067 11.1287 19.7036 11.363C17.9504 12.3756 16.1972 13.3863 14.444 14.3989C14.2931 14.4863 14.1461 14.5816 13.9595 14.5955H13.9575Z" fill="#30404F"/>
<path d="M13.9376 33.1875C14.0945 33.1895 14.2275 33.261 14.3606 33.3364C16.4871 34.5635 18.6136 35.7905 20.7401 37.0156C20.7798 37.0394 20.8215 37.0613 20.8592 37.0871C21.1809 37.2995 21.2782 37.6133 21.1094 37.8892C20.9367 38.1712 20.6289 38.2427 20.2834 38.0521C19.785 37.7761 19.2946 37.4842 18.8002 37.2003C17.188 36.269 15.5757 35.3378 13.9635 34.4066C13.8324 34.3312 13.6974 34.2577 13.5842 34.1604C13.4015 34.0016 13.344 33.7911 13.4294 33.5588C13.5147 33.3265 13.6954 33.2153 13.9357 33.1875H13.9376Z" fill="#30404F"/>
<path d="M27.4074 38.1677C27.1731 38.1597 26.9844 38.0307 26.907 37.7865C26.8196 37.5105 26.9129 37.2782 27.1651 37.1292C27.8164 36.746 28.4716 36.3648 29.1248 35.9876C30.6358 35.1139 32.1488 34.2423 33.6618 33.3726C33.7809 33.3031 33.91 33.2277 34.043 33.2098C34.313 33.1721 34.5215 33.2952 34.6268 33.5513C34.732 33.8094 34.6605 34.0437 34.4381 34.2006C34.2018 34.3674 33.9437 34.5064 33.6916 34.6533C31.7676 35.7652 29.8436 36.8771 27.9176 37.987C27.7667 38.0744 27.6178 38.1677 27.4054 38.1697L27.4074 38.1677Z" fill="#30404F"/>
</svg>
