<svg width="48" height="48" viewBox="0 0 48 48" fill="none" xmlns="http://www.w3.org/2000/svg">
<path d="M40.2225 37.6648H34.418C35.1594 36.9147 36.1864 36.4502 37.3202 36.4502C38.454 36.4502 39.4839 36.9147 40.2225 37.6648Z" fill="url(#paint0_linear_69_31938)"/>
<path d="M42.622 25.2016C42.1374 23.5197 40.5968 22.3628 38.8456 22.3628H30.4043V37.6616H32.2189C33.2142 35.873 35.1212 34.6642 37.3195 34.6642C39.5178 34.6642 41.4248 35.873 42.4287 37.6616H44.2376V30.7782L42.622 25.2016ZM32.3257 30.7032V24.2842H38.8456C39.7371 24.2842 40.5304 24.8813 40.7785 25.7353L42.2181 30.7032H32.3257Z" fill="url(#paint1_linear_69_31938)"/>
<path d="M42.2186 30.7031H32.3262V30.706H42.2186V30.7031Z" fill="url(#paint2_linear_69_31938)"/>
<path d="M32.3252 24.2841V30.7031H32.3223V24.2812L32.3252 24.2841Z" fill="url(#paint3_linear_69_31938)"/>
<path d="M42.2186 30.7032H32.3262V24.2842H38.8461C39.7376 24.2842 40.5309 24.8814 40.779 25.7353L42.2186 30.7032Z" fill="url(#paint4_linear_69_31938)" stroke="white" stroke-width="0.288494" stroke-miterlimit="10"/>
<path d="M42.2175 30.7031V30.7054L42.2129 30.7031H42.2175Z" fill="url(#paint5_linear_69_31938)"/>
<path d="M13.374 36.4502C14.5078 36.4502 15.5348 36.9147 16.2733 37.6619H10.4746C11.2132 36.9147 12.2402 36.4502 13.374 36.4502Z" fill="url(#paint6_linear_69_31938)"/>
<path d="M30.4059 17.2362V37.6616H18.4911C17.4842 35.873 15.5686 34.6642 13.3789 34.6642C11.1893 34.6642 9.26502 35.873 8.26971 37.6616H4V17.2362C4 15.8255 5.14244 14.6802 6.55317 14.6802H27.8498C29.2605 14.6802 30.4059 15.8255 30.4059 17.2362Z" fill="url(#paint7_linear_69_31938)"/>
<path d="M21.3072 14.6855V21.4363L20.3176 20.4497L19.2819 21.4854L18.2491 20.4497L17.2134 21.4854L16.1778 20.4497L15.1276 21.4854L14.0948 20.4497L13.0938 21.4478V14.6855H21.3072Z" fill="url(#paint8_linear_69_31938)" stroke="white" stroke-width="1.15398" stroke-miterlimit="10"/>
<path d="M17.4584 40.5324V40.5497H9.29688V40.5324C9.29688 39.413 9.74693 38.4004 10.4768 37.6619C11.2154 36.9147 12.2424 36.4502 13.3762 36.4502C14.51 36.4502 15.537 36.9147 16.2755 37.6619C17.0054 38.4004 17.4584 39.413 17.4584 40.5324Z" fill="url(#paint9_linear_69_31938)"/>
<path d="M41.4028 40.5324V40.5497H33.2441V40.5324C33.2441 39.4159 33.6942 38.4004 34.4212 37.6648C35.1626 36.9147 36.1897 36.4502 37.3234 36.4502C38.4572 36.4502 39.4872 36.9147 40.2257 37.6648C40.9527 38.4004 41.4028 39.4159 41.4028 40.5324Z" fill="url(#paint10_linear_69_31938)"/>
<path d="M41.4028 40.5324V40.5497C41.3941 42.7942 39.5708 44.6117 37.3234 44.6117C35.0761 44.6117 33.2528 42.7942 33.2441 40.5497V40.5324C33.2441 39.4159 33.6942 38.4004 34.4212 37.6648C35.1626 36.9147 36.1897 36.4502 37.3234 36.4502C38.4572 36.4502 39.4872 36.9147 40.2257 37.6648C40.9527 38.4004 41.4028 39.4159 41.4028 40.5324Z" fill="url(#paint11_linear_69_31938)"/>
<path d="M38.9638 40.5322C38.9638 41.4381 38.2281 42.1708 37.3251 42.1708C36.4221 42.1708 35.6836 41.4381 35.6836 40.5322C35.6836 39.6263 36.4193 38.8936 37.3251 38.8936C38.231 38.8936 38.9638 39.6263 38.9638 40.5322Z" fill="url(#paint12_linear_69_31938)"/>
<path d="M17.4584 40.5324V40.5497C17.4497 42.7942 15.6236 44.6117 13.3762 44.6117C11.1288 44.6117 9.30553 42.7942 9.29688 40.5497V40.5324C9.29688 39.413 9.74693 38.4004 10.4768 37.6619C11.2154 36.9147 12.2424 36.4502 13.3762 36.4502C14.51 36.4502 15.537 36.9147 16.2755 37.6619C17.0054 38.4004 17.4584 39.413 17.4584 40.5324Z" fill="url(#paint13_linear_69_31938)"/>
<path d="M15.0136 40.5322C15.0136 41.4381 14.2808 42.1708 13.375 42.1708C12.4691 42.1708 11.7363 41.4381 11.7363 40.5322C11.7363 39.6263 12.472 38.8936 13.375 38.8936C14.278 38.8936 15.0136 39.6263 15.0136 40.5322Z" fill="url(#paint14_linear_69_31938)"/>
<g filter="url(#filter0_d_69_31938)">
<path d="M31.1599 25.2944C36.977 25.2944 41.6928 20.5786 41.6928 14.7614C41.6928 8.94427 36.977 4.22852 31.1599 4.22852C25.3427 4.22852 20.627 8.94427 20.627 14.7614C20.627 20.5786 25.3427 25.2944 31.1599 25.2944Z" fill="url(#paint15_linear_69_31938)" stroke="white" stroke-width="0.288494" stroke-miterlimit="10"/>
<g style="mix-blend-mode:soft-light">
<path d="M38.3343 22.4722C38.2564 22.5415 38.1785 22.6078 38.1006 22.6742C42.2232 18.7708 42.5117 12.2711 38.7007 8.01001C34.8897 3.75184 28.3986 3.3191 24.0625 6.98009C24.1375 6.90796 24.2125 6.83873 24.2904 6.76949C28.6265 2.88924 35.2849 3.2614 39.1652 7.59746C43.0454 11.9335 42.6733 18.592 38.3372 22.4722H38.3343Z" fill="white"/>
<path d="M38.3343 22.4722C38.2564 22.5415 38.1785 22.6078 38.1006 22.6742C42.2232 18.7708 42.5117 12.2711 38.7007 8.01001C34.8897 3.75184 28.3986 3.3191 24.0625 6.98009C24.1375 6.90796 24.2125 6.83873 24.2904 6.76949C28.6265 2.88924 35.2849 3.2614 39.1652 7.59746C43.0454 11.9335 42.6733 18.592 38.3372 22.4722H38.3343Z" stroke="white" stroke-width="0.288494" stroke-miterlimit="10"/>
</g>
<path d="M31.1559 4.22503C34.0495 4.22503 36.9287 5.41074 39.0116 7.736C42.8919 12.0721 42.5197 18.7305 38.1836 22.6108C36.1728 24.4081 33.6629 25.2938 31.1646 25.2938C28.271 25.2938 25.3918 24.108 23.3089 21.7828C19.4286 17.4467 19.8008 10.7883 24.1369 6.90802C26.1477 5.1107 28.6576 4.22503 31.1559 4.22503ZM31.1559 4C28.5075 4 25.9601 4.97511 23.984 6.74069C21.8433 8.6563 20.574 11.2931 20.4153 14.1636C20.2566 17.0342 21.2231 19.7922 23.1387 21.9357C25.1783 24.2148 28.1008 25.5217 31.1617 25.5217C33.8101 25.5217 36.3575 24.5494 38.3337 22.781C40.4743 20.8654 41.7437 18.2285 41.9023 15.358C42.061 12.4875 41.0945 9.72949 39.1789 7.58598C37.1393 5.30688 34.2168 4 31.1559 4Z" fill="white"/>
<path d="M25.8688 19.2551H36.2637C36.4333 19.2551 36.5711 19.1272 36.5711 18.9699C36.5711 18.8125 36.4333 18.6847 36.2637 18.6847H35.0412V12.7285C35.0412 12.5712 34.9034 12.4434 34.7338 12.4434H34.1226C33.953 12.4434 33.8152 12.5712 33.8152 12.7285V18.6847H32.5926V13.8627C32.5926 13.7054 32.4548 13.5776 32.2852 13.5776H31.674C31.5044 13.5776 31.3666 13.7054 31.3666 13.8627V18.6847H30.1441V14.9969C30.1441 14.8396 30.0063 14.7117 29.8367 14.7117H29.2254C29.0558 14.7117 28.918 14.8396 28.918 14.9969V18.6847H27.6955V16.6982C27.6955 16.5409 27.5577 16.413 27.3881 16.413H26.7768C26.6072 16.413 26.4694 16.5409 26.4694 16.6982V18.6847H25.8582C25.6886 18.6847 25.5508 18.8125 25.5508 18.9699C25.5508 19.1272 25.6886 19.2551 25.8582 19.2551H25.8688Z" fill="white"/>
<path d="M31.0612 7.0574V6.7591C31.0612 6.65748 31.0011 6.56569 30.9057 6.51652C30.8103 6.46735 30.6937 6.47391 30.6018 6.52964L29.662 7.10984C29.5807 7.15901 29.5313 7.24424 29.5313 7.33603C29.5313 7.42781 29.5807 7.51304 29.662 7.56221L30.6018 8.14242C30.6937 8.19814 30.8103 8.2047 30.9057 8.15553C31.0011 8.10636 31.0612 8.01457 31.0612 7.91296V7.61466C35.4495 7.61466 39.0076 10.9156 39.0076 14.9869C39.0076 19.0582 35.4495 22.3592 31.0612 22.3592C26.6728 22.3592 23.1148 19.0582 23.1148 14.9869C23.1148 14.8296 22.977 14.7017 22.8074 14.7017C22.6378 14.7017 22.5 14.8296 22.5 14.9869C22.5 19.3729 26.3336 22.9263 31.0576 22.9263C35.7817 22.9263 39.6153 19.3696 39.6153 14.9869C39.6153 10.6042 35.7817 7.04756 31.0576 7.04756L31.0612 7.0574Z" fill="white"/>
<path d="M22.8531 14.1439C22.8531 14.1439 22.8849 14.1439 22.8991 14.1439C23.051 14.1439 23.1782 14.0423 23.1994 13.9014C23.2135 13.8096 23.2312 13.7178 23.2488 13.6293C23.2771 13.4752 23.1676 13.331 23.0051 13.3015C22.8425 13.272 22.6835 13.3736 22.6482 13.5244C22.627 13.6227 22.6093 13.7211 22.5952 13.8194C22.5705 13.9735 22.6835 14.1177 22.8496 14.1407L22.8531 14.1439Z" fill="white"/>
<path d="M23.1736 12.7155C23.3326 12.7679 23.5057 12.6893 23.5622 12.5418C23.5975 12.45 23.6329 12.3582 23.6717 12.2697C23.7106 12.1746 23.6965 12.0697 23.6293 11.9878C23.5622 11.9091 23.4527 11.8665 23.3467 11.8829C23.2407 11.8993 23.1453 11.9648 23.1064 12.0599C23.064 12.1582 23.0252 12.2566 22.9863 12.3549C22.9298 12.5024 23.0146 12.663 23.1736 12.7155Z" fill="white"/>
<path d="M23.8487 11.2726C23.8982 11.2988 23.9512 11.3152 24.0077 11.3152C24.1137 11.3152 24.2126 11.2628 24.2692 11.1808C24.3292 11.089 24.3928 10.9972 24.4564 10.9087C24.5518 10.7776 24.513 10.6039 24.3716 10.5154C24.2303 10.4269 24.043 10.4629 23.9476 10.594C23.877 10.6891 23.8098 10.7875 23.7462 10.8891C23.7038 10.9546 23.6897 11.03 23.7109 11.1021C23.7321 11.1743 23.778 11.2398 23.8487 11.2792V11.2726Z" fill="white"/>
<path d="M24.9485 10.1384C25.0333 10.1384 25.1181 10.1057 25.1747 10.0467C25.2524 9.96798 25.3337 9.88931 25.4149 9.81064C25.5351 9.69919 25.5315 9.5189 25.4149 9.41072C25.2983 9.30255 25.1005 9.30255 24.9839 9.41072C24.8955 9.49267 24.8107 9.5779 24.7259 9.66313C24.6447 9.74508 24.6235 9.86636 24.6729 9.96798C24.7224 10.0696 24.8319 10.1352 24.9521 10.1352L24.9485 10.1384Z" fill="white"/>
<path d="M26.1735 9.11612C26.2407 9.11612 26.3007 9.09645 26.3537 9.06039C26.435 9.00467 26.5163 8.95222 26.6011 8.89977C26.6929 8.84405 26.7424 8.74571 26.7353 8.64409C26.7283 8.54247 26.6611 8.45396 26.5622 8.40807C26.4633 8.36546 26.3467 8.37201 26.2583 8.42774C26.1665 8.48346 26.0781 8.54247 25.9933 8.60147C25.8873 8.67359 25.8449 8.80143 25.8873 8.91616C25.9297 9.03089 26.0463 9.10956 26.1771 9.10956L26.1735 9.11612Z" fill="white"/>
<path d="M27.445 8.39854C27.4909 8.39854 27.5369 8.3887 27.5793 8.36903C27.6605 8.33298 27.7418 8.29692 27.8231 8.26414C27.922 8.22152 27.9927 8.1363 28.0033 8.03468C28.0139 7.93306 27.9679 7.83472 27.8796 7.77571C27.7913 7.71671 27.6747 7.7036 27.5757 7.74621C27.4874 7.78227 27.3991 7.82161 27.3143 7.86094C27.1871 7.91995 27.1164 8.05107 27.1482 8.17891C27.18 8.30675 27.3037 8.39854 27.4485 8.39854H27.445Z" fill="white"/>
</g>
<defs>
<filter id="filter0_d_69_31938" x="18.0905" y="1.63394" width="26.2097" height="26.1955" filterUnits="userSpaceOnUse" color-interpolation-filters="sRGB">
<feFlood flood-opacity="0" result="BackgroundImageFix"/>
<feColorMatrix in="SourceAlpha" type="matrix" values="0 0 0 0 0 0 0 0 0 0 0 0 0 0 0 0 0 0 127 0" result="hardAlpha"/>
<feOffset/>
<feGaussianBlur stdDeviation="1.15398"/>
<feColorMatrix type="matrix" values="0 0 0 0 1 0 0 0 0 0 0 0 0 0 0.54902 0 0 0 0.75 0"/>
<feBlend mode="normal" in2="BackgroundImageFix" result="effect1_dropShadow_69_31938"/>
<feBlend mode="normal" in="SourceGraphic" in2="effect1_dropShadow_69_31938" result="shape"/>
</filter>
<linearGradient id="paint0_linear_69_31938" x1="34.418" y1="37.0589" x2="40.2225" y2="37.0589" gradientUnits="userSpaceOnUse">
<stop stop-color="#FB8999"/>
<stop offset="0.05" stop-color="#FB8599"/>
<stop offset="0.42" stop-color="#FB6A99"/>
<stop offset="0.74" stop-color="#FB5A99"/>
<stop offset="1" stop-color="#FB5599"/>
</linearGradient>
<linearGradient id="paint1_linear_69_31938" x1="30.4043" y1="30.0137" x2="44.2376" y2="30.0137" gradientUnits="userSpaceOnUse">
<stop stop-color="#FB8999"/>
<stop offset="0.05" stop-color="#FB8599"/>
<stop offset="0.42" stop-color="#FB6A99"/>
<stop offset="0.74" stop-color="#FB5A99"/>
<stop offset="1" stop-color="#FB5599"/>
</linearGradient>
<linearGradient id="paint2_linear_69_31938" x1="32.3262" y1="30.7031" x2="42.2186" y2="30.7031" gradientUnits="userSpaceOnUse">
<stop stop-color="#FB8999"/>
<stop offset="0.05" stop-color="#FB8599"/>
<stop offset="0.42" stop-color="#FB6A99"/>
<stop offset="0.74" stop-color="#FB5A99"/>
<stop offset="1" stop-color="#FB5599"/>
</linearGradient>
<linearGradient id="paint3_linear_69_31938" x1="32.3223" y1="27.4922" x2="32.3252" y2="27.4922" gradientUnits="userSpaceOnUse">
<stop stop-color="#FB8999"/>
<stop offset="0.05" stop-color="#FB8599"/>
<stop offset="0.42" stop-color="#FB6A99"/>
<stop offset="0.74" stop-color="#FB5A99"/>
<stop offset="1" stop-color="#FB5599"/>
</linearGradient>
<linearGradient id="paint4_linear_69_31938" x1="32.3262" y1="27.4922" x2="42.2186" y2="27.4922" gradientUnits="userSpaceOnUse">
<stop stop-color="#FB8999"/>
<stop offset="0.05" stop-color="#FB8599"/>
<stop offset="0.42" stop-color="#FB6A99"/>
<stop offset="0.74" stop-color="#FB5A99"/>
<stop offset="1" stop-color="#FB5599"/>
</linearGradient>
<linearGradient id="paint5_linear_69_31938" x1="42.2129" y1="30.7031" x2="42.2175" y2="30.7031" gradientUnits="userSpaceOnUse">
<stop stop-color="#FB8999"/>
<stop offset="0.05" stop-color="#FB8599"/>
<stop offset="0.42" stop-color="#FB6A99"/>
<stop offset="0.74" stop-color="#FB5A99"/>
<stop offset="1" stop-color="#FB5599"/>
</linearGradient>
<linearGradient id="paint6_linear_69_31938" x1="10.4746" y1="37.056" x2="16.2733" y2="37.056" gradientUnits="userSpaceOnUse">
<stop stop-color="#FB8999"/>
<stop offset="0.05" stop-color="#FB8599"/>
<stop offset="0.42" stop-color="#FB6A99"/>
<stop offset="0.74" stop-color="#FB5A99"/>
<stop offset="1" stop-color="#FB5599"/>
</linearGradient>
<linearGradient id="paint7_linear_69_31938" x1="4" y1="26.1709" x2="30.4059" y2="26.1709" gradientUnits="userSpaceOnUse">
<stop stop-color="#FB8999"/>
<stop offset="0.05" stop-color="#FB8599"/>
<stop offset="0.42" stop-color="#FB6A99"/>
<stop offset="0.74" stop-color="#FB5A99"/>
<stop offset="1" stop-color="#FB5599"/>
</linearGradient>
<linearGradient id="paint8_linear_69_31938" x1="13.0938" y1="18.084" x2="21.3072" y2="18.084" gradientUnits="userSpaceOnUse">
<stop stop-color="#FB8999"/>
<stop offset="0.05" stop-color="#FB8599"/>
<stop offset="0.42" stop-color="#FB6A99"/>
<stop offset="0.74" stop-color="#FB5A99"/>
<stop offset="1" stop-color="#FB5599"/>
</linearGradient>
<linearGradient id="paint9_linear_69_31938" x1="9.29688" y1="38.5014" x2="17.4584" y2="38.5014" gradientUnits="userSpaceOnUse">
<stop stop-color="#FB8999"/>
<stop offset="0.05" stop-color="#FB8599"/>
<stop offset="0.42" stop-color="#FB6A99"/>
<stop offset="0.74" stop-color="#FB5A99"/>
<stop offset="1" stop-color="#FB5599"/>
</linearGradient>
<linearGradient id="paint10_linear_69_31938" x1="33.2441" y1="38.5014" x2="41.4028" y2="38.5014" gradientUnits="userSpaceOnUse">
<stop stop-color="#FB8999"/>
<stop offset="0.05" stop-color="#FB8599"/>
<stop offset="0.42" stop-color="#FB6A99"/>
<stop offset="0.74" stop-color="#FB5A99"/>
<stop offset="1" stop-color="#FB5599"/>
</linearGradient>
<linearGradient id="paint11_linear_69_31938" x1="33.2441" y1="40.5324" x2="41.4028" y2="40.5324" gradientUnits="userSpaceOnUse">
<stop stop-color="#FB8999"/>
<stop offset="0.05" stop-color="#FB8599"/>
<stop offset="0.42" stop-color="#FB6A99"/>
<stop offset="0.74" stop-color="#FB5A99"/>
<stop offset="1" stop-color="#FB5599"/>
</linearGradient>
<linearGradient id="paint12_linear_69_31938" x1="35.6836" y1="40.5322" x2="38.9638" y2="40.5322" gradientUnits="userSpaceOnUse">
<stop stop-color="#FB8999"/>
<stop offset="0.05" stop-color="#FB8599"/>
<stop offset="0.42" stop-color="#FB6A99"/>
<stop offset="0.74" stop-color="#FB5A99"/>
<stop offset="1" stop-color="#FB5599"/>
</linearGradient>
<linearGradient id="paint13_linear_69_31938" x1="9.29688" y1="40.5324" x2="17.4584" y2="40.5324" gradientUnits="userSpaceOnUse">
<stop stop-color="#FB8999"/>
<stop offset="0.05" stop-color="#FB8599"/>
<stop offset="0.42" stop-color="#FB6A99"/>
<stop offset="0.74" stop-color="#FB5A99"/>
<stop offset="1" stop-color="#FB5599"/>
</linearGradient>
<linearGradient id="paint14_linear_69_31938" x1="11.7363" y1="40.5322" x2="15.0136" y2="40.5322" gradientUnits="userSpaceOnUse">
<stop stop-color="#FB8999"/>
<stop offset="0.05" stop-color="#FB8599"/>
<stop offset="0.42" stop-color="#FB6A99"/>
<stop offset="0.74" stop-color="#FB5A99"/>
<stop offset="1" stop-color="#FB5599"/>
</linearGradient>
<linearGradient id="paint15_linear_69_31938" x1="24.1296" y1="6.90895" x2="38.1781" y2="22.6103" gradientUnits="userSpaceOnUse">
<stop stop-color="white" stop-opacity="0.84"/>
<stop offset="0.03" stop-color="white" stop-opacity="0.73"/>
<stop offset="0.05" stop-color="white" stop-opacity="0.65"/>
<stop offset="0.08" stop-color="white" stop-opacity="0.58"/>
<stop offset="0.11" stop-color="white" stop-opacity="0.53"/>
<stop offset="0.16" stop-color="white" stop-opacity="0.51"/>
<stop offset="0.28" stop-color="white" stop-opacity="0.5"/>
<stop offset="0.46" stop-color="#FDFDFD" stop-opacity="0.48"/>
<stop offset="0.67" stop-color="#F9F9F9" stop-opacity="0.43"/>
<stop offset="0.89" stop-color="#F3F3F3" stop-opacity="0.35"/>
<stop offset="1" stop-color="#EFEFEF" stop-opacity="0.3"/>
</linearGradient>
</defs>
</svg>
