<svg width="198" height="160" viewBox="0 0 198 160" fill="none" xmlns="http://www.w3.org/2000/svg">
<path d="M91.5395 66.6302L80.7528 53.0552L49.686 45.5879L1 73.7532L68.4045 158.62L134.279 120.42L121.125 103.865" stroke="#0E2B72" stroke-width="0.8" stroke-linecap="round" stroke-linejoin="round"/>
<path d="M63.4457 63.0321L46.4331 47.4494L49.6861 45.5684L63.4457 63.0321Z" fill="#0E2B72"/>
<path d="M63.4457 63.0321L46.4331 47.4494L49.6861 45.5684L63.4457 63.0321Z" stroke="#0E2B72" stroke-width="0.8" stroke-linecap="round" stroke-linejoin="round"/>
<path d="M93.2961 106.78C85.2647 102.152 80.5755 94.3202 80.6699 87.023C74.9742 85.7517 69.0103 86.6019 63.8968 89.4142C53.5084 95.4287 51.7642 108.74 60.0154 119.109C68.2666 129.496 83.3785 133.025 93.7669 126.99C96.7189 125.34 99.1382 122.881 100.74 119.902C102.342 116.923 103.059 113.549 102.808 110.177C99.4561 109.637 96.2318 108.486 93.2961 106.78Z" fill="#FFB400"/>
<path d="M93.2961 106.78C85.2647 102.152 80.5755 94.3202 80.6699 87.023C74.9742 85.7517 69.0103 86.6019 63.8968 89.4142C53.5084 95.4287 51.7642 108.74 60.0154 119.109C68.2666 129.496 83.3785 133.025 93.7669 126.99C96.7189 125.34 99.1382 122.881 100.74 119.902C102.342 116.923 103.059 113.549 102.808 110.177C99.4561 109.637 96.2318 108.486 93.2961 106.78Z" stroke="#0E2B72" stroke-width="0.8" stroke-linecap="round" stroke-linejoin="round"/>
<path d="M80.7331 53.0159L63.4457 63.0321L49.686 45.5684" stroke="#0E2B72" stroke-width="0.8" stroke-linecap="round" stroke-linejoin="round"/>
<path d="M21.4624 80.3396L50.4117 63.582" stroke="#0E2B72" stroke-width="0.8" stroke-linecap="round" stroke-linejoin="round"/>
<path d="M30.498 91.7454L75.5391 65.6758" stroke="#0E2B72" stroke-width="0.8" stroke-linecap="round" stroke-linejoin="round"/>
<path d="M65.3462 113.19L85.0249 118.443L84.3198 98.5098" stroke="#0E2B72" stroke-width="0.8" stroke-linecap="round" stroke-linejoin="round"/>
<path d="M87.1416 71.8926L82.693 79.5372C77.6356 88.2778 82.3819 100.484 93.2961 106.781C103.073 112.44 116.11 112.089 122.245 102.273L126.613 94.6967" stroke="#0E2B72" stroke-width="0.8" stroke-linecap="round" stroke-linejoin="round"/>
<path d="M94.7018 64.7832C91.0077 66.3713 88.089 69.3522 86.5792 73.079C82.8295 82.2957 88.8263 93.0761 98.1176 98.4289C106.389 103.205 117.189 103.667 123.911 97.7622C124.938 96.8615 125.844 95.8323 126.608 94.7" stroke="#0E2B72" stroke-width="0.8" stroke-linecap="round" stroke-linejoin="round"/>
<path d="M153.997 34.2408L149.136 42.6299C147.334 45.7657 143.511 47.4114 139.238 47.4114C126.732 47.4114 116.498 34.5301 121.148 26.479L125.989 18.0898C123.793 21.9121 125.068 26.6159 127.498 30.1644C134.57 40.4906 149.642 41.7371 153.997 34.2408Z" stroke="#0E2B72" stroke-width="0.8" stroke-linecap="round" stroke-linejoin="round"/>
<path d="M171.441 67.326C165.39 79.8434 153.426 94.0468 143.707 101.822C140.295 101.306 136.962 100.357 133.79 98.9994C127.629 95.9099 122.125 91.6568 117.581 86.4748L124.557 74.4801C123.435 72.4417 122.414 70.3485 121.5 68.2085C120.552 68.6704 119.484 68.8276 118.442 68.6585C120.05 73.8724 117.796 76.0677 114.307 75.6166C115.817 80.4583 112.367 82.4607 107.643 80.6543C108.309 84.4755 102.829 85.049 98.4307 81.3594C94.9341 78.4248 89.3707 70.1341 93.1422 66.427C93.6178 65.9657 94.2294 65.6701 94.8864 65.5839C94.1812 62.8981 94.3679 60.1854 96.9842 58.6061C97.4141 58.3402 97.8948 58.1668 98.3955 58.0969C97.6458 53.8982 99.8556 50.9916 103.099 50.0407C103.13 48.9757 103.437 47.937 103.99 47.0262C104.543 46.1154 105.322 45.3636 106.253 44.8444C104.6 42.3 103.313 39.5356 102.43 36.6326C101.426 32.4929 104.608 30.0384 108.84 33.3007C110.234 34.3761 112.073 35.9264 114.268 37.71C114.876 37.3574 120.619 34.5347 120.619 34.5347C120.844 35.2357 121.126 35.9181 121.462 36.5734C121.462 36.5734 120.425 38.3767 118.758 41.2191C124.108 45.2177 130.713 49.49 137.75 51.8025L140.278 47.4472C143.256 47.3723 146.088 46.1426 148.177 44.0179C154.772 49.799 151.585 46.7099 171.441 67.326Z" stroke="#0E2B72" stroke-width="0.8" stroke-linecap="round" stroke-linejoin="round"/>
<path d="M150.254 37.6713C140.629 42.571 125.495 33.765 124.891 23.0686C124.548 16.994 129.454 13.3086 135.883 13.3086C143.469 13.3086 151.489 18.4883 154.21 25.4412C156.153 30.399 155.007 35.251 150.254 37.6713Z" fill="#0E2B72"/>
<path d="M150.254 37.6713C140.629 42.571 125.495 33.765 124.891 23.0686C124.548 16.994 129.454 13.3086 135.883 13.3086C143.469 13.3086 151.489 18.4883 154.21 25.4412C156.153 30.399 155.007 35.251 150.254 37.6713Z" stroke="#0E2B72" stroke-width="0.8" stroke-linecap="round" stroke-linejoin="round"/>
<path d="M133.81 98.9961C132.399 102.545 132.163 105.114 133.359 106.111C134.966 107.444 138.846 105.679 143.729 101.819C140.334 101.223 137.01 100.277 133.81 98.9961Z" fill="#0E2B72"/>
<path d="M133.81 98.9961C132.399 102.545 132.163 105.114 133.359 106.111C134.966 107.444 138.846 105.679 143.729 101.819C140.334 101.223 137.01 100.277 133.81 98.9961Z" stroke="#0E2B72" stroke-width="0.8" stroke-linecap="round" stroke-linejoin="round"/>
<path d="M165.072 60.7007L171.442 67.3249C175.78 57.8573 172.604 55.6361 165.072 60.7007Z" fill="#0E2B72"/>
<path d="M165.072 60.7007L171.442 67.3249C175.78 57.8573 172.604 55.6361 165.072 60.7007Z" stroke="#0E2B72" stroke-width="0.8" stroke-linecap="round" stroke-linejoin="round"/>
<path d="M126.597 94.6875C126.184 95.3325 125.718 95.9422 125.205 96.5105L117.581 86.4746C120.27 89.5406 123.294 92.2954 126.597 94.6875Z" fill="#0E2B72"/>
<path d="M126.597 94.6875C126.184 95.3325 125.718 95.9422 125.205 96.5105L117.581 86.4746C120.27 89.5406 123.294 92.2954 126.597 94.6875Z" stroke="#0E2B72" stroke-width="0.8" stroke-linecap="round" stroke-linejoin="round"/>
<path d="M185.279 80.6346C185.286 80.984 185.223 81.3313 185.094 81.6561C184.965 81.9809 184.772 82.2767 184.528 82.5262C184.283 82.7757 183.991 82.9739 183.669 83.1091C183.347 83.2444 183.001 83.3141 182.651 83.314C182.302 83.3139 181.956 83.2442 181.634 83.1087C181.311 82.9733 181.019 82.775 180.775 82.5254C180.53 82.2758 180.338 81.98 180.209 81.6551C180.08 81.3303 180.017 80.983 180.024 80.6336C180.038 79.9458 180.321 79.291 180.812 78.8095C181.304 78.3281 181.964 78.0585 182.652 78.0586C183.34 78.0587 184 78.3286 184.492 78.8102C184.983 79.2919 185.265 79.9469 185.279 80.6346Z" fill="#0E2B72"/>
<path d="M185.279 80.6346C185.286 80.984 185.223 81.3313 185.094 81.6561C184.965 81.9809 184.772 82.2767 184.528 82.5262C184.283 82.7757 183.991 82.9739 183.669 83.1091C183.347 83.2444 183.001 83.3141 182.651 83.314C182.302 83.3139 181.956 83.2442 181.634 83.1087C181.311 82.9733 181.019 82.775 180.775 82.5254C180.53 82.2758 180.338 81.98 180.209 81.6551C180.08 81.3303 180.017 80.983 180.024 80.6336C180.038 79.9458 180.321 79.291 180.812 78.8095C181.304 78.3281 181.964 78.0585 182.652 78.0586C183.34 78.0587 184 78.3286 184.492 78.8102C184.983 79.2919 185.265 79.9469 185.279 80.6346Z" stroke="#0E2B72" stroke-width="0.8" stroke-linecap="round" stroke-linejoin="round"/>
<path d="M140.297 47.3916C136.459 47.5079 132.665 46.5515 129.341 44.6298C126.017 42.7082 123.295 39.8975 121.481 36.5137C121.481 36.5137 120.444 38.3159 118.776 41.1593C124.127 45.1569 130.732 49.4292 137.769 51.7427L140.297 47.3916Z" fill="#FFB400"/>
<path d="M140.297 47.3916C136.459 47.5079 132.665 46.5515 129.341 44.6298C126.017 42.7082 123.295 39.8975 121.481 36.5137C121.481 36.5137 120.444 38.3159 118.776 41.1593C124.127 45.1569 130.732 49.4292 137.769 51.7427L140.297 47.3916Z" stroke="#0E2B72" stroke-width="0.8" stroke-linecap="round" stroke-linejoin="round"/>
<path d="M124.539 74.4806C123.416 72.4424 122.395 70.3492 121.481 68.209C120.533 68.6709 119.464 68.8281 118.423 68.659C120.03 73.8729 117.777 76.0682 114.288 75.6171C115.797 80.4588 112.347 82.4612 107.624 80.6548C108.291 84.476 102.809 85.0495 98.4114 81.3599C98.204 81.1816 97.9614 80.9451 97.6855 80.6942C98.8281 83.8566 101.096 86.487 104.056 88.0826C107.973 90.337 114.588 91.4144 116.717 87.8669L124.539 74.4806Z" fill="#FFB400"/>
<path d="M124.539 74.4806C123.416 72.4424 122.395 70.3492 121.481 68.209C120.533 68.6709 119.464 68.8281 118.423 68.659C120.03 73.8729 117.777 76.0682 114.288 75.6171C115.797 80.4588 112.347 82.4612 107.624 80.6548C108.291 84.476 102.809 85.0495 98.4114 81.3599C98.204 81.1816 97.9614 80.9451 97.6855 80.6942C98.8281 83.8566 101.096 86.487 104.056 88.0826C107.973 90.337 114.588 91.4144 116.717 87.8669L124.539 74.4806Z" stroke="#0E2B72" stroke-width="0.8" stroke-linecap="round" stroke-linejoin="round"/>
<path d="M124.539 74.4805C126.949 78.7922 130.086 82.9671 133.691 84.4956" stroke="#0E2B72" stroke-width="0.8" stroke-linecap="round" stroke-linejoin="round"/>
<path d="M118.777 41.1608C114.159 37.7118 111.982 35.6555 108.859 33.2622C104.633 30.0237 101.455 32.4575 102.45 36.594C104.147 43.6506 114.733 57.1997 119.384 62.6625C119.384 62.6625 120.129 65.0144 121.501 68.2093" stroke="#0E2B72" stroke-width="0.8" stroke-linecap="round" stroke-linejoin="round"/>
<path d="M145.393 53.3682C142.79 53.1247 140.225 52.5791 137.749 51.7422" stroke="#0E2B72" stroke-width="0.8" stroke-linecap="round" stroke-linejoin="round"/>
<path d="M98.353 57.7598C99.1951 63.4445 104.935 69.798 106.565 71.3628C108.649 73.5363 111.352 75.0144 114.307 75.5958" stroke="#0E2B72" stroke-width="0.8" stroke-linecap="round" stroke-linejoin="round"/>
<path d="M121.496 68.2102C119.242 69.3665 115.441 68.6592 111.069 64.6233C109.05 62.7568 102.916 55.6016 103.112 50.002" stroke="#0E2B72" stroke-width="0.8" stroke-linecap="round" stroke-linejoin="round"/>
<path d="M94.9028 65.5625C96.0197 69.7571 99.4479 74.2472 100.842 75.7539C102.715 77.8747 105.039 79.5492 107.643 80.6547" stroke="#0E2B72" stroke-width="0.8" stroke-linecap="round" stroke-linejoin="round"/>
<path d="M172.637 58.4688L197 79.4997" stroke="#0E2B72" stroke-width="0.8" stroke-linecap="round" stroke-linejoin="round"/>
<path d="M133.378 106.133L156.29 126.164" stroke="#0E2B72" stroke-width="0.8" stroke-linecap="round" stroke-linejoin="round"/>
<path d="M134.475 142.963C134.976 142.962 135.465 143.111 135.882 143.388C136.298 143.666 136.623 144.061 136.815 144.524C137.006 144.986 137.057 145.495 136.959 145.986C136.862 146.477 136.621 146.928 136.267 147.282C135.913 147.636 135.462 147.877 134.971 147.975C134.48 148.072 133.971 148.022 133.509 147.831C133.047 147.639 132.651 147.315 132.373 146.898C132.095 146.482 131.947 145.993 131.947 145.492C131.949 144.822 132.216 144.18 132.689 143.706C133.163 143.232 133.805 142.965 134.475 142.963Z" stroke="#0E2B72" stroke-width="0.8" stroke-linecap="round" stroke-linejoin="round"/>
<path d="M78.8512 1L78.8315 18.0904" stroke="#0E2B72" stroke-width="0.8" stroke-linecap="round" stroke-linejoin="round"/>
<path d="M87.3968 9.56359L70.2856 9.54492" stroke="#0E2B72" stroke-width="0.8" stroke-linecap="round" stroke-linejoin="round"/>
<path d="M176.852 29.166L178.596 32.6741L182.456 33.2424L179.653 35.9665L180.32 39.8282L176.852 38.0052L173.401 39.8282L174.049 35.9665L171.246 33.2424L175.126 32.6741L176.852 29.166Z" stroke="#0E2B72" stroke-width="0.8" stroke-linecap="round" stroke-linejoin="round"/>
</svg>
