<svg width="178" height="147" viewBox="0 0 178 147" fill="none" xmlns="http://www.w3.org/2000/svg">
<path d="M121.446 26.7466V12.5555C121.446 9.34571 120.17 6.26758 117.901 3.99803C115.631 1.72848 112.553 0.453371 109.343 0.453125H27.5222C24.3124 0.453125 21.234 1.72816 18.9642 3.99776C16.6945 6.26736 15.4192 9.34564 15.4189 12.5555V132.912C15.4189 136.122 16.6941 139.2 18.9639 141.47C21.2337 143.74 24.3122 145.015 27.5222 145.015H109.343C112.553 145.015 115.631 143.74 117.901 141.47C120.171 139.2 121.446 136.122 121.446 132.912V124.306" stroke="#0E2B72" stroke-width="0.838097" stroke-linecap="round" stroke-linejoin="round"/>
<path d="M121.446 14.9883H15.4189" stroke="#0E2B72" stroke-width="0.838097" stroke-linecap="round" stroke-linejoin="round"/>
<path d="M15.4189 130.479H121.446" stroke="#0E2B72" stroke-width="0.838097" stroke-linecap="round" stroke-linejoin="round"/>
<path d="M57.7397 8.14648H79.1266" stroke="#0E2B72" stroke-width="0.838097" stroke-linecap="round" stroke-linejoin="round"/>
<path d="M68.4329 142.892C69.8353 142.892 71.1803 142.335 72.172 141.343C73.1637 140.352 73.7208 139.007 73.7208 137.604C73.7208 136.202 73.1637 134.857 72.172 133.865C71.1803 132.874 69.8353 132.316 68.4329 132.316C67.0305 132.316 65.6855 132.874 64.6938 133.865C63.7021 134.857 63.145 136.202 63.145 137.604C63.145 139.007 63.7021 140.352 64.6938 141.343C65.6855 142.335 67.0305 142.892 68.4329 142.892Z" stroke="#0E2B72" stroke-width="0.838097" stroke-linecap="round" stroke-linejoin="round"/>
<path d="M113.912 31.875H22.8032V113.601H41.1073" stroke="#0E2B72" stroke-width="0.838097" stroke-linecap="round" stroke-linejoin="round"/>
<path d="M63.145 45.0586H94.5426" stroke="#0E2B72" stroke-width="0.838097" stroke-linecap="round" stroke-linejoin="round"/>
<path d="M63.145 51.1602H85.5749" stroke="#0E2B72" stroke-width="0.838097" stroke-linecap="round" stroke-linejoin="round"/>
<path d="M63.145 57.2578H76.6192" stroke="#0E2B72" stroke-width="0.838097" stroke-linecap="round" stroke-linejoin="round"/>
<path d="M36.5322 62.498C38.5331 64.4987 41.2467 65.6226 44.0762 65.6226C46.9056 65.6226 49.6192 64.4987 51.6201 62.498H36.5322Z" fill="#0E2B72"/>
<path d="M33.4082 54.9516C33.4064 56.3529 33.6815 57.7407 34.2177 59.0353C34.7539 60.33 35.5406 61.5059 36.5327 62.4955L44.0738 44.2832C41.2449 44.2839 38.532 45.4083 36.5319 47.4089C34.5318 49.4095 33.4082 52.1226 33.4082 54.9516Z" fill="#0E2B72"/>
<path d="M44.0737 44.2832L51.6204 62.4946C53.1121 61.0023 54.1277 59.1013 54.5389 57.0318C54.9502 54.9623 54.7385 52.8174 53.9307 50.8682C53.123 48.919 51.7553 47.2531 50.0008 46.0812C48.2463 44.9092 46.1837 44.2839 44.0737 44.2841V44.2832Z" fill="#0E2B72"/>
<path d="M54.6968 55.9617C55.2544 50.0963 50.9517 44.8895 45.0863 44.3318C39.2208 43.7742 34.014 48.0769 33.4563 53.9424C32.8987 59.8078 37.2014 65.0146 43.0669 65.5723C48.9323 66.1299 54.1401 61.8272 54.6968 55.9617Z" stroke="#0E2B72" stroke-width="0.838097" stroke-linecap="round" stroke-linejoin="round"/>
<path d="M44.0762 44.2832L36.5322 62.4946H51.6201L44.0762 44.2832Z" stroke="#0E2B72" stroke-width="0.838097" stroke-linecap="round" stroke-linejoin="round"/>
<path d="M53.86 72.7461H41.1074V124.307H139.703V79.1784" stroke="#0E2B72" stroke-width="0.838097" stroke-linecap="round" stroke-linejoin="round"/>
<path d="M109.975 88.2578H128.796" stroke="#0E2B72" stroke-width="0.838097" stroke-linecap="round" stroke-linejoin="round"/>
<path d="M109.975 92.9609H128.796" stroke="#0E2B72" stroke-width="0.838097" stroke-linecap="round" stroke-linejoin="round"/>
<path d="M94.1479 97.4082H128.796" stroke="#0E2B72" stroke-width="0.838097" stroke-linecap="round" stroke-linejoin="round"/>
<path d="M94.1479 102.113H128.796" stroke="#0E2B72" stroke-width="0.838097" stroke-linecap="round" stroke-linejoin="round"/>
<path d="M68.4331 108.5H128.796" stroke="#0E2B72" stroke-width="0.838097" stroke-linecap="round" stroke-linejoin="round"/>
<path d="M129.376 21.3477L47.0957 77.351V98.6878H68.4325L177 68.9696V21.3477H129.376Z" stroke="#0E2B72" stroke-width="0.838097" stroke-linecap="round" stroke-linejoin="round"/>
<path d="M176.999 21.3477H129.376V68.9696H176.999V21.3477Z" stroke="#0E2B72" stroke-width="0.838097" stroke-linecap="round" stroke-linejoin="round"/>
<path d="M159.051 38.5651L153.188 28.9082L147.325 38.5651H159.051Z" fill="#0E2B72"/>
<path d="M159.051 38.5651L153.188 28.9082L147.325 38.5651H159.051Z" stroke="#0E2B72" stroke-width="0.838097" stroke-linecap="round" stroke-linejoin="round"/>
<path d="M174.029 63.2333L159.052 38.5664H147.325L132.348 63.2333" stroke="#0E2B72" stroke-width="0.838097" stroke-linecap="round" stroke-linejoin="round"/>
<path d="M68.4325 77.3516H47.0957V98.6884H68.4325V77.3516Z" fill="#FFB400"/>
<path d="M68.4325 77.3516H47.0957V98.6884H68.4325V77.3516Z" stroke="#0E2B72" stroke-width="0.838097" stroke-linecap="round" stroke-linejoin="round"/>
<path d="M47.0957 98.6869L129.376 68.9688" stroke="#0E2B72" stroke-width="0.838097" stroke-linecap="round" stroke-linejoin="round"/>
<path d="M135.131 139.576L141.785 146.23" stroke="#0E2B72" stroke-width="0.838097" stroke-linecap="round" stroke-linejoin="round"/>
<path d="M135.131 146.23L141.785 139.576" stroke="#0E2B72" stroke-width="0.838097" stroke-linecap="round" stroke-linejoin="round"/>
<path d="M151.491 113.553L154.885 116.947" stroke="#0E2B72" stroke-width="0.838097" stroke-linecap="round" stroke-linejoin="round"/>
<path d="M151.491 116.947L154.885 113.553" stroke="#0E2B72" stroke-width="0.838097" stroke-linecap="round" stroke-linejoin="round"/>
<path d="M135.292 12.7699L138.202 17.5682L141.623 10.4004" stroke="#0E2B72" stroke-width="0.838097" stroke-linecap="round" stroke-linejoin="round"/>
<path d="M0.999512 97.4102H10.41" stroke="#0E2B72" stroke-width="0.838097" stroke-linecap="round" stroke-linejoin="round"/>
<path d="M5.70459 102.114V92.7031" stroke="#0E2B72" stroke-width="0.838097" stroke-linecap="round" stroke-linejoin="round"/>
<path d="M28.8032 72.7461H33.9359" stroke="#0E2B72" stroke-width="0.838097" stroke-linecap="round" stroke-linejoin="round"/>
<path d="M31.3701 75.3144V70.1816" stroke="#0E2B72" stroke-width="0.838097" stroke-linecap="round" stroke-linejoin="round"/>
</svg>
