<svg width="793" height="258" viewBox="0 0 793 258" fill="none" xmlns="http://www.w3.org/2000/svg">
<g clip-path="url(#clip0_19_133)">
<path d="M213.685 64.3079C213.685 67.7513 213.83 71.213 213.649 74.6565C213.305 81.1631 212.907 87.6696 212.309 94.158C211.712 100.556 211.114 106.953 210.064 113.279C208.489 122.685 206.788 132.091 204.615 141.389C202.751 149.399 200.56 157.374 197.808 165.094C192.848 179.014 185.57 191.791 177.115 203.88C164.66 221.659 149.543 236.666 130.607 247.45C123.764 251.346 116.395 254.3 109.154 257.454C107.814 258.034 105.841 257.907 104.41 257.381C90.6881 252.433 78.1602 245.293 66.7909 236.14C41.1739 215.497 24.0842 188.891 12.8961 158.28C10.3072 151.176 8.20716 143.817 6.52352 136.441C4.73123 128.647 3.55443 120.691 2.39579 112.753C1.65353 107.588 1.27332 102.368 1.00176 97.1482C0.567268 88.4487 0.150916 79.7313 0.132812 71.0317C0.132812 66.1929 0.929476 61.3718 1.36397 56.5326C1.56311 54.3036 1.83446 52.056 1.83446 49.8087C1.83446 48.0508 2.57681 47.2713 4.18804 46.7821C11.4296 44.6615 18.6348 42.4325 25.8764 40.2755C48.9043 33.4067 70.4298 23.3117 90.543 10.1719C95.3405 7.03647 100.156 3.93729 104.936 0.783752C106.384 -0.176813 107.651 -0.0136985 109.081 0.910617C118.478 6.9096 127.746 13.1442 137.396 18.7263C148.457 25.1241 159.917 30.815 172.155 34.766C181.732 37.847 191.218 41.2362 200.759 44.3896C203.583 45.3321 206.552 45.8942 209.394 46.7639C210.137 46.9994 211.241 47.6521 211.332 48.2503C212.128 53.5606 212.726 58.9069 213.396 64.2354C213.504 64.2354 213.595 64.2354 213.703 64.2536L213.685 64.3079ZM192.413 69.0382C192.268 69.0382 192.124 69.0018 191.979 69.0018C191.979 67.2621 191.979 65.5223 191.979 63.8004C191.979 60.4111 191.78 60.1574 188.666 59.1064C178.709 55.7896 168.571 52.8718 158.831 49.0115C149.562 45.3503 140.492 41.0185 131.657 36.3609C123.492 32.0655 115.744 26.9908 107.832 22.2061C106.475 21.3906 105.334 21.3906 104.067 22.2061C101.786 23.656 99.5407 25.1603 97.2054 26.5196C85.6369 33.2073 74.3763 40.5475 61.903 45.5134C52.7061 49.1924 43.3646 52.5634 34.0593 55.9345C30.2575 57.312 26.3289 58.3634 22.4366 59.5232C20.6805 60.0489 19.8115 61.0457 19.9564 62.9849C20.1917 66.2835 20.2099 69.6 20.4452 72.8986C21.0064 80.8187 21.441 88.7749 22.3099 96.6772C23.179 104.561 24.2471 112.427 25.7316 120.22C27.1256 127.651 29.0989 134.973 30.9274 142.313C34.168 155.435 38.9292 168.013 44.9579 180.101C49.5925 189.399 55.0777 198.171 61.6856 206.272C67.6238 213.558 74.1593 220.227 81.8169 225.556C87.5923 229.579 94.0009 232.697 100.247 236.013C103.669 237.844 107.054 238.605 111.127 236.738C122.026 231.754 132.091 225.646 140.872 217.454C147.118 211.619 152.676 205.167 157.292 198.044C161.564 191.446 165.348 184.469 168.824 177.401C176.102 162.575 181.135 146.916 184.484 130.732C185.986 123.482 187.236 116.178 188.358 108.856C189.191 103.455 189.661 98.0001 190.205 92.5627C190.983 84.7332 191.707 76.8859 192.449 69.0565L192.413 69.0382Z" fill="#D3A42E"/>
<path d="M192.412 69.02C191.67 76.8495 190.964 84.6972 190.167 92.5267C189.624 97.9637 189.154 103.419 188.321 108.82C187.198 116.142 185.949 123.446 184.447 130.696C181.097 146.862 176.083 162.521 168.787 177.365C165.311 184.433 161.527 191.41 157.255 198.008C152.638 205.13 147.08 211.6 140.834 217.418C132.054 225.628 121.988 231.718 111.09 236.702C106.999 238.569 103.631 237.789 100.209 235.977C93.9638 232.66 87.5552 229.543 81.7798 225.52C74.1221 220.191 67.5866 213.504 61.6484 206.236C55.0406 198.153 49.555 189.381 44.9208 180.065C38.9102 167.976 34.1488 155.399 30.8902 142.277C29.0798 134.937 27.1065 127.614 25.6943 120.184C24.228 112.39 23.1417 104.525 22.2727 96.6408C21.4038 88.7388 20.9692 80.8005 20.408 72.8625C20.1726 69.5639 20.1728 66.2471 19.9194 62.9485C19.7745 61.0092 20.6435 60.0125 22.3996 59.4868C26.2919 58.327 30.2202 57.276 34.0221 55.8985C43.3456 52.5274 52.669 49.1564 61.8658 45.4773C74.3391 40.4932 85.5815 33.1711 97.1682 26.4834C99.5035 25.1241 101.748 23.6199 104.029 22.1699C105.297 21.3544 106.437 21.3363 107.795 22.1699C115.688 26.9728 123.455 32.0474 131.62 36.3247C140.454 40.9643 149.506 45.296 158.794 48.9751C168.551 52.8354 178.672 55.7354 188.629 59.07C191.742 60.1032 191.941 60.3751 191.941 63.7643C191.941 65.5041 191.941 67.2439 191.941 68.9658C192.086 68.9658 192.231 69.0018 192.376 69.0018L192.412 69.02ZM37.0636 135.226C37.1179 135.68 37.136 136.133 37.2627 136.568C41.5352 151.828 46.5501 166.78 54.0449 180.826C60.3634 192.679 67.9305 203.572 77.761 212.797C85.2922 219.883 93.9092 225.356 103.215 229.778C105.079 230.667 106.962 230.649 108.845 229.634C111.289 228.311 113.842 227.169 116.286 225.846C123.998 221.623 131.077 216.421 137.105 210.078C145.487 201.27 152.366 191.338 157.979 180.464C163.609 169.571 167.972 158.226 171.538 146.554C174.652 136.332 177.078 125.947 178.454 115.326C179.215 109.454 180.391 103.655 181.061 97.7828C181.839 90.95 182.256 84.0631 182.835 77.1939C182.871 74.3303 182.781 71.4486 182.98 68.6032C183.125 66.5915 182.383 65.7396 180.482 65.0873C169.728 61.4083 158.902 57.9284 148.366 53.7054C134.281 48.069 121.047 40.6923 108.32 32.4099C106.292 31.0869 104.754 31.1413 102.653 32.5368C90.1256 40.8376 77.0369 48.1956 63.0789 53.7597C52.4697 57.9826 41.5534 61.4625 30.7454 65.1961C29.0255 65.7939 28.3557 66.5733 28.4824 68.4401C28.7721 72.935 28.6634 77.4659 29.0617 81.9603C29.8401 90.8412 30.5463 99.7581 31.8859 108.566C33.2437 117.519 35.3075 126.382 37.0636 135.281V135.226Z" fill="#C2931E"/>
<path d="M182.82 77.1935C182.24 84.0627 181.824 90.9314 181.046 97.7824C180.376 103.654 179.199 109.472 178.438 115.326C177.081 125.947 174.655 136.35 171.523 146.554C167.957 158.225 163.593 169.589 157.963 180.463C152.333 191.319 145.454 201.269 137.089 210.078C131.061 216.421 123.982 221.623 116.27 225.846C113.826 227.187 111.274 228.31 108.829 229.634C106.947 230.649 105.064 230.666 103.199 229.778C93.8938 225.356 85.2764 219.883 77.7452 212.796C67.9329 203.553 60.3476 192.679 54.0291 180.826C46.5343 166.78 41.5194 151.828 37.247 136.568C37.1203 136.133 37.1203 135.679 37.0479 135.226C37.9712 134.972 38.9668 134.882 39.7996 134.465C41.9902 133.396 44.0903 132.127 46.2809 131.058C49.123 129.644 52.0195 128.339 54.8983 126.98C69.4535 138.833 86.3444 144.179 105.046 144.723C105.046 150.45 105.046 155.797 105.046 161.143C105.046 166.58 105.046 166.544 99.7051 166.943C99.0897 166.997 98.5102 167.704 97.913 168.121C98.492 168.61 99.0533 169.535 99.6506 169.535C104.557 169.644 109.445 169.625 114.351 169.535C114.822 169.535 115.274 168.773 115.727 168.375C115.274 167.886 114.894 167.07 114.369 166.943C113.373 166.708 112.269 166.834 111.219 166.889C109.391 166.979 108.648 166.164 108.648 164.333C108.702 158.371 108.648 152.407 108.666 146.445C108.666 145.937 108.775 145.43 108.811 145.031C114.206 144.288 119.493 143.853 124.652 142.766C138.538 139.83 150.957 133.776 161.493 124.134C162.163 123.518 162.326 122.376 162.725 121.47C162.453 121.235 162.199 121.017 161.928 120.782C160.86 121.343 159.737 121.797 158.741 122.449C154.053 125.566 149.527 128.955 144.693 131.855C134.681 137.872 123.53 140.446 112.07 141.406C103.181 142.149 94.3828 140.863 85.729 138.634C75.8985 136.096 66.9914 131.656 58.8629 125.621C59.1163 125.204 59.2792 124.606 59.6594 124.388C62.7734 122.558 65.9233 120.763 69.0915 119.024C69.5077 118.788 70.1054 118.897 70.6125 118.861C72.1513 120.8 73.4727 122.993 75.2649 124.642C82.9589 131.692 92.4455 134.375 102.529 135.099C111.563 135.752 120.47 134.809 128.816 131.04C134.356 128.539 139.371 125.24 142.539 119.767C142.611 119.676 142.702 119.604 142.774 119.513C142.666 119.476 142.557 119.44 142.43 119.386C141.977 119.35 141.525 119.277 141.072 119.277C129.612 119.277 118.153 119.259 106.675 119.35C104.593 119.35 103.887 118.752 103.978 116.631C104.141 112.861 104.177 109.074 103.996 105.304C103.887 103.056 104.702 102.476 106.838 102.495C117.845 102.585 128.852 102.531 139.877 102.531C140.728 102.531 141.597 102.44 143.064 102.368C142.05 100.809 141.525 99.4861 140.565 98.6525C138.158 96.5137 135.551 94.5744 133.034 92.5627C133.994 91.6202 134.845 90.4786 135.967 89.808C136.945 89.2281 138.266 89.2281 139.407 88.8655C147.861 86.1108 156.207 83.0659 164.752 80.6734C170.618 79.0425 176.719 78.3173 182.729 77.1757L182.82 77.1935Z" fill="#9C0B0D"/>
<path d="M54.9328 126.98C52.0544 128.34 49.1579 129.644 46.3154 131.058C44.1248 132.146 42.0247 133.396 39.8345 134.465C39.0016 134.882 38.0058 134.991 37.0825 135.226C35.3264 126.328 33.2626 117.483 31.9048 108.512C30.5652 99.7038 29.8771 90.787 29.0806 81.9061C28.6822 77.4116 28.791 72.8986 28.5013 68.3859C28.3746 66.5191 29.0444 65.7396 30.7643 65.1415C41.5721 61.4261 52.4888 57.9466 63.0976 53.7054C77.0556 48.1414 90.1447 40.7834 102.673 32.4825C104.773 31.0869 106.293 31.0326 108.339 32.3556C121.048 40.6381 134.3 48.0147 148.385 53.6512C158.921 57.8741 169.747 61.3536 180.501 65.033C182.402 65.6854 183.144 66.5373 182.999 68.549C182.8 71.4125 182.891 74.2761 182.854 77.1397C176.862 78.2813 170.743 78.9883 164.877 80.6374C156.332 83.0299 147.968 86.093 139.532 88.8295C138.391 89.1921 137.07 89.1921 136.092 89.772C134.97 90.4426 134.119 91.5842 133.159 92.5267C130.751 91.4575 128.416 90.1888 125.936 89.3552C118.097 86.7089 110.077 85.6762 101.767 86.5822C92.9326 87.5248 84.6591 89.7356 77.5082 95.2636C71.6245 99.8127 66.3923 108.077 70.194 116.867C70.4656 117.483 70.5383 118.172 70.683 118.825C70.1762 118.879 69.5786 118.77 69.1623 118.988C65.9942 120.727 62.8443 122.522 59.7303 124.352C59.35 124.57 59.2054 125.168 58.9338 125.585C57.3045 124.28 55.7475 122.848 53.9913 121.742C53.213 121.253 51.9999 121.434 51.0042 121.325C51.3121 122.304 51.4026 123.446 51.9817 124.225C52.7786 125.276 53.9371 126.038 54.951 126.926L54.9328 126.98Z" fill="#860104"/>
<path d="M70.6641 118.879C70.5013 118.226 70.4289 117.538 70.1752 116.921C66.3734 108.131 71.6057 99.8665 77.4893 95.3174C84.6403 89.7898 92.9138 87.5968 101.749 86.6361C110.058 85.7482 118.078 86.7814 125.917 89.409C128.397 90.2431 130.733 91.5118 133.141 92.5809C135.657 94.5926 138.264 96.5319 140.672 98.6707C141.613 99.5043 142.138 100.827 143.17 102.386C141.686 102.459 140.835 102.549 139.984 102.549C128.977 102.549 117.951 102.603 106.944 102.513C104.808 102.513 104.012 103.056 104.102 105.322C104.265 109.092 104.247 112.88 104.084 116.649C103.993 118.77 104.699 119.386 106.781 119.368C118.241 119.277 129.701 119.296 141.178 119.296C141.631 119.296 142.084 119.368 142.536 119.404C142.554 119.531 142.59 119.658 142.645 119.785C139.477 125.258 134.462 128.557 128.922 131.058C120.576 134.827 111.669 135.77 102.636 135.118C92.5335 134.392 83.0473 131.71 75.3714 124.66C73.5611 123.011 72.2575 120.818 70.7187 118.879H70.6641Z" fill="#010000"/>
<path d="M54.9323 126.98C53.9188 126.092 52.7598 125.331 51.9634 124.28C51.3839 123.5 51.2934 122.359 50.9858 121.38C51.9997 121.507 53.1942 121.307 53.9729 121.797C55.7291 122.902 57.2857 124.334 58.9151 125.639C67.0439 131.674 75.9692 136.114 85.7815 138.652C94.4167 140.899 103.233 142.186 112.122 141.425C123.582 140.464 134.734 137.872 144.746 131.874C149.579 128.974 154.105 125.584 158.794 122.467C159.79 121.815 160.912 121.344 161.98 120.8C162.252 121.035 162.505 121.253 162.777 121.489C162.378 122.395 162.215 123.537 161.546 124.153C151.009 133.795 138.608 139.848 124.705 142.784C119.545 143.871 114.241 144.306 108.864 145.049C108.828 145.448 108.719 145.956 108.719 146.463C108.719 152.426 108.737 158.389 108.701 164.351C108.701 166.182 109.443 166.998 111.272 166.907C112.321 166.852 113.426 166.726 114.422 166.961C114.965 167.088 115.327 167.886 115.779 168.393C115.327 168.792 114.874 169.553 114.403 169.553C109.497 169.644 104.609 169.662 99.7031 169.553C99.1059 169.553 98.5446 168.629 97.9651 168.139C98.5627 167.741 99.1237 167.015 99.7573 166.961C105.098 166.563 105.098 166.599 105.098 161.162C105.098 155.815 105.098 150.469 105.098 144.741C86.3966 144.198 69.5061 138.851 54.9505 126.998L54.9323 126.98Z" fill="#050101"/>
<path d="M142.591 119.767C142.537 119.64 142.519 119.513 142.483 119.386C142.592 119.422 142.7 119.459 142.827 119.513C142.754 119.604 142.664 119.676 142.591 119.767Z" fill="#830A0B"/>
<path d="M380.8 111.267C380.8 113.079 380.891 114.656 380.782 116.215C380.637 118.009 381.488 118.425 383.081 118.317C385.073 118.172 386.159 116.994 386.992 115.326C389.997 109.309 392.404 103.038 395.084 96.8945C397.618 91.0949 400.098 85.2589 402.651 79.4593C403.088 78.4626 403.339 76.9766 404.608 76.9402C405.912 76.9038 406.163 78.4084 406.596 79.4233C410.836 89.3369 415.052 99.2688 419.307 109.201C420.085 110.995 420.971 112.753 421.822 114.529C422.855 116.704 424.267 118.317 426.947 118.299C427.582 118.299 428.576 118.425 428.541 119.205C428.502 120.093 427.508 119.894 426.893 119.912C423.125 119.948 419.342 119.93 415.578 119.966C414.275 119.966 413.675 119.44 414.182 118.172C414.6 117.139 414.256 116.269 413.876 115.345C412.898 112.97 411.865 110.632 410.96 108.222C410.472 106.917 409.71 106.319 408.264 106.337C404.786 106.409 401.332 106.373 397.854 106.337C396.713 106.337 395.753 106.554 395.282 107.732C394.307 110.107 393.274 112.463 392.388 114.855C391.773 116.486 392.005 117.828 394.106 118.19C394.721 118.299 395.664 118.553 395.502 119.368C395.336 120.22 394.376 119.875 393.746 119.894C392.079 119.948 390.431 120.003 388.767 119.912C383.715 119.64 378.7 120.311 373.649 120.401C369.123 120.474 364.615 119.459 360.108 119.93C355.056 120.455 350.042 119.785 345.009 119.93C341.279 120.057 338.274 118.679 335.74 116.015C332.554 112.662 330.055 108.784 327.303 105.087C325.674 102.912 322.941 101.969 320.37 102.73C319.682 102.93 319.338 103.346 319.338 104.017C319.392 107.787 319.048 111.557 319.537 115.326C319.79 117.284 320.822 118.317 322.832 118.281C323.212 118.281 323.592 118.335 323.954 118.425C324.388 118.553 324.968 118.716 324.95 119.205C324.95 119.948 324.226 119.857 323.737 119.857C318.613 119.857 313.49 119.857 308.349 119.839C307.805 119.839 306.973 119.857 307.027 119.006C307.064 118.389 307.77 118.281 308.294 118.299C311.136 118.389 311.68 116.45 311.698 114.275C311.752 103.709 311.716 93.143 311.734 82.5767C311.734 80.3294 310.268 79.6589 308.44 79.2598C307.805 79.115 306.792 79.0789 306.882 78.2631C306.991 77.2121 308.077 77.5383 308.747 77.6289C313.563 78.2813 318.378 77.8645 323.194 77.9187C325.927 77.9551 328.625 78.2089 331.268 78.8252C338.148 80.3837 341.062 87.0893 337.55 93.2155C336.301 95.3903 334.744 97.3477 332.807 98.9426C331.648 99.9029 331.503 100.755 332.535 101.969C336.355 106.446 340.03 111.013 344.176 115.218C347.127 118.208 350.603 118.553 354.387 118.245C355.328 118.172 355.835 117.592 356.143 116.722C356.541 115.562 356.631 114.366 356.631 113.152C356.631 103.492 356.668 93.8314 356.631 84.1715C356.631 80.293 356.324 79.985 352.449 79.0425C351.943 78.9158 351.2 78.8976 351.255 78.2631C351.309 77.4476 352.142 77.5565 352.703 77.5925C354.966 77.6832 357.211 77.9369 359.456 77.9551C365.484 78.0094 371.531 78.0458 377.559 77.9187C379.515 77.8827 380.004 78.5532 379.515 80.3112C379.099 81.8519 378.972 83.4285 379.008 85.0234C379.008 85.4402 379.099 86.0201 378.555 86.1832C377.976 86.3463 377.704 85.8028 377.614 85.422C376.745 81.2537 373.504 81.4528 370.372 81.435C366.498 81.435 364.561 83.3681 364.561 87.2346C364.561 89.2645 364.67 91.3122 364.525 93.3422C364.398 95.1908 365.177 95.7707 366.896 95.6258C370.535 95.2996 374.301 96.4052 377.777 94.502C378.537 94.0852 378.881 94.5748 378.809 95.3721C378.555 97.837 378.32 100.32 378.048 102.785C377.994 103.292 377.867 103.945 377.198 103.909C376.655 103.89 376.655 103.292 376.546 102.857C375.858 100.03 374.989 99.2324 372.128 99.1057C370.246 99.015 368.363 99.1057 366.48 99.0693C365.158 99.0333 364.543 99.5586 364.561 100.936C364.597 105.014 364.525 109.092 364.597 113.17C364.652 115.453 365.973 116.686 368.616 116.867C370.716 117.012 372.835 116.958 374.935 116.867C377.198 116.758 378.736 115.653 379.352 113.351C379.533 112.698 379.515 111.81 380.782 111.285L380.8 111.267ZM319.302 90.1888C319.302 92.5267 319.302 94.8464 319.302 97.1846C319.302 98.0183 319.32 98.7973 320.225 99.3048C322.18 100.393 327.321 99.6492 328.915 98.0183C331.775 95.0459 332.517 89.5907 330.616 85.5309C329.132 82.3772 325.728 80.7462 321.293 80.9454C319.881 81.0182 319.229 81.5075 319.265 82.9575C319.319 85.3678 319.265 87.7781 319.265 90.1888H319.302ZM403.142 88.4126C400.767 93.0702 399.374 97.5108 397.583 101.788C397.146 102.821 398.051 102.857 398.74 102.875C400.624 102.894 402.507 102.875 404.391 102.875C409.675 102.875 408.751 102.875 407.142 98.7613C405.873 95.4809 404.608 92.2187 403.142 88.4126Z" fill="black"/>
<path d="M547.371 182.239C546.342 182.076 546.071 181.641 546.013 181.224C545.507 177.944 543.046 177.509 540.474 177.527C532.381 177.582 533.96 176.331 533.813 183.889C533.778 186.082 533.778 188.275 533.848 190.45C533.96 193.531 534.753 194.473 537.724 195.053C540.114 195.524 542.559 195.434 544.93 195.198C547.011 194.981 548.079 193.313 548.822 191.483C549.058 190.885 549.127 189.906 550.017 190.16C550.922 190.413 550.431 191.283 550.342 191.918C550.145 193.331 549.855 194.745 549.727 196.159C549.545 198.189 548.423 198.714 546.539 198.787C541.398 198.95 536.292 198.207 531.171 198.352C525.685 198.497 520.2 198.569 514.715 198.352C510.932 198.207 507.833 197.011 505.3 194.219C502.294 190.921 499.78 187.242 497.188 183.617C495.486 181.261 492.898 180.373 490.093 181.152C489.277 181.37 488.972 181.895 488.987 182.638C489.06 186.336 488.716 190.033 489.262 193.712C489.548 195.669 490.6 196.666 492.573 196.72C492.79 196.72 493.025 196.72 493.242 196.793C493.803 196.956 494.6 196.992 494.511 197.772C494.418 198.551 493.675 198.478 493.06 198.46C489.296 198.406 485.529 198.333 481.746 198.315C480.624 198.315 479.502 198.515 478.361 198.551C477.765 198.569 477.038 198.478 477.003 197.681C476.984 197.011 477.672 196.847 478.144 196.829C480.879 196.775 481.366 194.799 481.386 192.788C481.475 182.149 481.44 171.492 481.44 160.853C481.44 158.388 479.556 157.881 477.692 157.319C477.038 157.12 475.846 157.229 476.137 156.159C476.353 155.398 477.347 155.887 477.962 155.978C483.068 156.739 488.209 156.196 493.316 156.286C496.43 156.341 499.489 156.63 502.441 157.682C508.27 159.766 510.622 166.291 507.4 171.565C506.062 173.758 504.522 175.842 502.387 177.346C501.153 178.216 501.153 179.031 502.058 180.137C505.88 184.813 509.682 189.507 514.007 193.73C516.305 195.977 518.986 196.992 522.208 196.775C524.869 196.594 525.666 195.887 525.755 193.168C525.848 190.685 525.794 188.184 525.813 185.701C525.813 177.853 525.813 169.988 525.813 162.14C525.813 158.769 525.504 158.425 522.192 157.446C521.504 157.247 520.398 157.084 520.599 156.196C520.835 155.163 521.864 155.815 522.533 155.887C530.664 156.776 538.811 156.268 546.938 156.141C548.713 156.105 549.058 156.486 548.802 158.099C548.512 159.875 548.443 161.705 548.242 163.5C548.187 163.952 547.971 164.406 547.39 164.369C546.957 164.333 546.756 163.952 546.721 163.554C546.539 160.636 544.331 160.092 542.106 159.857C539.932 159.639 537.743 159.784 535.55 159.802C534.358 159.802 533.778 160.418 533.778 161.633C533.778 165.113 533.793 168.574 533.759 172.054C533.739 173.558 534.482 174.102 535.859 173.975C539.623 173.631 543.553 174.917 547.154 172.724C547.862 172.289 548.06 172.996 548.006 173.576C547.715 176.404 547.174 179.213 547.336 182.185L547.371 182.239ZM493.532 178.071C496.503 178.144 498.186 177.582 499.362 175.896C501.988 172.108 502.22 168.012 500.34 163.898C498.619 160.129 495.107 159.549 491.432 159.349C489.548 159.24 488.898 159.965 488.933 161.832C489.026 166.2 489.08 170.568 488.917 174.917C488.825 177.255 489.892 178.017 491.938 178.071C492.465 178.071 492.991 178.071 493.513 178.071H493.532Z" fill="black"/>
<path d="M292.147 95.1726C294.79 95.1726 297.434 95.1726 300.059 95.1726C300.638 95.1726 301.47 95.1183 301.543 95.8613C301.615 96.6225 300.783 96.6226 300.221 96.8039C297.107 97.8188 296.691 98.3627 296.673 101.661C296.637 106.12 296.601 110.578 296.673 115.018C296.709 116.958 296.039 118.081 294.102 118.661C283.385 121.887 272.903 121.688 262.601 116.939C252.572 112.318 249.078 101.734 249.947 92.9435C250.49 87.5244 252.282 82.5584 255.958 78.3355C261.099 72.4453 267.906 70.4518 275.292 69.8177C281.574 69.2738 287.748 70.4882 293.957 71.3219C295.55 71.5392 296.329 72.2462 296.239 74.0042C296.094 76.7953 296.184 79.5864 296.112 82.3772C296.112 82.9935 296.021 83.9178 295.17 83.9178C294.482 83.9178 294.356 83.0659 294.265 82.5224C293.595 78.5715 290.988 76.3785 287.476 75.0191C281.809 72.8261 275.999 72.5178 270.187 74.2579C265.317 75.7257 261.86 78.9701 260.393 83.8454C257.695 92.7622 258.528 101.353 263.996 109.11C267.87 114.602 273.464 117.103 280.09 117.338C281.882 117.411 283.711 117.338 285.503 117.139C287.35 116.958 288.255 115.87 288.218 113.913C288.146 109.527 288.218 105.159 288.182 100.773C288.146 98.1632 287.096 97.1118 284.507 96.8403C284.362 96.8403 284.199 96.8403 284.055 96.8221C283.294 96.695 282.009 97.0394 282.081 95.952C282.136 95.0277 283.403 95.209 284.199 95.1908C286.843 95.1547 289.486 95.1908 292.111 95.1908L292.147 95.1726Z" fill="black"/>
<path d="M528.096 95.209C530.811 95.209 533.527 95.1908 536.242 95.209C536.784 95.209 537.635 95.1183 537.616 95.9702C537.616 96.5683 536.873 96.6225 536.385 96.7496C532.873 97.6921 532.494 98.145 532.475 101.679C532.455 106.138 532.401 110.578 532.494 115.037C532.529 117.012 531.771 118.19 529.921 118.734C518.734 121.96 507.71 122.032 497.261 116.251C487.289 110.741 483.088 98.272 487.142 86.6907C490.492 77.1397 497.536 72.0285 507.273 70.3069C514.986 68.9294 522.572 70.343 530.177 71.4308C531.097 71.5574 532.022 71.8476 532.003 73.0434C532.003 76.2878 531.968 79.5318 531.879 82.7762C531.879 83.3197 531.712 84.0991 530.919 84.0809C530.393 84.0809 530.231 83.4828 530.177 83.0659C529.341 77.1215 524.869 75.2004 519.964 73.9499C515.837 72.9168 511.601 72.7897 507.439 73.8593C501.103 75.4902 496.991 79.4233 495.633 85.9117C494.186 92.8893 494.639 99.7038 497.989 106.156C501.753 113.405 507.872 116.849 515.856 117.32C517.357 117.411 518.877 117.356 520.382 117.32C523.206 117.266 524.057 116.45 524.092 113.677C524.146 109.382 524.146 105.068 524.092 100.773C524.057 98.109 522.935 97.0398 520.235 96.786C519.458 96.7132 518.046 97.2389 518.119 95.952C518.193 94.937 519.585 95.1729 520.456 95.1729C523.024 95.1365 525.577 95.1729 528.15 95.1729L528.096 95.209Z" fill="black"/>
<path d="M711.139 199.276C708.694 199.059 706.358 198.932 704.041 198.642C700.203 198.153 696.385 198.171 692.548 198.533C691.786 198.606 690.861 198.769 690.664 197.826C690.482 196.92 691.422 196.775 692.057 196.757C694.683 196.685 695.097 194.818 695.097 192.842C695.151 182.276 695.117 171.71 695.136 161.162C695.136 159.186 694.122 158.099 692.273 157.646C691.767 157.519 691.244 157.428 690.738 157.265C690.231 157.102 689.612 156.885 689.774 156.232C689.921 155.634 690.537 155.87 690.935 155.942C697.089 156.83 703.283 156.214 709.437 156.323C713.437 156.395 717.402 156.703 721.293 157.664C730.31 159.929 735.254 165.584 736.43 174.918C737.463 183.182 732.937 192.009 725.804 195.905C721.15 198.443 716.083 198.878 711.085 199.295L711.139 199.276ZM703.12 176.513C703.12 181.116 703.081 185.702 703.12 190.305C703.155 193.477 704.006 195.035 706.087 195.524C711.228 196.721 716.28 196.539 721.023 194.002C724.52 192.136 726.817 189.236 727.614 185.285C728.392 181.334 728.519 177.346 727.688 173.395C726.926 169.752 725.297 166.599 722.434 164.134C718.253 160.546 713.24 159.494 707.952 159.368C703.19 159.259 703.12 159.404 703.12 164.062C703.12 168.212 703.12 172.344 703.12 176.494V176.513Z" fill="black"/>
<path d="M716.806 77.0308C720.914 77.0308 724.899 77.7738 728.701 79.3687C740.921 84.4977 743.436 99.3594 737.517 109.545C729.951 122.576 708.768 124.986 698.614 113.822C693.125 107.787 691.496 100.537 693.941 92.744C696.583 84.3164 702.559 79.3323 711.178 77.5383C713.042 77.1393 714.907 76.9944 716.787 77.0486L716.806 77.0308ZM731.831 100.266C731.831 93.9763 730.256 88.3944 725.297 84.0627C718.473 78.1 707.031 79.6949 703.194 87.2524C699.554 94.3935 700.892 105.92 706.072 112.064C711.847 118.933 723.467 119.332 728.539 112.717C731.324 109.074 731.777 104.706 731.815 100.266H731.831Z" fill="black"/>
<path d="M363.873 155.815C365.521 155.525 366.824 156.413 368.218 156.359C371.078 156.269 373.939 156.595 376.781 155.942C377.397 155.797 378.32 155.543 378.519 156.432C378.7 157.193 377.831 157.301 377.27 157.447C375.858 157.827 375.206 158.806 374.844 160.147C374.536 161.252 374.428 162.376 374.464 163.5C374.844 174.374 373.866 185.23 373.975 196.105C373.975 197.119 374.21 198.443 373.034 198.896C372.02 199.276 371.223 198.316 370.517 197.663C360.578 188.529 350.875 179.123 341.823 169.082C341.588 168.81 341.298 168.593 341.008 168.321C340.212 169.1 340.465 169.988 340.574 170.75C341.207 174.882 340.899 179.032 341.026 183.182C341.117 186.572 341.28 189.961 341.479 193.35C341.606 195.398 342.384 196.866 344.81 196.703C345.172 196.685 345.57 196.775 345.914 196.884C346.33 197.029 346.856 197.21 346.819 197.754C346.783 198.533 346.131 198.388 345.606 198.37C343.035 198.37 340.483 198.298 337.912 198.334C336.174 198.334 334.454 198.461 332.716 198.533C332.119 198.552 331.395 198.715 331.268 197.899C331.16 197.246 331.775 197.047 332.264 196.866C336.174 195.38 336.283 195.38 336.192 191.175C335.921 180.373 336.898 169.589 336.754 158.806C336.754 157.773 336.554 156.341 337.514 155.906C338.564 155.417 339.379 156.649 340.103 157.374C349.282 166.671 358.75 175.661 367.657 185.212C368.254 185.846 368.852 187.097 369.666 186.789C370.698 186.39 370.246 185.013 370.119 184.125C369.322 178.398 369.847 172.671 369.666 166.925C369.594 164.823 369.395 162.721 369.25 160.6C369.141 159.132 368.29 158.335 366.969 157.827C365.901 157.41 364.615 157.301 363.873 155.834V155.815Z" fill="black"/>
<path d="M792.984 77.9191C792.335 78.3177 792.153 78.499 791.956 78.535C788.134 79.1696 787.611 81.9607 787.7 85.0958C788.045 95.8071 787.174 106.518 787.248 117.23C787.248 117.375 787.248 117.538 787.248 117.682C787.213 118.734 787.321 120.057 786.362 120.582C785.221 121.217 784.478 119.93 783.755 119.278C774.393 110.723 765.543 101.661 756.742 92.5449C755.911 91.693 755.257 90.6421 754.135 90.0439C753.501 90.7145 753.737 91.5117 753.81 92.2005C754.642 99.4137 753.81 106.681 754.588 113.895C754.951 117.121 755.222 117.701 758.444 118.335C759.079 118.462 760.019 118.426 759.891 119.35C759.802 120.075 758.916 119.894 758.355 119.912C754.282 119.948 750.209 119.948 746.132 119.948C745.555 119.948 744.704 120.003 744.631 119.278C744.542 118.299 745.501 118.371 746.116 118.371C748.631 118.371 749.339 116.831 749.393 114.692C749.427 113.478 749.447 112.282 749.466 111.067C749.59 100.665 749.698 90.2431 749.845 79.8402C749.845 79.0065 749.412 77.8645 750.588 77.4841C751.567 77.1579 752.305 77.8463 752.959 78.499C761.957 87.615 771.279 96.4416 780.006 105.848C780.877 106.79 781.67 108.748 782.904 108.167C783.971 107.66 783.263 105.703 783.12 104.38C782.687 100.247 782.973 96.079 782.919 91.9468C782.884 89.0108 782.939 86.0748 782.521 83.1388C782.215 81.0542 781.689 79.4776 779.229 79.3869C778.649 79.3687 777.941 79.0971 777.941 78.3537C777.941 77.6289 778.614 77.5925 779.12 77.6654C783.248 78.2995 787.375 77.9551 791.503 77.5925C791.774 77.5747 792.064 77.7196 792.984 77.9551V77.9191Z" fill="black"/>
<path d="M271.942 186.118C273.698 183.001 274.585 179.884 275.799 176.911C278.767 169.571 281.7 162.213 284.525 154.818C285.719 151.701 285.466 151.447 282.225 150.632C281.718 150.505 281.085 150.45 281.085 149.762C281.085 148.91 281.791 148.874 282.388 148.91C286.607 149.2 290.807 149.254 295.025 148.783C295.64 148.711 296.545 148.566 296.69 149.472C296.799 150.233 296.002 150.487 295.459 150.541C292.436 150.813 291.169 152.952 290.083 155.38C284.144 168.756 278.188 182.113 272.214 195.47C271.635 196.757 271.327 198.714 269.86 198.768C268.267 198.823 268.032 196.775 267.525 195.543C262.003 182.403 256.518 169.245 251.159 156.051C249.892 152.951 248.064 150.958 244.606 150.722C243.9 150.668 242.85 150.741 243.067 149.617C243.248 148.711 244.226 148.801 244.968 148.874C249.331 149.309 253.712 149.055 258.075 149.073C259.342 149.073 260.627 148.856 261.895 148.837C262.401 148.837 262.999 149.091 262.999 149.744C262.999 150.306 262.456 150.378 262.04 150.541C258.817 151.756 258.69 151.864 259.921 155.199C262.945 163.336 266.059 171.42 269.154 179.521C269.969 181.66 270.458 183.944 271.942 186.118Z" fill="black"/>
<path d="M443.206 155.688C442.66 157.048 441.666 157.229 440.761 157.573C439.241 158.135 438.355 159.259 438.37 160.817C438.479 169.408 437.755 178.017 438.753 186.589C439.206 190.577 441.268 193.694 444.997 195.053C449.144 196.576 453.379 196.231 457 193.386C459.789 191.211 460.493 187.895 460.586 184.65C460.768 176.875 460.64 169.1 460.64 161.325C460.64 159.331 459.77 158.026 457.762 157.573C457.255 157.464 456.749 157.283 456.296 157.048C455.967 156.885 455.662 156.577 455.789 156.142C455.932 155.652 456.35 155.725 456.729 155.797C460.93 156.558 465.112 156.558 469.328 155.96C469.82 155.888 470.524 155.761 470.651 156.449C470.779 157.138 470.09 157.283 469.599 157.374C466.957 157.845 466.323 159.603 466.342 161.995C466.396 167.886 466.342 173.776 466.342 179.648C466.342 182.149 466.052 184.614 465.456 187.043C463.646 194.437 458.629 198.696 451.027 199.167C447.712 199.385 444.417 199.258 441.179 198.297C435.93 196.739 432.723 193.241 431.291 188.058C430.661 185.738 430.332 183.327 430.332 180.899C430.332 174.555 430.263 168.212 430.371 161.886C430.406 159.422 429.373 158.063 427.094 157.464C426.588 157.337 426.081 157.156 425.609 156.939C425.265 156.794 424.92 156.504 424.994 156.087C425.102 155.435 425.644 155.598 426.081 155.688C431.69 156.83 437.303 156.431 443.186 155.67L443.206 155.688Z" fill="black"/>
<path d="M322.815 182.239C321.855 182.059 321.584 181.623 321.529 181.207C321.058 178.053 318.741 177.6 316.207 177.509C314.559 177.437 312.894 177.527 311.228 177.473C309.907 177.437 309.291 177.98 309.309 179.34C309.346 183.182 309.309 187.042 309.4 190.885C309.454 193.186 310.558 194.654 313.039 195.017C315.519 195.397 318.017 195.397 320.479 195.162C322.561 194.962 323.629 193.295 324.372 191.446C324.607 190.848 324.661 189.87 325.567 190.142C326.454 190.413 325.965 191.283 325.892 191.9C325.693 193.386 325.403 194.872 325.24 196.376C325.041 198.17 324.01 198.696 322.308 198.75C316.714 198.968 311.174 198.243 305.58 198.261C303.371 198.261 301.217 198.46 299.081 198.896C298.212 199.076 297.089 199.385 296.836 198.152C296.6 197.011 297.705 196.847 298.483 196.739C300.674 196.467 301.38 195.071 301.38 193.114C301.38 182.475 301.38 171.818 301.398 161.18C301.398 159.095 300.366 157.972 298.411 157.537C297.976 157.446 297.506 157.41 297.089 157.265C296.6 157.084 295.985 156.83 296.148 156.196C296.311 155.489 296.944 155.688 297.469 155.761C305.127 156.921 312.821 156.069 320.515 156.268C324.498 156.377 324.498 156.268 324.209 160.346C324.172 160.799 324.191 161.252 324.082 161.705C323.883 162.611 324.263 164.079 323.159 164.261C321.873 164.46 322.416 162.92 322.054 162.194C321.203 160.455 319.556 160.02 317.908 159.875C315.664 159.693 313.383 159.802 311.12 159.802C309.925 159.802 309.346 160.436 309.363 161.651C309.363 165.203 309.363 168.755 309.363 172.289C309.363 173.395 309.888 174.048 311.011 173.957C314.867 173.667 318.868 174.9 322.543 172.815C323.412 172.326 323.684 172.87 323.593 173.576C323.249 176.404 322.869 179.231 322.851 182.185L322.815 182.239Z" fill="black"/>
<path d="M584.089 119.423C582.298 120.22 580.704 119.839 579.165 119.894C576.449 119.966 573.734 119.93 571.034 119.894C570.241 119.894 568.991 119.948 569.405 118.716C570.04 116.867 569.115 115.489 568.539 113.967C567.757 111.919 566.871 109.925 566.075 107.896C565.641 106.772 564.918 106.265 563.668 106.283C559.974 106.337 556.28 106.319 552.59 106.283C551.665 106.283 550.977 106.554 550.613 107.443C549.619 109.889 548.532 112.3 547.646 114.783C547.046 116.504 547.012 118.136 549.53 118.371C549.998 118.408 550.652 118.625 550.505 119.35C550.381 119.894 549.816 119.875 549.383 119.875C545.545 119.875 541.708 119.875 537.851 119.875C537.31 119.875 536.656 119.749 536.621 119.132C536.567 118.48 537.217 118.281 537.743 118.299C540.494 118.353 541.724 116.577 542.687 114.384C546.578 105.395 550.489 96.4052 554.4 87.4159C555.576 84.7154 556.698 81.9967 557.947 79.3327C558.4 78.3537 558.744 76.8859 560.048 76.9766C561.15 77.049 561.475 78.4084 561.874 79.3687C564.481 85.4766 567.034 91.5842 569.641 97.6921C571.904 102.966 574.202 108.204 576.484 113.46C577.66 116.142 579.18 118.389 582.55 118.389C582.82 118.389 583.13 118.571 583.381 118.734C583.563 118.843 583.71 119.024 584.089 119.404V119.423ZM557.963 88.9744C556.319 93.0342 554.651 97.13 553.023 101.226C552.532 102.44 553.185 102.875 554.342 102.875C556.895 102.875 559.467 102.839 562.021 102.875C563.614 102.912 563.792 102.205 563.27 100.918C561.874 97.4202 560.554 93.9043 559.158 90.4061C558.961 89.8987 558.926 89.1921 557.963 88.9744Z" fill="black"/>
<path d="M682.951 103.873C681.918 103.601 681.775 102.948 681.667 102.404C681.179 99.7945 679.404 99.0515 677.033 99.0697C675.296 99.0875 673.555 99.1057 671.837 99.0697C670.352 99.0515 669.574 99.6856 669.59 101.226C669.609 105.159 669.575 109.074 669.644 113.007C669.683 114.946 670.588 116.233 672.688 116.595C675.311 117.067 677.953 117.012 680.56 116.759C682.317 116.595 683.62 115.562 684.255 113.822C684.491 113.188 684.8 112.572 685.141 112.01C685.268 111.793 685.651 111.593 685.883 111.611C686.409 111.647 686.32 112.119 686.301 112.499C686.301 112.717 686.247 112.952 686.212 113.17C684.924 121.253 686.61 120.401 677.775 120.347C673.938 120.329 670.097 120.039 666.259 119.839C663.907 119.713 661.606 120.184 659.273 120.347C658.314 120.419 656.991 120.456 656.902 119.26C656.829 118.263 658.093 118.353 658.89 118.299C660.449 118.208 661.227 117.356 661.428 115.907C661.552 114.946 661.625 113.949 661.645 112.971C661.645 103.31 661.66 93.6323 661.645 83.9724C661.645 80.2934 661.354 79.985 657.734 79.1878C657.153 79.0607 656.357 79.0607 656.43 78.2635C656.504 77.4659 657.316 77.5565 657.896 77.6107C666.333 78.3177 674.785 77.8102 683.222 77.9551C684.181 77.9551 684.87 78.1911 684.707 79.3869C684.456 81.2537 684.255 83.1206 684.019 85.0056C683.965 85.4584 683.841 86.0205 683.35 86.093C682.607 86.2014 682.572 85.4949 682.518 85.0234C682.228 82.45 680.398 81.6524 678.263 81.4893C676.019 81.3262 673.737 81.4893 671.474 81.435C670.135 81.4168 669.555 81.9789 669.555 83.3201C669.59 86.7996 669.609 90.2613 669.555 93.7412C669.536 95.2996 670.371 95.7347 671.69 95.6262C675.385 95.2996 679.241 96.5141 682.789 94.5206C683.659 94.0309 683.802 94.8828 683.748 95.4991C683.496 98.2538 683.206 101.027 682.916 103.909L682.951 103.873Z" fill="black"/>
<path d="M638.365 198.768C633.023 198.768 627.685 198.044 622.342 198.297C620.08 198.406 617.836 198.515 615.573 198.588C614.919 198.605 614.049 198.714 614.033 197.736C614.033 196.992 614.737 196.721 615.337 196.775C618.014 196.956 618.668 195.271 618.865 193.096C618.958 192.045 619.14 190.994 619.14 189.942C619.14 178.633 619.14 167.306 619.101 155.996C619.085 151.81 618.795 151.574 614.668 150.65C614.049 150.505 613.109 150.487 613.202 149.599C613.291 148.765 614.177 148.728 614.846 148.783C618.757 149.091 622.667 149.182 626.598 149.091C628.315 149.055 630.056 148.856 631.773 148.856C632.497 148.856 633.549 148.982 633.568 149.852C633.584 150.885 632.481 150.65 631.793 150.704C628.481 150.976 627.518 151.846 627.503 155.163C627.429 166.019 627.449 176.893 627.429 187.767C627.429 188.148 627.449 188.529 627.483 188.891C627.901 193.567 629.166 194.781 633.874 194.872C635.541 194.908 637.189 194.926 638.852 194.872C642.98 194.781 643.993 194.056 645.552 190.16C645.804 189.525 645.912 188.402 646.837 188.674C647.614 188.909 647.072 189.87 646.999 190.486C646.817 192.353 646.674 194.238 646.349 196.086C646.04 197.844 645.08 198.914 643.088 198.768C641.514 198.66 639.92 198.751 638.346 198.751L638.365 198.768Z" fill="black"/>
<path d="M645.243 164.188C645.189 161.524 645.622 159.041 646.384 156.613C646.728 155.525 647.668 155.797 648.481 155.87C659.908 156.794 671.346 156.323 682.788 156.105C683.949 156.087 684.49 156.395 684.525 157.555C684.583 159.44 684.347 161.325 684.854 163.192C684.978 163.627 684.889 164.17 684.328 164.261C683.786 164.351 683.496 163.916 683.349 163.5C682.247 160.31 679.601 159.893 676.796 159.802C674.843 159.748 672.886 159.802 670.913 159.802C669.683 159.802 669.122 160.346 669.122 161.579C669.137 171.837 669.068 182.095 669.23 192.353C669.284 195.796 670.135 196.376 673.555 196.721C674.282 196.793 675.33 196.721 675.35 197.663C675.365 198.66 674.317 198.642 673.609 198.606C668.414 198.261 663.238 198.134 658.043 198.606C657.389 198.66 656.519 198.606 656.465 197.717C656.411 197.029 657.207 197.101 657.679 196.956C660.701 196.05 661.138 195.543 661.157 192.153C661.192 184.306 661.157 176.458 661.157 168.611C661.157 166.272 661.118 163.935 661.157 161.597C661.172 160.364 660.704 159.802 659.436 159.821C656.794 159.857 654.167 159.857 651.525 159.821C648.465 159.802 646.852 161.85 645.243 164.207V164.188Z" fill="black"/>
<path d="M422.166 85.7846C421.911 83.229 422.51 80.8911 423.106 78.5711C423.415 77.393 424.41 77.4294 425.315 77.5201C435.709 78.5168 446.118 77.6832 456.509 77.9911C458.122 78.0454 460.075 76.7949 461.251 78.1182C462.249 79.2416 461.216 81.1627 461.433 82.7215C461.487 83.102 461.487 83.4828 461.452 83.8453C461.398 84.715 461.742 85.9837 460.636 86.1468C459.677 86.2917 459.986 85.0234 459.712 84.3889C459.116 82.921 457.921 82.2323 456.454 81.8515C453.487 81.1085 450.443 81.5253 447.437 81.4346C446.335 81.3986 446.045 82.0692 446.045 83.0295C446.045 93.3782 445.991 103.709 446.118 114.058C446.153 117.392 446.861 117.846 450.354 118.281C451.078 118.371 452.145 118.353 452.145 119.241C452.145 120.147 451.097 119.857 450.482 119.857C445.503 119.894 440.525 119.894 435.546 119.875C434.819 119.875 433.717 120.039 433.678 119.096C433.624 118.081 434.765 118.298 435.453 118.208C436.846 118.027 437.662 117.266 437.79 115.888C437.933 114.475 438.08 113.043 438.08 111.611C438.096 102.476 438.026 93.3421 438.115 84.2076C438.134 81.9603 437.283 81.2533 435.183 81.3804C433.229 81.4893 431.253 81.4346 429.299 81.3986C426.529 81.3622 424.193 81.9963 423.199 84.987C423.09 85.3314 422.889 85.6758 422.131 85.7664L422.166 85.7846Z" fill="black"/>
<path d="M407.068 177.002C407.068 181.37 407.068 185.756 407.068 190.124C407.068 190.957 407.068 191.791 407.161 192.606C407.56 195.832 408.155 196.394 411.362 196.703C412.086 196.775 413.134 196.666 413.08 197.663C413.025 198.66 412.012 198.478 411.269 198.442C406.527 198.261 401.784 198.044 397.057 198.569C396.697 198.605 396.299 198.587 395.935 198.533C395.355 198.424 394.597 198.388 394.616 197.59C394.632 196.974 395.34 196.829 395.827 196.811C398.597 196.666 399.088 194.781 399.088 192.57C399.103 182.385 399.088 172.199 399.123 162.013C399.123 160.346 398.508 159.712 396.86 159.766C394.67 159.838 392.496 159.802 390.307 159.766C387.7 159.712 385.617 160.6 384.187 162.883C383.897 163.355 383.626 164.17 382.883 163.771C382.34 163.481 382.739 162.811 382.847 162.322C383.227 160.708 383.662 159.114 384.006 157.482C384.296 156.123 385.056 155.452 386.414 155.815C389.382 156.613 392.407 156.286 395.409 156.286C403.25 156.322 411.087 156.322 418.928 156.286C422.495 156.286 422.495 156.232 422.476 159.983C422.476 160.292 422.514 160.6 422.476 160.89C422.313 161.959 423.056 163.644 422.023 163.989C420.921 164.351 420.936 162.503 420.34 161.723C419.327 160.418 417.915 159.893 416.395 159.82C413.915 159.693 411.416 159.784 408.937 159.784C407.413 159.784 407.068 160.69 407.088 162.013C407.126 166.997 407.088 171.981 407.088 176.947H407.068V177.002Z" fill="black"/>
<path d="M583.474 165.566C582.205 165.185 582.205 164.243 581.915 163.518C579.799 158.28 573.355 156.631 568.918 160.183C566.276 162.303 566.04 165.856 568.411 168.321C570.581 170.586 573.409 171.927 576.07 173.504C580.051 175.896 583.455 178.742 584.557 183.563C586.116 190.268 582.116 196.884 575.436 198.533C570.782 199.693 566.167 199.276 561.549 198.225C559.684 197.808 558.636 196.775 558.852 194.709C559.069 192.534 559.177 190.359 559.378 188.184C559.433 187.623 559.378 186.771 560.171 186.807C560.899 186.843 560.845 187.677 560.953 188.257C562.164 194.926 568.194 198.08 574.384 195.271C578.801 193.277 579.834 187.568 576.395 184.124C574.728 182.457 572.681 181.297 570.674 180.083C568.608 178.832 566.566 177.545 564.751 175.932C557.51 169.444 559.595 159.567 568.79 156.468C573.01 155.036 577.262 155.344 581.517 156.05C582.461 156.196 583.366 156.613 583.474 157.664C583.745 160.256 583.725 162.847 583.474 165.529V165.566Z" fill="black"/>
<path d="M599.93 119.912C595.713 119.912 591.493 119.912 587.276 119.912C586.568 119.912 585.447 120.129 585.373 119.205C585.284 118.172 586.406 118.317 587.095 118.317C588.994 118.317 589.775 117.193 590.027 115.526C590.154 114.638 590.189 113.713 590.189 112.825C590.189 103.238 590.189 93.6683 590.228 84.0809C590.228 81.5799 589.775 79.55 586.804 79.1692C586.278 79.0968 585.628 78.843 585.717 78.2267C585.826 77.4112 586.642 77.5383 587.183 77.5925C592.147 78.1907 597.086 78.1 602.065 77.7556C602.448 77.7374 602.862 77.7556 603.024 78.1542C603.245 78.7342 602.773 78.9337 602.374 79.151C602.301 79.1874 602.227 79.2238 602.158 79.2416C597.868 79.4047 598.065 82.3411 598.1 85.458C598.212 93.6865 598.119 101.896 598.139 110.125C598.139 115.653 598.537 116.088 603.914 116.758C606.413 117.066 608.873 116.649 611.337 116.432C613.325 116.251 613.906 114.583 614.486 112.989C614.722 112.336 614.865 111.194 615.77 111.448C616.586 111.683 616.242 112.771 616.134 113.46C615.101 120.292 615.809 120.057 608.981 119.984C605.976 119.948 602.955 119.984 599.949 119.984V119.93L599.93 119.912Z" fill="black"/>
<path d="M620.857 77.5383C627.124 77.9915 633.007 78.3177 639.108 77.357C638.725 79.0065 637.731 78.9523 636.914 79.0971C634.818 79.514 633.8 80.728 633.8 82.885C633.82 92.4 633.785 101.897 633.858 111.412C633.893 115.581 634.597 116.269 638.655 116.613C640.373 116.759 642.113 116.831 643.831 116.795C646.817 116.722 649.587 116.233 650.55 112.717C650.713 112.119 651.092 111.195 651.85 111.412C652.72 111.666 652.268 112.572 652.124 113.17C650.422 120.655 652.213 119.967 643.978 119.984C637.351 119.984 630.706 119.967 624.079 119.948C623.557 119.948 623.031 119.948 622.505 119.894C622.052 119.839 621.526 119.695 621.472 119.187C621.418 118.625 621.925 118.389 622.377 118.389C625.53 118.498 625.836 116.342 625.836 114.003C625.855 103.745 625.836 93.4874 625.874 83.2294C625.874 81.1271 625.093 79.7677 623.012 79.2238C622.308 79.0425 621.526 78.9341 620.822 77.5747L620.857 77.5383Z" fill="black"/>
<path d="M751.478 194.075C751.493 196.213 749.412 198.279 747.277 198.261C745.358 198.243 743.548 196.231 743.583 194.129C743.617 192.117 745.486 190.105 747.385 190.015C749.323 189.924 751.458 192.045 751.478 194.056V194.075Z" fill="black"/>
</g>
<defs>
<clipPath id="clip0_19_133">
<rect width="793" height="258" fill="white"/>
</clipPath>
</defs>
</svg>
