<svg width="100" height="100" viewBox="0 0 100 100" fill="none" xmlns="http://www.w3.org/2000/svg">
<g clip-path="url(#clip0_11271_80704)">
<path d="M49.9989 39.0356C55.7257 39.0356 60.3846 34.3765 60.3846 28.6499C60.3846 27.1822 60.0836 25.7616 59.4903 24.4276C59.1877 23.7474 58.391 23.4416 57.7114 23.744C57.0313 24.0466 56.7253 24.843 57.0277 25.5231C57.1247 25.7411 57.2092 25.9628 57.285 26.1869H42.7152C43.7447 23.1511 46.6197 20.9592 49.9989 20.9592C51.2022 20.9592 52.3535 21.2289 53.4206 21.761C54.0875 22.0934 54.8961 21.8223 55.2281 21.1562C55.5604 20.4901 55.2896 19.6809 54.6235 19.3489C53.1795 18.6289 51.6236 18.2639 49.999 18.2639C44.2722 18.2639 39.6133 22.923 39.6133 28.6499C39.6133 34.3767 44.272 39.0356 49.9989 39.0356ZM57.069 31.6736H42.9285C42.5587 30.8124 42.3436 29.8701 42.3142 28.882H57.6836C57.6539 29.8701 57.4388 30.8122 57.069 31.6736ZM44.8638 34.3689H55.1338C53.7712 35.5937 51.9707 36.3405 49.9987 36.3405C48.0268 36.3403 46.2263 35.5937 44.8638 34.3689Z" fill="#0E2B72"/>
<path d="M20.5117 58.0121V61.9311C20.5117 62.6754 21.1151 63.2788 21.8594 63.2788C22.6036 63.2788 23.207 62.6754 23.207 61.9311V58.0121C23.207 57.2531 23.8244 56.6357 24.5834 56.6357H40.6204C41.3783 56.6357 41.995 57.2531 41.995 58.0121V69.6829C41.995 70.4408 41.3783 71.0575 40.6204 71.0575H24.5834C23.8244 71.0575 23.207 70.4408 23.207 69.6829V68.2202C23.207 67.4759 22.6036 66.8725 21.8594 66.8725C21.1151 66.8725 20.5117 67.4759 20.5117 68.2202V69.6829C20.5117 71.927 22.3382 73.7528 24.5834 73.7528H40.6204C42.8645 73.7528 44.6903 71.927 44.6903 69.6829V58.0121C44.6903 55.767 42.8645 53.9404 40.6204 53.9404H24.5834C22.3382 53.9406 20.5117 55.7671 20.5117 58.0121Z" fill="#0E2B72"/>
<path d="M59.3831 73.7532H75.4197C77.6642 73.7532 79.4904 71.927 79.4904 69.6824V58.012C79.4904 55.7674 77.6642 53.9414 75.4197 53.9414H59.3831C57.1387 53.9414 55.3125 55.7676 55.3125 58.012V69.6824C55.3125 71.927 57.1387 73.7532 59.3831 73.7532ZM58.0078 58.012C58.0078 57.2536 58.6249 56.6367 59.3831 56.6367H75.4197C76.1782 56.6367 76.795 57.2538 76.795 58.012V69.6824C76.795 70.4408 76.178 71.0579 75.4197 71.0579H59.3831C58.6247 71.0579 58.0078 70.4408 58.0078 69.6824V58.012Z" fill="#0E2B72"/>
<path d="M31.834 69.9095C31.853 69.9095 31.8723 69.9092 31.8915 69.9083C32.3459 69.8891 32.7599 69.6418 32.9924 69.2508L38.6319 59.7691C39.0125 59.1294 38.8023 58.3023 38.1626 57.9219C37.5227 57.5411 36.6958 57.7517 36.3154 58.3912L31.7294 66.1014L29.334 62.7573C28.9006 62.1522 28.0588 62.0132 27.4536 62.4466C26.8486 62.88 26.7093 63.7218 27.1429 64.327L30.7386 69.3468C30.9922 69.7007 31.4006 69.9095 31.834 69.9095Z" fill="#FFB400"/>
<path d="M62.0977 69.1496C62.3609 69.4126 62.7059 69.5443 63.0507 69.5443C63.3956 69.5443 63.7406 69.4128 64.0038 69.1496L67.4003 65.7531L70.7967 69.1496C71.0599 69.4126 71.4049 69.5443 71.7498 69.5443C72.0946 69.5443 72.4396 69.4128 72.7028 69.1496C73.2291 68.6233 73.2291 67.7699 72.7028 67.2438L69.3064 63.8473L72.7028 60.4509C73.2291 59.9246 73.2291 59.0712 72.7028 58.5451C72.1763 58.0188 71.3232 58.0188 70.7969 58.5451L67.4004 61.9416L64.004 58.5451C63.4775 58.0188 62.6243 58.0188 62.098 58.5451C61.5717 59.0714 61.5717 59.9248 62.098 60.4509L65.4945 63.8473L62.098 67.2438C61.5716 67.7699 61.5715 68.6233 62.0977 69.1496Z" fill="#FFB400"/>
<path d="M95.1296 83.2933C94.3413 82.2788 93.1521 81.697 91.867 81.697H91.7317V32.8915C91.7317 29.1946 88.7241 26.1868 85.027 26.1868H69.288L71.071 25.1578C72.0155 24.6133 72.6909 23.7332 72.9728 22.6793C73.2546 21.6267 73.1101 20.5272 72.5655 19.5828L69.1358 13.6402C68.0099 11.6931 65.5086 11.0228 63.5588 12.1473L60.8076 13.7361C59.7766 12.9884 58.6735 12.3513 57.5125 11.8325V8.65688C57.5125 6.40522 55.6808 4.57349 53.4291 4.57349H46.571C44.3206 4.57349 42.4898 6.4054 42.4898 8.65688V11.8321C41.3277 12.3509 40.2243 12.9883 39.1939 13.7361L36.4402 12.147C34.4901 11.0227 31.9892 11.6931 30.866 13.6412L27.4373 19.5819C26.8915 20.5258 26.7463 21.6258 27.0286 22.6793C27.3108 23.733 27.9867 24.6131 28.9304 25.1572L30.7132 26.1868H14.974C11.2771 26.1868 8.26936 29.1946 8.26936 32.8915V81.6968H8.13316C6.84803 81.6968 5.65886 82.2786 4.87057 83.2931C4.08228 84.3077 3.81257 85.6037 4.13026 86.8495L4.8526 89.6778C5.71744 93.0626 8.7608 95.4265 12.2534 95.4265H74.9963C75.7408 95.4265 76.344 94.8232 76.344 94.0789C76.344 93.3346 75.7408 92.7312 74.9963 92.7312H12.2534C9.99328 92.7312 8.02391 91.2012 7.464 89.0106L6.74184 86.1827C6.63133 85.7496 6.72512 85.2992 6.99897 84.9466C7.27281 84.5941 7.68627 84.3919 8.13298 84.3919H34.1941V84.7581C34.1941 87.5985 36.5049 89.909 39.3451 89.909H60.6556C63.496 89.909 65.8066 87.5985 65.8066 84.7581V84.3919H91.8668C92.3137 84.3919 92.727 84.5941 93.0008 84.9466C93.2747 85.2992 93.3685 85.7496 93.2581 86.1823L92.5358 89.0113C91.9777 91.2015 90.0083 92.7312 87.7468 92.7312H81.2852C80.5407 92.7312 79.9375 93.3346 79.9375 94.0789C79.9375 94.8232 80.5407 95.4265 81.2852 95.4265H87.7468C91.2415 95.4265 94.2849 93.0622 95.1474 89.6776L95.8697 86.849C96.1876 85.6037 95.9177 84.3078 95.1296 83.2933ZM29.632 21.9818C29.5363 21.6244 29.5855 21.2512 29.7711 20.9301L33.2006 14.9878C33.5818 14.3267 34.4311 14.0998 35.0935 14.4816L38.6249 16.5197C39.1071 16.798 39.7105 16.7511 40.1443 16.4016C41.4064 15.3842 42.8127 14.5718 44.3235 13.9875C44.8428 13.7866 45.1849 13.2873 45.1849 12.7306V8.65706C45.1849 7.8916 45.8066 7.2688 46.5708 7.2688H53.429C54.1944 7.2688 54.8172 7.8916 54.8172 8.65706V12.7306C54.8172 13.2871 55.1592 13.7862 55.6781 13.9873C57.1875 14.5718 58.5939 15.3846 59.8587 16.4023C60.2923 16.7513 60.8955 16.7976 61.3776 16.5195L64.906 14.482C65.569 14.0998 66.4198 14.3275 66.8018 14.9885L70.2308 20.9297C70.4159 21.2506 70.4651 21.6246 70.3692 21.9825C70.2736 22.3399 70.0445 22.6384 69.7241 22.8231L66.1974 24.8588C65.7155 25.1367 65.4542 25.6823 65.5392 26.2321C65.6628 27.0317 65.7257 27.8452 65.7257 28.6502C65.7257 29.4557 65.663 30.2684 65.5394 31.0654C65.454 31.6152 65.7153 32.1609 66.1974 32.4391L69.7237 34.4746C70.3854 34.8575 70.6127 35.7079 70.231 36.3699L66.8022 42.3086C66.6166 42.6297 66.317 42.8593 65.9589 42.9555C65.6008 43.0514 65.2276 43.002 64.9069 42.8166L61.3776 40.7785C60.8952 40.5002 60.2914 40.5467 59.8575 40.8966C58.5952 41.9149 57.1889 42.728 55.6779 43.3132C55.159 43.5143 54.817 44.0135 54.817 44.5699V48.6435C54.817 49.4077 54.1942 50.0294 53.4288 50.0294H46.5706C45.8064 50.0294 45.1847 49.4077 45.1847 48.6435V44.5699C45.1847 44.0133 44.8424 43.5139 44.3233 43.313C42.8109 42.728 41.4052 41.9152 40.1452 40.8975C39.8997 40.6993 39.5998 40.5981 39.2982 40.5981C39.0667 40.5981 38.8342 40.6576 38.6247 40.7785L35.0922 42.8171C34.772 43.0022 34.399 43.0514 34.0414 42.9556C33.6838 42.8599 33.3852 42.6306 33.1999 42.3095L29.7704 36.3694C29.5851 36.0492 29.5359 35.6756 29.6319 35.3178C29.7278 34.9595 29.9575 34.66 30.2782 34.4747L33.8028 32.4391C34.2834 32.1614 34.5447 31.6175 34.461 31.0688C34.3384 30.2659 34.2764 29.4523 34.2764 28.6502C34.2764 27.8488 34.3386 27.0341 34.4611 26.2287C34.5447 25.6801 34.2834 25.1364 33.8028 24.8589L30.2773 22.8229C29.9571 22.638 29.7278 22.3394 29.632 21.9818ZM27.437 37.7176L30.8656 43.6562C31.4104 44.601 32.2905 45.2767 33.3442 45.5589C34.3975 45.8409 35.4978 45.6959 36.4406 45.1507L39.193 43.5623C40.2228 44.3108 41.3261 44.9487 42.4896 45.468V48.6431C42.4896 50.8935 44.3204 52.7243 46.5708 52.7243H53.429C55.6806 52.7243 57.5124 50.8935 57.5124 48.6431V45.4675C58.6744 44.9482 59.7777 44.3103 60.8082 43.5621L63.5583 45.15C64.5024 45.696 65.6026 45.8412 66.6565 45.5586C67.7094 45.2765 68.5901 44.6012 69.1362 43.6568L72.5657 37.7168C73.1746 36.6608 73.2559 35.4429 72.8936 34.3691H81.7898C82.7601 34.3691 83.5496 35.1586 83.5496 36.1288V74.4491C83.5496 75.4194 82.7601 76.209 81.7898 76.209H18.2115C17.2412 76.209 16.4516 75.4194 16.4516 74.4491V36.1288C16.4516 35.1585 17.2412 34.3691 18.2115 34.3691H27.1092C27.0812 34.4521 27.0516 34.5346 27.0287 34.6201C26.7463 35.6738 26.8915 36.7742 27.437 37.7176ZM10.9649 32.8915C10.9649 30.6808 12.7635 28.8822 14.9742 28.8822H31.5844C31.5914 29.4372 31.6221 29.9959 31.6792 30.5529L29.7386 31.6736H18.2115C15.755 31.6736 13.7563 33.6721 13.7563 36.1286V74.4489C13.7563 76.9054 15.7548 78.9041 18.2115 78.9041H81.7898C84.2464 78.9041 86.2449 76.9056 86.2449 74.4489V36.1288C86.2449 33.6723 84.2464 31.6738 81.7898 31.6738H70.2633L68.3227 30.5536C68.3802 29.998 68.4111 29.4392 68.4183 28.8823H85.0272C87.2381 28.8823 89.0366 30.681 89.0366 32.8917V81.6959H10.9649V32.8915ZM63.1114 84.7583C63.1114 86.1124 62.0098 87.2139 60.6558 87.2139H39.3452C37.9911 87.2139 36.8896 86.1124 36.8896 84.7583V84.3921H63.1114V84.7583Z" fill="#0E2B72"/>
</g>
<defs>
<clipPath id="clip0_11271_80704">
<rect width="92" height="92" fill="white" transform="translate(4 4)"/>
</clipPath>
</defs>
</svg>
