<svg width="177" height="176" viewBox="0 0 177 176" fill="none" xmlns="http://www.w3.org/2000/svg">
<path d="M123.703 117.333H147.17V123.2H123.703V117.333Z" fill="#0E2B72"/>
<path d="M170.633 149.6H147.167V140.565C152.083 137.711 155.794 133.167 157.608 127.781C159.423 122.394 159.218 116.531 157.031 111.284C154.845 106.037 150.826 101.764 145.722 99.26C140.619 96.7562 134.78 96.1928 129.292 97.6745C123.804 99.1562 119.042 102.582 115.892 107.314C112.743 112.046 111.42 117.762 112.172 123.396C112.923 129.031 115.697 134.2 119.976 137.941C124.256 141.683 129.749 143.741 135.433 143.733C137.413 143.72 139.383 143.464 141.3 142.97V149.6H65.0333C63.4788 149.604 61.9893 150.224 60.8901 151.323C59.7909 152.422 59.1713 153.912 59.1667 155.466V158.4C59.1667 161.512 57.9305 164.496 55.7301 166.696C53.5296 168.897 50.5452 170.133 47.4333 170.133C44.3215 170.133 41.337 168.897 39.1366 166.696C36.9362 164.496 35.7 161.512 35.7 158.4V23.4665C35.696 19.1315 34.0868 14.9515 31.1827 11.7331H62.1V5.86646H18.1C13.4322 5.86646 8.95556 7.72074 5.65492 11.0214C2.35428 14.322 0.5 18.7986 0.5 23.4665V26.3998C0.504643 27.9543 1.12423 29.4438 2.22344 30.543C3.32264 31.6422 4.81216 32.2618 6.36667 32.2665H29.8333V158.4C29.8333 163.068 31.6876 167.544 34.9883 170.845C38.2889 174.145 42.7655 176 47.4333 176H158.9C163.568 176 168.044 174.145 171.345 170.845C174.646 167.544 176.5 163.068 176.5 158.4V155.466C176.495 153.912 175.876 152.422 174.777 151.323C173.677 150.224 172.188 149.604 170.633 149.6ZM29.8333 26.3998H6.36667V23.4665C6.36667 20.3546 7.60285 17.3702 9.80328 15.1697C12.0037 12.9693 14.9881 11.7331 18.1 11.7331C21.2119 11.7331 24.1963 12.9693 26.3967 15.1697C28.5971 17.3702 29.8333 20.3546 29.8333 23.4665V26.3998ZM135.433 137.866C131.952 137.866 128.55 136.834 125.655 134.9C122.761 132.966 120.505 130.218 119.173 127.002C117.841 123.786 117.492 120.247 118.172 116.833C118.851 113.419 120.527 110.283 122.988 107.821C125.45 105.36 128.586 103.684 132 103.005C135.414 102.326 138.953 102.674 142.169 104.006C145.385 105.338 148.133 107.594 150.067 110.488C152.001 113.383 153.033 116.785 153.033 120.266C153.033 124.934 151.179 129.411 147.878 132.712C144.578 136.012 140.101 137.866 135.433 137.866ZM170.633 158.4C170.633 161.512 169.397 164.496 167.197 166.696C164.996 168.897 162.012 170.133 158.9 170.133H60.516C63.4201 166.915 65.0294 162.735 65.0333 158.4V155.466H170.633V158.4Z" fill="#0E2B72"/>
<path d="M50.5092 80.7725L48.4353 78.6987L44.2876 82.8464L52.586 91.1419L56.7337 86.9941L54.6569 84.9203L56.9537 82.6235C58.5135 83.6643 60.2594 84.3943 62.0958 84.7736V88.0003H59.1625V93.8669H70.8958V88.0003H67.9625V84.7736C69.7987 84.3952 71.5446 83.6662 73.1046 82.6264L75.4014 84.9232L73.3246 86.9971L77.4724 91.1448L85.7708 82.8493L81.623 78.7016L79.5492 80.7755L77.2524 78.4787C78.294 76.9183 79.0241 75.1712 79.4025 73.3336H82.6292V76.2669H88.4958V64.5336H82.6292V67.4669H79.4025C79.0247 65.6306 78.2956 63.8845 77.2553 62.3248L79.5521 60.028L81.626 62.1019L85.7737 57.9541L77.4753 49.6587L73.3276 53.8064L75.4044 55.8803L73.1076 58.1771C71.5469 57.1359 69.7999 56.4058 67.9625 56.0269V52.8003H70.8958V46.9336H59.1625V52.8003H62.0958V56.0269C60.2596 56.4053 58.5137 57.1344 56.9537 58.1741L54.6569 55.8773L56.7337 53.8035L52.586 49.6557L44.2876 57.9512L48.4353 62.0989L50.5092 60.0251L52.806 62.3219C51.7643 63.8822 51.0342 65.6293 50.6558 67.4669H47.4292V64.5336H41.5625V76.2669H47.4292V73.3336H50.6558C51.0336 75.1699 51.7627 76.916 52.803 78.4757L50.5092 80.7725ZM65.0292 61.6003C66.7696 61.6003 68.471 62.1164 69.9182 63.0833C71.3653 64.0503 72.4933 65.4247 73.1593 67.0326C73.8254 68.6406 73.9996 70.41 73.6601 72.1171C73.3205 73.8241 72.4824 75.3921 71.2517 76.6228C70.021 77.8535 68.453 78.6916 66.746 79.0312C65.0389 79.3707 63.2695 79.1965 61.6616 78.5304C60.0536 77.8643 58.6792 76.7364 57.7122 75.2893C56.7453 73.8421 56.2292 72.1407 56.2292 70.4003C56.2292 68.0664 57.1563 65.828 58.8066 64.1777C60.4569 62.5274 62.6953 61.6003 65.0292 61.6003Z" fill="#FFB400"/>
<path d="M47.4375 99.7334H100.238V105.6H47.4375V99.7334Z" fill="#0E2B72"/>
<path d="M94.3672 85.0664H129.567V90.9331H94.3672V85.0664Z" fill="#0E2B72"/>
<path d="M94.3672 73.3335H129.567V79.2002H94.3672V73.3335Z" fill="#0E2B72"/>
<path d="M94.3672 61.6001H129.567V67.4668H94.3672V61.6001Z" fill="#0E2B72"/>
<path d="M94.3672 49.8665H129.567V55.7331H94.3672V49.8665Z" fill="#0E2B72"/>
<path d="M47.4375 111.466H100.238V117.333H47.4375V111.466Z" fill="#0E2B72"/>
<path d="M47.4375 123.2H100.238V129.067H47.4375V123.2Z" fill="#0E2B72"/>
<path d="M47.4375 134.934H100.238V140.8H47.4375V134.934Z" fill="#0E2B72"/>
<path d="M73.8276 29.3333H79.6943V35.2C79.6943 36.7559 80.3124 38.2481 81.4126 39.3484C82.5128 40.4486 84.005 41.0667 85.5609 41.0667H91.4276C92.9835 41.0667 94.4758 40.4486 95.576 39.3484C96.6762 38.2481 97.2943 36.7559 97.2943 35.2V29.3333H103.161C104.717 29.3333 106.209 28.7152 107.309 27.615C108.41 26.5148 109.028 25.0226 109.028 23.4667V17.6C109.028 16.0441 108.41 14.5519 107.309 13.4516C106.209 12.3514 104.717 11.7333 103.161 11.7333H97.2943V5.86667C97.2943 4.31073 96.6762 2.81852 95.576 1.71831C94.4758 0.618093 92.9835 0 91.4276 0H85.5609C84.005 0 82.5128 0.618093 81.4126 1.71831C80.3124 2.81852 79.6943 4.31073 79.6943 5.86667V11.7333H73.8276C72.2717 11.7333 70.7795 12.3514 69.6792 13.4516C68.579 14.5519 67.9609 16.0441 67.9609 17.6V23.4667C67.9609 25.0226 68.579 26.5148 69.6792 27.615C70.7795 28.7152 72.2717 29.3333 73.8276 29.3333ZM73.8276 17.6H82.6276C83.4056 17.6 84.1517 17.291 84.7018 16.7408C85.2519 16.1907 85.5609 15.4446 85.5609 14.6667V5.86667H91.4276V14.6667C91.4276 15.4446 91.7367 16.1907 92.2868 16.7408C92.8369 17.291 93.583 17.6 94.3609 17.6H103.161V23.4667H94.3609C93.583 23.4667 92.8369 23.7757 92.2868 24.3258C91.7367 24.8759 91.4276 25.622 91.4276 26.4V35.2H85.5609V26.4C85.5609 25.622 85.2519 24.8759 84.7018 24.3258C84.1517 23.7757 83.4056 23.4667 82.6276 23.4667H73.8276V17.6Z" fill="#0E2B72"/>
<path d="M141.298 23.4665V90.9331H147.165V23.4665C147.16 18.8001 145.305 14.3262 142.005 11.0265C138.705 7.72689 134.231 5.87111 129.565 5.86646H114.898V11.7331H129.565C132.677 11.7331 135.661 12.9693 137.862 15.1697C140.062 17.3702 141.298 20.3546 141.298 23.4665Z" fill="#0E2B72"/>
</svg>
