<svg width="88" height="88" viewBox="0 0 88 88" fill="none" xmlns="http://www.w3.org/2000/svg">
<g clip-path="url(#clip0_11271_80674)">
<path d="M2.93333 11.7333H10.1009L54.5497 1.69693C54.7846 1.19153 55.1587 0.763505 55.628 0.462977C56.0974 0.16245 56.6427 0.00185646 57.2 0L63.0667 0C63.672 0.00269905 64.2617 0.192612 64.7548 0.54369C65.248 0.894769 65.6204 1.38982 65.8211 1.96093L83.9696 11.7333H85.0667C85.8446 11.7333 86.5907 12.0424 87.1408 12.5925C87.691 13.1426 88 13.8887 88 14.6667V17.6C88 18.378 87.691 19.1241 87.1408 19.6742C86.5907 20.2243 85.8446 20.5333 85.0667 20.5333H68.9333V24.9333C68.9296 25.8401 68.6457 26.7236 68.1207 27.4629C67.5956 28.2022 66.8549 28.7612 66 29.0635V70.4C67.167 70.4 68.2861 70.8636 69.1113 71.6887C69.9364 72.5139 70.4 73.633 70.4 74.8V76.5365C71.2549 76.8388 71.9956 77.3978 72.5207 78.1371C73.0457 78.8764 73.3296 79.7599 73.3333 80.6667V85.0667C73.3333 85.8446 73.0243 86.5907 72.4742 87.1409C71.9241 87.691 71.178 88 70.4 88H49.8667C49.0887 88 48.3426 87.691 47.7925 87.1409C47.2424 86.5907 46.9333 85.8446 46.9333 85.0667V80.6667C46.9371 79.7599 47.2209 78.8764 47.746 78.1371C48.2711 77.3978 49.0117 76.8388 49.8667 76.5365V74.8C49.8667 73.633 50.3302 72.5139 51.1554 71.6887C51.9806 70.8636 53.0997 70.4 54.2667 70.4V29.3333C52.7107 29.3333 51.2185 28.7152 50.1183 27.615C49.0181 26.5148 48.4 25.0226 48.4 23.4667V20.5333H14.6667V26.4H16.1333C16.9113 26.4 17.6574 26.709 18.2075 27.2592C18.7576 27.8093 19.0667 28.5554 19.0667 29.3333V35.2C19.0667 35.978 18.7576 36.7241 18.2075 37.2742C17.6574 37.8243 16.9113 38.1333 16.1333 38.1333H10.2667C9.48869 38.1333 8.74259 37.8243 8.19248 37.2742C7.64238 36.7241 7.33333 35.978 7.33333 35.2V29.3333C7.33333 28.5554 7.64238 27.8093 8.19248 27.2592C8.74259 26.709 9.48869 26.4 10.2667 26.4H11.7333V20.5333H2.93333C2.15536 20.5333 1.40926 20.2243 0.859146 19.6742C0.309044 19.1241 0 18.378 0 17.6V14.6667C0 13.8887 0.309044 13.1426 0.859146 12.5925C1.40926 12.0424 2.15536 11.7333 2.93333 11.7333ZM10.2667 35.2H16.1333V29.3333H10.2667V35.2ZM57.2 11.7333H54.2667C53.4887 11.7333 52.7426 12.0424 52.1925 12.5925C51.6424 13.1426 51.3333 13.8887 51.3333 14.6667V19.0667H55.7333C56.1223 19.0667 56.4954 18.9121 56.7704 18.6371C57.0455 18.362 57.2 17.989 57.2 17.6V11.7333ZM54.2667 8.8V4.76813L23.4227 11.7333H49.2155C49.7264 10.8445 50.462 10.1056 51.3486 9.5908C52.2351 9.07595 53.2415 8.80324 54.2667 8.8ZM63.0667 2.93333H57.2V8.8H63.0667V2.93333ZM66 5.38853V9.06987C66.6134 9.28899 67.1706 9.64158 67.6312 10.1022C68.0918 10.5628 68.4443 11.1199 68.6635 11.7333H77.7817L66 5.38853ZM85.0667 17.6V14.6667H68.9333V17.6H85.0667ZM70.4 85.0667V80.6667C70.4 80.2777 70.2455 79.9046 69.9704 79.6296C69.6954 79.3545 69.3223 79.2 68.9333 79.2H51.3333C50.9443 79.2 50.5713 79.3545 50.2962 79.6296C50.0212 79.9046 49.8667 80.2777 49.8667 80.6667V85.0667H70.4ZM52.8 74.8V76.2667H67.4667V74.8C67.4667 74.411 67.3121 74.038 67.0371 73.7629C66.762 73.4879 66.389 73.3333 66 73.3333H54.2667C53.8777 73.3333 53.5046 73.4879 53.2296 73.7629C52.9545 74.038 52.8 74.411 52.8 74.8ZM57.2 70.4H63.0667V29.3333H57.2V70.4ZM54.2667 26.4H64.5333C64.9223 26.4 65.2954 26.2455 65.5704 25.9704C65.8455 25.6954 66 25.3223 66 24.9333V13.2C66 12.811 65.8455 12.438 65.5704 12.1629C65.2954 11.8879 64.9223 11.7333 64.5333 11.7333H60.1333V17.6C60.1333 18.767 59.6698 19.8861 58.8446 20.7113C58.0194 21.5364 56.9003 22 55.7333 22H51.3333V23.4667C51.3333 24.2446 51.6424 24.9907 52.1925 25.5408C52.7426 26.091 53.4887 26.4 54.2667 26.4ZM2.93333 17.6H48.4V14.6667H2.93333V17.6Z" fill="#0E2B72"/>
<path d="M2.93333 39.6001H5.86666C6.64463 39.6001 7.39074 39.9091 7.94085 40.4593C8.49096 41.0094 8.8 41.7555 8.8 42.5334V44.0001H17.6V42.5334C17.6 41.7555 17.909 41.0094 18.4592 40.4593C19.0093 39.9091 19.7554 39.6001 20.5333 39.6001H23.4667C24.2446 39.6001 24.9907 39.9091 25.5408 40.4593C26.091 41.0094 26.4 41.7555 26.4 42.5334V55.7334H35.2V54.2668C35.2 53.4888 35.509 52.7427 36.0592 52.1926C36.6093 51.6425 37.3554 51.3334 38.1333 51.3334H41.0667C41.8446 51.3334 42.5907 51.6425 43.1408 52.1926C43.691 52.7427 44 53.4888 44 54.2668V85.0668C44 85.8447 43.691 86.5908 43.1408 87.1409C42.5907 87.6911 41.8446 88.0001 41.0667 88.0001H2.93333C2.15536 88.0001 1.40926 87.6911 0.85915 87.1409C0.309044 86.5908 0 85.8447 0 85.0668V42.5334C0 41.7555 0.309044 41.0094 0.85915 40.4593C1.40926 39.9091 2.15536 39.6001 2.93333 39.6001ZM2.93333 85.0668H41.0667V54.2668H38.1333V57.2001C38.1333 57.5891 37.9788 57.9621 37.7038 58.2372C37.4287 58.5122 37.0557 58.6668 36.6667 58.6668H24.9333C24.5443 58.6668 24.1713 58.5122 23.8962 58.2372C23.6212 57.9621 23.4667 57.5891 23.4667 57.2001V42.5334H20.5333V45.4668C20.5333 45.8557 20.3788 46.2288 20.1038 46.5039C19.8287 46.7789 19.4557 46.9334 19.0667 46.9334H7.33333C6.94435 46.9334 6.5713 46.7789 6.29624 46.5039C6.02119 46.2288 5.86666 45.8557 5.86666 45.4668V42.5334H2.93333V85.0668Z" fill="#0E2B72"/>
<path d="M26.4034 61.6001H35.2034C35.9814 61.6001 36.7275 61.9091 37.2776 62.4592C37.8277 63.0094 38.1367 63.7555 38.1367 64.5334V67.4668C38.1367 68.2447 37.8277 68.9908 37.2776 69.5409C36.7275 70.0911 35.9814 70.4001 35.2034 70.4001H26.4034C25.6254 70.4001 24.8793 70.0911 24.3292 69.5409C23.7791 68.9908 23.4701 68.2447 23.4701 67.4668V64.5334C23.4701 63.7555 23.7791 63.0094 24.3292 62.4592C24.8793 61.9091 25.6254 61.6001 26.4034 61.6001ZM35.2034 67.4668V64.5334H26.4034V67.4668H35.2034Z" fill="#FFB400"/>
<path d="M26.4034 73.3333H35.2034C35.9814 73.3333 36.7275 73.6423 37.2776 74.1924C37.8277 74.7425 38.1367 75.4886 38.1367 76.2666V79.1999C38.1367 79.9779 37.8277 80.724 37.2776 81.2741C36.7275 81.8242 35.9814 82.1333 35.2034 82.1333H26.4034C25.6254 82.1333 24.8793 81.8242 24.3292 81.2741C23.7791 80.724 23.4701 79.9779 23.4701 79.1999V76.2666C23.4701 75.4886 23.7791 74.7425 24.3292 74.1924C24.8793 73.6423 25.6254 73.3333 26.4034 73.3333ZM35.2034 79.1999V76.2666H26.4034V79.1999H35.2034Z" fill="#FFB400"/>
<path d="M8.80182 61.6001H17.6018C18.3798 61.6001 19.1259 61.9091 19.676 62.4592C20.2261 63.0094 20.5352 63.7555 20.5352 64.5334V67.4668C20.5352 68.2447 20.2261 68.9908 19.676 69.5409C19.1259 70.0911 18.3798 70.4001 17.6018 70.4001H8.80182C8.02385 70.4001 7.27775 70.0911 6.72764 69.5409C6.17753 68.9908 5.86849 68.2447 5.86849 67.4668V64.5334C5.86849 63.7555 6.17753 63.0094 6.72764 62.4592C7.27775 61.9091 8.02385 61.6001 8.80182 61.6001ZM17.6018 67.4668V64.5334H8.80182V67.4668H17.6018Z" fill="#FFB400"/>
<path d="M8.80182 49.8665H17.6018C18.3798 49.8665 19.1259 50.1755 19.676 50.7256C20.2261 51.2757 20.5352 52.0218 20.5352 52.7998V55.7331C20.5352 56.5111 20.2261 57.2572 19.676 57.8073C19.1259 58.3574 18.3798 58.6665 17.6018 58.6665H8.80182C8.02385 58.6665 7.27775 58.3574 6.72764 57.8073C6.17753 57.2572 5.86849 56.5111 5.86849 55.7331V52.7998C5.86849 52.0218 6.17753 51.2757 6.72764 50.7256C7.27775 50.1755 8.02385 49.8665 8.80182 49.8665ZM17.6018 55.7331V52.7998H8.80182V55.7331H17.6018Z" fill="#FFB400"/>
<path d="M8.80182 73.3333H17.6018C18.3798 73.3333 19.1259 73.6423 19.676 74.1924C20.2261 74.7425 20.5352 75.4886 20.5352 76.2666V79.1999C20.5352 79.9779 20.2261 80.724 19.676 81.2741C19.1259 81.8242 18.3798 82.1333 17.6018 82.1333H8.80182C8.02385 82.1333 7.27775 81.8242 6.72764 81.2741C6.17753 80.724 5.86849 79.9779 5.86849 79.1999V76.2666C5.86849 75.4886 6.17753 74.7425 6.72764 74.1924C7.27775 73.6423 8.02385 73.3333 8.80182 73.3333ZM17.6018 79.1999V76.2666H8.80182V79.1999H17.6018Z" fill="#FFB400"/>
</g>
<defs>
<clipPath id="clip0_11271_80674">
<rect width="88" height="88" fill="white" transform="matrix(-1 0 0 1 88 0)"/>
</clipPath>
</defs>
</svg>
