<svg width="100" height="100" viewBox="0 0 100 100" fill="none" xmlns="http://www.w3.org/2000/svg">
<path d="M66.9181 45.3001C62.5941 40.7881 56.5781 37.7801 49.9981 37.7801C43.2301 37.7801 37.2141 40.6001 33.0781 45.3001C33.8301 23.1161 41.1621 5.82007 49.9981 5.82007C58.8341 6.00807 66.1661 23.3041 66.9181 45.3001Z" stroke="#0E2B72" stroke-width="3.76" stroke-miterlimit="10"/>
<path d="M93.2378 43.7961C89.8538 41.7281 85.7178 40.4121 81.2058 40.4121C75.7538 40.4121 70.8658 42.2921 66.9178 45.4881C62.7818 40.7881 56.7658 37.9681 49.9978 37.9681C43.2298 37.9681 37.2138 40.7881 33.0778 45.4881C29.1298 42.2921 24.2418 40.4121 18.7898 40.4121C14.4658 40.4121 10.3298 41.7281 6.75781 43.7961C9.57781 22.3641 27.8138 6.00806 49.9978 6.00806C72.1818 6.00806 90.4178 22.3641 93.2378 43.7961Z" stroke="#0E2B72" stroke-width="3.76" stroke-miterlimit="10"/>
<path d="M72.557 75.756V67.484L66.541 66.92C66.165 65.604 65.601 64.288 65.037 63.16L68.797 58.648L62.969 52.82L58.457 56.58C57.329 55.828 56.013 55.452 54.697 55.076L54.133 49.248H45.861L45.297 55.076C43.981 55.452 42.665 56.016 41.537 56.58L37.025 52.82L31.197 58.648L34.957 63.16C34.205 64.288 33.641 65.604 33.453 66.92L27.625 67.484V75.756L33.453 76.32C33.829 77.636 34.393 78.952 34.957 80.08L31.197 84.592L37.025 90.42L41.537 86.66C42.665 87.412 43.981 87.788 45.297 88.164L45.861 93.992H54.133L54.697 88.164C56.013 87.788 57.329 87.224 58.457 86.66L62.969 90.42L68.797 84.592L65.037 80.08C65.789 78.952 66.165 77.636 66.541 76.32L72.557 75.756Z" stroke="#0E2B72" stroke-width="3.76" stroke-miterlimit="10"/>
<path d="M49.9992 81.584C55.5021 81.584 59.9632 77.123 59.9632 71.62C59.9632 66.117 55.5021 61.656 49.9992 61.656C44.4962 61.656 40.0352 66.117 40.0352 71.62C40.0352 77.123 44.4962 81.584 49.9992 81.584Z" stroke="#0E2B72" stroke-width="3.76" stroke-miterlimit="10"/>
<path d="M49.9992 81.584C55.5021 81.584 59.9632 77.123 59.9632 71.62C59.9632 66.117 55.5021 61.656 49.9992 61.656C44.4962 61.656 40.0352 66.117 40.0352 71.62C40.0352 77.123 44.4962 81.584 49.9992 81.584Z" stroke="#FFB400" stroke-width="3.76" stroke-miterlimit="10"/>
</svg>
