<svg width="100" height="100" viewBox="0 0 100 100" fill="none" xmlns="http://www.w3.org/2000/svg">
<g clip-path="url(#clip0_11269_80362)">
<path d="M85.6911 39.2842C84.9184 39.2842 84.293 39.9094 84.293 40.6823V47.3819C84.293 48.1546 84.9182 48.7801 85.6911 48.7801C86.464 48.7801 87.0893 48.1544 87.0893 47.3819V40.6823C87.0893 39.9094 86.4638 39.2842 85.6911 39.2842Z" fill="#0E2B72"/>
<path d="M85.6911 66.5331C84.9184 66.5331 84.2929 67.1584 84.2929 67.9313V78.7008H22.7768V36.758H61.6585C62.4312 36.758 63.0567 36.1327 63.0567 35.3598C63.0567 34.5869 62.4314 33.9617 61.6585 33.9617H21.3786C20.6059 33.9617 19.9805 34.5869 19.9805 35.3598V80.0988C19.9805 80.8715 20.6057 81.497 21.3786 81.497H85.6911C86.4638 81.497 87.0892 80.8717 87.0892 80.0988V67.9313C87.0892 67.1584 86.4638 66.5331 85.6911 66.5331Z" fill="#0E2B72"/>
<path d="M82.8935 73.1084H78.6992V77.3027H82.8935V73.1084Z" fill="#0E2B72"/>
<path d="M68.913 73.1084H64.7188V77.3027H68.913V73.1084Z" fill="#0E2B72"/>
<path d="M54.9326 38.1558H50.7383V42.35H54.9326V38.1558Z" fill="#0E2B72"/>
<path d="M54.9326 73.1084H50.7383V77.3027H54.9326V73.1084Z" fill="#0E2B72"/>
<path d="M40.9521 38.1558H36.7578V42.35H40.9521V38.1558Z" fill="#0E2B72"/>
<path d="M40.9521 73.1084H36.7578V77.3027H40.9521V73.1084Z" fill="#0E2B72"/>
<path d="M84.2929 46.5452H21.3786C20.6059 46.5452 19.9805 47.1704 19.9805 47.9433V67.5166C19.9805 68.2893 20.6057 68.9148 21.3786 68.9148H84.2929C89.6888 68.9148 94.0796 64.5251 94.0796 59.1309V56.329C94.0796 50.9348 89.689 46.5452 84.2929 46.5452ZM91.2835 59.1309C91.2835 62.9838 88.1472 66.1186 84.2931 66.1186H22.7768V49.3415H84.2929C88.147 49.3415 91.2833 52.4763 91.2833 56.3292V59.1309H91.2835Z" fill="#0E2B72"/>
<path d="M81.4943 50.7395C77.6402 50.7395 74.5039 53.8758 74.5039 57.7299C74.5039 61.584 77.6402 64.7203 81.4943 64.7203C85.3484 64.7203 88.4847 61.584 88.4847 57.7299C88.4847 53.8758 85.3484 50.7395 81.4943 50.7395ZM81.4943 61.9244C79.1815 61.9244 77.3 60.0429 77.3 57.7301C77.3 55.4173 79.1815 53.5358 81.4943 53.5358C83.8071 53.5358 85.6886 55.4173 85.6886 57.7301C85.6886 60.0429 83.8071 61.9244 81.4943 61.9244Z" fill="#FFB400"/>
<path d="M21.4486 29.7676H7.39816C6.62546 29.7676 6 30.3928 6 31.1657C6 31.9387 6.62525 32.5639 7.39816 32.5639H20.0507V84.3766C20.0507 85.1493 20.6759 85.7748 21.4488 85.7748C22.2217 85.7748 22.847 85.1496 22.847 84.3766V31.1657C22.8468 30.393 22.2213 29.7676 21.4486 29.7676Z" fill="#0E2B72"/>
<path d="M21.3769 45.1472H17.1895C14.8724 45.1472 12.9883 47.0246 12.9883 49.3306V59.1391C12.9883 61.4453 14.8726 63.3225 17.1895 63.3225H21.3769C22.1496 63.3225 22.775 62.6973 22.775 61.9244V46.5454C22.775 45.7725 22.1498 45.1472 21.3769 45.1472ZM19.9789 60.5262H17.1895C16.4154 60.5262 15.7844 59.9036 15.7844 59.1389V49.3306C15.7844 48.5659 16.4154 47.9433 17.1895 47.9433H19.9787L19.9789 60.5262Z" fill="#0E2B72"/>
<path d="M78.7011 78.7012H54.9333C54.1606 78.7012 53.5352 79.3264 53.5352 80.0993V83.5946C53.5352 86.2927 55.7361 88.4879 58.4407 88.4879H75.1933C77.8979 88.4879 80.0988 86.2925 80.0988 83.5946V80.0993C80.099 79.3264 79.4738 78.7012 78.7011 78.7012ZM77.3029 83.5944C77.3029 84.7509 76.3567 85.6916 75.1935 85.6916H58.4409C57.2777 85.6916 56.3315 84.7509 56.3315 83.5944V81.4973H77.3029V83.5944Z" fill="#0E2B72"/>
<path d="M45.149 78.7007H32.5661C31.7934 78.7007 31.168 79.3259 31.168 80.0988V83.5942C31.168 86.2922 33.3675 88.4874 36.0711 88.4874H41.6443C44.3474 88.4874 46.5469 86.292 46.5469 83.5942V80.0988C46.5469 79.3259 45.9217 78.7007 45.149 78.7007ZM43.7504 83.5939C43.7504 84.7504 42.8057 85.6911 41.6439 85.6911H36.0707C34.9088 85.6911 33.9641 84.7504 33.9641 83.5939V81.4968H43.7504V83.5939Z" fill="#0E2B72"/>
<path d="M67.5133 50.7395H59.1247C58.352 50.7395 57.7266 51.3648 57.7266 52.1377C57.7266 52.9106 58.3518 53.5358 59.1247 53.5358H67.5133C68.286 53.5358 68.9115 52.9106 68.9115 52.1377C68.9115 51.3648 68.2862 50.7395 67.5133 50.7395Z" fill="#0E2B72"/>
<path d="M67.5133 61.9238H59.1247C58.352 61.9238 57.7266 62.5491 57.7266 63.322C57.7266 64.0949 58.3518 64.7202 59.1247 64.7202H67.5133C68.286 64.7202 68.9115 64.0949 68.9115 63.322C68.9115 62.5491 68.2862 61.9238 67.5133 61.9238Z" fill="#0E2B72"/>
<path d="M75.9021 11.5928C66.6505 11.5928 59.125 19.1183 59.125 28.3699C59.125 37.6215 66.6505 45.1471 75.9021 45.1471C85.1537 45.1471 92.6793 37.6215 92.6793 28.3699C92.6793 19.1183 85.1537 11.5928 75.9021 11.5928ZM75.9021 42.3507C68.1933 42.3507 61.9211 36.0786 61.9211 28.3697C61.9211 20.6609 68.1933 14.3887 75.9021 14.3887C83.611 14.3887 89.8832 20.6611 89.8832 28.3699C89.8832 36.0786 83.611 42.3507 75.9021 42.3507Z" fill="#0E2B72"/>
<path d="M75.4098 32.2805C74.7802 32.2805 74.2959 32.4347 73.9571 32.7405C73.6184 33.0491 73.4492 33.5404 73.4492 34.2179C73.4492 34.887 73.6188 35.3812 73.9571 35.7007C74.2955 36.0201 74.7802 36.1799 75.4098 36.1799C76.0242 36.1799 76.5005 36.0201 76.8393 35.7007C77.178 35.3812 77.3486 34.887 77.3486 34.2179C77.3486 33.5408 77.1889 33.0495 76.8694 32.7405C76.5499 32.4347 76.0637 32.2805 75.4098 32.2805Z" fill="#FFB400"/>
<path d="M77.2708 21.3156C77.2204 21.0016 77.1233 20.719 76.9814 20.4718C76.8391 20.2234 76.6427 20.0213 76.3914 19.8683C76.1386 19.7155 75.8122 19.6389 75.4096 19.6389C75.0084 19.6389 74.679 19.7126 74.4239 19.863C74.1672 20.0133 73.9692 20.2101 73.8273 20.453C73.6849 20.6988 73.5868 20.9773 73.5309 21.2925C73.4765 21.6081 73.4492 21.9304 73.4492 22.2605V25.1441L74.0636 28.9724C74.0636 29.2237 74.0773 29.4695 74.1046 29.7044C74.1318 29.9417 74.193 30.1521 74.2875 30.3376C74.3819 30.5217 74.5181 30.6706 74.6956 30.7853C74.8732 30.9 75.111 30.9573 75.4098 30.9573C75.71 30.9573 75.9478 30.9 76.1253 30.7853C76.3029 30.6706 76.4378 30.5217 76.5323 30.3376C76.6277 30.1521 76.6877 29.9419 76.7164 29.7044C76.7436 29.4695 76.7573 29.2237 76.7573 28.9724L77.349 25.1898V22.2849C77.3486 21.9546 77.3224 21.631 77.2708 21.3156Z" fill="#FFB400"/>
</g>
<defs>
<clipPath id="clip0_11269_80362">
<rect width="88.08" height="88.08" fill="white" transform="translate(6 6)"/>
</clipPath>
</defs>
</svg>
