<svg width="87" height="87" viewBox="0 0 87 87" fill="none" xmlns="http://www.w3.org/2000/svg">
<g clip-path="url(#clip0_11271_80781)">
<path d="M81.1114 30.322H79.7769V22.8742C79.7769 20.435 77.7908 18.4504 75.3497 18.4504H48.6497C46.2086 18.4504 44.2228 20.435 44.2228 22.8827C44.2228 22.8915 44.2228 22.9004 44.2229 22.9088L44.2233 32.0782C44.2233 33.0165 44.984 33.7774 45.9225 33.7774H48.9563C50.3306 33.7774 51.4489 34.8933 51.4489 36.2649C51.4489 37.6365 50.3306 38.7524 48.9563 38.7524H45.9225C44.984 38.7524 44.2233 39.5133 44.2233 40.4516V49.59C44.2233 49.5998 44.2233 49.6097 44.2234 49.6196C44.2306 50.0272 44.2938 50.4221 44.4058 50.7964C44.0207 50.6867 43.6144 50.6277 43.1946 50.6275H34.0364C33.098 50.6275 32.3372 51.3884 32.3372 52.3267V55.3532C32.3372 56.7247 31.219 57.8407 29.8446 57.8407C28.4703 57.8407 27.3522 56.7248 27.3522 55.3532V52.3267C27.3522 51.3884 26.5915 50.6275 25.653 50.6275H16.4934C14.2455 50.6284 12.3556 52.3133 12.0972 54.5469C12.0897 54.6119 12.0859 54.6771 12.0859 54.7422V82.0427C12.0859 82.1081 12.0897 82.1733 12.0972 82.2381C12.3554 84.4685 14.246 86.1502 16.4947 86.1502H43.1947C44.2416 86.1502 45.2047 85.7852 45.9634 85.176C46.7111 85.7505 47.6441 86.0933 48.6499 86.0933H75.3499C77.791 86.0933 79.777 84.1088 79.777 81.6695V76.5291C79.777 75.5907 79.0163 74.8298 78.0778 74.8298C77.1393 74.8298 76.3786 75.5907 76.3786 76.5291V81.6695C76.3786 82.2349 75.9171 82.6948 75.3499 82.6948H48.6497C48.0961 82.6948 47.6373 82.2493 47.6217 81.6996V74.2786H48.9563C52.2047 74.2786 54.8473 71.6382 54.8473 68.3927C54.8473 65.1472 52.2047 62.5068 48.9563 62.5068H47.6217V55.0589C47.6217 55.0384 47.6215 55.018 47.6212 54.9976C47.6236 54.43 48.0841 53.9692 48.6497 53.9692H56.1086V55.2963C56.1086 58.542 58.7512 61.1824 61.9996 61.1824C65.248 61.1824 67.8907 58.542 67.8907 55.2963V53.9692H75.3496C75.9167 53.9692 76.3783 54.4326 76.3783 55.002V61.1659C76.3783 62.1042 77.139 62.8651 78.0775 62.8651C79.016 62.8651 79.7767 62.1042 79.7767 61.1659V55.002C79.7767 53.9724 79.4241 53.0238 78.8335 52.2707C79.4241 51.5181 79.7767 50.5703 79.7767 49.5416V42.0937H81.1113C84.3597 42.0937 87.0023 39.4533 87.0023 36.2078C87.0023 32.9623 84.3598 30.322 81.1114 30.322ZM48.9563 65.9052C50.3306 65.9052 51.4489 67.0211 51.4489 68.3927C51.4489 69.7643 50.3306 70.8802 48.9563 70.8802H45.9225C44.984 70.8802 44.2233 71.6411 44.2233 72.5794V81.7265C44.2233 82.2918 43.7618 82.7518 43.1946 82.7518H16.4947C15.9974 82.7518 15.5755 82.3997 15.4844 81.9212V54.8637C15.5756 54.3813 15.9975 54.0261 16.4947 54.026H23.9538V55.3532C23.9538 58.5987 26.5964 61.2391 29.8446 61.2391C33.093 61.2391 35.7357 58.5987 35.7357 55.3532V54.026H43.1949C43.7553 54.0261 44.2124 54.4788 44.2231 55.039L44.2233 64.206C44.2233 65.1443 44.984 65.9052 45.9225 65.9052H48.9563ZM81.1114 38.6954H78.0776C77.1392 38.6954 76.3784 39.4564 76.3784 40.3947V49.5417C76.3784 50.1093 75.9169 50.5709 75.3497 50.5709H66.1916C65.2531 50.5709 64.4924 51.3319 64.4924 52.2702V55.2965C64.4924 56.6681 63.3741 57.7841 61.9998 57.7841C60.6255 57.7841 59.5072 56.6682 59.5072 55.2965V52.2702C59.5072 51.3319 58.7465 50.5709 57.808 50.5709H48.6499C48.0963 50.5709 47.6375 50.1237 47.6219 49.5718V42.1508H48.9564C52.2048 42.1508 54.8475 39.5104 54.8475 36.2649C54.8475 33.0194 52.2048 30.379 48.9564 30.379H47.6219V22.9311L47.6214 22.8742C47.6214 22.3089 48.0827 21.8489 48.6499 21.8489H75.3499C75.9171 21.8489 76.3786 22.3089 76.3786 22.8742V32.0212C76.3786 32.9596 77.1393 33.7205 78.0778 33.7205H81.1116C82.4859 33.7205 83.6042 34.8362 83.6042 36.208C83.604 37.5794 82.4858 38.6954 81.1114 38.6954Z" fill="#0E2B72"/>
<path d="M78.0762 70.5784C77.3665 70.5784 76.7158 70.1181 76.4764 69.451C76.2401 68.7924 76.4435 68.0359 76.977 67.5834C77.5337 67.1114 78.3525 67.0505 78.9728 67.4357C79.5659 67.8041 79.8791 68.5261 79.7413 69.2106C79.5836 69.9944 78.8776 70.5784 78.0762 70.5784Z" fill="#0E2B72"/>
<path d="M17.4771 23.6916C17.0647 23.6916 16.6644 23.5414 16.3524 23.2662L12.8401 20.1647C12.1366 19.5437 12.07 18.4696 12.6911 17.7663C13.3123 17.063 14.3862 16.9964 15.0896 17.6173L17.2389 19.5153L21.8496 13.5215C22.4219 12.7776 23.4886 12.6384 24.2324 13.2107C24.9761 13.7828 25.1153 14.8498 24.5432 15.5933L18.8239 23.0284C18.5371 23.4014 18.1082 23.6388 17.6397 23.6838C17.5855 23.6889 17.5312 23.6916 17.4771 23.6916Z" fill="#FFB400"/>
<path d="M17.7589 43.5814C14.5105 43.5814 11.8679 40.941 11.8679 37.6953V36.3682H4.40879C2.16022 36.3682 0.269666 34.6848 0.0112148 32.4524C0.00373828 32.3878 0 32.3225 0 32.2573V4.95696C0 4.89154 0.00373828 4.82629 0.0112148 4.76155C0.269496 2.53133 2.16005 0.849609 4.40879 0.849609H31.1088C33.5499 0.849609 35.5358 2.83413 35.5358 5.27336V12.7212H36.8703C40.1186 12.7212 42.7612 15.3616 42.7612 18.6071C42.7612 21.8526 40.1186 24.493 36.8703 24.493H35.5358V31.9409C35.5358 34.3822 33.5497 36.3685 31.1088 36.3685H23.6497V37.6956C23.6497 40.941 21.0071 43.5814 17.7589 43.5814ZM3.39844 32.1358C3.48969 32.6163 3.91143 32.9699 4.40879 32.9699H13.5669C14.5054 32.9699 15.2661 33.7309 15.2661 34.6692V37.6955C15.2661 39.0671 16.3844 40.1831 17.7587 40.1831C19.133 40.1831 20.2511 39.0672 20.2511 37.6955V34.6692C20.2511 33.7309 21.0119 32.9699 21.9503 32.9699H31.1086C31.6758 32.9699 32.1372 32.5083 32.1372 31.9407V22.7937C32.1372 21.8554 32.8979 21.0944 33.8364 21.0944H36.8702C38.2445 21.0944 39.3626 19.9787 39.3626 18.607C39.3626 17.2355 38.2445 16.1195 36.8702 16.1195H33.8365C32.8981 16.1195 32.1373 15.3586 32.1373 14.4202V5.27336C32.1373 4.70803 31.676 4.24805 31.1088 4.24805H4.40879C3.91126 4.24805 3.48952 4.60013 3.39844 5.07863V32.1358Z" fill="#0E2B72"/>
</g>
<defs>
<clipPath id="clip0_11271_80781">
<rect width="87" height="87" fill="white"/>
</clipPath>
</defs>
</svg>
