<svg width="54" height="54" viewBox="0 0 54 54" fill="none" xmlns="http://www.w3.org/2000/svg">
<path d="M51.4688 33.75H42.1875C42.0767 33.75 41.967 33.7718 41.8646 33.8142C41.7622 33.8566 41.6692 33.9188 41.5909 33.9971C41.5125 34.0755 41.4504 34.1685 41.408 34.2709C41.3656 34.3732 41.3437 34.4829 41.3438 34.5938V35.7249L40.5 36.0865V24.4688C40.5 24.3579 40.4782 24.2482 40.4358 24.1459C40.3934 24.0435 40.3312 23.9505 40.2529 23.8721C40.1745 23.7938 40.0815 23.7316 39.9791 23.6892C39.8768 23.6468 39.7671 23.625 39.6562 23.625H14.3438C14.2329 23.625 14.1232 23.6468 14.0209 23.6892C13.9185 23.7316 13.8255 23.7938 13.7471 23.8721C13.6688 23.9505 13.6066 24.0435 13.5642 24.1459C13.5218 24.2482 13.5 24.3579 13.5 24.4688V34.6531C13.1516 34.6143 12.8014 34.5944 12.4509 34.5938H10.9688V33.75C10.9688 33.6392 10.9469 33.5295 10.9045 33.4271C10.8621 33.3247 10.8 33.2317 10.7216 33.1534C10.6433 33.075 10.5503 33.0129 10.4479 32.9705C10.3455 32.9281 10.2358 32.9062 10.125 32.9062H2.53125C2.42045 32.9062 2.31073 32.9281 2.20836 32.9705C2.10599 33.0129 2.01297 33.075 1.93462 33.1534C1.85627 33.2317 1.79412 33.3247 1.75172 33.4271C1.70932 33.5295 1.6875 33.6392 1.6875 33.75V43.875C1.6875 43.9858 1.70932 44.0955 1.75172 44.1979C1.79412 44.3003 1.85627 44.3933 1.93462 44.4716C2.01297 44.55 2.10599 44.6121 2.20836 44.6545C2.31073 44.6969 2.42045 44.7188 2.53125 44.7188H10.125C10.2358 44.7188 10.3455 44.6969 10.4479 44.6545C10.5503 44.6121 10.6433 44.55 10.7216 44.4716C10.8 44.3933 10.8621 44.3003 10.9045 44.1979C10.9469 44.0955 10.9688 43.9858 10.9688 43.875V43.0312H11.5364C13.8332 44.6718 16.5838 45.5565 19.4062 45.5625H22.9264C22.7912 45.9443 22.7496 46.3529 22.8051 46.7541C22.8607 47.1552 23.0117 47.5372 23.2454 47.8679C23.4792 48.1986 23.789 48.4683 24.1487 48.6544C24.5084 48.8406 24.9075 48.9376 25.3124 48.9375H33.8453C35.3235 48.939 36.784 48.6161 38.1237 47.9915C39.4634 47.3669 40.6498 46.4559 41.5989 45.3227C41.7562 45.4766 41.9675 45.5627 42.1875 45.5625H51.4688C51.5796 45.5625 51.6893 45.5407 51.7916 45.4983C51.894 45.4559 51.987 45.3937 52.0654 45.3154C52.1437 45.237 52.2059 45.144 52.2483 45.0416C52.2907 44.9393 52.3125 44.8296 52.3125 44.7188V34.5938C52.3125 34.4829 52.2907 34.3732 52.2483 34.2709C52.2059 34.1685 52.1437 34.0755 52.0654 33.9971C51.987 33.9188 51.894 33.8566 51.7916 33.8142C51.6893 33.7718 51.5796 33.75 51.4688 33.75ZM9.28125 43.0312H3.375V34.5938H9.28125V43.0312ZM38.8125 36.816C36.8136 37.7279 34.9849 38.974 33.4048 40.5006L30.3754 40.5H30.375V25.3125H38.8125V36.816ZM19.4062 25.3125H24.4688V28.338L24.2216 28.0909C24.0634 27.9327 23.8488 27.8438 23.625 27.8438C23.4012 27.8438 23.1866 27.9327 23.0284 28.0909L21.9375 29.1817L20.8466 28.0909C20.6884 27.9327 20.4738 27.8438 20.25 27.8438C20.0262 27.8438 19.8116 27.9327 19.6534 28.0909L19.4062 28.338V25.3125ZM15.1875 25.3125H17.7188V30.375C17.7187 30.5419 17.7682 30.705 17.8609 30.8438C17.9536 30.9825 18.0854 31.0907 18.2396 31.1545C18.3938 31.2184 18.5634 31.2351 18.7271 31.2025C18.8908 31.17 19.0411 31.0896 19.1591 30.9716L20.25 29.8808L21.3409 30.9716C21.4991 31.1298 21.7137 31.2187 21.9375 31.2187C22.1613 31.2187 22.3759 31.1298 22.5341 30.9716L23.625 29.8808L24.7159 30.9716C24.8339 31.0896 24.9842 31.17 25.1479 31.2025C25.3116 31.2351 25.4812 31.2184 25.6354 31.1545C25.7896 31.0907 25.9214 30.9825 26.0141 30.8438C26.1068 30.705 26.1563 30.5419 26.1562 30.375V25.3125H28.6875V41.1449L28.6865 41.1458C28.2233 40.7296 27.6225 40.4996 26.9999 40.5001L24.3236 40.5002C24.4586 40.1184 24.5001 39.7098 24.4446 39.3087C24.389 38.9075 24.238 38.5256 24.0042 38.1949C23.7705 37.8642 23.4608 37.5945 23.1011 37.4083C22.7415 37.2221 22.3425 37.125 21.9375 37.125H21.9371L18.9029 37.1256C17.8445 36.1393 16.5732 35.41 15.1875 34.9943V25.3125ZM12.3187 41.5125C12.1727 41.403 11.9951 41.3438 11.8125 41.3438H10.9688V36.2812H12.4509C13.4756 36.2785 14.4907 36.4789 15.4373 36.8711C16.384 37.2633 17.2435 37.8394 17.966 38.566C18.0443 38.6443 18.1374 38.7065 18.2397 38.7489C18.3421 38.7913 18.4518 38.8132 18.5627 38.8132H18.5628L21.9374 38.8125C22.1612 38.8125 22.3758 38.9013 22.5341 39.0595C22.6923 39.2177 22.7813 39.4323 22.7813 39.6561C22.7814 39.8798 22.6925 40.0945 22.5343 40.2527C22.3761 40.411 22.1615 40.5 21.9378 40.5H17.7188V42.1875H21.0941V42.1878L26.9999 42.1875C27.1108 42.1874 27.2206 42.2091 27.3231 42.2515C27.4256 42.2938 27.5187 42.3559 27.5972 42.4343C27.6756 42.5127 27.7379 42.6057 27.7803 42.7081C27.8228 42.8105 27.8447 42.9203 27.8447 43.0312C27.8447 43.1421 27.8228 43.2519 27.7804 43.3543C27.7379 43.4567 27.6757 43.5498 27.5972 43.6282C27.5188 43.7065 27.4257 43.7687 27.3232 43.811C27.2207 43.8534 27.1109 43.8751 27.0001 43.875H19.4062C16.8512 43.8697 14.3659 43.0413 12.3187 41.5125ZM40.8657 43.4928C40.0963 44.6496 39.0526 45.5981 37.8277 46.2536C36.6028 46.9092 35.2346 47.2515 33.8453 47.25H25.3124C25.2015 47.2502 25.0916 47.2285 24.9891 47.1862C24.8865 47.1439 24.7933 47.0818 24.7148 47.0034C24.6363 46.9251 24.574 46.832 24.5315 46.7295C24.489 46.627 24.4671 46.5172 24.4671 46.4062C24.4671 46.2953 24.489 46.1855 24.5315 46.083C24.574 45.9805 24.6363 45.8874 24.7148 45.8091C24.7934 45.7307 24.8866 45.6686 24.9891 45.6263C25.0917 45.584 25.2016 45.5623 25.3125 45.5626L31.2184 45.5628V45.5625H34.5938V43.875H30.3749C30.2641 43.875 30.1544 43.8532 30.052 43.8108C29.9496 43.7684 29.8566 43.7062 29.7783 43.6279C29.6201 43.4696 29.5312 43.255 29.5312 43.0312C29.5312 42.8075 29.6201 42.5928 29.7783 42.4346C29.9366 42.2764 30.1512 42.1875 30.3749 42.1875H30.3751L33.7497 42.1882H33.7498C33.8607 42.1882 33.9704 42.1663 34.0728 42.1239C34.1751 42.0815 34.2682 42.0194 34.3465 41.941C35.9416 40.3429 37.8283 39.0654 39.9045 38.1777L40.392 37.9688H40.5V37.9225L41.3438 37.5608V42.7758L40.8657 43.4928ZM50.625 43.875H43.0312V35.4375H50.625V43.875Z" fill="#0E2B72"/>
<path d="M14.3438 10.9688H10.9688C10.8579 10.9687 10.7482 10.9906 10.6459 11.033C10.5435 11.0754 10.4505 11.1375 10.3721 11.2159C10.2938 11.2942 10.2316 11.3872 10.1892 11.4896C10.1468 11.592 10.125 11.7017 10.125 11.8125V15.1875H11.8125V13.8495L16.2784 18.3154L17.4716 17.1221L13.0057 12.6562H14.3438V10.9688Z" fill="#FFB400"/>
<path d="M4.4659 27.5956L5.65912 26.4023L4.56823 25.3115H10.125V23.624H4.56823L5.65912 22.5331L4.4659 21.3398L1.93465 23.8711C1.8563 23.9494 1.79414 24.0424 1.75173 24.1448C1.70933 24.2472 1.6875 24.3569 1.6875 24.4677C1.6875 24.5785 1.70933 24.6882 1.75173 24.7906C1.79414 24.893 1.8563 24.986 1.93465 25.0643L4.4659 27.5956Z" fill="#FFB400"/>
<path d="M27.8437 16.0313V7.94323L28.9346 9.03412L30.1278 7.8409L27.5966 5.30965C27.5183 5.2313 27.4252 5.16914 27.3229 5.12673C27.2205 5.08433 27.1108 5.0625 27 5.0625C26.8892 5.0625 26.7795 5.08433 26.6771 5.12673C26.5747 5.16914 26.4817 5.2313 26.4034 5.30965L23.8721 7.84085L25.0653 9.03407L26.1562 7.94321V16.0313H27.8437Z" fill="#FFB400"/>
<path d="M43.875 15.1875V11.8125C43.875 11.7017 43.8532 11.592 43.8108 11.4896C43.7684 11.3872 43.7062 11.2942 43.6279 11.2159C43.5495 11.1375 43.4565 11.0754 43.3541 11.033C43.2518 10.9906 43.142 10.9687 43.0312 10.9688H39.6562V12.6562H40.9943L36.5284 17.1221L37.7216 18.3154L42.1875 13.8495V15.1875H43.875Z" fill="#FFB400"/>
<path d="M49.5341 21.3398L48.3409 22.5331L49.4318 23.624H43.875V25.3115H49.4318L48.3409 26.4023L49.5341 27.5956L52.0654 25.0643C52.1437 24.986 52.2059 24.893 52.2483 24.7906C52.2907 24.6882 52.3125 24.5785 52.3125 24.4677C52.3125 24.3569 52.2907 24.2472 52.2483 24.1448C52.2059 24.0424 52.1437 23.9494 52.0654 23.8711L49.5341 21.3398Z" fill="#FFB400"/>
</svg>
