<svg width="202" height="202" viewBox="0 0 202 202" fill="none" xmlns="http://www.w3.org/2000/svg">
<g clip-path="url(#clip0_11047_36994)">
<path d="M105.869 96.196C116.299 106.485 130.347 112.294 145.111 112.294C145.19 112.294 145.269 112.294 145.348 112.294C176.24 112.164 201.14 87.0588 201.009 56.1617C200.881 25.7282 176.249 0.5 145.119 0.5C145.039 0.5 144.957 0.5 144.877 0.500393C127.741 0.572627 111.577 8.5557 101.065 21.9909C96.6747 19.259 91.6006 17.7997 86.3103 17.8272L60.6753 17.9352C54.8773 17.9595 49.7126 21.6584 47.8243 27.1396C47.6931 27.52 47.3198 27.7767 46.8954 27.7787C39.303 27.8109 33.1823 33.981 33.2149 41.5751L33.3032 62.5466C31.3148 64.2135 30.1402 66.6855 30.1512 69.3511L30.1791 75.8919C30.1889 78.2524 31.1177 80.4682 32.794 82.1307C34.3459 83.6692 36.3657 84.5635 38.53 84.6801C39.5212 93.8885 43.9896 102.453 52.6765 108.627L52.7283 120.977C52.7334 122.141 51.8659 123.135 50.7113 123.29C42.1166 124.442 26.413 126.954 17.807 130.829C7.54535 135.45 0.945329 145.708 0.992438 156.962L1.01481 162.298C1.02188 163.915 2.33506 165.222 3.95051 165.221H3.96308C5.58482 165.214 6.89367 163.895 6.887 162.273L6.86462 156.936C6.82733 147.999 12.0686 139.853 20.2174 136.183C24.9797 134.039 32.4796 132.306 39.2437 131.053C38.8444 133.87 39.8875 136.664 42.1095 138.554L55.3567 149.828C56.9175 151.157 58.8428 151.827 60.7734 151.827C61.517 151.827 62.2601 151.721 62.9852 151.522L65.7509 155.372L60.4771 195.627H29.9804L29.9129 179.56C29.9058 177.942 28.5926 176.636 26.9772 176.636C26.9729 176.636 26.9689 176.636 26.9646 176.636C25.3429 176.643 24.034 177.963 24.0407 179.584L24.1082 195.627H16.564C16.5499 195.627 16.5366 195.627 16.5224 195.627C11.3278 195.627 7.00988 191.441 6.9875 186.131L6.9451 176.054C6.93803 174.436 5.62486 173.13 4.0094 173.13C4.00508 173.13 4.00116 173.13 3.99684 173.13C2.3751 173.137 1.06624 174.457 1.07292 176.079L1.11531 186.156C1.15065 194.654 8.0451 201.5 16.5095 201.5H16.5758H132.175C140.528 201.465 147.555 194.156 147.519 185.539L147.396 156.344C147.348 145.09 140.662 134.888 130.361 130.354C121.723 126.552 105.999 124.173 97.3951 123.093C97.3947 123.093 97.3943 123.093 97.3935 123.093C96.2378 122.947 95.3627 121.961 95.3576 120.797L95.3054 108.448C99.6473 105.307 103.204 101.557 105.869 96.196ZM144.901 6.37297C144.974 6.37258 145.046 6.37258 145.118 6.37258C172.371 6.37258 195.019 28.3338 195.137 56.1868C195.254 83.8333 172.975 106.305 145.323 106.422C145.252 106.422 145.182 106.422 145.111 106.422C131.024 106.422 117.662 100.509 108.178 90.1287C108.691 88.2632 109.057 86.3423 109.251 84.3818C109.894 84.3417 110.522 84.2247 111.131 84.0504C119.423 94.2194 131.943 100.213 145.114 100.213C145.175 100.213 145.236 100.213 145.297 100.212C166.916 100.121 184.951 84.3303 188.353 63.5139C188.615 61.9134 187.529 60.4039 185.929 60.1424C184.323 59.8806 182.819 60.9665 182.558 62.5666C179.622 80.5267 164.054 94.261 145.273 94.3403C145.219 94.3403 145.168 94.3407 145.114 94.3407C133.834 94.3407 123.104 89.2623 115.921 80.6303C116.967 79.1436 117.535 77.3782 117.527 75.5233L117.5 68.9821C117.488 66.3169 116.293 63.8547 114.29 62.205L114.22 45.5028C114.207 42.4317 113.692 39.4414 112.728 36.6176C119.575 25.435 131.798 18.5091 144.952 18.4538C145.007 18.4538 145.061 18.4534 145.117 18.4534C163.56 18.4534 179.256 31.5824 182.472 49.7273C182.724 51.1508 183.962 52.1519 185.359 52.1519C185.529 52.1519 185.702 52.137 185.875 52.1064C187.472 51.8233 188.537 50.2997 188.254 48.7031C184.529 27.6825 166.316 12.4823 144.927 12.5816C130.967 12.6405 117.919 19.4022 109.761 30.5189C108.686 28.8638 107.431 27.308 105.996 25.8849C105.898 25.7871 105.795 25.6964 105.695 25.6007C115.105 13.5799 129.568 6.43735 144.901 6.37297ZM46.9194 33.6513C49.8378 33.6391 52.4327 31.7908 53.3757 29.0526C54.4518 25.9296 57.3949 23.8219 60.6992 23.8081L86.3342 23.7002H86.4292C92.2492 23.7002 97.7264 25.9552 101.861 30.0552C103.97 32.1465 105.6 34.5923 106.699 37.2579C106.733 37.3603 106.772 37.4608 106.817 37.559C107.806 40.0636 108.335 42.7544 108.347 45.5283L108.413 61.127C106.453 61.4996 103.877 62.342 101.699 64.2347C101.198 64.2621 100.456 64.2252 99.8 64.1491L99.7462 51.311C99.7176 44.5763 94.2297 39.1171 87.4986 39.1171C87.4813 39.1171 87.4637 39.1171 87.4468 39.1171L87.3372 39.1175C85.5051 39.1254 83.689 39.4127 81.9389 39.9722C76.5598 41.6913 70.8199 41.7038 65.4644 40.0416C63.7091 39.4967 61.8762 39.2267 60.0566 39.2325L59.9471 39.2329C53.1798 39.2616 47.7249 44.7608 47.7532 51.5301L47.8015 62.9768C45.0169 61.8125 41.6211 61.3818 39.1691 61.2287L39.0863 41.5503C39.0686 37.2033 42.572 33.6693 46.9194 33.6513ZM62.2366 145.474C61.3042 146.152 60.0397 146.103 59.1615 145.356L45.9144 134.082C44.7837 133.12 45.0318 131.868 45.1351 131.506C45.2376 131.148 45.6824 129.97 47.1227 129.734C48.3519 129.548 49.4762 129.387 50.4498 129.252L68.8629 140.661L62.2366 145.474ZM58.5628 112.071C63.3468 114.314 68.5037 115.471 73.9876 115.509H74.0077C74.023 115.509 74.0379 115.509 74.0532 115.509C79.5371 115.424 84.6838 114.224 89.4485 111.941L89.4862 120.822C89.4945 122.807 90.2247 124.641 91.4318 126.068L74.1113 137.004L56.6989 126.215C57.8943 124.777 58.6088 122.936 58.6005 120.952L58.5628 112.071ZM74.1411 144.085L80.2681 148.458L78.0316 151.628L70.3147 151.661L68.0511 148.509L74.1411 144.085ZM66.3991 195.627L71.3907 157.528L77.0042 157.504L82.326 195.627H66.3991ZM108.927 130.76C115.702 131.956 123.216 133.624 127.997 135.729C136.176 139.329 141.486 147.431 141.524 156.369L141.647 185.564C141.669 190.795 137.443 195.605 132.163 195.627H124.609L124.54 179.161C124.532 177.543 123.219 176.237 121.604 176.237C121.6 176.237 121.595 176.237 121.591 176.237C119.97 176.244 118.661 177.564 118.667 179.186L118.737 195.628H88.2559L82.6259 155.301L85.3583 151.428C86.0622 151.616 86.7825 151.715 87.5029 151.715C89.4576 151.715 91.4047 151.027 92.9735 149.669L106.125 138.285C108.331 136.375 109.35 133.573 108.927 130.76ZM97.7056 129.052C98.6808 129.179 99.8063 129.331 101.037 129.506C102.479 129.73 102.934 130.904 103.039 131.262C103.145 131.622 103.404 132.873 102.282 133.844L89.1301 145.229C88.259 145.984 86.9953 146.043 86.0563 145.374L79.3895 140.616L97.7056 129.052ZM73.9955 109.636C58.8989 109.517 44.642 98.5075 44.2094 81.6726C44.169 80.0799 42.866 78.8119 41.2749 78.8119C41.2706 78.8119 41.2662 78.8119 41.2623 78.8119L39.0297 78.8213C39.025 78.8213 39.0211 78.8213 39.0168 78.8213C38.2293 78.8213 37.4885 78.5163 36.9286 77.9616C36.3661 77.4037 36.0548 76.6602 36.0512 75.8675L36.0234 69.3272C36.0198 68.4211 36.4285 67.5861 37.1116 67.0263C40.4874 67.0832 45.4244 67.749 46.8903 69.1827C47.6566 69.9322 48.6644 70.3283 49.6902 70.3279C50.2162 70.3279 50.7474 70.2238 51.2526 70.0099C52.7397 69.3806 53.6964 67.9288 53.689 66.313L53.6266 51.5057C53.6116 47.9929 56.4406 45.1204 59.9753 45.1059L60.0849 45.1055C61.3325 45.1063 62.542 45.2837 63.7252 45.6508C70.2181 47.6659 77.1985 47.6533 83.7275 45.5664C84.9068 45.1895 86.1301 44.9956 87.3651 44.9905L87.4747 44.9901H87.5021C91.0031 44.9901 93.8599 47.8316 93.8748 51.3365L93.9373 66.1434C93.94 66.8084 94.1756 68.451 96.2975 69.3284C97.3244 69.7527 103.143 71.0428 105.262 68.9374C106.898 67.3097 109.348 66.8716 110.565 66.7531C111.226 67.3074 111.624 68.1228 111.628 69.0088L111.656 75.5496C111.659 76.3418 111.354 77.0881 110.796 77.6506C110.238 78.2132 109.494 78.5249 108.701 78.528L106.469 78.5375C104.872 78.5445 103.574 79.8263 103.546 81.4229C103.255 98.2139 89.1333 109.389 73.9955 109.636Z" fill="#0E2B72"/>
<path d="M151.397 56.6839C151.151 58.9677 150.264 60.8123 148.736 62.2178C147.207 63.6232 144.915 64.5543 141.858 65.0111L153.268 78.3979H147.734L136.35 65.0902L136.877 61.2428H139.302C140.163 61.2428 140.918 61.2076 141.568 61.1374C142.218 61.0671 142.78 60.9705 143.255 60.8475C143.746 60.7069 144.168 60.54 144.519 60.3468C144.871 60.136 145.196 59.8988 145.494 59.6353C146.267 58.8974 146.768 57.9136 146.997 56.6839H136.35V52.8365H146.944C146.803 52.1513 146.575 51.5716 146.259 51.0972C145.96 50.6053 145.565 50.1661 145.073 49.7796C144.581 49.3931 143.931 49.112 143.123 48.9363C142.332 48.7607 141.269 48.6728 139.934 48.6728H136.35V44.8254H159.118V48.6728H148.999C149.614 49.112 150.124 49.6918 150.528 50.4121C150.932 51.1324 151.213 51.9405 151.371 52.8365H159.118V56.6839H151.397Z" fill="#FFB400"/>
</g>
<defs>
<clipPath id="clip0_11047_36994">
<rect width="201" height="201" fill="white" transform="translate(0.5 0.5)"/>
</clipPath>
</defs>
</svg>
