<svg width="180" height="179" viewBox="0 0 180 179" fill="none" xmlns="http://www.w3.org/2000/svg">
<g clip-path="url(#clip0_11049_97027)">
<path d="M91.5977 66.249C93.5285 66.249 95.0938 64.6838 95.0938 62.7529C95.0938 60.8221 93.5285 59.2568 91.5977 59.2568C89.6668 59.2568 88.1016 60.8221 88.1016 62.7529C88.1016 64.6838 89.6668 66.249 91.5977 66.249Z" fill="#FFB400"/>
<path d="M160.794 81.4675C156.821 78.8699 151.851 78.456 147.502 80.3607L135.201 85.7485C134.385 86.1089 133.448 85.8971 132.869 85.2227C129.262 81.0242 120.819 71.1929 104.352 77.124C104.336 77.1299 104.32 77.1355 104.304 77.1418L74.2724 88.4601L51.5453 78.4256C47.1941 76.5041 42.2167 76.9072 38.2318 79.5041C34.2466 82.101 31.8672 86.4911 31.8672 91.2478V116.893C31.8672 122.392 35.106 127.407 40.1183 129.669L42.5117 130.75C41.4762 132.283 40.8731 134.075 40.7766 135.971C40.6368 138.715 41.795 141.595 43.6371 143.634C45.3936 145.579 47.9496 146.939 50.3696 147.204C50.3874 149.638 51.4072 152.237 53.1629 154.182C53.1633 154.182 53.1626 154.182 53.1629 154.182C54.8369 156.035 57.3705 157.518 59.8247 157.819C59.8751 160.291 61.0194 162.881 62.6936 164.735C64.4501 166.68 67.0061 168.039 69.4261 168.304C69.4439 170.738 70.5368 173.419 72.2925 175.363C74.1346 177.403 76.8811 178.847 79.6259 178.987C82.3766 179.129 85.0365 178.143 87.0824 176.314C88.0214 175.474 88.9521 174.625 89.887 173.781C90.8379 172.922 91.6039 171.913 92.1675 170.804L109.336 178.006C112.546 179.347 116.277 179.014 119.208 177.14C121.067 175.951 122.497 174.247 123.344 172.216C123.938 170.796 124.201 169.32 124.175 167.872C125.928 168.207 127.755 168.095 129.454 167.548C132.451 166.586 134.868 164.369 136.086 161.463C136.764 159.841 137.029 158.116 136.883 156.413C140.839 156.039 144.345 153.774 145.864 150.144C146.559 148.479 146.766 146.664 146.516 144.881C152.301 145.001 157.255 140.318 157.468 134.527C157.539 132.577 157.06 130.63 156.116 128.924L159.211 127.432C164.029 125.11 167.142 120.154 167.142 114.806V93.2004C167.142 88.4517 164.769 84.0658 160.794 81.4675ZM49.0568 139.182C48.5275 138.596 48.0352 138.032 47.852 137.234C47.587 136.081 47.9747 134.849 48.8519 134.056L58.3987 125.434C59.1598 124.747 60.2156 124.454 61.2225 124.647C62.0664 124.809 62.695 125.293 63.2565 125.915C63.818 126.536 64.2365 127.211 64.3113 128.067C64.4008 129.088 64.0019 130.109 63.2411 130.796L53.6944 139.418C52.3501 140.632 50.2699 140.526 49.0568 139.182ZM58.655 149.81C58.0809 149.175 57.5684 148.559 57.4177 147.683C57.2286 146.582 57.6205 145.435 58.4504 144.685L70.9609 133.387C71.7045 132.715 72.7369 132.419 73.7242 132.59C74.594 132.74 75.2422 133.228 75.8187 133.867C76.3952 134.505 76.8151 135.2 76.8762 136.08C76.9458 137.08 76.5469 138.077 75.8029 138.748C75.8029 138.748 62.6475 150.535 62.2231 150.693C61.785 150.855 61.3137 150.919 60.8481 150.884C60.009 150.819 59.2203 150.436 58.655 149.81ZM68.1133 160.283C67.62 159.736 67.1498 159.211 66.9456 158.48C66.7907 157.925 66.7855 157.327 66.9306 156.769C66.9991 156.505 67.1015 156.248 67.2344 156.01C67.4183 155.68 76.9465 147.156 76.9465 147.156C77.8153 146.722 78.8648 146.701 79.7511 147.098C80.3667 147.373 80.8128 147.845 81.2488 148.342C82.4424 149.703 82.427 151.779 81.0513 153.022L72.7509 160.518C71.4066 161.733 69.3264 161.626 68.1133 160.283ZM86.2699 166.31C86.2255 167.186 85.8423 167.992 85.1914 168.58L82.349 171.147C81.5488 171.87 80.4258 172.154 79.377 171.902C78.5159 171.696 77.9216 171.15 77.3521 170.512C76.133 169.147 76.1047 167.052 77.5066 165.785L80.3486 163.219C81.5649 162.12 83.4657 162.102 84.7023 163.177C85.6189 163.974 86.3339 165.054 86.2699 166.31ZM150.17 135.586C149.392 137.453 147.172 138.383 145.301 137.595L119.352 126.569C117.571 125.813 115.515 126.642 114.758 128.423C114.747 128.448 114.74 128.474 114.73 128.5C114.725 128.512 114.718 128.522 114.713 128.533C113.918 130.297 114.705 132.371 116.468 133.165L136.237 142.066C136.266 142.079 136.295 142.091 136.324 142.103C138.256 142.911 139.611 144.646 139.619 146.321C139.62 146.713 139.547 147.091 139.4 147.442C138.623 149.3 135.919 150.016 133.479 149.015L113.758 140.134C111.994 139.339 109.92 140.126 109.126 141.889C109.1 141.945 109.081 142.002 109.059 142.059C109.048 142.084 109.034 142.108 109.024 142.133C108.265 143.912 109.092 145.97 110.872 146.729L119.694 150.491L128.66 154.529C130.051 155.767 130.31 157.906 129.251 159.439C128.266 160.864 126.36 161.442 124.754 160.774L108.032 153.644C106.253 152.885 104.195 153.713 103.436 155.492C102.901 156.746 103.157 158.137 103.976 159.115C104.328 159.641 104.823 160.081 105.441 160.361L114.832 164.606C114.862 164.62 114.893 164.633 114.923 164.646C116.797 165.43 117.676 167.613 116.88 169.515C116.107 171.369 113.912 172.325 112.042 171.543L92.9467 163.532C92.5353 161.957 91.5301 160.247 90.4072 159.004C89.5517 158.056 88.3371 157.063 87.2635 156.511C88.3763 154.938 89.0266 153.08 89.1269 151.109C89.2668 148.364 88.1089 145.485 86.2668 143.445C85.3525 142.433 84.0488 141.384 82.8542 140.812C84.6299 137.151 83.9104 132.372 81.0198 129.172C78.4705 126.349 74.4793 125.028 71.0018 125.769C70.5917 124.185 69.5844 122.469 68.4566 121.22C66.6145 119.18 63.8676 117.736 61.1232 117.596C58.3788 117.453 55.7434 118.394 53.7038 120.236L47.8877 125.489L43.0012 123.283C40.4941 122.152 38.8744 119.644 38.8744 116.893V91.2478C38.8744 88.8331 40.0348 86.6921 42.058 85.3741C44.0811 84.0557 46.5081 83.8585 48.7173 84.8346L68.4115 93.5301C67.3732 95.4837 66.9323 97.7677 67.2522 100.113C67.4088 101.253 67.7375 102.35 68.229 103.372C70.3326 107.748 75.1282 110.218 79.8885 109.383C79.9472 109.373 80.0056 109.361 80.0636 109.347L98.4797 105.135L147.917 130.578C148.802 131.033 149.543 131.474 150.027 132.387C150.55 133.373 150.601 134.557 150.17 135.586ZM160.136 114.805C160.136 117.48 158.579 119.96 156.169 121.121L150.325 123.938L100.547 98.3204C99.8246 97.9415 98.9558 97.8362 98.1629 98.0205L78.6016 102.494C76.9395 102.752 75.2799 101.873 74.5412 100.336C74.3661 99.9716 74.2482 99.5759 74.1916 99.163C73.9483 97.3779 74.9401 95.6938 76.606 95.0673L106.75 83.7064C117.736 79.7604 123.249 84.7752 127.555 89.7875C130.162 92.8232 134.375 93.7752 138.024 92.1607L150.312 86.7781C152.521 85.8111 154.943 86.0131 156.961 87.3315C158.979 88.6506 160.136 90.7892 160.136 93.2001V114.805H160.136Z" fill="#0E2B72"/>
<path d="M152.566 0H35.8563C27.8152 0 21.2737 6.54154 21.2737 14.5826V50.0109L13.1862 67.8969C12.6132 69.1639 12.8443 70.6501 13.7742 71.6836C14.45 72.4345 15.402 72.8436 16.3785 72.8432C16.7459 72.8432 17.1172 72.7855 17.478 72.666L36.5929 66.3429H75.8984C77.8331 66.3429 79.4011 64.7746 79.4011 62.8402C79.4011 60.9058 77.8328 59.3375 75.8984 59.3375H36.0286C35.6549 59.3375 35.2832 59.3972 34.9284 59.5147L22.8602 63.5069L27.9684 52.21C28.1736 51.7565 28.2795 51.2646 28.2795 50.7668V14.5826C28.2795 10.4047 31.6784 7.00582 35.8563 7.00582H152.566C156.743 7.00582 160.142 10.4047 160.142 14.5826V51.7604C160.142 55.9382 156.743 59.3371 152.566 59.3371H107.302C105.368 59.3371 103.8 60.9055 103.8 62.8398C103.8 64.7742 105.368 66.3426 107.302 66.3426H152.566C160.607 66.3426 167.148 59.801 167.148 51.76V14.5826C167.148 6.54154 160.606 0 152.566 0Z" fill="#0E2B72"/>
<path d="M135.589 22.7256H51.4258C49.4949 22.7256 47.9297 21.16 47.9297 19.2295C47.9297 17.2989 49.4949 15.7334 51.4258 15.7334H135.589C137.52 15.7334 139.085 17.2989 139.085 19.2295C139.085 21.16 137.52 22.7256 135.589 22.7256Z" fill="#FFB400"/>
<path d="M127.253 36.71H59.7539C57.823 36.71 56.2578 35.1444 56.2578 33.2139C56.2578 31.2833 57.823 29.7178 59.7539 29.7178H127.253C129.183 29.7178 130.749 31.2833 130.749 33.2139C130.749 35.1444 129.183 36.71 127.253 36.71Z" fill="#FFB400"/>
<path d="M119.735 50.6943H67.2695C65.3386 50.6943 63.7734 49.1288 63.7734 47.1982C63.7734 45.2677 65.3386 43.7021 67.2695 43.7021H119.735C121.666 43.7021 123.231 45.2677 123.231 47.1982C123.231 49.1288 121.666 50.6943 119.735 50.6943Z" fill="#FFB400"/>
</g>
<defs>
<clipPath id="clip0_11049_97027">
<rect width="179" height="179" fill="white" transform="translate(0.5)"/>
</clipPath>
</defs>
</svg>
