<svg width="46" height="37" viewBox="0 0 46 37" fill="none" xmlns="http://www.w3.org/2000/svg">
<g clip-path="url(#clip0_9721_75947)">
<path d="M46 32.609C45.9152 32.769 45.8472 32.9412 45.7421 33.0841C45.4496 33.4847 45.0603 33.7094 44.5601 33.7082C43.7565 33.7057 42.9529 33.7192 42.1494 33.7021C41.833 33.696 41.6228 33.8083 41.4378 34.0697C40.916 34.8097 40.3465 35.5168 39.8474 36.2716C39.5501 36.7198 38.8814 36.7393 38.5734 36.2777C38.0874 35.5498 37.5239 34.8757 37.0355 34.1503C36.8015 33.8022 36.534 33.6984 36.14 33.7008C33.7138 33.7155 31.2889 33.7082 28.8627 33.7082C25.7965 33.7082 22.7315 33.7082 19.6654 33.7082C18.8558 33.7082 18.3138 33.299 18.1526 32.5639C18.1144 32.388 18.1167 32.2012 18.1156 32.0192C18.112 29.6549 18.112 27.2917 18.1108 24.9274C18.3042 24.9237 18.4976 24.9164 18.6911 24.9164C22.2623 24.9164 25.8347 24.9128 29.4059 24.9189C29.8943 24.9189 30.3098 24.7845 30.6393 24.3998C30.9247 24.0664 30.9868 23.6756 30.9868 23.2519C30.9832 19.1192 30.9844 14.9853 30.9856 10.8526C30.9856 10.6547 30.9927 10.4557 30.9963 10.2578C35.4738 10.259 39.9501 10.2639 44.4275 10.2578C44.9565 10.2578 45.3923 10.4202 45.7146 10.8513C45.8305 11.0064 45.9069 11.1908 46.0012 11.3618V32.6115L46 32.609ZM32.0578 26.3807C28.9761 26.3807 25.8944 26.3807 22.8115 26.3807C22.6778 26.3807 22.5429 26.3746 22.4091 26.3844C21.9733 26.4137 21.6987 26.6909 21.6939 27.1024C21.688 27.5152 21.959 27.8071 22.3877 27.8425C22.4915 27.8511 22.5954 27.8462 22.7005 27.8462C28.9391 27.8462 35.1777 27.8462 41.4163 27.8462C41.5058 27.8462 41.5954 27.8499 41.6837 27.8437C42.1446 27.8169 42.4276 27.5311 42.4216 27.1012C42.4156 26.6738 42.1303 26.4027 41.661 26.3819C41.5416 26.377 41.4234 26.3807 41.304 26.3807C38.2224 26.3807 35.1407 26.3807 32.0578 26.3807ZM29.2006 30.7772C31.3593 30.7772 33.518 30.7772 35.6756 30.7772C35.8093 30.7772 35.9454 30.7857 36.0768 30.7674C36.4517 30.7173 36.6976 30.4303 36.7012 30.053C36.706 29.6756 36.4648 29.3789 36.0947 29.3239C35.9633 29.3044 35.8272 29.3117 35.6935 29.3117C31.3617 29.3117 27.0299 29.3117 22.6981 29.3117C22.5787 29.3117 22.4593 29.3056 22.3411 29.319C21.9435 29.3654 21.688 29.6622 21.6939 30.0579C21.6999 30.4352 21.9471 30.7186 22.3232 30.7674C22.4557 30.7845 22.5906 30.776 22.7244 30.776C24.8831 30.776 27.0418 30.776 29.1994 30.776L29.2006 30.7772ZM37.7806 17.5877C39.0008 17.5877 40.2211 17.5877 41.4414 17.5877C41.5607 17.5877 41.6813 17.5951 41.7984 17.578C42.1733 17.5267 42.418 17.2409 42.4228 16.8635C42.4276 16.4862 42.1864 16.1906 41.8163 16.1344C41.6993 16.1161 41.5787 16.1222 41.4593 16.1222C39.0044 16.1222 36.5484 16.1222 34.0935 16.1222C33.9897 16.1222 33.8846 16.1173 33.7819 16.1296C33.3843 16.1772 33.1288 16.4727 33.136 16.8684C33.1431 17.2446 33.3891 17.5279 33.7652 17.578C33.8822 17.5938 34.0028 17.5865 34.1222 17.5865C35.3424 17.5865 36.5627 17.5865 37.783 17.5865L37.7806 17.5877ZM37.7579 20.5187C38.9781 20.5187 40.1984 20.5187 41.4187 20.5187C41.5381 20.5187 41.6575 20.5248 41.7757 20.5114C42.1733 20.465 42.4288 20.1682 42.4216 19.7725C42.4156 19.3964 42.1685 19.1118 41.7924 19.063C41.6754 19.0471 41.5548 19.0544 41.4354 19.0544C38.9949 19.0544 36.5543 19.0544 34.1138 19.0544C33.9944 19.0544 33.8738 19.0471 33.7568 19.063C33.3831 19.1143 33.1371 19.4001 33.1324 19.7774C33.1276 20.1548 33.3688 20.4503 33.7389 20.5065C33.8703 20.526 34.0064 20.5187 34.1401 20.5187C35.346 20.5187 36.5508 20.5187 37.7567 20.5187H37.7579ZM37.7794 23.4497C38.9996 23.4497 40.2199 23.4497 41.4402 23.4497C41.5596 23.4497 41.6802 23.457 41.7972 23.4412C42.1721 23.3899 42.4168 23.1041 42.4216 22.7279C42.4264 22.3506 42.1864 22.055 41.8151 21.9976C41.6981 21.9793 41.5775 21.9854 41.4581 21.9854C39.0032 21.9854 36.5472 21.9854 34.0923 21.9854C33.9885 21.9854 33.8834 21.9805 33.7807 21.9928C33.3831 22.0404 33.1276 22.3359 33.1336 22.7316C33.1395 23.1078 33.3867 23.3923 33.7616 23.4424C33.8786 23.4583 33.9992 23.4509 34.1186 23.4509C35.3389 23.4509 36.5591 23.4509 37.7794 23.4509V23.4497ZM39.1608 14.6567C39.9047 14.6567 40.6485 14.6567 41.3924 14.6567C41.4963 14.6567 41.6013 14.6616 41.7052 14.6543C42.1422 14.6238 42.4156 14.3502 42.4216 13.9374C42.4288 13.5088 42.1458 13.2206 41.6861 13.1937C41.6121 13.1888 41.5369 13.1912 41.4628 13.1912C39.9608 13.1912 38.4576 13.1912 36.9555 13.1912C36.8361 13.1912 36.7155 13.1851 36.5997 13.2035C36.2296 13.2609 35.9896 13.5552 35.9932 13.9338C35.9979 14.3111 36.2427 14.5969 36.6176 14.6482C36.7346 14.6641 36.8552 14.6567 36.9746 14.6567C37.703 14.6567 38.4325 14.6567 39.1608 14.6567Z" fill="#FFE8B0"/>
<path d="M30.9962 10.2545C30.9926 10.4523 30.9855 10.6514 30.9855 10.8492C30.9855 14.9819 30.9831 19.1159 30.9867 23.2485C30.9867 23.6723 30.9246 24.0643 30.6392 24.3965C30.3097 24.7824 29.8942 24.9168 29.4058 24.9155C25.8346 24.9094 22.2622 24.9119 18.6909 24.9131C18.4975 24.9131 18.3041 24.9204 18.1107 24.9241C15.6236 24.9204 13.1353 24.9522 10.6494 24.8923C9.83512 24.8728 9.27633 25.0658 8.85724 25.8107C8.52531 26.4006 8.0704 26.9196 7.66325 27.4643C7.28237 27.9735 6.78208 27.9772 6.40478 27.4692C5.85555 26.7279 5.3087 25.9854 4.77379 25.2331C4.60783 24.9998 4.42037 24.8997 4.1362 24.9058C3.36249 24.9217 2.5864 24.8838 1.8127 24.918C0.913621 24.9607 0.22827 24.2365 0.230658 23.2864C0.248568 16.0664 0.24021 8.8464 0.241404 1.62639C0.241404 0.582229 0.803774 0.000915934 1.81508 0.000915934C11.0196 -0.000305311 20.224 -0.000305311 29.4297 0.000915934C30.4135 0.000915934 30.9831 0.588335 30.9843 1.59953C30.9879 4.28627 30.9843 6.97301 30.9855 9.65852C30.9855 9.85637 30.9926 10.0554 30.9962 10.2533V10.2545ZM25.1719 15.0784C26.6429 12.6262 25.9206 10.2569 24.3003 8.97829C22.6311 7.66057 20.4664 7.75216 18.9094 9.13095C17.2773 10.5769 16.9286 12.8264 18.0247 14.7267C18.5333 15.6072 19.276 16.23 20.2216 16.5805C21.6222 17.1008 22.9392 16.8639 24.2311 16.0224C24.4054 16.2325 24.5451 16.4328 24.717 16.6001C25.0466 16.9213 25.4704 16.9323 25.7582 16.6526C26.0579 16.3607 26.0543 15.9052 25.7235 15.5535C25.56 15.3788 25.3594 15.2396 25.1707 15.0809L25.1719 15.0784ZM15.0361 13.939C15.1137 14.11 15.1878 14.2565 15.2475 14.4104C15.509 15.0747 15.7561 15.7452 16.0295 16.4035C16.1919 16.7955 16.5907 16.9469 16.9561 16.7943C17.3059 16.6477 17.4707 16.2813 17.3608 15.8893C17.3405 15.816 17.3059 15.7477 17.2785 15.6768C16.5835 13.8938 15.8898 12.1096 15.1949 10.3265C14.9633 9.7318 14.74 9.13339 14.4965 8.54475C14.3042 8.07823 13.8051 7.90726 13.435 8.19181C13.2917 8.30172 13.1819 8.48979 13.1126 8.66565C12.5228 10.147 11.9449 11.6345 11.3646 13.1195C11.016 14.011 10.6661 14.9013 10.3258 15.7965C10.1647 16.2203 10.296 16.5964 10.6446 16.7735C11.0422 16.9762 11.4685 16.7955 11.6548 16.3314C11.9091 15.6976 12.1491 15.0564 12.401 14.4214C12.4667 14.2565 12.5526 14.1002 12.6291 13.9414H15.0373L15.0361 13.939ZM7.38982 9.55228C7.62026 9.54129 7.78026 9.52785 7.94025 9.52663C8.69963 9.52419 9.4602 9.53396 10.2196 9.52052C10.6805 9.51198 10.967 9.21033 10.9611 8.78289C10.9563 8.37255 10.6805 8.07091 10.2447 8.06602C9.05305 8.05259 7.86145 8.05259 6.66985 8.06602C6.23762 8.07091 5.99405 8.34813 5.96301 8.79144C5.95704 8.88303 5.96062 8.97463 5.96062 9.06622C5.96062 11.3255 5.96062 13.5848 5.96062 15.8429C5.96062 15.9797 5.95465 16.1201 5.97733 16.2533C6.03942 16.6099 6.3212 16.8443 6.66985 16.8468C7.01849 16.8492 7.30386 16.6172 7.37072 16.263C7.39341 16.1446 7.38863 16.02 7.38863 15.8979C7.38982 15.1651 7.38744 14.4324 7.39102 13.6996C7.39102 13.5396 7.4149 13.3797 7.43161 13.1867C8.30203 13.1867 9.11992 13.1867 9.9378 13.1867C10.087 13.1867 10.2387 13.194 10.3832 13.1684C10.7306 13.1061 10.9587 12.8142 10.9599 12.4576C10.961 12.101 10.7342 11.8091 10.3891 11.7407C10.2733 11.7175 10.1515 11.7224 10.0333 11.7224C9.31812 11.7212 8.60292 11.7237 7.88891 11.72C7.73369 11.72 7.57728 11.6943 7.38982 11.6785C7.38982 11.1057 7.38982 10.5879 7.38982 10.0701C7.38982 9.91987 7.38982 9.76844 7.38982 9.54983V9.55228Z" fill="#0E2B72"/>
<path d="M32.0578 26.3803C35.1395 26.3803 38.2212 26.3803 41.304 26.3803C41.4234 26.3803 41.5428 26.3766 41.661 26.3815C42.1315 26.4023 42.4156 26.6734 42.4216 27.1008C42.4276 27.5295 42.1446 27.8165 41.6837 27.8433C41.5942 27.8482 41.5046 27.8458 41.4163 27.8458C35.1777 27.8458 28.9391 27.8458 22.7005 27.8458C22.5966 27.8458 22.4915 27.8507 22.3877 27.8421C21.959 27.8067 21.688 27.5148 21.6939 27.1021C21.6999 26.6905 21.9733 26.4133 22.4091 26.384C22.5429 26.3754 22.6766 26.3803 22.8115 26.3803C25.8932 26.3803 28.9749 26.3803 32.0578 26.3803Z" fill="#FFB400"/>
<path d="M29.2005 30.7762C27.0418 30.7762 24.8831 30.7762 22.7255 30.7762C22.5918 30.7762 22.4557 30.7848 22.3244 30.7677C21.9482 30.7188 21.7023 30.4343 21.6951 30.0581C21.688 29.6624 21.9435 29.3657 22.3423 29.3193C22.4605 29.3058 22.5799 29.3119 22.6993 29.3119C27.0311 29.3119 31.3629 29.3119 35.6947 29.3119C35.8284 29.3119 35.9645 29.3046 36.0958 29.3241C36.4672 29.3803 36.7072 29.6759 36.7024 30.0532C36.6976 30.4306 36.4528 30.7176 36.0779 30.7677C35.9454 30.7848 35.8105 30.7774 35.6767 30.7774C33.518 30.7774 31.3593 30.7774 29.2017 30.7774L29.2005 30.7762Z" fill="#FFB400"/>
<path d="M37.7806 17.5863C36.5604 17.5863 35.3401 17.5863 34.1198 17.5863C34.0004 17.5863 33.881 17.5937 33.7628 17.5778C33.3879 17.5277 33.1408 17.2444 33.1336 16.8683C33.1264 16.4726 33.382 16.177 33.7795 16.1294C33.8822 16.1172 33.9873 16.1221 34.0912 16.1221C36.546 16.1221 39.0021 16.1221 41.4569 16.1221C41.5763 16.1221 41.6969 16.116 41.8139 16.1343C42.1852 16.1917 42.4252 16.486 42.4205 16.8634C42.4157 17.2407 42.1709 17.5265 41.796 17.5778C41.679 17.5937 41.5584 17.5863 41.439 17.5876C40.2187 17.5876 38.9985 17.5876 37.7782 17.5876L37.7806 17.5863Z" fill="#FFB400"/>
<path d="M37.7578 20.5167C36.5519 20.5167 35.3472 20.5167 34.1413 20.5167C34.0075 20.5167 33.8714 20.5241 33.7401 20.5045C33.3687 20.4484 33.1287 20.1528 33.1335 19.7754C33.1383 19.3981 33.3831 19.1123 33.758 19.061C33.875 19.0451 33.9956 19.0525 34.115 19.0525C36.5555 19.0525 38.996 19.0525 41.4365 19.0525C41.5559 19.0525 41.6753 19.0451 41.7935 19.061C42.1684 19.1111 42.4156 19.3944 42.4228 19.7706C42.4299 20.1662 42.1744 20.463 41.7768 20.5094C41.6586 20.5228 41.5392 20.5167 41.4198 20.5167C40.1996 20.5167 38.9793 20.5167 37.759 20.5167H37.7578Z" fill="#FFB400"/>
<path d="M37.7794 23.4469C36.5591 23.4469 35.3389 23.4469 34.1186 23.4469C33.9992 23.4469 33.8786 23.4543 33.7616 23.4384C33.3867 23.3883 33.1395 23.105 33.1336 22.7276C33.1276 22.3319 33.3831 22.0364 33.7807 21.9888C33.8834 21.9766 33.9885 21.9814 34.0923 21.9814C36.5472 21.9814 39.0032 21.9814 41.4581 21.9814C41.5775 21.9814 41.698 21.9753 41.8151 21.9937C42.1852 22.0511 42.4264 22.3466 42.4216 22.724C42.4168 23.1013 42.1709 23.3871 41.7971 23.4372C41.6801 23.453 41.5595 23.4457 41.4401 23.4457C40.2199 23.4457 38.9996 23.4457 37.7794 23.4457V23.4469Z" fill="#FFB400"/>
<path d="M39.1608 14.6559C38.4325 14.6559 37.7029 14.6559 36.9746 14.6559C36.8552 14.6559 36.7358 14.6633 36.6176 14.6474C36.2439 14.5961 35.9979 14.3103 35.9931 13.9329C35.9884 13.5556 36.2284 13.26 36.5997 13.2026C36.7167 13.1843 36.8373 13.1904 36.9555 13.1904C38.4575 13.1904 39.9608 13.1904 41.4628 13.1904C41.5368 13.1904 41.6121 13.188 41.6861 13.1929C42.1458 13.221 42.4288 13.508 42.4216 13.9366C42.4144 14.3482 42.141 14.623 41.7052 14.6535C41.6013 14.6608 41.4974 14.6559 41.3924 14.6559C40.6485 14.6559 39.9047 14.6559 39.1608 14.6559Z" fill="#FFB400"/>
<path d="M25.1719 15.0805C25.3606 15.2405 25.5612 15.3785 25.7248 15.5531C26.0543 15.9049 26.0591 16.3604 25.7594 16.6523C25.4716 16.9319 25.0478 16.9209 24.7182 16.5997C24.5463 16.4324 24.4066 16.2309 24.2323 16.0221C22.9404 16.8635 21.6234 17.1005 20.2228 16.5802C19.2772 16.2297 18.5345 15.6069 18.0259 14.7264C16.9286 12.8261 17.2785 10.5766 18.9106 9.13061C20.4676 7.75182 22.6323 7.66023 24.3015 8.97795C25.9218 10.2566 26.6441 12.6258 25.1731 15.0781L25.1719 15.0805ZM24.1045 13.9093C24.9701 12.5843 24.4436 10.9503 23.535 10.2212C22.1989 9.15015 20.6634 9.30647 19.6235 10.4496C18.513 11.6696 18.5274 13.2059 19.6115 14.4626C20.4151 15.3932 21.9613 15.7644 23.0645 14.9401C22.975 14.8387 22.8902 14.7361 22.7983 14.6409C22.5261 14.3588 22.2478 14.084 21.9792 13.7982C21.6246 13.4196 21.6007 12.969 21.9064 12.6649C22.2108 12.362 22.6371 12.3999 23.0132 12.7663C23.0992 12.8505 23.1827 12.9372 23.2663 13.0252C23.535 13.3085 23.8036 13.5918 24.1045 13.9093Z" fill="#FFE8B0"/>
<path d="M15.0363 13.939H12.628C12.5516 14.0978 12.4656 14.2541 12.3999 14.419C12.148 15.054 11.908 15.6952 11.6537 16.329C11.4674 16.7943 11.0412 16.9738 10.6436 16.7711C10.2949 16.594 10.1636 16.2179 10.3248 15.7941C10.6651 14.9002 11.0161 14.0087 11.3635 13.1171C11.9438 11.6309 12.5217 10.1446 13.1116 8.66326C13.182 8.4874 13.2906 8.29933 13.4339 8.18942C13.8041 7.90487 14.3032 8.07584 14.4954 8.54236C14.739 9.13222 14.9622 9.72941 15.1939 10.3242C15.8888 12.1072 16.5825 13.8914 17.2774 15.6744C17.3048 15.7453 17.3395 15.8137 17.3598 15.8869C17.4696 16.2789 17.3048 16.6465 16.955 16.7919C16.5908 16.9445 16.1909 16.7919 16.0285 16.4011C15.755 15.7416 15.5079 15.0711 15.2464 14.408C15.1855 14.2553 15.1115 14.1076 15.0351 13.9366L15.0363 13.939ZM13.1808 12.4235H14.4655C14.2578 11.8886 14.0727 11.4111 13.8865 10.9323C13.8447 10.9323 13.8029 10.9323 13.7611 10.9323C13.5784 11.4001 13.3969 11.869 13.1808 12.4235Z" fill="#FFE8B0"/>
<path d="M7.39112 9.55295C7.39112 9.77155 7.39112 9.92176 7.39112 10.0732C7.39112 10.591 7.39112 11.1088 7.39112 11.6816C7.57857 11.6975 7.73499 11.7219 7.89021 11.7231C8.60541 11.7268 9.32061 11.7231 10.0346 11.7255C10.154 11.7255 10.2746 11.7219 10.3904 11.7439C10.7355 11.811 10.9623 12.1029 10.9611 12.4607C10.96 12.8173 10.7319 13.1092 10.3845 13.1715C10.2388 13.1971 10.0871 13.1898 9.93909 13.1898C9.12121 13.191 8.30333 13.1898 7.43291 13.1898C7.41739 13.384 7.39351 13.5428 7.39231 13.7027C7.38873 14.4355 7.39231 15.1682 7.38992 15.901C7.38992 16.0231 7.39351 16.1477 7.37201 16.2661C7.30515 16.6203 7.01979 16.8523 6.67114 16.8499C6.3225 16.8474 6.04071 16.613 5.97863 16.2564C5.95594 16.122 5.96191 15.9828 5.96191 15.846C5.96191 13.5867 5.96191 11.3274 5.96191 9.06933C5.96191 8.97774 5.95833 8.88615 5.9643 8.79455C5.99534 8.35002 6.24011 8.07402 6.67114 8.06913C7.86274 8.05448 9.05435 8.0557 10.2459 8.06913C10.6806 8.07402 10.9564 8.37566 10.9623 8.786C10.9671 9.21344 10.6818 9.51509 10.2209 9.52364C9.4615 9.53707 8.70212 9.5273 7.94155 9.52974C7.78155 9.52974 7.62156 9.5444 7.39112 9.55539V9.55295Z" fill="#FFE8B0"/>
<path d="M24.1046 13.9086C23.8037 13.591 23.535 13.3065 23.2664 13.0244C23.1828 12.9365 23.0992 12.8497 23.0133 12.7655C22.6372 12.3991 22.2109 12.36 21.9064 12.6641C21.5996 12.9694 21.6247 13.4188 21.9793 13.7974C22.2467 14.0832 22.5261 14.358 22.7984 14.6401C22.8903 14.7353 22.9751 14.8379 23.0646 14.9393C21.9626 15.7636 20.4152 15.3924 19.6116 14.4618C18.5263 13.2039 18.5131 11.6688 19.6235 10.4488C20.6635 9.30569 22.199 9.14937 23.535 10.2204C24.4437 10.9483 24.9702 12.5835 24.1046 13.9086Z" fill="#0E2B72"/>
<path d="M13.1819 12.4247C13.398 11.8691 13.5807 11.4013 13.7622 10.9336C13.804 10.9336 13.8457 10.9336 13.8875 10.9336C14.0738 11.4123 14.2589 11.8911 14.4666 12.4247H13.1819Z" fill="#0E2B72"/>
</g>
<defs>
<clipPath id="clip0_9721_75947">
<rect width="45.7692" height="36.6154" fill="white" transform="translate(0.230713)"/>
</clipPath>
</defs>
</svg>
