<svg width="201" height="201" viewBox="0 0 201 201" fill="none" xmlns="http://www.w3.org/2000/svg">
<path d="M141.325 169.594V163.313H172.103C175.726 163.291 179.211 161.919 181.876 159.466C184.542 157.012 186.197 153.652 186.518 150.044L191.041 95.9211L197.297 96.4425L192.774 150.565C192.316 155.741 189.943 160.559 186.12 164.078C182.297 167.597 177.299 169.564 172.103 169.594H166.45V185.297H169.59C172.089 185.297 174.486 186.29 176.253 188.057C178.019 189.824 179.012 192.22 179.012 194.719V197.86H172.731V194.719C172.731 193.886 172.4 193.087 171.811 192.498C171.222 191.909 170.423 191.578 169.59 191.578H157.028C156.195 191.578 155.396 191.909 154.807 192.498C154.218 193.087 153.887 193.886 153.887 194.719V197.86H147.606V194.719C147.606 192.22 148.599 189.824 150.366 188.057C152.132 186.29 154.529 185.297 157.028 185.297H160.168V169.594H141.325Z" fill="#0E2B72"/>
<path d="M103.628 125.624C102.795 125.624 101.996 125.294 101.407 124.705C100.818 124.116 100.487 123.317 100.487 122.484V109.921C100.487 109.088 100.818 108.29 101.407 107.701C101.996 107.112 102.795 106.781 103.628 106.781H135.597L135.505 102.29C135.51 98.0817 137.031 94.0164 139.789 90.8387C142.547 87.661 146.358 85.5838 150.524 84.9879C147.435 82.9141 145.098 79.8984 143.862 76.3897C142.625 72.8809 142.554 69.0666 143.659 65.5143C144.765 61.9619 146.988 58.8614 149.997 56.6742C153.007 54.4869 156.642 53.3297 160.362 53.3748C164.082 53.4199 167.688 54.6649 170.644 56.9245C173.599 59.1841 175.746 62.3376 176.765 65.9157C177.784 69.4938 177.621 73.3053 176.299 76.783C174.978 80.2608 172.569 83.2189 169.43 85.2172C173.625 86.1437 177.331 88.582 179.842 92.0669C182.353 95.5518 183.493 99.8393 183.045 104.111L180.146 140.012C179.671 144.296 177.631 148.254 174.418 151.128C171.205 154.002 167.045 155.589 162.735 155.586H136.061L130.637 188.198C130.515 188.932 130.137 189.599 129.569 190.08C129.002 190.561 128.282 190.824 127.538 190.824H109.909C109.458 190.824 109.012 190.726 108.601 190.538C108.191 190.35 107.826 190.076 107.531 189.734C107.236 189.392 107.019 188.991 106.893 188.557C106.768 188.124 106.737 187.668 106.803 187.222L113.873 139.38C114.203 137.248 115.281 135.304 116.914 133.894C118.547 132.484 120.629 131.701 122.786 131.686H136.068L135.945 125.624H103.628ZM171.152 70.6635C171.152 68.4895 170.507 66.3642 169.299 64.5566C168.091 62.7489 166.374 61.34 164.366 60.5081C162.357 59.6761 160.147 59.4584 158.015 59.8825C155.883 60.3067 153.924 61.3536 152.387 62.8909C150.849 64.4281 149.803 66.3868 149.378 68.519C148.954 70.6513 149.172 72.8615 150.004 74.87C150.836 76.8786 152.245 78.5953 154.052 79.8032C155.86 81.011 157.985 81.6557 160.159 81.6557C163.075 81.6557 165.871 80.4976 167.932 78.4362C169.993 76.3747 171.152 73.5788 171.152 70.6635ZM145.854 125.31C145.418 125.521 144.94 125.629 144.456 125.624H142.226L142.415 134.761C142.424 135.178 142.349 135.594 142.195 135.983C142.041 136.371 141.811 136.725 141.519 137.024C141.226 137.323 140.877 137.56 140.491 137.722C140.106 137.884 139.692 137.967 139.274 137.967H122.786C122.13 137.974 121.499 138.214 121.003 138.644C120.508 139.074 120.182 139.665 120.082 140.313L113.546 184.543H124.871L130.305 151.93C130.426 151.197 130.805 150.531 131.372 150.05C131.939 149.569 132.658 149.305 133.401 149.305H162.735C165.484 149.311 168.14 148.307 170.198 146.483C172.255 144.659 173.571 142.142 173.893 139.412L176.805 103.514C176.976 101.948 176.816 100.363 176.334 98.8623C175.852 97.3619 175.059 95.98 174.007 94.8065C172.955 93.6331 171.668 92.6945 170.229 92.052C168.79 91.4095 167.231 91.0775 165.655 91.0776H152.967C150.009 91.0817 147.172 92.2567 145.077 94.3458C142.982 96.4349 141.799 99.2682 141.787 102.227L141.881 106.781H143.715L155.615 100.814L158.423 106.435L145.86 112.716C145.425 112.939 144.945 113.058 144.456 113.062H106.769V119.343H143.715L155.615 113.376L158.423 118.998L145.854 125.31Z" fill="#0E2B72"/>
<path d="M9.42188 119.344C9.42188 118.511 9.75276 117.712 10.3417 117.123C10.9307 116.534 11.7296 116.203 12.5625 116.203H18.8438V72.2346C18.8438 69.7357 19.8364 67.3392 21.6034 65.5723C23.3703 63.8053 25.7668 62.8127 28.2656 62.8127H34.5469V46.1925C34.536 43.051 35.4724 39.9792 37.2339 37.3779C38.9953 34.7766 41.5 32.7668 44.421 31.6106L52.2255 28.4888C52.7021 28.2984 53.218 28.2277 53.7283 28.2829C54.2385 28.338 54.7275 28.5174 55.1524 28.8053C55.5772 29.0932 55.9251 29.4808 56.1655 29.9343C56.4059 30.3878 56.5314 30.8932 56.5312 31.4064V100.5C56.5312 101.333 56.2004 102.132 55.6114 102.721C55.0224 103.31 54.2236 103.641 53.3906 103.641C52.9915 103.642 52.596 103.566 52.2255 103.418L44.421 100.296C41.5 99.1399 38.9953 97.13 37.2339 94.5287C35.4724 91.9275 34.536 88.8556 34.5469 85.7141V69.0939H28.2656C27.4327 69.0939 26.6338 69.4248 26.0449 70.0138C25.4559 70.6028 25.125 71.4016 25.125 72.2346V116.203H53.3906C54.2236 116.203 55.0224 116.534 55.6114 117.123C56.2004 117.712 56.5312 118.511 56.5312 119.344V128.766H81.6562C82.4892 128.766 83.288 129.097 83.877 129.686C84.466 130.275 84.7969 131.073 84.7969 131.906V144.469C84.7969 145.302 84.466 146.101 83.877 146.69C83.288 147.279 82.4892 147.61 81.6562 147.61H75.375V197.86H69.0938V144.469C69.0938 143.636 69.4246 142.837 70.0136 142.248C70.6026 141.659 71.4014 141.328 72.2344 141.328H78.5156V135.047H3.14062V128.766H9.42188V119.344ZM40.8281 85.7141C40.822 87.5985 41.3839 89.4409 42.4405 91.0011C43.4971 92.5614 44.9994 93.767 46.7514 94.4608L50.25 95.8615V36.0451L46.7514 37.4459C44.9994 38.1396 43.4971 39.3452 42.4405 40.9055C41.3839 42.4657 40.822 44.3082 40.8281 46.1925V85.7141ZM15.7031 128.766H50.25V122.485H15.7031V128.766Z" fill="#0E2B72"/>
<path d="M78.5156 62.8125H65.9531V69.0938H78.5156V62.8125Z" fill="#0E2B72"/>
<path d="M76.1484 49.8865L73.0329 44.4343L62.1287 50.6653L65.2442 56.1175L76.1484 49.8865Z" fill="#0E2B72"/>
<path d="M76.1484 82.0703L65.2442 75.8393L62.1287 81.2914L73.0329 87.5224L76.1484 82.0703Z" fill="#0E2B72"/>
<path d="M124.769 41.937C124.475 42.2498 124.12 42.4991 123.727 42.6695C123.333 42.8399 122.908 42.9278 122.479 42.9278C122.05 42.9278 121.626 42.8399 121.232 42.6695C120.838 42.4991 120.484 42.2498 120.19 41.937L103.975 24.7076C101.749 22.28 100.515 19.1065 100.515 15.8133C100.515 12.5201 101.749 9.3466 103.975 6.91906C105.075 5.7261 106.41 4.77401 107.897 4.1228C109.383 3.4716 110.989 3.1354 112.612 3.1354C114.234 3.1354 115.84 3.4716 117.326 4.1228C118.813 4.77401 120.148 5.7261 121.248 6.91906L122.479 8.23498L123.72 6.90963C124.82 5.71668 126.156 4.76459 127.642 4.11338C129.129 3.46218 130.734 3.12598 132.357 3.12598C133.979 3.12598 135.585 3.46218 137.071 4.11338C138.558 4.76459 139.893 5.71668 140.993 6.90963C143.219 9.33718 144.453 12.5107 144.453 15.8039C144.453 19.0971 143.219 22.2706 140.993 24.6981L124.769 41.937ZM136.411 11.2249C135.898 10.6572 135.272 10.2034 134.573 9.89287C133.874 9.58231 133.117 9.42184 132.352 9.42184C131.587 9.42184 130.83 9.58231 130.131 9.89287C129.432 10.2034 128.806 10.6572 128.293 11.2249L124.769 14.9716C124.16 15.575 123.337 15.9135 122.479 15.9135C121.622 15.9135 120.799 15.575 120.19 14.9716L116.669 11.2249C116.146 10.6743 115.516 10.2359 114.818 9.93632C114.12 9.63675 113.368 9.48227 112.608 9.48227C111.849 9.48227 111.097 9.63675 110.399 9.93632C109.701 10.2359 109.071 10.6743 108.548 11.2249C107.4 12.4775 106.764 14.1146 106.764 15.8133C106.764 17.512 107.4 19.1491 108.548 20.4018L122.479 35.2004L136.408 20.4143C137.559 19.1613 138.199 17.5219 138.199 15.8202C138.2 14.1185 137.562 12.4786 136.411 11.2249Z" fill="#FFB400"/>
<path d="M144.465 47.8945C142.297 47.8945 140.539 46.1369 140.539 43.9688C140.539 41.8006 142.297 40.043 144.465 40.043C146.633 40.043 148.391 41.8006 148.391 43.9688C148.391 46.1369 146.633 47.8945 144.465 47.8945Z" fill="#0E2B72"/>
</svg>
