<svg width="169" height="173" viewBox="0 0 169 173" fill="none" xmlns="http://www.w3.org/2000/svg">
<path d="M160.085 130.434C161.652 130.434 162.921 129.164 162.921 127.598C162.921 126.032 161.652 124.763 160.085 124.763C158.519 124.763 157.25 126.032 157.25 127.598C157.25 129.164 158.519 130.434 160.085 130.434Z" fill="#0E2B72"/>
<path d="M158.203 18.9039C159.769 18.9039 161.038 17.6344 161.038 16.0684C161.038 14.5024 159.769 13.2329 158.203 13.2329C156.637 13.2329 155.367 14.5024 155.367 16.0684C155.367 17.6344 156.637 18.9039 158.203 18.9039Z" fill="#0E2B72"/>
<path d="M124.171 170.13C125.737 170.13 127.007 168.86 127.007 167.294C127.007 165.728 125.737 164.459 124.171 164.459C122.605 164.459 121.336 165.728 121.336 167.294C121.336 168.86 122.605 170.13 124.171 170.13Z" fill="#0E2B72"/>
<path d="M84.4917 105.858C86.0578 105.858 87.3272 104.589 87.3272 103.023C87.3272 101.457 86.0578 100.188 84.4917 100.188C82.9257 100.188 81.6562 101.457 81.6562 103.023C81.6562 104.589 82.9257 105.858 84.4917 105.858Z" fill="#0E2B72"/>
<path d="M56.1324 172.021C57.6984 172.021 58.9679 170.751 58.9679 169.185C58.9679 167.619 57.6984 166.35 56.1324 166.35C54.5664 166.35 53.2969 167.619 53.2969 169.185C53.2969 170.751 54.5664 172.021 56.1324 172.021Z" fill="#0E2B72"/>
<path d="M18.3199 17.0133C19.8859 17.0133 21.1554 15.7438 21.1554 14.1778C21.1554 12.6118 19.8859 11.3423 18.3199 11.3423C16.7539 11.3423 15.4844 12.6118 15.4844 14.1778C15.4844 15.7438 16.7539 17.0133 18.3199 17.0133Z" fill="#0E2B72"/>
<path d="M8.87456 147.446C10.4406 147.446 11.7101 146.176 11.7101 144.61C11.7101 143.044 10.4406 141.775 8.87456 141.775C7.30856 141.775 6.03906 143.044 6.03906 144.61C6.03906 146.176 7.30856 147.446 8.87456 147.446Z" fill="#0E2B72"/>
<path d="M94.8847 77.6284C94.8847 78.6722 95.7308 79.5187 96.775 79.5187C97.8192 79.5187 98.6653 78.6722 98.6653 77.6284V77.5036C98.6653 72.8129 102.482 68.9971 107.172 68.9971C111.862 68.9971 115.678 72.8129 115.678 77.5036C115.678 78.5475 116.524 79.3939 117.569 79.3939C118.613 79.3939 119.459 78.5475 119.459 77.5036C119.459 72.8129 123.275 68.9971 127.965 68.9971C132.656 68.9971 136.472 72.8129 136.472 77.5036C136.472 78.5475 137.318 79.3939 138.362 79.3939C139.407 79.3939 140.253 78.5475 140.253 77.5036C140.253 72.8129 144.069 68.9971 148.759 68.9971C153.449 68.9971 157.266 72.8129 157.266 77.5036C157.266 78.5475 158.112 79.3939 159.156 79.3939C160.2 79.3939 161.046 78.5475 161.046 77.5036C161.046 34.7677 126.278 0 83.5427 0C40.8068 0 6.03906 34.7677 6.03906 77.5036C6.03906 77.5849 6.05305 77.6624 6.0625 77.7414C6.04851 77.9762 6.03906 78.2121 6.03906 78.4488C6.03906 79.4926 6.88518 80.3391 7.92939 80.3391C8.97324 80.3391 9.81973 79.4926 9.81973 78.4488C9.81973 78.194 9.83183 77.9388 9.85791 77.6753C10.2507 73.267 13.8911 69.9423 18.3262 69.9423C23.0165 69.9423 26.8327 73.7581 26.8327 78.4488C26.8327 79.4926 27.6788 80.3391 28.723 80.3391C29.7669 80.3391 30.6134 79.4926 30.6134 78.4488C30.6134 78.194 30.6255 77.9388 30.6516 77.6753C31.0444 73.267 34.6848 69.9423 39.1199 69.9423C43.8102 69.9423 47.6264 73.7581 47.6264 78.4488C47.6264 79.4926 48.4725 80.3391 49.5167 80.3391C50.5605 80.3391 51.407 79.4926 51.407 78.4488C51.407 78.194 51.4191 77.9388 51.4452 77.6753C51.838 73.267 55.4784 69.9423 59.9135 69.9423C64.2405 69.9423 67.8529 73.1604 68.358 77.4522C68.3576 77.5104 68.3557 77.569 68.3557 77.6284C68.3557 77.7777 68.3773 77.921 68.4098 78.0601C68.4155 78.1872 68.42 78.3157 68.42 78.4488V79.3939C68.42 80.4378 69.2661 81.2843 70.3103 81.2843C71.3542 81.2843 72.2007 80.4378 72.2007 79.3939V78.4579C72.2041 77.7422 72.2079 77.0261 72.215 76.3101C72.8744 70.5729 77.7167 66.2558 83.5124 66.2558C89.7252 66.2558 94.8268 71.3094 94.8847 77.5032V77.6284ZM107.172 65.2165C103.823 65.2165 100.785 66.5643 98.5663 68.7442C98.1935 52.1187 96.7652 36.3779 94.451 23.6972C93.1705 16.6803 91.7066 11.1046 90.0999 7.12466C89.8292 6.45473 89.521 5.73678 89.1698 5.02337C95.2525 7.69176 101.082 14.5805 105.727 24.8174C111.153 36.776 114.517 52.0019 115.427 68.4107C113.245 66.427 110.347 65.2165 107.172 65.2165ZM127.965 65.2165C124.554 65.2165 121.463 66.6153 119.234 68.8678C117.795 40.9775 109.47 17.5109 98.0215 6.5844C118.131 14.5609 133.395 38.7238 136.057 68.269C133.894 66.3711 131.063 65.2165 127.965 65.2165ZM156.67 68.1121C154.531 66.3072 151.77 65.2165 148.759 65.2165C145.287 65.2165 142.149 66.6663 139.913 68.9892C138.534 51.611 132.95 35.497 123.837 22.9271C119.548 17.0119 114.683 12.1632 109.414 8.47058C134.525 17.912 153.167 40.6784 156.67 68.1121ZM18.3262 66.1616C15.2567 66.1616 12.4526 67.2667 10.2995 69.1147C13.4722 41.2346 32.2553 18.0266 57.6716 8.4702C52.4021 12.1628 47.5375 17.0115 43.2491 22.9267C33.9831 35.7069 28.3612 52.1497 27.1027 69.8614C24.8705 67.5805 21.7617 66.1616 18.3262 66.1616ZM39.1199 66.1616C35.9804 66.1616 33.1188 67.3174 30.9476 69.2421C33.3597 39.2558 48.7337 14.6486 69.0635 6.5844C57.492 17.6285 49.1103 41.4811 47.8048 69.7654C45.5799 67.5401 42.5077 66.1616 39.1199 66.1616ZM59.9135 66.1616C56.7117 66.1616 53.7964 67.362 51.6101 69.3563C52.441 52.5879 55.8274 37.0055 61.3577 24.8178C66.0344 14.5109 71.9122 7.59725 78.0395 4.96893C77.6838 5.70049 77.3719 6.43885 77.0997 7.12655C75.5379 11.0702 74.1008 16.5994 72.8286 23.5603C70.4551 36.5469 68.9603 52.7259 68.5425 69.6878C66.3165 67.4966 63.2628 66.1616 59.9135 66.1616ZM83.5124 62.4755C79.1363 62.4755 75.1677 64.3242 72.3901 67.317C72.8721 51.7788 74.2702 36.9893 76.4207 24.9433C79.4108 8.19421 82.6554 3.94701 83.5412 3.78066C84.2833 3.8317 87.6848 7.52201 90.7807 24.6443C92.9694 36.7515 94.344 51.6896 94.7542 67.4992C91.9743 64.4191 87.9577 62.4755 83.5124 62.4755Z" fill="#0E2B72"/>
<path d="M56.0855 114.067C60.1826 111.348 62.8907 106.695 62.8907 101.419C62.8907 93.0515 56.0848 86.2437 47.7189 86.2437C39.353 86.2437 32.5471 93.0515 32.5471 101.419C32.5471 106.695 35.2548 111.348 39.3527 114.067C27.7336 117.649 19.2656 128.485 19.2656 141.264C19.2656 144.944 19.9647 148.535 21.3435 151.936C21.6327 152.65 22.3257 153.116 23.0954 153.116H72.3461C73.1159 153.116 73.8089 152.65 74.0981 151.936C75.4773 148.535 76.176 144.945 76.176 141.264C76.1756 128.485 67.7061 117.648 56.0855 114.067ZM47.7193 119.79L52.1434 130.846L47.7193 135.271L43.2982 130.847L47.7193 119.79ZM36.3278 101.419C36.3278 95.1362 41.4377 90.0243 47.7189 90.0243C53.9997 90.0243 59.11 95.1362 59.11 101.419C59.11 107.7 53.9997 112.81 47.7189 112.81C41.4373 112.81 36.3278 107.7 36.3278 101.419ZM71.038 149.335H62.8941V141.264C62.8941 140.219 62.048 139.373 61.0038 139.373C59.9599 139.373 59.1134 140.219 59.1134 141.264V149.335H36.3274V141.264C36.3274 140.219 35.4809 139.373 34.4371 139.373C33.3928 139.373 32.5467 140.219 32.5467 141.264V149.335H24.4032C23.5022 146.742 23.0463 144.032 23.0463 141.264C23.0463 128.627 32.5974 118.185 44.8585 116.762L39.3247 130.6C39.0442 131.301 39.2083 132.103 39.7425 132.638L46.3813 139.28C46.7359 139.635 47.2168 139.835 47.7181 139.835H47.7185C48.2198 139.835 48.7007 139.636 49.055 139.281L55.6976 132.638C56.2326 132.103 56.397 131.302 56.1161 130.599L50.579 116.762C62.8423 118.185 72.3945 128.627 72.3945 141.264C72.3949 144.033 71.939 146.742 71.038 149.335Z" fill="#0E2B72"/>
<path d="M129.71 114.067C133.808 111.348 136.516 106.695 136.516 101.419C136.516 93.0515 129.71 86.2437 121.344 86.2437C112.978 86.2437 106.172 93.0515 106.172 101.419C106.172 106.695 108.88 111.348 112.978 114.067C101.359 117.649 92.8906 128.485 92.8906 141.264C92.8906 144.94 93.5885 148.53 94.9639 151.935C95.2528 152.649 95.9462 153.116 96.7167 153.116H145.971C146.742 153.116 147.435 152.649 147.724 151.935C149.1 148.53 149.797 144.94 149.797 141.264C149.797 128.485 141.328 117.649 129.71 114.067ZM125.768 130.846L121.344 135.271L116.919 130.846L121.344 119.789L125.768 130.846ZM109.953 101.419C109.953 95.1362 115.063 90.0243 121.344 90.0243C127.625 90.0243 132.735 95.1362 132.735 101.419C132.735 107.7 127.625 112.81 121.344 112.81C115.063 112.81 109.953 107.7 109.953 101.419ZM144.662 149.335H136.516V141.264C136.516 140.219 135.67 139.373 134.625 139.373C133.581 139.373 132.735 140.219 132.735 141.264V149.335H109.953V141.264C109.953 140.219 109.107 139.373 108.062 139.373C107.018 139.373 106.172 140.219 106.172 141.264V149.335H98.0259C97.1265 146.739 96.6713 144.03 96.6713 141.264C96.6713 128.627 106.222 118.185 118.482 116.762L112.946 130.599C112.665 131.301 112.829 132.103 113.364 132.638L120.007 139.281C120.376 139.65 120.86 139.835 121.343 139.835C121.827 139.835 122.311 139.65 122.68 139.281L129.322 132.638C129.857 132.103 130.022 131.302 129.741 130.599L124.204 116.762C136.465 118.185 146.015 128.627 146.015 141.264C146.017 144.03 145.561 146.739 144.662 149.335Z" fill="#0E2B72"/>
<path d="M159.147 88.8452C153.935 88.8452 149.695 93.0852 149.695 98.2969C149.695 103.509 153.935 107.749 159.147 107.749C164.359 107.749 168.599 103.509 168.599 98.2969C168.599 93.0852 164.359 88.8452 159.147 88.8452ZM159.147 103.968C156.02 103.968 153.476 101.424 153.476 98.2969C153.476 95.1695 156.02 92.6259 159.147 92.6259C162.274 92.6259 164.818 95.1695 164.818 98.2969C164.818 101.424 162.274 103.968 159.147 103.968Z" fill="#FFB400"/>
<path d="M9.81885 102.078C4.6072 102.078 0.367188 106.318 0.367188 111.53C0.367188 116.741 4.6072 120.981 9.81885 120.981C15.0305 120.981 19.2705 116.741 19.2705 111.53C19.2705 106.318 15.0305 102.078 9.81885 102.078ZM9.81885 117.201C6.69148 117.201 4.14785 114.657 4.14785 111.53C4.14785 108.402 6.69148 105.859 9.81885 105.859C12.9455 105.859 15.4898 108.402 15.4898 111.53C15.4898 114.657 12.9455 117.201 9.81885 117.201Z" fill="#FFB400"/>
</svg>
