<svg width="100" height="101" viewBox="0 0 100 101" fill="none" xmlns="http://www.w3.org/2000/svg">
<path d="M5.04297 26.6247C5.70525 24.6207 6.96358 23.2437 9.06759 22.7967C9.95403 22.6117 10.8608 22.7093 11.7524 22.7196C12.3128 22.7299 12.7305 22.5603 13.1533 22.1801C19.0273 16.9288 24.9165 11.698 30.7955 6.45182C31.4934 5.83009 32.1863 5.91744 32.9555 6.30795C39.558 9.64783 46.1604 12.9774 52.7679 16.307C56.1354 18.0078 59.5028 19.7034 62.8703 21.4042C63.181 21.5583 63.5019 21.7125 63.772 21.9232C64.3731 22.3907 64.5361 23.0227 64.2305 23.7164C63.9197 24.4255 63.3084 24.6824 62.5799 24.5231C62.1927 24.4409 61.8259 24.2354 61.4642 24.0504C53.6645 20.1196 45.87 16.1888 38.0704 12.2581C37.7953 12.1193 37.5507 11.8933 37.1228 11.9292C37.3521 12.2478 37.5406 12.5304 37.7392 12.8027C39.8993 15.6956 42.0644 18.5884 44.2194 21.4813C44.4283 21.7587 44.6473 22.0362 44.8155 22.3394C45.2179 23.0587 45.0498 23.8346 44.4283 24.2868C43.822 24.7287 43.0018 24.6413 42.4567 24.0658C42.258 23.8551 42.095 23.6136 41.9167 23.3773C39.3033 19.8781 36.6898 16.379 34.0712 12.8798C33.9184 12.6743 33.7503 12.479 33.572 12.2581C33.2867 12.5715 33.4089 12.9055 33.4089 13.2035C33.3988 16.2711 33.4038 19.3386 33.3988 22.4062C33.3988 22.7247 33.414 23.0587 33.3427 23.367C33.1695 24.1018 32.7008 24.5334 31.9315 24.5539C31.1979 24.5745 30.7394 24.1891 30.5 23.5109C30.3675 23.1409 30.3828 22.7607 30.3828 22.3856C30.3828 18.9378 30.3828 15.49 30.3828 12.0423C30.3828 11.7288 30.3828 11.4205 30.3828 10.8399C25.8844 14.8375 21.5745 18.6655 17.2646 22.4935C17.4225 22.8275 17.6874 22.6939 17.8861 22.6939C19.1597 22.7093 20.4333 22.6939 21.712 22.7042C23.9842 22.735 25.9099 24.1223 26.5111 26.3112C26.7352 27.1231 27.1173 27.267 27.8509 27.267C45.2893 27.2515 62.7276 27.2875 80.166 27.231C84.1753 27.2156 87.6752 28.3768 90.7268 30.9717C91.3483 31.5009 91.9851 32.0044 92.6117 32.5183C93.9414 33.6127 94.3948 35.0309 93.9312 36.67C93.4574 38.3502 92.3111 39.3265 90.5536 39.4858C89.9779 39.5372 89.3971 39.5783 88.8215 39.5783C68.6015 39.5783 48.3867 39.5885 28.1668 39.5628C27.2039 39.5628 26.7097 39.7632 26.3786 40.7858C25.7673 42.6561 24.3306 43.8225 22.3896 43.9818C18.3191 44.3106 14.2283 44.1462 10.1476 44.0794C7.51887 44.0383 5.83771 42.615 5.04297 40.1075V26.6093V26.6247ZM58.7488 36.5621C68.9174 36.5621 79.0808 36.5621 89.2494 36.5621C89.5398 36.5621 89.8302 36.5621 90.1205 36.5569C90.5638 36.5467 90.8898 36.3617 91.0732 35.9301C91.2719 35.4625 91.0579 35.1285 90.737 34.851C90.2123 34.3937 89.6366 33.9878 89.122 33.5202C86.4678 31.1001 83.3245 30.1701 79.789 30.1752C62.641 30.206 45.4981 30.1906 28.3501 30.1906C28.0903 30.1906 27.8254 30.2112 27.5707 30.1906C27.0001 30.1392 26.8065 30.4013 26.8167 30.9614C26.8371 32.3641 26.8218 33.7669 26.8218 35.1696C26.8218 36.1014 27.2701 36.5672 28.1668 36.5672C38.3608 36.5672 48.5548 36.5672 58.7539 36.5672L58.7488 36.5621ZM15.8993 25.7409C14.0194 25.7409 12.1396 25.7255 10.2597 25.7409C8.73136 25.7563 7.90097 26.5836 7.89587 28.1302C7.87549 31.6294 7.87549 35.1336 7.89587 38.6328C7.90606 40.2514 8.78231 41.1043 10.3922 41.1043C14.0398 41.1146 17.6823 41.1146 21.33 41.1043C22.9704 41.1043 23.7804 40.2514 23.7804 38.6174C23.7804 35.1182 23.7804 31.6139 23.7804 28.1148C23.7804 26.5116 23.0621 25.7563 21.4573 25.7358C19.608 25.7152 17.7537 25.7358 15.9044 25.7358L15.8993 25.7409Z" fill="#0E2B72"/>
<path d="M5.04198 92.708C5.58708 92.0966 6.27483 91.9424 7.07466 91.9424C14.4616 91.963 21.8486 91.9527 29.2305 91.9527C30.3818 91.9527 30.3869 91.9527 30.3869 90.7966C30.3869 75.4023 30.3869 60.0081 30.3869 44.6087C30.3869 44.1719 30.3411 43.73 30.4837 43.3036C30.7181 42.5842 31.1969 42.168 31.9611 42.1886C32.6947 42.2091 33.143 42.6459 33.3163 43.3344C33.408 43.6941 33.4029 44.0846 33.4029 44.4648C33.408 47.2395 33.4029 50.009 33.4029 53.0457C33.8817 52.5011 34.2129 52.1362 34.5338 51.756C35.512 50.5999 36.4697 49.4284 37.4581 48.2825C37.8503 47.8304 37.8962 47.4707 37.4581 47.0031C36.7856 46.2786 36.1692 45.5027 35.5476 44.732C34.9108 43.9356 34.972 43.0466 35.675 42.4866C36.3271 41.9676 37.188 42.0961 37.8299 42.8308C38.3445 43.4217 38.8845 44.0024 39.3379 44.6395C39.8168 45.3075 40.1276 45.1739 40.5453 44.583C40.9631 43.9921 41.4572 43.4526 41.9412 42.9079C42.685 42.0704 43.5408 41.9471 44.2184 42.5482C44.8603 43.1237 44.8756 43.9921 44.2184 44.8142C43.5816 45.6106 42.9142 46.3814 42.2621 47.1624C42.0787 47.3833 41.8495 47.6094 42.1144 47.9229C43.4543 49.526 44.7941 51.1291 46.139 52.7426C46.516 52.424 46.3785 52.0797 46.3835 51.7868C46.3937 49.4181 46.3887 47.0545 46.3937 44.6858C46.3937 44.3929 46.3887 44.1 46.4141 43.8122C46.516 42.7795 47.1324 42.1423 47.9832 42.1731C48.8442 42.204 49.3893 42.8565 49.3944 43.9356C49.4046 48.375 49.4046 52.8145 49.4046 57.2591C49.4046 68.4194 49.4046 79.5798 49.3995 90.7401C49.3995 91.5417 49.7951 91.9441 50.5865 91.9476C63.4449 91.9476 76.3085 91.9476 89.1669 91.9476C89.3961 91.9476 89.6305 91.9476 89.8597 91.9476C90.9958 91.9578 91.6071 92.3124 91.7804 93.0677C91.9739 93.9258 91.6122 94.4859 90.5373 94.9792C62.2936 94.9792 34.0499 94.9792 5.80615 94.9946C5.14896 94.9946 4.93498 94.8404 5.0165 94.1879C5.07763 93.6997 5.02669 93.1962 5.02669 92.7029L5.04198 92.708ZM40.153 50.122C39.6741 50.1375 39.5875 50.3892 39.4449 50.5588C37.9267 52.3572 36.4494 54.1967 34.8854 55.954C34.3403 56.5706 34.4676 56.9405 34.9312 57.48C36.4493 59.2425 37.9471 61.0203 39.4093 62.829C39.8423 63.3685 40.0817 63.2606 40.4587 62.8084C42.0125 60.9227 43.5765 59.0472 45.1609 57.1923C45.5124 56.7812 45.4156 56.4986 45.1099 56.139C43.5357 54.2738 41.9717 52.3983 40.4077 50.5228C40.2804 50.3687 40.1887 50.1786 40.153 50.122ZM39.8575 68.2088C39.72 68.3526 39.557 68.5171 39.4093 68.6918C37.8758 70.5158 36.3678 72.3605 34.8089 74.1589C34.3963 74.6316 34.3861 74.9348 34.7936 75.4075C36.3475 77.211 37.8758 79.0402 39.3838 80.8849C39.776 81.3679 40.0359 81.4141 40.4485 80.9157C41.9972 79.03 43.5612 77.1596 45.1507 75.3099C45.543 74.8525 45.3851 74.5545 45.0743 74.1846C43.5001 72.3194 41.9361 70.4439 40.367 68.5787C40.2396 68.4297 40.1428 68.2293 39.8575 68.2139V68.2088ZM35.1605 91.8654H44.7024C43.439 90.3547 42.2622 88.952 41.0955 87.5441C40.3314 86.6192 39.5536 86.6226 38.7622 87.5544C38.6858 87.6417 38.6094 87.7291 38.533 87.8164C37.4428 89.1267 36.3526 90.4318 35.1605 91.8654ZM33.4793 60.3575V71.1067C34.972 69.3289 36.3271 67.7155 37.6822 66.0969C37.9217 65.8092 37.8045 65.5523 37.6058 65.3159C36.271 63.7128 34.9363 62.1148 33.4793 60.3626V60.3575ZM33.4487 88.9211C33.5099 88.952 33.571 88.9828 33.6321 89.0188C34.7121 87.7342 35.7871 86.4548 36.8722 85.1753C37.6228 84.2881 37.6143 83.3924 36.8467 82.488C36.699 82.3133 36.5563 82.1283 36.4086 81.9485C35.461 80.8284 34.5186 79.7133 33.4538 78.4545V88.9263L33.4487 88.9211ZM46.3224 89.1318V78.5367C44.8399 80.2991 43.5001 81.8971 42.1551 83.49C41.9463 83.7366 41.982 83.9678 42.1755 84.1939C43.5154 85.7868 44.8552 87.3848 46.3224 89.1318ZM46.3326 71.0554V60.6812C46.2053 60.712 46.1288 60.712 46.0983 60.7428C44.7839 62.2946 43.4746 63.8515 42.1602 65.4033C41.987 65.6088 41.9616 65.8143 42.1399 66.0301C43.495 67.6538 44.845 69.2775 46.3326 71.0554Z" fill="#0E2B72"/>
<path d="M77.6544 73.8145C74.6385 73.8248 72.0913 71.343 71.9996 68.3011C71.9741 67.4276 72.5447 66.7237 73.3445 66.6415C74.1647 66.5592 74.8219 67.1604 74.9544 68.1213C75.1887 69.7707 76.1363 70.7367 77.5526 70.7623C78.8211 70.7829 79.7737 70.1252 80.1456 68.9742C80.5379 67.7462 80.0998 66.513 78.9382 65.7988C78.1129 65.2901 77.1756 64.8174 76.8495 63.8976C76.3961 62.613 75.5912 62.2739 74.338 62.1866C73.0338 62.0941 71.9385 61.3696 71.1132 60.3111C70.2114 59.1499 69.6001 57.819 69.0805 56.4574C68.6474 55.3218 68.9684 54.2377 69.972 53.6108C70.5935 53.2254 70.5782 52.8041 70.461 52.2337C69.9159 49.6081 69.3912 46.9773 68.8512 44.3465C68.6984 43.6117 68.7391 42.9386 69.3963 42.4556C70.3082 41.7928 71.4596 42.322 71.7296 43.5809C72.1983 45.7492 72.6058 47.9279 73.049 50.0962C73.207 50.867 73.3955 51.6326 73.5279 52.4084C73.6094 52.876 73.8438 53.0507 74.2921 53.0456C76.5235 53.0405 78.7498 53.0302 80.9811 53.0507C81.5772 53.0559 81.6995 52.6808 81.7861 52.2286C82.3159 49.5978 82.8406 46.967 83.3704 44.3362C83.4418 43.992 83.4927 43.6425 83.5946 43.3086C83.834 42.4967 84.5676 42.0343 85.3216 42.1936C86.0705 42.3477 86.6105 43.0671 86.4628 43.9046C86.1724 45.6002 85.8056 47.2804 85.4694 48.9709C85.235 50.1425 85.0108 51.3191 84.7561 52.4855C84.6542 52.948 84.7612 53.2254 85.1739 53.5029C86.3048 54.2685 86.6411 55.3578 86.1367 56.627C85.6884 57.7677 85.1586 58.8775 84.481 59.9C83.5589 61.2822 82.2395 62.0581 80.5888 62.2585C80.2628 62.2996 79.7585 62.1455 79.6821 62.536C79.6107 62.9059 80.1202 63.0138 80.4055 63.1834C82.6929 64.5759 83.7423 67.1296 83.0495 69.6422C82.3719 72.0932 80.1609 73.7991 77.6494 73.8093L77.6544 73.8145ZM77.6086 59.3451C78.0722 59.3451 78.5358 59.304 78.9943 59.3554C80.8487 59.5558 82.0153 58.7234 82.6878 57.0072C83.0291 56.1337 83.075 56.1337 82.1631 56.1337C80.2832 56.1285 78.4033 56.1337 76.5286 56.1337C75.3161 56.1337 74.0985 56.1234 72.886 56.144C72.6771 56.144 72.3104 55.9898 72.3613 56.478C72.5141 57.9064 73.9966 59.304 75.4435 59.3451C76.1669 59.3657 76.8903 59.3451 77.6086 59.3451Z" fill="#FFB400"/>
</svg>
