<svg width="100" height="100" viewBox="0 0 100 100" fill="none" xmlns="http://www.w3.org/2000/svg">
<path d="M74.1366 11H26.3634C22.8546 11 20 13.8545 20 17.3634V82.6366C20 86.1454 22.8546 89 26.3634 89H74.1366C77.6454 89 80.5 86.1455 80.5 82.6366V63.1139C80.5 62.2727 79.8179 61.5905 78.9765 61.5905C78.1351 61.5905 77.4531 62.2727 77.4531 63.1139V82.6366C77.4531 84.4653 75.9653 85.9531 74.1366 85.9531H43.3522V83.482C43.3522 81.1514 41.4561 79.2553 39.1255 79.2553H34.2272C31.8967 79.2553 30.0006 81.1514 30.0006 83.482V85.9531H26.3634C24.5347 85.9531 23.0469 84.4653 23.0469 82.6366V32.7512H77.4529V49.7139C77.4529 50.5551 78.135 51.2373 78.9764 51.2373C79.8178 51.2373 80.4998 50.5551 80.4998 49.7139V17.3634C80.4998 13.8545 77.6454 11 74.1366 11ZM33.0475 83.482C33.0475 82.8313 33.5767 82.3022 34.2272 82.3022H39.1255C39.776 82.3022 40.3053 82.8315 40.3053 83.482V85.9531H33.0475V83.482ZM77.4529 29.7042H23.047V17.3634C23.047 15.5347 24.5348 14.0469 26.3636 14.0469H74.1367C75.9655 14.0469 77.4532 15.5347 77.4532 17.3634V29.7042H77.4529Z" fill="#0E2B72"/>
<path d="M66.5851 16.47C63.6045 16.47 61.1797 18.8948 61.1797 21.8754C61.1797 24.8559 63.6045 27.2807 66.5851 27.2807C69.5658 27.2807 71.9906 24.8559 71.9906 21.8754C71.9905 18.8948 69.5656 16.47 66.5851 16.47ZM66.5851 24.234C65.2846 24.234 64.2266 23.176 64.2266 21.8756C64.2266 20.575 65.2846 19.517 66.5851 19.517C67.8857 19.517 68.9437 20.575 68.9437 21.8756C68.9436 23.176 67.8856 24.234 66.5851 24.234Z" fill="#FFB400"/>
<path d="M37.2237 37.4448C33.2405 37.4448 30 40.6853 30 44.6685V68.2518C30 72.235 33.2405 75.4753 37.2237 75.4753H63.2752C67.2584 75.4753 70.4989 72.2348 70.4989 68.2518V44.6685C70.4989 40.6853 67.2584 37.4448 63.2752 37.4448H37.2237ZM67.4519 44.6685V68.2518C67.4519 70.5548 65.5782 72.4284 63.2751 72.4284H37.2237C34.9206 72.4284 33.0469 70.5548 33.0469 68.2518V44.6685C33.0469 42.3654 34.9206 40.4917 37.2237 40.4917H63.2752C65.5782 40.4917 67.4519 42.3654 67.4519 44.6685Z" fill="#0E2B72"/>
<path d="M55.4402 45.2822C55.4402 44.441 54.7581 43.7588 53.9167 43.7588H37.793C36.9516 43.7588 36.2695 44.441 36.2695 45.2822V67.6376C36.2695 68.4788 36.9516 69.161 37.793 69.161H62.7054C63.5468 69.161 64.2289 68.4788 64.2289 67.6376V54.0726C64.2289 53.2314 63.5468 52.5492 62.7054 52.5492C58.6994 52.5492 55.4402 49.2893 55.4402 45.2822ZM61.182 66.1142H39.3164V46.8057H52.5056C53.1701 51.2757 56.7128 54.8193 61.182 55.4838V66.1142Z" fill="#FFB400"/>
<path d="M80.2439 55.6138C79.4464 54.4501 77.568 54.9233 77.4578 56.3484C77.3536 57.6964 79.0119 58.4918 80.0051 57.5841C80.556 57.0806 80.6505 56.2349 80.2439 55.6138Z" fill="#0E2B72"/>
</svg>
