<svg width="99" height="99" viewBox="0 0 99 99" fill="none" xmlns="http://www.w3.org/2000/svg">
<g clip-path="url(#clip0_11270_80591)">
<path d="M49.8601 32.1701L56.7405 33.3833C56.8619 33.4047 56.9835 33.4153 57.1042 33.4153C57.5252 33.4153 57.9354 33.2867 58.2873 33.0402C58.7402 32.723 59.0425 32.2485 59.1386 31.704L60.3518 24.8236C60.4478 24.2791 60.326 23.7296 60.0088 23.2767C59.6917 22.8237 59.217 22.5214 58.6725 22.4254L51.7921 21.2123C51.2468 21.1159 50.6981 21.2383 50.2451 21.5553C49.7922 21.8725 49.4899 22.3471 49.3937 22.8916L48.1804 29.772C48.0844 30.3167 48.2062 30.8661 48.5234 31.319C48.8409 31.7719 49.3156 32.0741 49.8601 32.1701ZM52.0619 24.1495L57.4144 25.0934L56.4705 30.4463L51.118 29.5023L52.0619 24.1495Z" fill="#FFB400"/>
<path d="M65.215 34.8784L72.0953 36.0915C72.2168 36.113 72.3384 36.1236 72.459 36.1236C72.88 36.1236 73.2902 35.995 73.6422 35.7485C74.0951 35.4313 74.3973 34.9568 74.4935 34.4122L75.7068 27.5319C75.9049 26.4075 75.1517 25.3316 74.0273 25.1335L67.147 23.9204C66.6025 23.824 66.0532 23.9458 65.6003 24.2632C65.1472 24.5802 64.8448 25.0549 64.7488 25.5995L63.5355 32.4798C63.3376 33.6046 64.0908 34.6805 65.215 34.8784ZM67.417 26.8579L72.7696 27.8017L71.8257 33.1545L66.4732 32.2106L67.417 26.8579Z" fill="#FFB400"/>
<path d="M46.4678 39.4859L45.2546 46.3662C45.1586 46.9109 45.2804 47.4604 45.5977 47.9133C45.9149 48.3662 46.3894 48.6684 46.9339 48.7644L53.8143 49.9775C53.9353 49.999 54.0558 50.0092 54.1748 50.0092C55.1601 50.0092 56.0357 49.3015 56.2127 48.2982L57.426 41.4179C57.522 40.8734 57.4002 40.3239 57.083 39.871C56.7659 39.4179 56.2912 39.1157 55.7467 39.0197L48.8663 37.8066C48.3216 37.7096 47.7723 37.8322 47.3197 38.1494C46.8664 38.4666 46.564 38.9413 46.4678 39.4859ZM49.1357 40.7441L54.4884 41.6879L53.5445 47.0407L48.192 46.0968L49.1357 40.7441Z" fill="#FFB400"/>
<path d="M61.8271 42.1942L60.614 49.0744C60.518 49.6191 60.6398 50.1685 60.957 50.6214C61.2743 51.0743 61.7488 51.3766 62.2933 51.4726L69.1737 52.6857C69.2951 52.7071 69.4167 52.7178 69.5374 52.7178C69.9584 52.7178 70.3686 52.5891 70.7205 52.3427C71.1734 52.0254 71.4757 51.5509 71.5719 51.0064L72.785 44.1262C72.9831 43.0019 72.2298 41.9259 71.1055 41.7278L64.2251 40.5147C63.68 40.4179 63.1312 40.5405 62.6781 40.8577C62.2254 41.1752 61.9231 41.6497 61.8271 42.1942ZM64.4951 43.4523L69.8476 44.3962L68.9037 49.7489L63.5512 48.805L64.4951 43.4523Z" fill="#FFB400"/>
<path d="M97.3365 98.7664L84.6227 93.3476L87.9999 85.9464C88.2803 85.3321 88.2044 84.6137 87.802 84.0713C87.3996 83.5291 86.734 83.2475 86.065 83.3388L77.4579 84.4986L79.1511 70.5764C79.2342 69.8916 78.9338 69.2217 78.3671 68.8286C77.9028 68.5068 77.3279 68.4212 76.7986 68.5742L85.0938 21.5312C85.3307 20.175 84.4204 18.8758 83.0625 18.6346L77.4528 17.6455L78.4671 11.8937C78.7065 10.535 77.796 9.23501 76.4377 8.99576L55.0485 5.22412C53.6903 4.9824 52.3902 5.895 52.1506 7.25328L51.1363 13.0059L45.5281 12.0172C44.869 11.9003 44.2038 12.0474 43.6556 12.4316C43.1077 12.8152 42.7427 13.3895 42.6279 14.046L38.7631 35.9594C38.6267 36.7333 39.1433 37.4716 39.9172 37.6078C40.6911 37.7457 41.4292 37.2276 41.5658 36.4537L45.3708 14.8791L82.2309 21.3777L73.6265 70.1749L61.4696 76.4825L59.8161 71.3C59.5772 70.5513 58.7767 70.1387 58.0279 70.3768C57.2792 70.6157 56.866 71.4161 57.1048 72.165L59.1158 78.468C59.2824 78.9896 59.6681 79.4089 60.1743 79.618C60.6805 79.8276 61.2495 79.8029 61.7365 79.5504L76.0993 72.0984L74.478 85.4292C74.4082 86.0037 74.6044 86.5664 75.0163 86.973C75.4282 87.3798 75.9941 87.5686 76.5666 87.4908L84.6652 86.3995L81.6115 93.0914C81.4052 93.5436 81.3901 94.0684 81.5695 94.5319C81.7492 94.995 82.1144 95.3726 82.5713 95.5672L91.7544 99.481H79.5891C79.4302 99.3584 79.2459 99.2613 79.0403 99.1996L72.6266 97.2771L73.9263 95.2743C74.2543 94.7683 74.2644 94.134 73.9523 93.6193C73.625 93.0795 72.9898 92.7719 72.3346 92.8332L68.0788 93.2366L68.8833 88.5844C68.9793 88.0296 68.7747 87.4802 68.3365 87.114C67.8671 86.7224 67.2114 86.612 66.6262 86.8258L58.2108 89.8964L54.7966 82.3704C54.4744 81.6604 53.7622 81.2013 52.9826 81.2011C52.2032 81.2011 51.4909 81.6596 51.1687 82.3692L47.6394 90.1368L38.6073 86.8273C38.0212 86.6124 37.365 86.722 36.8952 87.114C36.4565 87.48 36.2516 88.0296 36.3476 88.585L37.1521 93.2364L32.8964 92.833C32.239 92.7721 31.6053 93.0795 31.2782 93.6195C30.9661 94.1344 30.9764 94.7687 31.3046 95.2743L32.7234 97.4613L26.9245 99.1994C26.719 99.2611 26.535 99.358 26.3762 99.4806H14.2107L22.3431 96.0144C22.8003 95.8198 23.1656 95.4422 23.3452 94.9791C23.5249 94.5157 23.5097 93.9906 23.3033 93.5384L20.0455 86.3991L28.1437 87.4904C28.7174 87.5684 29.2825 87.3792 29.6944 86.9726C30.1063 86.5661 30.3026 86.0035 30.2326 85.4288L28.612 72.1035L44.0267 80.135C44.5128 80.3883 45.0824 80.4135 45.5894 80.2048C46.0963 79.9961 46.4828 79.5768 46.6498 79.0547L52.9814 59.2406L55.0836 65.8295C55.3225 66.5784 56.1228 66.9913 56.8718 66.7528C57.6205 66.5137 58.0337 65.7132 57.7949 64.9646L54.7488 55.4174C54.5025 54.6453 53.7925 54.1264 52.9822 54.1264C52.172 54.1264 51.4621 54.645 51.2158 55.4164L44.2973 77.0669L35.2373 72.3464L40.3953 43.0942C40.5317 42.3203 40.0149 41.5821 39.241 41.4458C38.4673 41.3085 37.729 41.8262 37.5926 42.6L32.5906 70.9676L28.2575 68.71C27.6451 68.3907 26.912 68.4368 26.3447 68.8303C25.777 69.2234 25.4763 69.8934 25.5598 70.5785L27.2527 84.4991L18.6458 83.3393C17.9768 83.2507 17.3111 83.53 16.9087 84.0719C16.5062 84.6141 16.4305 85.3324 16.7108 85.947L20.2921 93.7953L8.62865 98.7666C7.80864 99.1163 7.3605 99.9703 7.53885 100.844C7.71719 101.717 8.46435 102.327 9.35589 102.327H52.0497C52.8355 102.327 53.4726 101.69 53.4726 100.904C53.4726 100.118 52.8355 99.481 52.0497 99.481H35.6033C35.8725 99.2943 36.0792 99.0338 36.1936 98.7222C36.3637 98.2587 36.3064 97.7541 36.0367 97.3393L35.1038 95.9013L38.413 96.215C38.9507 96.2641 39.4833 96.0681 39.8375 95.6856C40.1731 95.3232 40.3175 94.8392 40.2342 94.3583L39.5135 90.1905L47.6331 93.1658C48.478 93.4758 49.4187 93.1011 49.7758 92.3149L52.9818 85.259L56.0729 92.0732C56.4298 92.8592 57.3706 93.2332 58.2134 92.9254L65.718 90.1869L64.9968 94.3577C64.9133 94.8392 65.0579 95.3232 65.3934 95.6856C65.7474 96.0683 66.2804 96.2645 66.8177 96.215L70.1269 95.9013L69.3136 97.1547C69.0436 97.5708 68.9867 98.0753 69.157 98.5386C69.3168 98.9733 69.6555 99.3093 70.0945 99.481H58.69C57.9042 99.481 57.267 100.118 57.267 100.904C57.267 101.69 57.9042 102.327 58.69 102.327H96.6094C97.5008 102.327 98.2479 101.717 98.4265 100.844C98.6046 99.9701 98.1565 99.1161 97.3365 98.7664ZM54.8935 8.08657L75.6046 11.7385L74.6501 17.1513L53.939 13.4999L54.8935 8.08657Z" fill="#0E2B72"/>
</g>
<defs>
<clipPath id="clip0_11270_80591">
<rect width="99" height="99" fill="white"/>
</clipPath>
</defs>
</svg>
