<svg width="54" height="54" viewBox="0 0 54 54" fill="none" xmlns="http://www.w3.org/2000/svg">
<path d="M2.44959 23.5989H6.97943C7.24735 24.565 7.63329 25.4944 8.12959 26.3655L4.92343 29.5704C4.77033 29.7235 4.68421 29.9311 4.68421 30.148C4.68421 30.3649 4.77033 30.5725 4.92343 30.7257L8.38731 34.1905C8.70627 34.5088 9.22298 34.5088 9.54194 34.1905L12.7484 30.9837C13.6195 31.4797 14.548 31.8659 15.5141 32.1335V36.6634C15.5141 37.1144 15.8796 37.4799 16.3306 37.4799H21.2298C21.6808 37.4799 22.0464 37.1144 22.0464 36.6634V32.1335C23.0125 31.8659 23.941 31.4797 24.812 30.9837L28.0185 34.1905C28.3426 34.4967 28.8494 34.4967 29.1732 34.1905L32.6377 30.7257C32.7908 30.5725 32.8769 30.3649 32.8769 30.148C32.8769 29.9311 32.7908 29.7235 32.6377 29.5704L29.4309 26.3655C29.9272 25.4944 30.3131 24.565 30.581 23.5989H35.1109C35.5619 23.5989 35.9274 23.2333 35.9274 22.7823V17.8831C35.9274 17.4324 35.5619 17.0666 35.1109 17.0666H30.581C30.3131 16.1008 29.9272 15.1713 29.4309 14.3003L32.637 11.0954C32.7901 10.9423 32.8763 10.7346 32.8763 10.5178C32.8763 10.3009 32.7901 10.0932 32.637 9.94012L29.1732 6.47528C28.8542 6.15664 28.3375 6.15664 28.0185 6.47528L24.812 9.68208C23.941 9.18642 23.0122 8.80016 22.0464 8.53224V4.00208C22.0464 3.55139 21.6808 3.18555 21.2298 3.18555H16.3306C15.8796 3.18555 15.5141 3.55139 15.5141 4.00208V8.53224C14.5483 8.80016 13.6195 9.18642 12.7484 9.68208L9.54194 6.47528C9.21788 6.16908 8.71105 6.16908 8.38731 6.47528L4.92279 9.94012C4.76969 10.0932 4.68357 10.3009 4.68357 10.5178C4.68357 10.7346 4.76969 10.9423 4.92279 11.0954L8.12959 14.3003C7.63329 15.1713 7.24735 16.1008 6.97943 17.0666H2.44959C1.99858 17.0666 1.63306 17.4324 1.63306 17.8831V22.7823C1.63306 23.2333 1.99858 23.5989 2.44959 23.5989ZM3.26612 18.6997H7.6183C8.00201 18.6997 8.33404 18.4327 8.41602 18.0579C8.68394 16.835 9.16844 15.6696 9.84654 14.617C10.0535 14.2942 10.0076 13.8703 9.73618 13.5989L6.65473 10.5174L8.96462 8.20722L12.0454 11.2887C12.3169 11.5607 12.7411 11.6067 13.0645 11.3994C14.1174 10.7216 15.2825 10.2371 16.5054 9.96883C16.8799 9.88653 17.1472 9.5545 17.1472 9.17079V4.81861H20.4133V9.17079C20.4133 9.5545 20.6806 9.88653 21.055 9.96883C22.2779 10.2371 23.4431 10.7216 24.496 11.3994C24.8194 11.6067 25.2436 11.5607 25.515 11.2887L28.5958 8.20722L30.9051 10.5174L27.8243 13.5979C27.5522 13.8697 27.5066 14.2939 27.7139 14.617C28.392 15.6702 28.8759 16.8354 29.1435 18.0586C29.2258 18.4333 29.5578 18.7006 29.9412 18.7006H34.2943V21.9667H29.9412C29.5578 21.9667 29.2258 22.2337 29.1435 22.6085C28.8759 23.8314 28.3917 24.9965 27.7139 26.0485C27.5069 26.3716 27.5529 26.7955 27.8243 27.0669L30.9057 30.1477L28.5958 32.4585L25.515 29.3768C25.2436 29.105 24.8194 29.0591 24.496 29.2664C23.4437 29.9445 22.2789 30.429 21.056 30.6969C20.6809 30.7786 20.4133 31.111 20.4133 31.4947V35.8468H17.1472V31.4947C17.1472 31.111 16.8796 30.7786 16.5045 30.6969C15.2816 30.429 14.1168 29.9445 13.0645 29.2664C12.7411 29.0591 12.3169 29.105 12.0454 29.3768L8.96462 32.4585L6.65537 30.1483L9.73618 27.0675C10.0083 26.7961 10.0539 26.3719 9.84654 26.0485C9.16844 24.9956 8.68394 23.8301 8.41602 22.6069C8.33372 22.2321 8.00201 21.9658 7.6183 21.9658H3.26612V18.6997Z" fill="#0E2B72"/>
<path d="M18.7802 26.8633C22.3879 26.8633 25.3124 23.9391 25.3124 20.3311C25.3124 16.7234 22.3879 13.7988 18.7802 13.7988C15.1725 13.7988 12.2479 16.7234 12.2479 20.3311C12.2518 23.9369 15.1744 26.8595 18.7802 26.8633ZM18.7802 15.4319C21.4856 15.4319 23.6794 17.6257 23.6794 20.3311C23.6794 23.0368 21.4856 25.2303 18.7802 25.2303C16.0748 25.2303 13.881 23.0368 13.881 20.3311C13.8839 17.6263 16.0754 15.4348 18.7802 15.4319Z" fill="#FFB400"/>
<path d="M48.1754 40.7445V34.2122C48.1754 33.7615 47.8099 33.3957 47.3589 33.3957H45.7258V26.8634C45.7258 26.4127 45.3603 26.0469 44.9093 26.0469H37.5605C37.1095 26.0469 36.7439 26.4127 36.7439 26.8634V33.3957H32.6613C32.2103 33.3957 31.8448 33.7615 31.8448 34.2122V40.7445H5.71572C3.46196 40.7473 1.63593 42.5734 1.63306 44.8271V46.4602C1.63593 48.7143 3.46196 50.5403 5.71572 50.5428H48.1754C50.4292 50.5403 52.2552 48.7143 52.2581 46.4602V44.8271C52.2552 42.5734 50.4292 40.7473 48.1754 40.7445ZM46.5423 40.7445H40.8266V35.0287H46.5423V40.7445ZM38.377 27.6799H44.0927V33.3957H38.377V27.6799ZM33.4778 35.0287H39.1935V40.7445H33.4778V35.0287ZM50.625 46.4602C50.625 47.8132 49.5281 48.9098 48.1754 48.9098H5.71572C4.36302 48.9098 3.26612 47.8132 3.26612 46.4602V44.8271C3.26612 43.4744 4.36302 42.3775 5.71572 42.3775H48.1754C49.5281 42.3775 50.625 43.4744 50.625 44.8271V46.4602Z" fill="#0E2B72"/>
<path d="M26.9456 43.1953C25.5929 43.1953 24.496 44.2922 24.496 45.6449C24.496 46.9979 25.5929 48.0945 26.9456 48.0945C28.2983 48.0945 29.3952 46.9979 29.3952 45.6449C29.3952 44.2922 28.2983 43.1953 26.9456 43.1953ZM26.9456 46.4614C26.4946 46.4614 26.129 46.0959 26.129 45.6449C26.129 45.1942 26.4946 44.8284 26.9456 44.8284C27.3966 44.8284 27.7621 45.1942 27.7621 45.6449C27.7621 46.0959 27.3966 46.4614 26.9456 46.4614Z" fill="#0E2B72"/>
<path d="M18.7803 43.1953C17.4276 43.1953 16.3307 44.2922 16.3307 45.6449C16.3307 46.9979 17.4276 48.0945 18.7803 48.0945C20.133 48.0945 21.2299 46.9979 21.2299 45.6449C21.2299 44.2922 20.133 43.1953 18.7803 43.1953ZM18.7803 46.4614C18.3293 46.4614 17.9638 46.0959 17.9638 45.6449C17.9638 45.1942 18.3293 44.8284 18.7803 44.8284C19.2313 44.8284 19.5968 45.1942 19.5968 45.6449C19.5968 46.0959 19.2313 46.4614 18.7803 46.4614Z" fill="#0E2B72"/>
<path d="M35.1109 43.1953C33.7582 43.1953 32.6613 44.2922 32.6613 45.6449C32.6613 46.9979 33.7582 48.0945 35.1109 48.0945C36.4636 48.0945 37.5604 46.9979 37.5604 45.6449C37.5604 44.2922 36.4636 43.1953 35.1109 43.1953ZM35.1109 46.4614C34.6598 46.4614 34.2943 46.0959 34.2943 45.6449C34.2943 45.1942 34.6598 44.8284 35.1109 44.8284C35.5619 44.8284 35.9274 45.1942 35.9274 45.6449C35.9274 46.0959 35.5619 46.4614 35.1109 46.4614Z" fill="#0E2B72"/>
<path d="M10.6149 43.1953C9.26218 43.1953 8.16528 44.2922 8.16528 45.6449C8.16528 46.9979 9.26218 48.0945 10.6149 48.0945C11.9676 48.0945 13.0645 46.9979 13.0645 45.6449C13.0645 44.2922 11.9676 43.1953 10.6149 43.1953ZM10.6149 46.4614C10.1639 46.4614 9.79835 46.0959 9.79835 45.6449C9.79835 45.1942 10.1639 44.8284 10.6149 44.8284C11.0659 44.8284 11.4314 45.1942 11.4314 45.6449C11.4314 46.0959 11.0659 46.4614 10.6149 46.4614Z" fill="#0E2B72"/>
<path d="M43.2763 43.1953C41.9236 43.1953 40.8267 44.2922 40.8267 45.6449C40.8267 46.9979 41.9236 48.0945 43.2763 48.0945C44.629 48.0945 45.7259 46.9979 45.7259 45.6449C45.7259 44.2922 44.629 43.1953 43.2763 43.1953ZM43.2763 46.4614C42.8253 46.4614 42.4597 46.0959 42.4597 45.6449C42.4597 45.1942 42.8253 44.8284 43.2763 44.8284C43.7273 44.8284 44.0928 45.1942 44.0928 45.6449C44.0928 46.0959 43.7273 46.4614 43.2763 46.4614Z" fill="#0E2B72"/>
</svg>
