<svg width="116" height="175" viewBox="0 0 116 175" fill="none" xmlns="http://www.w3.org/2000/svg">
<path d="M23.4366 148.846C20.3683 156.219 18.7007 164.099 18.5191 172.083C18.5191 173.694 19.8249 175 21.4358 175H108.936C109.793 175 110.607 174.622 111.161 173.968C111.715 173.313 111.953 172.448 111.812 171.602C111.572 170.144 105.774 135.902 94.0462 112.449C91.364 106.505 90.0008 100.05 90.0503 93.5288C96.2209 94.7585 102.452 95.6639 108.717 96.2413L108.936 96.25C110.274 96.25 111.44 95.3398 111.765 94.0421C116.464 75.2559 115.612 49.245 115.049 32.0338C114.9 27.4546 114.757 23.4821 114.757 20.4838C114.749 14.7337 112.507 9.21175 108.504 5.08379C105.569 1.89886 101.454 0.0606 97.1233 3.61895e-05H62.7562C59.6887 -0.00879568 56.8435 1.59944 55.2691 4.23212C51.3978 10.8612 46.1384 16.5743 39.8516 20.9796C38.3067 22.0005 36.6608 22.8597 34.9399 23.5434C28.0013 26.2492 23.5852 33.1052 23.9908 40.5417C24.1885 46.0543 26.5943 51.2559 30.667 54.9763C30.0571 55.1937 29.4611 55.4479 28.882 55.7375C25.3039 57.4642 22.6979 60.7156 21.7916 64.5838C8.27142 73.4921 0.392935 88.821 1.0191 105C1.0191 129.208 12.7003 142.103 23.4366 148.846ZM60.2566 7.25087C60.7831 6.37224 61.7319 5.83418 62.7562 5.83337H76.657C76.0503 11.483 73.4487 23.3334 62.2691 23.3334C57.5143 23.331 52.7703 22.8809 48.0999 21.9888C52.8586 17.7043 56.9554 12.7376 60.2566 7.25087ZM29.8212 40.3434C29.4887 35.3693 32.4338 30.7583 37.0866 28.9684C38.7439 28.2918 40.3427 27.4802 41.867 26.5417C48.5326 28.2846 55.394 29.1667 62.2837 29.1667C76.8408 29.1667 81.7291 15.2338 82.5545 5.83337H87.7783C83.1174 25.0688 82.173 45.0174 84.9958 64.6071C80.4815 63.7361 75.9131 63.1739 71.3224 62.9242C67.6004 62.814 63.901 62.3025 60.2887 61.3988C57.8387 60.5821 55.3303 59.5525 52.927 58.558C49.1358 56.8487 45.194 55.4954 41.1524 54.5155C34.7632 52.6558 30.2293 46.9852 29.8212 40.3434ZM31.4895 60.9438C34.0059 59.7822 36.8386 59.4958 39.5366 60.13C39.7756 60.2094 40.0234 60.2594 40.2745 60.2788C43.8423 61.2081 47.3255 62.4365 50.687 63.9509C53.1953 64.9834 55.7883 66.0538 58.4308 66.9346C62.4956 68.0099 66.6704 68.6157 70.8733 68.74C79.1828 69.3613 88.6066 70.0642 95.5191 75.25C96.3527 75.8752 97.4566 76.0082 98.4148 75.5989C99.3731 75.1896 100.04 74.3001 100.165 73.2656C100.289 72.231 99.8527 71.2086 99.0191 70.5834C96.6318 68.8332 94.0052 67.4354 91.2199 66.433C87.8549 46.2759 88.717 25.6395 93.7516 5.83337H97.1233C99.8813 5.92102 102.486 7.12151 104.345 9.16129C107.241 12.1991 108.881 16.2199 108.936 20.4167C108.936 23.5317 109.067 27.5713 109.227 32.2234C109.755 48.3584 110.54 72.3713 106.687 90.1746C97.8524 89.1859 67.1137 84.875 40.6566 70.5338C37.0707 67.3691 32.6744 65.2653 27.9603 64.4584C28.705 62.9247 29.9497 61.6903 31.4895 60.9584V60.9438ZM24.3087 70H24.3524C28.9837 70.1264 33.4202 71.8905 36.8737 74.9788C37.0712 75.175 37.295 75.3429 37.5387 75.4775C52.2275 83.1991 67.9101 88.8601 84.1441 92.3009C83.9548 100.14 85.5506 107.919 88.8108 115.051C98.0653 133.531 103.654 159.877 105.436 169.167H24.5012C24.9499 163.157 26.3274 157.254 28.5845 151.667C37.6205 155.869 47.4771 158.01 57.442 157.938C60.1413 157.938 62.8385 157.788 65.5212 157.488C66.5569 157.373 67.4523 156.713 67.8701 155.758C68.2878 154.804 68.1644 153.698 67.5463 152.859C66.9282 152.02 65.9094 151.574 64.8737 151.69C52.4142 153.228 39.7811 150.951 28.6428 145.16C18.697 139.618 6.85243 128.161 6.85243 105C6.85243 89.8129 12.7703 78.0763 24.3087 70Z" fill="#0E2B72"/>
<path d="M31.7597 129.022C33.4164 130.404 35.178 131.877 37.0301 133.464C38.1216 134.398 39.7303 134.398 40.8218 133.464C42.6739 131.877 44.4355 130.404 46.0922 129.022C55.8455 120.896 62.2622 115.529 62.2622 107.211C62.3984 103.62 61.0838 100.126 58.6147 97.5153C56.1457 94.9047 52.7299 93.3975 49.1372 93.3335C45.2751 93.3282 41.5818 94.9163 38.9289 97.7231C36.2759 94.9163 32.5827 93.3282 28.7206 93.3335C25.1279 93.3975 21.7121 94.9047 19.243 97.5153C16.774 100.126 15.4594 103.62 15.5956 107.211C15.5956 115.529 22.0122 120.896 31.7597 129.022ZM28.7206 99.1668C31.9093 99.2781 34.8019 101.066 36.3272 103.869C36.8236 104.84 37.8205 105.453 38.9114 105.458H38.9289C40.0228 105.454 41.0234 104.841 41.5247 103.869C43.0506 101.064 45.9462 99.2755 49.1372 99.1668C51.1852 99.2263 53.1204 100.118 54.4964 101.636C55.8724 103.154 56.5702 105.167 56.4289 107.211C56.4289 112.799 51.1351 117.221 42.3618 124.545C41.2622 125.464 40.116 126.417 38.9289 127.421C37.7418 126.417 36.5955 125.464 35.496 124.545C26.7226 117.221 21.4289 112.799 21.4289 107.211C21.2875 105.167 21.9853 103.154 23.3613 101.636C24.7373 100.118 26.6726 99.2263 28.7206 99.1668Z" fill="#FFB400"/>
</svg>
