<svg width="54" height="54" viewBox="0 0 54 54" fill="none" xmlns="http://www.w3.org/2000/svg">
<path d="M27.7028 1.00292C29.0036 1.40832 29.9078 2.20454 30.2023 3.58116C30.5757 5.32526 29.4469 7.06353 27.697 7.45435C25.9617 7.84517 24.1855 6.73104 23.783 4.99569C23.3659 3.20784 24.2992 1.70872 26.2679 1H27.7058L27.7028 1.00292ZM28.6041 4.22572C28.6011 3.3245 27.8691 2.58661 26.9825 2.58661C26.0871 2.58661 25.3667 3.31575 25.3638 4.22572C25.3579 5.15902 26.0987 5.90857 27.0087 5.88816C27.9099 5.86774 28.607 5.14152 28.6041 4.22863V4.22572Z" fill="#FFB400"/>
<path d="M4 15.0642C4.63581 13.3056 5.74702 12.4423 7.33363 12.4714C8.92607 12.5006 10.3639 13.8101 10.4981 15.3559C10.6527 17.1496 9.55897 18.6691 7.88486 18.987C6.29242 19.2874 4.75831 18.4387 4.17499 16.9308C4.11666 16.785 4.05833 16.6421 4 16.5021V15.0642ZM7.24322 14.1484C6.3245 14.1484 5.61869 14.8309 5.60119 15.7467C5.58369 16.6129 6.33908 17.3858 7.21697 17.3946C8.12985 17.4033 8.89982 16.6479 8.88816 15.7496C8.87649 14.8513 8.15318 14.1484 7.24322 14.1484Z" fill="#FFB400"/>
<path d="M4 38.0514C4.30332 37.1705 4.76414 36.4152 5.60703 35.9427C7.21697 35.0356 9.23814 35.5985 10.1219 37.2143C11.0172 38.8476 10.3814 40.8862 8.71316 41.7291C7.07114 42.5574 5.07913 41.875 4.27999 40.2009C4.16916 39.9704 4.09041 39.7255 4 39.4863C4 39.008 4 38.5297 4 38.0484L4 38.0514ZM7.19655 40.4021C8.1386 40.4196 8.87941 39.7167 8.88816 38.798C8.89691 37.9201 8.15902 37.1705 7.26655 37.1589C6.38283 37.1443 5.62452 37.8734 5.60411 38.7572C5.58078 39.6584 6.28658 40.3875 7.19655 40.4021Z" fill="#FFB400"/>
<path d="M40.145 27.3073C40.145 29.2555 40.1275 31.2067 40.1508 33.155C40.1654 34.3099 39.7017 35.1441 38.6955 35.7216C35.2568 37.6932 31.824 39.6823 28.3971 41.6713C27.4521 42.2197 26.5305 42.2255 25.5826 41.6772C22.1527 39.6881 18.7228 37.6961 15.2842 35.7274C14.2751 35.1499 13.8114 34.3245 13.8172 33.1696C13.8318 29.2555 13.8347 25.3386 13.8172 21.4246C13.8114 20.2521 14.2634 19.4122 15.2959 18.823C18.7258 16.866 22.1381 14.8827 25.5505 12.8995C26.513 12.3395 27.4463 12.3337 28.4117 12.8936C31.8561 14.8915 35.3035 16.8864 38.7538 18.8697C39.7075 19.418 40.1537 20.22 40.1508 21.3108C40.1421 23.3116 40.1508 25.3124 40.1508 27.3131L40.145 27.3073ZM22.5231 23.7082C22.6719 23.8162 22.7506 23.8832 22.8352 23.9328C24.0952 24.659 25.358 25.3765 26.6092 26.1115C26.8805 26.2719 27.0846 26.269 27.3559 26.1115C29.0504 25.1169 30.7566 24.1399 32.4599 23.157C33.4515 22.5854 34.4373 22.0021 35.4377 21.445C35.8664 21.2058 36.3243 21.3371 36.5576 21.7133C36.7909 22.0896 36.6859 22.5475 36.2864 22.8362C36.1056 22.9645 35.9101 23.0724 35.7177 23.1833C33.2298 24.6182 30.7449 26.059 28.2542 27.4852C27.9567 27.6573 27.8109 27.8498 27.8138 28.2114C27.8254 31.9913 27.8254 35.7711 27.8138 39.5481C27.8138 39.9856 27.9013 40.0556 28.2921 39.8281C31.4391 37.9965 34.5889 36.1678 37.7505 34.3624C38.2784 34.062 38.4826 33.6916 38.4796 33.085C38.4592 29.2031 38.4592 25.3211 38.4796 21.4392C38.4796 20.8559 38.2901 20.4854 37.7767 20.1996C36.3885 19.4267 35.0148 18.6247 33.6498 17.811C33.3115 17.6068 33.0519 17.6068 32.7136 17.8051C31.1387 18.7355 29.5491 19.6426 27.9654 20.5554C26.1776 21.5908 24.3897 22.6262 22.526 23.7024L22.5231 23.7082ZM26.1397 33.8637C26.1397 31.9825 26.1338 30.1043 26.1455 28.2231C26.1455 27.8993 26.0609 27.6806 25.7634 27.5144C24.5414 26.8261 23.3252 26.1348 22.1206 25.4174C21.6919 25.1607 21.6598 25.324 21.6686 25.7119C21.6861 26.4965 21.6832 27.284 21.6686 28.0714C21.6569 28.576 21.339 28.9114 20.8986 28.9406C20.4699 28.9697 20.1257 28.6635 20.0411 28.1618C20.0091 27.9606 20.0061 27.7535 20.0032 27.5494C20.0003 26.6102 19.9857 25.6682 20.0091 24.729C20.0178 24.3353 19.8632 24.1078 19.5249 23.9182C18.3612 23.2678 17.2121 22.5941 16.0571 21.9262C15.5146 21.6142 15.4913 21.6258 15.4913 22.2675C15.4913 25.8898 15.5001 29.5151 15.4796 33.1375C15.4767 33.7296 15.7013 34.0766 16.2059 34.3624C19.3645 36.1678 22.5144 37.9936 25.6584 39.8223C26.0201 40.0322 26.1484 40.0264 26.1426 39.5568C26.1251 37.6611 26.1367 35.7624 26.1367 33.8637H26.1397ZM31.3895 16.5598C31.3166 16.5073 31.2407 16.4402 31.1532 16.3906C29.9399 15.6877 28.7267 14.9848 27.5104 14.2878C27.1167 14.0632 26.7346 14.1157 26.3467 14.3403C23.1356 16.201 19.9245 18.056 16.7075 19.9021C16.375 20.0946 16.3517 20.1909 16.7017 20.3892C17.9529 21.095 19.1953 21.8154 20.432 22.5445C20.7207 22.7166 20.954 22.7079 21.2369 22.5387C22.1177 22.0137 23.0102 21.5092 23.8997 20.9958C26.2972 19.6105 28.6946 18.2251 31.092 16.8368C31.2028 16.7727 31.3574 16.7464 31.3895 16.5539V16.5598Z" fill="#0E2B72"/>
<path d="M27.0087 47.0469C28.8111 47.0527 30.2782 48.5081 30.284 50.3018C30.2928 52.1334 28.7966 53.5975 26.93 53.5858C25.1392 53.5742 23.6722 52.0925 23.678 50.3018C23.6867 48.4906 25.1654 47.0411 27.0058 47.0469H27.0087ZM25.3638 50.293C25.355 51.203 26.0492 51.9351 26.9504 51.9671C27.8253 51.9963 28.5895 51.2555 28.6041 50.3601C28.6216 49.421 27.9099 48.6714 26.9912 48.6656C26.0958 48.6598 25.3696 49.3831 25.3638 50.293Z" fill="#FFB400"/>
<path d="M43.4465 38.8073C43.4348 36.9903 44.9135 35.4912 46.7247 35.4883C48.5067 35.4825 49.9912 36.9641 50 38.7578C50.0087 40.5952 48.5592 42.0797 46.7509 42.0885C44.9281 42.0972 43.4611 40.6419 43.4465 38.8103V38.8073ZM46.7072 40.4056C47.6347 40.4115 48.3434 39.7319 48.3551 38.8248C48.3667 37.9295 47.6463 37.177 46.7626 37.1624C45.8468 37.1449 45.0768 37.8915 45.0798 38.7898C45.0798 39.6881 45.8001 40.3998 46.7072 40.4056Z" fill="#FFB400"/>
<path d="M43.4494 15.707C43.4844 13.8491 44.9776 12.4288 46.8413 12.4696C48.6321 12.5104 50.032 14.0271 50 15.8878C49.9679 17.629 48.4192 19.1135 46.6867 19.0669C44.8522 19.0173 43.4144 17.524 43.4494 15.707ZM48.3521 15.7566C48.3608 14.8495 47.655 14.1495 46.7334 14.1466C45.8205 14.1437 45.0972 14.8379 45.0768 15.7332C45.0564 16.6286 45.8205 17.3928 46.7305 17.3928C47.6171 17.3928 48.3433 16.6578 48.3492 15.7566H48.3521Z" fill="#FFB400"/>
<path d="M6.22533 27.2523C6.22533 25.3887 6.23116 23.5221 6.22241 21.6584C6.22241 21.1655 6.41199 20.8272 6.89905 20.7105C7.30446 20.6142 7.72736 20.8913 7.81485 21.3317C7.87319 21.6321 7.88777 21.9442 7.88777 22.2504C7.8936 25.6016 7.89068 28.9556 7.88777 32.3067C7.88777 32.5284 7.88194 32.753 7.8586 32.9717C7.79152 33.5521 7.45903 33.8904 7.00113 33.8613C6.52865 33.8321 6.23116 33.4734 6.22825 32.8959C6.22241 31.3384 6.22825 29.7839 6.22825 28.2265C6.22825 27.9027 6.22825 27.5761 6.22825 27.2523H6.22533Z" fill="#0E2B72"/>
<path d="M47.7426 27.3008C47.7426 29.0974 47.7426 30.894 47.7426 32.6877C47.7426 32.8598 47.7543 33.0348 47.7193 33.1981C47.6347 33.5977 47.3634 33.8252 46.9668 33.8514C46.5585 33.8777 46.2639 33.656 46.1676 33.2681C46.0889 32.959 46.0831 32.6236 46.0801 32.3027C46.0743 28.9516 46.0772 25.5976 46.0801 22.2464C46.0801 22.0073 46.0889 21.7681 46.1181 21.529C46.1881 20.9836 46.5235 20.6627 46.9668 20.689C47.4247 20.7182 47.7251 21.0652 47.7426 21.6019C47.7513 21.876 47.7426 22.1502 47.7426 22.4214C47.7426 24.046 47.7426 25.6705 47.7426 27.295V27.3008Z" fill="#0E2B72"/>
<path d="M42.6036 12.7771C42.6182 13.4362 41.9474 13.8095 41.3203 13.4654C40.4804 13.0046 39.6608 12.5117 38.8325 12.0304C36.508 10.6888 34.1835 9.34721 31.8619 8.00559C31.7744 7.9531 31.684 7.90351 31.5965 7.8481C31.1765 7.56519 31.0424 7.13937 31.2524 6.74564C31.474 6.32857 31.9319 6.17399 32.3986 6.42773C33.2852 6.90897 34.1514 7.4252 35.0235 7.92976C37.3188 9.25388 39.6112 10.578 41.9066 11.9021C42.2536 12.1034 42.5861 12.3134 42.6007 12.7771H42.6036Z" fill="#0E2B72"/>
<path d="M12.1926 13.6136C11.8251 13.5874 11.5393 13.4241 11.4138 13.0595C11.2797 12.6716 11.3993 12.3391 11.7318 12.1174C12.1138 11.8608 12.5221 11.642 12.9217 11.4116C15.6749 9.81919 18.4253 8.22966 21.1785 6.63722C21.3127 6.56139 21.4439 6.47973 21.5839 6.41556C22.0476 6.20557 22.4705 6.32223 22.7009 6.71305C22.9255 7.0922 22.8234 7.56177 22.4034 7.82718C21.826 8.19175 21.2252 8.52132 20.6331 8.86547C18.0578 10.3529 15.4824 11.8374 12.9071 13.3249C12.6855 13.4532 12.4696 13.5932 12.1955 13.6136H12.1926Z" fill="#0E2B72"/>
<path d="M12.1577 40.9355C12.3881 40.9385 12.5835 41.0435 12.7789 41.1543C15.9025 42.9567 19.0262 44.7592 22.1498 46.5587C22.2081 46.5937 22.2694 46.6258 22.3248 46.6637C22.7973 46.9757 22.9402 47.4366 22.6923 47.842C22.4385 48.2561 21.9865 48.3611 21.479 48.0811C20.7469 47.6757 20.0265 47.247 19.3003 46.8299C16.9321 45.4621 14.5638 44.0942 12.1956 42.7263C12.0031 42.6155 11.8048 42.5076 11.6385 42.3647C11.3702 42.1313 11.2856 41.8222 11.411 41.4809C11.5364 41.1397 11.8018 40.9764 12.1547 40.9355H12.1577Z" fill="#0E2B72"/>
<path d="M31.9348 48.2417C31.5907 48.23 31.3136 48.0404 31.1998 47.6817C31.0715 47.2763 31.2086 46.9351 31.579 46.7163C32.5356 46.1534 33.4981 45.5935 34.4576 45.0393C36.6771 43.756 38.8996 42.4756 41.122 41.1982C41.297 41.0961 41.4865 40.9853 41.682 40.959C42.0786 40.9036 42.3848 41.0844 42.5394 41.4607C42.694 41.8398 42.589 42.184 42.2623 42.4144C41.9153 42.6594 41.5361 42.8636 41.1657 43.0794C38.3396 44.7126 35.5134 46.3459 32.6844 47.9763C32.4627 48.1046 32.244 48.2417 31.9319 48.2446L31.9348 48.2417Z" fill="#0E2B72"/>
</svg>
