<svg width="100" height="101" viewBox="0 0 100 101" fill="none" xmlns="http://www.w3.org/2000/svg">
<g clip-path="url(#clip0_11270_80583)">
<path d="M58.4833 56.9167H57.0717C56.5407 56.9177 56.0657 56.5865 55.8833 56.0877C55.7267 55.677 55.5586 55.2754 55.3777 54.8775C55.1528 54.3937 55.2554 53.8209 55.6343 53.4453L56.6405 52.4379C58.1341 50.9311 58.1314 48.5011 56.634 46.9979L53.0074 43.3712C51.5022 41.8748 49.0712 41.8748 47.566 43.3712L46.5599 44.376C46.1835 44.7535 45.6117 44.856 45.1277 44.6327C44.7299 44.4517 44.3282 44.2836 43.9162 44.1193C43.4149 43.9382 43.0814 43.4615 43.0833 42.9284V41.5167C43.0833 39.3904 41.3597 37.6667 39.2333 37.6667H34.1C31.9737 37.6667 30.25 39.3904 30.25 41.5167V42.9284C30.251 43.4594 29.9197 43.9344 29.421 44.1168C29.0103 44.2733 28.6086 44.4415 28.2108 44.6224C27.7268 44.8462 27.1548 44.7437 26.7786 44.3657L25.7712 43.3596C24.2661 41.8642 21.8361 41.8642 20.3311 43.3596L16.7044 46.9979C15.2081 48.5031 15.2081 50.934 16.7044 52.4392L17.7093 53.4453C18.0882 53.8209 18.1908 54.3937 17.9659 54.8775C17.785 55.2754 17.6169 55.677 17.459 56.089C17.2753 56.5906 16.7959 56.9222 16.2617 56.9167H14.85C12.7237 56.9167 11 58.6404 11 60.7667V65.9001C11 68.0264 12.7237 69.7501 14.85 69.7501H16.2617C16.7926 69.7491 17.2676 70.0804 17.45 70.5791C17.6066 70.9898 17.7747 71.3915 17.9557 71.7893C18.1806 72.2731 18.0779 72.846 17.699 73.2215L16.6929 74.2289C15.1975 75.7339 15.1975 78.1639 16.6929 79.669L20.3196 83.2957C21.8248 84.792 24.2557 84.792 25.7609 83.2957L26.767 82.2908C27.1434 81.9134 27.7153 81.8108 28.1992 82.0341C28.5971 82.2151 28.9987 82.3832 29.4107 82.5475C29.9146 82.7265 30.251 83.2037 30.25 83.7384V85.1501C30.25 87.2764 31.9737 89.0001 34.1 89.0001H39.2333C41.3597 89.0001 43.0833 87.2764 43.0833 85.1501V83.7384C43.0824 83.2074 43.4136 82.7324 43.9124 82.55C44.323 82.3935 44.7247 82.2254 45.1226 82.0444C45.6065 81.8206 46.1786 81.9231 46.5547 82.3011L47.5622 83.3072C49.0693 84.8002 51.4986 84.7973 53.0022 83.3008L56.6289 79.6741C58.1253 78.1689 58.1253 75.738 56.6289 74.2328L55.6241 73.2266C55.2452 72.8511 55.1425 72.2782 55.3674 71.7944C55.5483 71.3966 55.7165 70.9949 55.8807 70.583C56.0618 70.0817 56.5386 69.7482 57.0717 69.7501H58.4833C60.6097 69.7501 62.3333 68.0264 62.3333 65.9001V60.7667C62.3333 58.6404 60.6097 56.9167 58.4833 56.9167ZM59.7667 65.9001C59.7667 66.6088 59.1921 67.1834 58.4833 67.1834H57.0717C55.4763 67.1894 54.0486 68.1754 53.4783 69.6654C53.3423 70.0247 53.1952 70.3784 53.0369 70.7267C52.3771 72.1833 52.6831 73.8959 53.8069 75.0336L54.8104 76.0384C55.3119 76.5392 55.3124 77.3519 54.8114 77.8534C54.8111 77.8537 54.8108 77.854 54.8104 77.8543L51.1837 81.481C50.6826 81.982 49.8702 81.982 49.3691 81.481L48.363 80.4762C47.2258 79.3515 45.5125 79.0453 44.0561 79.7062C43.7083 79.864 43.3541 80.0116 42.9974 80.1476C41.5085 80.7178 40.5231 82.1442 40.5167 83.7384V85.1501C40.5167 85.8588 39.9421 86.4334 39.2333 86.4334H34.1C33.3913 86.4334 32.8167 85.8588 32.8167 85.1501V83.7384C32.8107 82.1431 31.8246 80.7154 30.3347 80.1451C29.9754 80.009 29.6216 79.8619 29.2734 79.7036C27.8168 79.0441 26.1044 79.3504 24.9665 80.4736L23.9617 81.4772C23.4608 81.9786 22.6482 81.9791 22.1467 81.4781C22.1464 81.4778 22.1461 81.4775 22.1458 81.4772L18.5191 77.8543C18.0181 77.3532 18.0181 76.5408 18.5191 76.0397L19.5239 75.0336C20.6476 73.8959 20.9537 72.1833 20.2939 70.7267C20.1361 70.3789 19.9885 70.0247 19.8524 69.6679C19.2836 68.1775 17.8568 67.1905 16.2617 67.1834H14.85C14.1413 67.1834 13.5667 66.6088 13.5667 65.9001V60.7667C13.5667 60.058 14.1413 59.4834 14.85 59.4834H16.2617C17.857 59.4775 19.2847 58.4914 19.855 57.0014C19.991 56.6421 20.1381 56.2884 20.2965 55.9401C20.9563 54.4835 20.65 52.7709 19.5265 51.6333L18.5178 50.6284C18.0163 50.1276 18.0158 49.3149 18.5168 48.8135C18.5171 48.8131 18.5174 48.8128 18.5178 48.8125L22.1445 45.1858C22.6456 44.6848 23.458 44.6848 23.9591 45.1858L24.9652 46.1906C26.1024 47.3153 27.8157 47.6216 29.2721 46.9606C29.6199 46.8028 29.9741 46.6552 30.3308 46.5192C31.8218 45.9508 32.8094 44.5239 32.8167 42.9284V41.5167C32.8167 40.808 33.3913 40.2334 34.1 40.2334H39.2333C39.9421 40.2334 40.5167 40.808 40.5167 41.5167V42.9284C40.5226 44.5238 41.5087 45.9515 42.9986 46.5217C43.358 46.6578 43.7117 46.8049 44.0599 46.9632C45.5164 47.6241 47.2296 47.3179 48.3668 46.1932L49.3717 45.1896C49.8747 44.692 50.6845 44.692 51.1876 45.1896L54.8143 48.8163C55.3153 49.3175 55.3153 50.1298 54.8143 50.631L53.8094 51.6371C52.6859 52.7748 52.3796 54.4874 53.0394 55.944C53.1973 56.2918 53.3449 56.646 53.4809 57.0027C54.051 58.4916 55.4774 59.477 57.0717 59.4834H58.4833C59.1921 59.4834 59.7667 60.058 59.7667 60.7667V65.9001Z" fill="#0E2B72"/>
<path d="M48.1904 62.8199C48.1775 62.5119 48.1557 62.2052 48.1185 61.8997C48.0774 61.5712 48.0287 61.2452 47.9606 60.9257C47.9157 60.7165 47.8567 60.5099 47.8002 60.302C47.7284 60.0376 47.6475 59.7771 47.5577 59.5204C47.4948 59.342 47.4293 59.1649 47.3626 58.9891C47.1974 58.5781 47.0084 58.1769 46.7967 57.7879C46.78 57.7584 46.7697 57.7263 46.753 57.6968C46.4192 57.1026 46.0326 56.5394 45.598 56.0144C45.5608 55.9682 45.5185 55.9245 45.48 55.8796C45.3029 55.6704 45.1206 55.4677 44.9294 55.2739C44.8293 55.1699 44.7241 55.0724 44.6188 54.9723C44.4905 54.8529 44.3622 54.7349 44.2338 54.6219C44.0781 54.4867 43.9194 54.3558 43.7577 54.2292L43.5473 54.0727C41.5615 52.5853 39.147 51.7819 36.666 51.7832C36.5377 51.7832 36.4094 51.8025 36.281 51.8076C36.0077 51.8153 35.733 51.8307 35.4571 51.8589C35.3121 51.8743 35.1658 51.891 35.0208 51.9115C34.6024 51.9666 34.1873 52.0442 33.7772 52.1438C27.5978 53.7406 23.8829 60.0447 25.4797 66.2241C26.532 70.2961 29.7134 73.4749 33.7862 74.5239C33.8068 74.5239 33.8286 74.5303 33.8504 74.5354C34.2936 74.6459 34.7426 74.7318 35.1953 74.7921C35.4943 74.8293 35.7934 74.837 36.0937 74.8511C36.2939 74.8614 36.4787 74.8909 36.6878 74.8909C37.0536 74.8909 37.4335 74.8665 37.821 74.828C37.8621 74.828 37.9032 74.8165 37.9494 74.8113C38.2612 74.7767 38.5769 74.7305 38.899 74.6663C39.0274 74.6419 39.1467 74.6099 39.2699 74.5816C39.4958 74.529 39.7204 74.4738 39.9514 74.4058C40.131 74.3519 40.3056 74.289 40.4814 74.2274C40.6572 74.1658 40.8394 74.0991 41.0217 74.0298C41.2039 73.9605 41.3566 73.8809 41.5222 73.8039C41.7378 73.7051 41.9521 73.6076 42.1638 73.4921H42.1715C43.3692 72.8509 44.4754 72.052 45.4607 71.1166C45.7268 70.8683 45.9583 70.585 46.1486 70.2748C47.1502 68.669 47.8083 66.8731 48.0813 65.0003C48.1172 64.7526 48.1493 64.5049 48.1685 64.2521C48.1865 64.0198 48.1993 63.7888 48.2045 63.5578C48.2045 63.4846 48.2147 63.4153 48.2147 63.3422C48.216 63.1612 48.1981 62.9944 48.1904 62.8199ZM45.6327 63.6605C45.6327 63.767 45.6237 63.8735 45.6173 63.9787C45.5942 64.2893 45.5544 64.5999 45.5018 64.9117C45.0221 67.5799 43.3655 69.8899 40.9921 71.2C40.833 71.2835 40.6764 71.3617 40.5199 71.4336L40.4134 71.4849C39.6677 71.8234 38.8807 72.0616 38.0726 72.1933C38.0161 72.2023 37.9583 72.2126 37.9006 72.2203C37.7402 72.2434 37.5823 72.2626 37.4258 72.2768C37.2191 72.2947 37.0112 72.305 36.7995 72.3088C36.7097 72.3088 36.6211 72.3088 36.5313 72.3088C36.2276 72.3053 35.9244 72.2865 35.6227 72.2524L35.4687 72.2344C35.1158 72.1882 34.7657 72.1223 34.4202 72.0368C29.6138 70.8065 26.7147 65.9129 27.9448 61.1065C28.7576 57.9305 31.2361 55.4495 34.4112 54.6335V54.6322C35.1485 54.4463 35.9057 54.3513 36.666 54.3499C37.0329 54.352 37.3995 54.3768 37.7633 54.4243C37.8608 54.4359 37.9571 54.4538 38.0533 54.4679C38.3305 54.5116 38.6051 54.5668 38.8759 54.6361C38.9645 54.6592 39.053 54.6797 39.1403 54.7041C39.8227 54.9011 40.4796 55.1776 41.0974 55.528C41.1962 55.5857 41.2924 55.646 41.39 55.7064C41.5927 55.8347 41.7891 55.963 41.9829 56.1093C42.0868 56.185 42.1921 56.2595 42.2922 56.3403C42.544 56.5415 42.7851 56.7556 43.0147 56.982C43.1058 57.0744 43.1892 57.1758 43.2778 57.272C43.4253 57.4324 43.5691 57.5967 43.7064 57.77C43.8014 57.8893 43.8925 58.0125 43.9823 58.137C44.1106 58.3218 44.239 58.5143 44.3545 58.7094C44.4186 58.8159 44.4828 58.9198 44.5483 59.0289C44.7138 59.3335 44.8612 59.6476 44.9897 59.9696C45.0411 60.0979 45.0847 60.2263 45.1309 60.3546C45.2143 60.5907 45.2862 60.8294 45.3491 61.0707C45.3811 61.199 45.4171 61.3132 45.444 61.4377C45.5189 61.7845 45.5733 62.1355 45.607 62.4888C45.6147 62.5825 45.6147 62.6774 45.6211 62.7711C45.6391 63.0663 45.6442 63.3627 45.6327 63.6605Z" fill="#FFB400"/>
<path d="M84.1518 38.95H80.1158C79.5776 38.9555 79.0962 38.6165 78.9197 38.1081C78.5217 36.9161 78.0401 35.7534 77.4785 34.629C77.2401 34.1434 77.3394 33.5597 77.7249 33.1801L80.5867 30.3144C82.0889 28.8112 82.0889 26.3751 80.5867 24.8718L75.13 19.4241C73.6267 17.9219 71.1907 17.9219 69.6874 19.4241L66.8268 22.2833C66.4478 22.6687 65.8648 22.7684 65.3792 22.531C64.2547 21.9665 63.0917 21.4824 61.8988 21.0821C61.3884 20.9075 61.047 20.4256 61.0518 19.8861V15.85C61.0518 13.7237 59.3282 12 57.2018 12H49.5018C47.3755 12 45.6518 13.7237 45.6518 15.85V19.8861C45.6573 20.4243 45.3185 20.9057 44.81 21.0821C43.6178 21.4822 42.4551 21.966 41.3309 22.5297C40.8453 22.7689 40.2612 22.6696 39.882 22.2833L37.0163 19.4215C35.5113 17.9237 33.0787 17.9237 31.5737 19.4215L26.1272 24.868C24.6243 26.3714 24.6243 28.8085 26.1272 30.3119L30.3353 34.5276C30.8443 35.0208 31.6568 35.0079 32.1499 34.4988C32.631 34.0021 32.6321 33.2135 32.1525 32.7156L27.9418 28.5011C27.4409 28 27.4409 27.1876 27.9418 26.6865L33.3883 21.24C33.8895 20.739 34.7018 20.739 35.2029 21.24L38.0699 24.1018C39.2299 25.2687 41.0073 25.5603 42.4794 24.8256C43.496 24.3166 44.5471 23.8797 45.6249 23.5179C47.1806 22.9913 48.2252 21.5286 48.2185 19.8861V15.85C48.2185 15.1413 48.7931 14.5667 49.5018 14.5667H57.2018C57.9106 14.5667 58.4852 15.1413 58.4852 15.85V19.8861C58.4786 21.5283 59.5232 22.9905 61.0788 23.5166C62.1571 23.8785 63.2086 24.3158 64.2255 24.8256C65.698 25.5565 67.473 25.2645 68.6338 24.1005L71.5007 21.24C72.0019 20.739 72.8142 20.739 73.3154 21.24L78.7618 26.6877C79.262 27.1887 79.262 28.0001 78.7618 28.5011L75.9 31.3681C74.7343 32.5287 74.4428 34.3053 75.1762 35.7776C75.6852 36.7942 76.1222 37.8452 76.4839 38.923C77.0103 40.4791 78.4731 41.5237 80.1158 41.5167H84.1518C84.8606 41.5167 85.4352 42.0913 85.4352 42.8V50.5C85.4352 51.2087 84.8606 51.7833 84.1518 51.7833H80.1158C78.4736 51.7768 77.0114 52.8214 76.4852 54.3769C76.1235 55.4553 75.686 56.5068 75.1762 57.5237C74.4441 58.996 74.7362 60.7716 75.9013 61.9319L78.7631 64.7989C79.2641 65.3 79.2641 66.1124 78.7631 66.6135L73.3141 72.06C72.8131 72.5602 72.0017 72.5602 71.5007 72.06L67.2837 67.8519C66.7906 67.3428 65.9781 67.33 65.4691 67.8231C64.9599 68.3162 64.9471 69.1287 65.4402 69.6377C65.4505 69.6483 65.4611 69.6589 65.4716 69.6691L69.6874 73.8772C71.1907 75.3793 73.6267 75.3793 75.13 73.8772L80.5765 68.432C82.0794 66.9286 82.0794 64.4915 80.5765 62.9881L77.7185 60.125C77.3335 59.7458 77.2339 59.163 77.4708 58.6774C78.0353 57.5529 78.5195 56.3899 78.9197 55.197C79.0944 54.6866 79.5763 54.3452 80.1158 54.35H84.1518C86.2782 54.35 88.0018 52.6263 88.0018 50.5V42.8C88.0018 40.6737 86.2782 38.95 84.1518 38.95Z" fill="#0E2B72"/>
<path d="M65.1444 34.8534C58.6254 28.348 48.0706 28.348 41.5516 34.8534C41.0593 35.3632 41.0734 36.1757 41.5832 36.668C42.0805 37.1483 42.8689 37.1483 43.3662 36.668C48.8421 31.1183 57.78 31.0584 63.3298 36.5342C68.8795 42.0101 68.9394 50.948 63.4636 56.4978C63.4193 56.5427 63.3747 56.5873 63.3298 56.6316C62.82 57.124 62.8058 57.9364 63.2983 58.4462C63.7908 58.956 64.6031 58.9701 65.113 58.4776C65.1235 58.4674 65.1341 58.4568 65.1444 58.4462C71.6498 51.9272 71.6498 41.3724 65.1444 34.8534Z" fill="#0E2B72"/>
</g>
<defs>
<clipPath id="clip0_11270_80583">
<rect width="77" height="77" fill="white" transform="translate(11 12)"/>
</clipPath>
</defs>
</svg>
