<svg width="54" height="54" viewBox="0 0 54 54" fill="none" xmlns="http://www.w3.org/2000/svg">
<path d="M47.5293 45.0586H46.541V26.9102H47.5293C48.8917 26.9102 50 25.8018 50 24.4395C50 23.0771 48.8917 21.9688 47.5293 21.9688H46.541V19.0488C46.541 17.6864 45.4327 16.5781 44.0703 16.5781H42.7953C42.8946 16.2134 42.9473 15.8354 42.9473 15.4551C42.9473 13.102 41.0328 11.1875 38.6797 11.1875H38.0792C36.1822 6.9555 31.9299 4 27 4C22.0701 4 17.8178 6.9555 15.9208 11.1875H15.3203C12.9672 11.1875 11.0527 13.102 11.0527 15.4551C11.0527 15.8354 11.1055 16.2134 11.2047 16.5781H9.92969C8.5673 16.5781 7.45898 17.6864 7.45898 19.0488V21.9688H6.4707C5.10831 21.9688 4 23.0771 4 24.4395C4 25.8018 5.10831 26.9102 6.4707 26.9102H7.45898V45.0586H6.4707C5.10831 45.0586 4 46.1669 4 47.5293C4 48.8917 5.10831 50 6.4707 50H47.5293C48.8917 50 50 48.8917 50 47.5293C50 46.1669 48.8917 45.0586 47.5293 45.0586ZM48.6523 24.4395C48.6523 25.0587 48.1486 25.5625 47.5293 25.5625H34.6291C35.4358 24.9084 36.1572 24.1534 36.7739 23.3164H47.5293C48.1486 23.3164 48.6523 23.8202 48.6523 24.4395ZM45.1934 19.0488V21.9688H37.6364C38.3157 20.7353 38.7867 19.3718 39.0016 17.9258H44.0703C44.6896 17.9258 45.1934 18.4295 45.1934 19.0488ZM38.6797 12.5352C40.2897 12.5352 41.5996 13.8451 41.5996 15.4551C41.5996 15.8416 41.5215 16.2243 41.3744 16.5781H39.1252C39.1305 16.4307 39.1342 16.2829 39.1342 16.1342C39.1342 14.8816 38.9434 13.6728 38.5894 12.5352H38.6797ZM27 5.34766C32.9477 5.34766 37.7865 10.1865 37.7865 16.1342C37.7865 22.082 32.9477 26.9207 27 26.9207C21.0523 26.9207 16.2134 22.0819 16.2134 16.1341C16.2134 10.1864 21.0523 5.34766 27 5.34766ZM12.4004 15.4551C12.4004 13.8451 13.7103 12.5352 15.3203 12.5352H15.4107C15.0567 13.6728 14.8659 14.8816 14.8659 16.1342C14.8659 16.2829 14.8696 16.4308 14.8749 16.5781H12.6256C12.4785 16.2243 12.4004 15.8416 12.4004 15.4551ZM8.80664 19.0488C8.80664 18.4295 9.31039 17.9258 9.92969 17.9258H14.9983C15.2132 19.3718 15.6842 20.7353 16.3635 21.9688H8.80664V19.0488ZM5.34766 24.4395C5.34766 23.8202 5.85141 23.3164 6.4707 23.3164H17.2262C17.8429 24.1534 18.5642 24.9084 19.371 25.5625H6.4707C5.85141 25.5625 5.34766 25.0587 5.34766 24.4395ZM8.80664 26.9102H21.4239C21.4247 26.9102 21.4254 26.9101 21.426 26.9101C23.096 27.7774 24.9916 28.2683 27 28.2683C29.0085 28.2683 30.9042 27.7773 32.5743 26.9099C32.5762 26.9099 32.5779 26.9102 32.5798 26.9102H45.1934V45.0586H36.6582V32.9851C36.6582 31.6227 35.5499 30.5144 34.1875 30.5144H19.8125C18.4501 30.5144 17.3418 31.6227 17.3418 32.9851V38.3723C17.3418 38.7445 17.6435 39.0462 18.0156 39.0462C18.3878 39.0462 18.6895 38.7445 18.6895 38.3723V32.9851C18.6895 32.3658 19.1932 31.8621 19.8125 31.8621H26.3262V45.0586H18.6895V41.0677C18.6895 40.6956 18.3878 40.3939 18.0156 40.3939C17.6435 40.3939 17.3418 40.6956 17.3418 41.0677V45.0586H8.80664V26.9102ZM34.1875 31.8621C34.8068 31.8621 35.3105 32.3658 35.3105 32.9851V45.0586H27.6738V31.8621H34.1875ZM47.5293 48.6523H6.4707C5.85141 48.6523 5.34766 48.1486 5.34766 47.5293C5.34766 46.91 5.85141 46.4062 6.4707 46.4062H47.5293C48.1486 46.4062 48.6523 46.91 48.6523 47.5293C48.6523 48.1486 48.1486 48.6523 47.5293 48.6523Z" fill="#0E2B72"/>
<path d="M30.9093 18.9238C30.5853 18.7407 30.1742 18.8549 29.9912 19.179C29.8081 19.503 29.9223 19.9141 30.2464 20.0971C30.5991 20.2965 30.8184 20.6716 30.8184 21.0761C30.8184 21.6954 30.3146 22.1991 29.6953 22.1991H24.3047C23.6854 22.1991 23.1816 21.6954 23.1816 21.0761C23.1816 20.6484 23.4194 20.2635 23.8019 20.0714C24.393 19.7747 24.8557 19.2428 25.1047 18.5738C25.3979 17.7866 26.1595 17.2577 27 17.2577C27.5276 17.2577 28.0268 17.4598 28.4057 17.8265C28.6732 18.0855 29.0997 18.0784 29.3585 17.8111C29.6173 17.5437 29.6104 17.1171 29.343 16.8583C28.7114 16.2469 27.8793 15.9102 27 15.9102C25.5996 15.9102 24.3304 16.7917 23.8419 18.1037C23.712 18.4526 23.4831 18.7237 23.1973 18.8672C22.3564 19.2894 21.834 20.1359 21.834 21.0763C21.834 22.4387 22.9423 23.547 24.3047 23.547H29.6953C31.0577 23.547 32.166 22.4387 32.166 21.0763C32.166 20.1864 31.6845 19.3617 30.9093 18.9238Z" fill="#FFB400"/>
<path d="M22.0586 17.707C23.444 17.707 24.5293 16.2271 24.5293 14.3379C24.5293 12.4487 23.444 10.9688 22.0586 10.9688C20.6732 10.9688 19.5879 12.4487 19.5879 14.3379C19.5879 16.2271 20.6732 17.707 22.0586 17.707ZM22.0586 12.3164C22.5898 12.3164 23.1816 13.1466 23.1816 14.3379C23.1816 15.5292 22.5898 16.3594 22.0586 16.3594C21.5274 16.3594 20.9355 15.5292 20.9355 14.3379C20.9355 13.1466 21.5274 12.3164 22.0586 12.3164Z" fill="#FFB400"/>
<path d="M31.9414 17.707C33.3268 17.707 34.4121 16.2271 34.4121 14.3379C34.4121 12.4487 33.3268 10.9688 31.9414 10.9688C30.556 10.9688 29.4707 12.4487 29.4707 14.3379C29.4707 16.2271 30.556 17.707 31.9414 17.707ZM31.9414 12.3164C32.4726 12.3164 33.0645 13.1466 33.0645 14.3379C33.0645 15.5292 32.4726 16.3594 31.9414 16.3594C31.4102 16.3594 30.8184 15.5292 30.8184 14.3379C30.8184 13.1466 31.4102 12.3164 31.9414 12.3164Z" fill="#FFB400"/>
<path d="M27 14.5625C28.3854 14.5625 29.4707 13.0826 29.4707 11.1934C29.4707 9.30413 28.3854 7.82422 27 7.82422C25.6146 7.82422 24.5293 9.30413 24.5293 11.1934C24.5293 13.0826 25.6146 14.5625 27 14.5625ZM27 9.17188C27.5312 9.17188 28.123 10.002 28.123 11.1934C28.123 12.3847 27.5312 13.2148 27 13.2148C26.4688 13.2148 25.877 12.3847 25.877 11.1934C25.877 10.002 26.4688 9.17188 27 9.17188Z" fill="#FFB400"/>
</svg>
