<svg width="100" height="100" viewBox="0 0 100 100" fill="none" xmlns="http://www.w3.org/2000/svg">
<path d="M20.9219 54.5781H19.375C17.6734 54.5781 16.2812 55.9703 16.2812 57.6719V59.2188C16.2812 60.9203 17.6734 62.3125 19.375 62.3125H20.9219C22.6234 62.3125 24.0156 60.9203 24.0156 59.2188V57.6719C24.0156 55.9703 22.6234 54.5781 20.9219 54.5781ZM19.375 59.2188V57.6719H20.9219V59.2188H19.375Z" fill="#0E2B72"/>
<path d="M31.75 54.5781H30.2031C28.5016 54.5781 27.1094 55.9703 27.1094 57.6719V59.2188C27.1094 60.9203 28.5016 62.3125 30.2031 62.3125H31.75C33.4516 62.3125 34.8438 60.9203 34.8438 59.2188V57.6719C34.8438 55.9703 33.4516 54.5781 31.75 54.5781ZM30.2031 59.2188V57.6719H31.75V59.2188H30.2031Z" fill="#0E2B72"/>
<path d="M41.0312 62.3125H42.5781C44.2797 62.3125 45.6719 60.9203 45.6719 59.2188V57.6719C45.6719 55.9703 44.2797 54.5781 42.5781 54.5781H41.0312C39.3297 54.5781 37.9375 55.9703 37.9375 57.6719V59.2188C37.9375 60.9203 39.3297 62.3125 41.0312 62.3125ZM41.0312 57.6719H42.5781V59.2188H41.0312V57.6719Z" fill="#0E2B72"/>
<path d="M54.9531 54.5781H53.4062C51.7047 54.5781 50.3125 55.9703 50.3125 57.6719V59.2188C50.3125 60.9203 51.7047 62.3125 53.4062 62.3125H54.9531C56.6547 62.3125 58.0469 60.9203 58.0469 59.2188V57.6719C58.0469 55.9703 56.6547 54.5781 54.9531 54.5781ZM53.4062 59.2188V57.6719H54.9531V59.2188H53.4062Z" fill="#0E2B72"/>
<path d="M20.9219 65.4062H19.375C17.6734 65.4062 16.2812 66.7984 16.2812 68.5V70.0469C16.2812 71.7484 17.6734 73.1406 19.375 73.1406H20.9219C22.6234 73.1406 24.0156 71.7484 24.0156 70.0469V68.5C24.0156 66.7984 22.6234 65.4062 20.9219 65.4062ZM19.375 70.0469V68.5H20.9219V70.0469H19.375Z" fill="#0E2B72"/>
<path d="M31.75 65.4062H30.2031C28.5016 65.4062 27.1094 66.7984 27.1094 68.5V70.0469C27.1094 71.7484 28.5016 73.1406 30.2031 73.1406H31.75C33.4516 73.1406 34.8438 71.7484 34.8438 70.0469V68.5C34.8438 66.7984 33.4516 65.4062 31.75 65.4062ZM30.2031 70.0469V68.5H31.75V70.0469H30.2031Z" fill="#0E2B72"/>
<path d="M54.9531 65.4062H41.0312C39.3297 65.4062 37.9375 66.7984 37.9375 68.5V70.0469C37.9375 71.7484 39.3297 73.1406 41.0312 73.1406H54.9531C56.6547 73.1406 58.0469 71.7484 58.0469 70.0469V68.5C58.0469 66.7984 56.6547 65.4062 54.9531 65.4062ZM41.0312 70.0469V68.5H54.9531V70.0469H41.0312Z" fill="#0E2B72"/>
<path d="M82.7969 19H65.7812H17.8281C11.7953 19 7 23.7953 7 29.8281V68.5C7 74.5328 11.7953 79.3281 17.8281 79.3281H65.7812H82.7969C88.8297 79.3281 93.625 74.5328 93.625 68.5V29.8281C93.625 23.7953 88.8297 19 82.7969 19ZM10.0938 68.5V29.8281C10.0938 25.4969 13.4969 22.0938 17.8281 22.0938H64.2344V76.2344H17.8281C13.4969 76.2344 10.0938 72.8312 10.0938 68.5ZM90.5312 68.5C90.5312 72.8312 87.1281 76.2344 82.7969 76.2344H67.3281V22.0938H82.7969C87.1281 22.0938 90.5312 25.4969 90.5312 29.8281V68.5Z" fill="#0E2B72"/>
<path d="M54.7984 25.1875H17.9828C15.3531 25.1875 13.1875 27.3531 13.1875 29.9828V46.6891C13.1875 49.3188 15.3531 51.4844 17.9828 51.4844H54.7984C57.4281 51.4844 59.5938 49.3188 59.5938 46.6891V29.9828C59.5938 27.3531 57.4281 25.1875 54.7984 25.1875ZM56.5 46.6891C56.5 47.6172 55.7266 48.3906 54.7984 48.3906H17.9828C17.0547 48.3906 16.2812 47.6172 16.2812 46.6891V29.9828C16.2812 29.0547 17.0547 28.2812 17.9828 28.2812H54.7984C55.7266 28.2812 56.5 29.0547 56.5 29.9828V46.6891Z" fill="#0E2B72"/>
<path d="M31.75 34.4688H20.9219C19.9937 34.4688 19.375 35.0875 19.375 36.0156C19.375 36.9438 19.9937 37.5625 20.9219 37.5625H31.75C32.6781 37.5625 33.2969 36.9438 33.2969 36.0156C33.2969 35.0875 32.6781 34.4688 31.75 34.4688Z" fill="#0E2B72"/>
<path d="M31.75 39.1094H20.9219C19.9937 39.1094 19.375 39.7281 19.375 40.6562C19.375 41.5844 19.9937 42.2031 20.9219 42.2031H31.75C32.6781 42.2031 33.2969 41.5844 33.2969 40.6562C33.2969 39.7281 32.6781 39.1094 31.75 39.1094Z" fill="#0E2B72"/>
<path d="M51.8587 34.314L44.743 39.4187L42.268 34.9328C41.804 34.1593 40.8759 33.85 40.1024 34.314C39.329 34.7781 39.0196 35.7062 39.4837 36.4796L42.8868 42.5125C43.0415 42.8218 43.5055 43.1312 43.9696 43.2859H44.279C44.5884 43.2859 44.8977 43.1312 45.2071 42.9765L53.7149 36.9437C54.4884 36.4796 54.643 35.5515 54.0243 34.7781C53.5602 34.0046 52.6321 33.85 51.8587 34.314Z" fill="#FFB400"/>
<path d="M80.6312 39.1094H78.9297C75.0625 39.1094 71.9688 42.2031 71.9688 45.9156V62.3125C71.9688 63.2406 72.5875 63.8594 73.5156 63.8594H73.825H85.2719H85.8906C86.8188 63.8594 87.4375 63.2406 87.4375 62.3125V45.9156C87.4375 42.2031 84.3437 39.1094 80.6312 39.1094ZM78.775 42.2031H80.4766C82.4875 42.2031 84.1891 43.9047 84.1891 45.9156V51.4844C84.0344 51.4844 83.8797 51.3297 83.725 51.3297H75.0625H74.9078V45.7609C75.0625 43.9047 76.7641 42.2031 78.775 42.2031ZM75.5266 60.7656L76.4547 54.5781H82.4875L83.4156 60.7656H75.5266Z" fill="#FFB400"/>
</svg>
