<svg width="54" height="54" viewBox="0 0 54 54" fill="none" xmlns="http://www.w3.org/2000/svg">
<path d="M49.9108 43.746H39.7004C39.118 43.746 38.6457 43.2737 38.6457 42.6913C38.6457 42.1089 39.118 41.6366 39.7004 41.6366H48.8561V18.7715H5.14355V41.6366H14.6194C15.2019 41.6366 15.6741 42.1089 15.6741 42.6913C15.6741 43.2737 15.2019 43.746 14.6194 43.746H4.08887C3.50636 43.746 3.03418 43.2737 3.03418 42.6913V17.7168C3.03418 17.1343 3.50636 16.6621 4.08887 16.6621H49.9108C50.4932 16.6621 50.9655 17.1343 50.9655 17.7168V42.6913C50.9655 43.2737 50.4933 43.746 49.9108 43.746Z" fill="#0E2B72"/>
<path d="M39.7005 18.7717H14.6194C14.0369 18.7717 13.5647 18.2995 13.5647 17.717V5.12305C13.5647 4.54054 14.0369 4.06836 14.6194 4.06836H39.7005C40.2829 4.06836 40.7552 4.54054 40.7552 5.12305V17.717C40.7552 18.2995 40.2829 18.7717 39.7005 18.7717ZM15.6741 16.6623H38.6458V6.17773H15.6741V16.6623Z" fill="#0E2B72"/>
<path d="M39.7005 49.936H14.6194C14.0369 49.936 13.5647 49.4637 13.5647 48.8813V33.6191C13.5647 33.0367 14.0369 32.5645 14.6194 32.5645H39.7005C40.2829 32.5645 40.7552 33.0367 40.7552 33.6191V48.8813C40.7552 49.4638 40.2829 49.936 39.7005 49.936ZM15.6741 47.8266H38.6458V34.6738H15.6741V47.8266Z" fill="#0E2B72"/>
<path d="M44.4678 18.7704H39.7006C39.1182 18.7704 38.6459 18.2982 38.6459 17.7157V8.53711C38.6459 7.95461 39.1182 7.48242 39.7006 7.48242H44.4678C45.0501 7.48242 45.5224 7.95461 45.5224 8.53711V17.7157C45.5224 18.2982 45.0501 18.7704 44.4678 18.7704ZM40.7552 16.6611H43.4131V9.5918H40.7552V16.6611Z" fill="#0E2B72"/>
<path d="M14.6195 18.7704H9.85229C9.26979 18.7704 8.79761 18.2982 8.79761 17.7157V8.53711C8.79761 7.95461 9.26979 7.48242 9.85229 7.48242H14.6195C15.202 7.48242 15.6742 7.95461 15.6742 8.53711V17.7157C15.6742 18.2982 15.2019 18.7704 14.6195 18.7704ZM10.9069 16.6611H13.5647V9.5918H10.9069V16.6611Z" fill="#0E2B72"/>
<path d="M43.3293 34.6738H10.9906C10.4081 34.6738 9.93591 34.2015 9.93591 33.6191C9.93591 33.0367 10.4081 32.5645 10.9906 32.5645H43.3293C43.9117 32.5645 44.384 33.0367 44.384 33.6191C44.384 34.2015 43.9117 34.6738 43.3293 34.6738Z" fill="#0E2B72"/>
<path d="M9.85214 26.6684C8.21126 26.6684 6.87634 25.3335 6.87634 23.6926C6.87634 22.0517 8.21126 20.7168 9.85214 20.7168C11.493 20.7168 12.8279 22.0517 12.8279 23.6926C12.8279 25.3335 11.493 26.6684 9.85214 26.6684ZM9.85214 22.8262C9.37437 22.8262 8.98572 23.2148 8.98572 23.6926C8.98572 24.1704 9.37437 24.559 9.85214 24.559C10.3299 24.559 10.7186 24.1704 10.7186 23.6926C10.7186 23.2148 10.3299 22.8262 9.85214 22.8262Z" fill="#FFB400"/>
<path d="M17.8747 26.6684C16.2338 26.6684 14.8989 25.3335 14.8989 23.6926C14.8989 22.0517 16.2338 20.7168 17.8747 20.7168C19.5156 20.7168 20.8505 22.0517 20.8505 23.6926C20.8505 25.3335 19.5155 26.6684 17.8747 26.6684ZM17.8747 22.8262C17.397 22.8262 17.0083 23.2148 17.0083 23.6926C17.0083 24.1704 17.397 24.559 17.8747 24.559C18.3525 24.559 18.7412 24.1704 18.7412 23.6926C18.7412 23.2148 18.3525 22.8262 17.8747 22.8262Z" fill="#FFB400"/>
<path d="M33.4568 38.9414H20.8629C20.2804 38.9414 19.8082 38.4691 19.8082 37.8867C19.8082 37.3043 20.2804 36.832 20.8629 36.832H33.4568C34.0392 36.832 34.5115 37.3043 34.5115 37.8867C34.5115 38.4691 34.0393 38.9414 33.4568 38.9414Z" fill="#FFB400"/>
<path d="M28.761 43.7441H20.863C20.2805 43.7441 19.8083 43.2719 19.8083 42.6895C19.8083 42.1071 20.2805 41.6348 20.863 41.6348H28.761C29.3434 41.6348 29.8156 42.1071 29.8156 42.6895C29.8156 43.2719 29.3434 43.7441 28.761 43.7441Z" fill="#FFB400"/>
</svg>
