<svg width="59" height="60" viewBox="0 0 59 60" fill="none" xmlns="http://www.w3.org/2000/svg">
<path d="M58.9886 34.4054C58.3652 36.7118 57.5327 38.9546 56.2272 41.0514C52.2299 47.4527 46.047 51.2268 37.7627 52.2021C32.4379 52.828 27.1608 52.4467 22.1843 50.3881C15.7924 47.7418 11.6411 43.4086 9.27937 37.6966C8.87597 36.7245 8.55692 35.7333 8.32222 34.7231C8.10219 33.7764 8.32222 33.446 9.36005 33.106C10.7536 32.6486 12.1435 32.1752 13.548 31.7463C14.0431 31.5939 14.2558 31.381 14.2411 30.914C14.2081 29.926 14.2228 28.9348 14.2338 27.9436C14.2375 27.5434 14.1128 27.3909 13.614 27.537C12.8109 27.7721 12.0261 27.699 11.245 27.3877C6.6353 25.5419 3.14776 22.6891 0.833743 18.7689C0.591706 18.3622 0.485352 17.9492 0.485352 17.4918C0.496353 13.6732 0.48902 9.85779 0.492688 6.03921C0.492688 4.74623 0.976763 4.41901 2.42532 4.64139C6.0412 5.20052 8.93465 4.17757 11.0726 1.59161C12.0114 0.457472 13.3317 0.454295 14.2228 1.61067C16.1077 4.05685 19.4413 5.22276 22.8224 4.61916C24.2893 4.35548 24.7587 4.68587 24.7624 5.9852C24.7624 7.13523 24.7771 8.28843 24.7551 9.43845C24.7477 9.85779 24.9164 10.0198 25.4042 10.0039C26.0789 9.97851 26.761 9.96263 27.4321 10.0071C28.1289 10.0548 28.3636 9.86097 28.3526 9.23513C28.3123 6.95415 28.3343 4.66999 28.3379 2.389C28.3379 1.08967 28.6827 0.794219 30.1972 0.794219C32.5736 0.794219 34.9536 0.791042 37.33 0.794219C38.4888 0.794219 38.8849 1.1405 38.8849 2.14438C38.8886 4.52703 38.9069 6.91285 38.8739 9.29549C38.8666 9.86097 39.0793 10.0166 39.7137 10.0103C42.1377 9.98169 44.5618 9.99758 46.9858 10.0008C48.1593 10.0008 48.5407 10.328 48.5407 11.3382C48.5444 14.4484 48.559 17.5585 48.5297 20.6686C48.5224 21.2564 48.7351 21.4597 49.4062 21.4184C50.1029 21.3771 50.8034 21.3993 51.5038 21.412C52.5013 21.4311 52.9597 21.806 52.9854 22.6764C53.0147 23.7248 52.9964 24.7763 52.9964 25.8279C52.9964 27.4639 53.0184 29.1 52.9854 30.7361C52.9744 31.2571 53.1577 31.5398 53.7445 31.7209C55.127 32.1466 56.4802 32.639 57.8555 33.087C58.3579 33.2522 58.7649 33.4873 58.9996 33.9161V34.4022L58.9886 34.4054ZM33.8278 50.3818C35.7971 50.4739 37.9791 50.3024 40.1024 49.7941C48.6434 47.7482 53.8288 42.8336 56.2712 35.5649C56.4876 34.9264 56.2639 34.6945 55.5928 34.4721C49.0431 32.2959 42.4824 30.142 35.9841 27.8579C34.2752 27.2574 32.856 27.2701 31.158 27.8674C24.6157 30.1643 18.011 32.3341 11.4284 34.5452C11.0066 34.6881 10.6839 34.7961 10.8453 35.314C12.2535 39.7679 14.8242 43.5801 19.0965 46.4202C23.3652 49.2572 28.2316 50.5279 33.8315 50.3818H33.8278ZM22.4484 12.466C22.4484 10.8299 22.4154 9.19383 22.463 7.56093C22.4814 6.93191 22.243 6.76671 21.5426 6.7953C18.0734 6.92873 15.2349 5.78506 12.9906 3.51361C12.7486 3.26581 12.6055 3.18004 12.3048 3.48502C10.0238 5.79459 7.11937 6.90649 3.60983 6.78577C2.94973 6.76353 2.77737 6.94461 2.78104 7.50057C2.80671 10.7314 2.79937 13.9623 2.7847 17.1932C2.7847 17.6189 2.92773 17.9778 3.15876 18.3368C5.18307 21.4851 8.05818 23.8455 11.8061 25.4149C12.3562 25.6468 12.8329 25.6754 13.394 25.4435C17.2703 23.8423 20.1967 21.3898 22.2467 18.1303C22.4227 17.8508 22.4484 17.5585 22.4447 17.2535C22.4447 15.6587 22.4447 14.064 22.4447 12.4692L22.4484 12.466ZM34.3669 21.412C38.0488 21.412 41.7307 21.4025 45.4162 21.4216C45.9993 21.4216 46.2487 21.304 46.2413 20.7481C46.212 18.0414 46.2193 15.3347 46.2377 12.628C46.2377 12.161 46.0727 11.9895 45.5189 11.9895C38.8299 12.0022 32.1409 12.0022 25.4518 11.9895C24.8761 11.9895 24.7441 12.1928 24.7551 12.6439C24.7807 13.7336 24.656 14.8359 24.7881 15.9129C25.0154 17.7809 24.3553 19.363 23.0645 20.8052C22.9324 20.9514 22.6611 21.1166 22.8114 21.3199C22.9435 21.501 23.2442 21.4088 23.4679 21.4088C27.1021 21.412 30.74 21.4088 34.3742 21.4088L34.3669 21.412ZM35.6284 23.4134C30.85 23.4134 26.0716 23.4134 21.2932 23.4134C20.8861 23.4134 20.5341 23.4452 20.2187 23.728C19.2579 24.5857 18.1687 25.3164 17.0025 25.9549C16.6468 26.1487 16.5038 26.3838 16.5111 26.7491C16.5331 27.7975 16.5185 28.849 16.5185 29.9006C16.5185 30.6884 16.5295 30.6948 17.3583 30.4184C22.2467 28.776 27.1388 27.1463 32.0125 25.4784C33.098 25.1067 34.0918 25.1004 35.181 25.4752C40.0767 27.1526 44.9908 28.7887 49.9012 30.4375C50.6567 30.6916 50.6787 30.6789 50.6824 29.9705C50.6824 28.0326 50.6567 26.0915 50.697 24.1537C50.708 23.5596 50.4843 23.4071 49.8206 23.4103C45.0898 23.4325 40.3591 23.423 35.6247 23.423L35.6284 23.4134ZM36.5599 6.40455C36.5599 5.39431 36.5452 4.38724 36.5672 3.38018C36.5745 2.98307 36.4535 2.78929 35.9438 2.79564C34.3852 2.8147 32.823 2.81152 31.2644 2.79564C30.8317 2.79246 30.63 2.90048 30.63 3.31029C30.6446 5.36889 30.6446 7.42432 30.63 9.48292C30.63 9.88321 30.8097 10.0103 31.2534 10.0039C32.812 9.99122 34.3742 9.98487 35.9328 10.0039C36.4315 10.0103 36.5782 9.83556 36.5672 9.42892C36.5452 8.42185 36.5599 7.41161 36.5599 6.40455Z" fill="#0E2B72"/>
<path d="M15.3428 59.2487C13.1351 58.8484 11.3749 57.8954 10.2637 56.1417C9.80897 55.4206 9.57427 54.6454 9.45326 53.8385C9.39825 53.4764 9.5266 53.2381 10.0107 53.2699C10.0583 53.2699 10.1024 53.2699 10.15 53.2699C11.0815 53.2466 11.667 53.6214 11.9066 54.3945C12.4494 56.1322 14.327 57.3172 16.4687 57.2759C18.5186 57.2346 20.3266 55.9321 20.763 54.1848C20.9146 53.577 21.3595 53.272 22.0978 53.2699C23.0293 53.2699 23.6185 53.6426 23.8655 54.3881C24.4705 56.2212 26.4362 57.4125 28.6255 57.2695C30.7452 57.1329 32.4908 55.7033 32.7805 53.829C32.8428 53.4319 32.9968 53.2413 33.4736 53.2699C33.9833 53.2985 34.5518 53.1841 34.9918 53.3429C35.4759 53.5208 35.2889 54.0927 35.4319 54.4834C36.0553 56.2085 37.9403 57.3553 40.0746 57.2759C42.0952 57.1996 43.8445 55.9003 44.2699 54.1562C44.4141 53.5674 44.8224 53.273 45.4947 53.273C45.5644 53.273 45.6341 53.273 45.7038 53.273C46.5839 53.273 47.1364 53.6299 47.3614 54.3436C47.9335 56.1703 49.9174 57.3998 52.0884 57.2727C54.2411 57.1456 56.0234 55.6906 56.2837 53.8004C56.3424 53.3652 56.5441 53.2159 57.0282 53.1968C58.6821 53.1301 58.8581 53.273 58.4547 54.6486C57.7836 56.936 56.1224 58.41 53.4966 59.0644C53.2289 59.1312 52.9576 59.1915 52.6898 59.2551H50.8709C48.8539 58.8961 47.1743 58.086 46.0228 56.5611C45.8651 56.3514 45.7441 56.3165 45.5718 56.5452C44.4056 58.0892 42.7077 58.9088 40.6577 59.2519H38.9781C37.0748 58.9215 35.4319 58.2067 34.273 56.8025C34.1117 56.6056 33.9943 56.5674 33.811 56.7866C32.6375 58.2067 30.9872 58.9406 29.0436 59.2487H27.364C25.3507 58.8865 23.6638 58.0796 22.5122 56.5516C22.3509 56.3387 22.2262 56.3196 22.0612 56.5452C20.939 58.0669 19.2667 58.858 17.2901 59.2487H15.3318H15.3428Z" fill="#FFB400"/>
<path d="M19.8966 10.9888C19.8049 11.0841 19.7132 11.2017 19.6032 11.3002C16.5484 13.9306 13.4899 16.5579 10.4424 19.1947C10.1527 19.4456 9.9327 19.4552 9.61365 19.2296C8.35213 18.3369 7.0796 17.4569 5.79607 16.5833C5.48069 16.3673 5.41101 16.1989 5.67138 15.8907C6.71288 14.6676 6.70188 14.6613 8.08442 15.6175C8.50248 15.9066 8.94255 16.1735 9.33861 16.4848C9.731 16.793 10.006 16.7612 10.3838 16.434C12.7125 14.4008 15.0668 12.3898 17.4139 10.3725C18.0691 9.80916 18.7292 9.81869 19.3942 10.4011C19.5848 10.5695 19.8379 10.7029 19.9002 10.992L19.8966 10.9888Z" fill="#FFB400"/>
</svg>
