<svg width="54" height="54" viewBox="0 0 54 54" fill="none" xmlns="http://www.w3.org/2000/svg">
<path d="M47.4353 1C49.2236 1.47987 50.4337 2.55882 50.8629 4.39781C50.9732 4.87172 50.997 5.37543 50.997 5.86721C51.003 20.0397 50.997 34.2121 51.006 48.3845C51.006 50.2325 50.4218 51.7526 48.7765 52.7391C48.1834 53.0938 47.5336 53.3024 46.8392 53.3054C43.5397 53.3114 40.2373 53.3114 36.9378 53.3084C36.3358 53.3084 35.9692 52.9865 35.9751 52.4977C35.9811 52.0089 36.3447 51.7108 36.9617 51.7108C40.0227 51.7078 43.0867 51.7108 46.1477 51.7108C48.2341 51.7108 49.3398 50.611 49.3398 48.5395C49.3398 34.2658 49.3398 19.989 49.3398 5.71521C49.3398 3.6795 48.2251 2.57074 46.1745 2.56776C33.0572 2.56776 19.9428 2.56776 6.82549 2.56776C4.77786 2.56776 3.6691 3.6795 3.6691 5.72117C3.6691 19.995 3.6691 34.2717 3.6691 48.5455C3.6691 50.5931 4.77488 51.7078 6.81953 51.7078C15.4452 51.7078 24.0709 51.7078 32.6936 51.7078C32.9141 51.7078 33.1406 51.69 33.3552 51.7317C33.7546 51.8092 33.9752 52.0745 33.9841 52.4828C33.9931 52.915 33.7785 53.1981 33.3522 53.2845C33.1555 53.3263 32.9469 53.3084 32.7412 53.3084C24.0649 53.3084 15.3886 53.3084 6.71223 53.3084C4.03273 53.3084 2.39343 51.8509 2.05365 49.1804C2.04471 49.1148 2.01788 49.0492 2 48.9836C2.00596 34.4207 2.00596 19.8549 2.00596 5.28899C2.04769 5.00584 2.06855 4.71673 2.13412 4.43656C2.57226 2.58266 3.7764 1.48881 5.57962 1H47.4353Z" fill="#0E2B72"/>
<path d="M5.76428 27.1419C5.76428 20.5401 5.76428 13.9411 5.7613 7.33926C5.7613 6.43318 6.02359 5.66718 6.79554 5.13068C7.26349 4.80879 7.79104 4.74023 8.3484 4.74023C19.7788 4.7462 31.2091 4.74321 42.6424 4.74321C43.3906 4.74321 44.1387 4.73725 44.8868 4.74321C46.1952 4.75514 47.1401 5.64334 47.2384 6.94881C47.2503 7.10082 47.2474 7.25581 47.2474 7.40781C47.2474 20.5579 47.2474 33.7081 47.2474 46.8612C47.2474 47.5228 47.155 48.1488 46.7168 48.6793C46.2817 49.2068 45.7243 49.493 45.0418 49.5287C44.8719 49.5377 44.702 49.5317 44.5321 49.5317C32.5056 49.5317 20.4792 49.5138 8.45272 49.5526C6.76276 49.5585 5.73745 48.4647 5.7464 46.8403C5.78216 40.2742 5.7613 33.7081 5.7613 27.139L5.76428 27.1419ZM7.43636 27.1121C7.43636 33.6633 7.43636 40.2116 7.43636 46.7628C7.43636 47.7613 7.59731 47.9282 8.5779 47.9282C20.5358 47.9282 32.4967 47.9282 44.4546 47.9282C45.4084 47.9282 45.5753 47.7553 45.5753 46.7926C45.5753 33.6932 45.5753 20.5907 45.5753 7.49127C45.5753 6.52558 45.4114 6.3527 44.4576 6.3527C32.4818 6.3527 20.506 6.3527 8.53022 6.3527C7.61221 6.3527 7.43636 6.53452 7.43636 7.46146C7.43636 14.0127 7.43636 20.5609 7.43636 27.1121Z" fill="#0E2B72"/>
<path d="M17.4242 24.9691C16.4942 24.1554 15.5852 23.3656 14.849 22.3999C14.5182 21.9677 14.2052 21.5206 13.9161 21.0616C13.6121 20.5847 13.7045 20.1198 14.1098 19.8575C14.5122 19.5982 14.9831 19.7114 15.2871 20.1943C16.4376 22.0303 17.9696 23.4312 19.9129 24.3909C20.7028 24.7813 21.5015 25.0138 22.4047 24.981C23.9843 24.9274 25.57 24.9631 27.1526 24.9691C27.4656 24.9691 27.7547 24.9155 28.0468 24.8022C31.85 23.309 34.0585 20.4357 35.1315 16.5938C35.2865 16.0394 35.3849 15.4672 35.519 14.9038C35.6233 14.4657 35.5011 14.2928 35.0183 14.2958C33.0273 14.3167 31.0363 14.3048 29.0453 14.3048C24.0439 14.3048 19.0396 14.3048 14.0383 14.3048C13.2991 14.3048 13.2604 14.3405 13.4124 15.0499C13.5465 15.6639 13.7015 16.2749 13.8475 16.8859C13.9846 17.4671 13.776 17.8963 13.2991 18.0334C12.858 18.1586 12.4407 17.8963 12.2768 17.3509C11.5734 15.0141 11.3528 12.6178 11.472 10.1886C11.5078 9.47927 12.0324 8.96065 12.7388 8.8623C12.9236 8.83845 13.1113 8.84441 13.2991 8.84441C20.7356 8.84441 28.169 8.84441 35.6054 8.84441C36.8573 8.84441 37.2775 9.1991 37.4385 10.4479C37.4832 10.7996 37.7186 10.7907 37.9422 10.8235C39.0569 10.9874 40.0882 11.36 40.9823 12.0544C43.5784 14.0753 43.9629 17.8814 41.8497 20.5371C40.7022 21.9767 39.1612 22.8082 37.4474 23.3596C35.8856 23.8603 34.288 24.1852 32.6428 24.2061C32.1003 24.2121 31.8261 24.6234 31.4208 24.8827C31.5996 25.0257 31.7755 24.9661 31.9364 24.9661C33.3998 24.9721 34.8633 24.9661 36.3267 24.9721C37.2954 24.9781 37.8319 25.446 37.9094 26.4027C38.1002 28.7842 36.5383 30.191 34.8007 30.2268C34.455 30.2327 34.3536 30.3877 34.3715 30.6977C34.3924 31.0911 34.3477 31.4816 34.2344 31.8571C33.9155 32.9182 32.9736 33.6007 31.8082 33.6007C26.941 33.6037 22.0768 33.6037 17.2096 33.6007C15.6537 33.6007 14.6225 32.6052 14.548 31.0494C14.5122 30.2983 14.5092 30.3192 13.8088 30.2119C11.4959 29.8572 10.6613 27.6844 11.1054 25.899C11.2515 25.3149 11.8208 24.9751 12.5421 24.9721C13.9876 24.9631 15.4332 24.9721 16.8817 24.9691C17.0665 24.9691 17.2543 24.9691 17.4391 24.9691H17.4242ZM24.4553 12.7012C26.7354 12.7012 29.0155 12.7012 31.2956 12.7012C32.6219 12.7012 33.9512 12.7012 35.2776 12.7012C35.4981 12.7012 35.7455 12.728 35.7664 12.4032C35.7902 12.0127 35.8409 11.6223 35.82 11.2348C35.7813 10.5195 35.7634 10.5195 35.0362 10.5195C28.1958 10.5195 21.3555 10.5195 14.5182 10.5195C12.9921 10.5195 13.0219 10.5195 13.0964 12.0604C13.1233 12.6267 13.3438 12.7161 13.8386 12.7161C17.3765 12.6982 20.9174 12.7072 24.4553 12.7072V12.7012ZM24.4553 28.5726C27.8054 28.5726 31.1525 28.5726 34.5026 28.5726C35.4683 28.5726 36.0525 28.1374 36.2284 27.3178C36.3446 26.7753 36.2463 26.6442 35.6859 26.6442C28.1869 26.6442 20.6908 26.6442 13.1918 26.6442C12.6434 26.6442 12.545 26.7813 12.6672 27.3327C12.8491 28.1344 13.4213 28.5696 14.3542 28.5726C17.7192 28.5785 21.0873 28.5726 24.4523 28.5726H24.4553ZM24.4731 30.2327C23.3346 30.2327 22.193 30.2327 21.0545 30.2327C19.6089 30.2327 18.1633 30.2327 16.7178 30.2327C16.5092 30.2327 16.2737 30.1731 16.2081 30.504C16.0174 31.4607 16.4287 31.9972 17.4063 31.9972C22.1006 32.0032 26.795 31.9972 31.4893 32.0002C31.7307 32.0002 31.9662 31.9763 32.1868 31.878C32.6368 31.6753 32.8335 31.1478 32.6845 30.504C32.5772 30.036 32.1838 30.2417 31.9245 30.2417C29.4417 30.2238 26.9589 30.2327 24.4761 30.2327H24.4731ZM34.0854 22.4148C34.914 22.3462 35.6025 22.1763 36.288 21.9916C37.817 21.5773 39.2655 20.9841 40.3385 19.7621C41.486 18.4537 41.8884 16.9306 41.3251 15.2555C40.7946 13.6788 39.5994 12.8234 37.9988 12.5015C37.7544 12.4538 37.4236 12.3763 37.4504 12.7847C37.4713 13.1155 37.0242 13.6312 37.7693 13.7414C38.3326 13.8249 38.8483 14.0365 39.2864 14.418C40.723 15.6669 40.6276 17.947 39.0927 19.2614C38.0405 20.1645 36.7738 20.5907 35.4624 20.9156C35.2627 20.9633 35.057 20.9931 34.9289 21.1779C34.6725 21.5534 34.4162 21.9319 34.0884 22.4178L34.0854 22.4148ZM36.0644 18.9872C36.905 18.8024 37.817 18.2808 38.2492 17.7592C39.0211 16.8293 38.6605 15.5953 37.5577 15.3628C37.2775 15.3032 37.0957 15.3479 37.0391 15.6639C36.8275 16.7816 36.4847 17.8605 36.0644 18.9872Z" fill="#0E2B72"/>
<path d="M28.3776 44.1991C28.3419 44.5836 28.169 44.834 27.8143 44.9294C27.4477 45.0277 27.1675 44.8727 27.0006 44.5657C26.8397 44.2707 26.7264 43.9488 26.6221 43.6269C26.5327 43.3556 26.3896 43.2305 26.0886 43.2364C25.2898 43.2543 24.488 43.2513 23.6892 43.2364C23.418 43.2334 23.263 43.3229 23.1796 43.5881C23.0872 43.8802 22.9739 44.1693 22.8458 44.4465C22.6431 44.8876 22.2646 45.0546 21.8741 44.8966C21.4837 44.7386 21.3108 44.3571 21.4807 43.9011C22.1423 42.1306 22.8219 40.3632 23.4925 38.5957C23.6684 38.1367 23.8413 37.6747 24.0141 37.2157C24.1691 36.8044 24.4403 36.5332 24.8993 36.5332C25.3375 36.5332 25.6206 36.7806 25.7697 37.174C26.6191 39.4154 27.4626 41.6627 28.3061 43.907C28.3448 44.0054 28.3597 44.1127 28.3776 44.1962V44.1991ZM24.8993 39.0905C24.5625 39.9698 24.2734 40.7268 23.9813 41.4809C23.9009 41.6866 23.9307 41.7998 24.187 41.7938C24.646 41.7849 25.105 41.7849 25.564 41.7938C25.8203 41.7998 25.9008 41.7164 25.8054 41.469C25.5163 40.7149 25.2302 39.9578 24.8993 39.0875V39.0905Z" fill="#FFB400"/>
<path d="M17.1589 36.4346C18.0233 36.4167 18.7386 36.6224 19.4003 37.0158C19.91 37.3169 20.059 37.7282 19.8205 38.1216C19.5791 38.521 19.1738 38.5866 18.6551 38.3004C17.6984 37.7699 16.7297 37.758 15.8087 38.3362C14.9086 38.9025 14.4645 39.752 14.5241 40.8339C14.6135 42.5149 16.3691 43.7667 17.9368 43.2749C18.3005 43.1617 18.5866 42.9411 18.8578 42.6788C19.2155 42.3361 19.6268 42.3152 19.9308 42.5984C20.2408 42.8875 20.2497 43.3465 19.9129 43.7101C18.9443 44.7533 17.7282 45.0633 16.375 44.7652C14.1039 44.2675 12.8938 42.2705 13.0368 40.4315C13.2246 38.0531 14.9831 36.4346 17.1589 36.4316V36.4346Z" fill="#FFB400"/>
<path d="M35.6174 40.6694C35.6174 39.5755 35.6114 38.4846 35.6174 37.3908C35.6204 36.7559 35.8678 36.4817 36.5056 36.4668C37.367 36.446 38.2283 36.446 39.0897 36.4668C39.6381 36.4817 39.9809 36.7917 39.9839 37.212C39.9869 37.665 39.6352 37.9571 39.0689 37.966C38.5294 37.972 37.9929 37.975 37.4534 37.966C37.1792 37.9601 37.06 38.0644 37.0689 38.3446C37.0808 38.7589 37.0808 39.1761 37.0689 39.5904C37.063 39.8467 37.1732 39.9481 37.4266 39.9451C37.9333 39.9362 38.4429 39.9362 38.9496 39.9451C39.4563 39.957 39.7365 40.2104 39.7454 40.6485C39.7574 41.1045 39.4682 41.3817 38.9437 41.3936C38.4519 41.4056 37.9601 41.4085 37.4683 41.3936C37.1673 41.3847 37.054 41.5039 37.0659 41.802C37.0808 42.1865 37.0838 42.571 37.0659 42.9554C37.0481 43.2893 37.2001 43.3817 37.5071 43.3727C38.0286 43.3578 38.5532 43.3638 39.0748 43.3727C39.6113 43.3817 39.963 43.6648 39.9809 44.094C40.0018 44.5143 39.6441 44.863 39.1255 44.8719C38.2343 44.8898 37.3401 44.8928 36.449 44.8689C35.8678 44.854 35.6204 44.5739 35.6174 43.9897C35.6114 42.8809 35.6174 41.7752 35.6174 40.6664V40.6694Z" fill="#FFB400"/>
<path d="M30.011 40.6344C30.011 39.5882 30.005 38.539 30.011 37.4929C30.017 36.7448 30.3031 36.4616 31.0512 36.4527C31.8202 36.4467 32.5921 36.4497 33.3611 36.4527C33.6443 36.4527 33.9185 36.5003 34.1152 36.7299C34.303 36.9474 34.3507 37.2038 34.2523 37.466C34.1331 37.7909 33.8678 37.9459 33.534 37.9549C33.0094 37.9698 32.4878 37.9757 31.9633 37.9549C31.6175 37.9429 31.4953 38.08 31.5132 38.4168C31.5341 38.7685 31.5281 39.1262 31.5132 39.4779C31.5042 39.7611 31.6294 39.8624 31.9007 39.8535C32.3328 39.8415 32.762 39.8445 33.1942 39.8535C33.7337 39.8654 34.0854 40.1575 34.0854 40.5867C34.0854 41.0099 33.7337 41.3318 33.2091 41.3527C32.7948 41.3705 32.3775 41.3735 31.9633 41.3556C31.6175 41.3407 31.5042 41.4868 31.5102 41.8206C31.5281 42.53 31.5192 43.2364 31.5102 43.9457C31.5042 44.512 31.2002 44.8637 30.7442 44.8518C30.324 44.8429 30.014 44.4852 30.005 43.9517C29.9931 42.8429 30.0021 41.7342 30.0021 40.6254L30.011 40.6344Z" fill="#FFB400"/>
</svg>
