<svg width="52" height="47" viewBox="0 0 52 47" fill="none" xmlns="http://www.w3.org/2000/svg">
<path d="M0.00871001 15.5239C0.00871001 14.2907 0.00871001 13.0575 0.00871001 11.8243C0.685613 10.4869 1.28852 9.10294 2.06134 7.82039C3.12466 6.05825 3.62617 4.21115 3.37952 2.164C3.37404 2.11467 3.37952 2.06534 3.37952 2.01328C3.38774 0.678652 4.03724 0.0236731 5.38283 0.00723015C6.31734 -0.00373185 7.24911 -0.00099135 8.18362 0.00723015C8.39738 0.00723015 8.61936 0.0346351 8.82215 0.100407C9.15649 0.207287 9.33463 0.462153 9.34285 0.815677C9.35107 1.17194 9.17842 1.41585 8.85504 1.55835C8.6495 1.64879 8.433 1.64605 8.2165 1.64605C7.35051 1.64605 6.48177 1.66249 5.61577 1.64057C5.19099 1.62961 5.0019 1.77485 5.02108 2.21607C5.04301 2.76417 5.04849 3.31775 5.02108 3.86585C4.99642 4.33996 5.17455 4.55646 5.65688 4.50165C5.77198 4.48795 5.88982 4.50165 6.00766 4.50165C19.0798 4.50165 32.152 4.50165 45.2269 4.50165C45.3091 4.50165 45.3941 4.50165 45.4763 4.50165C46.2108 4.49891 46.219 4.49069 46.2217 3.73157C46.2217 3.33145 46.2217 2.93134 46.2217 2.53123C46.2217 1.94294 45.9303 1.64788 45.3475 1.64605C34.4595 1.64605 23.5715 1.64605 12.6808 1.64605C12.4149 1.64605 12.1409 1.64879 11.886 1.5885C11.5078 1.5008 11.2859 1.23497 11.2886 0.82938C11.2913 0.429267 11.5051 0.182622 11.886 0.0702616C12.1793 -0.0174343 12.4807 0.00448965 12.7794 0.00448965C23.7003 0.00448965 34.6239 0.00448965 45.5448 0.00448965C45.712 0.00448965 45.8792 0.00174915 46.0436 0.00997064C47.2028 0.0730021 47.8468 0.736203 47.8578 1.89817C47.866 2.79706 47.8715 3.69868 47.8578 4.59757C47.8523 4.97575 47.9428 5.31284 48.1127 5.64992C49.0773 7.55182 50.031 9.46195 50.9875 11.3693C51.13 11.6543 51.267 11.9339 51.2615 12.2655C51.2533 13.1644 51.2944 14.0687 51.2505 14.9649C51.1546 16.8914 50.2475 18.3055 48.4278 19.0071C47.8633 19.2236 47.7126 19.4949 47.7153 20.054C47.7317 26.39 47.7263 32.7233 47.7263 39.0593C47.7263 39.6166 48.0131 39.9098 48.5868 39.939C48.7704 39.95 48.9513 39.9692 49.1349 39.9911C50.338 40.1199 51.2451 41.0955 51.2697 42.3096C51.2834 43.0248 51.2752 43.7428 51.2725 44.4609C51.2697 45.4118 51.0286 45.7434 50.1352 46.0312C33.5771 46.0312 17.019 46.0312 0.460892 46.0394C0.085444 46.0394 -0.00773298 45.9572 0.000488514 45.579C0.0278935 44.2964 0.0114505 43.0111 0.0114505 41.7286C0.488297 40.5173 1.38444 39.95 2.67796 39.9336C3.51655 39.9226 3.51929 39.8979 3.51929 39.0429C3.51929 32.7123 3.51929 26.3818 3.51929 20.054C3.51929 19.9197 3.51381 19.7881 3.51381 19.6539C3.51381 19.3908 3.40693 19.2236 3.13836 19.1387C1.35978 18.5714 0.367715 17.319 0.00871001 15.5239ZM32.015 39.9363C36.4327 39.9363 40.8504 39.9363 45.2708 39.9363C46.0929 39.9363 46.0957 39.9363 46.0957 39.095C46.0957 35.7954 46.0957 32.4931 46.0957 29.1935C46.0957 26.0776 46.0902 22.9589 46.1039 19.843C46.1039 19.4346 46.0052 19.2017 45.575 19.0893C44.8159 18.8893 44.1801 18.4563 43.6731 17.8561C43.4401 17.5793 43.2949 17.5985 43.0482 17.8588C41.1874 19.8183 38.4579 19.8265 36.5916 17.878C36.3258 17.6012 36.197 17.6012 35.9339 17.878C34.0978 19.8238 31.297 19.8101 29.4773 17.8534C29.2498 17.6095 29.143 17.5464 28.8799 17.8342C27.0382 19.8347 24.2101 19.8293 22.3575 17.826C22.1245 17.5738 22.0259 17.5766 21.7957 17.826C19.9376 19.8183 17.1697 19.8375 15.3062 17.8725C15.0732 17.6259 14.9472 17.5766 14.6813 17.8506C12.7575 19.832 10.0828 19.832 8.19184 17.8506C7.93149 17.5793 7.79173 17.604 7.56701 17.8671C7.04631 18.4755 6.39133 18.9057 5.61577 19.1112C5.25676 19.2072 5.14714 19.4017 5.14989 19.7553C5.15811 26.2886 5.15811 32.8247 5.14989 39.358C5.14989 39.7527 5.26773 39.9418 5.68976 39.9418C6.30089 39.9418 6.38311 39.8815 6.38311 39.2676C6.38311 34.0661 6.38311 28.8647 6.38311 23.666C6.38311 22.441 6.92847 21.8956 8.15073 21.8956C10.8008 21.8929 13.4536 21.8956 16.1037 21.8956C17.4383 21.8956 17.9562 22.4081 17.9562 23.729C17.9562 28.8619 17.9562 33.9976 17.9562 39.1306C17.9562 39.9336 17.9562 39.9363 18.7647 39.9363C23.1824 39.9363 27.6 39.9363 32.0205 39.9363H32.015ZM25.5693 44.4006C33.3058 44.4006 41.0422 44.4006 48.7786 44.4006C48.9458 44.4006 49.113 44.3951 49.2801 44.4006C49.5405 44.4033 49.6912 44.2937 49.6912 44.0169C49.6912 43.4989 49.7159 42.981 49.6775 42.4685C49.6337 41.8875 49.3103 41.608 48.732 41.5724C48.5484 41.5614 48.3648 41.5669 48.1812 41.5669C33.1413 41.5669 18.1015 41.5669 3.06163 41.5669C2.9109 41.5669 2.76017 41.5669 2.61218 41.5669C1.90239 41.5861 1.5845 41.8985 1.55161 42.6138C1.53791 42.9125 1.54887 43.2139 1.54887 43.5126C1.54887 44.1028 1.83662 44.3978 2.41213 44.3978C10.1321 44.3978 17.8521 44.3978 25.5721 44.3978L25.5693 44.4006ZM8.01371 31.7066C8.01371 34.2059 8.01371 36.708 8.01371 39.2073C8.01371 39.8787 8.06304 39.9308 8.71527 39.9336C11.0173 39.9363 13.3166 39.9363 15.6186 39.9336C16.2653 39.9336 16.3202 39.876 16.3202 39.2046C16.3202 34.2196 16.3202 29.2374 16.3202 24.2524C16.3202 23.5728 16.2763 23.5317 15.5638 23.5317C13.2974 23.5317 11.0283 23.5317 8.76186 23.5317C8.04111 23.5317 8.01371 23.5591 8.01371 24.3072C8.01371 26.7737 8.01371 29.2401 8.01371 31.7093V31.7066ZM25.6214 11.2844C26.3367 11.2844 27.0547 11.2707 27.77 11.2899C28.1618 11.2981 28.3098 11.1556 28.2797 10.7582C28.1701 9.41536 28.0714 8.06978 27.9892 6.72419C27.9645 6.30764 27.7974 6.13772 27.3698 6.14321C26.2024 6.16239 25.0377 6.16239 23.8702 6.14321C23.4427 6.13772 23.2783 6.30764 23.2509 6.72419C23.1687 8.06978 23.07 9.41262 22.9604 10.7582C22.9275 11.1556 23.0782 11.2981 23.4701 11.2899C24.1854 11.2734 24.9034 11.2844 25.6187 11.2844H25.6214ZM18.6003 11.2844C19.2662 11.2844 19.9321 11.2844 20.5981 11.2844C21.2887 11.2844 21.3407 11.2186 21.3846 10.5143C21.4668 9.23723 21.5572 7.95742 21.6669 6.68308C21.7025 6.28023 21.5572 6.14321 21.1681 6.14869C19.9678 6.15965 18.7702 6.16239 17.5698 6.14869C17.2245 6.14321 17.0546 6.27201 16.9834 6.60909C16.6874 8.02593 16.3777 9.44003 16.068 10.8541C15.994 11.1912 16.1119 11.3008 16.449 11.2953C17.1642 11.2789 17.8822 11.2899 18.5975 11.2899L18.6003 11.2844ZM32.6206 11.2844C33.3524 11.2844 34.0868 11.2789 34.8185 11.2871C35.0816 11.2899 35.2488 11.2323 35.183 10.9226C34.8624 9.44277 34.539 7.9629 34.2184 6.48303C34.1663 6.24734 34.0265 6.15143 33.7936 6.15143C32.511 6.15143 31.2285 6.15143 29.9459 6.15143C29.6719 6.15143 29.5485 6.28571 29.5705 6.55702C29.6746 7.96838 29.776 9.37699 29.8801 10.7884C29.9075 11.1583 30.0994 11.3008 30.4748 11.2899C31.1901 11.2707 31.9081 11.2844 32.6234 11.2844H32.6206ZM39.5048 11.2844C40.2529 11.2844 41.0038 11.2762 41.752 11.2871C42.0754 11.2926 42.1768 11.1802 42.0617 10.8678C41.5327 9.41262 41.0093 7.95742 40.4859 6.49947C40.4037 6.26927 40.2584 6.15143 40.0035 6.15143C38.7539 6.15691 37.5042 6.15143 36.2573 6.15143C35.9558 6.15143 35.838 6.28023 35.9065 6.59265C36.2189 8.00674 36.5259 9.42084 36.8163 10.8377C36.8876 11.1885 37.0685 11.2981 37.4056 11.2899C38.1044 11.2734 38.8032 11.2844 39.5048 11.2844ZM11.6668 11.2844C12.3821 11.2844 13.1001 11.2707 13.8153 11.2899C14.1771 11.3008 14.358 11.1775 14.432 10.8103C14.7142 9.42358 15.0102 8.04237 15.3226 6.6639C15.4131 6.26927 15.2815 6.14595 14.9088 6.14869C13.7085 6.15691 12.5109 6.15691 11.3105 6.14869C11.0228 6.14869 10.8446 6.2446 10.746 6.52414C10.2335 7.96838 9.71556 9.40714 9.18938 10.8459C9.06332 11.1912 9.17568 11.2953 9.51824 11.2871C10.2335 11.2734 10.9515 11.2844 11.6668 11.2844ZM4.72785 11.2844C5.44312 11.2844 6.16113 11.2734 6.8764 11.2899C7.19156 11.2953 7.36421 11.172 7.46835 10.876C7.9726 9.44825 8.48233 8.02045 9.00577 6.59813C9.12635 6.27201 9.07702 6.14047 8.70705 6.14595C7.50671 6.15691 6.30912 6.15417 5.10878 6.14595C4.82925 6.14595 4.64015 6.23364 4.51135 6.49399C3.78512 7.95468 3.0534 9.41262 2.31347 10.8678C2.15178 11.183 2.25044 11.2871 2.5793 11.2844C3.29457 11.2762 4.01258 11.2844 4.72785 11.2844ZM46.5067 11.2844C47.2056 11.2844 47.9071 11.2762 48.606 11.2871C48.9595 11.2926 49.1184 11.2268 48.9184 10.8349C48.1839 9.39618 47.4604 7.95193 46.7424 6.50495C46.6136 6.24734 46.4355 6.14321 46.1505 6.14595C44.9501 6.15417 43.7525 6.15417 42.5522 6.14595C42.2042 6.14321 42.1082 6.23912 42.237 6.58717C42.7605 8.00949 43.273 9.43454 43.7717 10.8651C43.8841 11.1885 44.0759 11.2981 44.4075 11.2899C45.1064 11.2734 45.8079 11.2844 46.5067 11.2844ZM25.6159 12.8711C24.8678 12.8711 24.1196 12.8794 23.3687 12.8684C23.0097 12.8629 22.8508 13.0082 22.8617 13.3726C22.8837 14.0523 22.8371 14.7347 22.9412 15.4143C23.1413 16.7188 24.2813 17.6944 25.6296 17.6944C26.9752 17.6944 28.1043 16.7106 28.3044 15.4006C28.4058 14.7374 28.3537 14.0715 28.3838 13.4083C28.403 12.9835 28.2057 12.8574 27.8111 12.8656C27.0794 12.8821 26.3476 12.8711 25.6159 12.8711ZM1.62834 14.3044C1.62834 14.3044 1.62834 14.3044 1.63109 14.3044C1.63109 14.5538 1.62286 14.8032 1.63109 15.0526C1.67767 16.4283 2.71358 17.5601 4.0345 17.6834C5.45134 17.815 6.68182 16.938 6.9915 15.5596C7.16415 14.7895 7.04905 14.003 7.06823 13.2219C7.07372 12.967 6.91203 12.8711 6.68182 12.8711C5.13618 12.8711 3.5878 12.8711 2.04216 12.8711C1.75167 12.8711 1.62012 13.0191 1.6256 13.3041C1.63109 13.6357 1.6256 13.9701 1.6256 14.3017L1.62834 14.3044ZM46.8959 12.8711C46.1477 12.8711 45.3996 12.8766 44.6514 12.8711C44.328 12.8684 44.1527 12.978 44.1609 13.3315C44.1746 13.929 44.139 14.5291 44.1746 15.1266C44.265 16.6092 45.4791 17.7136 46.9589 17.6944C48.4059 17.6752 49.5597 16.527 49.6063 15.0498C49.6227 14.5017 49.6008 13.9509 49.6172 13.4028C49.6309 13.0219 49.4802 12.8602 49.091 12.8684C48.3593 12.8848 47.6276 12.8739 46.8959 12.8739V12.8711ZM11.5051 12.8711C10.7569 12.8711 10.0088 12.8821 9.26063 12.8656C8.88518 12.8574 8.70705 12.9945 8.71801 13.3891C8.73446 13.9536 8.71253 14.5209 8.73446 15.0855C8.78653 16.4639 9.84162 17.5848 11.1625 17.6862C12.6095 17.7985 13.8208 16.8887 14.1004 15.4801C14.2483 14.7374 14.1552 13.9865 14.1743 13.2411C14.1826 12.9177 13.9578 12.8711 13.7002 12.8711C12.9685 12.8711 12.2368 12.8711 11.5051 12.8711ZM18.5975 12.8711C17.8494 12.8711 17.1012 12.8794 16.3503 12.8684C15.9721 12.8602 15.7967 13.0082 15.8077 13.3946C15.8241 13.992 15.7995 14.5922 15.8378 15.1896C15.9228 16.5407 17.0025 17.6177 18.3125 17.6889C19.7485 17.7657 20.9461 16.8366 21.201 15.4719C21.3298 14.7758 21.2503 14.0769 21.2859 13.3809C21.3079 12.9753 21.116 12.8602 20.7461 12.8656C20.0308 12.8794 19.3155 12.8711 18.6003 12.8711H18.5975ZM32.722 12.8711C31.9574 12.8711 31.1901 12.8711 30.4255 12.8711C30.1624 12.8711 29.9569 12.9314 29.9624 13.2521C29.9761 14.0167 29.9021 14.7813 30.0528 15.5404C30.3159 16.8668 31.5354 17.7739 32.9495 17.6889C34.2156 17.6122 35.3091 16.5489 35.3968 15.2691C35.4406 14.6388 35.416 14.0057 35.4324 13.3726C35.4406 13.0136 35.2789 12.8629 34.9199 12.8684C34.1882 12.8794 33.4565 12.8711 32.7248 12.8711H32.722ZM39.7898 12.8711C39.0416 12.8711 38.2935 12.8711 37.5453 12.8711C37.3206 12.8711 37.0712 12.8848 37.0739 13.1835C37.0794 14.0605 36.9534 14.9484 37.2219 15.8089C37.6111 17.0559 38.858 17.8424 40.1707 17.678C41.4423 17.519 42.4481 16.4338 42.5029 15.1403C42.5275 14.5593 42.5029 13.9756 42.5221 13.3946C42.533 13.0082 42.3659 12.8574 41.9849 12.8656C41.2532 12.8794 40.5215 12.8711 39.7898 12.8711Z" fill="#0E2B72"/>
<path d="M31.7958 36.8353C28.3619 36.8353 24.9253 36.8353 21.4915 36.8353C21.1572 36.8353 20.8228 36.8298 20.4967 36.7476C19.8417 36.5832 19.4169 36.0186 19.4005 35.2513C19.3813 34.4017 19.3923 33.5522 19.3923 32.6999C19.3923 29.7319 19.3923 26.7667 19.3923 23.7988C19.3923 22.4038 19.9048 21.8859 21.2832 21.8859C24.0347 21.8859 26.7861 21.8859 29.5376 21.8859C29.7377 21.8859 29.9432 21.8749 30.135 21.9215C30.5379 22.0147 30.7736 22.2723 30.7681 22.7026C30.7626 23.1081 30.5543 23.3712 30.1624 23.448C29.8884 23.5028 29.6006 23.5192 29.3184 23.522C26.7998 23.5274 24.2841 23.522 21.7656 23.5274C21.064 23.5274 21.0421 23.5521 21.0421 24.2674C21.0421 27.6848 21.0421 31.1022 21.0421 34.5196C21.0421 35.1718 21.064 35.191 21.7217 35.191C28.425 35.191 35.1255 35.191 41.8287 35.191C42.4865 35.191 42.5193 35.1609 42.5193 34.5223C42.5193 31.0885 42.5193 27.6546 42.5193 24.2208C42.5193 23.5631 42.481 23.5274 41.7931 23.5274C39.2417 23.5274 36.6903 23.5274 34.1389 23.522C33.8731 23.522 33.6045 23.5028 33.3469 23.448C32.9523 23.363 32.7467 23.0753 32.7522 22.6889C32.7549 22.275 32.9961 22.0065 33.4072 21.9188C33.5689 21.8859 33.7388 21.8886 33.906 21.8886C36.7396 21.8886 39.576 21.8859 42.4097 21.8886C43.6018 21.8886 44.1609 22.4422 44.1609 23.6288C44.1636 27.4299 44.1636 31.231 44.1609 35.0321C44.1609 36.2708 43.6101 36.8298 42.3494 36.8326C38.8306 36.8408 35.3146 36.8353 31.7958 36.8353Z" fill="#FFB400"/>
<path d="M15.1445 31.4854C15.1445 31.7348 15.1692 31.9869 15.139 32.2308C15.0869 32.672 14.8047 32.9105 14.3717 32.9379C13.988 32.9625 13.6235 32.6474 13.5989 32.239C13.5687 31.7266 13.566 31.2086 13.6016 30.6961C13.629 30.2906 14.0044 29.9836 14.3881 30.0138C14.7992 30.0466 15.076 30.2714 15.1335 30.6879C15.1692 30.9483 15.139 31.2168 15.139 31.4827C15.139 31.4827 15.1418 31.4827 15.1445 31.4827V31.4854Z" fill="#0E2B72"/>
</svg>
