<svg width="20" height="20" viewBox="0 0 20 20" fill="none" xmlns="http://www.w3.org/2000/svg">
<path d="M8.92334 0C9.34665 0.0659776 9.77905 0.101166 10.1933 0.197933C12.7832 0.800528 14.7222 2.23444 15.8737 4.55685C17.2665 7.36749 16.9798 10.0946 15.2319 12.6897C15.1682 12.7865 15.0863 12.8788 15.0135 12.9712C14.9406 13.0636 14.8678 13.1559 14.7813 13.2659C14.8314 13.3187 14.8769 13.3671 14.927 13.4198C16.4928 14.9901 18.0585 16.5648 19.6197 18.135C20.0431 18.5617 20.1204 19.0543 19.8428 19.503C19.506 20.044 18.7276 20.1671 18.2269 19.7581C18.1496 19.6965 18.0767 19.6261 18.0085 19.5557C16.4427 17.9855 14.8769 16.4108 13.3157 14.8406C13.2702 14.7922 13.2383 14.735 13.2201 14.713C12.683 14.9857 12.2096 15.2716 11.6999 15.4783C9.41492 16.4108 7.12544 16.4108 4.87236 15.3904C2.51915 14.3215 0.980693 12.5489 0.307047 10.121C-0.28922 7.97009 0.00663777 5.90719 1.18552 3.98944C2.43722 1.96173 4.2761 0.699362 6.65661 0.17594C7.04351 0.0923686 7.4395 0.0571806 7.83094 0C8.19508 0 8.55921 0 8.92334 0ZM8.36804 14.0444C11.7499 14.0708 14.5219 11.3965 14.5492 8.09325C14.5765 4.82516 11.8045 2.13327 8.3999 2.11128C5.00891 2.08929 2.23695 4.75038 2.20509 8.05366C2.17323 11.3305 4.94064 14.018 8.36804 14.0444Z" fill="#CC9000"/>
</svg>
