<svg width="198" height="175" viewBox="0 0 198 175" fill="none" xmlns="http://www.w3.org/2000/svg">
<path d="M193.776 29.2981C191.511 27.0336 188.533 25.7617 185.338 25.7307C182.143 25.7617 179.072 26.9405 176.746 29.236C174.326 31.6246 172.961 34.9128 172.961 38.263V74.6189L169.394 77.9691C165.051 73.3781 157.761 72.9128 152.891 77.0075L136.264 91.0287C123.701 101.545 119.389 119.319 125.593 134.395V138.397H123.204C121.529 138.397 120.195 139.731 120.195 141.406V171.061C120.195 172.737 121.529 174.07 123.204 174.07H169.704C171.379 174.07 172.713 172.737 172.713 171.061V141.406C172.713 139.731 171.379 138.397 169.704 138.397H168.401V133.527C171.348 130.332 181.43 119.133 188.968 107.842C194.458 99.6524 197.343 90.0671 197.343 80.1716V37.9217C197.343 34.6646 196.071 31.5936 193.776 29.2981ZM166.695 168.021H126.182V144.384H128.571H165.361H166.664V168.021H166.695ZM191.325 80.1716C191.325 88.8883 188.781 97.2949 183.942 104.492C175.474 117.117 163.314 130.145 163.19 130.27C162.662 130.828 162.383 131.572 162.383 132.317V138.366H131.611V133.775C131.611 133.372 131.518 132.968 131.363 132.596C125.841 119.785 129.439 104.585 140.141 95.6198L156.768 81.5675C159.25 79.4581 163.035 79.7373 165.175 82.1879C167.346 84.6385 167.129 88.423 164.679 90.6255L149.106 104.647C147.866 105.763 147.772 107.656 148.889 108.896C150.006 110.137 151.898 110.23 153.139 109.114L168.711 95.0924C172.061 92.0834 173.24 87.5544 172.31 83.4287L178.017 78.0622C178.638 77.5038 178.948 76.6973 178.948 75.8597V38.2319C178.948 36.4948 179.692 34.7577 180.964 33.4858C182.143 32.307 183.694 31.6556 185.245 31.7177C186.858 31.7487 188.378 32.4001 189.526 33.5168C190.705 34.6956 191.325 36.2466 191.325 37.8907V80.1716Z" fill="#0E2B72"/>
<path d="M75.0605 138.366H72.6719V134.365C78.876 119.258 74.5642 101.514 62.0009 90.9982L45.3739 76.946C40.5037 72.8513 33.2139 73.3166 28.8711 77.9076L25.3037 74.5574V38.2325C25.3037 34.8823 23.9078 31.5941 21.4882 29.2055C19.1306 26.879 16.1217 25.6382 12.8955 25.7002C9.70043 25.7623 6.72247 27.0341 4.45797 29.2676C2.16246 31.5631 0.890625 34.6341 0.890625 37.8912V80.1411C0.890625 90.0366 3.77553 99.6219 9.26614 107.811C16.8041 119.103 26.8857 130.301 29.8327 133.496V138.366H28.5609C26.8857 138.366 25.5519 139.7 25.5519 141.375V171.031C25.5519 172.706 26.8857 174.04 28.5609 174.04H75.0605C76.7356 174.04 78.0695 172.706 78.0695 171.031V141.375C78.0695 139.731 76.7356 138.366 75.0605 138.366ZM35.0751 130.27C34.9511 130.146 22.76 117.117 14.3225 104.492C9.51431 97.2954 6.97063 88.8888 6.97063 80.1721V37.9223C6.97063 36.2782 7.62206 34.7272 8.76981 33.5484C9.91757 32.4006 11.4376 31.7492 13.0506 31.7492C14.6327 31.6872 16.1527 32.3696 17.3315 33.5174C18.6033 34.7582 19.3478 36.4953 19.3478 38.2325V75.8603C19.3478 76.6978 19.689 77.4733 20.2784 78.0627L25.9862 83.4292C25.0245 87.555 26.2343 92.0839 29.5845 95.0929L45.1568 109.114C46.3976 110.231 48.2898 110.138 49.4066 108.897C50.5233 107.656 50.4303 105.764 49.1894 104.647L33.6172 90.626C31.1666 88.4235 30.9494 84.639 33.1209 82.1884C35.2613 79.7378 39.0458 79.4586 41.5274 81.568L58.1854 95.6203C68.8874 104.585 72.4858 119.785 66.9331 132.597C66.778 132.969 66.685 133.372 66.685 133.775V138.366H35.9127V132.317C35.8817 131.573 35.6025 130.828 35.0751 130.27ZM72.0825 168.022H31.5698V144.384H32.8417H69.6629H72.0515V168.022H72.0825Z" fill="#0E2B72"/>
<path d="M99.0931 83.5226C120.714 83.5226 138.272 65.934 138.272 44.3438C138.272 22.7536 120.683 5.19604 99.0931 5.19604C77.5029 5.19604 59.9453 22.7536 59.9453 44.3438C59.9453 65.934 77.5029 83.5226 99.0931 83.5226ZM99.0931 11.183C117.395 11.183 132.254 26.0418 132.254 44.3128C132.254 62.6149 117.364 77.4736 99.0931 77.4736C80.8221 77.4736 65.9633 62.5838 65.9633 44.3128C65.9633 26.0728 80.8221 11.183 99.0931 11.183Z" fill="#0E2B72"/>
<path d="M103.296 47.2293C101.776 49.0595 101 51.4171 101 54.2089C101 57.0318 101.776 59.3583 103.296 61.1885C104.847 63.0498 107.018 63.9804 109.841 63.9804C112.633 63.9804 114.835 63.0498 116.386 61.1885C117.906 59.3583 118.682 57.0008 118.682 54.2089C118.682 51.4171 117.906 49.0595 116.386 47.2293C114.866 45.3681 112.664 44.4375 109.841 44.4375C107.018 44.4375 104.816 45.3991 103.296 47.2293ZM113.067 50.1142C113.842 51.1689 114.246 52.5649 114.246 54.2089C114.246 55.884 113.842 57.2489 113.067 58.3036C112.291 59.3583 111.237 59.8547 109.81 59.8547C108.414 59.8547 107.359 59.3583 106.584 58.3036C105.808 57.2489 105.405 55.884 105.405 54.2089C105.405 52.5338 105.808 51.1689 106.584 50.1142C107.359 49.0906 108.414 48.5632 109.81 48.5632C111.237 48.5632 112.291 49.0906 113.067 50.1142Z" fill="#FFB400"/>
<path d="M86.3672 61.4973C86.3672 62.0867 86.5843 62.583 87.0186 62.9863C87.4219 63.3895 87.9182 63.5757 88.4766 63.5757C88.8488 63.5757 89.2211 63.4826 89.5623 63.2655C89.9035 63.0483 90.1517 62.8002 90.3688 62.4589L111.618 28.4295C111.897 27.9952 112.052 27.5299 112.052 27.0646C112.052 26.4752 111.835 25.9789 111.432 25.6377C111.028 25.2965 110.532 25.1414 109.912 25.1414C109.167 25.1414 108.547 25.4826 108.144 26.165L86.7084 60.4426C86.4913 60.7528 86.3672 61.094 86.3672 61.4973Z" fill="#FFB400"/>
<path d="M88.4658 44.2509C91.2577 44.2509 93.4601 43.3203 95.0111 41.459C96.5311 39.6288 97.3066 37.2713 97.3066 34.4794C97.3066 31.6566 96.5311 29.3301 95.0111 27.4998C93.4911 25.6386 91.2887 24.708 88.4658 24.708C85.674 24.708 83.4715 25.6386 81.9205 27.4998C80.4005 29.3301 79.625 31.6876 79.625 34.4794C79.625 37.3023 80.4005 39.6288 81.9205 41.459C83.4405 43.3203 85.643 44.2509 88.4658 44.2509ZM85.2087 30.3847C85.9842 29.3611 87.0389 28.8337 88.4658 28.8337C89.8617 28.8337 90.9164 29.3301 91.6919 30.3847C92.4675 31.4394 92.8707 32.8354 92.8707 34.4794C92.8707 36.1545 92.4675 37.5194 91.6919 38.5741C90.9164 39.6288 89.8617 40.1252 88.4658 40.1252C87.0699 40.1252 86.0152 39.6288 85.2087 38.5741C84.4332 37.5194 84.0299 36.1545 84.0299 34.4794C84.0299 32.8043 84.4332 31.4394 85.2087 30.3847Z" fill="#FFB400"/>
<path d="M150.462 25.2038L151.858 23.7769V44.3435C151.858 46.0186 153.192 47.3524 154.867 47.3524C156.542 47.3524 157.876 46.0186 157.876 44.3435V23.7769L159.303 25.2038C159.892 25.7932 160.668 26.0724 161.443 26.0724C162.219 26.0724 162.994 25.7932 163.584 25.2038C164.763 24.0251 164.763 22.1328 163.584 20.9541L157.039 14.4087C155.86 13.23 153.968 13.23 152.789 14.4087L146.243 20.9541C145.065 22.1328 145.065 24.0251 146.243 25.2038C147.36 26.3826 149.283 26.3826 150.462 25.2038Z" fill="#0E2B72"/>
<path d="M154.853 50.9202C153.178 50.9202 151.844 52.254 151.844 53.9291V57.8687C151.844 59.5438 153.178 60.8777 154.853 60.8777C156.528 60.8777 157.862 59.5438 157.862 57.8687V53.9291C157.862 52.254 156.528 50.9202 154.853 50.9202Z" fill="#0E2B72"/>
<path d="M101.265 95.6207C100.086 94.4419 98.1941 94.4419 97.0153 95.6207L90.47 102.166C89.2912 103.345 89.2912 105.237 90.47 106.416C91.6488 107.595 93.541 107.595 94.7198 106.416L96.1468 104.989V125.555C96.1468 127.23 97.4806 128.564 99.1557 128.564C100.831 128.564 102.165 127.23 102.165 125.555V104.989L103.592 106.416C104.181 107.005 104.957 107.284 105.732 107.284C106.508 107.284 107.283 107.005 107.872 106.416C109.051 105.237 109.051 103.345 107.872 102.166L101.265 95.6207Z" fill="#0E2B72"/>
<path d="M99.1496 132.132C97.4745 132.132 96.1406 133.466 96.1406 135.141V139.08C96.1406 140.756 97.4745 142.089 99.1496 142.089C100.825 142.089 102.159 140.756 102.159 139.08V135.141C102.159 133.497 100.825 132.132 99.1496 132.132Z" fill="#0E2B72"/>
<path d="M38.9073 11.6792L40.3343 10.2523V30.8188C40.3343 32.4939 41.6681 33.8278 43.3432 33.8278C45.0183 33.8278 46.3522 32.4939 46.3522 30.8188V10.2833L47.7792 11.7102C48.3375 12.2686 49.113 12.5788 49.8885 12.5788C50.6641 12.5788 51.4396 12.2996 52.029 11.7102C53.2077 10.5314 53.2077 8.63919 52.029 7.46041L45.4526 0.884082C44.2739 -0.294694 42.3816 -0.294694 41.2028 0.884082L34.6575 7.42939C33.4787 8.60817 33.4787 10.5004 34.6575 11.6792C35.8363 12.858 37.7285 12.858 38.9073 11.6792Z" fill="#0E2B72"/>
<path d="M43.3684 37.4246C41.6933 37.4246 40.3594 38.7584 40.3594 40.4335V44.3731C40.3594 46.0482 41.6933 47.3821 43.3684 47.3821C45.0435 47.3821 46.3773 46.0482 46.3773 44.3731V40.4335C46.3773 38.7584 45.0124 37.4246 43.3684 37.4246Z" fill="#0E2B72"/>
</svg>
