<svg width="141" height="17" viewBox="0 0 141 17" fill="none" xmlns="http://www.w3.org/2000/svg">
<g clip-path="url(#clip0_20_196)">
<path fill-rule="evenodd" clip-rule="evenodd" d="M79.7219 1.80359V4.99375L78.7354 8.40437H79.7219V10.5134H78.268L77.5139 13.09L77.4778 13.2148H74.6836L77.5501 4.31109C77.7334 3.75328 77.7257 3.60718 77.7283 3.42656C77.7231 3.25656 77.6973 3.21671 77.643 3.17421C77.5862 3.13171 77.4313 3.09453 77.1705 3.09453H76.6953V1.80094H79.7245L79.7219 1.80359ZM84.755 12.6039L82.0719 2.81031C81.9014 2.06922 81.4418 1.77703 80.7497 1.80359H79.7219V4.99375L79.771 4.81843L80.7084 8.40171H79.7219V10.5108H81.1655L81.8963 13.2148H84.755V12.6012V12.6039ZM84.5872 1.80359H84.755V3.09718H84.5872V1.80359ZM95.8129 4.56875H93.215V5.79593H93.5068C93.7238 5.79859 93.8348 5.85171 93.8968 5.92343C93.9613 5.99515 94.0052 6.12 94.0052 6.31656V13.2175H96.7142V5.55953C96.7142 5.27531 96.6238 5.02031 96.4611 4.845C96.2984 4.66703 96.066 4.56875 95.8129 4.5714V4.56875ZM95.2061 1.615C94.7541 1.615 94.3642 1.73187 94.0801 1.96828C93.7961 2.20203 93.636 2.56328 93.6385 2.98296C93.6334 3.40265 93.7986 3.75062 94.0853 3.96843C94.3719 4.1889 94.7593 4.28718 95.2061 4.28718C95.6812 4.28453 96.0712 4.1889 96.3527 3.96843C96.6316 3.74531 96.7788 3.39468 96.7762 2.98296C96.7762 2.56594 96.6367 2.20734 96.3552 1.97094C96.0789 1.73187 95.689 1.615 95.2061 1.615ZM91.4409 1.80359H88.8998V3.09718H89.1916C89.5738 3.12375 89.6668 3.19015 89.69 3.5514V13.2175H92.2285V13.0448H92.399V2.79703C92.399 2.51281 92.3112 2.2525 92.1356 2.07719C91.9625 1.89391 91.7146 1.80359 91.4383 1.80359H91.4409ZM84.7576 3.09718H84.8841C85.1062 3.09718 85.2276 3.14234 85.2844 3.20078C85.3412 3.2539 85.3825 3.34953 85.3825 3.5514V13.2175H87.9236V13.0448H88.0941V2.79703C88.0941 2.51812 88.0244 2.26312 87.8565 2.07984C87.6887 1.89125 87.4356 1.80359 87.1334 1.80359H84.7602V3.09718H84.7576ZM84.7576 13.2175V12.6039L84.9255 13.2175H84.7576ZM101.159 7.64734V9.42437C101.035 9.46421 100.918 9.50671 100.794 9.5625C100.366 9.74578 100.255 9.93171 100.237 10.5294C100.237 10.8295 100.286 11.0102 100.355 11.0952C100.423 11.1802 100.541 11.2333 100.794 11.2359C100.916 11.2359 101.035 11.2173 101.159 11.1828V13.0209C100.753 13.2016 100.291 13.2839 99.8208 13.2866H99.8105C99.1184 13.2866 98.5735 13.082 98.2172 12.6491C97.8608 12.2134 97.7084 11.5892 97.7084 10.7817C97.6981 9.48812 98.1784 8.62218 99.2114 8.16531C99.5161 8.04312 99.8338 7.91031 100.211 7.8439C100.534 7.77218 100.776 7.7164 101.159 7.65V7.64734ZM101.159 4.47046V6.61671C101.001 6.61937 100.836 6.62734 100.518 6.67781C100.107 6.74421 99.7614 6.86109 99.1649 7.10546L98.9557 7.20375L98.7905 7.27812L98.0932 5.41343L98.2327 5.34437C98.9738 4.95922 99.4464 4.83703 99.8983 4.70421C100.309 4.57937 100.732 4.505 101.161 4.47312L101.159 4.47046ZM111.421 4.505C110.556 4.505 109.825 4.78921 108.921 5.55953V5.49843C108.921 5.23015 108.875 4.99375 108.728 4.81843C108.58 4.64046 108.351 4.56875 108.082 4.5714H105.543V5.79859H105.835C106.052 5.80125 106.163 5.85437 106.228 5.92609C106.292 5.99781 106.334 6.12265 106.334 6.31922V13.2202H108.872V13.0448H109.043V7.46672C109.551 7.0125 109.846 6.87703 110.331 6.86906C110.582 6.87437 110.688 6.92218 110.76 7.02312C110.84 7.13203 110.889 7.36578 110.889 7.76421V13.2202H113.539V7.38703C113.544 6.18906 113.412 5.68437 113.084 5.2089C112.679 4.71484 112.123 4.50234 111.426 4.505H111.421ZM120.772 11.2359H117.521L120.821 6.49984V4.57406H115.548C115.225 4.57406 114.959 4.64047 114.776 4.82906C114.592 5.02031 114.53 5.2939 114.53 5.62859V7.31265H115.718V6.94875C115.718 6.74953 115.76 6.65125 115.816 6.59546C115.871 6.53968 115.992 6.49453 116.217 6.49453H117.769L114.466 11.228V13.2202H120.942V11.4139H120.769V11.2359H120.772ZM101.156 13.0209V11.1828C101.453 11.0952 101.76 10.9012 102.078 10.5825V9.22781C101.68 9.29687 101.404 9.35 101.156 9.42437V7.64734C101.391 7.60218 101.683 7.55172 102.078 7.48531V7.44812C102.078 7.08953 102.006 6.89828 101.892 6.79203C101.776 6.67781 101.567 6.61406 101.218 6.61406H101.156V4.46781C101.378 4.44921 101.6 4.44125 101.825 4.44125C102.842 4.44125 103.565 4.62984 104.033 5.13187C104.498 5.63656 104.665 6.39359 104.665 7.44547V11.5308C104.665 11.7247 104.715 11.815 104.782 11.8787C104.854 11.9398 104.975 11.985 105.164 11.985H105.394V13.2148H102.977C102.736 13.2148 102.509 13.1378 102.357 12.9598C102.225 12.8084 102.158 12.5986 102.142 12.3516C101.843 12.6092 101.665 12.7261 101.425 12.8775L101.156 13.0156V13.0209ZM129.371 4.96187H129.206C128.873 4.96187 128.599 5.0389 128.408 5.23546C128.22 5.43468 128.142 5.71625 128.142 6.0589V12.9173H129.371V4.96187ZM129.371 0.687968V2.5075C128.842 2.79703 128.367 3.16359 127.954 3.5939C126.833 4.78656 126.169 6.46531 126.167 8.43625C126.172 11.0872 127.406 13.252 129.371 14.365V16.2244C128.369 15.8127 127.481 15.207 126.745 14.4473C125.299 12.9492 124.439 10.8587 124.439 8.4814C124.439 6.10406 125.296 3.97906 126.74 2.48891L126.766 2.465L126.786 2.44109C127.512 1.68937 128.388 1.09437 129.374 0.687968H129.371ZM129.371 12.9173V4.96187H130.552V5.14515H130.598V12.8695H130.552V12.92H129.371V12.9173ZM132.202 15.1672V16.8273C131.187 16.7875 130.239 16.5777 129.371 16.2217V14.3623C130.198 14.8298 131.153 15.1141 132.202 15.1672ZM132.202 2.88734V12.9173H131.339V4.55812L131.334 4.41734L131.321 4.39875C131.298 4.36953 131.205 4.335 130.988 4.33765H130.655V4.15437H130.608V2.88734H132.202ZM132.202 0.0743738V1.73453C131.156 1.77969 130.198 2.05062 129.371 2.50484V0.685311C130.237 0.326718 131.189 0.116874 132.202 0.0743738ZM132.202 12.9147V2.88468H132.682C133.033 2.88468 133.307 2.94046 133.501 3.13437C133.622 3.26187 133.684 3.42125 133.715 3.60984C133.769 3.76656 133.793 3.94718 133.793 4.15968V12.6916H133.746V12.7394H133.627V12.8642H133.581V12.9147H132.202ZM135.76 14.3836V16.2111C134.789 16.6148 133.715 16.8327 132.574 16.8327H132.571C132.447 16.8327 132.326 16.83 132.202 16.8247V15.1645C132.321 15.1698 132.439 15.1752 132.561 15.1752C133.749 15.1725 134.833 14.8909 135.763 14.3809L135.76 14.3836ZM135.76 0.67203V2.53406C134.823 2.01344 133.723 1.72922 132.514 1.72656L132.202 1.73453V0.0743738C132.321 0.0690613 132.439 0.0690613 132.561 0.0690613C133.71 0.0690613 134.787 0.281561 135.763 0.674686L135.76 0.67203ZM135.76 4.95921H134.531V12.9147H135.76V4.95921ZM135.76 16.2111V14.3836C136.295 14.0914 136.78 13.7222 137.201 13.2866C138.34 12.0912 139.014 10.4098 139.019 8.47609C139.014 5.78531 137.757 3.63375 135.76 2.53406V0.67203C136.77 1.08109 137.666 1.68141 138.41 2.43844C139.872 3.92859 140.744 6.02171 140.744 8.43359C140.744 10.8455 139.872 12.9041 138.418 14.3995L138.392 14.4234L138.371 14.4473C137.638 15.2044 136.752 15.8047 135.76 16.2164V16.2111ZM136.7 5.23546C136.512 5.03625 136.236 4.95921 135.879 4.95921H135.76V12.9147H136.941V12.8642H136.984V6.23421C136.984 6.03765 136.961 5.86765 136.91 5.71359C136.876 5.525 136.814 5.36562 136.698 5.23281L136.7 5.23546Z" fill="#0072BC"/>
<path fill-rule="evenodd" clip-rule="evenodd" d="M6.63681 2.84482V4.98579H3.24868V8.74969L4.18868 7.18516C4.38495 6.84516 4.83687 6.61139 5.23973 6.61139H6.63681V8.75232H3.24868V13.0475L4.18868 11.4776C4.38495 11.1403 4.83687 10.9039 5.23973 10.9039H6.63681V13.0501H0V2.85014H6.63681V2.84482ZM13.4389 12.7527L13.2633 13.0448H13.4389V12.7527ZM13.4389 4.58998V6.33782C13.0954 7.09485 12.2923 7.62873 11.3962 7.85454C12.4576 8.18123 13.1419 8.70717 13.4389 9.40045V11.2705C12.7985 12.8642 10.5285 13.0369 8.85253 13.0448H6.63681V10.8986H8.81121C9.4878 10.9092 10.0224 10.4205 10.0224 9.82282C10.0224 9.22516 9.49813 8.74704 8.81121 8.74704H6.63681V6.6061H8.85253C9.49813 6.6061 10.0249 6.30592 10.0249 5.79326C10.0249 5.2806 9.50588 4.9831 8.85253 4.9831H6.63681V2.84219H8.85253C10.4123 2.84219 12.7778 3.02547 13.4389 4.58735V4.58998ZM13.4389 6.33782V4.58998C13.5525 4.85826 13.6145 5.16373 13.6145 5.51967C13.6145 5.81451 13.5525 6.08813 13.4389 6.33782ZM13.4389 11.2705V9.40045C13.5577 9.67407 13.6145 9.96891 13.6145 10.293C13.6145 10.6702 13.5525 10.9916 13.4389 11.2705ZM29.5738 12.8775L23.562 2.84482H19.3785L13.4363 12.7527V13.0448H17.0827L21.4702 5.29654L23.6136 9.08435H21.1603C20.7549 9.08435 20.3004 9.31813 20.1041 9.65813L19.1667 11.2227H24.8274L25.8526 13.0422H29.5713V12.8722L29.5738 12.8775ZM29.5738 10.9013V11.0739L29.4731 10.9013H29.5738ZM29.5738 13.0475H29.6771L29.5738 12.8775V13.0475ZM40.0042 12.7659L39.8338 13.0475H40.0042V12.7659ZM40.0042 2.84751V11.2784C39.573 12.58 38.3644 13.0475 36.8743 13.0475H31.4668C31.0613 13.0475 30.6068 12.8111 30.4131 12.4737L29.5738 11.0739V10.9013H35.5831C36.3217 10.9013 36.9208 10.5347 36.9208 9.7936V2.84751H40.0016H40.0042ZM40.0042 11.2784V2.84751H40.1747V10.1097C40.1747 10.5586 40.1153 10.9437 40.0042 11.2784ZM56.1418 12.8775L50.1325 2.84751H45.9541L40.0068 12.7659V13.0475H43.6584L48.0433 5.29923L50.1893 9.08701H47.736C47.3331 9.08701 46.8786 9.32079 46.6849 9.66079L45.7449 11.2253H51.403L52.4308 13.0448H56.1443V12.8722L56.1418 12.8775ZM56.1418 11.0739L56.0385 10.9013H56.1418V11.0739ZM56.1418 13.0475H56.2451L56.1418 12.8748V13.0475ZM62.151 10.9013C62.8896 10.9013 63.4913 10.5347 63.4913 9.7936V2.84751H66.7374V10.1097C66.7374 12.309 65.3093 13.0475 63.4397 13.0475H58.0295C57.6241 13.0475 57.1696 12.8111 56.9785 12.4737L56.1392 11.0739V10.9013H62.1485H62.151Z" fill="#0072BC"/>
<path d="M70.8096 16.745H71.7082V0.130157H70.8096V16.745Z" fill="#0072BC"/>
</g>
<defs>
<clipPath id="clip0_20_196">
<rect width="141" height="17" fill="white"/>
</clipPath>
</defs>
</svg>
