<svg width="141" height="33" viewBox="0 0 141 33" fill="none" xmlns="http://www.w3.org/2000/svg">
<g clip-path="url(#clip0_20_162)">
<path fill-rule="evenodd" clip-rule="evenodd" d="M89.976 13.7512C90.8146 12.72 91.7834 11.6437 93.0265 10.4362C94.2695 9.21746 95.3786 8.27996 96.4509 7.47371C97.6272 6.57371 99.134 6.54371 100.303 7.46246C101.371 8.27996 102.473 9.21746 103.716 10.4362C104.956 11.6362 105.931 12.7125 106.762 13.7437C107.746 14.9625 107.738 16.26 106.762 17.4787C105.924 18.5212 104.948 19.5937 103.716 20.805C102.462 22.0162 101.371 22.9425 100.303 23.76C99.1154 24.6525 97.6309 24.6525 96.4509 23.76C95.3749 22.9425 94.2728 22.0012 93.0372 20.805C91.7831 19.5937 90.8224 18.5212 89.9876 17.4787C89.0711 16.3425 89.0262 14.8837 89.9798 13.7512" fill="#023F88"/>
<path fill-rule="evenodd" clip-rule="evenodd" d="M89.1038 15.8625C89.2188 16.44 89.4859 16.935 89.9275 17.4787C90.7735 18.5287 91.7791 19.5937 93.0332 20.805C94.2688 22.0012 95.3745 22.9425 96.4469 23.76C96.9367 24.135 97.5118 24.3637 98.061 24.4125C96.9256 24.1312 95.2558 22.365 96.1426 19.1662C96.9775 16.1287 98.3355 13.9087 99.022 12.5437L99.0368 12.4987C100.413 9.8775 98.4691 8.98496 96.9367 10.305C98.0239 8.79746 100.506 6.33 101.367 5.43746C102.22 4.52621 101.616 3.60373 99.9051 4.0725C96.3875 5.14875 92.0165 8.4825 89.972 12.4162C89.2967 13.7287 88.9999 14.8725 89.1001 15.8625" fill="#EC1C24"/>
<path fill-rule="evenodd" clip-rule="evenodd" d="M38.345 23.025C37.3061 23.025 36.3375 22.8562 35.4321 22.5225C34.5268 22.1812 33.7401 21.6862 33.0685 21.0375C32.408 20.4075 31.8923 19.6275 31.5101 18.6975C31.1316 17.7638 30.9424 16.74 30.9424 15.6225C30.9424 14.5125 31.1316 13.4887 31.5101 12.5475C31.8923 11.5987 32.434 10.7813 33.1279 10.0875C33.8069 9.40875 34.6195 8.88375 35.5731 8.5125C36.523 8.1375 37.5398 7.95 38.6233 7.95C39.41 7.95 40.1224 8.04746 40.768 8.24246C41.4136 8.42996 41.9554 8.6475 42.4043 8.8875L43.024 8.3325H43.8923L43.985 13.5563H43.1056C42.6047 11.9625 42.0073 10.7925 41.3097 10.0463C40.6122 9.3 39.7587 8.92875 38.7532 8.92875C37.5027 8.92875 36.5527 9.4875 35.8996 10.6013C35.2466 11.7113 34.9238 13.2712 34.9238 15.2813C34.9238 16.4175 35.0351 17.3887 35.2503 18.195C35.4766 18.9937 35.7698 19.6388 36.1297 20.13C36.5156 20.64 36.972 21.0187 37.4953 21.2587C38.0185 21.4912 38.6011 21.6112 39.243 21.6112C40.1743 21.6112 41.0018 21.3562 41.7253 20.8462C42.4563 20.3325 43.1242 19.5638 43.7216 18.525L44.5787 19.05C44.293 19.6425 43.9665 20.175 43.6028 20.6438C43.2355 21.1088 42.8125 21.51 42.3338 21.8475C41.8107 22.2187 41.2244 22.5037 40.5862 22.7138C39.9554 22.9238 39.2059 23.025 38.3413 23.025" fill="#231F20"/>
<path fill-rule="evenodd" clip-rule="evenodd" d="M57.5618 22.6425H51.5581V21.9075C51.688 21.8925 51.8476 21.8775 52.0257 21.855C52.2075 21.8363 52.3374 21.8025 52.4227 21.7537C52.5637 21.6787 52.6602 21.57 52.7121 21.4313C52.7715 21.2925 52.8012 21.0825 52.8012 20.805V16.0875C52.8012 15.3975 52.6713 14.8762 52.4116 14.535C52.1593 14.1937 51.7956 14.0213 51.3244 14.0213C51.0572 14.0213 50.8086 14.0625 50.5749 14.1413C50.3485 14.22 50.1259 14.34 49.907 14.4938C49.714 14.6288 49.5582 14.7675 49.4357 14.9063C49.3207 15.0488 49.2242 15.1688 49.1463 15.2813V20.6962C49.1463 20.9437 49.176 21.1425 49.2354 21.2888C49.2947 21.4275 49.4098 21.5475 49.573 21.6413C49.6732 21.7013 49.8031 21.7575 49.9626 21.8025C50.1296 21.8513 50.2892 21.885 50.4413 21.9038V22.6388H44.3746V21.9038C44.549 21.8888 44.7159 21.8738 44.8755 21.8513C45.0425 21.8325 45.1872 21.7988 45.3133 21.75C45.5285 21.6713 45.6695 21.555 45.7438 21.4088C45.8217 21.255 45.8625 21.0525 45.8625 20.8013V9.55875C45.8625 9.345 45.8105 9.11625 45.7141 8.8725C45.6139 8.6325 45.4729 8.44875 45.2948 8.32875C45.1575 8.2425 44.9683 8.175 44.7122 8.12625C44.4599 8.07375 44.2336 8.04 44.0332 8.025V7.28625L48.9905 7.02375L49.1389 7.185V14.1225H49.1797C49.432 13.8938 49.6584 13.6913 49.8587 13.5075C50.0628 13.32 50.3114 13.1288 50.6083 12.945C50.8532 12.7838 51.1723 12.6412 51.5619 12.5325C51.9626 12.42 52.3893 12.36 52.8494 12.36C53.9292 12.36 54.7344 12.675 55.2724 13.2975C55.8178 13.9238 56.0924 14.745 56.0924 15.7688V20.7113C56.0924 20.9625 56.1295 21.1575 56.2037 21.3075C56.2779 21.4575 56.4115 21.5737 56.6119 21.66C56.7343 21.7162 56.8642 21.7613 57.0126 21.8025C57.161 21.8438 57.3392 21.8775 57.5507 21.9038V22.6388L57.5618 22.6425Z" fill="#231F20"/>
<path fill-rule="evenodd" clip-rule="evenodd" d="M64.9083 20.8162C65.0568 20.4412 65.1607 19.9837 65.2275 19.4437C65.3017 18.9075 65.3391 18.2812 65.3391 17.5687C65.3391 17.1 65.3054 16.56 65.2386 15.9562C65.1718 15.3525 65.0716 14.8725 64.938 14.5237C64.7785 14.1 64.5562 13.7662 64.2705 13.5262C63.9885 13.2862 63.636 13.1625 63.2019 13.1625C62.7306 13.1625 62.3481 13.2937 62.0624 13.5562C61.7841 13.8187 61.5692 14.16 61.4171 14.5762C61.2761 14.9587 61.1793 15.4087 61.1273 15.9262C61.0717 16.44 61.0461 16.9725 61.0461 17.5312C61.0461 18.2662 61.0683 18.8737 61.1166 19.3575C61.1648 19.8337 61.2757 20.3175 61.4576 20.7975C61.6097 21.2175 61.8286 21.5437 62.118 21.7875C62.4037 22.0312 62.764 22.1512 63.2056 22.1512C63.6063 22.1512 63.951 22.0387 64.233 21.8175C64.5187 21.5887 64.7451 21.255 64.9121 20.82M67.469 13.8337C67.9588 14.295 68.3369 14.8537 68.5966 15.4987C68.8563 16.14 68.9825 16.8412 68.9825 17.595C68.9825 18.3487 68.8526 19.0462 68.5966 19.7137C68.3443 20.37 67.9695 20.9362 67.4797 21.405C66.9529 21.9112 66.3224 22.2975 65.5952 22.5637C64.8679 22.83 64.0364 22.965 63.0976 22.9687C62.2887 22.9687 61.5392 22.8525 60.8527 22.6162C60.1737 22.38 59.573 22.0275 59.0498 21.5587C58.5415 21.1087 58.1441 20.5537 57.8509 19.8937C57.5578 19.23 57.4131 18.4875 57.4131 17.6662C57.4131 16.845 57.5392 16.14 57.7916 15.5175C58.0513 14.8875 58.4372 14.325 58.9455 13.8337C59.439 13.3612 60.0438 13.0012 60.7637 12.7425C61.4872 12.48 62.2961 12.3487 63.1867 12.3487C64.1217 12.3487 64.938 12.48 65.643 12.7425C66.3517 12.9975 66.9644 13.3612 67.469 13.8337Z" fill="#231F20"/>
<path fill-rule="evenodd" clip-rule="evenodd" d="M75.1383 22.6425H68.8824V21.9075C69.0568 21.8925 69.2237 21.8775 69.3833 21.855C69.5503 21.8362 69.695 21.8025 69.8211 21.7537C70.0363 21.675 70.1773 21.5587 70.2516 21.4125C70.3332 21.2587 70.3703 21.0562 70.3703 20.805V9.63375C70.3703 9.37875 70.3183 9.13875 70.2107 8.92875C70.1106 8.7075 69.9733 8.53875 69.8026 8.4225C69.669 8.33625 69.4649 8.25 69.1941 8.17125C68.9306 8.08875 68.6894 8.04375 68.4854 8.0325V7.29375L73.5057 7.03125L73.6541 7.1925V20.6738C73.6541 20.925 73.6949 21.1275 73.784 21.2812C73.873 21.435 74.0103 21.5588 74.2033 21.645C74.3368 21.705 74.4778 21.7613 74.6226 21.8063C74.771 21.855 74.9417 21.8887 75.142 21.9075V22.6425H75.1383Z" fill="#231F20"/>
<path fill-rule="evenodd" clip-rule="evenodd" d="M81.3382 17.1787C80.9671 17.3062 80.5961 17.4525 80.2324 17.6212C79.8651 17.7825 79.5683 17.955 79.3345 18.135C79.0859 18.3225 78.8929 18.5662 78.7556 18.8625C78.6146 19.1512 78.5441 19.4925 78.5441 19.89C78.5441 20.415 78.6629 20.7975 78.8929 21.03C79.1341 21.2662 79.4273 21.3825 79.7723 21.3825C80.1397 21.3825 80.4365 21.3112 80.6703 21.1612C80.9115 21.0075 81.1193 20.8162 81.2974 20.595L81.3382 17.1787ZM86.2992 22.4325C86.006 22.56 85.6609 22.6762 85.2602 22.785C84.8595 22.89 84.4365 22.9462 83.9912 22.9462C83.1749 22.9462 82.5701 22.8262 82.1842 22.5825C81.7983 22.335 81.5385 21.9825 81.3975 21.525H81.3382C81.1118 21.7537 80.8929 21.9487 80.6777 22.11C80.4699 22.2712 80.251 22.41 80.0098 22.5225C79.6981 22.6687 79.3939 22.7775 79.1044 22.845C78.8187 22.92 78.4143 22.9537 77.8948 22.9575C77.123 22.9575 76.4663 22.7287 75.9208 22.2712C75.3754 21.8062 75.1045 21.195 75.1045 20.4337C75.1045 19.9987 75.1639 19.6312 75.2826 19.3237C75.405 19.0162 75.572 18.7425 75.7909 18.5062C75.9913 18.2925 76.2214 18.1162 76.4811 17.9737C76.7483 17.8312 77.0377 17.7 77.3494 17.58C77.9505 17.3587 78.6666 17.13 79.5052 16.8937C80.34 16.6537 80.9523 16.4362 81.3382 16.2487V15.2812C81.3382 15.1125 81.3233 14.8912 81.2974 14.6137C81.2714 14.3362 81.2157 14.1037 81.1304 13.9162C81.0376 13.7025 80.8892 13.5225 80.6888 13.3725C80.4922 13.2225 80.2287 13.1512 79.9022 13.1512C79.6091 13.1512 79.3642 13.1962 79.1675 13.2825C78.9746 13.3612 78.815 13.4475 78.7 13.5337C78.7185 13.6687 78.7742 13.875 78.867 14.1487C78.9597 14.4262 79.008 14.6925 79.008 14.9437C79.008 15.0562 78.9783 15.2062 78.9189 15.3787C78.8595 15.5475 78.7742 15.6825 78.6592 15.7837C78.507 15.9187 78.3326 16.0237 78.1397 16.095C77.9542 16.17 77.6648 16.2075 77.2751 16.2075C76.7111 16.2075 76.2919 16.0725 76.0061 15.8062C75.7204 15.5287 75.5757 15.1725 75.5757 14.7375C75.5757 14.3587 75.7241 14.0212 76.0136 13.7287C76.3141 13.425 76.6778 13.1775 77.1008 12.9825C77.52 12.78 78.0024 12.6262 78.5479 12.5212C79.0933 12.405 79.5979 12.3487 80.0655 12.3487C80.7111 12.3487 81.3011 12.39 81.8391 12.4725C82.3771 12.5475 82.8632 12.705 83.2973 12.945C83.7092 13.1812 84.0357 13.5262 84.2732 13.9725C84.5218 14.415 84.6443 15 84.6443 15.7162C84.6443 16.4737 84.6294 17.3775 84.596 18.42C84.57 19.4625 84.5552 20.1487 84.5552 20.4787C84.5552 20.7825 84.5997 21.0187 84.6851 21.195C84.7778 21.3712 84.9151 21.4987 85.1044 21.5887C85.2157 21.645 85.3938 21.675 85.635 21.69C85.8799 21.6975 86.1025 21.7012 86.3029 21.7012V22.4362L86.2992 22.4325Z" fill="#231F20"/>
<path fill-rule="evenodd" clip-rule="evenodd" d="M128.796 22.6425H121.419V21.885C121.635 21.8662 121.902 21.8325 122.217 21.7875C122.536 21.7425 122.751 21.6975 122.87 21.6412C123.108 21.5437 123.275 21.4125 123.379 21.2437C123.479 21.075 123.531 20.865 123.531 20.6062V10.3275L118.852 22.4137H117.642C117.586 22.2 117.442 21.78 117.212 21.1462C116.989 20.5125 116.807 20.0062 116.666 19.6237L113.223 10.17V18.5362C113.223 19.3387 113.275 19.95 113.375 20.3662C113.486 20.7825 113.657 21.0862 113.894 21.2812C114.054 21.4162 114.336 21.5475 114.748 21.6675C115.163 21.7912 115.453 21.8625 115.616 21.8812V22.6387H109.765V21.8812C109.928 21.8625 110.184 21.8212 110.544 21.7575C110.907 21.6862 111.204 21.5662 111.434 21.3975C111.69 21.2137 111.865 20.9137 111.954 20.4862C112.043 20.0512 112.087 19.44 112.087 18.645V11.8312C112.087 11.415 112.035 11.0737 111.935 10.8037C111.831 10.5262 111.679 10.305 111.475 10.1437C111.219 9.94496 110.959 9.81371 110.689 9.75746C110.421 9.70121 110.151 9.65996 109.872 9.64121V8.88371H116.136L119.494 17.97L122.321 10.5937C122.418 10.3237 122.51 10.0012 122.596 9.62621C122.688 9.25121 122.737 9.00371 122.744 8.88746H128.774V9.64496C128.57 9.65996 128.354 9.68246 128.132 9.72371C127.909 9.76496 127.694 9.81371 127.49 9.87746C127.241 9.95996 127.078 10.095 126.993 10.275C126.918 10.4587 126.878 10.6575 126.878 10.875V20.6175C126.878 20.85 126.915 21.0487 126.993 21.21C127.078 21.3637 127.241 21.5025 127.49 21.6187C127.62 21.675 127.827 21.7312 128.113 21.7837C128.406 21.8362 128.636 21.87 128.796 21.8887V22.6462V22.6425Z" fill="#231F20"/>
<path fill-rule="evenodd" clip-rule="evenodd" d="M135.167 23.0138C134.332 23.0138 133.557 22.9088 132.837 22.7025C132.121 22.4963 131.512 22.2525 131.011 21.9638L130.351 22.6425H129.534L129.408 17.67H130.236C130.421 18.1425 130.655 18.6375 130.944 19.1625C131.23 19.6838 131.564 20.1525 131.942 20.5688C132.332 21 132.766 21.3525 133.245 21.6263C133.731 21.8963 134.295 22.035 134.944 22.035C135.813 22.035 136.477 21.8213 136.941 21.3938C137.408 20.9625 137.642 20.4188 137.642 19.7663C137.642 19.23 137.441 18.7838 137.044 18.42C136.655 18.0525 136.05 17.7338 135.223 17.4675C134.685 17.295 134.191 17.1338 133.735 16.9838C133.286 16.8338 132.866 16.6838 132.466 16.5263C131.553 16.1588 130.874 15.63 130.425 14.9438C129.983 14.2575 129.764 13.4925 129.764 12.6488C129.764 12.1125 129.879 11.5988 130.109 11.1038C130.34 10.6088 130.673 10.1625 131.115 9.765C131.538 9.3975 132.08 9.0975 132.737 8.865C133.397 8.6325 134.113 8.51625 134.889 8.51625C135.642 8.51625 136.351 8.62125 137.007 8.835C137.668 9.04125 138.184 9.25125 138.558 9.465L139.145 8.88H139.979L140.054 13.5713H139.23C139.041 13.0688 138.811 12.555 138.551 12.03C138.295 11.4975 138.024 11.0625 137.735 10.71C137.419 10.335 137.059 10.0388 136.651 9.8175C136.243 9.5925 135.761 9.48 135.215 9.47625C134.525 9.47625 133.957 9.675 133.516 10.0688C133.078 10.4625 132.863 10.95 132.863 11.5313C132.863 12.0825 133.052 12.5325 133.427 12.8813C133.813 13.23 134.406 13.5375 135.211 13.8C135.683 13.965 136.165 14.1263 136.659 14.2875C137.148 14.4488 137.59 14.6063 137.976 14.7525C138.9 15.1163 139.605 15.615 140.083 16.2563C140.573 16.89 140.814 17.6775 140.814 18.6225C140.814 19.215 140.677 19.7925 140.402 20.3475C140.128 20.9025 139.757 21.3638 139.289 21.7313C138.777 22.14 138.187 22.4513 137.516 22.6725C136.844 22.8938 136.061 23.0025 135.167 23.0025" fill="#231F20"/>
<path fill-rule="evenodd" clip-rule="evenodd" d="M11.421 15.6375C10.1223 15.1012 9.19839 14.3775 9.40618 12.5362C9.68447 10.065 13.5286 7.23371 14.7605 5.82746C15.6287 4.83746 15.8328 2.41122 15.8328 2.41122C15.8328 2.41122 17.1167 5.10746 15.6213 7.35746C15.0165 8.26496 11.9405 11.2912 11.3023 13.17C11.0574 13.89 10.9312 14.82 11.4247 15.6337" fill="#EC1C24"/>
<path fill-rule="evenodd" clip-rule="evenodd" d="M9.23203 13.3125C7.94077 12.7537 6.90924 11.8463 7.15043 10.0088C7.47324 7.54125 11.3656 4.7775 12.6197 3.3975C13.5066 2.4225 13.744 0.0412445 13.744 0.0412445C13.744 0.0412445 14.9833 2.76 13.4509 4.98375C12.8312 5.88 9.69956 8.85 9.03166 10.7175C8.77564 11.43 8.60867 12.36 9.23574 13.3162" fill="#EC1C24"/>
<path fill-rule="evenodd" clip-rule="evenodd" d="M17.7184 13.6237C19.0171 14.16 19.9447 14.8875 19.7332 16.725C19.4549 19.1962 15.6108 22.0275 14.3789 23.4337C13.5106 24.4237 13.3103 26.8462 13.3103 26.8462C13.3103 26.8462 12.0227 24.15 13.5218 21.9037C14.1229 20.9962 17.2026 17.97 17.8408 16.0912C18.0857 15.3712 18.2082 14.4375 17.7184 13.6237Z" fill="#EC1C24"/>
<path fill-rule="evenodd" clip-rule="evenodd" d="M19.9071 15.9525C21.1984 16.5112 22.2299 17.4187 21.9887 19.2562C21.6659 21.7237 17.7736 24.4837 16.5194 25.8637C15.6326 26.8387 15.3951 29.2237 15.3951 29.2237C15.3951 29.2237 14.1558 26.505 15.6883 24.285C16.3079 23.3887 19.4396 20.4112 20.1112 18.5475C20.3672 17.8312 20.5305 16.905 19.9071 15.9525Z" fill="#EC1C24"/>
<path fill-rule="evenodd" clip-rule="evenodd" d="M15.5649 17.8125C15.0343 19.125 14.3145 20.0625 12.4963 19.8487C10.0511 19.5675 7.24966 15.6825 5.86563 14.4375C4.88605 13.5562 2.48535 13.3575 2.48535 13.3575C2.48535 13.3575 5.15321 12.0562 7.37953 13.5675C8.27748 14.1787 11.2719 17.2912 13.1308 17.9362C13.8396 18.1837 14.7635 18.3075 15.5687 17.8125" fill="#023F88"/>
<path fill-rule="evenodd" clip-rule="evenodd" d="M13.2614 20.025C12.7086 21.3338 11.8106 22.3763 9.99246 22.1325C7.55464 21.8063 4.81999 17.8725 3.45452 16.605C2.48979 15.705 0.129883 15.465 0.129883 15.465C0.129883 15.465 2.82003 14.2125 5.01668 15.7613C5.9035 16.3875 8.84591 19.5525 10.69 20.2313C11.395 20.49 12.3152 20.6588 13.2577 20.025" fill="#023F88"/>
<path fill-rule="evenodd" clip-rule="evenodd" d="M13.5771 11.4488C14.1078 10.1325 14.8239 9.19875 16.6458 9.40875C19.091 9.69375 21.8924 13.575 23.2802 14.82C24.2598 15.6975 26.6605 15.9038 26.6605 15.9038C26.6605 15.9038 23.9926 17.2013 21.77 15.69C20.872 15.0788 17.8776 11.9663 16.0187 11.3213C15.3063 11.0775 14.3823 10.95 13.5809 11.445" fill="#023F88"/>
<path fill-rule="evenodd" clip-rule="evenodd" d="M15.8767 9.23625C16.4296 7.93125 17.3276 6.88875 19.142 7.1325C21.5835 7.45875 24.3145 11.3925 25.68 12.66C26.6447 13.5562 29.0046 13.7962 29.0046 13.7962C29.0046 13.7962 26.3145 15.0488 24.1141 13.4963C23.2273 12.87 20.2886 9.705 18.4407 9.03C17.7357 8.77125 16.8155 8.6025 15.873 9.23625" fill="#023F88"/>
<path fill-rule="evenodd" clip-rule="evenodd" d="M35.5024 30.9375H37.2874V31.0875C37.0906 31.0875 36.957 31.1063 36.8828 31.1475C36.816 31.1888 36.7677 31.2525 36.7455 31.3462C36.7232 31.4362 36.7121 31.665 36.7121 32.025V32.4675C36.6638 32.46 36.6193 32.4563 36.5822 32.4563C36.4264 32.4563 36.2186 32.5013 35.9663 32.6025C35.6212 32.7338 35.3021 32.7975 35.0052 32.7975C34.4116 32.7975 33.9181 32.6025 33.5247 32.2088C33.1314 31.815 32.9385 31.3125 32.9385 30.7088C32.9385 30.105 33.124 29.5838 33.4988 29.1338C33.8735 28.6838 34.3819 28.4625 35.0275 28.4625C35.5804 28.4625 36.0368 28.665 36.4004 29.0775C36.4709 28.935 36.5117 28.7775 36.5303 28.6125H36.6787V30.0113H36.5303C36.4709 29.58 36.3076 29.2425 36.0442 28.9913C35.7807 28.74 35.4616 28.6125 35.0869 28.6125C34.7121 28.6125 34.3596 28.7588 34.0702 29.0513C33.7808 29.3438 33.6361 29.8613 33.6361 30.6075C33.6361 31.3538 33.7771 31.8788 34.0553 32.1863C34.3373 32.4938 34.6824 32.6475 35.0943 32.6475C35.3058 32.6475 35.4987 32.6063 35.6731 32.5163C35.8475 32.4263 35.9663 32.3213 36.0293 32.1938C36.0924 32.07 36.1258 31.9125 36.1258 31.7175C36.1258 31.4925 36.111 31.3425 36.0776 31.2713C36.0479 31.1963 36.0034 31.1438 35.9403 31.1175C35.8809 31.0913 35.7696 31.08 35.6063 31.08H35.5062V30.93L35.5024 30.9375Z" fill="#231F20"/>
<path fill-rule="evenodd" clip-rule="evenodd" d="M41.6944 31.4212H41.8391L41.7537 32.7262H38.3252V32.5837H38.4105C38.6146 32.5837 38.7482 32.5537 38.8076 32.5012C38.8669 32.445 38.904 32.3775 38.9226 32.2912C38.9374 32.2012 38.9449 31.9875 38.9449 31.635V29.5837C38.9449 29.265 38.9374 29.055 38.9189 28.9537C38.9003 28.8525 38.8632 28.7812 38.8001 28.7437C38.7371 28.7025 38.6072 28.6837 38.4105 28.6837V28.5375H41.3678L41.4643 29.5837H41.3196C41.2565 29.2912 41.1749 29.085 41.0784 28.9613C40.9856 28.8375 40.8743 28.7625 40.7407 28.7287C40.6109 28.695 40.3994 28.68 40.1137 28.68H39.5385V30.435H39.9801C40.1805 30.435 40.3215 30.4162 40.3994 30.3825C40.481 30.345 40.533 30.2962 40.5589 30.225C40.5849 30.1537 40.596 30.0113 40.596 29.805H40.7407V31.2412H40.596C40.596 31.0087 40.5775 30.855 40.5404 30.7762C40.5033 30.6975 40.4439 30.645 40.3697 30.6225C40.2955 30.5963 40.1693 30.585 39.9949 30.585H39.5385V31.575C39.5385 32.0737 39.5719 32.3662 39.6313 32.4525C39.6944 32.5425 39.8651 32.5837 40.1434 32.5837H40.4513C40.6702 32.5837 40.8484 32.5537 40.9894 32.5012C41.1304 32.445 41.2639 32.3287 41.3901 32.1525C41.52 31.9762 41.6201 31.7325 41.6944 31.4212Z" fill="#231F20"/>
<path fill-rule="evenodd" clip-rule="evenodd" d="M46.5713 32.8237L43.6437 28.8975V31.8037C43.6437 32.0437 43.6548 32.205 43.6771 32.28C43.6993 32.355 43.7698 32.4262 43.8774 32.49C43.9887 32.5537 44.152 32.5837 44.3746 32.5837V32.7262H42.8311V32.5837C43.0277 32.5687 43.1798 32.535 43.2837 32.475C43.3876 32.415 43.447 32.3512 43.4693 32.2837C43.4878 32.2162 43.499 32.055 43.499 31.8037V29.5837C43.499 29.2612 43.4841 29.0475 43.4544 28.9387C43.4247 28.83 43.3802 28.7587 43.3134 28.7287C43.2503 28.6987 43.1056 28.6837 42.8867 28.6837V28.5375H44.1075L46.5601 31.815V29.3137C46.5601 29.1262 46.5416 28.995 46.5008 28.9237C46.4637 28.8487 46.3894 28.7888 46.2707 28.7475C46.1557 28.7025 46.0147 28.6837 45.8514 28.6837V28.5375H47.3542V28.68C47.1798 28.695 47.0425 28.7287 46.9386 28.7812C46.8384 28.8337 46.7753 28.8975 46.7494 28.9725C46.7234 29.0475 46.7086 29.175 46.7086 29.355V32.82H46.575L46.5713 32.8237Z" fill="#231F20"/>
<path fill-rule="evenodd" clip-rule="evenodd" d="M51.669 31.4212H51.8174L51.732 32.7262H48.2998V32.5837H48.3851C48.5892 32.5837 48.7228 32.5537 48.7822 32.5012C48.8415 32.445 48.8824 32.3775 48.8972 32.2912C48.912 32.2012 48.9232 31.9875 48.9232 31.635V29.5837C48.9232 29.265 48.912 29.055 48.8972 28.9537C48.8824 28.8525 48.8415 28.7812 48.7785 28.7437C48.7191 28.7025 48.5855 28.6837 48.3889 28.6837V28.5375H51.3499L51.4463 29.5837H51.3016C51.2385 29.2912 51.1569 29.085 51.0604 28.9613C50.9677 28.8375 50.8564 28.7625 50.7265 28.7287C50.5966 28.695 50.3888 28.68 50.0957 28.68H49.5206V30.435H49.9621C50.1625 30.435 50.3035 30.4162 50.3814 30.3825C50.463 30.345 50.515 30.2962 50.541 30.225C50.5669 30.1537 50.5781 30.0113 50.5781 29.805H50.7228V31.2412H50.5781C50.5781 31.0087 50.5595 30.855 50.5224 30.7762C50.4853 30.6975 50.4259 30.645 50.3517 30.6225C50.2775 30.5963 50.1514 30.585 49.977 30.585H49.5206V31.575C49.5206 32.0737 49.5503 32.3662 49.6133 32.4525C49.6764 32.5425 49.8471 32.5837 50.1254 32.5837H50.4334C50.6523 32.5837 50.8304 32.5537 50.9714 32.5012C51.1124 32.445 51.246 32.3287 51.3721 32.1525C51.502 31.9762 51.6022 31.7325 51.6727 31.4212" fill="#231F20"/>
<path fill-rule="evenodd" clip-rule="evenodd" d="M54.1143 30.5662C54.2664 30.5662 54.426 30.555 54.5855 30.5475C54.7488 30.54 54.8898 30.5175 55.0123 30.48C55.131 30.4425 55.2312 30.39 55.3017 30.3187C55.3759 30.2475 55.4353 30.1537 55.4798 30.0375C55.5206 29.925 55.5429 29.7825 55.5429 29.6137C55.5429 29.3212 55.4687 29.085 55.3239 28.905C55.1792 28.7287 54.8638 28.6387 54.374 28.6387C54.2998 28.6387 54.2145 28.6425 54.1143 28.65V30.5662ZM57.2423 32.7262H56.1291C55.9288 32.5875 55.6282 32.22 55.2238 31.6275C55.0939 31.4362 54.9603 31.2562 54.8193 31.0837C54.6783 30.9075 54.5818 30.8025 54.5262 30.765C54.4742 30.7237 54.3926 30.7087 54.2813 30.7087H54.1143V31.635C54.1143 31.965 54.1217 32.1787 54.1366 32.2837C54.1514 32.385 54.1922 32.46 54.259 32.5087C54.3258 32.5575 54.452 32.5837 54.6412 32.5837H54.8379V32.7262H52.8564V32.5837H52.9937C53.1718 32.5837 53.2906 32.5612 53.3611 32.5162C53.4316 32.4712 53.4724 32.4 53.4947 32.3062C53.5132 32.2087 53.5206 31.9875 53.5206 31.635V29.5837C53.5206 29.25 53.5132 29.0362 53.4947 28.9387C53.4724 28.8412 53.4353 28.7737 53.3722 28.7362C53.3091 28.6987 53.1755 28.6837 52.964 28.6837H52.8973V28.5375L53.4872 28.5075C53.8805 28.4887 54.1959 28.4812 54.4297 28.4812C54.8267 28.4812 55.1458 28.515 55.3944 28.59C55.6393 28.665 55.8434 28.785 55.9955 28.9537C56.1477 29.1225 56.2256 29.325 56.2256 29.5612C56.2256 29.835 56.1254 30.0675 55.925 30.2587C55.7247 30.4537 55.4315 30.5737 55.0457 30.6187C55.22 30.7012 55.4983 31.0087 55.8842 31.5337C56.1959 31.9612 56.4445 32.2387 56.6226 32.37C56.8044 32.5012 57.0159 32.5725 57.2571 32.58V32.7225L57.2423 32.7262Z" fill="#231F20"/>
<path fill-rule="evenodd" clip-rule="evenodd" d="M60.5929 31.0425L59.8582 29.2575L59.1309 31.0425H60.5929ZM60.6485 31.1812H59.0716L58.964 31.4475C58.8044 31.8337 58.7265 32.085 58.7265 32.2012C58.7265 32.325 58.7673 32.4225 58.8526 32.49C58.938 32.5537 59.0456 32.5837 59.1792 32.5837V32.7262H57.9473V32.5837C58.1328 32.5537 58.2664 32.49 58.3554 32.3887C58.4445 32.2837 58.5521 32.07 58.6782 31.74C58.6894 31.71 58.7376 31.59 58.823 31.3837L60.0289 28.4812H60.1476L61.5316 31.8037L61.7209 32.2425C61.7654 32.34 61.8211 32.4187 61.8916 32.4787C61.9658 32.535 62.0734 32.5687 62.2181 32.5837V32.7262H60.5892V32.5837C60.7895 32.5837 60.9231 32.5687 60.9936 32.5425C61.0641 32.5125 61.1012 32.4487 61.1012 32.3625C61.1012 32.3175 61.053 32.1787 60.9602 31.9575L60.6448 31.185L60.6485 31.1812Z" fill="#231F20"/>
<path fill-rule="evenodd" clip-rule="evenodd" d="M66.593 31.4925L66.5596 32.7262H63.042V32.5837H63.1644C63.3425 32.5837 63.465 32.5612 63.5318 32.5162C63.6023 32.4712 63.6431 32.4 63.6617 32.3063C63.6839 32.2088 63.6913 31.9875 63.6913 31.635V29.5837C63.6913 29.25 63.6802 29.0362 63.6617 28.9387C63.6431 28.8412 63.606 28.7737 63.5392 28.7362C63.4798 28.6987 63.3425 28.68 63.1348 28.68H63.042V28.5337H65.0308V28.6763H64.849C64.6449 28.6763 64.5114 28.695 64.4483 28.7288C64.3852 28.7625 64.3444 28.8225 64.3221 28.92C64.2999 29.01 64.2924 29.2312 64.2924 29.58V31.7738C64.2924 32.0775 64.2999 32.265 64.3147 32.34C64.3333 32.415 64.3741 32.475 64.4483 32.52C64.5225 32.5613 64.6783 32.58 64.9121 32.58H65.2275C65.4798 32.58 65.669 32.5575 65.7915 32.5125C65.9177 32.4675 66.0327 32.3663 66.144 32.2163C66.2553 32.0625 66.3555 31.8225 66.4483 31.4888H66.593V31.4925Z" fill="#231F20"/>
<path fill-rule="evenodd" clip-rule="evenodd" d="M69.7461 28.6838V28.5413H71.6385V28.6838H71.5494C71.349 28.6838 71.2118 28.7025 71.1487 28.7363C71.0856 28.77 71.0448 28.83 71.0225 28.9275C71.004 29.0175 70.9928 29.2388 70.9928 29.5875V31.6388C70.9928 31.9688 71.0003 32.1825 71.0114 32.2875C71.0262 32.3888 71.0708 32.4638 71.1338 32.5125C71.2006 32.5613 71.3268 32.5875 71.516 32.5875H71.6385V32.73H69.7461V32.5875H69.8685C70.0466 32.5875 70.1691 32.565 70.2359 32.52C70.3064 32.475 70.3472 32.4038 70.3695 32.31C70.388 32.2125 70.3954 31.9913 70.3954 31.6388V29.5875C70.3954 29.2538 70.3843 29.04 70.3695 28.9425C70.3509 28.845 70.3101 28.7775 70.247 28.74C70.1839 28.7025 70.0429 28.6875 69.8389 28.6875H69.7498L69.7461 28.6838Z" fill="#231F20"/>
<path fill-rule="evenodd" clip-rule="evenodd" d="M76.3367 32.8237L73.4054 28.8975V31.8037C73.4054 32.0437 73.4165 32.205 73.4388 32.28C73.4647 32.355 73.5315 32.4262 73.6391 32.49C73.7505 32.5537 73.9137 32.5837 74.1363 32.5837V32.7262H72.5928V32.5837C72.7894 32.5687 72.9416 32.535 73.0455 32.475C73.1493 32.415 73.2124 32.3512 73.2273 32.2837C73.2495 32.2162 73.2607 32.055 73.2607 31.8037V29.5837C73.2607 29.2612 73.2458 29.0475 73.2161 28.9387C73.1865 28.83 73.1419 28.7587 73.0751 28.7287C73.0121 28.6987 72.8711 28.6837 72.6521 28.6837V28.5375H73.8729L76.3256 31.815V29.3137C76.3256 29.1262 76.3033 28.995 76.2699 28.9237C76.2328 28.8487 76.1549 28.7888 76.0398 28.7475C75.9211 28.7025 75.7838 28.6837 75.6206 28.6837V28.5375H77.1233V28.68C76.9489 28.695 76.8079 28.7287 76.7077 28.7812C76.6076 28.8337 76.5408 28.8975 76.5148 28.9725C76.4888 29.0475 76.474 29.175 76.474 29.355V32.82H76.3441L76.3367 32.8237Z" fill="#231F20"/>
<path fill-rule="evenodd" clip-rule="evenodd" d="M78.2256 32.6813V31.335H78.3777C78.5484 32.2125 78.9603 32.6512 79.6059 32.6512C79.899 32.6512 80.1217 32.565 80.2812 32.4C80.4408 32.2313 80.5224 32.0437 80.5224 31.8337C80.5224 31.6237 80.4519 31.4475 80.3146 31.3087C80.1736 31.17 79.9176 31.0163 79.5428 30.8588C79.2126 30.7125 78.9603 30.5887 78.7933 30.48C78.6226 30.3712 78.489 30.2288 78.3926 30.0563C78.2998 29.8838 78.2516 29.7 78.2516 29.505C78.2516 29.205 78.3555 28.9575 78.5558 28.7625C78.7599 28.56 79.0233 28.4663 79.335 28.4663C79.5131 28.4663 79.6764 28.4925 79.8285 28.5487C79.9881 28.605 80.1439 28.725 80.3072 28.9087C80.3999 28.7962 80.4519 28.6725 80.463 28.5413H80.5966V29.64H80.463C80.3888 29.3213 80.2515 29.07 80.0512 28.8862C79.8582 28.7025 79.6282 28.6125 79.3721 28.6125C79.1235 28.6125 78.9417 28.68 78.8267 28.8187C78.7154 28.9537 78.656 29.1 78.656 29.2612C78.656 29.4525 78.7265 29.6175 78.8712 29.7488C79.0159 29.8875 79.2719 30.0375 79.6467 30.2063C80.0029 30.3675 80.2627 30.495 80.4222 30.5962C80.5855 30.6937 80.7153 30.8287 80.8118 31.0012C80.912 31.1737 80.9602 31.3725 80.9602 31.5975C80.9602 31.9538 80.8415 32.2462 80.6077 32.4712C80.3703 32.6962 80.0549 32.8087 79.6616 32.8087C79.2089 32.8087 78.8267 32.6325 78.5261 32.28C78.4593 32.3775 78.4111 32.5125 78.3777 32.6887H78.2256V32.6813Z" fill="#231F20"/>
<path fill-rule="evenodd" clip-rule="evenodd" d="M85.2418 28.5375H86.6259V28.68C86.4441 28.6912 86.3031 28.7362 86.214 28.8075C86.1249 28.875 86.0693 28.9537 86.047 29.0437C86.0248 29.13 86.0173 29.3062 86.0173 29.5612V30.9525C86.0173 31.3087 86.0025 31.5712 85.9728 31.7437C85.9468 31.9162 85.8689 32.0887 85.7353 32.2537C85.6055 32.4187 85.4199 32.5537 85.1825 32.6512C84.945 32.7487 84.6704 32.7975 84.3587 32.7975C83.9914 32.7975 83.6797 32.7375 83.4237 32.61C83.1677 32.4825 82.9858 32.3212 82.8782 32.1187C82.7706 31.9162 82.7187 31.6462 82.7187 31.3087V30.8775V29.5762C82.7187 29.2425 82.7076 29.0287 82.689 28.9312C82.6704 28.8337 82.6296 28.7662 82.5666 28.7287C82.5072 28.6912 82.3699 28.6762 82.1621 28.6762H82.0693V28.53H83.958V28.6725H83.8764C83.6723 28.6725 83.5387 28.6912 83.4756 28.725C83.4125 28.7587 83.368 28.8187 83.3458 28.9162C83.3235 29.0062 83.3198 29.2275 83.3198 29.5762V30.8925C83.3198 31.35 83.3383 31.6762 83.3792 31.8675C83.4237 32.0587 83.5387 32.2275 83.7317 32.37C83.9246 32.5125 84.1843 32.5837 84.5072 32.5837C84.7558 32.5837 84.9858 32.535 85.1936 32.4412C85.4014 32.3437 85.5572 32.2237 85.6537 32.085C85.7539 31.9425 85.817 31.7925 85.8392 31.6425C85.8615 31.4925 85.8726 31.2525 85.8726 30.9262V29.5012C85.8726 29.265 85.8615 29.0962 85.8318 29.0025C85.8058 28.9087 85.7502 28.8337 85.6611 28.7775C85.5758 28.7212 85.4348 28.6875 85.2456 28.6762V28.53L85.2418 28.5375Z" fill="#231F20"/>
<path fill-rule="evenodd" clip-rule="evenodd" d="M88.8665 30.5662C89.0186 30.5662 89.1781 30.555 89.3414 30.5475C89.5047 30.54 89.6457 30.5175 89.7644 30.48C89.8831 30.4425 89.9796 30.39 90.0538 30.3187C90.128 30.2475 90.1874 30.1537 90.2282 30.0375C90.2728 29.925 90.2913 29.7825 90.2913 29.6137C90.2913 29.3212 90.2171 29.085 90.0724 28.905C89.9277 28.7287 89.6123 28.6387 89.1225 28.6387C89.0483 28.6387 88.9592 28.6425 88.8628 28.65V30.5662H88.8665ZM91.9944 32.7262H90.8813C90.6846 32.5875 90.3804 32.22 89.9759 31.6275C89.846 31.4362 89.7088 31.2562 89.5678 31.0837C89.4268 30.9075 89.3303 30.8025 89.2783 30.765C89.2227 30.7237 89.141 30.7087 89.0297 30.7087H88.8665V31.635C88.8665 31.965 88.8739 32.1787 88.8887 32.2837C88.9036 32.385 88.9444 32.46 89.0112 32.5087C89.0743 32.5575 89.2041 32.5837 89.3934 32.5837H89.59V32.7262H87.6123V32.5837H87.7459C87.924 32.5837 88.0464 32.5612 88.1132 32.5162C88.1837 32.4712 88.2245 32.4 88.2431 32.3062C88.2616 32.2087 88.2691 31.9875 88.2691 31.635V29.5837C88.2691 29.25 88.2616 29.0362 88.2431 28.9387C88.2245 28.8412 88.1837 28.7737 88.1206 28.7362C88.0576 28.6987 87.9203 28.6837 87.7088 28.6837H87.6383V28.5375L88.232 28.5075C88.629 28.4887 88.9407 28.4812 89.1707 28.4812C89.5678 28.4812 89.8906 28.515 90.1355 28.59C90.3841 28.665 90.5844 28.785 90.7366 28.9537C90.8887 29.1225 90.9629 29.325 90.9629 29.5612C90.9629 29.835 90.8627 30.0675 90.6661 30.2587C90.4657 30.4537 90.1726 30.5737 89.7867 30.6187C89.9574 30.7012 90.2394 31.0087 90.6215 31.5337C90.9369 31.9612 91.1818 32.2387 91.3599 32.37C91.538 32.5012 91.7495 32.5725 91.9944 32.58V32.7225V32.7262Z" fill="#231F20"/>
<path fill-rule="evenodd" clip-rule="evenodd" d="M95.3427 31.0425L94.6117 29.2575L93.8807 31.0425H95.3427ZM95.3946 31.1812H93.8214L93.7138 31.4475C93.5542 31.8337 93.4763 32.085 93.4763 32.2012C93.4763 32.325 93.5171 32.4225 93.5987 32.49C93.6878 32.5537 93.7954 32.5837 93.9253 32.5837V32.7262H92.6934V32.5837C92.8789 32.5537 93.0162 32.49 93.1052 32.3887C93.1943 32.2837 93.3019 32.07 93.428 31.74C93.4392 31.71 93.4874 31.59 93.5765 31.3837L94.7787 28.4812H94.8937L96.2777 31.8037L96.467 32.2425C96.5115 32.34 96.5672 32.4187 96.6377 32.4787C96.7119 32.535 96.8195 32.5687 96.9642 32.5837V32.7262H95.3353V32.5837C95.5356 32.5837 95.6692 32.5687 95.7397 32.5425C95.8102 32.5125 95.8436 32.4487 95.8436 32.3625C95.8436 32.3175 95.7991 32.1787 95.7026 31.9575L95.3872 31.185L95.3946 31.1812Z" fill="#231F20"/>
<path fill-rule="evenodd" clip-rule="evenodd" d="M101.471 32.8237L98.5401 28.8975V31.8037C98.5401 32.0437 98.5513 32.205 98.5735 32.28C98.5958 32.355 98.6626 32.4262 98.7776 32.49C98.8889 32.5537 99.0522 32.5837 99.2711 32.5837V32.7262H97.7275V32.5837C97.9242 32.5687 98.0763 32.535 98.1802 32.475C98.2841 32.415 98.3472 32.3512 98.3658 32.2837C98.3843 32.2162 98.3954 32.055 98.3954 31.8037V29.5837C98.3954 29.2612 98.3806 29.0475 98.3509 28.9387C98.3249 28.83 98.2767 28.7587 98.2099 28.7287C98.1468 28.6987 98.0021 28.6837 97.7832 28.6837V28.5375H99.004L101.457 31.815V29.3137C101.457 29.1262 101.434 28.995 101.397 28.9237C101.36 28.8487 101.282 28.7888 101.167 28.7475C101.052 28.7025 100.911 28.6837 100.748 28.6837V28.5375H102.251V28.68C102.076 28.695 101.935 28.7287 101.835 28.7812C101.735 28.8337 101.672 28.8975 101.642 28.9725C101.612 29.0475 101.601 29.175 101.601 29.355V32.82H101.471V32.8237Z" fill="#231F20"/>
<path fill-rule="evenodd" clip-rule="evenodd" d="M106.952 31.155H107.082V32.6212H106.952C106.911 32.4525 106.848 32.3062 106.748 32.1787C106.384 32.595 105.92 32.8013 105.353 32.8013C104.755 32.8013 104.265 32.61 103.883 32.2275C103.508 31.845 103.315 31.3387 103.315 30.7087C103.315 30.2925 103.404 29.9062 103.579 29.5425C103.753 29.175 103.998 28.905 104.314 28.7288C104.625 28.5525 104.97 28.4663 105.345 28.4663C105.657 28.4663 105.935 28.53 106.184 28.6613C106.436 28.7888 106.625 28.9312 106.748 29.0887C106.837 28.9125 106.889 28.7325 106.907 28.5413H107.041L107.078 30.1275H106.948C106.855 29.565 106.666 29.1712 106.384 28.95C106.106 28.7325 105.787 28.6237 105.434 28.62C105 28.62 104.655 28.8 104.399 29.1562C104.143 29.5125 104.017 30.0187 104.017 30.6825C104.017 31.3087 104.158 31.7925 104.436 32.1262C104.718 32.46 105.063 32.625 105.479 32.625C105.701 32.625 105.928 32.5725 106.161 32.4637C106.391 32.355 106.573 32.1712 106.711 31.9125C106.848 31.65 106.929 31.3988 106.955 31.155" fill="#231F20"/>
<path fill-rule="evenodd" clip-rule="evenodd" d="M111.75 31.4212H111.898L111.809 32.7262H108.381V32.5837H108.466C108.674 32.5837 108.804 32.5537 108.867 32.5012C108.926 32.445 108.967 32.3775 108.982 32.2912C108.997 32.2012 109.008 31.9875 109.008 31.635V29.5837C109.008 29.265 108.997 29.055 108.982 28.9537C108.967 28.8525 108.923 28.7812 108.863 28.7437C108.8 28.7025 108.67 28.6837 108.47 28.6837V28.5375H111.431L111.531 29.5837H111.386C111.32 29.2912 111.242 29.085 111.145 28.9613C111.052 28.8375 110.937 28.7625 110.808 28.7287C110.678 28.695 110.47 28.68 110.18 28.68H109.605V30.435H110.047C110.247 30.435 110.388 30.4162 110.466 30.3825C110.548 30.345 110.6 30.2962 110.626 30.225C110.652 30.1537 110.667 30.0113 110.667 29.805H110.808V31.2412H110.667C110.667 31.0087 110.648 30.855 110.607 30.7762C110.57 30.6975 110.511 30.645 110.436 30.6225C110.362 30.5963 110.236 30.585 110.062 30.585H109.605V31.575C109.605 32.0737 109.635 32.3662 109.698 32.4525C109.761 32.5425 109.932 32.5837 110.206 32.5837H110.514C110.733 32.5837 110.915 32.5537 111.052 32.5012C111.193 32.445 111.327 32.3287 111.453 32.1525C111.583 31.9762 111.683 31.7325 111.754 31.4212" fill="#231F20"/>
</g>
<defs>
<clipPath id="clip0_20_162">
<rect width="141" height="33" fill="white"/>
</clipPath>
</defs>
</svg>
