<svg width="121" height="60" viewBox="0 0 121 60" fill="none" xmlns="http://www.w3.org/2000/svg">
<g clip-path="url(#clip0_20_200)">
<path d="M30.0203 3.7468V46.7681H22.4338V44.8021C20.2059 46.5447 17.4465 47.4638 14.6168 47.4064C6.78697 47.3809 0.468151 41.0298 0.49376 33.2234C0.49376 33.0128 0.493778 32.8021 0.512985 32.5915C0.0648365 24.8106 6.01875 18.1404 13.823 17.6936C14.0855 17.6809 14.3479 17.6681 14.6168 17.6681C17.3889 17.617 20.097 18.4915 22.3122 20.1511V3.74042H30.0267L30.0203 3.7468ZM22.5426 32.5915C22.741 28.6851 19.7257 25.3532 15.8076 25.1553C15.6347 25.1489 15.4555 25.1426 15.2762 25.1489C11.3646 25.1426 8.1891 28.2957 8.1827 32.1894C8.1827 32.3234 8.1827 32.4638 8.1955 32.5979C8.02265 36.4723 11.0316 39.7468 14.9177 39.9192C15.0394 39.9192 15.1546 39.9255 15.2762 39.9255C19.1879 40.0277 22.4401 36.9511 22.5426 33.0575C22.5426 32.9043 22.5426 32.7511 22.5426 32.5979M37.7476 18.3064H45.4494V46.7681H37.7476V18.3064ZM79.7265 18.3064V45.9319C79.8354 53.2468 73.9774 59.266 66.6406 59.3809C66.3013 59.3809 65.962 59.3809 65.6227 59.3553C59.6493 59.6362 54.2203 55.9085 52.3573 50.2468L59.438 47.6043C60.1935 50.3362 62.7735 52.1617 65.6035 51.9638C68.8942 52.2064 71.7495 49.7426 71.9928 46.4681C72.012 46.2255 72.012 45.9766 71.9992 45.734V43.4106C69.9249 45.0511 67.3384 45.9128 64.6944 45.8426C57.2293 45.8426 51.1792 39.8106 51.1792 32.3681C51.1792 32.183 51.1793 32.0043 51.1921 31.8255C50.8527 24.3638 56.6467 18.0447 64.131 17.7064C64.291 17.7 64.4575 17.6936 64.6175 17.6936C67.3384 17.6426 69.9889 18.5681 72.0888 20.2979V18.3255H79.7201V18.3L79.7265 18.3064ZM72.2361 31.8511C72.3385 28.1872 69.4383 25.1362 65.7635 25.0404C62.0885 24.9383 59.0283 27.8298 58.9323 31.4936C58.9323 31.6149 58.9323 31.7298 58.9323 31.8511C59.0283 35.5149 62.0885 38.4064 65.7635 38.3043C69.2975 38.2085 72.1464 35.3745 72.2361 31.8511ZM87.4283 18.3128H95.13V46.7745H87.4283V18.3128ZM111.513 18.3128H120.521V25.5957H111.507V36.1404C111.379 37.8638 112.678 39.3702 114.407 39.4979C114.56 39.5106 114.721 39.5106 114.874 39.4979H120.521V46.7809H113.261C108.389 47.0936 104.183 43.417 103.869 38.5596C103.85 38.2277 103.843 37.8957 103.863 37.5638V25.583H99.7844V21.6383L107.249 12.4213H111.513V18.3064V18.3128ZM41.5761 3.81063H79.7201V9.81702H41.5761V3.81063Z" fill="black"/>
<path d="M95.1288 6.79149L89.3093 0.389353H87.4277V13.2447H89.2901L95.1288 6.79787V6.79149Z" fill="#FFBB00"/>
</g>
<defs>
<clipPath id="clip0_20_200">
<rect width="121" height="60" fill="white"/>
</clipPath>
</defs>
</svg>
