<svg width="141" height="44" viewBox="0 0 141 44" fill="none" xmlns="http://www.w3.org/2000/svg">
<g clip-path="url(#clip0_20_472)">
<path d="M4.36845 43.6457H3.31672V36.12H1.17285V35.2H6.52386V36.12H4.36845V43.6457Z" fill="#C5221A"/>
<path d="M8.4133 39.4229C8.4133 41.3772 8.604 42.9601 10.066 42.9601C11.528 42.9601 11.7187 41.3772 11.7187 39.4229C11.7187 37.4686 11.5222 35.8858 10.066 35.8858C8.60978 35.8858 8.4133 37.4743 8.4133 39.4229ZM12.8167 39.4229C12.8167 41.5543 12.4179 43.8172 10.0602 43.8172C7.70252 43.8172 7.30957 41.5543 7.30957 39.4229C7.30957 37.2915 7.70252 35.0343 10.0602 35.0343C12.4179 35.0343 12.8167 37.2915 12.8167 39.4229Z" fill="#C5221A"/>
<path d="M16.7982 43.6457H15.7464V36.12H13.6025V35.2H18.9536V36.12H16.7982V43.6457Z" fill="#C5221A"/>
<path d="M20.3634 40.4743H22.6575L21.571 36.3886H21.548L20.3634 40.4743ZM20.8777 35.1943H22.2876L24.5818 43.64H23.4781L22.8712 41.32H20.1438L19.5081 43.64H18.4102L20.8777 35.1943Z" fill="#C5221A"/>
<path d="M25.3047 35.2H26.3564V42.7257H29.8293V43.6457H25.3047V35.2Z" fill="#C5221A"/>
<path d="M34.7754 35.2H33.7236V43.6457H34.7754V35.2Z" fill="#C5221A"/>
<path d="M36.2842 35.2H37.6479L40.4737 42.2514H40.4968V35.2H41.5543V43.6457H40.0981L37.3648 36.8057H37.3358V43.6457H36.2842V35.2Z" fill="#C5221A"/>
<path d="M46.6802 37.3886C46.6802 36.5029 46.3566 35.8858 45.3511 35.8858C44.4669 35.8858 43.9411 36.3601 43.9411 37.2572C43.9411 39.6343 47.9688 38.2172 47.9688 41.3029C47.9688 43.2572 46.5242 43.8115 45.3165 43.8115C43.317 43.8115 42.7275 42.7943 42.7275 40.9943H43.7793C43.7793 41.9429 43.8429 42.9601 45.3858 42.9601C46.2237 42.9601 46.8709 42.3658 46.8709 41.4686C46.8709 39.0801 42.8373 40.4629 42.8373 37.3658C42.8373 36.5829 43.1725 35.0343 45.3395 35.0343C46.9633 35.0343 47.7088 35.8401 47.7319 37.3886H46.6802Z" fill="#C5221A"/>
<path d="M49.0605 35.2H50.118V41.1371C50.118 42.3829 50.5226 42.96 51.5685 42.96C52.6896 42.96 53.0247 42.32 53.0247 41.1371V35.2H54.0764V41.1371C54.0764 42.76 53.2385 43.8114 51.5685 43.8114C49.8985 43.8114 49.0605 42.8743 49.0605 41.1371V35.2Z" fill="#C5221A"/>
<path d="M56.5389 39.0343H57.5791C58.2033 39.0343 59.3359 39.0343 59.3359 37.4C59.3359 36.5714 58.7754 36.0514 57.793 36.0514H56.5331V39.0343M55.4814 35.2H58.2496C59.5902 35.2 60.4397 35.9829 60.4397 37.32C60.4397 38.24 60.1161 39.2171 59.1221 39.4514V39.4743C59.8618 39.5543 60.2836 40.16 60.3299 40.88L60.3992 42.3257C60.4455 43.2629 60.6073 43.4971 60.8557 43.6514H59.5902C59.4111 43.4743 59.3244 42.8457 59.3013 42.4343L59.2319 41.12C59.1452 39.96 58.498 39.8914 57.9606 39.8914H56.5331V43.6514H55.4814V35.2057V35.2Z" fill="#C5221A"/>
<path d="M62.9757 40.4743H65.2757L64.1893 36.3886H64.1661L62.9815 40.4743H62.9757ZM63.49 35.1943H64.9L67.2 43.64H66.102L65.4895 41.32H62.7619L62.1263 43.64H61.0283L63.4958 35.1943H63.49Z" fill="#C5221A"/>
<path d="M67.916 35.2H69.2798L72.0998 42.2514H72.1229V35.2H73.1804V43.6457H71.7299L68.9909 36.8057H68.9677V43.6457H67.916V35.2Z" fill="#C5221A"/>
<path d="M79.9127 40.7486C79.8144 42.3429 79.1846 43.8115 77.318 43.8115C74.891 43.8115 74.5674 41.5486 74.5674 39.4229C74.5674 37.2972 74.9603 35.0343 77.318 35.0343C79.0632 35.0343 79.7913 36.0058 79.8433 37.6629H78.7454C78.7223 36.7029 78.4102 35.8858 77.3238 35.8858C75.8618 35.8858 75.6711 37.4743 75.6711 39.4229C75.6711 41.3715 75.8618 42.9601 77.3238 42.9601C78.6067 42.9601 78.78 41.7772 78.8205 40.7486H79.9184" fill="#C5221A"/>
<path d="M81.0107 35.2H85.4257V36.12H82.0688V38.7714H85.2355V39.6914H82.0688V42.7257H85.5701V43.6457H81.0107V35.2Z" fill="#C5221A"/>
<path d="M93.2857 37.3886C93.2857 36.5029 92.9621 35.8858 91.9566 35.8858C91.0667 35.8858 90.5466 36.3601 90.5466 37.2572C90.5466 39.6343 94.5801 38.2172 94.5801 41.3029C94.5801 43.2572 93.1297 43.8115 91.9219 43.8115C89.9225 43.8115 89.3389 42.7943 89.3389 40.9943H90.3906C90.3906 41.9429 90.4541 42.9601 91.9971 42.9601C92.835 42.9601 93.4822 42.3658 93.4822 41.4686C93.4822 39.0801 89.4487 40.4629 89.4487 37.3658C89.4487 36.5829 89.7838 35.0343 91.9508 35.0343C93.5746 35.0343 94.3201 35.8401 94.3432 37.3886H93.2915" fill="#C5221A"/>
<path d="M96.7414 39.4229C96.7414 41.3772 96.9321 42.9601 98.3941 42.9601C99.8561 42.9601 100.041 41.3772 100.041 39.4229C100.041 37.4686 99.8504 35.8858 98.3941 35.8858C96.9379 35.8858 96.7414 37.4743 96.7414 39.4229ZM101.145 39.4229C101.145 41.5543 100.752 43.8172 98.3941 43.8172C96.0364 43.8172 95.6377 41.5543 95.6377 39.4229C95.6377 37.2915 96.0306 35.0343 98.3941 35.0343C100.758 35.0343 101.145 37.2915 101.145 39.4229Z" fill="#C5221A"/>
<path d="M102.531 35.2H103.589V42.7257H107.056V43.6457H102.531V35.2Z" fill="#C5221A"/>
<path d="M107.871 35.2H108.923V41.1371C108.923 42.3829 109.333 42.96 110.373 42.96C111.5 42.96 111.835 42.32 111.835 41.1371V35.2H112.887V41.1371C112.887 42.76 112.049 43.8114 110.373 43.8114C108.697 43.8114 107.871 42.8743 107.871 41.1371V35.2Z" fill="#C5221A"/>
<path d="M116.891 43.6457H115.833V36.12H113.695V35.2H119.041V36.12H116.891V43.6457Z" fill="#C5221A"/>
<path d="M121.005 35.2H119.953V43.6457H121.005V35.2Z" fill="#C5221A"/>
<path d="M123.253 39.4229C123.253 41.3772 123.444 42.9601 124.906 42.9601C126.368 42.9601 126.559 41.3772 126.559 39.4229C126.559 37.4686 126.362 35.8858 124.906 35.8858C123.45 35.8858 123.253 37.4743 123.253 39.4229ZM127.657 39.4229C127.657 41.5543 127.264 43.8172 124.906 43.8172C122.548 43.8172 122.155 41.5543 122.155 39.4229C122.155 37.2915 122.548 35.0343 124.906 35.0343C127.264 35.0343 127.657 37.2915 127.657 39.4229Z" fill="#C5221A"/>
<path d="M128.801 35.2H130.165L132.99 42.2514H133.013V35.2H134.071V43.6457H132.62L129.881 36.8057H129.858V43.6457H128.801V35.2Z" fill="#C5221A"/>
<path d="M139.197 37.3886C139.197 36.5029 138.873 35.8858 137.874 35.8858C136.984 35.8858 136.464 36.3601 136.464 37.2572C136.464 39.6343 140.491 38.2172 140.491 41.3029C140.491 43.2572 139.047 43.8115 137.839 43.8115C135.839 43.8115 135.25 42.7943 135.25 40.9943H136.302C136.302 41.9429 136.365 42.9601 137.908 42.9601C138.746 42.9601 139.388 42.3658 139.388 41.4686C139.388 39.0801 135.354 40.4629 135.354 37.3658C135.354 36.5829 135.689 35.0343 137.856 35.0343C139.48 35.0343 140.225 35.8401 140.249 37.3886H139.197Z" fill="#C5221A"/>
<path d="M74.3021 23.7371L74.3136 18.1657C77.8444 18.1657 79.1388 17.9943 79.7514 22.2743H80.1212V17.5086H70.5055V18.1657H72.1697V30.4229H70.3379V31.0686H80.2426V26.0571H79.7456C79.2486 29.8457 78.2778 30.4229 75.556 30.4229H74.2905V24.4686H75.0244C76.2495 24.4971 76.9429 25.2 77.1914 27.28H77.6421V21.12H77.1972C77.1972 21.1543 77.1105 23.7657 74.9724 23.7314H74.2905" fill="#C5221A"/>
<path d="M70.3719 23.9771H64.9457V24.5886H66.8007V28.9943C66.4886 30.1143 64.8244 30.5829 64.3216 30.5829C60.8544 30.5829 61.1029 25.5714 61.1029 24.2286C61.1029 23 60.9815 17.8743 64.3216 17.8743C66.6735 17.8743 67.916 20.1886 68.4129 22.2743H68.7885C68.7885 21.4171 68.8001 17.3314 68.7885 17.3429C68.7885 17.3086 67.1705 18.4971 67.1647 18.4743C67.1994 18.4686 66.4193 17.3771 64.3158 17.3771C60.2245 17.3771 58.7221 21.4171 58.7394 24.2286C58.7567 26.8057 59.9587 31.1943 64.3158 31.1943C65.6854 31.1943 66.6504 30.5086 67.1647 29.7257C67.1705 29.7086 68.8868 31.0686 68.8983 31.0743V24.5943H70.3603V23.9829" fill="#C5221A"/>
<path d="M117.769 26.1771L119.752 20.3143L121.855 26.1771H117.769ZM110.09 23.84H107.865V18.16H110.714C112.384 18.4114 112.453 20.32 112.453 20.9257C112.453 22.3943 111.829 23.84 110.09 23.84ZM133.765 26.0629C133.268 29.8514 132.297 30.4171 129.575 30.4171H129.408V18.16H131.141V17.4971H125.444V18.16H127.177V30.4171H125.802L120.74 17.1314H119.994C119.994 17.1314 115.787 29.1829 115.782 29.2171C115.787 29.1829 115.464 30.2514 114.77 30.3829C114.129 30.4114 114.175 30.08 114.175 29.9657V27.6457C114.175 27.0343 114.129 25.6514 113.487 25.0171C112.765 24.3029 111.546 24.2514 111.569 24.2229C111.569 24.2229 114.684 23.5886 114.684 20.6629C114.684 18.6114 113.245 17.5886 110.829 17.5029H103.987V18.1657H105.738V30.4171H103.987V31.0686H109.598V30.4171H107.847V24.5257H110.182C114.233 24.8571 109.489 31.08 114.793 31.0686H118.139V30.4171C117.954 30.4171 116.724 30.4514 116.648 29.6057C116.596 29 117.457 26.8057 117.457 26.8057H122.011C122.011 26.8057 123.427 30.4171 123.438 30.4171H121.849V31.0686H134.256V26.0571H133.759L133.765 26.0629Z" fill="#C5221A"/>
<path d="M97.2432 18.1543C100.774 18.1543 102.08 17.9886 102.693 22.2686H103.068V17.5029H89.0491V18.1543H89.4131C89.9101 18.1543 91.0832 18.1886 91.1525 19.2114V27.0286L84.5937 17.5029H81.0225V18.1543H81.6119C82.3169 18.1543 83.2993 18.1829 83.3455 19.2114V29.2286C83.3455 30.2057 81.8661 30.5771 81.2478 30.5771H81.2421V31.0629H86.073V30.5771C85.4547 30.5771 83.9638 30.2057 83.9638 29.2286L83.9811 20.4114C86.5816 24.08 91.4761 31.0743 91.5223 31.0629H91.765V19.2114C91.8402 18.1886 93.0075 18.1543 93.5044 18.1543H95.1167V30.4229H93.2848V31.0686H103.195V26.0571H102.698C102.207 29.8457 101.231 30.4229 98.5088 30.4229H97.249V24.4686H97.9771C99.2022 24.4971 99.8957 25.2 100.144 27.28H100.595V21.12H100.15C100.15 21.1543 100.063 23.7657 97.9251 23.7314H97.249V18.1543" fill="#C5221A"/>
<path d="M140.492 18.16V17.4971H134.897V18.16H136.654L136.661 30.4114H134.897V31.0686H140.492V30.4114H138.735V18.16H140.492Z" fill="#C5221A"/>
<path d="M58.8037 15.1943V14.5371H60.6587V2.26857H58.9655V1.70857H68.5466V6.39429H68.1825C68.0207 5.33714 67.8185 4.52 67.5584 3.94286C67.3157 3.40572 66.9921 3.00572 66.5645 2.76572C66.1426 2.50286 65.6226 2.36572 65.0158 2.34286C64.7095 2.32 64.3686 2.32 63.9872 2.30286C63.6 2.30286 63.2013 2.28572 62.7794 2.28572V7.89143C62.7794 7.89143 62.8372 7.87429 62.9817 7.87429C63.0626 7.89143 63.1435 7.89143 63.2013 7.89143H63.4267C63.8081 7.89143 64.1143 7.83429 64.3339 7.69143C64.5766 7.59429 64.7789 7.43429 64.958 7.23429C65.0216 7.13715 65.0967 7.03429 65.1603 6.93715C65.2181 6.83429 65.2816 6.71429 65.3394 6.60001C65.3799 6.50286 65.4376 6.40001 65.4608 6.28001C65.4781 6.18286 65.5012 6.08001 65.5417 5.98286C65.5648 5.88001 65.5821 5.80001 65.5821 5.72572C65.6052 5.64572 65.6052 5.56571 65.6283 5.50857C65.6283 5.42857 65.6457 5.38857 65.6457 5.36571V5.28572H66.0906V11.4343H65.6052C65.5648 11.1714 65.5417 10.9371 65.4839 10.7143C65.4434 10.5143 65.3856 10.3143 65.3452 10.12C65.2007 9.73715 65.062 9.46286 64.9002 9.26286C64.7153 9.02286 64.4957 8.86286 64.2761 8.78286C64.0565 8.68001 63.7965 8.64001 63.4671 8.64001H62.7852V14.5429H64.6171V15.2H58.8095" fill="#C5221A"/>
<path d="M92.2906 6.69143C92.2675 6.53143 92.2675 6.33143 92.2328 6.09715C92.2097 5.95429 92.2097 5.83429 92.1924 5.69714C92.175 5.56 92.175 5.41714 92.1519 5.27429C92.1114 4.99429 92.0537 4.69714 91.967 4.37714C91.8861 4.07429 91.7878 3.8 91.626 3.52C91.5047 3.30286 91.3429 3.09714 91.1406 2.92C91.0424 2.84 90.9788 2.78286 90.8979 2.70286C90.817 2.64 90.7188 2.56572 90.6552 2.52572C90.5743 2.46286 90.4761 2.42286 90.3721 2.36572C90.2738 2.32572 90.1062 2.26857 90.008 2.26857H88.7194C88.7367 3.42857 88.7367 4.50286 88.7367 5.52V14.5543H90.4703V15.1943H84.761V14.5543H86.4946V2.26857C86.4946 2.26857 85.1423 2.24572 84.7783 2.32572C84.6801 2.36572 84.5934 2.40572 84.4142 2.50857C84.3333 2.54857 84.2524 2.60572 84.1484 2.66857C84.0675 2.72572 83.9693 2.78857 83.8653 2.86286C83.6861 3.02286 83.5243 3.24572 83.3799 3.48C83.3047 3.61714 83.2412 3.76 83.1834 3.90286C83.1256 4.04 83.0794 4.2 83.0389 4.33714C82.958 4.65714 82.9002 4.95429 82.8598 5.23429C82.8424 5.37143 82.8135 5.51429 82.8135 5.65143C82.7962 5.77143 82.7789 6.05143 82.7789 6.05143L82.7558 6.37143V6.61143H82.3281V1.70857H92.6546L92.6778 6.69143H92.2733" fill="#C5221A"/>
<path d="M114.122 6.99428C114.221 6.85714 114.325 6.69714 114.382 6.55428C114.423 6.39428 114.481 6.23428 114.521 6.05714C114.602 5.71428 114.642 5.33714 114.642 4.97714C114.642 4.89714 114.642 4.8 114.625 4.68C114.625 4.58286 114.602 4.44 114.602 4.30286C114.561 3.98286 114.504 3.70286 114.4 3.42857C114.301 3.12572 114.157 2.90857 113.914 2.65143C113.833 2.55429 113.654 2.43429 113.533 2.39429C113.435 2.33143 113.273 2.27429 112.909 2.27429H110.043V7.92H112.279C112.741 7.92 113.105 7.84 113.388 7.68C113.695 7.53714 113.932 7.32 114.116 7M117.595 15.04C117.451 15.0971 117.295 15.1371 117.133 15.16C116.931 15.2057 116.728 15.24 116.526 15.24C115.983 15.24 115.555 15.1429 115.295 14.9829C115.012 14.7829 114.793 14.5657 114.671 14.2629C114.55 13.9429 114.475 13.6057 114.452 13.2457C114.452 13.0629 114.434 12.8629 114.434 12.6686V12.0914C114.452 11.6743 114.452 11.2743 114.434 10.8971C114.434 10.52 114.371 10.16 114.255 9.84C114.157 9.54285 113.955 9.28 113.689 9.04C113.429 8.84 113.047 8.72 112.539 8.66285H110.158V14.5657H111.973L111.99 15.2057H106.304V14.5657H108.141V2.4H106.304V1.72H113.18C113.504 1.72 113.787 1.72 114.047 1.74286C114.313 1.78286 114.579 1.82286 114.816 1.90286C115.278 2.02286 115.683 2.2 116 2.46286C116.324 2.68 116.567 3 116.746 3.4C116.925 3.82286 117.006 4.29714 117.006 4.85714C117.006 5.59429 116.844 6.19428 116.503 6.63428C116.179 7.09142 115.815 7.47428 115.434 7.73142C114.972 8.05142 114.469 8.26857 113.926 8.41142H113.943C113.984 8.43428 114.024 8.43428 114.088 8.45142C114.169 8.45142 114.226 8.47428 114.307 8.49714C114.388 8.49714 114.492 8.51428 114.573 8.55428C114.775 8.59428 114.978 8.67428 115.197 8.79428C115.417 8.87428 115.642 9.01142 115.821 9.19428C115.96 9.35428 116.104 9.55428 116.203 9.78857C116.284 10.0057 116.364 10.2457 116.405 10.5086C116.428 10.6514 116.445 10.7714 116.445 10.8857C116.463 11.0057 116.463 11.1257 116.486 11.24C116.486 11.3429 116.503 11.44 116.503 11.56V14.2514C116.503 14.2914 116.526 14.3314 116.544 14.3943C116.584 14.4343 116.642 14.4743 116.723 14.5143C116.763 14.5371 116.884 14.5543 117.087 14.5543L117.549 14.3943L117.971 14.8114C117.89 14.9143 117.751 14.9943 117.589 15.0514" fill="#C5221A"/>
<path d="M128.379 15.1943H118.475V14.5543H120.312V2.26857H118.636V1.70857H128.235V6.39429H127.848C127.767 5.85715 127.686 5.37714 127.588 4.97714C127.466 4.57714 127.367 4.21714 127.246 3.94286C127.003 3.40572 126.657 3.00572 126.235 2.74857C125.813 2.49143 125.287 2.36572 124.663 2.34857C124.357 2.32572 124.016 2.32572 123.658 2.30857C123.271 2.30857 122.866 2.29143 122.427 2.29143V7.87429H123.115C123.456 7.87429 123.739 7.81143 124.022 7.69143C124.282 7.55429 124.49 7.39429 124.629 7.23429C124.71 7.11429 124.768 7.01144 124.849 6.91429C124.912 6.81715 124.969 6.71429 125.01 6.59429C125.05 6.47429 125.091 6.37715 125.132 6.27429C125.172 6.17715 125.189 6.05715 125.213 5.96001C125.253 5.85715 125.276 5.73715 125.276 5.64C125.293 5.53714 125.31 5.4 125.31 5.26286H125.756V11.4286H125.276C125.253 11.1657 125.212 10.9314 125.172 10.7086C125.131 10.5086 125.073 10.2914 125.01 10.1143C124.888 9.73144 124.732 9.43429 124.588 9.23429C124.403 9.01715 124.207 8.85715 123.982 8.75429C123.716 8.65143 123.456 8.61143 123.178 8.61143H122.433V14.5543H123.681C124.386 14.5543 124.97 14.5143 125.415 14.4171C125.9 14.32 126.304 14.12 126.605 13.8171C126.928 13.4971 127.188 13.04 127.391 12.4857C127.495 12.1829 127.593 11.8686 127.657 11.4857C127.738 11.1086 127.796 10.6686 127.859 10.2057H128.385V15.1943" fill="#C5221A"/>
<path d="M77.6249 2.38857V1.70857H81.6238V2.38857H79.9422V9.77144C79.9422 11.2743 79.8613 12.2514 79.7168 12.7314C79.2314 14.4343 77.937 15.2686 75.8567 15.2686C74.8049 15.2686 73.8515 15.0686 73.0424 14.6686C72.0947 14.2057 71.4822 13.4914 71.2453 12.5486C71.1008 12.0686 71.0603 11.1486 71.0603 9.77144V2.36572H69.3672V1.70857H74.9089V2.36572H73.21V9.77144C73.21 11.1714 73.2331 12.0914 73.2909 12.4914C73.3545 12.9143 73.5105 13.2914 73.7763 13.6743C74.3022 14.4286 75.1574 14.6171 76.3247 14.6171C77.6596 14.6171 78.4051 14.12 78.8558 13.1943C79.0349 12.8114 79.1332 12.4114 79.1967 12.0114C79.2372 11.6114 79.2603 10.8743 79.2603 9.77144V2.38857H77.6365" fill="#C5221A"/>
<path d="M101.653 2.38857V1.70857H105.646V2.38857H103.965V9.77144C103.965 11.2743 103.884 12.2514 103.745 12.7314C103.26 14.4343 101.965 15.2686 99.8848 15.2686C98.8331 15.2686 97.8796 15.0686 97.0706 14.6686C96.1171 14.2057 95.5103 13.4914 95.2676 12.5486C95.1289 12.0686 95.0827 11.1486 95.0827 9.77144V2.36572H93.3838V1.70857H98.9255V2.36572H97.2266V9.77144C97.2266 11.1714 97.2497 12.0914 97.3075 12.4914C97.3711 12.9143 97.5329 13.2914 97.7987 13.6743C98.3246 14.4286 99.174 14.6171 100.347 14.6171C101.682 14.6171 102.427 14.12 102.872 13.1943C103.057 12.8114 103.156 12.4114 103.219 12.0114C103.26 11.6114 103.277 10.8743 103.277 9.77144V2.38857H101.653Z" fill="#C5221A"/>
<path d="M41.1723 27.32C41.2821 27.04 41.4959 26.8686 41.7907 26.8114L44.7667 26.1543L44.4951 23.5257V23.4686C44.4142 23.1257 44.1946 22.08 42.8077 21.9657C37.4855 21.5429 36.2489 20.76 34.9545 19.9314C34.9545 19.9314 34.9545 19.9257 34.9545 19.92H34.9429L34.8562 19.8686C33.4751 18.9829 32.1056 18.9771 31.9669 18.9829C30.4586 18.9829 28.5517 19.5714 28.3957 19.6229C27.9334 19.7543 27.5058 19.8914 27.0897 20.0229C25.4197 20.5543 23.9807 21.0114 21.5652 20.9429L21.1203 20.9314L21.0047 21.3543C20.918 21.68 20.242 24.3257 20.895 26.0229C20.3113 26.48 20.3113 27.0057 20.3171 27.08C20.3402 27.6571 20.2015 27.8 20.1553 27.8457C19.8779 28.1371 18.9475 28.1714 18.1674 28.1714H17.8727L17.7051 28.3943C17.2255 29.0514 16.1853 29.2057 15.515 29.0343C15.226 28.1543 15.2145 27.48 15.5035 27.08C15.8386 26.6057 16.5436 26.5543 16.8326 26.5543H17.0001C17.7109 26.5543 18.283 25.9829 18.283 25.28V20.5486C18.4968 20.2171 18.6701 19.84 18.8204 19.4114C19.9877 19.2286 20.8834 18.2457 20.8834 17.0686C20.8834 16.6171 20.7505 16.1771 20.5077 15.8057C21.5884 15.2914 22.513 14.24 22.513 12.8629C22.513 11.4857 21.808 10.8571 21.1434 10.44C21.3341 9.90857 21.6461 8.98285 21.8542 8.04571L22.7903 4.73714C23.2064 3.44 24.2986 2.6 25.5757 2.6H42.0391C41.3399 3.56571 40.3518 4.02857 38.9764 4.02857H29.014L28.494 5.13143H37.422C36.7228 6.23428 35.6941 6.75428 34.2379 6.75428H27.7658L27.2458 7.85714H33.0187C32.3194 8.92 31.3023 9.41714 29.875 9.41714H26.3442L25.8241 10.52H29.5225C29.5572 10.5657 29.6497 10.7257 29.6497 11.1771C29.6497 11.8857 29.0429 12.4629 28.309 12.4629C28.0547 12.4629 27.841 12.4057 27.4538 12.2514C27.292 12.1829 27.1302 12.1143 26.9684 12.0457L26.1074 12.8057C26.2692 12.8743 26.431 12.9429 26.587 13.0114C27.3324 13.3314 27.7427 13.4971 28.309 13.4971C28.9909 13.4971 29.6034 13.2171 30.0426 12.7714C30.6725 12.8114 31.6953 12.8971 32.6892 12.9771C33.8739 13.0743 34.9892 13.16 35.5671 13.1943C35.856 13.2114 36.1275 13.2229 36.3818 13.2343C36.8788 13.2571 37.3237 13.28 37.7745 13.3143C40.0224 16.92 41.1724 17.4 45.5237 17.9143C45.8358 18.4686 46.119 19.0514 46.3905 19.6457V26.7143C46.4137 27.04 46.4136 27.1486 46.3674 27.2057C46.2171 27.4 45.5469 27.68 45.3157 27.7714L41.6462 29.1371C41.1608 28.4857 40.9817 27.8057 41.1782 27.3143M40.3865 29.2229H33.1342L36.2431 25.9771C36.873 25.3371 37.0752 24.5657 36.8094 23.8057C36.6592 23.3714 36.2489 22.5314 35.8213 21.6743C37.0579 22.24 38.9302 22.7486 42.7326 23.0571C43.1833 23.0914 43.3105 23.2457 43.4029 23.6571L43.5706 25.28L41.5826 25.72C40.9181 25.8457 40.3922 26.2857 40.1495 26.9086C39.8721 27.6 39.9704 28.4171 40.3981 29.2171M27.3151 29.2171C27.1128 28.44 27.1937 27.8114 27.5577 27.4057C27.8987 27.0171 28.4303 26.8971 28.8002 26.9543L30.921 27.3429L30.973 27.3543H31.2677L32.7643 25.7543L32.7817 25.7429C33.0359 25.4514 33.8161 24.5543 33.0187 23.4171L31.0135 20.1543C31.3428 20.1086 31.678 20.08 31.99 20.08H32.0016C32.0016 20.08 33.0128 20.0629 34.0934 20.6857C34.2437 20.9943 34.4402 21.4 34.6655 21.8514C35.0874 22.6971 35.6075 23.7429 35.7578 24.1657C35.804 24.2971 35.9484 24.7029 35.4457 25.2171L31.6086 29.2229H27.3209L27.3151 29.2171ZM26.7141 26.6857C26.3096 27.1429 25.9167 27.9429 26.1709 29.2171H19.3405C20.0801 29.1486 20.6118 28.9771 20.9759 28.6C21.4266 28.1371 21.467 27.5086 21.4497 27.0629C21.467 27.0229 21.5421 26.8743 21.8715 26.7257L22.4609 26.4571L22.1085 25.92C21.5249 25.0343 21.7791 23.0971 22.0044 22.0457H22.0507C24.3737 22.0457 25.8646 21.5714 27.448 21.0686C27.8582 20.9371 28.2859 20.8 28.7308 20.6743H28.7482C28.7482 20.6743 29.2163 20.5257 29.8462 20.3771L32.0709 24.0057L32.0883 24.04C32.3079 24.3486 32.3368 24.56 31.9323 25.0229L30.8169 26.2114L28.9851 25.8743H28.9678C28.1415 25.7486 27.2573 26.0686 26.7025 26.6914M14.5904 26.4514C14.1165 27.1257 14.0587 28.0571 14.4112 29.2229H13.2555V20.3143C13.6658 20.2514 14.1166 20.1371 14.5269 19.9486C14.5037 20.3371 14.4517 20.64 14.3766 21.0514C14.3592 21.1486 14.3419 21.2457 14.3188 21.3543L14.209 21.9943H14.8677C15.8501 21.9943 16.5898 21.84 17.1561 21.5543V25.2743C17.1561 25.3657 17.081 25.4457 16.9886 25.4457H16.8209C15.8443 25.4457 15.0238 25.8057 14.5788 26.4457M12.1344 28.2571L6.87588 26.9029L1.61723 28.2571V18.9543L6.87588 17.6057L12.1344 18.9543V28.2571ZM2.29333 29.2229L6.87588 28.04L11.4584 29.2229H2.29333ZM4.1252 15.5314C4.34479 15.2 4.84752 14.9143 5.4774 15.0229L5.95123 15.1029L6.10148 14.6514C6.14193 14.5314 6.19394 14.44 6.26906 14.3714C6.39619 14.2457 6.60422 14.1886 6.85271 14.1943C7.52304 14.2171 8.36095 14.68 9.04861 15.4C9.29709 15.6629 9.51668 15.9714 9.71316 16.28C9.75361 16.3486 9.79412 16.4171 9.83457 16.4743C9.88658 16.56 9.93281 16.6286 9.94436 16.6514C9.96748 16.6914 10.3084 17.1943 10.2852 17.2286C10.5164 16.9086 10.7475 16.5886 10.9787 16.2686C10.9845 16.2629 10.9787 16.2286 10.9556 16.1886C10.9036 16.0743 10.7823 15.8857 10.7072 15.7771C10.6898 15.7486 10.6724 15.72 10.6551 15.6914H10.6493C10.6493 15.6914 10.6146 15.6286 10.5742 15.5657C10.4991 15.4457 10.3893 15.2743 10.3373 15.1829L11.7878 12.88C12.1518 12.9543 12.4581 12.9714 12.6083 12.9714H12.643C14.6944 12.9714 16.8152 11.8 16.8152 9.84V9.78857C16.7921 9.25714 16.6938 8.74857 16.6071 8.33714C16.5551 8.06285 16.5031 7.81143 16.5031 7.68571C16.5031 7.47428 16.8094 7.23428 17.2428 7.23428H17.9073L17.6068 5.53143C18.5372 4.85143 19.1151 3.74285 19.0862 2.69143C20.0917 3.45714 20.8025 4.77714 20.9296 6.18285C20.97 6.58857 20.8834 7.16571 20.7505 7.76571L20.6812 8.01714H20.6927C20.4558 9 20.1032 10.0057 19.9183 10.4857L19.745 10.9314L20.1669 11.1657C20.9123 11.5829 21.3688 11.8914 21.3688 12.8629C21.3688 13.9829 20.3518 14.84 19.3694 15.0171L18.0287 15.2686L19.1672 16.0171C19.5312 16.2571 19.7508 16.6514 19.7508 17.0686C19.7508 17.7714 19.1498 18.3429 18.4043 18.3429H17.9709L17.8496 18.7314C17.4335 20.0743 16.9827 20.7314 15.5207 20.8743C15.5843 20.4629 15.6305 20.0743 15.6305 19.5143C15.6305 19.3829 15.6248 19.0171 15.6133 18.8971L15.5439 17.6457L14.6539 18.5429C14.3534 18.8457 13.8161 19.0857 13.2267 19.2V18.1086L6.85271 16.4743L4.58171 17.0571C4.07896 16.56 3.97493 15.7314 4.10206 15.5371M10.9845 11.4914C11.0019 11.4171 11.0597 11.3543 11.1348 11.3543L12.094 11.3886C13.2613 11.3429 14.4575 10.8743 14.5904 9.66285C14.5904 8.84571 14.0067 8.05143 13.1804 8.05143C12.7354 8.05143 12.2384 8.35428 11.6837 8.72C11.3196 8.96 11.0308 9.14857 10.8112 9.14857C10.6667 9.14857 10.5511 9.05143 10.5511 8.97143C10.5511 8.96 10.5511 8.94285 10.5569 8.93143L11.1694 8.11428L10.6377 7.76571C10.5222 7.69143 10.3489 7.55428 10.3315 7.45143C10.3199 7.40571 10.3951 7.31428 10.4182 7.29143C10.6378 7.03428 10.8863 6.72571 11.1406 6.34857C11.3024 6.13143 11.389 6.01143 11.649 6.01143C11.9091 6.01143 12.1171 6.21714 12.1171 6.46857C12.1171 6.63428 12.302 6.76571 12.5332 6.76571C12.7643 6.76571 12.8684 6.60571 13.0128 6.46857C13.0128 6.46857 13.5618 5.97143 13.2728 5.73714C12.9434 5.46857 11.6201 6.01714 11.99 4.81143L12.0824 4.64C12.2211 4.45714 12.8568 3.98857 14.1628 3.98857C14.4113 3.98857 14.6771 4.00571 14.9429 4.04L15.1394 4.06285L17.919 2.37143C17.9421 2.42857 17.9478 2.46857 17.9478 2.46857V2.48571C18.0981 3.32 17.5664 4.30857 16.7169 4.78857L16.3818 4.98285L16.6014 6.22285C15.8848 6.44 15.3937 7.00571 15.3937 7.68571C15.3937 7.92 15.4456 8.19428 15.515 8.54857C15.5901 8.93714 15.6825 9.38285 15.6999 9.82857C15.6999 11.12 13.9027 11.9714 12.3829 11.92H12.3425C12.2789 11.92 11.3081 11.84 11.0712 11.6571C11.0249 11.6229 10.9903 11.5486 10.9961 11.4914M13.296 2.88571C13.4751 2.66285 13.7583 2.42285 14.0992 2.19428C14.3708 2.02285 14.7117 1.86285 15.0584 1.77143C15.5959 1.61714 16.2084 1.60571 16.8556 1.72571L14.8851 2.92571C14.6367 2.90285 14.394 2.89143 14.1628 2.89143C13.8276 2.89143 13.5213 2.91428 13.2382 2.96C13.2613 2.93714 13.2787 2.90857 13.296 2.88571ZM43.3162 2.60571H50.7419C50.0485 3.57714 49.0545 4.03428 47.685 4.03428H42.201C42.6344 3.65714 43.01 3.18285 43.3162 2.60571ZM42.9407 6.76H37.4624C37.9478 6.33714 38.3524 5.79428 38.6702 5.13714H46.1247C45.4255 6.24 44.4027 6.76 42.9407 6.76ZM38.5778 9.42285H33.0996C33.5676 9.01714 33.9606 8.49143 34.2726 7.86285H41.7271C41.0279 8.92571 40.0109 9.42285 38.5778 9.42285ZM39.8375 13.56C41.5768 13.84 42.9985 14.6171 44.0675 15.8571C44.2929 16.12 44.5125 16.4057 44.7321 16.7086C41.8138 16.3257 40.791 15.9086 39.1614 13.4514C39.3752 13.48 39.6063 13.5143 39.8375 13.5543M51.4989 25.4457C51.6086 25.6114 51.7011 25.7771 51.7878 25.9314C51.8976 26.12 52.0016 26.3086 52.1287 26.5029C51.285 26.4514 50.6436 25.9886 50.0484 25.1086C50.5974 24.92 51.2561 25.0514 51.4989 25.4457ZM44.5529 29.2171L45.6913 28.7943H45.7086C47.3266 28.1257 47.5578 27.7086 47.4827 26.6514V22.3486C48.7136 25.44 49.875 27.6114 52.2616 27.6114C52.5852 27.6114 52.932 27.5714 53.3018 27.4857L54.238 27.28L53.5965 26.5829C53.1862 26.1371 52.9956 25.7943 52.7644 25.3943C52.672 25.2286 52.5737 25.0571 52.4582 24.8686C51.8976 23.9714 50.5743 23.6686 49.4995 24.1429C49.0083 23.1829 48.5171 21.9371 47.9276 20.3943L47.8005 20.1029C47.7023 19.8686 47.5982 19.64 47.4942 19.4057V19.3657H47.4769C47.1129 18.5543 46.7199 17.7371 46.2576 16.9714C45.83 16.2743 45.3966 15.6743 44.9343 15.1371C43.6919 13.6914 42.045 12.7943 40.0398 12.4629C38.6529 12.2343 37.6705 12.1886 36.4281 12.1257C36.1738 12.1143 35.9022 12.0971 35.6191 12.0857C35.0585 12.0571 33.8912 11.96 32.7701 11.8686C32.0131 11.8057 31.233 11.7429 30.6205 11.7029C30.6609 11.5314 30.684 11.3543 30.684 11.1714C30.684 10.9257 30.6667 10.7086 30.6205 10.5143H38.5951C40.6523 10.5143 42.1374 9.61143 43.0215 7.84571C45.0672 7.82857 46.5408 6.90857 47.4134 5.12H47.6965C49.8231 5.12 51.3428 4.16 52.2212 2.26285L52.5795 1.48571H25.5583C23.7843 1.48571 22.2703 2.62857 21.704 4.40571L21.6867 4.46857C21.2244 3.2 20.3865 2.12571 19.3116 1.49143C17.8149 0.611426 16.1102 0.314282 14.7522 0.702854C14.3015 0.828569 13.8565 1.02857 13.4924 1.26857C13.1804 1.47428 12.747 1.8 12.4292 2.2C12.0825 2.64 11.7473 3.16571 11.5046 3.66285C11.3485 3.78857 11.2272 3.92 11.1463 4.04571L10.8227 4.64571L10.8054 4.68571C10.4182 5.54857 9.95014 6.14857 9.58031 6.57143C9.21625 6.98857 9.19308 7.38857 9.24508 7.65143C9.29709 7.93143 9.45318 8.16571 9.62076 8.34285L9.6092 8.36C9.4994 8.54285 9.44734 8.75428 9.44734 8.96571C9.44734 9.66857 10.0657 10.2057 10.8284 10.2057C11.3832 10.2057 11.8398 9.94857 12.3194 9.63428C12.5101 9.50857 13.0302 9.17143 13.1978 9.14857C13.4116 9.14857 13.6022 9.33714 13.6022 9.55428C13.6022 10.1314 12.851 10.4457 12.3136 10.48L11.2156 10.5943C10.4239 10.6686 10.0542 11.08 10.0542 11.4514C10.0542 11.8229 10.2332 12.0343 10.3604 12.1543L10.4355 12.2343L10.7187 12.48L9.55141 14.3314C8.71928 13.5714 7.75418 13.1143 6.89316 13.0857C6.3384 13.0686 5.85883 13.2343 5.50054 13.5657C5.39651 13.6629 5.30982 13.7714 5.2347 13.8914H5.21738C4.29279 13.8914 3.54733 14.3771 3.18906 14.9257C2.7961 15.5257 2.94057 16.56 3.43754 17.3486L0.501953 18.1029V31.9886H54.3766V29.2171H44.5703H44.5529Z" fill="#C5221A"/>
<path d="M2.76187 20.44L2.7734 19.92H2.80229C2.87741 19.8971 2.93522 19.9029 2.96989 19.9314C3.00456 19.96 3.02188 20.0229 3.02188 20.1086C3.02188 20.2 2.99877 20.2686 2.95832 20.32C2.92365 20.3714 2.86588 20.4114 2.79654 20.4286C2.79076 20.4286 2.77917 20.4286 2.76761 20.4343M2.92943 21.0457V20.9886H2.91787C2.86586 21.0057 2.82541 21.0114 2.80807 21.0057C2.79073 21.0057 2.77918 20.9943 2.7734 20.9829C2.76762 20.9771 2.76183 20.9486 2.76761 20.8629V20.5257C2.91208 20.4857 3.00455 20.4571 3.06233 20.4286C3.15479 20.3829 3.21836 20.3257 3.27614 20.2514C3.32815 20.1829 3.35705 20.1029 3.35705 20.0171C3.35705 19.92 3.32237 19.8457 3.24147 19.8C3.16057 19.7543 3.03345 19.7543 2.85431 19.8L2.3169 19.9371H2.31111V19.9943H2.32268C2.37469 19.9829 2.41514 19.9771 2.43248 19.9829C2.44981 19.9829 2.45559 19.9943 2.46715 20.0057C2.46715 20.0114 2.47293 20.04 2.47293 20.1257L2.45558 20.9314C2.45558 21.0114 2.45557 21.0457 2.44401 21.0571C2.43246 21.0743 2.42089 21.0914 2.40356 21.1086C2.38044 21.12 2.3458 21.1371 2.28801 21.1486H2.28223V21.2114L2.91787 21.0457H2.92943Z" fill="#C5221A"/>
<path d="M3.62334 20.4286L3.80248 19.9943L3.95848 20.3429L3.62334 20.4286ZM3.23614 20.9143H3.23039V20.9714L3.6638 20.8629V20.8057H3.65223C3.58288 20.8229 3.54243 20.8229 3.53665 20.8171C3.51353 20.8114 3.50197 20.7943 3.50197 20.76C3.50197 20.7371 3.50774 20.7029 3.52508 20.6571L3.5771 20.5314L3.99315 20.4229L4.05096 20.5486C4.07407 20.5943 4.07407 20.6057 4.07984 20.6057C4.07984 20.6171 4.07984 20.6286 4.07984 20.6343C4.07984 20.6514 4.07986 20.6629 4.06252 20.6743C4.04519 20.6914 4.01049 20.7086 3.96426 20.72H3.92959V20.7829L4.53635 20.6286H4.54792V20.5714H4.53635C4.50168 20.5771 4.47281 20.5771 4.45547 20.5657C4.44391 20.5543 4.40922 20.52 4.35721 20.4171L3.92959 19.5086H3.92381H3.89492L3.43263 20.6171C3.39218 20.72 3.35173 20.7943 3.32862 20.8286C3.30551 20.8629 3.26506 20.8914 3.22461 20.9086" fill="#C5221A"/>
<path d="M5.12497 20.4286H5.1134C5.07872 20.44 5.04983 20.4457 5.03827 20.4457C5.01515 20.4457 4.99783 20.4457 4.9805 20.4286C4.96894 20.4171 4.96893 20.4057 4.96893 20.3943C4.96893 20.3771 4.9805 20.3371 5.05562 20.2343L5.23476 19.9657L5.40233 20.1771C5.437 20.2171 5.45436 20.2457 5.46014 20.2629C5.46014 20.2686 5.46014 20.2743 5.46014 20.2857C5.46014 20.3029 5.46012 20.3143 5.44278 20.3257C5.437 20.3314 5.41391 20.3486 5.35613 20.3657H5.34456V20.4286L5.95709 20.2686H5.96865V20.2114H5.95709C5.9282 20.2171 5.8993 20.2114 5.88197 20.2057C5.86463 20.1943 5.83574 20.1714 5.76639 20.0857L5.44278 19.6686L5.67395 19.3314C5.73751 19.24 5.77797 19.1886 5.79529 19.1657C5.82418 19.1371 5.84152 19.1143 5.86463 19.1029C5.88197 19.0914 5.91086 19.08 5.94553 19.0686H5.95709V19.0114L5.48324 19.1314V19.1886H5.49481C5.52948 19.1771 5.55838 19.1771 5.56994 19.1771C5.58727 19.1771 5.59882 19.1829 5.6046 19.1943C5.61038 19.2057 5.61614 19.2171 5.61614 19.2343C5.61614 19.2514 5.59881 19.3029 5.51213 19.4286L5.3908 19.6057L5.25211 19.4229L5.1943 19.3486C5.1943 19.3486 5.1943 19.3314 5.1943 19.32C5.1943 19.3029 5.2001 19.2914 5.21166 19.28C5.22322 19.2686 5.24632 19.2571 5.27522 19.2457L5.31567 19.2343V19.1771L4.69156 19.3371H4.68578V19.3943H4.69735C4.69735 19.3943 4.74357 19.3943 4.7609 19.3943C4.77246 19.4 4.78402 19.4114 4.80136 19.4229C4.80136 19.4286 4.8187 19.4457 4.88227 19.5314L5.18274 19.9086L4.93426 20.2629C4.85913 20.3714 4.80136 20.4457 4.76669 20.48C4.73779 20.5086 4.69736 20.5314 4.63957 20.5543H4.63379V20.6114L5.13075 20.4857V20.4286" fill="#C5221A"/>
<path d="M3.0854 21.7142C3.14319 21.7028 3.17783 21.6971 3.20095 21.6971C3.23562 21.7085 3.26452 21.7256 3.28764 21.7485C3.31075 21.7771 3.32808 21.8228 3.34541 21.8971V21.9085L3.40322 21.8971V21.5371L2.28794 21.8228H2.27637V22.1828L2.33414 22.1714C2.35148 22.0685 2.38037 21.9942 2.43815 21.9314C2.4786 21.8857 2.53064 21.8571 2.61154 21.8342L2.68667 21.8171L2.66932 22.7657C2.66932 22.8399 2.66353 22.8685 2.65775 22.8799C2.65197 22.9028 2.64041 22.9199 2.62308 22.9314C2.60574 22.9485 2.57688 22.9657 2.5422 22.9714L2.49596 22.9828V23.0399L3.14895 22.8685H3.16049V22.8114L3.10272 22.8228C3.06805 22.8285 3.04493 22.8342 3.02759 22.8285C3.01025 22.8228 2.9987 22.8114 2.99292 22.7999C2.99292 22.7942 2.98135 22.7657 2.98135 22.6914L2.9987 21.7428L3.07962 21.7199" fill="#C5221A"/>
<path d="M4.0219 21.4914C4.0219 21.4914 4.04501 21.4571 4.05657 21.4457C4.07391 21.4286 4.10278 21.4171 4.13745 21.4057L4.18368 21.3943V21.3371L3.52491 21.5086H3.51337V21.5657L3.57115 21.5543C3.60004 21.5429 3.62893 21.5429 3.64627 21.5486C3.66361 21.5543 3.66939 21.5657 3.68094 21.5714C3.68094 21.5771 3.68672 21.6057 3.68094 21.6857L3.66937 22.5029C3.66937 22.5771 3.66362 22.6057 3.65784 22.6171C3.64628 22.6343 3.6405 22.6514 3.62317 22.6686C3.60583 22.6857 3.57693 22.6971 3.54226 22.7086L3.49023 22.72V22.7771L4.14323 22.6114H4.1548V22.5486L4.10278 22.56C4.07388 22.5657 4.04502 22.5657 4.0219 22.56C4.00457 22.5543 3.99876 22.5486 3.99298 22.5371C3.99298 22.5314 3.98723 22.5086 3.98723 22.4286L4.00455 21.6114C4.00455 21.5371 4.00456 21.5086 4.01612 21.4971" fill="#C5221A"/>
<path d="M5.02654 21.5714C5.00342 21.6114 4.97451 21.6457 4.93406 21.6743C4.89361 21.7029 4.83583 21.7257 4.76071 21.7486L4.77228 21.2857C4.85896 21.2629 4.91674 21.2571 4.95141 21.2629C4.98608 21.2686 5.01499 21.2914 5.03232 21.3143C5.04966 21.3429 5.06121 21.3829 5.05543 21.4343C5.05543 21.4857 5.04965 21.5314 5.02654 21.5771M4.76071 21.8457C4.84739 21.8229 4.91674 21.8171 4.95719 21.8229C5.00342 21.8286 5.03232 21.8514 5.06121 21.8857C5.08433 21.92 5.09588 21.9714 5.09588 22.0229C5.09588 22.0686 5.08433 22.12 5.06121 22.1657C5.0381 22.2114 5.00918 22.2514 4.96873 22.28C4.92828 22.3143 4.88207 22.3314 4.84162 22.3429C4.80694 22.3543 4.7954 22.3486 4.77806 22.3429C4.7665 22.3314 4.75492 22.3086 4.75492 22.2857L4.76649 21.8457H4.76071ZM4.43132 22.4286C4.43132 22.4286 4.41398 22.4629 4.39086 22.4743C4.37352 22.4914 4.33307 22.5029 4.28107 22.5143H4.26953V22.5771L4.90518 22.4114C5.08432 22.3657 5.22301 22.2971 5.30969 22.1943C5.39059 22.1143 5.43105 22.0229 5.43105 21.9257C5.43105 21.8343 5.39635 21.7657 5.32701 21.7257C5.28656 21.7029 5.223 21.6857 5.12477 21.6857C5.21145 21.64 5.2808 21.5829 5.31547 21.5371C5.3617 21.48 5.38481 21.4171 5.38481 21.3543C5.38481 21.2914 5.36746 21.24 5.33279 21.2C5.29812 21.1543 5.24611 21.1314 5.18833 21.12C5.13054 21.1086 5.02655 21.12 4.88786 21.16L4.29842 21.3086H4.28685V21.3714H4.29842C4.35621 21.3543 4.39088 21.3486 4.40821 21.3543C4.42555 21.3543 4.43711 21.3657 4.44867 21.3771C4.44867 21.3829 4.45446 21.4114 4.45446 21.4914L4.44289 22.2971C4.44289 22.3771 4.43132 22.4114 4.43132 22.4229" fill="#C5221A"/>
<path d="M6.01526 20.9829C6.01526 20.9829 6.03838 20.9486 6.04993 20.9371C6.07305 20.92 6.09616 20.9086 6.13661 20.8971L6.18284 20.8857V20.8286L5.52408 21H5.5183V21.0629L5.57611 21.0514C5.605 21.0457 5.63389 21.0457 5.65123 21.0514C5.66856 21.0571 5.68012 21.0629 5.6859 21.0743C5.69168 21.08 5.69743 21.1086 5.69165 21.1886L5.67433 22.0057C5.67433 22.08 5.66854 22.1086 5.66276 22.12C5.66276 22.1429 5.64543 22.16 5.62809 22.1714C5.61075 22.1886 5.58186 22.2 5.54718 22.2114L5.50098 22.2229V22.2857L6.15973 22.1143H6.16551V22.0571L6.10772 22.0743C6.10772 22.0743 6.04993 22.08 6.0326 22.0743C6.01526 22.0743 6.00371 22.0629 5.99793 22.0514C5.99793 22.0457 5.99215 22.0229 5.99215 21.9429L6.0037 21.1257C6.0037 21.0514 6.00948 21.0229 6.01526 21.0114" fill="#C5221A"/>
<path d="M4.588 23.92L4.25283 24.0057L4.43196 23.5771M5.99799 23.0971C5.99799 23.16 5.98643 23.2171 5.95754 23.2629C5.93442 23.3086 5.89975 23.3429 5.86508 23.3657C5.81885 23.3943 5.76107 23.4171 5.67439 23.4343L5.63973 23.4457V22.9257L5.73795 22.9029C5.83041 22.88 5.89975 22.88 5.9402 22.9143C5.98065 22.9486 5.99799 23.0114 5.99799 23.0971ZM6.4834 23.8229C6.45451 23.8343 6.42561 23.8229 6.40828 23.8172C6.39672 23.8114 6.3736 23.7943 6.33315 23.7372L6.05 23.4C6.11934 23.36 6.17713 23.32 6.21758 23.2743C6.28692 23.2 6.3216 23.1086 6.3216 23.0171C6.3216 22.9429 6.30426 22.8743 6.25803 22.8286C6.2118 22.7829 6.15401 22.76 6.08467 22.7543C6.01533 22.7486 5.89975 22.7714 5.74952 22.8057L5.17744 22.9543H5.16587V23.0171H5.17744C5.22945 23 5.2699 22.9943 5.28723 23C5.30457 23 5.31613 23.0114 5.32191 23.0229C5.32191 23.0286 5.33344 23.0572 5.33344 23.1372L5.32191 23.9429C5.32191 24.0286 5.31034 24.0571 5.31034 24.0686C5.30456 24.0857 5.28722 24.1029 5.26988 24.1143C5.25254 24.1314 5.21789 24.1429 5.17744 24.1543C5.14854 24.16 5.11965 24.1543 5.10231 24.1429C5.0792 24.1257 5.0445 24.0743 5.00405 23.9886L4.57643 23.08H4.54176L4.07947 24.1943C4.03902 24.2972 4.00435 24.3657 3.97546 24.4057C3.94657 24.4457 3.9119 24.4686 3.87145 24.4857H3.8541C3.81942 24.4971 3.7963 24.4972 3.77897 24.4914C3.75585 24.4914 3.75008 24.4743 3.7443 24.4686C3.7443 24.4629 3.73852 24.4343 3.73852 24.3543L3.75009 23.5314C3.75009 23.4572 3.75587 23.4286 3.75587 23.4172C3.76743 23.3943 3.77898 23.3772 3.79632 23.3657C3.81366 23.3486 3.84831 23.3372 3.88298 23.3257L3.92922 23.3143V23.2572L3.41491 23.3886L3.07398 24.2743L2.75038 23.56L2.24185 23.6914H2.23028V23.7486L2.28809 23.7372C2.28809 23.7372 2.3401 23.7314 2.35743 23.7372C2.37477 23.7372 2.3921 23.7543 2.3921 23.76C2.3921 23.7657 2.40364 23.7886 2.40364 23.8686L2.3921 24.6572C2.3921 24.7257 2.3921 24.7486 2.3921 24.7486C2.38633 24.7772 2.37477 24.8057 2.36322 24.8172C2.35166 24.8343 2.33431 24.8514 2.3112 24.8629C2.29386 24.88 2.26497 24.8914 2.24185 24.8972H2.21875V24.96L2.65215 24.8514H2.66369V24.7886H2.64637C2.59436 24.8057 2.5539 24.8057 2.53079 24.8C2.50767 24.7886 2.49033 24.7657 2.48455 24.7429V24.6343L2.49612 23.8057L2.94109 24.7657V24.7772L2.98151 24.7657L3.44958 23.5657L3.43805 24.4229C3.43805 24.4972 3.43226 24.5257 3.42648 24.5371C3.41492 24.56 3.40336 24.5772 3.39181 24.5829C3.37447 24.6 3.34557 24.6114 3.30511 24.6229L3.25891 24.6343V24.6914L3.87145 24.5314L4.29907 24.4229H4.30485V24.3657H4.29328C4.22972 24.3772 4.18348 24.3772 4.1777 24.3772C4.15459 24.3714 4.14303 24.3543 4.14303 24.32C4.14303 24.2972 4.15458 24.2629 4.17192 24.2172L4.22394 24.0857L4.64577 23.9771L4.70358 24.1086C4.72669 24.16 4.73247 24.1657 4.73247 24.1714C4.73247 24.1771 4.73247 24.1886 4.73247 24.2C4.73247 24.2114 4.72667 24.2286 4.71511 24.24C4.69778 24.2571 4.6689 24.2686 4.62267 24.28L4.588 24.2914V24.3486L5.16008 24.2057L5.20054 24.1943L5.80151 24.04H5.81307V23.9829H5.79574C5.74953 23.9943 5.7264 24 5.70328 24C5.70328 24 5.69174 24 5.68596 24C5.66863 24 5.65708 23.9886 5.6513 23.9771C5.6513 23.9714 5.63973 23.9429 5.63973 23.8572V23.5143L5.70907 23.4971L6.09045 23.96L6.48918 23.8629H6.49496V23.8057H6.4834V23.8229Z" fill="#C5221A"/>
<path d="M3.35706 25.2686C3.35706 25.2972 3.34551 25.3257 3.33396 25.3371C3.3224 25.3543 3.30505 25.3658 3.28772 25.3658C3.27616 25.3658 3.24149 25.3658 3.1837 25.3601C3.08547 25.3486 2.99302 25.3486 2.90634 25.3772C2.79077 25.4058 2.67517 25.4686 2.56538 25.5486C2.46136 25.6343 2.37468 25.7429 2.31112 25.8686C2.24755 25.9886 2.21289 26.1143 2.21289 26.2343C2.21289 26.3486 2.23598 26.4515 2.29376 26.5372C2.34577 26.6286 2.4267 26.6858 2.53071 26.7086C2.57694 26.7201 2.62896 26.7315 2.68096 26.7315C2.74453 26.7315 2.81386 26.7201 2.88899 26.7029C2.98722 26.6801 3.07969 26.64 3.15482 26.5829C3.22994 26.5315 3.30507 26.4629 3.37441 26.3658H3.38016V26.2172L3.35706 26.2515C3.28772 26.3543 3.21838 26.4286 3.15482 26.48C3.09125 26.5314 3.02191 26.5658 2.94101 26.5829C2.84855 26.6115 2.77342 26.6058 2.72142 26.5715C2.66941 26.5429 2.62317 26.4858 2.60005 26.4058C2.57694 26.3201 2.56538 26.2229 2.56538 26.1143C2.56538 26.0058 2.58848 25.8972 2.62315 25.7943C2.65783 25.7201 2.69828 25.6458 2.76762 25.5886C2.83119 25.5258 2.90056 25.4858 2.97568 25.4686C3.06236 25.4458 3.14325 25.4572 3.21259 25.4915C3.28194 25.5315 3.32816 25.6001 3.35127 25.7086V25.7201L3.40909 25.7029V25.2458L3.36284 25.2629" fill="#C5221A"/>
<path d="M4.61738 25.8171C4.58849 25.9314 4.53648 26.0285 4.46713 26.0971C4.39779 26.1657 4.30535 26.2171 4.19555 26.2457L4.12621 26.2628C4.09732 26.2685 4.0742 26.2742 4.05687 26.2628C4.03953 26.2628 4.03373 26.2514 4.03373 26.2399C4.03373 26.2342 4.02217 26.2057 4.02795 26.1257V25.7828C4.08573 25.7714 4.1262 25.7657 4.15509 25.7771C4.18399 25.7828 4.20132 25.8057 4.22444 25.8399C4.24755 25.8799 4.25912 25.9314 4.2649 25.9999V26.0114L4.32267 25.9942L4.33423 25.3199L4.27646 25.3371C4.27069 25.4399 4.24757 25.5199 4.20712 25.5771C4.17245 25.6342 4.12042 25.6742 4.03952 25.6914H4.03373L4.03952 25.2114L4.16088 25.1771C4.25334 25.1542 4.31113 25.1428 4.3458 25.1485C4.40359 25.1485 4.44402 25.1657 4.47292 25.1942C4.50181 25.2228 4.52492 25.2799 4.53648 25.3599V25.3771L4.59428 25.3599V24.9657L3.55413 25.2342H3.54834V25.2914L3.60033 25.2742C3.635 25.2685 3.66391 25.2685 3.68703 25.2742C3.69858 25.2742 3.71012 25.2914 3.71012 25.3085C3.71012 25.3142 3.71012 25.3428 3.71012 25.4114L3.69281 26.2285C3.69281 26.3085 3.68702 26.3371 3.68124 26.3428C3.66968 26.3599 3.66391 26.3828 3.64657 26.3885C3.62346 26.4057 3.60033 26.4171 3.56566 26.4285L3.51367 26.4399V26.4971L4.59428 26.2228H4.60007L4.66363 25.7885L4.60581 25.8057" fill="#C5221A"/>
<path d="M6.32655 25.3829C6.29188 25.4971 6.23987 25.5943 6.17053 25.6629C6.10118 25.7371 6.00873 25.7829 5.89893 25.8114L5.82381 25.8343C5.78913 25.84 5.76603 25.8457 5.75447 25.8343C5.73714 25.8343 5.73712 25.8229 5.73134 25.8114C5.73134 25.8057 5.71977 25.7829 5.72555 25.6971V25.3543C5.78336 25.3429 5.82959 25.3371 5.8527 25.3429C5.88159 25.3486 5.90471 25.3714 5.92204 25.4057C5.94516 25.4457 5.95672 25.4971 5.9625 25.56V25.5771L6.02028 25.56L6.03184 24.8857L5.97405 24.9029C5.9625 25.0114 5.93938 25.0857 5.90471 25.1429C5.87582 25.2 5.81803 25.24 5.74291 25.2571H5.73712L5.74291 24.7771L5.85848 24.7429C5.95094 24.72 6.0145 24.7086 6.04918 24.7143C6.10118 24.7143 6.14741 24.7314 6.17631 24.7657C6.2052 24.7943 6.22832 24.8514 6.23987 24.9314V24.9429L6.29766 24.9314V24.5429L5.26326 24.8114H5.25173V24.8686L5.3095 24.8514C5.34995 24.8457 5.37308 24.8457 5.3962 24.8514C5.40775 24.8514 5.4193 24.8686 5.42508 24.88C5.42508 24.8857 5.42508 24.9086 5.42508 24.9829L5.41351 25.8C5.41351 25.8743 5.40772 25.9029 5.40195 25.9143C5.39617 25.9371 5.38461 25.9486 5.36727 25.96C5.34416 25.9771 5.32107 25.9943 5.2864 26L5.23438 26.0114V26.0686L6.315 25.7886H6.32077L6.38434 25.3543L6.33233 25.3657" fill="#C5221A"/>
<path d="M7.85793 20.3314L7.90422 20.3429L8.30873 19.4914C8.35496 19.3886 8.38963 19.3314 8.41274 19.3086C8.44164 19.28 8.47631 19.2686 8.52254 19.2686H8.5341V19.2171L8.10647 19.1029V19.16H8.11803C8.16426 19.1714 8.1931 19.1829 8.22199 19.2C8.23933 19.2114 8.25672 19.2286 8.2625 19.24C8.26828 19.2514 8.27406 19.2743 8.27983 19.2857C8.27983 19.2971 8.27983 19.32 8.26828 19.3371C8.2625 19.36 8.25088 19.4 8.22199 19.4571L8.0024 19.92L7.73086 19.2571C7.70196 19.1829 7.68457 19.1429 7.67879 19.12C7.67879 19.1086 7.67307 19.0914 7.67307 19.08C7.67307 19.0629 7.67879 19.0571 7.67879 19.0571C7.70191 19.0457 7.73658 19.0514 7.78859 19.0629H7.81754V19.0114L7.19922 18.8514V18.9086H7.21072C7.25695 18.9257 7.2859 18.9429 7.30324 18.9657C7.31479 18.9886 7.35524 19.0686 7.40725 19.2L7.85793 20.3029" fill="#C5221A"/>
<path d="M8.75346 20.0914L8.90949 19.7486L9.08285 20.1829L8.74768 20.0971M8.38941 20.3886H8.37207V20.4457L8.80547 20.5543V20.4971C8.72457 20.4686 8.69568 20.4514 8.68412 20.4457C8.661 20.4229 8.64367 20.4 8.64367 20.3657C8.64367 20.3429 8.64945 20.3143 8.661 20.2743L8.70723 20.1771L9.12908 20.2857L9.19264 20.4514C9.21576 20.5086 9.22154 20.5257 9.22154 20.5257C9.22732 20.5371 9.22732 20.5486 9.22732 20.56C9.22732 20.5771 9.22154 20.5829 9.21576 20.5829C9.21576 20.5829 9.19842 20.5829 9.19264 20.5829C9.17531 20.5829 9.15219 20.5829 9.1233 20.5714L9.08285 20.56V20.6171L9.70695 20.7771V20.72H9.69539C9.66072 20.7086 9.63182 20.6914 9.61449 20.6629C9.58559 20.6343 9.55092 20.5657 9.50469 20.4571L9.03084 19.3257L9.00195 19.3143L8.58588 20.2057C8.54543 20.2857 8.51076 20.3371 8.48764 20.36C8.45875 20.3829 8.42986 20.3886 8.38941 20.3829" fill="#C5221A"/>
<path d="M9.77124 19.5943C9.80591 19.6 9.83481 19.6171 9.85214 19.6286C9.86948 19.64 9.89259 19.6686 9.92149 19.7086L9.9446 19.7486L9.96772 20.6229C9.96772 20.6857 9.96194 20.7257 9.93882 20.7429C9.91571 20.7657 9.86948 20.7657 9.80591 20.7429H9.78858V20.8L10.2451 20.9143V20.8571L10.2046 20.8457C10.1642 20.8343 10.1295 20.8171 10.1006 20.7829C10.066 20.7543 10.0544 20.7029 10.0544 20.6343L10.0313 19.8857L10.8692 21.1086H10.875L10.9212 21.1257L10.8923 20.0743C10.8923 20.0171 10.8923 19.9771 10.9039 19.96C10.9154 19.9429 10.9212 19.9257 10.9385 19.92C10.9559 19.92 10.9905 19.92 11.0426 19.92H11.0541V19.8629L10.6207 19.7543V19.8114H10.6265C10.6901 19.8286 10.7421 19.8571 10.771 19.8971C10.7883 19.9257 10.8056 19.9771 10.8056 20.0514L10.8172 20.5429L10.2104 19.6457L9.75391 19.5257V19.5829H9.76546" fill="#C5221A"/>
<path d="M7.52887 21.9371C7.58666 22.0057 7.65017 22.0629 7.72529 22.12C7.80041 22.1714 7.89287 22.2114 8.00267 22.24C8.08935 22.2629 8.17608 22.2743 8.25121 22.28H8.2801C8.34944 22.28 8.41295 22.2743 8.4823 22.2571H8.48808L8.4823 21.9886C8.4823 21.9257 8.4823 21.9143 8.4823 21.9086C8.4823 21.8914 8.49963 21.88 8.50541 21.88C8.52275 21.88 8.55164 21.88 8.59209 21.88H8.60949V21.8286L8.02578 21.68V21.7371L8.06045 21.7486C8.06045 21.7486 8.10668 21.7657 8.1298 21.7829C8.14713 21.7943 8.15869 21.8114 8.16447 21.8286C8.16447 21.84 8.17608 21.8629 8.17608 21.92V22.1714C8.17608 22.1714 8.12985 22.1714 8.10674 22.1714C8.07785 22.1714 8.0489 22.1714 8.02578 22.16C7.94488 22.1371 7.87559 22.1029 7.81781 22.0457C7.76002 21.9886 7.71373 21.9143 7.69062 21.8171C7.66172 21.72 7.65017 21.6114 7.64439 21.4971C7.64439 21.4 7.65022 21.3086 7.67334 21.2229C7.69067 21.1371 7.73107 21.08 7.78308 21.04C7.83508 21 7.90443 20.9943 7.98533 21.0171C8.07201 21.04 8.15869 21.0914 8.22803 21.1714C8.30316 21.2514 8.36672 21.3543 8.40717 21.4857L8.46502 21.5029L8.4534 21.0514L8.4014 21.0343V21.0457C8.38406 21.08 8.3725 21.0914 8.36672 21.0971C8.35517 21.1086 8.34361 21.1086 8.33205 21.1029C8.33205 21.1029 8.30894 21.0914 8.23959 21.0457C8.18181 21.0057 8.14135 20.9829 8.11246 20.9714C8.06623 20.9543 8.01428 20.9314 7.95649 20.92C7.77158 20.8686 7.61549 20.8971 7.49414 20.9943C7.36701 21.0971 7.30922 21.24 7.32078 21.4343C7.32078 21.5371 7.34967 21.64 7.39012 21.7371C7.4248 21.8114 7.46531 21.88 7.52309 21.9486" fill="#C5221A"/>
<path d="M9.65614 22.6343L9.70231 22.2286L9.65036 22.2171V22.2286C9.62147 22.3314 9.57524 22.3943 9.51167 22.4286C9.44233 22.4686 9.35565 22.4686 9.24585 22.44L9.17073 22.4229C9.13606 22.4171 9.11289 22.4057 9.09555 22.3886C9.08399 22.3771 9.07249 22.3657 9.06672 22.3486C9.06672 22.3429 9.06088 22.3086 9.0551 22.2229L9.0436 21.8857C9.08983 21.9029 9.136 21.92 9.15912 21.9371C9.18801 21.96 9.2169 21.9943 9.23424 22.0457C9.25735 22.0971 9.27475 22.1543 9.2863 22.2286L9.34403 22.2514L9.32676 21.5886L9.26891 21.5657V21.5771C9.25735 21.6686 9.2343 21.7371 9.21118 21.7714C9.17651 21.8114 9.13022 21.8171 9.0551 21.8H9.03782L9.02626 21.3143L9.13606 21.3428C9.22852 21.3657 9.29208 21.3886 9.32676 21.4057C9.37876 21.44 9.42499 21.4743 9.45967 21.52C9.48856 21.5657 9.51745 21.6343 9.53479 21.7314L9.59252 21.7543L9.58102 21.3714V21.36L8.5293 21.0857V21.1429L8.58125 21.1543C8.61592 21.1657 8.64487 21.1828 8.66799 21.2C8.68532 21.2171 8.69688 21.2343 8.70266 21.2514C8.70266 21.2628 8.70266 21.2857 8.70844 21.36L8.72571 22.1771C8.73149 22.2571 8.72571 22.28 8.72571 22.2857C8.72571 22.2971 8.70838 22.3086 8.69682 22.3143C8.67948 22.3143 8.65059 22.3143 8.61592 22.3143L8.55819 22.2971V22.3543L9.63875 22.6286H9.65036" fill="#C5221A"/>
<path d="M10.8701 22.4857L10.8123 22.4686V22.48C10.7834 22.5657 10.7545 22.6343 10.7256 22.6743C10.6967 22.7143 10.6621 22.7371 10.6158 22.7486C10.5754 22.76 10.5234 22.7543 10.4598 22.7429L10.3616 22.7143C10.2922 22.6971 10.2633 22.6857 10.2518 22.68C10.2287 22.6686 10.2171 22.6514 10.2113 22.6343C10.2113 22.6229 10.2055 22.5886 10.2055 22.5143L10.1824 21.7257C10.1824 21.6457 10.1824 21.6229 10.1824 21.6171C10.194 21.6 10.1998 21.5943 10.2113 21.5886C10.2287 21.5886 10.2576 21.5886 10.2922 21.5886L10.3616 21.6057V21.5486L9.67969 21.3771V21.4343L9.7317 21.4457C9.76637 21.4571 9.78948 21.4686 9.8126 21.4857C9.82993 21.5028 9.84149 21.52 9.85305 21.5314C9.85305 21.5429 9.86461 21.5714 9.86461 21.6514L9.88772 22.4686C9.88772 22.5486 9.88772 22.5714 9.88194 22.5771C9.87038 22.5943 9.87038 22.6057 9.85305 22.6057C9.83571 22.6114 9.80682 22.6057 9.77215 22.6057L9.72014 22.5943V22.6514L10.8239 22.9314H10.8412L10.8759 22.4971V22.4857" fill="#C5221A"/>
<path d="M10.8467 21.7371L10.8987 21.7486C10.9334 21.76 10.9565 21.7714 10.9738 21.7886C10.9969 21.8057 11.0085 21.8171 11.0143 21.8343C11.02 21.8457 11.0258 21.8743 11.0316 21.9543L11.0547 22.7771C11.0547 22.8571 11.0547 22.88 11.0489 22.88C11.0374 22.8971 11.0316 22.9086 11.02 22.9143C11.0027 22.92 10.9738 22.9143 10.9391 22.9143L10.8814 22.8971V22.9543L11.5401 23.12H11.5517V23.0686L11.5054 23.0571C11.4708 23.0457 11.4477 23.0343 11.4245 23.0229C11.4072 23.0057 11.3957 22.9886 11.3841 22.9771C11.3841 22.9657 11.3725 22.9371 11.3725 22.8571L11.3552 22.04C11.3552 21.96 11.3552 21.9371 11.361 21.9314C11.3668 21.9143 11.3725 21.9086 11.3899 21.9029C11.4072 21.8971 11.4361 21.8971 11.4708 21.9029L11.5228 21.9143V21.8571L10.8525 21.6857V21.7429" fill="#C5221A"/>
<path d="M7.8644 23.9829C7.77772 23.96 7.69681 23.9086 7.62169 23.8171C7.54657 23.7314 7.48872 23.6171 7.45983 23.4799L7.4021 23.4571L7.41366 23.9429L7.46567 23.96C7.46567 23.96 7.48872 23.92 7.50028 23.9143C7.51184 23.9086 7.52923 23.9086 7.54079 23.9143C7.55813 23.9143 7.58118 23.9314 7.6043 23.9486C7.66208 23.9829 7.70259 24.0114 7.73727 24.0286C7.77772 24.0457 7.81239 24.0571 7.85284 24.0686C7.89907 24.08 7.9453 24.0857 7.98575 24.0857C8.05509 24.0857 8.11866 24.0685 8.17067 24.0342C8.25157 23.9771 8.29202 23.8971 8.28624 23.7885C8.28624 23.7028 8.25735 23.6229 8.20534 23.5486C8.15333 23.4686 8.05509 23.3771 7.90485 23.2686C7.80083 23.1886 7.73727 23.1371 7.70259 23.1086C7.66792 23.0686 7.63903 23.04 7.62169 23.0057C7.61013 22.9829 7.60436 22.9599 7.59858 22.9314C7.59858 22.8914 7.61586 22.8629 7.64475 22.84C7.67942 22.8171 7.71993 22.8171 7.77772 22.8285C7.85862 22.8457 7.93374 22.8971 7.99731 22.9771C8.06665 23.0514 8.11288 23.1486 8.13022 23.2514V23.2629L8.19378 23.2743L8.17067 22.84L8.12444 22.8229V22.8343C8.11866 22.8743 8.1071 22.8914 8.10132 22.8914C8.09554 22.8914 8.08971 22.8971 8.07237 22.8914C8.06659 22.8914 8.03776 22.8743 7.99153 22.84C7.9453 22.8114 7.91063 22.7886 7.88751 22.7714C7.84706 22.7486 7.80661 22.7371 7.77194 22.7257C7.65636 22.6971 7.56391 22.7086 7.48878 22.76C7.41944 22.8114 7.38477 22.8914 7.38477 22.9942C7.38477 23.0571 7.4021 23.1143 7.431 23.1714C7.45989 23.2286 7.50034 23.2857 7.54657 23.3371C7.59858 23.3885 7.67948 23.4571 7.79505 23.5428C7.87595 23.6057 7.93374 23.6514 7.96263 23.6857C7.99731 23.7142 8.02042 23.7486 8.03198 23.7771C8.04354 23.8057 8.05509 23.8343 8.05509 23.8629C8.05509 23.9086 8.0377 23.9429 8.00303 23.9657C7.96836 23.9886 7.91641 23.9943 7.85284 23.9771" fill="#C5221A"/>
<path d="M9.28502 23.2514C9.32547 23.28 9.36015 23.3143 9.37748 23.3543C9.40637 23.3886 9.42371 23.4514 9.44683 23.5371L9.49883 23.5543V23.2057V23.2L8.37777 22.9143H8.36621L8.37777 23.2629V23.2743L8.43556 23.2857V23.2743C8.44711 23.1886 8.47601 23.1314 8.52801 23.0914C8.56269 23.0686 8.62047 23.0686 8.6956 23.0914L8.7765 23.1143L8.79961 24.0629C8.79961 24.1429 8.79961 24.1657 8.79383 24.1714C8.78806 24.1829 8.78228 24.1943 8.76494 24.2C8.74183 24.2 8.71877 24.2 8.6841 24.2L8.62625 24.1829V24.24L9.27924 24.4057H9.29664V24.3543L9.25035 24.3429C9.21568 24.3314 9.19256 24.32 9.16945 24.3086C9.15211 24.2914 9.14056 24.2743 9.13478 24.2571C9.129 24.2457 9.12322 24.2172 9.12322 24.1372L9.09433 23.1943L9.17523 23.2114C9.22724 23.2286 9.26774 23.24 9.29086 23.2571" fill="#C5221A"/>
<path d="M10.2275 24.2L9.89238 24.1143L10.0542 23.7714L10.2275 24.2057M10.3605 24.6057C10.3605 24.6057 10.3142 24.6114 10.268 24.6L10.2333 24.5886V24.6457L10.8401 24.8H10.8574V24.7486H10.8516C10.817 24.7314 10.7881 24.7143 10.765 24.6914C10.7361 24.6629 10.7072 24.5943 10.6609 24.4857L10.1871 23.3486H10.1524L9.73635 24.2286C9.70168 24.3086 9.66701 24.36 9.63812 24.3829C9.60922 24.4 9.58033 24.4114 9.53988 24.4057H9.52832V24.4629L9.94439 24.5714H9.96172V24.52H9.95594C9.89238 24.4971 9.85193 24.48 9.84037 24.4686C9.81148 24.4457 9.79992 24.4171 9.79992 24.3886C9.79992 24.36 9.8057 24.3314 9.81725 24.2971L9.86348 24.2L10.2853 24.3086L10.3489 24.4743C10.372 24.5314 10.3778 24.5429 10.3778 24.5486C10.3836 24.56 10.3836 24.5714 10.3836 24.5829C10.3836 24.6 10.3778 24.6057 10.372 24.6057" fill="#C5221A"/>
<path d="M8.88128 26.1086C8.88128 26.1086 8.82928 26.0915 8.81194 26.0743C8.7946 26.0572 8.78883 26.0458 8.77727 26.0286C8.77727 26.0172 8.76565 25.9886 8.76565 25.9086L8.7426 25.0915C8.7426 25.0115 8.7426 24.9886 8.7426 24.9829C8.7426 24.9658 8.7541 24.9601 8.76565 24.9543C8.78299 24.9486 8.80032 24.9486 8.835 24.9543H8.84661L8.85239 24.9601C8.88706 24.9658 8.91018 24.9829 8.93329 25.0058C8.94485 25.0172 8.95641 25.0343 8.96219 25.0572C8.96219 25.0743 8.96219 25.1086 8.96796 25.1601L8.99108 25.9772C8.99108 26.0572 8.98524 26.0801 8.97946 26.0858C8.97946 26.0972 8.97374 26.1086 8.95641 26.1143C8.93907 26.1201 8.91596 26.1201 8.88706 26.1143H8.87545H8.86967M10.9154 25.4915V25.4401L10.5455 25.3429H10.5282V25.4001H10.5397C10.5744 25.4115 10.6033 25.4229 10.6264 25.4401C10.6438 25.4515 10.6496 25.4629 10.6611 25.4743C10.6611 25.4915 10.6726 25.5086 10.6726 25.52C10.6726 25.5315 10.6727 25.5543 10.6669 25.5715C10.6669 25.5943 10.6438 25.6343 10.6207 25.6972L10.4299 26.1601L10.193 25.5143C10.1642 25.4458 10.1468 25.4 10.1468 25.3772C10.141 25.3658 10.141 25.3543 10.141 25.3371C10.141 25.32 10.141 25.32 10.1526 25.3143C10.1642 25.3086 10.1988 25.3086 10.245 25.3201L10.2797 25.3315V25.2743L9.75387 25.1372H9.74225H9.73075L8.82928 24.9029H8.81194L8.43055 24.8001L8.15895 25.5258L7.84112 24.6515L7.3846 24.5315H7.37305V24.5829L7.41928 24.5943C7.41928 24.5943 7.47128 24.6115 7.48862 24.6286C7.50596 24.6458 7.51751 24.6572 7.52329 24.6743C7.52329 24.6858 7.53479 24.72 7.53479 24.7943L7.55796 25.5829C7.55796 25.6515 7.55796 25.6686 7.55796 25.6743C7.55796 25.6972 7.54635 25.7201 7.53479 25.7315C7.52323 25.7429 7.51168 25.7486 7.49434 25.7543C7.47701 25.7543 7.45389 25.7543 7.43078 25.7543H7.40194V25.8058L7.78905 25.9029H7.80067V25.8515H7.78905C7.74283 25.8401 7.70815 25.8172 7.68504 25.7943C7.66192 25.7658 7.65037 25.7429 7.64459 25.7143C7.63881 25.6972 7.63887 25.6629 7.63309 25.6L7.60992 24.8001L8.0491 25.9715L8.08377 25.9829L8.45366 25.0001L8.47672 25.8686C8.47672 25.9429 8.47672 25.9715 8.47672 25.9772C8.47094 25.9943 8.45944 26.0001 8.45366 26.0115C8.43633 26.0172 8.41321 26.0172 8.38432 26.0115L8.33803 26.0001V26.0572L8.85817 26.1886L9.82899 26.4401L9.86366 26.0458V26.0343L9.81737 26.0229V26.0343C9.78848 26.1372 9.74809 26.2058 9.6903 26.2401C9.63251 26.2743 9.55155 26.2801 9.45332 26.2572L9.38397 26.2401C9.38397 26.2401 9.3378 26.2229 9.32047 26.2115C9.30891 26.2 9.29735 26.1829 9.29735 26.1715C9.29157 26.1543 9.28579 26.1143 9.28579 26.0458V25.7086C9.32046 25.7258 9.35508 25.7372 9.37819 25.7543C9.40131 25.7772 9.4302 25.8115 9.44754 25.8572C9.47065 25.9086 9.48221 25.9658 9.49377 26.04L9.54583 26.0629L9.52844 25.3943L9.47649 25.3715V25.3829C9.47071 25.4743 9.45337 25.5429 9.42448 25.5829C9.39559 25.6229 9.35514 25.6286 9.28579 25.6115H9.2684L9.2569 25.1258L9.35514 25.1486C9.43604 25.1715 9.49377 25.1886 9.52266 25.2115C9.57467 25.24 9.61512 25.28 9.63824 25.3258C9.66713 25.3715 9.69024 25.4401 9.70758 25.5372L9.75964 25.5543L9.74809 25.2229C9.77698 25.2343 9.80582 25.2515 9.8116 25.2743C9.82315 25.2915 9.8521 25.3429 9.90989 25.5086L10.3143 26.5943L10.3548 26.6058L10.7074 25.7429C10.7536 25.64 10.7825 25.5772 10.7998 25.5543C10.8287 25.5201 10.8575 25.5086 10.898 25.5143H10.9096L10.9154 25.4915Z" fill="#C5221A"/>
<path d="M11.5578 26.2629C11.5115 26.1886 11.4191 26.0971 11.292 25.9943C11.1937 25.92 11.1359 25.8686 11.1128 25.84C11.0781 25.8057 11.0493 25.7714 11.0377 25.7371C11.0261 25.7143 11.0204 25.6914 11.0204 25.6629C11.0204 25.6229 11.0377 25.5943 11.0666 25.5714C11.0955 25.5486 11.1359 25.5429 11.1822 25.5543C11.2515 25.5714 11.3151 25.6171 11.3786 25.6971C11.4364 25.7771 11.4769 25.8686 11.4942 25.9714L11.5462 25.9943L11.5289 25.56L11.4827 25.5429V25.5543C11.4711 25.6 11.4653 25.6114 11.4653 25.6114C11.4595 25.6171 11.4538 25.6171 11.4364 25.6171C11.4306 25.6171 11.4075 25.6057 11.3613 25.5714C11.3266 25.5429 11.292 25.52 11.2631 25.5086C11.2284 25.4914 11.1937 25.48 11.159 25.4629C11.055 25.4343 10.9741 25.4571 10.9106 25.5086C10.8412 25.56 10.8123 25.64 10.8181 25.7486C10.8181 25.8057 10.8297 25.8629 10.8586 25.92C10.8817 25.9771 10.9221 26.0286 10.9683 26.08C11.0088 26.1314 11.0839 26.1943 11.1879 26.28C11.2573 26.3371 11.3093 26.3829 11.3382 26.4114C11.3671 26.44 11.3844 26.4743 11.4017 26.5029C11.4133 26.5314 11.4249 26.56 11.4249 26.5886C11.4249 26.6343 11.4075 26.6743 11.3786 26.6971C11.344 26.72 11.2977 26.7314 11.2457 26.7143C11.1706 26.6971 11.0955 26.6457 11.0319 26.5543C10.9626 26.4686 10.9163 26.3543 10.8874 26.2229L10.8354 26.2L10.847 26.6857V26.6971L10.899 26.7086C10.9048 26.68 10.9163 26.6686 10.9337 26.6571C10.9452 26.6514 10.9568 26.6457 10.9683 26.6514C10.9857 26.6514 11.003 26.6686 11.0261 26.6857C11.0724 26.72 11.1128 26.7486 11.1475 26.76C11.1764 26.7771 11.2111 26.7886 11.2457 26.8C11.2862 26.8114 11.3208 26.8114 11.3555 26.8114C11.4191 26.8114 11.4827 26.7943 11.5289 26.7543C11.604 26.6971 11.6387 26.6114 11.6329 26.5029C11.6329 26.4229 11.604 26.3371 11.5578 26.2629Z" fill="#C5221A"/>
</g>
<defs>
<clipPath id="clip0_20_472">
<rect width="141" height="44" fill="white"/>
</clipPath>
</defs>
</svg>
