<svg width="67" height="60" viewBox="0 0 67 60" fill="none" xmlns="http://www.w3.org/2000/svg">
<g clip-path="url(#clip0_20_254)">
<path d="M66.9921 0H0.198242V59.854H66.9921V0Z" fill="#F20000"/>
<path d="M27.5173 22.9895C27.5173 18.1619 24.0801 16.3816 21.4516 16.3816H15.2393V29.629H21.4516C24.0801 29.629 27.5173 27.8132 27.5173 22.9855M24.0801 22.9855C24.0801 25.3145 22.3476 26.3408 21.4794 26.3408H18.8232V19.5947H21.4794C22.4349 19.5947 24.0801 20.6211 24.0801 22.9855Z" fill="white"/>
<path d="M48.8268 21.1421L49.9805 17.7513C48.4779 16.8947 46.3411 16.3816 44.0298 16.4842C40.0732 16.8947 37.7818 19.1329 37.6748 23.1276C37.7501 27.229 40.0732 29.3566 44.0298 29.7671C46.7177 29.9408 48.8268 29.254 50.3571 28.125L48.6524 24.9079C47.6692 25.7961 46.456 26.2776 45.013 26.3092C42.5589 26.2421 41.3458 25.1803 41.3458 23.1276C41.3458 21.075 42.6739 19.8395 45.1279 19.7724C46.571 19.8395 47.8436 20.25 48.8268 21.1421Z" fill="white"/>
<path d="M31.5964 19.8079H37.4043V16.3816H28.1592V29.6329H31.5964V24.8053H36.9683V21.5526H31.5964V19.8079Z" fill="white"/>
<path d="M11.0017 29.6329H14.3835V16.3816H11.0017V21.1421H5.85981V16.3816H2.50977V29.6329H5.85981V24.4263H11.0017V29.6329Z" fill="white"/>
<path d="M50.3335 36.9395C50.3335 32.4158 47.3839 30.5172 43.7405 30.5172C40.0971 30.5172 37.1476 32.4119 37.1476 36.9395C37.1476 41.4671 40.1011 43.3618 43.7405 43.3618C47.3799 43.3618 50.3335 41.4553 50.3335 36.9395ZM46.7059 36.9395C46.7059 39.0711 45.9963 40.7961 43.7405 40.7961C41.4847 40.7961 40.7751 39.0711 40.7751 36.9395C40.7751 34.8079 41.4728 33.0829 43.7405 33.0829C46.0082 33.0829 46.7059 34.8079 46.7059 36.9395ZM36.4578 42.9947V36.3277H30.959V38.7079H33.1117V40.8513C28.8499 41.8697 27.8389 39.6474 27.8389 37.1093C27.8389 33.2922 30.0075 33.2369 30.9511 33.2369C32.8858 33.2369 33.1117 34.6658 33.1117 34.6658H36.4617C36.0137 30.1974 30.4833 30.6198 30.4833 30.6198C23.9498 30.6198 24.2669 37.0461 24.2669 37.0461C24.2669 43.0145 29.3534 43.4526 30.8718 43.4526C32.5805 43.4526 33.7619 43.2868 36.4617 42.9947M23.7872 34.9027C23.7872 30.6869 19.3272 30.8566 19.3272 30.8566H13.0276V43.2316H16.3737V38.7119H17.5709L20.6632 43.2316H24.4889L21.135 38.4593C23.7992 37.8987 23.7872 34.9027 23.7872 34.9027ZM20.6791 34.9027C20.691 36.6237 19.0021 36.5724 19.0021 36.5724H16.3737V33.4737H19.0021C19.0021 33.4737 20.6672 33.4856 20.6791 34.9027ZM2.50977 43.2316H12.0721V40.6145H5.85981V38.2343H11.5964V35.85H5.85981V33.4698H12.0721V30.8527H2.50977V43.2316Z" fill="white"/>
</g>
<defs>
<clipPath id="clip0_20_254">
<rect width="67" height="60" fill="white"/>
</clipPath>
</defs>
</svg>
