<svg width="141" height="37" viewBox="0 0 141 37" fill="none" xmlns="http://www.w3.org/2000/svg">
<mask id="mask0_20_206" style="mask-type:luminance" maskUnits="userSpaceOnUse" x="0" y="0" width="141" height="37">
<path d="M140.836 0.0892029H0.147461V36.7853H140.836V0.0892029Z" fill="white"/>
</mask>
<g mask="url(#mask0_20_206)">
<path fill-rule="evenodd" clip-rule="evenodd" d="M79.9597 21.384L76.0478 23.5214L73.4475 21.939C73.4475 21.939 73.9852 21.6021 74.5951 21.1957C75.205 20.763 74.946 20.6903 74.6181 20.3071C73.9852 19.8512 71.221 18.0276 71.221 18.0276L72.1129 17.5717L71.2931 15.6028L73.2376 15.5565L73.2835 14.4036C73.2835 14.4036 76.3068 16.3956 76.7724 16.5641C77.2643 16.7326 77.6381 16.4683 77.7103 15.7713V11.4039L78.9268 11.9788L79.8417 10.3237L79.8876 10.251C78.5989 9.2434 76.9823 8.66858 75.2477 8.66858C70.9849 8.66858 67.5156 12.1968 67.5156 16.5641C67.5156 20.9314 70.9849 24.4828 75.2477 24.4828C77.0053 24.4828 78.6448 23.8815 79.9335 22.8508L79.9564 21.3873L79.9597 21.384Z" fill="#1A4680"/>
<path fill-rule="evenodd" clip-rule="evenodd" d="M79.8881 12.7419H79.4192V20.35L73.6316 16.8449L73.3955 17.2545L79.488 20.9512L79.8881 20.5911V12.7419Z" fill="#1A4680"/>
<path fill-rule="evenodd" clip-rule="evenodd" d="M21.4023 24.4068H25.0585L27.9408 13.4158H24.2847L21.4023 24.4068Z" fill="#1A4680"/>
<path fill-rule="evenodd" clip-rule="evenodd" d="M40.2666 24.4068H43.9228L46.8051 13.4158H43.1489L40.2666 24.4068Z" fill="#1A4680"/>
<path fill-rule="evenodd" clip-rule="evenodd" d="M59.1055 24.4068H62.7846L65.6439 13.4158H61.9878L59.1055 24.4068Z" fill="#1A4680"/>
<path fill-rule="evenodd" clip-rule="evenodd" d="M36.8206 17.1818H40.5226C40.9916 14.7108 39.4209 13.4389 35.8139 13.4389C31.6659 13.4389 28.8558 15.5268 27.8918 19.1277C27.0261 22.4378 28.7377 24.4299 32.6497 24.4299C36.5615 24.4299 38.9749 23.158 39.9357 20.35H36.2566C35.7418 21.5987 34.781 22.2462 33.4694 22.2462C31.7119 22.2462 31.0101 21.0933 31.5479 19.0054C32.1119 16.8218 33.4694 15.6226 35.2499 15.6226C36.3976 15.6226 36.9386 16.1247 36.8206 17.1818Z" fill="#1A4680"/>
<path fill-rule="evenodd" clip-rule="evenodd" d="M55.7078 17.1818H59.3639C59.8558 14.7108 58.2851 13.4389 54.7011 13.4389C50.5301 13.4389 47.697 15.5268 46.7592 19.1277C45.8935 22.4378 47.6019 24.4299 51.5171 24.4299C55.4323 24.4299 57.8195 23.158 58.8294 20.35H55.1274C54.6126 21.5987 53.6518 22.2462 52.3402 22.2462C50.5596 22.2462 49.8809 21.0933 50.4416 19.0054C51.0023 16.8218 52.3402 15.6226 54.1207 15.6226C55.2454 15.6226 55.7832 16.1247 55.7143 17.1818" fill="#1A4680"/>
<path fill-rule="evenodd" clip-rule="evenodd" d="M82.2783 13.7528H83.167L83.403 13.8717L83.6621 13.7528H84.6688V23.3761C84.6688 23.3761 87.9019 23.3761 88.3479 23.2572C88.161 23.7362 88.2069 24.2152 88.3938 24.4563H82.3013L82.2783 13.7528Z" fill="#1A4680"/>
<path fill-rule="evenodd" clip-rule="evenodd" d="M92.847 24.0467C92.424 24.0236 90.8795 23.637 90.8074 20.9017C90.8992 18.4306 92.1682 17.423 92.847 17.3966C93.2929 17.3735 94.7915 17.7798 94.7915 20.7828C94.7915 23.2043 93.5028 24.1194 92.847 24.0467ZM92.988 16.7524C91.8633 16.7524 89.0039 17.1356 89.0039 20.7596C89.0039 25.008 92.847 24.5521 92.847 24.5521C94.1586 24.5521 96.595 24.192 96.736 20.8323C96.736 16.5839 92.988 16.7524 92.988 16.7524Z" fill="#1A4680"/>
<path fill-rule="evenodd" clip-rule="evenodd" d="M114.098 23.8782C113.698 23.832 112.295 23.495 112.249 20.9513C112.318 18.6718 113.488 17.76 114.098 17.7369C114.521 17.7138 115.902 18.097 115.902 20.8555C115.902 23.0622 114.708 23.9278 114.098 23.8782ZM114.987 17.0134C113.466 16.8714 112.574 17.6378 112.574 17.6378V12.6692H111.8L111.564 12.765L111.305 12.6461L110.416 12.6692L110.439 24.3572H111.354C111.354 24.3572 111.754 24.0203 112.056 23.6866C112.829 24.5522 113.977 24.4795 114.751 24.4795C115.525 24.4795 117.938 23.7131 117.938 20.687C117.938 17.6609 115.948 17.1819 114.987 17.0167" fill="#1A4680"/>
<path fill-rule="evenodd" clip-rule="evenodd" d="M135.937 23.7593C135.399 23.8055 134.32 22.9664 134.32 20.7365C134.32 17.9747 135.586 17.618 135.937 17.618C136.501 17.6411 137.553 18.576 137.622 20.8588C137.576 23.3794 136.288 23.7395 135.937 23.7626M138.537 12.6527L138.301 12.7716L138.065 12.6758H137.386V17.6444C137.386 17.6444 136.379 16.8053 134.878 16.9473C133.894 17.0927 131.785 17.9087 131.785 20.7134C131.785 23.7395 133.402 24.7239 135.064 24.7933C135.838 24.8164 136.612 24.866 137.386 24.0005C137.386 24.0005 137.409 24.4795 137.409 24.648H139.33V12.6494H138.534L138.537 12.6527Z" fill="#1A4680"/>
<path fill-rule="evenodd" clip-rule="evenodd" d="M97.9785 16.8945H98.6573L98.8671 17.063L99.0541 16.8945H99.664V17.3999C100.179 16.944 102.592 15.9596 103.976 17.8096C103.976 17.8096 104.54 16.7756 106.625 16.7756C107.937 16.8714 109.039 17.8327 109.039 19.1508V24.5257C109.039 24.5257 107.842 24.2614 107.186 24.5257V19.7983C107.186 18.3117 106.507 17.7336 105.852 17.7336C105.219 17.7798 104.376 18.4538 104.376 19.8941V24.5257C104.376 24.5257 103.179 24.2846 102.641 24.5257V19.871C102.641 19.871 102.805 17.7831 101.33 17.7831C99.9919 17.7831 99.8541 19.2697 99.8541 19.9206V24.529C99.8541 24.529 98.5655 24.3606 98.0047 24.5522C98.0047 24.311 97.9818 16.8945 97.9818 16.8945" fill="#1A4680"/>
<path fill-rule="evenodd" clip-rule="evenodd" d="M128.628 20.8555V24.5257C128.628 24.5257 127.221 24.3572 126.66 24.5488V16.8912H127.526L127.736 17.0597L127.945 16.8912H128.624V17.5387C128.952 17.6345 129.07 16.6038 131.438 16.8912C131.438 17.1786 131.319 18.8832 131.319 18.8832C131.319 18.8832 130.782 19.0517 130.313 18.7874C129.939 18.5727 128.651 18.9559 128.624 20.8522" fill="#1A4680"/>
</g>
<mask id="mask1_20_206" style="mask-type:luminance" maskUnits="userSpaceOnUse" x="1" y="2" width="139" height="33">
<path d="M139.337 2.47769H1.60645V34.7239H139.337V2.47769Z" fill="white"/>
</mask>
<g mask="url(#mask1_20_206)">
<path fill-rule="evenodd" clip-rule="evenodd" d="M122.79 22.9896C122.603 23.4686 121.761 24.1425 121.174 23.9245C120.823 23.8055 120.213 23.4917 120.308 22.2694C120.331 21.7904 120.777 21.3113 122.793 20.8521V22.9896H122.79ZM124.712 23.5677V19.3424C124.712 17.0398 123.4 17.0134 121.924 16.8449C119.911 16.8449 119.229 17.6113 118.996 17.8525V18.6685H119.839C120.075 18.2853 120.308 17.9714 120.823 17.7104C121.597 17.3735 122.393 17.9483 122.698 18.5264C122.957 18.9823 123.026 20.1584 122.206 20.3004C119.793 20.5879 118.878 21.2122 118.596 21.8366C117.658 24.5026 120.144 24.7404 120.144 24.7404C120.872 24.9321 122.603 24.6942 122.98 24.1161C123.331 24.9321 125.489 24.6678 125.558 24.3308V23.9476C124.856 23.9938 124.807 23.9245 124.715 23.5644" fill="#1A4680"/>
<path fill-rule="evenodd" clip-rule="evenodd" d="M7.20644 7.24473C12.1185 2.27285 18.0798 0.964639 20.4375 4.39705C22.7951 7.79643 20.7228 14.6612 15.8107 19.6331C14.8729 20.5912 13.8794 21.4336 12.9153 22.1042C10.5216 23.7626 7.70817 24.5323 5.98666 24.3704C4.59634 24.2548 3.40272 23.6139 2.6092 22.5072C0.1958 19.0748 2.2977 12.2728 7.20975 7.24143" fill="white"/>
<path fill-rule="evenodd" clip-rule="evenodd" d="M7.20681 7.24473C12.1189 2.27285 18.0802 0.964639 20.4379 4.39705C22.7955 7.79643 20.7231 14.6612 15.8111 19.6331C14.8733 20.5912 13.8797 21.4336 12.9157 22.1042C9.76449 23.2671 13.965 11.8697 14.3355 10.9084C14.7618 9.54071 13.4272 9.04848 12.2337 9.39536C11.0991 9.77196 8.03314 12.0712 7.23633 12.9996C6.46902 13.9576 7.12156 14.1624 7.63309 13.8717C8.62665 13.2605 9.53495 13.1449 9.96123 13.6669C10.1875 13.9873 10.1022 15.5004 9.67595 17.5915C9.33493 18.8997 8.96764 20.3236 8.34137 21.8366C7.68884 23.2604 6.92154 24.3374 5.98372 24.3671C4.5934 24.2515 3.39981 23.6106 2.60627 22.5039C0.192871 19.0715 2.29477 12.2695 7.20681 7.23812M16.3784 4.41687C15.8111 3.86518 14.5323 4.15589 13.5387 5.17339C12.5452 6.22062 12.2337 7.49911 12.8009 8.08053C13.342 8.66196 14.647 8.31178 15.6111 7.29428C16.5751 6.27678 16.9457 4.995 16.3784 4.41357" fill="#F47216"/>
<path fill-rule="evenodd" clip-rule="evenodd" d="M10.4723 4.59853C14.4761 1.95238 18.5651 1.72114 20.4374 4.39701C21.2605 5.64576 21.5163 7.27442 21.3458 9.16737C20.6637 11.7541 19.0733 14.4597 16.7452 16.8449C15.1549 18.4438 13.4235 19.5769 11.7775 20.2773C11.9775 17.2545 14.076 11.612 14.3318 10.915C14.7581 9.54728 13.4235 9.05175 12.2332 9.40192C11.0987 9.77853 8.02944 12.0778 7.23591 13.0061C6.4686 13.9675 7.12117 14.169 7.63271 13.8783C8.62626 13.2671 9.53457 13.1515 9.96085 13.6767C10.1871 13.9972 10.1018 15.5069 9.67557 17.6014C9.4198 18.6486 9.10829 19.7817 8.6525 21.0041C7.06215 21.0635 5.72757 20.4788 4.84878 19.3159C2.7469 16.3493 4.53726 10.3302 8.82301 6.02567C9.39029 5.47398 9.95757 4.97844 10.4691 4.60183M16.3747 4.42675C15.8074 3.87505 14.5286 4.16576 13.535 5.18326C12.5415 6.2305 12.23 7.50898 12.7972 8.09041C13.335 8.67183 14.6434 8.32166 15.6074 7.30416C16.5714 6.28666 16.942 5.00817 16.3747 4.42675Z" fill="#AD252B"/>
</g>
<mask id="mask2_20_206" style="mask-type:luminance" maskUnits="userSpaceOnUse" x="0" y="0" width="141" height="37">
<path d="M140.836 0.0892029H0.147461V36.7853H140.836V0.0892029Z" fill="white"/>
</mask>
<g mask="url(#mask2_20_206)">
<path fill-rule="evenodd" clip-rule="evenodd" d="M37.654 34.41V32.5567H36.1817V33.191H36.8965V34.0731C36.6736 34.1325 36.4637 34.1325 36.2834 34.1325C35.5193 34.1325 35.0931 33.6535 35.0931 32.7252C35.0931 31.7969 35.5193 31.1923 36.1489 31.1923C36.6342 31.1923 36.9261 31.4764 36.9261 31.9489H37.654V31.8828C37.654 31.1692 37.1294 30.6572 36.2178 30.6572C35.0045 30.6572 34.293 31.45 34.293 32.7582C34.293 34.0665 35.0012 34.7272 36.2473 34.7272C36.8047 34.7272 37.2572 34.6347 37.654 34.4133" fill="#1A4680"/>
<path fill-rule="evenodd" clip-rule="evenodd" d="M40.7197 30.7166V34.6611H43.1856V34.0169H41.5067V32.9399H43.0282V32.3221H41.5067V31.3872H43.1594V30.7166H40.7197Z" fill="#1A4680"/>
<path fill-rule="evenodd" clip-rule="evenodd" d="M46.1162 30.7166V34.6611H46.8179V31.4104L48.2542 34.6611H49.3231V30.7166H48.6214V33.9178L47.2508 30.7166H46.1162Z" fill="#1A4680"/>
<path fill-rule="evenodd" clip-rule="evenodd" d="M52.4258 30.7166V34.6611H54.9244V34.0169H53.2128V32.9399H54.7342V32.3221H53.2128V31.3872H54.8589V30.7166H52.4258Z" fill="#1A4680"/>
<path fill-rule="evenodd" clip-rule="evenodd" d="M57.8232 34.6644V30.7199H59.3611C60.2104 30.7199 60.5973 31.0371 60.5973 31.7209C60.5973 32.2924 60.3875 32.56 59.8661 32.6888C60.2989 32.7549 60.4498 32.9399 60.5088 33.452L60.5645 34.0202C60.6006 34.3274 60.6596 34.5289 60.758 34.6677H59.9087C59.8431 34.5322 59.8202 34.3836 59.8202 34.2052L59.7612 33.6006C59.7185 33.1381 59.6956 33.1084 59.2923 33.1084H58.5905V34.6677H57.8265L57.8232 34.6644ZM58.5873 32.4411H59.0726C59.5972 32.4411 59.8202 32.3585 59.8202 31.9191C59.8202 31.4137 59.5972 31.3575 59.0726 31.3575H58.5873V32.4411Z" fill="#1A4680"/>
<path fill-rule="evenodd" clip-rule="evenodd" d="M63.2337 34.6644L64.5487 30.7199H65.493L66.7358 34.6644H65.9423L65.7029 33.822H64.2404L63.9519 34.6644H63.2305H63.2337ZM64.4536 33.191H65.493L65.0044 31.4962L64.4503 33.191H64.4536Z" fill="#1A4680"/>
<path fill-rule="evenodd" clip-rule="evenodd" d="M69.4961 30.7166V34.6611H71.9426V34.0169H70.2896V30.7166H69.4961Z" fill="#1A4680"/>
<path fill-rule="evenodd" clip-rule="evenodd" d="M78.0488 34.6644H78.806V30.7199H78.0488V34.6644Z" fill="#1A4680"/>
<path fill-rule="evenodd" clip-rule="evenodd" d="M81.9072 30.7166V34.6611H82.5991V31.4104L83.9993 34.6611H85.101V30.7166H84.4026V33.9178L83.0352 30.7166H81.9105H81.9072Z" fill="#1A4680"/>
<path fill-rule="evenodd" clip-rule="evenodd" d="M88.8106 33.3793H88.04V33.4454C88.04 34.3208 88.5319 34.7205 89.4763 34.7205C90.4206 34.7205 90.9748 34.2911 90.9748 33.5577C90.9748 32.8738 90.5944 32.6525 89.8435 32.4113C89.2303 32.1966 88.8893 32.0645 88.8893 31.7143C88.8893 31.4038 89.1057 31.1857 89.5156 31.1857C89.8698 31.1857 90.0862 31.4071 90.1091 31.8431H90.8174V31.82C90.8174 31.0998 90.3616 30.6505 89.5419 30.6505C88.6532 30.6505 88.1286 31.1296 88.1286 31.82C88.1286 32.1272 88.2532 32.3816 88.4729 32.5534C88.7123 32.7516 88.9483 32.8111 89.2303 32.9036C89.8435 33.1613 90.1714 33.2538 90.1714 33.6172C90.1714 33.9376 89.9321 34.1986 89.5419 34.1986C89.0434 34.1986 88.8073 33.9145 88.8073 33.3793" fill="#1A4680"/>
<path fill-rule="evenodd" clip-rule="evenodd" d="M94.6764 30.7166H93.8701V33.1679C93.8701 34.2382 94.3944 34.7271 95.4503 34.7271C96.5062 34.7271 97.0213 34.2382 97.0213 33.1679V30.7166H96.2868V33.191C96.2868 33.7889 96.034 34.1028 95.4929 34.1028C94.9519 34.1028 94.6732 33.8187 94.6732 33.224V30.7166H94.6764Z" fill="#1A4680"/>
<path fill-rule="evenodd" clip-rule="evenodd" d="M100.104 34.6644V30.7199H101.606C102.455 30.7199 102.858 31.0371 102.858 31.7209C102.858 32.2924 102.642 32.56 102.15 32.6888C102.576 32.7549 102.704 32.9399 102.763 33.452L102.822 34.0202C102.858 34.3274 102.921 34.5289 103.045 34.6677H102.189C102.094 34.5322 102.094 34.3836 102.058 34.2052L102.025 33.6006C101.966 33.1381 101.94 33.1084 101.543 33.1084H100.858V34.6677H100.101L100.104 34.6644ZM100.861 32.4411H101.33C101.845 32.4411 102.094 32.3585 102.094 31.9191C102.094 31.4137 101.848 31.3575 101.33 31.3575H100.861V32.4411Z" fill="#1A4680"/>
<path fill-rule="evenodd" clip-rule="evenodd" d="M105.478 34.6644L106.789 30.7199H107.75L109.035 34.6644H108.206L107.96 33.822H106.517L106.212 34.6644H105.478ZM106.71 33.191H107.773L107.248 31.4962L106.707 33.191H106.71Z" fill="#1A4680"/>
<path fill-rule="evenodd" clip-rule="evenodd" d="M111.75 30.7166V34.6611H112.442V31.4104L113.885 34.6611H114.96V30.7166H114.255V33.9178L112.878 30.7166H111.75Z" fill="#1A4680"/>
<path fill-rule="evenodd" clip-rule="evenodd" d="M119.565 34.7238C120.477 34.7238 121.014 34.2944 121.073 33.4982H120.332C120.303 33.9145 120.027 34.1688 119.631 34.1688C118.994 34.1688 118.686 33.6865 118.686 32.6855C118.686 31.6846 119.017 31.2584 119.594 31.2584C120.027 31.2584 120.303 31.4996 120.332 31.8795H121.041C121.011 31.1362 120.477 30.6538 119.562 30.6538C118.496 30.6538 117.883 31.4104 117.883 32.7219C117.883 34.0334 118.453 34.7238 119.562 34.7238" fill="#1A4680"/>
<path fill-rule="evenodd" clip-rule="evenodd" d="M123.975 30.7166V34.6611H126.444V34.0169H124.748V32.9399H126.28V32.3221H124.748V31.3872H126.378V30.7166H123.975Z" fill="#1A4680"/>
<path fill-rule="evenodd" clip-rule="evenodd" d="M21.4023 32.8574H32.6004V32.5237H21.4023V32.8574Z" fill="#1A4680"/>
<path fill-rule="evenodd" clip-rule="evenodd" d="M128.14 32.8574H139.338V32.5237H128.14V32.8574Z" fill="#1A4680"/>
</g>
</svg>
