<svg width="125" height="60" viewBox="0 0 125 60" fill="none" xmlns="http://www.w3.org/2000/svg">
<g clip-path="url(#clip0_20_465)">
<path fill-rule="evenodd" clip-rule="evenodd" d="M124.877 43.3883H53.6562L74.9768 0.476501H124.877V43.3883Z" fill="#00A0E4"/>
<path fill-rule="evenodd" clip-rule="evenodd" d="M0.522461 0.470612H71.7668L50.4462 43.3823H0.522461V0.470612Z" fill="#00A651"/>
<path fill-rule="evenodd" clip-rule="evenodd" d="M24.9538 35.7588H100.353C121.896 34.0412 120.599 9.85296 100.353 8.22943H24.9538C4.80118 9.85296 3.53357 34.0353 24.9538 35.7588Z" fill="white"/>
<path fill-rule="evenodd" clip-rule="evenodd" d="M26.5444 14.2648H29.778V29.6236H26.5444V14.2648ZM99.4083 23.2883C99.4083 24.7824 99.285 25.8824 99.285 26.506C99.285 27.1295 99.0855 27.8001 98.7627 28.353C98.5397 28.8765 98.1172 29.2001 97.5714 29.5236C97.0491 29.8471 96.5033 29.9471 95.758 29.9471C95.1125 29.9471 94.5902 29.8471 94.0444 29.5236C93.5221 29.3236 93.0996 28.8765 92.7768 28.353C92.4541 27.806 92.3308 27.1589 92.231 26.506V17.3824C92.3308 16.6118 92.4541 16.0883 92.7768 15.5354C93.0996 15.0118 93.5221 14.5883 94.0444 14.3648C94.5902 14.0412 95.1125 13.9412 95.758 13.9412C96.5033 13.9412 97.0491 14.0412 97.4717 14.3648C98.0174 14.5883 98.44 15.0118 98.7627 15.5354C99.0855 16.0824 99.285 16.606 99.285 17.3824C99.285 17.906 99.4083 19.1001 99.4083 20.6001V23.2942V23.2883ZM96.2979 18.2295C96.2979 17.4824 96.2979 17.0589 96.1747 16.8354C96.0749 16.6118 95.9752 16.5118 95.7522 16.5118C95.6524 16.5118 95.5526 16.6118 95.4294 16.8354C95.3296 16.9354 95.2299 17.3824 95.2299 18.2295V25.4354C95.2299 26.2824 95.3296 26.8295 95.4294 27.0589C95.4294 27.2589 95.6524 27.3824 95.7522 27.3824C95.9752 27.3824 96.0749 27.2589 96.1747 26.9354C96.2979 26.7354 96.2979 26.1883 96.2979 25.2412V18.2354V18.2295ZM87.9411 14.2648H90.9282V29.6236H87.9411V14.2648ZM87.1958 14.2648L85.3531 21.1471L87.2956 29.6236H84.0855L82.7944 23.0648V29.6236H79.6841V14.2648H82.7944V20.1765L84.1853 14.2648H87.1958ZM78.5163 23.2883C78.5163 24.7824 78.5163 25.8824 78.4165 26.506C78.4165 27.153 78.1935 27.8001 77.8707 28.353C77.6477 28.8765 77.2252 29.2001 76.7029 29.5236C76.1571 29.8471 75.6348 29.9471 74.8602 29.9471C74.2381 29.9471 73.6923 29.8471 73.17 29.5236C72.6242 29.3236 72.2017 28.8765 71.9787 28.353C71.6559 27.806 71.4564 27.1589 71.4564 26.506C71.3332 25.9589 71.3332 24.7883 71.3332 23.2883V20.5942C71.3332 19.1001 71.3332 18.0236 71.4564 17.3765C71.4564 16.606 71.6559 16.0824 71.8789 15.5295C72.2017 15.006 72.6242 14.5824 73.17 14.3589C73.5925 14.0354 74.2381 13.9354 74.8602 13.9354C75.6289 13.9354 76.1512 14.0354 76.7029 14.3589C77.1254 14.5824 77.5479 15.006 77.8707 15.5295C78.1935 16.0765 78.2933 16.6001 78.4165 17.3765C78.5163 17.9001 78.5163 19.0942 78.5163 20.5942V23.2883ZM75.4059 18.2295C75.4059 17.4824 75.4059 17.0589 75.3062 16.8354C75.3062 16.6118 75.0832 16.5118 74.8602 16.5118C74.6606 16.5118 74.6606 16.6118 74.5609 16.8354C74.4376 16.9354 74.4376 17.3824 74.4376 18.2295V25.4354C74.4376 26.2824 74.4376 26.8295 74.5609 27.0589C74.5609 27.2589 74.6606 27.3824 74.8602 27.3824C75.0832 27.3824 75.3062 27.2589 75.3062 26.9354C75.4059 26.7354 75.4059 26.1883 75.4059 25.2412V18.2354V18.2295ZM70.582 14.2648V17.3824H68.7686V29.6236H65.6583V17.3824H63.8449V14.2648H70.5879H70.582ZM59.5609 21.9942H63.5163V24.5883H59.5609V21.9942ZM58.8156 23.2883C58.8156 24.7824 58.6923 25.8824 58.5926 26.506C58.5926 27.153 58.3695 27.8001 58.0467 28.353C57.7474 28.8765 57.4246 29.2001 56.8789 29.5236C56.3566 29.8471 55.7111 29.9471 55.1653 29.9471C54.5198 29.9471 53.8977 29.8471 53.3519 29.5236C52.8061 29.3236 52.5068 28.8765 52.0608 28.353C51.8613 27.806 51.6383 27.1589 51.5386 26.506C51.4153 25.9589 51.4154 24.7883 51.4154 23.2883V20.5942C51.4154 19.1001 51.4153 18.0236 51.5386 17.3765C51.6383 16.606 51.738 16.0824 52.0608 15.5295C52.5068 15.006 52.8061 14.5824 53.3519 14.3589C53.7744 14.0354 54.42 13.9354 55.1653 13.9354C55.7111 13.9354 56.3566 14.0354 56.785 14.3589C57.4306 14.5824 57.7533 15.006 58.0526 15.5295C58.3754 16.0765 58.5985 16.6001 58.5985 17.3765C58.6982 17.9001 58.8214 19.0942 58.8214 20.5942V23.2883H58.8156ZM55.5819 18.2295C55.5819 17.4824 55.582 17.0589 55.4822 16.8354C55.4822 16.6118 55.3825 16.5118 55.1594 16.5118C54.9599 16.5118 54.7369 16.6118 54.7369 16.8354C54.6372 16.9354 54.6372 17.3824 54.6372 18.2295V27.0589C54.737 27.2589 54.8367 27.3824 55.0597 27.3824C55.3825 27.3824 55.4822 27.2589 55.4822 26.9354C55.582 26.7354 55.5819 26.1883 55.5819 25.2412V18.2354V18.2295ZM50.4587 20.9236H47.2487V16.8354C47.1254 16.6118 47.0256 16.5118 46.8026 16.5118C46.4799 16.5118 46.3802 16.6118 46.2804 16.9354C46.1806 17.1589 46.1805 17.5824 46.1805 18.3589V25.5648C46.1805 26.2883 46.1806 26.8354 46.2804 27.0589C46.3802 27.2589 46.4799 27.3824 46.8026 27.3824C47.0256 27.3824 47.1254 27.2589 47.2487 27.0589V23.4942H50.4587V24.0412C50.4587 25.6648 50.3356 26.8354 50.2358 27.4824C50.0128 28.1295 49.5903 28.7765 49.068 29.2001C48.4224 29.7236 47.6771 29.9471 46.8026 29.9471C45.8578 29.9471 45.089 29.7236 44.5667 29.3236C43.9211 28.8765 43.4987 28.353 43.2756 27.4765C43.0761 26.8295 42.9528 25.6589 42.9528 24.1354V19.7236C42.9528 18.553 43.0761 17.806 43.0761 17.153C43.1758 16.606 43.2756 16.0824 43.6981 15.5295C43.9211 15.106 44.3437 14.6824 44.8895 14.3589C45.312 14.0354 46.0574 13.9354 46.7029 13.9354C47.548 13.9354 48.3227 14.1354 49.068 14.5824C49.5903 15.106 50.0128 15.653 50.2358 16.4001C50.3356 17.0471 50.4587 18.0236 50.4587 19.5177V20.9118V20.9236ZM37.0491 14.2648H42.2956V17.3824H40.1535V20.2765H42.0961V23.1707H40.1535V29.6295H37.0433V14.2707L37.0491 14.2648ZM31.0514 14.2648H36.298V17.3824H34.1559V20.2765H36.0984V23.1707H34.1559V29.6295H31.0455V14.2707L31.0514 14.2648ZM6.42113 48.1236H3.65708V48.3471H5.89302C5.89302 49.0707 5.02445 49.7177 3.65708 49.7177C1.94346 49.7177 1.32141 48.9707 1.32141 48.1236C1.32141 47.3765 1.94346 46.5001 3.65708 46.5001C4.82492 46.5001 5.57018 47.0471 5.66995 47.3707H6.31555C5.99278 46.6001 5.02444 46.1765 3.6512 46.1765C1.60895 46.1765 0.664062 47.1471 0.664062 48.1236C0.664062 49.1001 1.60895 50.0412 3.6512 50.0412C4.49628 50.0412 5.44115 49.8412 5.88715 49.2942V49.9412H6.40939V48.1236H6.42113ZM120.377 49.9412H124.755V49.7177H121.022V48.2236H124.532V47.9001H121.022V46.606H124.755V46.2824H120.377V49.9471V49.9412ZM117.29 47.3707C117.19 46.6001 115.899 46.1765 114.725 46.1765C112.712 46.1765 111.767 47.1471 111.767 48.1236C111.767 49.1001 112.712 50.0412 114.725 50.0412C116.345 50.0412 117.29 49.3942 117.39 48.5471H116.767C116.644 49.1942 115.899 49.7177 114.725 49.7177C113.135 49.7177 112.29 48.9707 112.29 48.1236C112.29 47.3765 113.135 46.5001 114.725 46.5001C115.693 46.5001 116.439 46.8236 116.767 47.3707H117.29ZM103.78 49.9412H104.426V46.8236L108.035 49.9412H108.78V46.2765H108.135V49.3942L104.426 46.2765H103.78V49.9412ZM95.4705 49.9412H96.116L96.8613 48.8707H99.7193L100.588 49.9412H101.11L98.6747 46.2765H98.0292L95.4646 49.9412H95.4705ZM98.3578 46.6001L99.5256 48.5471H97.0609L98.3519 46.6001H98.3578ZM88.2346 49.9412H88.7803V48.3471H91.116C92.2839 48.3471 92.2839 48.8707 92.3836 49.3942C92.3836 49.5177 92.3836 49.8412 92.4834 49.9412H93.2287C92.9294 49.8412 92.9294 49.2942 92.9294 48.9707C92.8062 48.5471 92.6066 48.2236 91.8613 48.2236C92.6066 48.1236 93.0292 47.7001 93.0292 47.253C93.0292 46.606 92.1841 46.2824 91.116 46.2824H88.2287V49.9471L88.2346 49.9412ZM88.7803 46.6001H91.116C91.9611 46.6001 92.3836 46.9236 92.3836 47.2471C92.3836 47.7942 91.8613 48.0177 91.116 48.0177H88.7803V46.5942V46.6001ZM80.0479 48.6707C80.0479 49.3942 80.7932 50.0412 82.4834 50.0412C84.1735 50.0412 84.9482 49.3942 84.9482 48.6707V46.2765H84.3026V48.5471C84.3026 49.3942 83.6571 49.7177 82.4893 49.7177C81.3214 49.7177 80.6994 49.3942 80.6994 48.5471V46.2765H80.0538V48.6707H80.0479ZM72.1606 48.7471C72.0609 49.7177 73.2287 50.0412 74.6254 50.0412C76.8613 50.0412 77.0609 49.1942 77.0609 48.9707C77.0609 48.3471 76.4153 48.1236 75.4705 48.0236L73.8801 47.8001C73.4576 47.8001 73.035 47.5765 73.035 47.253C73.035 46.7295 73.6571 46.506 74.6254 46.506C75.4705 46.506 76.2158 46.7295 76.2158 47.3765H76.8613C76.8613 46.606 75.7933 46.1824 74.6254 46.1824C72.7123 46.1824 72.3895 46.9295 72.3895 47.253C72.3895 47.8001 73.035 48.0236 73.7803 48.1236L75.2475 48.3471C75.7932 48.4471 76.5386 48.5471 76.5386 48.9707C76.5386 49.5177 75.4705 49.7177 74.8249 49.7177C73.6571 49.7177 72.7123 49.5177 72.7123 48.7471H72.1665H72.1606ZM64.0738 49.9412H64.8191V46.8236L68.4517 49.9412H69.197V46.2765H68.5515V49.3942L64.9423 46.2765H64.0738V49.9412ZM60.2416 49.9412H60.8871V46.2765H60.2416V49.9412ZM47.9998 49.9412H52.1548V49.7177H48.5455V46.2765H47.9998V49.9412ZM39.7134 49.9412H40.3355L41.0808 48.8707H43.9681L44.7134 49.9412H45.359L42.8943 46.2765H42.2487L39.7134 49.9412ZM42.5714 46.6001L43.7393 48.5471H41.204L42.5714 46.6001ZM32.4717 49.9412H32.9939V48.3471H35.3296C36.4974 48.3471 36.6207 48.8707 36.6207 49.3942C36.6207 49.5177 36.6207 49.8412 36.8202 49.9412H37.366C37.143 49.8412 37.143 49.2942 37.143 48.9707C37.0433 48.5471 36.8202 48.2236 35.9752 48.2236C36.8202 48.1236 37.2427 47.7001 37.2427 47.253C37.2427 46.606 36.3977 46.2824 35.3296 46.2824H32.4717V49.9471V49.9412ZM32.9939 46.6001H35.3296C36.1981 46.6001 36.6207 46.9236 36.6207 47.2471C36.6207 47.7942 35.9751 48.0177 35.3296 48.0177H32.9939V46.5942V46.6001ZM25.1301 49.9412H29.4846V49.7177H25.7521V48.2236H29.285V47.9001H25.7521V46.606H29.4846V46.2824H25.1301V49.9471V49.9412ZM16.8202 49.9412H17.4658V46.8236L21.1982 49.9412H21.8202V46.2765H21.1982V49.3942L17.5655 46.2765H16.8202V49.9412ZM9.57846 49.9412H13.9564V49.7177H10.1242V48.2236H13.7333V47.9001H10.1242V46.606H13.9564V46.2824H9.57846V49.9471V49.9412ZM87.7416 57.7707C87.5186 57.9707 87.3191 58.1942 87.0961 58.4177C86.8965 58.7412 86.6735 58.9412 86.5738 59.3647V59.6882H86.6735C86.9963 59.5882 87.3191 59.3647 87.7416 59.0412C88.0644 58.7412 88.3872 58.4177 88.4869 58.0942V57.8707H88.3871C88.2639 57.7707 88.1641 57.7707 88.1641 57.7707H87.7416Z" fill="black"/>
<path fill-rule="evenodd" clip-rule="evenodd" d="M0.522461 52.8118V55.4059H45.3759L46.6434 52.9118L0.522461 52.8118Z" fill="#00A651"/>
<path fill-rule="evenodd" clip-rule="evenodd" d="M124.607 55.4059V52.8118H49.8535L48.5859 55.3059L124.607 55.4059Z" fill="#00A0E4"/>
</g>
<defs>
<clipPath id="clip0_20_465">
<rect width="125" height="60" fill="white"/>
</clipPath>
</defs>
</svg>
