<svg width="60" height="60" viewBox="0 0 60 60" fill="none" xmlns="http://www.w3.org/2000/svg">
<g clip-path="url(#clip0_20_261)">
<path fill-rule="evenodd" clip-rule="evenodd" d="M29.9918 0.0583382L31.5064 0.0916715L33.0001 0.212505L34.4981 0.400005L35.9629 0.654169L37.407 1L38.8015 1.40834L40.1795 1.87084L41.5408 2.42084L42.8484 3.02084L44.1394 3.67084L45.3642 4.40833L46.5725 5.175L47.7477 6.01667L48.8525 6.8875L49.9243 7.83333L50.9629 8.825L51.9477 9.85L52.8663 10.9292L53.7518 12.0625L54.5836 13.225L55.3491 14.4417L56.0649 15.6917L56.727 16.975L57.3229 18.3125L57.8484 19.6667L58.3243 21.05L58.7174 22.475L59.0567 23.9292L59.3132 25.4L59.4994 26.8917L59.6194 28.4L59.6691 29.9208L59.6194 31.4458L59.4994 32.9542L59.3132 34.4625L59.0567 35.9333L58.7174 37.3708L58.3243 38.7917L57.8484 40.1792L57.3229 41.5333L56.727 42.8708L56.0649 44.1542L55.3491 45.4042L54.5836 46.6208L53.7518 47.7833L52.8663 48.9125L51.9477 49.9917L50.9629 51.0375L49.9243 52.0125L48.8525 52.9542L47.7477 53.8458L46.5725 54.6667L45.3642 55.4542L44.1394 56.175L42.8484 56.8417L41.5408 57.4417L40.1795 57.975L38.8015 58.4375L37.407 58.8458L35.9629 59.1875L34.4981 59.4458L33.0207 59.6333L31.5064 59.7542L29.9918 59.7875L28.4773 59.7542L26.9629 59.6333L25.4855 59.4458L24.0373 59.1875L22.6098 58.8458L21.1821 58.4375L19.8042 57.975L18.4593 57.4417L17.1519 56.8417L15.8774 56.175L14.636 55.4542L13.4278 54.6667L12.269 53.8458L11.1477 52.9542L10.0594 52.0125L9.03727 51.0375L8.06908 49.9917L7.11744 48.9125L6.24843 47.7833L5.41658 46.6208L4.65123 45.4042L3.93518 44.1542L3.27327 42.8708L2.67743 41.5333L2.15191 40.1792L1.67588 38.7917L1.26633 37.3708L0.94346 35.9333L0.670493 34.4625L0.484207 32.9542L0.36419 31.4458L0.331055 29.9208L0.36419 28.4L0.484207 26.8917L0.670493 25.4L0.94346 23.9292L1.26633 22.475L1.67588 21.05L2.15191 19.6667L2.67743 18.3125L3.27327 16.975L3.93518 15.6917L4.65123 14.4417L5.41658 13.225L6.24843 12.0625L7.11744 10.9292L8.06908 9.85L9.03727 8.825L10.0594 7.83333L11.1477 6.8875L12.269 6.01667L13.4278 5.175L14.636 4.40833L15.8774 3.67084L17.1519 3.02084L18.4593 2.42084L19.8042 1.87084L21.1821 1.40834L22.6098 1L24.0373 0.654169L25.4855 0.400005L26.9629 0.212505L28.4773 0.0916715L29.9918 0.0583382Z" fill="white"/>
<path d="M29.9918 0.0583382L31.5064 0.0916715L33.0001 0.212505L34.4981 0.400005L35.9629 0.654169L37.407 1L38.8015 1.40834L40.1795 1.87084L41.5408 2.42084L42.8484 3.02084L44.1394 3.67084L45.3642 4.40833L46.5725 5.175L47.7477 6.01667L48.8525 6.8875L49.9243 7.83333L50.9629 8.825L51.9477 9.85L52.8663 10.9292L53.7518 12.0625L54.5836 13.225L55.3491 14.4417L56.0649 15.6917L56.727 16.975L57.3229 18.3125L57.8484 19.6667L58.3243 21.05L58.7174 22.475L59.0567 23.9292L59.3132 25.4L59.4994 26.8917L59.6194 28.4L59.6691 29.9208L59.6194 31.4458L59.4994 32.9542L59.3132 34.4625L59.0567 35.9333L58.7174 37.3708L58.3243 38.7917L57.8484 40.1792L57.3229 41.5333L56.727 42.8708L56.0649 44.1542L55.3491 45.4042L54.5836 46.6208L53.7518 47.7833L52.8663 48.9125L51.9477 49.9917L50.9629 51.0375L49.9243 52.0125L48.8525 52.9542L47.7477 53.8458L46.5725 54.6667L45.3642 55.4542L44.1394 56.175L42.8484 56.8417L41.5408 57.4417L40.1795 57.975L38.8015 58.4375L37.407 58.8458L35.9629 59.1875L34.4981 59.4458L33.0207 59.6333L31.5064 59.7542L29.9918 59.7875L28.4773 59.7542L26.9629 59.6333L25.4855 59.4458L24.0373 59.1875L22.6098 58.8458L21.1821 58.4375L19.8042 57.975L18.4593 57.4417L17.1519 56.8417L15.8774 56.175L14.636 55.4542L13.4278 54.6667L12.269 53.8458L11.1477 52.9542L10.0594 52.0125L9.03727 51.0375L8.06908 49.9917L7.11744 48.9125L6.24843 47.7833L5.41658 46.6208L4.65123 45.4042L3.93518 44.1542L3.27327 42.8708L2.67743 41.5333L2.15191 40.1792L1.67588 38.7917L1.26633 37.3708L0.94346 35.9333L0.670493 34.4625L0.484207 32.9542L0.36419 31.4458L0.331055 29.9208L0.36419 28.4L0.484207 26.8917L0.670493 25.4L0.94346 23.9292L1.26633 22.475L1.67588 21.05L2.15191 19.6667L2.67743 18.3125L3.27327 16.975L3.93518 15.6917L4.65123 14.4417L5.41658 13.225L6.24843 12.0625L7.11744 10.9292L8.06908 9.85L9.03727 8.825L10.0594 7.83333L11.1477 6.8875L12.269 6.01667L13.4278 5.175L14.636 4.40833L15.8774 3.67084L17.1519 3.02084L18.4593 2.42084L19.8042 1.87084L21.1821 1.40834L22.6098 1L24.0373 0.654169L25.4855 0.400005L26.9629 0.212505L28.4773 0.0916715L29.9918 0.0583382Z" stroke="#383336" stroke-width="0.22" stroke-miterlimit="2.61"/>
<path fill-rule="evenodd" clip-rule="evenodd" d="M52.3617 28.9542C52.8583 28.9542 53.2762 29.3542 53.2762 29.875C53.2762 30.3958 52.8624 30.7958 52.3617 30.7958C51.8611 30.7958 51.4473 30.3792 51.4473 29.875C51.4473 29.3708 51.8445 28.9542 52.3617 28.9542Z" fill="#0D0F8C"/>
<path d="M52.3617 28.9542C52.8583 28.9542 53.2762 29.3542 53.2762 29.875C53.2762 30.3958 52.8624 30.7958 52.3617 30.7958C51.8611 30.7958 51.4473 30.3792 51.4473 29.875C51.4473 29.3708 51.8445 28.9542 52.3617 28.9542Z" stroke="#383336" stroke-width="0.22" stroke-miterlimit="2.61"/>
<path fill-rule="evenodd" clip-rule="evenodd" d="M7.67229 28.9542C8.1854 28.9542 8.58678 29.3542 8.58678 29.875C8.58678 30.3958 8.18954 30.7958 7.67229 30.7958C7.15505 30.7958 6.75781 30.3792 6.75781 29.875C6.75781 29.3708 7.17161 28.9542 7.67229 28.9542Z" fill="#0D0F8C"/>
<path d="M7.67229 28.9542C8.1854 28.9542 8.58678 29.3542 8.58678 29.875C8.58678 30.3958 8.18954 30.7958 7.67229 30.7958C7.15505 30.7958 6.75781 30.3792 6.75781 29.875C6.75781 29.3708 7.17161 28.9542 7.67229 28.9542Z" stroke="#383336" stroke-width="0.22" stroke-miterlimit="2.61"/>
<path fill-rule="evenodd" clip-rule="evenodd" d="M53.3921 31.7292C53.4914 31.7292 53.5907 31.7625 53.6569 31.8458C53.7231 31.9125 53.7566 31.9958 53.7566 32.0958C53.7401 32.1958 53.7065 32.2792 53.6238 32.3292C53.5576 32.3958 53.4587 32.4292 53.3428 32.4292C53.2435 32.4125 53.1608 32.3792 53.0946 32.3125C53.0118 32.2292 52.9783 32.1458 52.9948 32.0458C52.9948 31.9625 53.0449 31.8792 53.1111 31.8125C53.1939 31.7458 53.2762 31.7125 53.3921 31.7292ZM53.3594 34.5708L50.2679 34.0208L50.3511 33.5375C50.4339 33.1042 50.6159 32.8 50.9139 32.6167C51.1952 32.45 51.6132 32.4167 52.1263 32.5C52.4408 32.55 52.6886 32.65 52.8914 32.7667C53.09 32.8833 53.2555 33.0333 53.3548 33.2333C53.421 33.3333 53.4545 33.4667 53.4711 33.6C53.4877 33.7333 53.4711 33.9167 53.438 34.15L53.3548 34.5667L53.3594 34.5708ZM52.8959 33.9167V33.8667C52.929 33.6667 52.8794 33.5 52.7304 33.3667C52.5814 33.2167 52.3659 33.1333 52.0472 33.0667C51.6997 33.0167 51.4518 33.0167 51.2656 33.1C51.0835 33.1667 50.9838 33.3167 50.9341 33.5333V33.5667L52.8959 33.9167ZM52.9783 36.125L50.5038 35.5042L50.3883 35.9375L49.8256 35.7875L50.1728 34.3667L50.7355 34.5167L50.6366 34.9333L53.1111 35.5708L52.9783 36.1208V36.125ZM52.4155 37.8625L49.4449 36.8417L49.627 36.2917L52.0183 37.1292L52.2334 36.4917L52.8128 36.6917L52.4155 37.8625ZM51.3359 40.4208L50.0242 39.75L48.249 39.5833L48.5139 39.05L49.1097 39.1333C49.209 39.15 49.3079 39.1667 49.4238 39.1833C49.5231 39.2 49.6228 39.2333 49.7387 39.25C49.6394 39.1833 49.5566 39.1 49.4739 39.0333C49.4077 38.9667 49.3414 38.9 49.2752 38.8333L48.8449 38.3833L49.1097 37.8833L50.2886 39.2375L51.6008 39.925L51.3359 40.425V40.4208ZM49.9746 42.8458L47.2514 41.275L47.5497 40.7583L49.2918 41.1083C49.358 41.125 49.4403 41.1417 49.5562 41.175C49.6555 41.1917 49.7883 41.2417 49.9373 41.275C49.7387 41.1917 49.5562 41.1083 49.3907 41.025C49.2086 40.9417 49.0601 40.875 48.9277 40.7917L47.8803 40.175L48.1456 39.725L50.8683 41.2958L50.6035 41.7625L48.758 41.4292C48.7249 41.4292 48.6252 41.3958 48.4431 41.3458C48.3603 41.3125 48.2941 41.2958 48.2445 41.2792C48.3603 41.3292 48.4766 41.3958 48.609 41.4625C48.7414 41.5292 48.9066 41.6292 49.0886 41.7292L50.2348 42.4L49.97 42.85L49.9746 42.8458ZM48.5962 44.8375L46.3704 42.5125L46.701 42.0125L49.6555 43.25L49.3414 43.7167L48.8279 43.4833L48.5139 43.9667L48.9111 44.35L48.5962 44.8333V44.8375ZM48.1659 43.6167L48.381 43.3C48.1659 43.2 47.9672 43.1 47.7521 43C47.5369 42.8833 47.3052 42.7667 47.0693 42.6333C47.2514 42.8 47.4334 42.95 47.6155 43.1167C47.7976 43.2833 47.9801 43.45 48.1621 43.6167H48.1659ZM47.4334 46.075L45.0752 44L45.4559 43.55C45.6711 43.3 45.8693 43.1667 46.0886 43.15C46.3038 43.1333 46.5355 43.2333 46.7714 43.4333C46.9866 43.6333 47.1028 43.8333 47.1359 44.0542C47.1525 44.2708 47.0863 44.4875 46.9042 44.6875C46.8877 44.7208 46.8707 44.7375 46.8541 44.7542C46.8541 44.7542 46.8434 44.7654 46.821 44.7875L47.8021 45.6417L47.438 46.075H47.4334ZM46.4528 44.4708C46.4528 44.4708 46.4693 44.4708 46.4859 44.4542C46.4859 44.4375 46.5024 44.4375 46.5024 44.4375C46.5852 44.3375 46.6187 44.2375 46.6021 44.1375C46.5856 44.0375 46.5194 43.9542 46.4201 43.8542C46.3042 43.7542 46.2045 43.7042 46.1052 43.7042C46.0059 43.7042 45.9231 43.7542 45.8403 43.8542L45.8242 43.8708C45.8242 43.8708 45.8077 43.8875 45.8077 43.9042L46.4573 44.4708H46.4528ZM45.1907 48.2667L43.2132 45.7917L43.7424 45.275L44.69 46.0458C44.8224 46.1625 44.9548 46.2792 45.0872 46.3792C45.2197 46.4958 45.3355 46.6125 45.4514 46.7125C45.2859 46.4958 45.1369 46.3292 45.0376 46.1958C44.9383 46.0625 44.8721 45.9792 44.8224 45.9125L44.1231 44.9083L44.6532 44.4083L47.0114 46.5167L46.581 46.9167L45.5346 45.8958C45.5014 45.8792 45.4679 45.8458 45.4183 45.7958C45.1369 45.5292 44.9217 45.3125 44.7521 45.125L46.2459 47.2333L45.9483 47.5333L43.9042 45.9125C44.0532 46.0792 44.2683 46.2958 44.5166 46.6167C44.5828 46.6833 44.6155 46.7333 44.6486 46.7667L45.5962 47.8708L45.1824 48.2708L45.1907 48.2667ZM43.9125 47.3125C44.1939 47.7125 44.3428 48.0833 44.3594 48.4167C44.3759 48.75 44.2597 49.0167 44.0114 49.1875C43.7631 49.3875 43.4821 49.4208 43.1635 49.2875C42.849 49.1708 42.5511 48.9042 42.249 48.4833C41.9511 48.0667 41.8017 47.6958 41.7686 47.3625C41.7521 47.0125 41.8679 46.7625 42.1162 46.575C42.381 46.375 42.6628 46.3583 42.9814 46.4917C43.2959 46.625 43.6146 46.8917 43.9125 47.3125ZM43.6642 48.7C43.7801 48.6167 43.8293 48.4833 43.7797 48.3C43.7466 48.1333 43.6307 47.9 43.4321 47.6292C43.2334 47.3458 43.0518 47.1625 42.8863 47.0625C42.7373 46.9792 42.6049 46.9792 42.4725 47.0625C42.3566 47.1458 42.3231 47.2792 42.3562 47.4625C42.4059 47.6292 42.5221 47.8625 42.7208 48.15C42.9194 48.4167 43.1014 48.6 43.2504 48.7C43.4159 48.7833 43.5483 48.8 43.6642 48.7ZM42.6997 49.9875C42.6666 50.0375 42.6173 50.0708 42.5842 50.1208C42.5346 50.1542 42.501 50.1875 42.4514 50.2208C42.1369 50.4042 41.8021 50.4375 41.4546 50.3042C41.1068 50.1708 40.8046 49.9042 40.5729 49.5C40.3081 49.0833 40.2088 48.6792 40.2419 48.2958C40.275 47.9292 40.457 47.6417 40.7715 47.4583C40.8212 47.4083 40.871 47.3917 40.9372 47.375C40.9868 47.3417 41.053 47.3417 41.1027 47.325L41.4169 47.8417C41.3508 47.8417 41.3012 47.8583 41.2515 47.875C41.2019 47.8917 41.1523 47.9083 41.1027 47.9417C40.9371 48.0417 40.8543 48.1917 40.8543 48.4083C40.8378 48.6417 40.9206 48.875 41.0695 49.1458C41.2185 49.3958 41.4003 49.5792 41.599 49.6625C41.7976 49.7625 41.9801 49.7625 42.1456 49.6625C42.1787 49.6292 42.2279 49.5958 42.261 49.5625C42.2941 49.5292 42.3277 49.4792 42.3608 49.4292L42.6914 49.9792L42.6997 49.9875ZM38.6819 52.0625L37.5026 49.1208L38.6322 48.6708L38.8474 49.2208L38.235 49.4542L38.4667 50.0542L39.0294 49.8208L39.2446 50.3542L38.6819 50.5875L38.9634 51.275L39.5798 51.025L39.795 51.5917L38.6819 52.0583V52.0625ZM38.0861 52.2625C38.053 52.2958 38.0034 52.3292 37.9537 52.3625C37.9041 52.3958 37.8543 52.4125 37.8046 52.4458C37.4571 52.5625 37.122 52.5125 36.8075 52.3125C36.493 52.1125 36.2612 51.7958 36.1081 51.3417C35.9425 50.875 35.9261 50.4542 36.042 50.1042C36.1578 49.7375 36.3895 49.5042 36.7247 49.3833C36.7909 49.35 36.8571 49.3333 36.9067 49.3333H37.0888L37.2874 49.8833C37.2212 49.8833 37.155 49.8833 37.1053 49.9C37.0557 49.9 37.0061 49.9167 36.9564 49.9333C36.7743 49.9833 36.6586 50.1333 36.6089 50.3333C36.5593 50.55 36.5757 50.8 36.675 51.1042C36.7743 51.3875 36.9067 51.5875 37.0888 51.7208C37.2543 51.8542 37.4365 51.8875 37.6185 51.8208C37.6682 51.8042 37.7178 51.7875 37.7509 51.7542C37.8006 51.7208 37.8336 51.6875 37.8832 51.6542L38.0818 52.2542L38.0861 52.2625ZM34.2834 53.3333L33.5675 50.2583L34.1468 50.125L35.0943 51.6458C35.1109 51.6958 35.1605 51.7792 35.2101 51.8792C35.2763 51.9792 35.326 52.0958 35.4087 52.2458C35.326 52.0292 35.2598 51.8458 35.2101 51.6625C35.1439 51.4792 35.0943 51.3125 35.0612 51.1625L34.7963 49.975L35.3096 49.8583L36.0254 52.9333L35.4956 53.05L34.4985 51.4792C34.482 51.4458 34.4324 51.3458 34.333 51.1792C34.2999 51.0958 34.2668 51.0292 34.2502 50.9958C34.2833 51.1125 34.3329 51.2458 34.366 51.3792C34.3991 51.5292 34.4489 51.7125 34.4985 51.9125L34.7963 53.2167L34.2834 53.3333ZM31.9081 53.65L32.1895 50.4375L32.7854 50.3542L33.7993 53.4125L33.2198 53.4792L33.0709 52.9458L32.4916 53.0125L32.475 53.5792L31.9123 53.6458L31.9081 53.65ZM32.5413 52.5125L32.9219 52.4792C32.8557 52.2625 32.7896 52.0292 32.7233 51.7917C32.6737 51.5583 32.6075 51.3083 32.5579 51.0375C32.5579 51.2875 32.5578 51.5208 32.5413 51.775V52.5125ZM30.0171 53.7333L29.9177 50.5708L30.5137 50.5542C30.8448 50.5375 31.0765 50.6042 31.2296 50.7375C31.3786 50.8708 31.4612 51.0875 31.4777 51.4083C31.4777 51.625 31.4613 51.8083 31.3785 51.9583C31.3123 52.0917 31.1963 52.1917 31.0474 52.2417L31.6598 53.6625L31.0474 53.6958L30.5343 52.4083L30.584 53.7125L30.0212 53.7292L30.0171 53.7333ZM30.5137 51.9292H30.5798C30.7122 51.9292 30.7951 51.8792 30.8613 51.7958C30.9109 51.7292 30.9439 51.6125 30.9439 51.4625C30.9274 51.3125 30.8943 51.1958 30.8447 51.1292C30.7785 51.0625 30.6957 51.0292 30.5633 51.0458H30.4806L30.5137 51.9333V51.9292ZM29.5827 50.5917L29.417 52.5667C29.3839 52.8167 29.3675 52.9833 29.351 53.0833C29.3344 53.1833 29.3012 53.2667 29.2681 53.3333C29.1854 53.4667 29.0696 53.5667 28.9372 53.6333C28.7882 53.7 28.6226 53.7167 28.424 53.7C28.2088 53.6833 28.0434 53.6333 27.911 53.55C27.7951 53.4667 27.6957 53.3333 27.6461 53.1833C27.613 53.1167 27.6129 53.0333 27.5964 52.9167C27.5964 52.8167 27.613 52.65 27.6295 52.4167V52.3167L27.795 50.425L28.3743 50.475L28.1922 52.5167C28.1757 52.7667 28.1757 52.9333 28.2253 53.0167C28.2585 53.1 28.3412 53.1333 28.4571 53.15C28.5895 53.1667 28.6723 53.1333 28.722 53.05C28.7882 52.9833 28.8212 52.8167 28.8377 52.5667L29.0198 50.5417L29.5827 50.5917ZM25.6971 53.2167L25.8129 52.5625C25.8626 52.6458 25.9287 52.7125 25.9949 52.7625C26.0612 52.8125 26.1274 52.8458 26.1936 52.8458C26.2763 52.8792 26.3591 52.8625 26.4253 52.8125C26.4915 52.7625 26.5413 52.6958 26.5579 52.6125C26.5744 52.4958 26.5246 52.3458 26.4087 52.1792C26.3756 52.1292 26.3427 52.0958 26.3261 52.0792C26.1937 51.8625 26.1109 51.6958 26.0612 51.5458C26.0281 51.3958 26.0281 51.2458 26.0612 51.0625C26.1109 50.7958 26.2101 50.5958 26.3922 50.4625C26.5577 50.3292 26.7565 50.2792 26.9717 50.3292C27.0544 50.3292 27.1206 50.3625 27.2034 50.4125C27.2696 50.4458 27.3356 50.4958 27.4184 50.5625L27.3192 51.1125C27.2199 51.0458 27.1537 50.9958 27.104 50.9625C27.0543 50.9292 27.0047 50.9125 26.9551 50.8958C26.8889 50.8792 26.8061 50.8958 26.7399 50.9458C26.6902 50.9958 26.6405 51.0625 26.6239 51.1458C26.6074 51.2292 26.624 51.3125 26.6405 51.3792C26.6736 51.4625 26.7398 51.5792 26.8557 51.7458C27.0046 51.9625 27.104 52.1292 27.1371 52.2625C27.1702 52.3792 27.1702 52.5292 27.1371 52.6958C27.0709 52.9792 26.9551 53.1958 26.7896 53.3333C26.6075 53.4667 26.3922 53.5 26.1398 53.45C26.0405 53.4333 25.9577 53.4167 25.8915 53.3667C25.8087 53.3333 25.7425 53.2833 25.6929 53.2167H25.6971ZM23.9219 52.8333L24.0709 52.1792C24.1205 52.2792 24.1867 52.3458 24.2363 52.3958C24.3025 52.4458 24.3687 52.4792 24.4349 52.4958C24.5343 52.5125 24.6171 52.5125 24.6833 52.4625C24.7495 52.4292 24.7993 52.3625 24.8158 52.2625C24.8489 52.1458 24.7991 51.9958 24.6833 51.8292C24.6502 51.7792 24.6337 51.7458 24.6172 51.7125C24.4848 51.5125 24.402 51.3292 24.3855 51.1792C24.3524 51.0292 24.3524 50.8792 24.402 50.6958C24.4682 50.4458 24.584 50.2458 24.7495 50.1125C24.9316 49.9792 25.1302 49.9458 25.3454 49.9958C25.4281 50.0292 25.4943 50.0625 25.5771 50.0958C25.6433 50.1458 25.7095 50.1958 25.7757 50.2792L25.6434 50.8125C25.5606 50.7292 25.4944 50.6792 25.4448 50.6458C25.3951 50.6125 25.3453 50.5958 25.3122 50.5792C25.2295 50.5625 25.1633 50.5792 25.0971 50.6125C25.0309 50.6625 24.9813 50.7292 24.9647 50.8125C24.9482 50.8958 24.9482 50.9625 24.9647 51.0458C24.9813 51.1292 25.0474 51.2458 25.1633 51.4125C25.2957 51.6458 25.3785 51.8125 25.4116 51.9458C25.4282 52.0792 25.4282 52.2292 25.3785 52.3792C25.3123 52.6625 25.1965 52.8625 25.0144 53C24.8324 53.1167 24.6171 53.15 24.3646 53.0833C24.2653 53.0667 24.1827 53.0333 24.0999 52.9833C24.0337 52.95 23.9674 52.8833 23.9177 52.8333H23.9219ZM21.6792 52.2333L23.3881 49.4917L23.9509 49.6917L23.471 52.8875L22.9412 52.6875L23.024 52.1375L22.4943 51.9375L22.213 52.4375L21.6833 52.2375L21.6792 52.2333ZM22.7592 51.5125L23.1067 51.6458C23.1563 51.4125 23.1896 51.1958 23.2558 50.9583C23.3055 50.7083 23.3551 50.4583 23.4378 50.2042C23.322 50.4208 23.206 50.6208 23.1067 50.8417C22.9908 51.0583 22.875 51.2917 22.7592 51.5125ZM18.7081 50.8917L20.7191 48.3833L21.2654 48.65L20.4005 51.7625L19.8874 51.5125L20.0529 50.9792L19.5399 50.7125L19.2088 51.1625L18.7124 50.8958L18.7081 50.8917ZM19.8543 50.3083L20.2018 50.4917C20.2681 50.275 20.3343 50.0583 20.417 49.8208C20.4998 49.5875 20.5826 49.3542 20.6819 49.1C20.5495 49.3 20.4171 49.5 20.2847 49.7C20.1357 49.9 20.0033 50.1 19.8543 50.3V50.3083ZM17.7274 50.325L19.3537 47.6167L19.8503 47.9167L18.2406 50.625L17.7274 50.325ZM15.6998 48.9542L17.5453 46.3958L17.9426 46.6792C18.3067 46.9458 18.5053 47.2458 18.5218 47.6C18.5549 47.9333 18.4061 48.3208 18.0917 48.7542C17.9096 49.0042 17.7274 49.2042 17.5288 49.3375C17.3467 49.4542 17.1315 49.5208 16.9164 49.5375C16.784 49.5542 16.6515 49.5375 16.5357 49.4875C16.4033 49.4375 16.2543 49.3542 16.0556 49.2042L15.7081 48.9542H15.6998ZM16.5151 48.8208L16.5482 48.8375C16.7137 48.9708 16.8792 48.9875 17.0612 48.9208C17.2599 48.8375 17.4418 48.6708 17.6239 48.4208C17.8225 48.1375 17.922 47.9042 17.9385 47.7C17.9551 47.5167 17.8723 47.35 17.7068 47.2167L17.6736 47.2L16.5109 48.8208H16.5151ZM13.7592 47.3333L15.8199 44.9417L16.2502 45.325L15.584 46.9958C15.5509 47.0458 15.5177 47.1292 15.4681 47.2292C15.4184 47.3292 15.3688 47.4625 15.286 47.5958C15.4184 47.4125 15.5343 47.2458 15.6336 47.0958C15.7494 46.9458 15.8654 46.8125 15.9647 46.6792L16.7632 45.775L17.1606 46.125L15.0999 48.5L14.7025 48.15L15.3689 46.3958C15.3689 46.3958 15.435 46.2792 15.5178 46.1125C15.5674 46.0292 15.6006 45.9625 15.6172 45.9125C15.551 46.0292 15.4682 46.1292 15.3689 46.2458C15.2696 46.3792 15.1536 46.5125 15.0212 46.6792L14.1564 47.6833L13.7592 47.3333ZM12.795 46.3792L15.104 44.2375L15.5012 44.6542L13.1922 46.8125L12.795 46.3792ZM12.4806 40.9792L12.8115 41.4625L11.7648 42.45C11.682 42.5333 11.566 42.6333 11.4502 42.7333C11.3343 42.8333 11.2019 42.95 11.0364 43.0667L13.1965 42.0125L13.4777 42.3958L11.7522 44.0833C11.8681 44 11.9841 43.9167 12.0999 43.85C12.2324 43.7667 12.3648 43.7 12.4972 43.6333L13.842 42.9292L14.173 43.3958L11.2681 44.7333L10.9867 44.3167L12.2323 43.0792C12.2819 43.0125 12.3647 42.9458 12.4475 42.8625C12.5468 42.7792 12.646 42.6958 12.7618 42.6125C12.6294 42.6958 12.5136 42.7625 12.3977 42.8125C12.2984 42.8792 12.2157 42.9292 12.1495 42.9458L10.5399 43.7L10.2419 43.2667L12.4846 40.975L12.4806 40.9792ZM9.07511 41.3458L11.8308 39.8083L12.4103 40.8792L11.8971 41.1625L11.5827 40.5958L11.0364 40.8958L11.3178 41.4125L10.8212 41.6958L10.5399 41.1792L9.89016 41.5292L10.2047 42.1125L9.67499 42.4125L9.07913 41.3417L9.07511 41.3458ZM7.9784 39.0875L10.8337 37.8L11.0818 38.3333L9.77016 39.5708C9.72051 39.6042 9.6543 39.6542 9.57154 39.7375C9.47223 39.8042 9.373 39.8875 9.25714 39.9875C9.43921 39.8708 9.6212 39.7708 9.78671 39.6875C9.93568 39.5875 10.1012 39.5208 10.2502 39.4542L11.3467 38.9542L11.5619 39.4542L8.6902 40.725L8.47503 40.2417L9.81986 38.9375C9.85296 38.9208 9.93576 38.8542 10.0847 38.7375C10.1509 38.6875 10.2171 38.6375 10.2502 38.6042C10.1509 38.6708 10.0185 38.7375 9.88611 38.8042C9.75369 38.8708 9.58809 38.9542 9.38947 39.0375L8.17702 39.5708L7.9784 39.0875ZM6.98128 36.2292L10.0019 35.4083L10.3165 36.5792L9.75357 36.7292L9.58809 36.0917L8.97568 36.2583L9.1246 36.825L8.57848 36.975L8.42956 36.4083L7.71369 36.5917L7.87917 37.2292L7.28335 37.3958L6.98533 36.225L6.98128 36.2292ZM6.40201 33.7875L9.47231 33.1333L9.58809 33.6833L8.45844 33.9333L8.59081 34.5542L9.72063 34.3208L9.83641 34.8875L6.76185 35.5417L6.64607 34.975L7.99089 34.6917L7.85856 34.0542L6.51373 34.3375L6.39775 33.7875H6.40201ZM6.23633 32.2L8.77706 31.8833L8.72736 31.45L9.29029 31.3667L9.47231 32.8375L8.89305 32.9042L8.84335 32.4708L6.30262 32.7708L6.23633 32.2042V32.2Z" fill="#0D0F8C"/>
<path fill-rule="evenodd" clip-rule="evenodd" d="M11.1272 20.6917L10.8126 21.4792L9.71613 21.0292L9.45126 21.6833L9.79897 21.8167C9.79897 21.8167 9.8485 21.8333 9.86505 21.8667C9.89816 21.8833 9.89816 21.9 9.8816 21.9333C9.8485 22.0167 9.69953 22.1 9.45126 22.2C9.18643 22.2833 9.0044 22.3 8.87199 22.25C8.78923 22.2167 8.7726 22.15 8.8057 22.0667L9.28578 20.8625L8.72307 20.6292L8.16035 22.05L7.76294 21.8833L8.74367 19.4417L9.14091 19.5917L8.9257 20.125L10.5851 20.7958C10.6513 20.8292 10.7175 20.8125 10.7672 20.7792C10.7837 20.7625 10.8003 20.7458 10.8169 20.6958C10.8334 20.6625 10.8664 20.6292 10.8829 20.5958L11.1313 20.6958L11.1272 20.6917ZM10.7629 18.6167L9.91475 18.1167L9.5672 18.7333C9.63341 18.75 9.69958 18.75 9.73268 18.75C9.88165 18.7833 9.99751 18.8333 10.1134 18.9C10.312 19.0167 10.4114 19.1667 10.4114 19.3833C10.4279 19.4 10.3947 19.5 10.3616 19.6667H10.4774C10.5933 19.65 10.6927 19.5833 10.7423 19.5C10.8085 19.3833 10.8417 19.2333 10.8417 19.0667C10.8417 18.8167 10.8085 18.6667 10.7589 18.6167H10.7629ZM12.3066 18.5167L11.8762 19.2542L11.3464 18.9542C11.3464 19.0042 11.3464 19.0542 11.3299 19.1375C11.3133 19.2708 11.2803 19.3708 11.2307 19.4542C11.0486 19.7708 10.7671 19.9208 10.3823 19.9042C10.0844 19.8875 9.90234 19.8375 9.81958 19.7542C9.86923 19.6208 9.90242 19.5208 9.90242 19.4542C9.93552 19.2208 9.85276 19.0708 9.68724 18.9708C9.65414 18.9375 9.58794 18.9375 9.50518 18.9542C9.48862 18.9542 9.47203 18.9542 9.43893 18.9708L9.14091 19.5875L8.74367 19.4375L9.35609 18.1833L10.1051 16.9625L10.4691 17.1625L10.1879 17.6458L11.7313 18.55C11.8141 18.5833 11.8638 18.6 11.93 18.5667C11.9465 18.55 11.9795 18.5 12.0291 18.4333C12.0457 18.4167 12.0457 18.4 12.0623 18.3833L12.3106 18.5167H12.3066ZM13.9161 18.3333L13.9326 18.5833C13.883 18.5333 13.6679 18.5667 13.3203 18.6833C12.8899 18.8 12.6044 18.9833 12.4389 19.2167C12.3727 19.3333 12.3395 19.45 12.3395 19.5667C12.3395 19.6833 12.3893 19.7667 12.4886 19.8333C12.5714 19.8833 12.6541 19.8667 12.7203 19.7667C12.7535 19.7 12.7864 19.6 12.803 19.4833C12.8196 19.35 12.8196 19.2833 12.8196 19.2667L13.2665 19.3333C13.2665 19.3833 13.2499 19.45 13.2168 19.55C13.1837 19.6333 13.1341 19.7167 13.101 19.7833C13.0017 19.9333 12.8527 20.0333 12.6375 20.1C12.4223 20.1667 12.2567 20.15 12.1078 20.05C11.9588 19.95 11.8762 19.8333 11.8597 19.6833C11.8431 19.5333 11.8761 19.3833 11.992 19.2167C12.1079 19.0333 12.3395 18.85 12.6747 18.7C12.923 18.5833 13.1879 18.5 13.5065 18.4167C13.7548 18.35 13.9038 18.3333 13.9203 18.3333H13.9161ZM17.5533 11.325L17.0072 10.5208L16.4279 10.9208C16.4776 10.9542 16.5272 10.9875 16.5769 11.0208C16.6927 11.1042 16.7755 11.2042 16.8583 11.3042C16.9907 11.5042 17.0071 11.6875 16.9244 11.8708C16.9244 11.8875 16.8582 11.9708 16.7589 12.1042C16.792 12.1208 16.8252 12.1375 16.8583 12.1542C16.9741 12.1875 17.0734 12.1708 17.1727 12.1208C17.2885 12.0375 17.3713 11.9208 17.4375 11.7708C17.5534 11.5375 17.5864 11.3875 17.5533 11.3208V11.325ZM20.0775 11.325L19.3616 11.7417L18.2154 9.76667C17.901 9.95 17.7519 9.98333 17.4333 10.2L18.4638 11.6708C18.5134 11.7375 18.563 11.7708 18.6292 11.7708C18.6458 11.7542 18.6954 11.7375 18.7782 11.6875C18.7947 11.6875 18.8113 11.6708 18.8279 11.6708L18.9768 11.8875L18.2941 12.3708L17.93 11.8708C17.9134 11.9042 17.8802 11.9708 17.8471 12.0208C17.7809 12.1375 17.6982 12.2208 17.6319 12.2875C17.3175 12.4875 17.0029 12.5042 16.6678 12.3208C16.4029 12.1875 16.2541 12.0542 16.221 11.9542C16.3203 11.8542 16.3866 11.7708 16.4197 11.7208C16.5355 11.5208 16.5355 11.3375 16.4197 11.1875C16.4031 11.1375 16.3533 11.1208 16.2705 11.0875C16.254 11.0875 16.2376 11.0708 16.2045 11.0708C15.8735 11.3042 15.6747 11.5042 15.3561 11.7583L15.8196 12.325L15.2403 12.825C15.1741 12.8583 15.1741 12.925 15.2072 13.0083C15.2403 13.0583 15.2898 13.075 15.3395 13.0917C15.4057 13.0917 15.4389 13.0917 15.472 13.075C15.472 13.0583 15.5051 13.0083 15.5547 12.9583C15.6044 12.875 15.6541 12.8083 15.7038 12.7583C15.8362 12.6417 16.0016 12.5917 16.1671 12.6083C16.3491 12.6083 16.4982 12.675 16.5975 12.8083C16.7299 12.9583 16.7797 13.1417 16.73 13.3417C16.6969 13.525 16.6141 13.675 16.4817 13.775C16.2665 13.9583 15.9686 14.0417 15.6169 14.025C15.319 14.0083 15.1534 13.975 15.1037 13.925L15.1369 13.675C15.2527 13.7583 15.4183 13.775 15.6003 13.7583C15.799 13.725 15.9644 13.6417 16.1299 13.5083C16.2292 13.425 16.312 13.325 16.3616 13.2083C16.4113 13.075 16.4113 12.9917 16.3451 12.925C16.312 12.8917 16.279 12.8917 16.2128 12.9083C16.1797 12.925 16.1298 12.9583 16.0471 13.0083C15.9809 13.0583 15.9313 13.1083 15.8816 13.175C15.8319 13.2417 15.8155 13.2917 15.799 13.325C15.6335 13.3417 15.4845 13.3417 15.3852 13.325C15.2693 13.3083 15.1533 13.275 15.0706 13.2417L15.1534 13.3417L14.6402 13.8083L14.8885 14.075C14.9051 14.1083 14.9217 14.125 14.9382 14.1583C14.9548 14.175 14.9548 14.2083 14.9217 14.2417C14.8555 14.2917 14.6899 14.3083 14.4251 14.275C14.1437 14.2417 13.9616 14.175 13.8789 14.0917C13.8127 14.025 13.8293 13.9583 13.8955 13.8917L14.7768 13.0542C14.7768 13.0542 14.7437 13.0375 14.7271 13.0208C14.694 12.9708 14.6774 12.9208 14.694 12.8542C14.7105 12.8042 14.7437 12.7375 14.7934 12.7042L15.2735 12.3042L15.0417 12.0208C14.4458 12.5375 13.9121 13.0583 13.3328 13.6083L13.0182 13.9417L14.2967 15.1792C14.3629 15.2458 14.4293 15.2625 14.479 15.2458C14.5121 15.2292 14.5451 15.1958 14.6113 15.1458C14.6279 15.1458 14.6279 15.1292 14.661 15.1125L14.8597 15.2958L14.2802 15.9125L12.6541 14.325C12.4224 14.5583 12.3066 14.7583 12.0914 15.0292L12.6375 15.4625L12.0914 16.15C12.0583 16.2 12.0583 16.2333 12.0748 16.2833C12.1079 16.3333 12.141 16.3667 12.1906 16.4167C12.2237 16.4333 12.2569 16.45 12.3066 16.4667C12.3562 16.4667 12.3892 16.4667 12.4223 16.45C12.4223 16.45 12.4389 16.4167 12.472 16.35C12.5217 16.2167 12.5713 16.1167 12.6375 16.05C12.7368 15.9 12.9024 15.8167 13.0844 15.8C13.2665 15.7667 13.4319 15.8167 13.5809 15.9333C13.6967 16.0333 13.7795 16.15 13.7961 16.3C13.8292 16.4833 13.8128 16.65 13.73 16.7667L14.3796 16.6833L14.363 17L13.6637 16.9833C13.6637 17.0167 13.6141 17.1 13.5148 17.2167C13.3824 17.3667 13.2664 17.45 13.1505 17.4833C13.0512 17.5 12.9686 17.4667 12.8858 17.4C12.8196 17.35 12.7699 17.2833 12.7699 17.2C12.7533 17.1 12.7699 17.0333 12.8196 16.9667C12.9189 16.85 13.0348 16.7833 13.1341 16.75H13.2831C13.3327 16.6333 13.3657 16.5333 13.3823 16.4667C13.4319 16.2667 13.4155 16.1333 13.3328 16.0667C13.2831 16.0333 13.2499 16 13.2002 16C13.1671 16.0167 13.1175 16.05 13.0679 16.1167C13.0182 16.1667 12.952 16.2667 12.8858 16.4C12.8196 16.5167 12.803 16.6 12.803 16.6167C12.7533 16.65 12.6209 16.6667 12.3892 16.6667C12.1079 16.65 11.8761 16.5833 11.7065 16.45C11.6568 16.4 11.6237 16.35 11.6237 16.2833C11.6237 16.2 11.6403 16.15 11.6734 16.0833L12.0872 15.5833L11.8223 15.3667L11.123 16.2208L10.8086 15.9542L12.1037 14.35L12.4017 13.9833C12.3521 13.9833 12.2693 13.9833 12.1866 13.9667C12.021 13.9333 11.905 13.8667 11.8057 13.7833C11.7891 13.7667 11.7728 13.75 11.7728 13.75C11.6403 13.6333 11.5905 13.4833 11.5905 13.3333C11.5905 13.1667 11.6733 13.0167 11.8223 12.85C12.0209 12.65 12.3024 12.4833 12.6541 12.3833C12.9024 12.3 13.1837 12.25 13.5023 12.2167C13.6347 12.2 13.7505 12.2 13.8829 12.2V12.3833C13.7671 12.3333 13.5024 12.3667 13.0679 12.4833C12.7534 12.5833 12.5051 12.7333 12.3189 12.9333C12.1865 13.0667 12.1037 13.2167 12.0706 13.35C12.054 13.4833 12.0872 13.6 12.1866 13.7C12.2362 13.75 12.3354 13.7833 12.4347 13.8C12.4678 13.8 12.5176 13.8 12.5838 13.7833L13.0968 13.25H13.1134C14.392 12.0458 15.5878 10.9417 16.9326 10.0042C17.5657 9.57083 18.2774 9.25 18.9602 8.85L19.1754 9.21667L18.6955 9.5L19.5769 11.0542C19.5769 11.0542 19.61 11.0875 19.6266 11.1042C19.6431 11.1208 19.6761 11.1375 19.7092 11.1375C19.7423 11.1542 19.7755 11.1375 19.8252 11.1208C19.8748 11.1042 19.9078 11.0875 19.941 11.0708L20.0733 11.3208L20.0775 11.325ZM24.3769 8.22917L24.1286 7.275L23.4459 7.45833C23.4955 7.525 23.5285 7.55833 23.5451 7.60833C23.6278 7.725 23.6775 7.84167 23.7271 7.975C23.7768 8.19167 23.7437 8.375 23.5947 8.525C23.5782 8.54167 23.4954 8.60833 23.3464 8.69167C23.3795 8.725 23.4128 8.74167 23.4459 8.775C23.5286 8.84167 23.6278 8.85833 23.7437 8.84167C23.8761 8.80833 23.9919 8.725 24.1243 8.60833C24.2898 8.425 24.3726 8.30833 24.3726 8.225L24.3769 8.22917ZM26.4375 7.19167C26.3879 6.90833 26.2389 6.79167 25.9906 6.825C25.8748 6.85833 25.8085 6.89167 25.7589 6.95833C25.7092 7.025 25.6926 7.10833 25.7092 7.19167C25.7423 7.325 25.8582 7.425 26.1064 7.50833C26.3216 7.575 26.4376 7.59167 26.4707 7.575C26.4707 7.525 26.4707 7.45833 26.4541 7.39167C26.4541 7.325 26.4541 7.25833 26.4375 7.19167ZM26.8513 7.45833C26.8844 7.69167 26.8679 7.90833 26.8016 8.1125C26.752 8.2625 26.6526 8.42917 26.5036 8.59583L27.0334 9.0125L26.8182 9.22917L26.305 8.7125C26.305 8.7125 26.2554 8.74583 26.1561 8.7625C26.0072 8.79583 25.8747 8.79583 25.7754 8.7625C25.6265 8.72917 25.5437 8.62917 25.5106 8.47917C25.494 8.39583 25.5106 8.3125 25.5603 8.24583C25.6099 8.17917 25.6927 8.14583 25.792 8.12917C25.8582 8.1125 25.941 8.1125 26.0072 8.12917C26.0734 8.14583 26.123 8.17917 26.1561 8.22917C26.1892 8.2125 26.2224 8.19583 26.2555 8.14583C26.2886 8.1125 26.3051 8.07917 26.3216 8.0625C26.3878 7.97917 26.421 7.89583 26.421 7.77917C26.3548 7.8125 26.1726 7.77917 25.8747 7.67917C25.5436 7.54583 25.3451 7.3625 25.2954 7.1125C25.2788 6.9625 25.312 6.82917 25.3948 6.69583C25.4941 6.57917 25.6265 6.49583 25.8086 6.4625C26.0403 6.42917 26.272 6.5125 26.4747 6.72917C26.6734 6.92917 26.8057 7.17917 26.8554 7.46667L26.8513 7.45833ZM28.8292 7.575L28.7629 6.5875L28.0471 6.6375C28.0802 6.70417 28.1134 6.75417 28.1299 6.7875C28.1796 6.92083 28.2128 7.05417 28.2293 7.1875C28.2459 7.42083 28.1631 7.5875 27.9976 7.70417C27.981 7.72083 27.8816 7.77083 27.7327 7.82083C27.7492 7.85417 27.7824 7.8875 27.799 7.92083C27.8817 8.00417 27.9809 8.05417 28.0802 8.0375C28.2126 8.0375 28.3616 7.9875 28.494 7.8875C28.7092 7.75417 28.8086 7.6375 28.8252 7.57083L28.8292 7.575ZM36.7658 8.29583L36.9479 7.625C36.6996 7.55833 36.4679 7.49167 36.2154 7.44167V7.60833C36.1989 7.70833 36.1823 7.79167 36.1657 7.85833C36.1492 7.925 36.1328 7.975 36.0997 8.04167C36.0831 8.09167 36.05 8.14167 36.0334 8.175C36.05 8.19167 36.0829 8.225 36.116 8.25833C36.1657 8.275 36.1989 8.30833 36.2486 8.30833C36.3313 8.34167 36.4471 8.34167 36.5795 8.325C36.6292 8.30833 36.6954 8.30833 36.7616 8.29167L36.7658 8.29583ZM37.1796 10.05C36.8982 9.96667 36.6333 9.9 36.3644 9.83333L36.6458 8.74583C36.6127 8.74583 36.5631 8.74583 36.5135 8.72917C36.4472 8.72917 36.3974 8.7125 36.3312 8.69583C36.2485 8.67917 36.1988 8.6625 36.1492 8.62917C36.0995 8.6125 36.0499 8.54583 36.0003 8.44583C35.9506 8.37917 35.934 8.32917 35.934 8.3125C35.9175 8.32917 35.9174 8.34583 35.9009 8.3625C35.8512 8.42917 35.785 8.4625 35.7354 8.49583C35.6857 8.52917 35.6361 8.54583 35.5533 8.57917C35.4871 8.59583 35.4375 8.6125 35.421 8.6125C35.4541 8.67917 35.4871 8.72917 35.5036 8.77917C35.5533 8.89583 35.6031 8.99583 35.6362 9.09583C35.6693 9.14583 35.7355 9.2625 35.8348 9.42917C35.8679 9.5125 35.9009 9.57917 35.934 9.64583C35.8513 9.6625 35.7521 9.67917 35.6528 9.69583C35.5866 9.69583 35.4375 9.34583 35.1893 8.675C35.0569 8.325 35.0072 8.09167 35.0403 7.97083C35.0569 7.9375 35.0733 7.90417 35.1064 7.8875C35.1561 7.87083 35.1893 7.85417 35.2224 7.87083C35.3382 7.90417 35.4375 7.92083 35.5533 7.95417C35.603 7.7375 35.6691 7.52083 35.7188 7.3C35.3712 7.2 35.0693 7.1 34.7051 7.03333C34.6058 7.61667 34.5064 8.20417 34.4071 8.80417C34.3906 8.87083 34.4072 8.9375 34.4403 8.97083C34.4734 8.9875 34.49 9.00417 34.5397 9.02083C34.5728 9.02083 34.6223 9.0375 34.6554 9.05417C34.6389 9.1375 34.6223 9.2375 34.6057 9.32083C34.3409 9.27083 34.0596 9.22083 33.7741 9.17083C33.8569 8.7875 33.9231 8.38333 33.9893 8C33.7576 7.95 33.5259 7.91667 33.3066 7.86667C33.2735 8 33.2569 8.11667 33.2403 8.23333C33.2403 8.26667 33.2237 8.28333 33.2072 8.31667C33.2072 8.35 33.174 8.36667 33.1409 8.35C33.0582 8.33333 32.9423 8.21667 32.7934 7.96667C32.661 7.73333 32.6113 7.55 32.6279 7.43333C32.6444 7.33333 32.6941 7.3 32.7934 7.31667C33.2072 7.38333 33.6416 7.46667 34.0719 7.53333C34.1051 7.33333 34.1382 7.13333 34.1713 6.93333C33.5051 6.83333 32.8431 6.71667 32.1603 6.6C32.1934 6.68333 32.1934 6.95 32.1603 7.30417C32.1438 7.5375 32.061 7.72083 31.8955 7.85417C31.73 7.95417 31.6472 8.00417 31.6472 8.00417C31.6803 8.07083 31.7134 8.12083 31.73 8.15417C31.7962 8.25417 31.8458 8.3375 31.912 8.42083C31.9782 8.52083 32.0774 8.6375 32.1767 8.75417C32.2264 8.82083 32.2928 8.8875 32.3424 8.95417C32.2762 8.9875 32.21 9.02083 32.1272 9.05417C32.061 9.07083 31.8128 8.77083 31.4114 8.13333C31.2128 7.8 31.1134 7.55 31.1134 7.4125C31.1299 7.3125 31.1795 7.2625 31.2623 7.27917C31.3947 7.27917 31.5107 7.29583 31.6266 7.29583C31.6431 7.0625 31.6595 6.82917 31.676 6.59167C31.3616 6.55833 31.0636 6.575 30.745 6.55833C30.7285 7.15833 30.7121 7.72917 30.7121 8.32917V8.39583C30.7286 8.42917 30.7285 8.44583 30.7616 8.47917C30.7947 8.49583 30.8279 8.5125 30.8775 8.52917C30.9272 8.52917 30.9603 8.52917 31.0099 8.54583C31.0099 8.62917 30.9933 8.72917 30.9933 8.8125C30.7119 8.8125 30.4472 8.8125 30.1617 8.79583C30.1617 8.04167 30.1783 7.29167 30.1948 6.52083C29.8638 6.52083 29.6154 6.50417 29.2802 6.5375L29.4127 8.325C29.4127 8.40833 29.4457 8.45833 29.4954 8.49167C29.5285 8.49167 29.5783 8.50833 29.661 8.50833H29.7271C29.7271 8.59167 29.7437 8.69167 29.7437 8.775L28.8955 8.84167L28.8623 8.225C28.8127 8.24167 28.7631 8.275 28.6969 8.30833C28.581 8.375 28.4651 8.40833 28.3823 8.40833C28.0182 8.44167 27.7327 8.29167 27.5341 7.95833C27.3851 7.70833 27.3189 7.525 27.352 7.40833C27.4844 7.375 27.5836 7.34167 27.6333 7.30833C27.8319 7.19167 27.9313 7.04167 27.9147 6.85833C27.9147 6.80833 27.8817 6.75833 27.8155 6.69167C27.8155 6.675 27.7989 6.65833 27.7824 6.64167L27.1657 6.69167L27.1492 6.275C28.1795 6.19167 29.1935 6.09167 30.2031 6.10833L29.7728 5.49167C29.7397 5.44167 29.6899 5.40833 29.6402 5.375C29.5906 5.35833 29.5244 5.34167 29.4747 5.34167C29.3754 5.34167 29.2762 5.34167 29.1603 5.35833C29.0445 5.375 28.9783 5.375 28.9617 5.375L28.7795 4.90833H29.3919C29.5409 4.925 29.6569 4.99167 29.7562 5.125C29.8886 5.29167 30.0374 5.50833 30.2195 5.79583C30.2691 5.87917 30.3354 5.97917 30.4181 6.1125C31.5312 6.1625 32.545 6.24583 33.6416 6.42917C35.1685 6.67917 36.5962 7.08333 38.0941 7.5L37.9781 7.9L37.4485 7.75L36.9851 9.45417C36.9685 9.5375 36.9851 9.62083 37.0347 9.67083C37.0513 9.70417 37.0679 9.72083 37.1176 9.72083C37.1507 9.7375 37.1837 9.75417 37.2334 9.77083L37.1671 10.0375L37.1796 10.05ZM42.4429 8.8125L41.8801 8.92917L41.7312 8.3625L42.2939 8.2625L42.4429 8.8125ZM42.7739 11.4875L43.2705 10.7667L42.7243 10.3833L42.0581 11.3542C42.1243 11.4042 42.1905 11.4375 42.2567 11.4542C42.2732 11.4542 42.3229 11.4708 42.4057 11.4708C42.4719 11.4875 42.5381 11.5042 42.5877 11.5042C42.6208 11.5042 42.687 11.4875 42.7698 11.4875H42.7739ZM50.8139 21.8875L51.5795 21.5708L51.3146 20.9L50.5491 21.2167L50.8139 21.8875ZM20.123 8.225L20.2721 8.625L20.5036 8.525L20.9671 9.7625C21.1326 9.77917 21.2817 9.8125 21.4472 9.82917C21.712 9.87917 21.9933 9.92917 22.3119 9.99583C22.6264 10.0625 22.792 10.1125 22.792 10.1458C22.8251 10.2125 22.7919 10.2958 22.6926 10.3792C22.6595 10.4125 22.6099 10.4458 22.5437 10.4958L23.0072 10.6458C23.0403 10.6292 23.0899 10.5625 23.1561 10.4458C23.2223 10.3292 23.2389 10.2125 23.2058 10.1292C23.1893 10.0625 23.1561 10.0125 23.1064 9.97917C23.0402 9.94583 22.9906 9.92917 22.9078 9.9125L21.5135 9.6125L21.0168 8.34167L21.7658 8.04167L22.0968 8.89583C22.1133 8.94583 22.1133 9.0125 22.0968 9.0625C22.0968 9.09583 22.0802 9.12917 22.0471 9.1625C22.014 9.19583 21.9975 9.2125 21.981 9.22917L22.494 9.39583C22.494 9.39583 22.5437 9.34583 22.5603 9.29583C22.5934 9.22917 22.6266 9.17917 22.6266 9.1125C22.6431 9.04583 22.6431 8.99583 22.6431 8.94583C22.6431 8.89583 22.6265 8.82917 22.5934 8.7625L22.2457 7.85833C22.6595 7.70833 22.6926 7.69167 23.1933 7.525C23.2098 7.54167 23.2264 7.55833 23.243 7.575C23.3092 7.625 23.359 7.65833 23.359 7.70833C23.4086 7.89167 23.3588 8.05833 23.1767 8.20833C23.1271 8.25833 23.0279 8.30833 22.912 8.35833C22.912 8.475 22.9947 8.64167 23.1933 8.85833C23.4581 9.15833 23.756 9.24167 24.1078 9.15833C24.2071 9.125 24.3065 9.075 24.4058 8.99167C24.472 8.94167 24.505 8.90833 24.5381 8.875L24.7038 9.475L25.5188 9.25833L25.4526 8.99167H25.4031C25.3203 9.00833 25.2541 9.00833 25.221 9.00833C25.1714 8.99167 25.1216 8.95833 25.1051 8.875L24.6416 7.1375L25.1879 6.9875L25.0719 6.5875C24.1244 6.85417 23.3135 7.05417 22.5148 7.325C21.7493 7.575 21.0044 7.89167 20.123 8.22917V8.225ZM46.7795 13.175C46.8457 12.9917 46.8788 12.8417 46.8953 12.7417C46.9615 12.425 46.9119 12.175 46.7629 12.0208C46.6636 11.9208 46.5643 11.8708 46.4815 11.8875C46.3988 11.8875 46.316 11.9375 46.2332 12.0208C46.167 12.0708 46.1343 12.1542 46.1178 12.2708V12.4375L45.9519 12.2542V12.0208C45.985 11.8375 46.0677 11.6875 46.167 11.5708C46.2994 11.4542 46.4484 11.3875 46.5974 11.4042C46.7629 11.4042 46.9119 11.4875 47.0774 11.6542C47.276 11.8708 47.3091 12.2042 47.1932 12.6917C47.1436 12.8417 47.0612 13.0583 46.9454 13.3458L47.4415 13.8625L47.1436 14.1625L46.7629 13.7625L45.4843 15C45.4181 15.0667 45.4015 15.1167 45.4181 15.1833C45.4181 15.2 45.4346 15.2333 45.4677 15.2667C45.4843 15.3 45.5174 15.3333 45.5339 15.3667L45.3353 15.55L44.756 14.95L46.3822 13.3625C46.0181 13.0125 46.1174 13.0958 45.6663 12.7292L44.5201 14.1C44.4705 14.1667 44.4543 14.2167 44.4709 14.2833C44.4875 14.3 44.5036 14.3167 44.5367 14.35C44.5698 14.3833 44.6029 14.4167 44.6195 14.45L44.4539 14.6667L43.8043 14.1167L44.5698 13.1958L44.0401 12.7458L43.8084 13.0292C43.8084 13.0292 43.7588 13.0792 43.7422 13.0958C43.7091 13.1125 43.6926 13.1125 43.6595 13.0792C43.5932 13.0292 43.5601 12.8625 43.5601 12.5792C43.5436 12.3125 43.5932 12.1125 43.676 12.0292C43.7257 11.9458 43.7919 11.9458 43.8746 12.0125L44.8719 12.85L45.2526 12.3833C44.7229 11.9333 44.2553 11.4625 43.7091 11.0792L42.6953 12.55C42.6457 12.6167 42.6457 12.6833 42.6622 12.7333C42.6788 12.7667 42.6953 12.8 42.7284 12.8167C42.7615 12.85 42.7946 12.8667 42.8277 12.9L42.6622 13.1167L41.9799 12.6333L42.4595 11.9458C42.3932 11.9125 42.3436 11.8958 42.3105 11.8958C42.1946 11.8458 42.0953 11.8125 42.0457 11.7792C41.9298 11.6958 41.847 11.5292 41.7974 11.2625C41.7643 11.0625 41.7477 10.9458 41.7643 10.8792L42.3105 10.0917L42.145 9.975L40.9492 9.34167L40.6843 9.90833H40.8003C40.8996 9.925 40.9658 9.94167 41.0155 9.95833C41.181 10.0417 41.3134 10.1917 41.3794 10.4083C41.4457 10.625 41.4291 10.8417 41.3133 11.0792C41.2306 11.2625 41.1147 11.3958 40.9658 11.5125C40.9161 11.5458 40.8499 11.5792 40.7672 11.6125L40.4362 11.0458C40.4693 11.0625 40.5685 11.0625 40.7506 11.0292C40.9492 10.9792 41.0816 10.8958 41.1313 10.7958C41.1975 10.6625 41.1313 10.5458 40.9492 10.4625C40.8334 10.3958 40.701 10.3792 40.5851 10.4125C40.5355 10.4125 40.4859 10.4292 40.4197 10.4625L40.1713 10.9625C40.1382 11.0292 40.1382 11.0958 40.1713 11.1458C40.1879 11.1625 40.2209 11.1792 40.254 11.1958C40.2871 11.2292 40.3203 11.2458 40.3534 11.2792L40.2376 11.5125L39.4886 11.1458L39.7699 10.5458C39.7202 10.5625 39.6374 10.5625 39.5216 10.5458C39.4057 10.5458 39.3231 10.5125 39.2569 10.4792C39.0913 10.3958 38.9754 10.2458 38.9091 10.0125C38.8429 9.77917 38.843 9.5625 38.9423 9.375C39.025 9.20833 39.1575 9.125 39.3561 9.10833C39.6375 9.075 39.8526 9.10833 39.9685 9.20833L40.0347 9.775C40.0347 9.775 40.0016 9.74167 39.9685 9.725C39.8195 9.65833 39.6705 9.60833 39.5216 9.59167C39.3064 9.55833 39.174 9.59167 39.1078 9.70833C39.0912 9.775 39.0748 9.825 39.0914 9.875C39.1079 9.90833 39.1575 9.94167 39.2072 9.95833L39.2734 9.99167C39.4224 10.075 39.5878 10.0917 39.7864 10.075C39.8526 10.0583 39.9354 10.0417 40.0347 10.0083L40.4651 9.10417L39.236 8.50417L39.4181 8.12083C40.5478 8.67083 41.3794 9.04167 42.1408 9.49167C42.4222 9.65833 42.7036 9.84167 42.9891 10.025C43.7381 10.525 44.4498 11.0792 45.116 11.6458C45.7284 12.1625 46.2953 12.7 46.7753 13.1833L46.7795 13.175ZM48.5877 15.3667C48.6043 15.3 48.6043 15.25 48.6043 15.2167C48.6208 15.1 48.6705 15.0167 48.7367 14.9667C48.836 14.8833 48.9684 14.85 49.1008 14.9C49.2332 14.95 49.3491 15.05 49.4815 15.2C49.647 15.4167 49.7629 15.6833 49.8126 16.0042C49.8953 16.4375 49.8953 16.725 49.8291 16.825L50.0112 16.8583C50.0112 16.725 50.0277 16.5917 50.0443 16.4583C50.0443 16.1417 50.0277 15.8583 49.9781 15.6042C49.9119 15.2375 49.7795 14.9333 49.6139 14.7167C49.465 14.55 49.3326 14.45 49.167 14.4167C49.0181 14.4 48.8691 14.4333 48.7367 14.55C48.7201 14.55 48.7206 14.5667 48.704 14.5833C48.5881 14.6667 48.5215 14.7833 48.4719 14.9333C48.4388 15.0333 48.4222 15.1 48.4388 15.15L48.1243 14.7667L47.7932 15.0333L48.0581 15.35L46.2994 16.7875L46.8291 17.4417L47.0277 17.275C47.0112 17.2417 47.0112 17.225 46.9946 17.225C46.9615 17.1417 46.9284 17.0917 46.9284 17.075C46.9119 17.025 46.9284 16.9583 47.0112 16.9083L48.3891 15.7708C48.9022 16.4083 49.2043 16.9083 49.7836 17.8125L49.1008 18.2458L49.1505 17.8625C49.1174 17.8292 49.0843 17.7958 49.0512 17.7625C49.0181 17.7125 48.985 17.6958 48.9519 17.6625C48.9188 17.6458 48.8691 17.6292 48.8029 17.6125C48.7863 17.6125 48.7698 17.5958 48.7367 17.5958C48.7532 17.5625 48.7532 17.4792 48.7367 17.3625C48.7367 17.2292 48.7036 17.1125 48.6539 17.0292C48.5712 16.9125 48.4719 16.8458 48.3229 16.8125C48.1905 16.7958 48.0581 16.8292 47.9422 16.9125C47.7601 17.0292 47.5781 17.2958 47.4291 17.7333C47.2967 18.1167 47.2474 18.3333 47.264 18.3667L47.5284 18.4833C47.5119 18.4333 47.5284 18.2833 47.6112 18.0167C47.6939 17.7 47.8098 17.5 47.9753 17.4C48.0912 17.3167 48.1905 17.3 48.2732 17.3167C48.3395 17.3333 48.3891 17.3833 48.4388 17.4667C48.4719 17.5 48.4884 17.5333 48.4884 17.5667C48.505 17.6 48.5215 17.6333 48.5215 17.65L48.1077 17.9167L48.1574 18.3667L48.5877 18.0667C48.6539 18.0333 48.7367 18.0333 48.836 18.0833C48.8691 18.1 48.8861 18.1167 48.9192 18.1667C48.9357 18.1833 48.9519 18.2167 48.9684 18.25C48.985 18.3 49.0015 18.3167 49.0015 18.3167L47.8884 19.0542L48.3519 19.7583L48.5836 19.6083C48.5505 19.575 48.5339 19.5417 48.5174 19.4917C48.5008 19.4583 48.5008 19.4083 48.5008 19.375C48.5008 19.3417 48.5174 19.3083 48.5339 19.2917C48.5505 19.275 48.567 19.2583 48.5836 19.2417L50.0774 18.2708L50.2926 18.7375L50.4746 19.0875L48.4636 20.125L48.8443 20.8792L49.076 20.7625C49.076 20.7292 49.0594 20.7125 49.0594 20.6958C49.0263 20.6292 49.0098 20.5792 49.0098 20.5458C49.0098 20.4792 49.0433 20.4458 49.1261 20.3958L50.7188 19.575L50.967 20.075L51.116 20.425L50.3505 20.7417L50.2512 20.525C50.2346 20.4917 50.2015 20.475 50.1188 20.4917C50.036 20.5417 49.9367 20.675 49.8539 20.925C49.7546 21.175 49.7215 21.3417 49.7712 21.4583C49.7877 21.5083 49.8208 21.5083 49.8539 21.4917L50.1188 21.3917L50.3836 22.0625L49.4691 22.4292L49.8001 23.2333L50.0488 23.1333C50.0323 23.1 50.0319 23.0667 50.0153 23.0167C49.9988 22.9667 49.9822 22.9167 49.9988 22.8833C49.9988 22.85 49.9988 22.8333 50.0153 22.8167C50.0319 22.8 50.065 22.7833 50.1146 22.7667L51.7739 22.0958L51.9726 22.6125H51.9891L52.287 23.6667L51.8567 23.7833L51.7243 23.35C51.6912 23.2 51.6084 23.1167 51.476 23.05C51.3436 23 51.2112 22.9833 51.0788 23.0333C50.7808 23.1167 50.5326 23.2833 50.3298 23.5333C50.1477 23.8 50.0815 24.05 50.1643 24.3042C50.1974 24.4375 50.2636 24.5875 50.3629 24.7375C50.4457 24.8875 50.5284 24.9875 50.5781 25.0375L50.9919 24.6375C50.9422 24.6375 50.876 24.5708 50.7767 24.4875C50.6608 24.3542 50.5781 24.2042 50.5284 24.0208C50.4788 23.8875 50.4953 23.7542 50.545 23.6375C50.6112 23.5375 50.7274 23.4542 50.893 23.4042C50.9923 23.3708 51.0746 23.3875 51.1574 23.4208C51.2401 23.4708 51.2898 23.5375 51.3229 23.6375L51.5381 24.3583L52.4029 24.1083C52.5684 24.6917 52.6346 25.2458 52.7505 25.8625L52.4029 25.9292L52.287 25.3125C52.2705 25.2458 52.2374 25.1958 52.1877 25.1458C52.1381 25.1125 52.0884 25.0958 52.0388 25.1125C51.8401 25.1458 51.6415 25.2958 51.4594 25.5458C51.3932 25.6292 51.327 25.7458 51.2443 25.9125C51.2774 25.9292 51.3105 25.9792 51.3436 26.0458C51.3932 26.1292 51.4102 26.1958 51.4102 26.2625C51.4268 26.3792 51.4263 26.4292 51.4263 26.4625C51.4098 26.5292 51.3767 26.5625 51.327 26.5792C51.2608 26.5958 51.1781 26.5458 51.0953 26.4458C51.0126 26.3458 50.9629 26.2292 50.9298 26.1125C50.8967 25.8958 50.9137 25.7125 50.9799 25.5292C51.0461 25.3458 51.145 25.2125 51.2774 25.1458L51.0788 24.9958C50.996 25.0125 50.8967 25.1458 50.7477 25.3958C50.5491 25.7125 50.4829 25.9958 50.5326 26.2833C50.5657 26.45 50.6484 26.6 50.7974 26.7167C50.9463 26.85 51.1284 26.9 51.3105 26.8667C51.476 26.8333 51.6084 26.7333 51.7077 26.5833C51.7905 26.4333 51.8236 26.2667 51.7905 26.1C51.7739 26.0333 51.7574 25.95 51.7077 25.8667C51.6746 25.8 51.6581 25.75 51.625 25.7333C51.6415 25.7 51.6581 25.6667 51.6912 25.6167C51.7243 25.5667 51.7578 25.55 51.8074 25.5333C51.9068 25.55 51.956 25.5833 51.9726 25.65L52.1215 26.4208L52.8374 26.2708L52.9367 26.8042L53.3505 26.7375C53.1519 25.7333 53.036 24.7958 52.7712 23.8625C52.887 23.7458 52.9863 23.6458 53.0526 23.5625C53.2843 23.3292 53.4502 23.1292 53.5826 22.9625C53.6819 22.8292 53.7146 22.6792 53.6815 22.5292L53.5326 21.9458L53.1188 22.2458C53.1188 22.2458 53.1519 22.3292 53.2015 22.4292C53.2346 22.5458 53.2677 22.6458 53.2843 22.7292C53.3008 22.7958 53.3008 22.8458 53.3008 22.9125C53.2843 22.9625 53.2677 23.0125 53.2181 23.0625L52.7215 23.6792C52.3739 22.475 52.2088 21.8917 51.6088 20.5167C51.4268 20.0833 51.1619 19.6625 50.9964 19.2292C51.013 19.1625 51.0291 19.1125 51.0457 19.0792C51.0788 18.9792 51.145 18.9125 51.2112 18.8792C51.3436 18.8125 51.4594 18.8125 51.5753 18.8792C51.6912 18.9458 51.807 19.0792 51.8898 19.2458C52.0057 19.4958 52.0719 19.7792 52.0553 20.1C52.0388 20.55 51.9891 20.8208 51.8898 20.9208L52.0719 20.9875C52.105 20.8542 52.1381 20.7375 52.1877 20.6042C52.2539 20.2875 52.3036 20.0042 52.3036 19.75C52.3036 19.3833 52.2539 19.0625 52.1215 18.7958C52.0222 18.6125 51.9063 18.4792 51.7574 18.4292C51.6084 18.3792 51.4594 18.3792 51.3105 18.4625C51.2939 18.4625 51.2774 18.4792 51.2608 18.4792C51.145 18.5458 51.0457 18.6458 50.9629 18.7792C50.9132 18.8625 50.8801 18.9292 50.8801 18.9792L50.4663 18.175C49.7836 17.1042 49.2374 16.1833 48.5712 15.3833L48.5877 15.3667ZM6.93536 23.7292L7.03475 23.8958C6.91889 23.9125 6.70371 24.0958 6.42233 24.4292C6.20716 24.6792 6.07479 24.9458 6.02513 25.2167C5.99203 25.4 5.99203 25.5667 6.05824 25.7C6.10789 25.8333 6.19053 25.9 6.33949 25.9333C6.4057 25.95 6.50509 25.9333 6.6044 25.8667C6.62096 25.85 6.67069 25.8333 6.72035 25.7833L6.83613 25.1625L6.80302 25.1458L7.31621 23.0542L7.73 23.1542L7.59747 23.6708L8.41272 23.8875L8.2141 24.675C8.181 24.775 8.19759 24.8583 8.2638 24.925C8.31345 24.975 8.39605 25.025 8.51191 25.0583C8.62777 25.0917 8.7272 25.0583 8.84307 24.9917C8.95893 24.925 9.04173 24.825 9.07483 24.7083C9.07483 24.675 9.07483 24.6417 9.09138 24.6083V24.4917H9.05824C9.00858 24.5083 8.9588 24.5083 8.90915 24.4917C8.84294 24.475 8.77678 24.425 8.74367 24.3417C8.71057 24.275 8.71057 24.1917 8.72712 24.1083C8.74367 24.025 8.79345 23.9583 8.87621 23.9083C8.94242 23.8583 9.02501 23.8417 9.10777 23.875C9.22363 23.8917 9.30643 23.925 9.37264 23.9917C9.43885 24.0417 9.47207 24.0917 9.48862 24.1583L10.0513 23.975L9.95191 24.325L9.52156 24.375C9.52156 24.4417 9.50518 24.4917 9.50518 24.525C9.50518 24.5583 9.48862 24.6083 9.48862 24.6417C9.42242 24.875 9.25678 25.0583 8.95885 25.1917C8.66091 25.3417 8.39621 25.3917 8.16035 25.325C8.02794 25.2917 7.91195 25.225 7.82919 25.125C7.74643 25.025 7.71345 24.9083 7.74656 24.7917L7.87889 24.2417L7.48169 24.1417L7.24992 25.1292H7.26651L7.16708 25.6792L8.90915 26.0125C8.99191 26.0292 9.05828 26.0125 9.09138 25.9792C9.10794 25.9458 9.12436 25.8958 9.15747 25.8125C9.15747 25.8125 9.15747 25.7958 9.17402 25.7625L9.43893 25.8125L9.27345 26.65L7.06363 26.2167L6.981 26.6L6.5672 26.5167L6.66643 26.05C6.61678 26.0833 6.56712 26.1167 6.46781 26.15C6.31885 26.2167 6.18643 26.2333 6.05402 26.2167C6.03747 26.2 6.02087 26.2 6.00432 26.2C5.8388 26.1667 5.72298 26.0833 5.64022 25.95C5.55747 25.8167 5.52449 25.6333 5.57414 25.4167C5.6238 25.1333 5.7726 24.85 6.00432 24.5625C6.16984 24.3625 6.36862 24.1625 6.6169 23.9625C6.71621 23.8958 6.83199 23.8125 6.9313 23.7292H6.93536Z" fill="#0D0F8C"/>
<path fill-rule="evenodd" clip-rule="evenodd" d="M29.9922 14.5708C38.3963 14.5708 45.2527 21.4792 45.2527 29.9208C45.2527 38.3625 38.3922 45.2708 29.9922 45.2708C21.5922 45.2708 14.7646 38.3625 14.7646 29.9208C14.7646 21.4792 21.6087 14.5708 29.9922 14.5708ZM42.8779 25.1917C42.8779 25.125 42.7455 25.125 42.6462 25.075C42.5469 24.9917 42.4968 24.825 42.3975 24.7917C42.1161 24.7917 41.8186 24.8583 41.8186 24.8583C41.8517 24.6583 41.8848 24.4917 41.8848 24.3583C41.769 24.3583 41.62 24.4417 41.4214 24.4417C41.4214 24.3917 41.62 24.2083 41.62 24.2083C41.2556 24.2083 41.09 24.6417 40.9866 24.6417C40.5231 24.4917 40.6059 24.2083 40.4073 24.2083C40.0432 24.2083 39.8942 24.5583 39.6418 24.6417C39.2445 24.8583 39.4431 25.2625 39.2445 25.3625C39.2445 25.4625 39.2777 25.5625 39.2777 25.6292C39.1287 25.5625 39.0294 25.5625 38.9301 25.5625C38.8474 25.5958 38.7812 25.6292 38.7315 25.6292V25.9292C38.8143 25.9458 38.8474 25.9458 38.9301 26.0625V26.3292C38.7315 26.3292 38.5162 26.1958 38.2969 26.1958C38.0156 26.3958 37.9494 26.4458 37.9162 26.4458C37.8666 26.4458 37.9163 26.3292 37.5687 26.3292C37.3867 26.3292 37.3205 26.1958 37.155 26.1958C37.0556 26.1958 36.9564 26.2292 36.824 26.2958C36.6088 26.0958 36.4267 26.0958 36.3274 26.0958C36.0956 26.0125 36.0792 25.375 35.9964 25.3583C35.8971 25.3583 35.5494 25.425 35.4169 25.5583V25.9417C35.4169 26.1917 35.6487 26.4917 35.6487 26.4917C35.3508 26.675 35.1688 26.7583 35.0157 26.7583C34.7509 26.7583 34.5852 26.575 34.3493 26.575C34.25 26.575 34.0515 26.675 33.6832 26.675C33.2859 26.675 33.1536 26.725 33.1536 26.725C33.0378 26.675 32.839 26.1417 32.5204 26.0542C32.2721 26.0542 32.0735 26.1875 31.8377 26.1875C31.7384 26.1875 31.6887 26.1375 31.5728 26.1375C31.3742 26.0542 31.1756 25.8875 30.9769 25.7875C30.7783 25.7875 30.6294 25.7875 30.4474 25.7542C30.017 25.7042 29.7647 25.6208 29.5826 25.5208C29.3343 25.5208 29.3012 25.4208 29.3012 25.2542C29.3012 25.0875 29.4833 24.8542 29.5329 24.6333C29.5329 24.45 29.4666 24.2833 29.4666 24.0833C29.6156 23.95 29.6156 23.8167 29.6156 23.5667C29.5659 23.5167 29.4831 23.4667 29.4335 23.4333C29.268 23.3833 29.0529 23.3833 28.9371 23.3667C28.7053 23.2667 28.6226 23.1333 28.5067 23C28.4405 23.0833 28.2418 23.1667 28.1756 23.1667C28.2087 23.1333 28.2418 23 28.2418 22.85C28.1425 22.8 27.9771 22.8 27.8943 22.7C27.8943 22.6 27.9935 22.5 27.9935 22.45C27.9935 22.3167 27.8943 22.3 27.8943 22.2333C27.8943 22.2333 28.0764 22.1 28.0764 22.0667C28.2419 22.0667 28.2419 22.2667 28.3081 22.2667C28.4405 22.2667 28.4736 22.1333 28.4736 22.0167C28.4736 21.8833 28.7053 21.9667 28.7053 21.8H28.4073C28.2418 21.6667 28.1424 21.6333 28.1424 21.4667C28.1424 21.2333 28.4404 21.3 28.4404 21.2333C28.4073 21.1 28.1756 21.0667 28.1756 21C28.2418 20.8667 28.5231 20.85 28.5728 20.75C28.6059 20.6333 28.9039 20.6 29.0528 20.0292C29.0528 20.0292 29.3343 19.6792 29.3343 19.5125C29.235 19.3125 28.9537 19.2625 28.9537 19.2625C28.8709 19.3458 28.8047 19.3625 28.7385 19.3625C28.5233 19.3625 28.4404 19.2125 28.4073 19.1458C28.2418 19.1458 28.1094 19.3625 27.9935 19.3958C27.4639 19.4625 27.1784 19.8958 27.1784 19.8958C27.1122 19.8958 27.1122 19.7958 27.1122 19.3958C27.0791 19.2625 26.5992 19.3958 26.5661 19.2625V18.9292C26.5661 18.9292 24.9728 18.3458 24.588 18.2417C24.439 18.2417 24.4391 18.575 23.9218 18.7417C23.7232 18.775 23.5246 18.775 23.5081 18.875V19.3917C23.6239 19.5083 23.9549 19.3917 24.0542 19.5417C24.1535 19.6417 24.1866 19.825 24.2859 19.875C24.4349 19.9917 24.6832 19.9917 24.6832 19.9917C24.617 20.5583 24.3853 20.5583 24.3853 20.5583C24.286 20.7583 24.1868 20.7917 24.1868 20.8417C24.1868 20.8917 24.2362 20.9583 24.4183 21.1917C24.4348 21.2417 24.5177 21.8625 24.7163 22.0125C24.948 22.0125 25.0638 21.7625 25.0638 21.7625C25.0638 21.7625 25.1468 22.0625 25.2295 22.1958V22.4125C24.9481 22.5292 24.8984 22.6958 24.8984 23.1667C24.6501 23.2667 24.4846 23.3833 24.4846 23.5833C24.4846 23.7667 24.7163 24 24.7163 24L24.2859 24.2C24.2859 24.2 24.584 24.25 24.584 24.4333C24.584 24.65 24.1866 25.0167 22.3907 25.6208C22.2087 25.6542 22.1757 25.8042 22.0764 25.8042C21.9109 25.8042 21.8778 25.5208 21.6791 25.5208C21.6129 25.5208 21.5466 25.7042 21.3977 25.7875C21.2487 25.9208 20.7481 26.1375 20.7481 26.575C21.4474 26.575 21.5466 26.575 21.5466 26.6583C21.5466 26.825 21.348 26.9583 21.348 27.1583C21.348 27.3917 21.5797 27.2583 21.7452 27.3917C21.8114 27.4083 21.8116 27.5583 21.9109 27.6417C22.1261 27.8417 22.2418 27.9417 22.2418 28.0417C22.2418 28.1417 21.9605 28.175 21.646 28.3083C21.5467 28.375 21.3812 28.375 21.0502 28.375C20.6198 28.3417 20.3342 28.275 20.2515 28.275C20.1853 28.3083 20.0859 28.375 20.0528 28.4417C19.9535 28.4583 19.9039 28.5083 19.8211 28.5583C19.8211 28.5583 19.6555 28.7083 19.5562 28.7583V28.9583C19.5562 29.025 19.6059 29.075 19.6225 29.075C19.7549 29.075 19.937 28.9417 20.086 28.8917L19.788 29.2917C19.9038 29.425 20.384 29.7583 20.8847 29.7583C21.1495 29.7583 21.497 29.625 21.6832 29.625C21.2859 29.925 20.8846 30.1917 20.6198 30.2417C20.6198 30.2417 20.5866 30.1583 20.5204 30.1583H20.2886C20.2886 30.3917 21.0211 31.5125 21.9149 31.5125C22.5646 31.5125 22.9454 30.5917 22.9454 30.5917C22.9454 30.5917 23.6612 34.8042 23.8101 35.475C24.0087 36.6792 24.6916 37.6167 24.824 37.8667C25.0061 38.25 24.9066 38.6042 25.337 39.1708C25.7673 39.9417 25.8998 40.0917 26.1025 40.2917C26.235 40.5417 26.3343 40.675 26.3343 40.675C26.3343 41.3458 26.4666 42.9 27.1825 42.9C27.8984 42.9 27.8156 41.9458 28.1135 41.9458C28.2128 41.8792 28.279 41.8792 28.4776 41.6958C28.5273 41.6458 28.5109 41.1125 28.8419 40.725C28.875 40.675 28.8417 40.4417 28.8748 40.3917L29.1894 40.3083C29.1398 40.0083 29.1066 39.8083 29.1066 39.6542C29.1066 38.9333 29.5369 38.9333 29.5369 37.8333C29.4707 37.8333 29.3052 37.5333 29.3052 37.0792C29.2721 36.9792 29.2391 36.8458 29.2391 36.7125C29.2391 36.4458 29.3384 36.1625 29.5867 36.025C29.8681 36.025 30.017 36.1583 30.199 36.1583H30.3811C30.348 36.0083 30.2985 35.9083 30.2985 35.8083C30.2985 35.7417 30.348 35.6417 30.53 35.525C31.3617 35.3917 31.544 35.2417 31.6102 35.1417C31.6102 35.0917 31.4776 35.1083 31.4776 35.0417C32.0404 34.6083 32.4253 34.2708 32.657 33.7875C32.9384 33.3208 32.9052 33.3542 33.5714 33.0167C33.4721 33.0167 33.4722 32.8833 33.4722 32.8167C33.6709 32.8167 33.5715 32.95 33.6709 32.95C34.1012 32.95 34.3205 32.9167 34.4198 32.6167C34.486 32.55 34.7509 32.1833 34.8502 32.05C34.6516 31.85 34.635 31.6167 34.635 31.6167C35.2681 31.6167 35.268 30.6292 35.268 30.6292C35.268 30.7458 35.2681 30.8792 35.3509 30.9625H35.4666C35.5494 30.8625 35.6156 30.8625 35.6653 30.8625C35.6984 30.8625 35.7481 30.9292 35.7812 30.9292C35.8143 30.9292 35.8142 30.8792 35.8473 30.8292C35.8473 30.8292 35.8804 31.0625 36.079 31.0625C36.079 30.8792 36.0792 30.7292 35.9799 30.6292C35.9468 30.5625 35.8969 30.4458 35.8473 30.3625V30.1625C35.8142 29.9125 35.6156 30.0625 35.6156 29.9125C35.6156 29.6292 35.8473 28.8417 35.8473 28.8417C35.9466 28.7417 35.8971 28.7417 35.9799 28.7083C35.8474 28.7083 35.8804 28.8083 35.8473 28.8083C35.6487 28.7083 35.5495 28.7083 35.5495 28.6583C35.566 28.5417 35.5661 28.4417 35.5661 28.4417C35.6985 28.4417 35.6984 28.3083 35.9467 28.3083C35.9964 28.2417 36.0459 28.0417 36.079 28.025C36.1784 27.9417 36.4266 27.9917 36.4266 27.9417C36.3272 27.8417 36.4101 27.6917 36.3108 27.6083C36.195 27.5583 36.0792 27.5583 35.9964 27.5583C35.8971 27.3917 35.7812 27.3083 35.7812 27.2583C35.8143 27.075 35.9797 26.825 36.079 26.825C36.079 26.825 36.2446 26.925 36.3274 26.925C36.4267 26.925 36.4763 26.775 36.526 26.775C36.6253 26.8583 36.7247 27.075 36.8074 27.1083C36.8571 27.1083 36.9398 27.0583 36.9563 27.0083C37.006 27.1083 37.0556 27.2917 37.1384 27.3583C37.2543 27.4083 37.3205 27.4083 37.3536 27.4083C37.3536 27.4083 37.4362 27.575 37.4694 27.6917C37.4694 27.7417 37.4364 27.8083 37.3867 27.8083C37.4695 27.775 37.486 27.775 37.8171 27.7417C38.0984 27.7417 38.5495 27.775 39.4102 27.875C39.4102 27.875 39.5094 28.025 39.5094 28.075C39.5094 28.1417 39.4599 28.175 39.4102 28.175C39.344 28.3417 38.8143 28.175 38.595 28.4417C38.2143 28.5583 38.2474 28.8917 38.2143 28.8917C38.2143 28.8917 38.3798 28.9583 38.446 29.025C38.5453 29.0917 38.4956 29.275 38.595 29.2917C38.7274 29.325 38.7273 29.4917 38.7273 29.4917C38.9259 29.1917 38.926 28.9583 39.0253 28.8375H39.2405C39.2405 28.8375 39.3562 28.9542 39.3562 29.0875V29.4875C39.3562 29.6208 39.5054 29.7042 39.5054 29.8208V30.2875C39.555 30.2375 39.6046 30.1875 39.6543 30.1875C39.737 30.1875 39.7867 30.2542 39.8695 30.3375C39.886 30.3375 40.035 30.1542 40.035 30.0042C40.035 29.9042 39.886 29.7542 39.886 29.6208C39.886 29.5708 40.1342 29.6042 40.1838 29.4875C40.2169 29.4208 40.1839 29.2708 40.217 29.2208C40.1673 29.2208 40.035 29.1375 40.035 28.9542C40.0681 28.8875 40.1342 28.8875 40.217 28.8875C40.3494 28.8875 40.4983 28.9542 40.5976 28.9542C40.6473 28.9542 40.6971 28.9375 40.6971 28.8542C40.6971 28.4042 40.846 28.2375 41.0777 27.9833C41.0777 27.9333 40.9454 27.8333 40.9454 27.6833C40.9454 27.6 40.9784 27.55 41.0446 27.4833C41.1273 27.2833 41.0445 26.9667 41.2266 26.7625C41.3259 26.6458 41.5409 26.6458 41.6568 26.5292C41.7727 26.4125 41.7727 26.2125 41.872 26.1292C41.9713 26.0458 42.0545 25.9958 42.1372 25.9958C42.3855 25.9958 42.6003 26.1792 42.803 26.1792C42.803 25.9125 42.6375 25.6958 42.6044 25.5083C42.6044 25.3583 42.8034 25.275 42.8696 25.175L42.8779 25.1917Z" fill="#0D0F8C"/>
<path fill-rule="evenodd" clip-rule="evenodd" d="M29.992 13.4333C32.2513 13.4333 34.3948 13.9 36.3521 14.7375C38.3134 15.575 40.0721 16.7792 41.566 18.2833C43.0433 19.7708 44.2553 21.5458 45.0704 23.5167C45.9022 25.4917 46.3656 27.6625 46.3656 29.9208C46.3656 32.1792 45.9022 34.3542 45.0704 36.325C44.2553 38.3 43.0433 40.0708 41.566 41.575C40.0721 43.0625 38.3093 44.2667 36.3521 45.1042C34.3907 45.9417 32.2513 46.4083 29.992 46.4083C27.7327 46.4083 25.5892 45.9417 23.6319 45.1042C21.6706 44.2667 19.9119 43.0625 18.4347 41.575C16.9575 40.0708 15.7451 38.2958 14.9134 36.325C14.0817 34.35 13.6183 32.1958 13.6183 29.9208C13.6183 27.6458 14.0817 25.4875 14.9134 23.5167C15.7451 21.5417 16.9575 19.7708 18.4347 18.2833C19.9119 16.7792 21.6747 15.575 23.6319 14.7375C25.5933 13.9 27.7327 13.4333 29.992 13.4333ZM29.992 12.8C32.3341 12.8 34.5769 13.2833 36.6004 14.1542C38.6445 15.025 40.4691 16.2792 42.0125 17.8333C43.556 19.3708 44.8015 21.2292 45.6663 23.2833C46.5311 25.325 46.9946 27.5625 46.9946 29.9208C46.9946 32.2792 46.5311 34.5208 45.6663 36.575C44.8015 38.6167 43.556 40.4708 42.0125 42.0083C40.4691 43.5625 38.6404 44.8333 36.6004 45.6875C34.5728 46.5583 32.3341 47.0417 29.992 47.0417C27.6499 47.0417 25.4237 46.5583 23.4002 45.6875C21.3726 44.8333 19.5314 43.5625 17.988 42.0083C16.4611 40.4708 15.199 38.6125 14.3341 36.575C13.4693 34.5167 13.0059 32.2792 13.0059 29.9208C13.0059 27.5625 13.4693 25.3208 14.3341 23.2833C15.199 21.225 16.4611 19.3708 17.988 17.8333C19.5314 16.2792 21.3768 15.025 23.4002 14.1542C25.4278 13.2833 27.6499 12.8 29.992 12.8Z" fill="#0D0F8C"/>
<path fill-rule="evenodd" clip-rule="evenodd" d="M29.9927 11.175C40.2547 11.175 48.6095 19.6042 48.6095 29.9209C48.6095 40.2375 40.2547 48.6667 29.9927 48.6667C19.7306 48.6667 11.3926 40.2375 11.3926 29.9209C11.3926 19.6042 19.7637 11.175 29.9927 11.175ZM29.9927 11.9125C39.8575 11.9125 47.8973 20.0084 47.8973 29.925C47.8973 39.8417 39.8575 47.9375 29.9927 47.9375C20.1278 47.9375 12.1044 39.8417 12.1044 29.925C12.1044 20.0084 20.1444 11.9125 29.9927 11.9125Z" fill="#0D0F8C"/>
<path fill-rule="evenodd" clip-rule="evenodd" d="M29.9916 3.11666L31.3529 3.14999L32.7143 3.24999L34.0426 3.41666L35.3543 3.64999L36.6494 3.94999L37.9116 4.31667L39.1404 4.75L40.3529 5.21667L41.5325 5.75L42.6787 6.35L43.8083 7.00417L44.8714 7.69166L45.9187 8.44583L46.932 9.23333L47.8962 10.0875L48.8272 10.975L49.692 11.8958L50.5407 12.8833L51.3224 13.8875L52.0714 14.9417L52.7707 16.0292L53.4207 17.15L53.9996 18.3042L54.5458 19.4917L55.0093 20.7125L55.4396 21.9667L55.7872 23.2375L56.0856 24.5417L56.3173 25.8625L56.4994 27.2L56.5983 28.5542L56.6314 29.925L56.5983 31.2958L56.4994 32.65L56.3173 33.9875L56.0856 35.3083L55.7872 36.6125L55.4396 37.8833L55.0093 39.1208L54.5458 40.3417L53.9996 41.5292L53.4207 42.7L52.7707 43.8208L52.0714 44.9083L51.3224 45.9625L50.5407 46.9667L49.692 47.9375L48.8272 48.875L47.8962 49.7625L46.932 50.6L45.9187 51.4042L44.8714 52.1417L43.8083 52.8458L42.6787 53.5L41.5325 54.0833L40.3529 54.6333L39.1404 55.1167L37.9116 55.5333L36.6494 55.9L35.3543 56.1833L34.0426 56.4333L32.7143 56.6L31.3529 56.7L29.9916 56.7333L28.6301 56.7L27.2853 56.6L25.9571 56.4333L24.6454 56.1833L23.3668 55.9L22.1046 55.5333L20.8592 55.1167L19.6467 54.6333L18.4674 54.0833L17.3212 53.5L16.2081 52.8458L15.1281 52.1417L14.0811 51.4042L13.084 50.6L12.1033 49.7625L11.1888 48.875L10.3075 47.9375L9.45911 46.9667L8.67716 45.9625L7.92816 44.9083L7.22889 43.8208L6.59566 42.7L5.99984 41.5292L5.47027 40.3417L4.99018 39.1208L4.57639 37.8833L4.21234 36.6125L3.9143 35.3083L3.68255 33.9875L3.50051 32.65L3.4013 31.2958L3.36816 29.925L3.4013 28.5542L3.50051 27.2L3.68255 25.8625L3.9143 24.5417L4.21234 23.2375L4.57639 21.9667L4.99018 20.7125L5.47027 19.4917L5.99984 18.3042L6.59566 17.15L7.22889 16.0292L7.92816 14.9417L8.67716 13.8875L9.45911 12.8833L10.3075 11.8958L11.1888 10.975L12.1033 10.0875L13.084 9.23333L14.0811 8.44583L15.1281 7.69166L16.2081 7.00417L17.3212 6.35L18.4674 5.75L19.6467 5.21667L20.8592 4.75L22.1046 4.31667L23.3668 3.94999L24.6454 3.64999L25.9571 3.41666L27.2853 3.24999L28.6301 3.14999L29.9916 3.11666ZM29.9916 3.80416L31.3198 3.83749L32.6315 3.93749L33.9432 4.10416L35.2054 4.3375L36.4674 4.62083L37.6964 4.9875L38.9087 5.40417L40.0881 5.87083L41.2343 6.3875L42.3638 6.97083L43.4442 7.59167L44.4911 8.27917L45.5049 9.01667L46.4851 9.7875L47.4327 10.6083L48.3307 11.4792L49.1959 12.3833L50.0107 13.3208L50.7762 14.3083L51.5086 15.3292L52.1914 16.4L52.8038 17.4875L53.3831 18.625L53.8962 19.7792L54.36 20.9667L54.7738 22.1875L55.121 23.4083L55.4194 24.6792L55.6345 25.9667L55.8 27.2708L55.8989 28.5917L55.932 29.9292L55.8989 31.2667L55.8 32.5708L55.6345 33.8917L55.4194 35.1625L55.121 36.4333L54.7738 37.6708L54.36 38.8917L53.8962 40.0792L53.3831 41.2333L52.8038 42.3708L52.1914 43.4583L51.5086 44.5125L50.7762 45.55L50.0107 46.5208L49.1959 47.475L48.3307 48.3792L47.4327 49.25L46.4851 50.0708L45.5049 50.8583L44.4911 51.5792L43.4442 52.2667L42.3638 52.8833L41.2343 53.4667L40.0881 53.9833L38.9087 54.45L37.6964 54.8667L36.4674 55.2167L35.2054 55.5167L33.9432 55.7333L32.6315 55.9L31.3198 56L29.9916 56.0333L28.6633 56L27.3516 55.9L26.0565 55.7333L24.7943 55.5167L23.5323 55.2167L22.3032 54.8667L21.091 54.45L19.9282 53.9833L18.7654 53.4667L17.6523 52.8833L16.5722 52.2667L15.5088 51.5792L14.4949 50.8583L13.5144 50.0708L12.5668 49.25L11.6689 48.3792L10.8205 47.475L10.0054 46.5208L9.22329 45.55L8.50742 44.5125L7.82471 43.4583L7.19152 42.3708L6.6288 41.2333L6.09923 40.0792L5.65229 38.8917L5.22195 37.6708L4.87424 36.4333L4.59298 35.1625L4.36122 33.8917L4.19574 32.5708L4.09634 31.2667L4.06321 29.9292L4.09634 28.5917L4.19574 27.2708L4.36122 25.9667L4.59298 24.6792L4.87424 23.4083L5.22195 22.1875L5.65229 20.9667L6.09923 19.7792L6.6288 18.625L7.19152 17.4875L7.82471 16.4L8.50742 15.3292L9.22329 14.3083L10.0054 13.3208L10.8205 12.3833L11.6689 11.4792L12.5668 10.6083L13.5144 9.7875L14.4949 9.01667L15.5088 8.27917L16.5722 7.59167L17.6523 6.97083L18.7654 6.3875L19.9282 5.87083L21.091 5.40417L22.3032 4.9875L23.5323 4.62083L24.7943 4.3375L26.0565 4.10416L27.3516 3.93749L28.6633 3.83749L29.9916 3.80416Z" fill="#0D0F8C"/>
<path fill-rule="evenodd" clip-rule="evenodd" d="M29.9921 2.44586L31.3866 2.47919L32.7646 2.57919L34.1423 2.76252L35.4871 2.99586L36.7991 3.31252L38.1107 3.67919L39.3727 4.11252L40.6018 4.59588L41.8141 5.16254L42.9935 5.76254L44.1397 6.43338L45.2528 7.13754L46.3162 7.90838L47.3466 8.72921L48.3438 9.60004L49.2914 10.5042L50.1893 11.4584L51.0541 12.4459L51.8528 13.5L52.6348 14.5709L53.3341 15.6917L54.0004 16.8292L54.5962 18.0167L55.1424 19.2375L55.6224 20.4917L56.0528 21.7625L56.4335 23.0667L56.7314 24.4042L56.9797 25.7584L57.1452 27.1292L57.261 28.5167L57.2941 29.9209L57.261 31.325L57.1452 32.7125L56.9797 34.0834L56.7314 35.4375L56.4335 36.775L56.0528 38.0792L55.6224 39.35L55.1424 40.6042L54.5962 41.825L54.0004 42.9958L53.3341 44.1667L52.6348 45.2708L51.8528 46.3583L51.0541 47.3792L50.1893 48.3833L49.2914 49.3375L48.3438 50.2417L47.3466 51.1125L46.3162 51.9333L45.2528 52.6875L44.1397 53.4083L42.9935 54.0792L41.8141 54.6958L40.6018 55.2292L39.3727 55.7292L38.1107 56.1625L36.7991 56.5292L35.4871 56.8292L34.1423 57.0792L32.7646 57.2458L31.3866 57.3625L29.9921 57.3958L28.5975 57.3625L27.2196 57.2458L25.8584 57.0792L24.5135 56.8292L23.2016 56.5292L21.9065 56.1625L20.6445 55.7292L19.3989 55.2292L18.1866 54.6958L17.0073 54.0792L15.8611 53.4083L14.7646 52.6875L13.6844 51.9333L12.6542 51.1125L11.6569 50.2417L10.7258 49.3375L9.81134 48.3833L8.96315 47.3792L8.14789 46.3583L7.38233 45.2708L6.68306 44.1667L6.0169 42.9958L5.40448 41.825L4.85836 40.6042L4.37832 39.35L3.94794 38.0792L3.56728 36.775L3.26926 35.4375L3.03751 34.0834L2.85547 32.7125L2.73969 31.325L2.70656 29.9209L2.73969 28.5167L2.85547 27.1292L3.03751 25.7584L3.26926 24.4042L3.56728 23.0667L3.94794 21.7625L4.37832 20.4917L4.85836 19.2375L5.40448 18.0167L6.0169 16.8292L6.68306 15.6917L7.38233 14.5709L8.14789 13.5L8.96315 12.4459L9.81134 11.4584L10.7258 10.5042L11.6569 9.60004L12.6542 8.72921L13.6844 7.90838L14.7646 7.13754L15.8611 6.43338L17.0073 5.76254L18.1866 5.16254L19.3989 4.59588L20.6445 4.11252L21.9065 3.67919L23.2016 3.31252L24.5135 2.99586L25.8584 2.76252L27.2196 2.57919L28.5975 2.47919L29.9921 2.44586ZM29.9921 1.84586L31.4197 1.87919L32.8306 1.97919L34.2251 2.16252L35.6031 2.41252L36.9645 2.72919L38.2762 3.09586L39.5713 3.54586L40.8335 4.06252L42.079 4.61254L43.2914 5.22921L44.4541 5.91671L45.5838 6.65421L46.6803 7.42504L47.7272 8.26254L48.741 9.15004L49.7052 10.0709L50.6197 11.0584L51.501 12.0625L52.3328 13.1334L53.1148 14.2375L53.8472 15.375L54.5135 16.5459L55.1259 17.75L55.6886 19.0042L56.1852 20.275L56.6321 21.5959L57.0128 22.9167L57.3107 24.2875L57.559 25.6584L57.741 27.0625L57.8569 28.4834L57.89 29.9209L57.8569 31.3584L57.741 32.7792L57.559 34.1667L57.3107 35.5542L57.0128 36.925L56.6321 38.2625L56.1852 39.5667L55.6886 40.8375L55.1259 42.075L54.5135 43.2958L53.8472 44.4667L53.1148 45.6042L52.3328 46.7083L51.501 47.7625L50.6197 48.7833L49.7052 49.7542L48.741 50.6917L47.7272 51.5625L46.6803 52.4L45.5838 53.1875L44.4541 53.925L43.2914 54.5958L42.079 55.2333L40.8335 55.8L39.5713 56.3L38.2762 56.7333L36.9645 57.1167L35.6031 57.4333L34.2251 57.6667L32.8306 57.85L31.4197 57.9667L29.9921 58L28.5644 57.9667L27.1535 57.85L25.759 57.6667L24.3975 57.4333L23.0527 57.1167L21.7245 56.7333L20.4294 56.3L19.1672 55.8L17.9217 55.2333L16.7258 54.5958L15.5465 53.925L14.4168 53.1875L13.3369 52.4L12.2735 51.5625L11.2762 50.6917L10.2955 49.7542L9.381 48.7833L8.49966 47.7625L7.66785 46.7083L6.9025 45.6042L6.17004 44.4667L5.48712 43.2958L4.87069 42.075L4.30797 40.8375L3.81136 39.5667L3.36443 38.2625L3.00034 36.925L2.68595 35.5542L2.43763 34.1667L2.25559 32.7792L2.15618 31.3584L2.12305 29.9209L2.15618 28.4834L2.25559 27.0625L2.43763 25.6584L2.68595 24.2875L3.00034 22.9167L3.36443 21.5959L3.81136 20.275L4.30797 19.0042L4.87069 17.75L5.48712 16.5459L6.17004 15.375L6.9025 14.2375L7.66785 13.1334L8.49966 12.0625L9.381 11.0584L10.2955 10.0709L11.2762 9.15004L12.2735 8.26254L13.3369 7.42504L14.4168 6.65421L15.5465 5.91671L16.7258 5.22921L17.9217 4.61254L19.1672 4.06252L20.4294 3.54586L21.7245 3.09586L23.0527 2.72919L24.3975 2.41252L25.759 2.16252L27.1535 1.97919L28.5644 1.87919L29.9921 1.84586Z" fill="#0D0F8C"/>
</g>
<defs>
<clipPath id="clip0_20_261">
<rect width="60" height="60" fill="white"/>
</clipPath>
</defs>
</svg>
