<svg width="141" height="54" viewBox="0 0 141 54" fill="none" xmlns="http://www.w3.org/2000/svg">
<g clip-path="url(#clip0_20_301)">
<path d="M63.716 0.41494C89.1979 0.41494 114.68 0.414941 140.162 0.397888C140.654 0.397888 140.722 0.52294 140.717 0.977677C140.705 18.4452 140.705 35.9129 140.717 53.3804C140.717 53.8466 140.637 53.9545 140.15 53.9545C106.99 53.9375 73.8238 53.9431 40.6632 53.9431C40.5217 53.4941 40.7368 53.0962 40.901 52.7211C41.773 50.6691 42.6847 48.6284 43.5681 46.5821C44.5704 44.2516 45.55 41.904 46.558 39.5734C47.5829 37.2032 48.6362 34.8499 49.6668 32.4795C50.9579 29.5124 52.2264 26.5282 53.5344 23.5667C54.4178 21.5602 55.2671 19.5366 56.1449 17.5301C56.7679 16.1091 57.4418 14.7051 58.0137 13.2613C58.5063 12.0164 59.0443 10.7886 59.5709 9.56086C60.1145 8.29891 60.7035 7.05413 61.2131 5.77518C61.819 4.24041 62.6288 2.79662 63.1554 1.23347C63.263 0.909467 63.3706 0.574098 63.716 0.41494ZM120.275 31.0017C121.56 30.8254 121.979 30.3253 121.956 29.0804C121.956 28.8076 121.922 28.5348 121.905 28.2619C121.888 28.0402 121.934 27.8811 122.211 27.8811C124.295 27.8811 126.385 27.8811 128.468 27.8811C128.678 27.8811 128.791 27.9379 128.78 28.1823C128.763 28.6314 128.769 29.0804 128.78 29.5294C128.78 29.7398 128.672 29.8535 128.514 29.9444C128.321 30.0581 128.191 29.9444 128.055 29.8193C127.868 29.6431 127.721 29.4385 127.608 29.2054C127.443 28.8701 127.189 28.8303 126.962 29.0748C126.707 29.3476 126.424 29.3362 126.107 29.3305C125.252 29.3305 124.391 29.3135 123.536 29.3419C123.044 29.359 122.857 29.6432 123.083 30.0695C123.406 30.6891 123.808 31.2745 124.374 31.7065C124.703 31.9566 124.997 31.8032 125.043 31.3712C125.071 31.0813 124.963 30.7004 125.11 30.5299C125.297 30.3139 125.694 30.4844 125.999 30.4503C126.079 30.4447 126.158 30.4503 126.232 30.4333C126.702 30.3025 127.007 30.4503 127.268 30.8767C127.908 31.9339 128.593 32.9684 129.25 34.02C129.454 34.344 129.68 34.2474 129.89 34.0655C130.094 33.8892 130.609 33.8438 130.343 33.4061C129.952 32.7694 129.522 32.1385 129.023 31.5814C128.752 31.2745 128.78 31.1892 129.097 31.0301C129.975 30.5753 130.037 30.439 129.958 29.4613C129.929 29.1316 129.946 28.7962 129.958 28.4665C129.963 28.2278 129.878 27.8696 130.258 27.8924C130.852 27.9265 131.623 27.5513 131.996 28.1084C132.251 28.4892 132.2 29.2054 131.979 29.6943C131.809 30.0751 131.305 29.7966 130.96 29.8591C130.864 29.8762 130.762 29.8592 130.671 29.8705C130.552 29.8876 130.365 29.808 130.331 30.0012C130.303 30.1661 130.269 30.331 130.422 30.4901C130.705 30.7913 131.022 30.979 131.453 30.9278C131.736 30.8937 131.923 30.9505 131.962 31.3087C132.047 32.0647 132.104 32.8206 132.047 33.5767C132.008 34.0825 132.257 34.1053 132.642 34.1053C133.01 34.1053 133.259 34.1053 133.248 33.5994C133.219 31.8771 133.259 30.1547 133.219 28.4381C133.208 27.9492 133.355 27.8071 133.803 27.8696C134.239 27.9322 134.431 27.7731 134.426 27.2899C134.426 26.7499 134.08 26.8181 133.752 26.8181C129.969 26.8181 126.186 26.8181 122.404 26.8294C121.99 26.8294 121.532 26.8522 121.282 26.4998C120.524 25.4198 119.561 24.5274 118.712 23.5327C118.474 23.2484 118.247 23.095 117.879 23.4133C117.483 23.7543 117.681 23.9647 117.947 24.2147C118.672 24.8968 119.391 25.579 120.105 26.2667C120.241 26.3974 120.495 26.5169 120.433 26.7044C120.365 26.9261 120.093 26.8181 119.912 26.8181C119.057 26.8295 118.179 26.7271 117.347 26.8692C116.747 26.9715 116.362 26.8238 116.045 26.4031C115.269 25.38 114.306 24.5273 113.513 23.5212C113.253 23.1972 112.941 23.203 112.658 23.4531C112.364 23.7089 112.488 24.0328 112.715 24.2147C113.508 24.857 114.182 25.6131 114.906 26.3179C115.025 26.4373 115.263 26.4941 115.184 26.7044C115.105 26.9148 114.878 26.8068 114.719 26.8124C112.556 26.8181 110.393 26.8011 108.23 26.8238C107.856 26.8238 107.267 26.5395 107.25 27.3353C107.233 28.1482 107.822 27.8015 108.202 27.8696C108.258 27.881 108.321 27.8696 108.377 27.8696C109.108 27.864 109.414 28.0857 109.493 28.6825C109.578 29.3249 109.244 29.8193 108.604 29.9558C108.377 30.0012 108.139 29.9899 107.907 29.9899C107.698 29.9899 107.585 30.024 107.647 30.2912C108.055 32.0476 109.374 33.5823 111.599 32.6614C112.018 32.491 112.205 32.4966 112.069 33.0252C112.024 33.2071 112.069 33.4174 112.058 33.6107C112.007 34.1962 112.426 34.0825 112.76 34.0995C113.151 34.1223 113.321 33.9859 113.315 33.5653C113.293 32.1385 113.298 30.7118 113.293 29.285C113.293 27.8469 113.292 27.8583 114.736 27.864C115.184 27.864 115.354 27.9891 115.342 28.4665C115.314 30.1491 115.342 31.8316 115.32 33.5141C115.314 33.9632 115.422 34.128 115.892 34.1223C116.373 34.1167 116.532 33.9688 116.526 33.4686C116.492 31.769 116.515 30.0638 116.492 28.3642C116.492 27.9891 116.588 27.847 116.973 27.8583C117.811 27.8811 118.649 27.8696 119.487 27.8696C120.359 27.8696 120.771 28.3093 120.722 29.1884C120.694 29.6886 120.184 29.9956 119.731 29.7795C119.431 29.6374 119.176 29.4499 119.023 29.1316C118.836 28.7336 118.593 28.7508 118.23 28.9724C117.834 29.2111 117.811 29.484 118.043 29.7853C119.114 31.1665 120.054 32.6388 121.141 34.0087C121.56 34.5373 121.798 34.0711 122.07 33.9234C122.438 33.7244 122.211 33.48 122.036 33.2583C121.469 32.5308 120.909 31.7918 120.297 30.9903L120.275 31.0017ZM80.602 26.8294C78.5578 26.8294 76.5079 26.8294 74.4637 26.8294C73.6823 26.8294 72.9065 26.8181 72.125 26.8294C71.5418 26.8408 71.287 27.1478 71.4512 27.5969C71.5758 27.9265 71.8702 27.8981 72.1364 27.8754C72.5497 27.8412 72.7309 27.9607 72.7196 28.4268C72.6913 30.1491 72.7196 31.8713 72.6913 33.588C72.6856 34.0313 72.8498 34.128 73.2349 34.1166C73.603 34.1109 73.9314 34.1564 73.9144 33.5994C73.8804 32.6614 73.9201 31.7236 73.8974 30.7857C73.8748 29.9899 73.988 29.1941 73.8012 28.3983C73.6992 27.9833 73.9597 27.864 74.3448 27.8696C75.7888 27.8867 77.2327 27.8697 78.671 27.8811C79.3279 27.8811 79.3506 27.9607 79.2996 28.9781C79.2713 29.5807 78.8523 29.4328 78.5408 29.393C77.5272 29.2566 76.5192 29.3476 75.5113 29.3532C75.0186 29.3532 75.03 29.6261 75.1489 30.0183C75.3244 30.6038 75.7774 30.979 76.1342 31.4223C76.3041 31.6326 76.5645 31.8827 76.893 31.7406C77.2044 31.6042 77.0742 31.2859 77.0572 31.0585C77.0119 30.5696 77.2271 30.4332 77.6688 30.4616C78.0595 30.4901 78.4502 30.4958 78.8353 30.4616C79.1977 30.4275 79.3109 30.5356 79.2996 30.9051C79.277 31.8259 79.3109 32.7411 79.2939 33.6619C79.2826 34.2019 79.645 34.1109 79.9735 34.1223C80.3132 34.1336 80.5171 34.0712 80.5114 33.6449C80.4774 31.9453 80.4888 30.24 80.4604 28.5404C80.4548 28.0686 80.619 27.8696 81.1003 27.8696C83.0086 27.8867 84.9226 27.8867 86.8309 27.8696C87.2443 27.8696 87.3972 28.0175 87.3689 28.4211C87.3066 29.3249 86.3156 28.944 85.9589 29.4556C85.8456 29.6147 85.6078 29.5863 85.4492 29.4044C85.1888 29.1145 84.815 29.0463 84.4696 28.9667C83.2408 28.6655 81.6779 29.9899 81.8761 31.1893C82.097 32.5137 83.003 33.3379 84.1185 33.9404C84.4866 34.1393 84.781 33.8892 84.9623 33.5311C85.1661 33.1275 84.8264 33.0707 84.5998 32.9627C83.9373 32.6444 83.4503 32.1556 83.2068 31.4621C82.986 30.8369 83.2918 30.2002 83.8297 30.1206C84.0562 30.0865 84.2941 30.1036 84.5319 30.1093C85.1491 30.1207 85.3643 30.4389 84.9792 30.8936C84.6168 31.32 84.9679 31.4508 85.1718 31.5758C85.4266 31.7293 85.7664 31.9509 85.9589 31.4393C86.1118 31.0358 86.3836 30.7174 86.6837 30.4048C86.8649 30.2115 87.0518 30.1889 87.2556 30.2514C87.4482 30.3139 87.3576 30.5185 87.3576 30.6607C87.3689 31.6383 87.3859 32.616 87.3519 33.5936C87.3349 34.02 87.4708 34.1451 87.8729 34.1223C88.2353 34.0995 88.5637 34.1564 88.5524 33.5936C88.5184 31.8941 88.5524 30.1889 88.5184 28.4893C88.5071 28.0004 88.6373 27.8356 89.13 27.8754C89.6509 27.9152 89.8888 27.5457 89.6792 27.108C89.5377 26.8068 89.2545 26.8294 88.9771 26.8294C86.1911 26.8294 83.3994 26.8294 80.6133 26.8294H80.602ZM97.505 26.8294C96.1007 26.8294 94.6964 26.8294 93.292 26.8294C92.9579 26.8294 92.7144 26.8636 92.7314 27.2899C92.7427 27.6764 92.8447 27.9095 93.2977 27.8981C94.1527 27.8754 95.0135 27.8924 95.8685 27.8867C96.163 27.8867 96.4688 27.8242 96.4858 28.2847C96.5027 28.8019 96.1517 28.7052 95.8459 28.7166C95.4778 28.728 95.1041 28.6995 94.736 28.7451C94.0508 28.8303 93.3883 29.5295 93.5695 30.007C93.8073 30.6436 94.3 31.104 94.8266 31.5133C95.2003 31.8032 95.5967 31.8202 96.0327 31.661C96.2309 31.5871 96.4405 31.6383 96.6556 31.5758C96.9501 31.4905 97.1992 31.5985 97.1936 32.0192C97.1936 32.6899 96.6613 32.8491 96.2366 33.1333C95.8798 33.372 95.6477 33.2071 95.3872 32.9798C95.1664 32.7979 94.9172 32.6501 94.6737 32.4966C94.2264 32.2181 93.8639 32.3545 93.5751 32.7638C93.2864 33.1731 93.4789 33.5027 93.7733 33.7983C94.0961 34.1167 94.4982 34.3042 94.9512 34.344C95.1324 34.361 95.3136 34.3724 95.4325 34.5088C95.8742 35.0147 96.4858 35.3103 96.9727 35.748C97.3125 36.055 97.539 35.9583 97.7712 35.6684C98.026 35.3558 98.0656 35.0431 97.6749 34.793C97.4767 34.668 97.2785 34.5429 97.069 34.4406C96.6726 34.2473 96.5764 34.0768 97.069 33.8779C97.556 33.679 97.9127 33.3209 98.1392 32.8548C98.4394 32.2295 98.479 31.5701 98.0656 30.9903C97.7202 30.5014 97.1709 30.4219 96.6047 30.4844C96.3782 30.5128 96.163 30.6038 95.9365 30.6607C95.5288 30.763 94.9172 30.365 94.8436 29.9614C94.8039 29.7284 94.9002 29.6489 95.1267 29.6545C95.5174 29.6659 95.9082 29.6545 96.2989 29.6545C97.6239 29.6545 97.6409 29.6545 97.6353 28.3585C97.6353 27.9379 97.8051 27.881 98.1562 27.8867C99.3284 27.9038 100.495 27.8868 101.667 27.8981C102.046 27.8981 102.358 27.9094 102.341 27.3638C102.33 26.8409 102.018 26.8351 101.65 26.8351C100.268 26.8351 98.881 26.8351 97.4994 26.8351L97.505 26.8294ZM105.552 29.8534C105.212 30.9164 104.391 31.2518 103.524 30.7232C103.071 30.4503 102.953 30.9278 102.709 31.0926C102.42 31.2859 102.658 31.4678 102.8 31.6042C103.541 32.3147 104.317 32.9969 105.042 33.7244C105.699 34.3838 105.671 34.3951 106.384 33.7755C106.65 33.5482 106.605 33.3436 106.361 33.2356C105.874 33.0253 105.631 32.5592 105.229 32.2636C104.963 32.0647 104.934 31.8998 105.303 31.7293C106.463 31.1836 106.984 30.2229 106.888 28.9667C106.775 27.4889 105.982 26.6419 104.481 26.7215C103.53 26.7727 102.466 27.6764 102.936 28.8701C103.117 29.3305 102.947 29.4328 102.539 29.4158C101.531 29.376 100.518 29.268 99.5096 29.3647C99.0679 29.4101 98.8867 29.7056 99.1019 30.0808C99.419 30.6322 99.7418 31.1779 100.246 31.5985C100.444 31.7633 100.625 31.7918 100.829 31.735C101.067 31.6668 101.033 31.4394 101.044 31.2461C101.078 30.3651 101.089 30.3537 101.99 30.3708C102.245 30.3708 102.499 30.3707 102.749 30.3821C103.066 30.4048 103.355 30.4105 103.338 29.9614C103.332 29.7056 103.553 29.7228 103.666 29.7795C104.278 30.0922 104.9 30.0183 105.552 29.8478V29.8534ZM55.2445 39.7781C55.7938 41.0059 56.3374 42.2052 56.8642 43.4103C57.4418 44.729 58.008 46.0478 58.5743 47.3722C58.7329 47.7417 59.0273 47.7644 59.3444 47.719C59.5879 47.6849 59.7465 47.5598 59.7465 47.2585C59.7351 44.3425 59.7408 41.4266 59.7465 38.5162C59.7465 38.1694 59.5766 38.0614 59.2765 38.0955C58.8857 38.1353 58.982 38.448 58.982 38.6811C58.9707 40.9889 58.9707 43.2967 58.965 45.6044C58.965 45.7295 59.0386 45.9113 58.8688 45.9568C58.6536 46.0136 58.6989 45.792 58.6536 45.6896C57.6173 43.3307 56.5582 40.9832 55.5672 38.6072C55.369 38.1354 55.0915 38.0785 54.7178 38.1183C54.2705 38.1694 54.4178 38.5447 54.4178 38.8118C54.4178 41.5914 54.4178 44.3653 54.4178 47.1449C54.4178 47.4007 54.2591 47.7076 54.7235 47.7303C55.1538 47.7531 55.1935 47.4745 55.1879 47.1675C55.1256 44.9621 55.3182 42.7566 55.086 40.5568C55.0633 40.3238 54.9841 40.0509 55.2559 39.7838L55.2445 39.7781ZM63.1724 26.8294C62.1588 26.8294 61.1451 26.8409 60.1315 26.8238C59.7068 26.8181 59.6219 27 59.6106 27.3922C59.5992 27.8015 59.7691 27.8924 60.1259 27.8924C61.1565 27.881 62.1927 27.8924 63.2233 27.8924C64.1917 27.8924 64.1577 27.8924 64.1973 28.836C64.22 29.3419 64.0274 29.3988 63.5801 29.3817C62.5665 29.3362 61.5529 29.3362 60.5392 29.3532C59.9843 29.3647 59.8484 29.6147 60.0919 30.1035C60.3637 30.6606 60.7318 31.1552 61.1565 31.5929C61.6095 32.0533 61.8643 31.9567 62.0512 31.3712C62.1474 31.0756 61.8417 30.6436 62.2494 30.5015C62.5438 30.3992 62.9062 30.4788 63.2347 30.4788C63.4668 30.4788 63.7047 30.4844 63.9368 30.4788C64.1633 30.4674 64.2596 30.5696 64.2426 30.7913C64.186 31.7235 64.2992 32.6614 64.169 33.5936C64.1294 33.8779 64.1237 34.2076 64.5314 34.2246C64.8995 34.2416 65.4205 34.3724 65.4318 33.787C65.4658 32.1044 65.4714 30.4219 65.4148 28.7393C65.3921 28.0061 65.3582 27.9379 66.083 27.8924C66.4567 27.8696 66.6379 27.7333 66.6379 27.324C66.6379 26.9147 66.4341 26.8295 66.0886 26.8351C65.1147 26.8465 64.1407 26.8351 63.1667 26.8351L63.1724 26.8294ZM71.1397 28.7223C71.2303 27.7901 69.9506 26.568 68.7444 26.6988C67.8837 26.7953 66.9833 27.5911 66.9947 28.3755C67.006 29.2339 67.7478 29.9444 68.6821 29.9899C68.9143 30.0013 69.1465 29.9899 69.3843 29.9899C69.4749 29.9899 69.5995 29.9956 69.6448 30.0524C69.741 30.1775 69.6051 30.2627 69.5315 30.3423C69.2597 30.6492 68.9313 30.8823 68.5576 31.0358C68.2235 31.1779 68.0309 30.8595 67.7818 30.7459C67.3571 30.5583 67.1192 30.8254 66.9097 31.0983C66.7512 31.303 66.8248 31.5246 67.0173 31.6895C67.8724 32.4398 68.7388 33.1731 69.5768 33.9404C69.8883 34.2246 70.1318 34.344 70.4432 33.9632C70.7377 33.605 70.8792 33.2868 70.3639 32.9912C70.0298 32.7979 69.7977 32.4795 69.4636 32.2692C69.1804 32.093 69.0729 31.8771 69.5429 31.6895C70.6244 31.2575 71.0491 30.3651 71.1454 28.711L71.1397 28.7223ZM64.707 44.2686C64.707 44.2686 64.7183 44.2686 64.7239 44.2686C64.7239 43.6035 64.7353 42.9385 64.7239 42.2791C64.6956 41.0513 64.4465 40.7388 63.2913 40.483C62.238 40.2442 61.3094 40.7956 60.9696 41.8131C60.8677 42.1086 60.9696 42.2735 61.1791 42.3929C61.4396 42.5407 61.5529 42.3473 61.6435 42.1313C61.7171 41.9552 61.8133 41.7846 61.9039 41.6141C62.1757 41.1139 62.8779 40.8979 63.3876 41.1423C64.0671 41.4663 63.9142 42.0915 63.9482 42.6543C63.9821 43.2 63.5744 43.3364 63.2007 43.4899C62.255 43.8934 61.2018 44.1151 60.7827 45.2747C60.5279 45.9739 60.6978 47.0369 61.2697 47.5598C61.836 48.0714 62.5891 48.1339 63.3196 47.6508C63.6254 47.4518 63.8745 47.4574 64.1747 47.5995C64.3445 47.6848 64.5201 47.7644 64.7013 47.8155C64.8655 47.8611 65.058 47.8895 65.1713 47.7019C65.2732 47.5313 65.2506 47.3211 65.1033 47.2244C64.6333 46.9232 64.6956 46.4684 64.6956 46.0251C64.6956 45.4396 64.6956 44.8541 64.6956 44.2686H64.707ZM118.276 44.1777C118.276 44.1777 118.276 44.1777 118.27 44.1777C118.27 43.3762 118.298 42.5748 118.259 41.779C118.23 41.2276 117.976 40.7558 117.409 40.5852C116.815 40.4091 116.203 40.4033 115.592 40.5852C115.048 40.7444 114.487 41.4549 114.499 41.9949C114.499 42.2336 114.544 42.4497 114.833 42.427C115.048 42.4099 115.269 42.3928 115.325 42.0688C115.473 41.2389 115.999 40.9377 116.86 41.1537C117.33 41.273 117.658 42.0575 117.511 42.6372C117.319 43.4103 116.633 43.5069 116.056 43.74C114.759 44.2629 114.131 44.8314 114.272 46.2922C114.408 47.719 115.688 48.3556 116.849 47.7303C117.279 47.4973 117.596 47.321 118.015 47.753C118.196 47.9349 118.553 47.9292 118.751 47.7075C118.961 47.4745 118.74 47.2699 118.564 47.1278C118.304 46.9175 118.27 46.6447 118.27 46.3434C118.27 45.6215 118.27 44.8996 118.27 44.1777H118.276ZM85.9532 44.2118C85.9532 43.8821 85.9532 43.5468 85.9532 43.2171C85.9532 42.8874 85.9532 42.552 85.9532 42.2223C85.9419 41.0343 85.6927 40.7217 84.5715 40.4716C83.6372 40.2612 82.5896 40.8354 82.2612 41.7335C82.1649 42.0063 82.1309 42.319 82.4763 42.3985C82.7482 42.4611 83.003 42.319 83.02 41.9665C83.02 41.9097 83.02 41.8471 83.0426 41.796C83.2408 41.364 83.5579 41.0513 84.0449 41.0456C84.4017 41.0456 84.7924 41.0969 85.0189 41.4436C85.4832 42.1598 85.1888 43.1318 84.4186 43.4955C84.1582 43.6206 83.8864 43.7229 83.6145 43.8252C82.3744 44.297 81.9611 44.8995 81.9611 46.224C81.9611 47.6507 83.3711 48.384 84.4979 47.7075C84.9849 47.4177 85.2907 47.2472 85.7154 47.7303C85.8739 47.9065 86.1627 47.9235 86.3383 47.7075C86.4968 47.5143 86.4232 47.2699 86.2307 47.1449C85.9136 46.9345 85.9249 46.639 85.9306 46.3263C85.9306 45.6215 85.9306 44.9167 85.9306 44.2174L85.9532 44.2118ZM75.8284 44.2857C75.8171 43.4444 75.7661 42.6941 75.5283 41.9722C75.2168 41.0002 74.6279 40.5284 73.637 40.4545C72.8272 40.392 72.0967 40.807 71.7343 41.671C71.0265 43.3421 70.9925 45.053 71.723 46.7242C72.0401 47.4518 72.6686 47.9349 73.4954 47.9463C74.3504 47.9576 75.0073 47.5541 75.381 46.7527C75.7604 45.9455 75.8114 45.0758 75.8284 44.2857ZM132.704 44.0981C133.072 44.0981 133.446 44.0753 133.814 44.1038C134.301 44.1436 134.448 43.8992 134.386 43.4672C134.318 42.9727 134.256 42.4781 134.154 41.9892C133.95 41.0457 133.18 40.4261 132.274 40.4489C131.396 40.4659 130.643 41.0911 130.428 41.9722C130.094 43.3705 130.145 44.7802 130.32 46.1842C130.445 47.1733 131.385 47.9634 132.296 47.952C133.519 47.9407 134.216 46.8777 134.278 45.8034C134.29 45.5817 134.21 45.4737 133.978 45.4908C133.763 45.5021 133.531 45.4736 133.463 45.7522C133.44 45.8431 133.463 45.9512 133.452 46.0421C133.333 46.6447 132.812 47.2073 132.33 47.2471C131.775 47.2927 131.458 46.9118 131.277 46.4911C130.994 45.8318 130.954 45.1042 131 44.388C131.017 44.1151 131.215 44.0981 131.419 44.0981C131.849 44.0981 132.274 44.0981 132.704 44.0981ZM81.1513 44.8029C81.1513 44.8029 81.1513 44.8029 81.1456 44.8029C81.1456 44.0014 81.1739 43.2 81.14 42.3985C81.0663 40.7842 80.0244 39.8691 78.32 40.8183C78.0708 40.9547 77.8386 41.0571 77.5725 40.7842C77.4309 40.6364 77.0798 40.5 77.0742 40.8979C77.0685 41.7505 76.8024 42.6089 76.9666 43.4501C77.1138 44.2118 77.0912 44.9678 77.0345 45.7181C76.9949 46.2183 76.9496 46.7185 76.9553 47.2244C76.9553 47.5371 77.1365 47.7473 77.4649 47.7246C77.7594 47.7019 77.8839 47.4915 77.8613 47.1903C77.8443 46.9174 77.8386 46.6447 77.8386 46.3718C77.8386 45.0247 77.8556 43.6775 77.8386 42.3303C77.833 41.5743 78.5521 41.2389 79.1977 41.1707C79.8149 41.1025 80.0584 41.3583 80.2736 42.0802C80.3359 42.2962 80.3415 42.5009 80.3415 42.7112C80.3415 44.1948 80.3529 45.684 80.3415 47.1675C80.3415 47.4915 80.4151 47.719 80.7606 47.7303C81.1456 47.7417 81.1683 47.4575 81.1626 47.1619C81.1626 46.3832 81.1626 45.5987 81.1626 44.8143L81.1513 44.8029ZM110.167 44.1777H110.184C110.184 43.2 110.184 42.2223 110.184 41.2447C110.184 40.9547 110.269 40.6705 109.782 40.6648C109.317 40.6648 109.346 40.9092 109.346 41.2162C109.351 42.7793 109.351 44.3482 109.346 45.9113C109.346 46.5878 108.542 47.2755 107.811 47.2528C107.279 47.2358 106.894 46.7242 106.888 45.991C106.877 44.388 106.877 42.7851 106.888 41.1764C106.888 40.8695 106.888 40.6648 106.475 40.6648C106.044 40.6648 106.073 40.9093 106.073 41.1935C106.084 42.859 106.129 44.5187 106.073 46.1785C106.05 46.9459 106.407 47.4631 106.967 47.7871C107.59 48.1452 108.287 48.0259 108.83 47.5428C109.085 47.3154 109.215 47.2699 109.402 47.5598C109.549 47.7872 109.782 47.7416 109.98 47.6791C110.189 47.6109 110.155 47.4007 110.155 47.2301C110.155 46.2126 110.155 45.1952 110.155 44.1777H110.167ZM95.7836 44.1322C95.7836 45.127 95.7949 46.1273 95.7836 47.1221C95.7836 47.4574 95.8289 47.7247 96.2253 47.719C96.6103 47.7132 96.6103 47.429 96.6103 47.1335C96.599 45.6272 96.599 44.1265 96.599 42.6202C96.599 41.7846 96.9048 41.3527 97.7145 41.1821C98.4111 41.0343 99.0906 41.3413 99.0679 42.1712C99.0623 42.444 99.0736 42.7168 99.0736 42.9896C99.0736 44.3766 99.0736 45.7635 99.0623 47.1505C99.0623 47.4802 99.1868 47.6962 99.5096 47.7133C99.8664 47.736 99.8833 47.4631 99.8833 47.1903C99.8833 45.5873 99.9173 43.9844 99.8607 42.3871C99.838 41.7562 99.8211 40.9946 99.1245 40.6706C98.4677 40.3636 97.7655 40.284 97.1086 40.7955C96.8821 40.9718 96.5933 41.1821 96.3442 40.7672C96.2479 40.6023 96.0554 40.6705 95.9195 40.6989C95.6986 40.7444 95.7892 40.9491 95.7892 41.0855C95.7836 42.103 95.7892 43.1148 95.7892 44.1322H95.7836ZM120.467 44.8029C120.467 44.0412 120.467 43.2795 120.467 42.5122C120.467 41.688 121.294 41.0116 122.104 41.148C122.619 41.2333 122.862 41.5743 122.925 42.0404C122.993 42.5804 123.021 43.1261 123.021 43.6661C123.015 44.7972 123.078 45.9284 122.936 47.0595C122.896 47.3665 122.868 47.7303 123.355 47.7075C123.768 47.6905 123.859 47.4177 123.853 47.0653C123.848 45.9682 123.899 44.8711 123.825 43.7798C123.785 43.1602 123.785 42.535 123.729 41.9211C123.678 41.3924 123.497 40.8979 122.953 40.6534C122.234 40.3294 121.537 40.3636 120.88 40.8127C120.682 40.9491 120.507 41.3299 120.309 40.7899C120.235 40.5852 119.952 40.6649 119.776 40.7047C119.567 40.7501 119.64 40.9718 119.663 41.1025C119.714 41.3924 119.742 41.6767 119.737 41.9722C119.725 43.6888 119.799 45.4112 119.652 47.1278C119.629 47.4348 119.629 47.7303 120.076 47.7246C120.501 47.7246 120.467 47.429 120.467 47.1562C120.467 46.3718 120.467 45.5931 120.467 44.8087V44.8029ZM104.198 45.9739C104.329 46.5934 103.915 47.0595 103.111 47.2358C102.454 47.3779 101.956 47.0312 101.752 46.3604C101.724 46.2694 101.69 46.1785 101.673 46.0819C101.61 45.7749 101.367 45.8489 101.169 45.8431C100.891 45.8374 100.937 46.0364 100.931 46.2069C100.914 46.9459 101.593 47.7303 102.477 47.9122C103.264 48.0713 104.011 47.8724 104.544 47.2812C105.025 46.7469 105.167 46.0762 104.917 45.3429C104.702 44.7176 104.34 44.2629 103.757 43.9673C103.168 43.6718 102.573 43.3819 102.143 42.8589C101.86 42.5122 101.559 42.1598 101.894 41.6766C102.182 41.2503 102.522 41.04 103.094 41.1252C103.745 41.2219 103.859 41.7051 104.057 42.1541C104.164 42.3986 104.323 42.4895 104.561 42.427C104.838 42.3531 104.821 42.1428 104.759 41.9096C104.476 40.824 103.926 40.5227 102.907 40.4318C101.814 40.3351 100.937 41.3185 101.061 42.3929C101.129 43.0068 101.452 43.4672 101.967 43.8025C102.539 44.172 103.202 44.3937 103.7 44.8769C104.017 45.1838 104.306 45.4964 104.215 45.9739H104.198ZM125.847 44.1322C125.779 43.5581 125.966 42.9101 126.124 42.2849C126.254 41.7733 126.532 41.2674 127.16 41.1764C127.613 41.1082 127.947 41.347 128.18 41.688C128.321 41.8983 128.389 42.1654 128.463 42.4155C128.536 42.66 128.712 42.6827 128.916 42.6713C129.216 42.66 129.12 42.4327 129.12 42.2849C129.114 41.6767 128.893 41.1252 128.372 40.8069C127.217 40.1021 125.79 40.301 125.297 42.137C124.929 43.5183 124.884 44.9621 125.32 46.3434C125.75 47.7133 126.815 48.2931 127.959 47.8099C128.74 47.4802 129.091 46.747 129.227 45.9284C129.25 45.7807 129.482 45.6214 129.261 45.4623C129.074 45.3315 128.848 45.3259 128.633 45.3487C128.383 45.3771 128.451 45.5874 128.423 45.7579C128.389 45.9853 128.361 46.2183 128.265 46.423C128.066 46.8322 127.772 47.2074 127.296 47.2415C126.821 47.2756 126.549 46.9118 126.345 46.5139C125.977 45.7977 125.847 45.0303 125.847 44.1379V44.1322ZM66.2925 44.3311C66.2925 45.1724 66.2925 46.008 66.2925 46.8493C66.2982 47.5484 67.0739 48.0771 67.7195 47.8099C67.8327 47.7644 67.9517 47.645 68.0026 47.537C68.0253 47.4802 67.895 47.2812 67.8271 47.2812C66.8588 47.2755 67.0343 46.5423 67.023 45.9796C67.0003 44.5529 67.0909 43.1318 66.9947 41.705C66.972 41.364 67.1136 41.2389 67.4364 41.2617C67.6912 41.2844 67.997 41.2844 68.0026 40.9548C68.0083 40.6308 67.7025 40.6592 67.4703 40.6762C67.1192 40.699 66.972 40.5454 66.989 40.193C67.006 39.8235 66.989 39.4484 66.989 39.079C66.989 38.8516 67.006 38.664 66.6719 38.664C66.3491 38.664 66.2642 38.7834 66.2812 39.079C66.2982 39.4087 66.2585 39.744 66.2982 40.0737C66.3378 40.4148 66.2019 40.5795 65.8961 40.6478C65.7319 40.6819 65.4997 40.6705 65.4884 40.8922C65.4771 41.0741 65.6583 41.2105 65.8225 41.2447C66.2529 41.3299 66.2982 41.6255 66.2925 41.9836C66.2812 42.7623 66.2925 43.5467 66.2925 44.3254V44.3311ZM94.2547 42.9158C94.2547 42.9158 94.2603 42.9158 94.266 42.9158C94.266 41.4891 94.2603 40.0623 94.266 38.6412C94.266 38.3343 94.2547 38.0899 93.8526 38.1013C93.4789 38.107 93.4223 38.3286 93.4223 38.6412C93.4279 41.472 93.4279 44.3027 93.4223 47.1335C93.4223 47.4802 93.5015 47.7132 93.8809 47.719C94.2943 47.719 94.249 47.412 94.249 47.1335C94.249 45.7295 94.249 44.3198 94.249 42.9158H94.2547ZM87.669 42.8134C87.669 44.2743 87.669 45.7408 87.669 47.2017C87.669 47.4972 87.7596 47.628 88.0711 47.6109C88.3089 47.5939 88.4731 47.5769 88.4674 47.2585C88.3938 44.371 88.4221 41.4833 88.4561 38.5958C88.4561 38.2831 88.3485 38.1126 88.0371 38.0899C87.652 38.0614 87.6633 38.3286 87.669 38.5958C87.669 39.9998 87.669 41.4038 87.669 42.8078V42.8134ZM111.56 44.28C111.56 45.3543 111.571 46.2296 111.56 47.1107C111.56 47.429 111.588 47.6337 111.984 47.6109C112.364 47.5939 112.347 47.3892 112.347 47.105C112.33 45.7579 112.347 44.4108 112.336 43.0635C112.33 42.1484 112.585 41.4549 113.632 41.3469C113.683 41.3469 113.729 41.2844 113.779 41.2617C114.08 41.1536 114.091 40.8979 113.995 40.6876C113.91 40.5057 113.746 40.4204 113.474 40.5284C113.185 40.6478 112.913 40.7785 112.653 40.9376C112.488 41.0343 112.268 41.1025 112.205 40.9093C112.081 40.5114 111.792 40.6592 111.594 40.7047C111.345 40.7615 111.435 41.0456 111.469 41.2048C111.69 42.2848 111.492 43.3762 111.565 44.2686L111.56 44.28ZM69.0955 44.0753C69.0955 45.1497 69.0898 46.2183 69.0955 47.2927C69.0955 47.6734 69.407 47.8668 69.7071 47.6962C69.9336 47.5712 69.8996 47.3381 69.8996 47.1221C69.8996 45.1326 69.8996 43.1431 69.8996 41.1537C69.8996 41.0968 69.8996 41.0343 69.8996 40.9775C69.9053 40.591 69.6221 40.6933 69.407 40.6706C69.1295 40.6421 69.0842 40.7501 69.0898 41.0286C69.1182 42.0404 69.1012 43.0579 69.1012 44.0697L69.0955 44.0753ZM68.0989 37.3908C68.4896 38.1013 69.0898 38.5333 69.5089 39.1131C69.6108 39.2552 69.8826 39.3518 69.9166 38.9425C70.0468 37.3851 70.0412 37.3737 68.4953 37.3908C68.399 37.3908 68.3027 37.3908 68.0989 37.3908ZM64.7636 25.3686C64.8032 25.3459 64.8429 25.3231 64.8825 25.3061C64.8825 25.073 64.8825 24.84 64.8825 24.607C64.8825 23.7771 64.4652 23.3583 63.6311 23.3508C63.5008 23.3508 63.3423 23.2882 63.2517 23.4189C63.1554 23.5667 63.297 23.669 63.3819 23.7656C63.8406 24.3 64.2992 24.8343 64.7636 25.363V25.3686Z" fill="#0F959E"/>
<path d="M63.7166 0.414917C63.3712 0.579759 63.2636 0.915128 63.156 1.23344C62.6294 2.7966 61.8196 4.24039 61.2137 5.77514C60.7098 7.05409 60.1152 8.29893 59.5716 9.56082C59.045 10.7886 58.507 12.0164 58.0143 13.2612C57.4424 14.705 56.7686 16.109 56.1456 17.5301C55.2679 19.5366 54.4186 21.5602 53.5352 23.5667C52.2271 26.5282 50.9586 29.5124 49.6675 32.4796C48.6369 34.8442 47.5837 37.2031 46.5588 39.5735C45.5508 41.904 44.5712 44.2516 43.5689 46.5821C42.6855 48.6284 41.7739 50.669 40.9018 52.721C40.7433 53.0962 40.5281 53.4941 40.664 53.9431H40.4318C40.3525 53.693 40.2506 53.4486 40.1996 53.1928C39.758 51.0101 39.1973 48.8558 38.733 46.6787C38.5121 45.6385 38.3422 44.5699 38.0195 43.5297C37.7703 42.7168 37.6514 41.8301 37.4532 40.9945C37.0681 39.3916 36.7454 37.7716 36.3377 36.1743C36.1451 35.4183 36.1283 34.5941 35.8848 33.8892C35.3468 32.3033 35.1259 30.6549 34.7125 29.0463C34.2086 27.0739 33.9027 25.056 33.3478 23.0949C33.2515 22.7425 33.3308 22.5777 33.6309 22.4924C35.1825 22.049 36.6378 21.3044 38.2177 20.9349C38.4725 20.8781 38.7896 20.7985 39.0104 20.52C38.8462 20.4233 38.7216 20.3267 38.5801 20.2756C36.0998 19.3547 33.6027 18.4964 31.1677 17.4505C30.4146 17.1265 30.3975 17.1606 30.2447 17.9962C30.239 18.036 30.2165 18.0701 30.2108 18.1042C30.0239 19.2524 29.8369 20.4006 29.6614 21.5545C29.4859 22.7084 29.333 23.8623 29.1575 25.0162C28.9763 26.2269 28.7894 27.4377 28.6025 28.6484C28.4213 29.8421 28.2458 31.0358 28.0589 32.2295C27.8891 33.3265 27.7135 34.4236 27.5492 35.5206C27.3737 36.6802 27.2039 37.8398 27.0283 38.9994C26.8131 40.3806 26.5867 41.7619 26.3828 43.1431C26.1677 44.5642 25.9751 45.9909 25.7656 47.412C25.59 48.6057 25.4088 49.7937 25.205 50.9817C25.0691 51.7831 24.9954 52.6017 24.7349 53.3861C24.4971 53.2326 24.3499 53.0223 24.2366 52.7608C23.5288 51.1749 22.804 49.5947 22.0792 48.0145C20.7315 45.0644 19.3781 42.1143 18.0304 39.1642C15.9409 34.5998 13.857 30.0353 11.7675 25.4766C10.5727 22.8676 9.36646 20.2699 8.17165 17.6608C6.34827 13.6648 4.51932 9.67451 2.72426 5.67281C1.95413 3.9505 0.951874 2.31913 0.634766 0.414917H63.6996H63.7166ZM24.7349 9.45851C25.1143 9.86209 25.3691 10.1122 25.6013 10.385C26.9716 11.9709 28.3363 13.5682 29.7124 15.1541C29.803 15.2564 29.8087 15.5122 30.0182 15.4269C30.1994 15.353 30.239 15.1484 30.256 14.9495C30.2843 14.597 30.1201 14.2787 30.1257 13.9206C30.1541 12.6132 30.1371 11.3059 30.1371 9.99851C30.1371 9.74272 30.1768 9.45851 29.7918 9.45851C28.1666 9.45851 26.5413 9.45851 24.7349 9.45851Z" fill="#373076"/>
<path d="M0.645514 0.41493C0.968285 2.31914 1.96502 3.95051 2.73514 5.67283C4.5302 9.68019 6.35916 13.6705 8.18253 17.6608C9.37169 20.2699 10.5836 22.8732 11.7784 25.4766C13.8679 30.041 15.9518 34.6055 18.0413 39.1642C19.389 42.1143 20.7423 45.0644 22.0901 48.0145C22.8149 49.5947 23.5397 51.1749 24.2475 52.7608C24.3664 53.0223 24.508 53.2326 24.7458 53.3861C24.7458 53.5737 24.7458 53.7556 24.7458 53.9431C16.7501 53.9431 8.75451 53.9431 0.75888 53.9545C0.356831 53.9545 0.277498 53.8749 0.277498 53.4713C0.288823 35.9412 0.288835 18.4111 0.288835 0.875352C0.288835 0.636615 0.169847 0.295561 0.639845 0.403561L0.645514 0.41493Z" fill="#0F959E"/>
<path d="M24.752 53.9489C24.752 53.7613 24.752 53.5794 24.752 53.3918C25.0124 52.6131 25.0804 51.7945 25.222 50.9874C25.4259 49.7994 25.6014 48.6057 25.7826 47.4177C25.9921 45.9966 26.1847 44.5699 26.3999 43.1489C26.6094 41.7676 26.8359 40.3863 27.0454 39.0051C27.2209 37.8455 27.3907 36.6859 27.5663 35.5263C27.7362 34.4293 27.9118 33.3322 28.076 32.2352C28.2572 31.0415 28.4384 29.8478 28.6196 28.6541C28.8008 27.4434 28.9933 26.2327 29.1745 25.0219C29.3444 23.868 29.5029 22.7141 29.6785 21.5602C29.854 20.4063 30.0409 19.2581 30.2277 18.1099C30.2334 18.0701 30.256 18.036 30.2617 18.0019C30.4146 17.1607 30.426 17.1265 31.1848 17.4562C33.6141 18.5021 36.1169 19.3604 38.5971 20.2813C38.7387 20.3324 38.8576 20.4291 39.0275 20.5257C38.8067 20.7985 38.4839 20.8781 38.2348 20.9407C36.6549 21.3101 35.1995 22.0548 33.648 22.4981C33.3479 22.5834 33.2686 22.7539 33.3648 23.1006C33.9198 25.0617 34.2313 27.0796 34.7297 29.052C35.1374 30.6606 35.3581 32.3091 35.9017 33.895C36.1395 34.5998 36.1622 35.424 36.3547 36.18C36.7624 37.7773 37.0852 39.3973 37.4703 41.0002C37.6685 41.8358 37.7874 42.7282 38.0365 43.5354C38.3536 44.5699 38.5292 45.6442 38.75 46.6844C39.2144 48.8615 39.775 51.0158 40.2167 53.1985C40.2677 53.4543 40.3695 53.6988 40.4488 53.9489H24.769H24.752ZM31.7284 18.8432C31.2131 18.8432 30.7883 19.2354 30.845 19.7299C30.8959 20.1676 31.1622 20.4689 31.6322 20.4859C32.1645 20.5087 32.5835 20.1108 32.5835 19.6162C32.5835 19.2468 32.1361 18.8432 31.7227 18.8432H31.7284Z" fill="#FCFEFD"/>
<path d="M120.269 31.0017C120.88 31.8032 121.441 32.5421 122.007 33.2697C122.183 33.4971 122.409 33.7358 122.041 33.9348C121.769 34.0825 121.532 34.543 121.113 34.02C120.025 32.6501 119.085 31.1779 118.015 29.7966C117.783 29.4954 117.811 29.2225 118.202 28.9838C118.564 28.7621 118.808 28.7451 118.995 29.143C119.148 29.4613 119.402 29.6489 119.703 29.791C120.156 30.007 120.665 29.7 120.693 29.1998C120.743 28.3207 120.331 27.8811 119.459 27.8811C118.621 27.8811 117.783 27.8924 116.945 27.8697C116.554 27.8583 116.458 28.0004 116.463 28.3756C116.486 30.0752 116.463 31.7804 116.497 33.48C116.509 33.9745 116.345 34.1223 115.863 34.1337C115.393 34.1394 115.286 33.9745 115.291 33.5255C115.32 31.843 115.291 30.1604 115.314 28.4779C115.32 28.0004 115.155 27.8754 114.708 27.8754C113.258 27.8754 113.258 27.8526 113.264 29.2964C113.264 30.7232 113.264 32.1499 113.287 33.5766C113.292 33.9973 113.123 34.1394 112.732 34.111C112.392 34.0882 111.979 34.2076 112.03 33.6221C112.047 33.4289 111.996 33.2185 112.041 33.0366C112.177 32.508 111.99 32.5023 111.571 32.6729C109.346 33.5937 108.026 32.059 107.618 30.3025C107.556 30.0354 107.669 30.0013 107.879 30.0013C108.111 30.0013 108.349 30.0126 108.575 29.9672C109.215 29.8308 109.549 29.3305 109.464 28.6939C109.385 28.0971 109.079 27.8754 108.349 27.8811C108.292 27.8811 108.23 27.8924 108.173 27.8811C107.8 27.8129 107.205 28.1653 107.222 27.3468C107.239 26.551 107.828 26.8409 108.202 26.8352C110.365 26.8124 112.528 26.8295 114.691 26.8238C114.85 26.8238 115.076 26.9318 115.155 26.7158C115.235 26.5055 115.003 26.443 114.878 26.3293C114.147 25.6244 113.474 24.8684 112.686 24.2261C112.46 24.0442 112.335 23.7145 112.63 23.4644C112.913 23.22 113.23 23.2086 113.485 23.5326C114.278 24.5331 115.24 25.3914 116.016 26.4145C116.333 26.8295 116.718 26.983 117.319 26.8806C118.151 26.7385 119.029 26.8409 119.884 26.8295C120.065 26.8295 120.337 26.9318 120.405 26.7158C120.461 26.5282 120.212 26.4032 120.076 26.2781C119.363 25.5903 118.644 24.9082 117.919 24.2261C117.653 23.976 117.454 23.7714 117.851 23.4246C118.219 23.1063 118.445 23.2598 118.683 23.544C119.527 24.5388 120.49 25.4369 121.254 26.5112C121.503 26.8636 121.962 26.8409 122.375 26.8409C126.158 26.8352 129.941 26.8295 133.723 26.8295C134.052 26.8295 134.391 26.7613 134.397 27.3013C134.397 27.7844 134.21 27.9436 133.774 27.8811C133.327 27.8185 133.18 27.9606 133.191 28.4495C133.231 30.1718 133.191 31.8941 133.219 33.6108C133.231 34.1166 132.981 34.1166 132.613 34.1166C132.234 34.1166 131.985 34.0939 132.019 33.588C132.075 32.832 132.019 32.076 131.934 31.32C131.894 30.9562 131.702 30.9051 131.424 30.9392C130.994 30.9903 130.682 30.8084 130.394 30.5015C130.246 30.3423 130.275 30.1775 130.303 30.0126C130.337 29.8194 130.518 29.9046 130.643 29.8819C130.739 29.8649 130.841 29.8819 130.932 29.8705C131.283 29.808 131.781 30.0809 131.951 29.7057C132.172 29.2169 132.223 28.5006 131.968 28.1198C131.594 27.5628 130.824 27.9379 130.229 27.9038C129.85 27.8811 129.935 28.2392 129.929 28.4779C129.918 28.8076 129.907 29.143 129.929 29.4726C130.014 30.4503 129.952 30.5868 129.069 31.0415C128.751 31.2063 128.723 31.2916 128.995 31.5929C129.493 32.1499 129.924 32.7809 130.314 33.4175C130.58 33.8495 130.065 33.895 129.861 34.0769C129.657 34.2588 129.425 34.3554 129.221 34.0314C128.565 32.9855 127.879 31.951 127.24 30.888C126.979 30.4617 126.673 30.3082 126.203 30.4446C126.13 30.4674 126.05 30.456 125.971 30.4617C125.665 30.4901 125.269 30.3196 125.082 30.5413C124.935 30.7118 125.042 31.0983 125.014 31.3825C124.974 31.8089 124.68 31.968 124.346 31.7179C123.78 31.2859 123.378 30.7004 123.055 30.0809C122.834 29.6545 123.015 29.3703 123.508 29.3533C124.363 29.3249 125.224 29.3362 126.079 29.3419C126.396 29.3419 126.679 29.359 126.934 29.0861C127.16 28.8417 127.421 28.8815 127.579 29.2169C127.693 29.4442 127.84 29.6489 128.027 29.8308C128.163 29.9558 128.287 30.0695 128.485 29.9558C128.644 29.8649 128.757 29.7512 128.751 29.5409C128.74 29.0918 128.734 28.6428 128.751 28.1937C128.763 27.9493 128.65 27.8924 128.44 27.8924C126.356 27.8924 124.267 27.8924 122.183 27.8924C121.905 27.8924 121.86 28.0459 121.877 28.2733C121.894 28.5461 121.928 28.819 121.928 29.0918C121.951 30.3423 121.532 30.8425 120.246 31.0131L120.269 31.0017ZM109.006 30.9562C109.113 31.0926 109.187 31.212 109.283 31.303C109.934 31.9282 110.218 32.0305 110.982 31.7577C111.871 31.4394 112.081 31.104 112.064 30.2116C112.058 29.8592 112.052 29.5068 112.052 29.1543C112.058 27.8356 112.058 27.8413 110.716 27.8697C110.37 27.8754 110.178 27.9152 110.421 28.3131C110.801 28.9383 110.659 29.5181 110.274 30.0979C109.974 30.5526 109.476 30.6663 109 30.9505L109.006 30.9562Z" fill="#FCFEFD"/>
<path d="M80.5961 26.8295C83.3822 26.8295 86.1738 26.8295 88.9599 26.8295C89.2373 26.8295 89.5205 26.8124 89.662 27.108C89.8716 27.5457 89.6281 27.9152 89.1128 27.8754C88.6201 27.8413 88.4899 28.0004 88.5012 28.4893C88.5352 30.1888 88.5012 31.8941 88.5352 33.5937C88.5465 34.1564 88.2181 34.0996 87.8557 34.1223C87.4536 34.1451 87.3177 34.0143 87.3347 33.5937C87.3687 32.616 87.3517 31.6383 87.3404 30.6606C87.3404 30.5185 87.4366 30.3139 87.2384 30.2514C87.0402 30.1888 86.8534 30.2116 86.6665 30.4048C86.3664 30.7175 86.0946 31.0415 85.9417 31.4394C85.7491 31.9566 85.4037 31.735 85.1546 31.5758C84.945 31.4507 84.594 31.32 84.962 30.8937C85.3471 30.439 85.1319 30.1263 84.5147 30.1093C84.2825 30.1093 84.0447 30.0865 83.8125 30.1206C83.2746 30.2002 82.9688 30.8368 83.1896 31.4621C83.4388 32.1499 83.9201 32.6387 84.5826 32.9627C84.8091 33.0707 85.1546 33.1276 84.9451 33.5312C84.7638 33.8893 84.475 34.1394 84.1013 33.9404C82.9858 33.3379 82.0798 32.5137 81.8589 31.1893C81.6607 29.9842 83.2236 28.6655 84.4524 28.9667C84.7978 29.052 85.1716 29.1145 85.432 29.4044C85.5906 29.5806 85.8284 29.6147 85.9417 29.4556C86.2984 28.9383 87.2894 29.3248 87.3517 28.4211C87.38 28.0175 87.2271 27.864 86.8137 27.8697C84.9054 27.8811 82.9914 27.8811 81.0831 27.8697C80.6018 27.8697 80.4319 28.0686 80.4432 28.5404C80.4716 30.24 80.4602 31.9453 80.4942 33.6448C80.4999 34.0712 80.296 34.1394 79.9563 34.1223C79.6335 34.111 79.2711 34.2019 79.2767 33.6619C79.2937 32.7411 79.2654 31.8202 79.2824 30.9051C79.2937 30.5413 79.1805 30.4276 78.8181 30.4617C78.433 30.5015 78.0366 30.4901 77.6516 30.4617C77.2042 30.4333 76.9947 30.5697 77.04 31.0585C77.0626 31.2859 77.1872 31.6099 76.8758 31.7406C76.5473 31.8827 76.2869 31.6383 76.117 31.4223C75.7602 30.979 75.3072 30.6038 75.1317 30.0183C75.0128 29.6261 75.0071 29.359 75.4941 29.3533C76.502 29.3476 77.5157 29.2566 78.5236 29.3931C78.8294 29.4328 79.2484 29.5806 79.2824 28.9781C79.3334 27.9606 79.3107 27.8811 78.6538 27.8811C77.2099 27.8811 75.7659 27.8811 74.3276 27.8697C73.9425 27.8697 73.682 27.9834 73.784 28.3983C73.9765 29.1941 73.8632 29.9899 73.8802 30.7857C73.9029 31.7236 73.8632 32.6615 73.8972 33.5994C73.9199 34.1564 73.5858 34.111 73.2177 34.1166C72.8383 34.1223 72.6684 34.0314 72.6741 33.588C72.7081 31.8657 72.6741 30.1434 72.7024 28.4267C72.7081 27.9606 72.5269 27.8413 72.1191 27.8754C71.853 27.8981 71.5642 27.9265 71.434 27.5968C71.2641 27.1535 71.5246 26.8408 72.1078 26.8295C72.8893 26.8124 73.665 26.8295 74.4465 26.8295C76.4907 26.8295 78.5406 26.8295 80.5848 26.8295H80.5961Z" fill="#FCFEFD"/>
<path d="M97.4992 26.8295C98.8809 26.8295 100.268 26.8295 101.65 26.8295C102.012 26.8295 102.329 26.8295 102.341 27.3581C102.352 27.9038 102.046 27.8924 101.667 27.8924C100.495 27.881 99.3283 27.8924 98.1561 27.881C97.8107 27.881 97.6351 27.9322 97.6351 28.3528C97.6408 29.6488 97.6238 29.6488 96.2988 29.6488C95.908 29.6488 95.5173 29.6545 95.1266 29.6488C94.9001 29.6431 94.7982 29.7227 94.8435 29.9558C94.9171 30.3594 95.5286 30.7572 95.9364 30.6549C96.1572 30.5981 96.378 30.5071 96.6045 30.4787C97.1651 30.4105 97.7201 30.4958 98.0655 30.9846C98.4789 31.5701 98.4392 32.2238 98.1391 32.849C97.9126 33.3151 97.5559 33.6732 97.0689 33.8722C96.5819 34.0711 96.6782 34.2417 97.0689 34.4349C97.2784 34.5372 97.4766 34.6623 97.6748 34.7874C98.0655 35.0375 98.0202 35.3501 97.771 35.6627C97.5389 35.9469 97.3067 36.0436 96.9726 35.7423C96.4856 35.2989 95.8741 35.009 95.4324 34.5031C95.3135 34.3667 95.1323 34.3497 94.951 34.3383C94.498 34.2985 94.1016 34.1166 93.7732 33.7926C93.4731 33.497 93.2862 33.1674 93.575 32.7581C93.8582 32.3488 94.2206 32.2124 94.6736 32.4909C94.9171 32.6444 95.1662 32.7922 95.3871 32.9741C95.6532 33.1958 95.8797 33.3606 96.2365 33.1276C96.6668 32.8434 97.1935 32.6842 97.1935 32.0135C97.1935 31.5871 96.95 31.4848 96.6555 31.5701C96.4403 31.6326 96.2251 31.5815 96.0326 31.6554C95.6023 31.8145 95.2002 31.7975 94.8265 31.5076C94.2998 31.0983 93.8072 30.6322 93.5694 30.0012C93.3882 29.5238 94.0507 28.8246 94.7359 28.7394C95.1039 28.6939 95.4777 28.7223 95.8457 28.7109C96.1459 28.7052 96.5026 28.7962 96.4856 28.2789C96.4686 27.8185 96.1629 27.881 95.8684 27.881C95.0133 27.8867 94.1526 27.8697 93.2976 27.8924C92.8445 27.9038 92.7426 27.6764 92.7313 27.2842C92.7143 26.8579 92.9635 26.8181 93.2919 26.8238C94.6962 26.8295 96.1006 26.8238 97.5049 26.8238L97.4992 26.8295Z" fill="#FCFEFD"/>
<path d="M105.546 29.8535C104.895 30.024 104.272 30.0979 103.66 29.7853C103.547 29.7285 103.321 29.7114 103.332 29.9672C103.349 30.4162 103.06 30.4048 102.743 30.3878C102.488 30.3707 102.239 30.3765 101.984 30.3765C101.084 30.3594 101.073 30.3765 101.039 31.2518C101.033 31.4451 101.067 31.6724 100.824 31.7406C100.62 31.7975 100.438 31.769 100.24 31.6042C99.7363 31.1836 99.4135 30.6379 99.0964 30.0865C98.8812 29.7114 99.0624 29.4101 99.5041 29.3703C100.518 29.268 101.526 29.3817 102.534 29.4215C102.941 29.4386 103.111 29.3362 102.93 28.8758C102.466 27.6821 103.525 26.7783 104.476 26.7271C105.977 26.6476 106.769 27.4946 106.883 28.9725C106.979 30.2287 106.452 31.1893 105.297 31.735C104.929 31.9055 104.957 32.0703 105.223 32.2692C105.625 32.5648 105.869 33.031 106.356 33.2413C106.599 33.3493 106.645 33.5539 106.379 33.7812C105.659 34.4009 105.693 34.3895 105.037 33.7301C104.312 33.0025 103.536 32.3205 102.794 31.6099C102.653 31.4735 102.415 31.2916 102.704 31.0983C102.947 30.9334 103.066 30.456 103.519 30.7288C104.385 31.2575 105.206 30.9221 105.546 29.8591V29.8535ZM104.821 29.0748C105.201 29.0009 105.507 28.8701 105.495 28.3472C105.484 27.7958 105.054 27.7901 104.736 27.7844C104.357 27.7787 103.932 27.9152 103.978 28.4438C104.017 28.9156 104.374 29.0407 104.821 29.0748Z" fill="#FCFEFD"/>
<path d="M55.2392 39.7781C54.9674 40.0396 55.0466 40.3124 55.0693 40.5511C55.2958 42.7509 55.1089 44.9621 55.1712 47.1619C55.1825 47.4688 55.1373 47.7474 54.7069 47.7246C54.2426 47.7019 54.4011 47.3949 54.4011 47.1391C54.4011 44.3596 54.4011 41.5857 54.4011 38.8061C54.4011 38.5389 54.2483 38.1638 54.7013 38.1126C55.075 38.0728 55.3581 38.1297 55.5507 38.6015C56.5416 40.9775 57.6008 43.325 58.637 45.684C58.6823 45.792 58.6365 46.0137 58.8516 45.9511C59.0215 45.9057 58.9485 45.7238 58.9485 45.5987C58.9541 43.2909 58.9592 40.9831 58.9649 38.6754C58.9649 38.4423 58.8686 38.1297 59.2594 38.0899C59.5651 38.0615 59.735 38.1638 59.7294 38.5105C59.7237 41.4265 59.7237 44.3425 59.7294 47.2528C59.7294 47.5541 59.5765 47.6791 59.3273 47.7133C59.0102 47.7587 58.7101 47.736 58.5572 47.3665C57.9966 46.0421 57.4247 44.7234 56.8471 43.4046C56.3207 42.1996 55.7771 41.0002 55.2278 39.7724L55.2392 39.7781Z" fill="#FCFEFD"/>
<path d="M63.167 26.8295C64.141 26.8295 65.115 26.8352 66.089 26.8295C66.4344 26.8295 66.6326 26.9091 66.6382 27.3183C66.6382 27.7276 66.4627 27.864 66.0833 27.8868C65.3585 27.9322 65.3924 28.0004 65.4151 28.7337C65.4717 30.4162 65.4661 32.0988 65.4321 33.7813C65.4208 34.3668 64.8998 34.236 64.5317 34.219C64.124 34.2019 64.1302 33.8722 64.1699 33.588C64.3001 32.6558 64.1863 31.7179 64.2429 30.7857C64.2543 30.564 64.1637 30.4617 63.9372 30.4731C63.705 30.4844 63.4671 30.4731 63.235 30.4731C62.9009 30.4731 62.5441 30.3935 62.2497 30.4958C61.842 30.6379 62.1483 31.0699 62.0521 31.3655C61.8595 31.951 61.6098 32.0533 61.1568 31.5872C60.7321 31.1495 60.3646 30.6493 60.0928 30.0979C59.8493 29.6034 59.9846 29.3533 60.5396 29.3476C61.5532 29.3305 62.5668 29.3249 63.5804 29.376C64.0278 29.3988 64.2152 29.3419 64.1982 28.8303C64.1586 27.8811 64.1863 27.8811 63.2237 27.8868C62.1931 27.8868 61.1568 27.8811 60.1262 27.8868C59.7694 27.8868 59.5996 27.7958 59.6109 27.3865C59.6222 27 59.7072 26.8124 60.1318 26.8181C61.1455 26.8409 62.1596 26.8238 63.1733 26.8238L63.167 26.8295Z" fill="#FCFEFD"/>
<path d="M71.1346 28.7223C71.044 30.3764 70.6136 31.2688 69.532 31.7008C69.062 31.8884 69.1696 32.1044 69.4528 32.2806C69.7869 32.491 70.019 32.8093 70.3531 33.0025C70.8684 33.2981 70.7269 33.6164 70.4324 33.9745C70.1209 34.3554 69.8775 34.236 69.566 33.9518C68.7279 33.1844 67.8616 32.4512 67.0065 31.7008C66.814 31.5303 66.7403 31.3143 66.8989 31.1097C67.1084 30.8368 67.3519 30.564 67.7709 30.7573C68.0258 30.871 68.2183 31.1893 68.5467 31.0472C68.9205 30.888 69.2489 30.655 69.5207 30.3537C69.5943 30.2741 69.7302 30.1888 69.634 30.0638C69.5887 30.007 69.4641 30.0013 69.3735 30.0013C69.1413 29.9956 68.9035 30.0013 68.6713 30.0013C67.737 29.9558 66.9952 29.2453 66.9838 28.3869C66.9725 27.6025 67.8729 26.8011 68.7336 26.7101C69.9397 26.5794 71.2195 27.8015 71.1289 28.7337L71.1346 28.7223ZM68.9884 29.0634C69.4867 29.052 69.8548 28.7564 69.7982 28.3699C69.7416 27.9379 69.4528 27.7503 69.0224 27.7674C68.609 27.7844 68.2523 27.9265 68.1673 28.3585C68.0994 28.6939 68.5807 29.0691 68.9884 29.0634Z" fill="#FCFEFD"/>
<path d="M64.7011 44.2686C64.7011 44.8541 64.7011 45.4396 64.7011 46.0251C64.7011 46.4684 64.6389 46.9288 65.1089 47.2244C65.2617 47.3211 65.2844 47.5257 65.1768 47.7019C65.0636 47.8895 64.871 47.8611 64.7068 47.8156C64.5256 47.7644 64.3501 47.6848 64.1802 47.5996C63.8801 47.4575 63.6309 47.4518 63.3251 47.6507C62.589 48.1339 61.8415 48.0771 61.2752 47.5598C60.6977 47.0368 60.5334 45.9796 60.7883 45.2747C61.2073 44.1152 62.2605 43.8935 63.2062 43.4899C63.5743 43.3307 63.9877 43.2 63.9537 42.6543C63.9197 42.0916 64.0669 41.4663 63.3931 41.1423C62.8834 40.8979 62.1813 41.1139 61.9095 41.6141C61.8189 41.7846 61.7226 41.9495 61.649 42.1314C61.5584 42.3474 61.4451 42.5406 61.1846 42.3928C60.9751 42.2735 60.8789 42.1086 60.9751 41.8131C61.3149 40.7956 62.2436 40.2442 63.2968 40.4829C64.452 40.7444 64.7011 41.0514 64.7295 42.2792C64.7408 42.9442 64.7295 43.6093 64.7295 44.2686C64.7238 44.2686 64.7181 44.2686 64.7125 44.2686H64.7011ZM61.4848 45.9568C61.4848 46.7015 62.017 47.3495 62.5833 47.2415C63.1439 47.1335 63.6196 46.9232 63.7555 46.2354C63.8291 45.8602 63.8404 45.4964 63.8064 45.1497C63.7668 44.7916 64.1009 44.2971 63.7215 44.1208C63.3817 43.9617 62.974 44.3368 62.5946 44.4619C62.5437 44.4789 62.4984 44.5187 62.4474 44.5528C61.9321 44.8882 61.4904 45.2747 61.4848 45.9625V45.9568Z" fill="#FCFEFD"/>
<path d="M118.27 44.1777C118.27 44.8996 118.27 45.6215 118.27 46.3434C118.27 46.6446 118.299 46.9175 118.565 47.1278C118.74 47.2699 118.961 47.4745 118.752 47.7076C118.553 47.9293 118.191 47.9407 118.016 47.7531C117.597 47.3268 117.279 47.4973 116.849 47.7303C115.688 48.3613 114.408 47.719 114.273 46.2922C114.131 44.8257 114.76 44.263 116.056 43.74C116.634 43.507 117.319 43.4047 117.512 42.6373C117.659 42.0575 117.325 41.2731 116.86 41.1537C116 40.9377 115.473 41.2333 115.326 42.0689C115.269 42.3929 115.048 42.4099 114.833 42.427C114.544 42.4497 114.505 42.2337 114.499 41.995C114.488 41.455 115.048 40.7444 115.592 40.5853C116.198 40.4091 116.809 40.4091 117.41 40.5853C117.976 40.7558 118.231 41.2276 118.259 41.779C118.299 42.5748 118.27 43.3762 118.27 44.1777C118.27 44.1777 118.27 44.1777 118.276 44.1777H118.27ZM117.432 44.0299C116.849 44.1038 116.385 44.3425 115.937 44.5926C115.343 44.928 115.02 45.4282 115.077 46.1558C115.116 46.6844 115.524 47.2074 115.994 47.2529C116.538 47.3097 117.172 46.9118 117.308 46.4343C117.523 45.6556 117.37 44.8598 117.427 44.0299H117.432Z" fill="#FCFEFD"/>
<path d="M85.948 44.2118C85.948 44.9166 85.948 45.6215 85.948 46.3206C85.948 46.6332 85.931 46.9288 86.2482 47.1391C86.4407 47.2642 86.5086 47.5086 86.3557 47.7019C86.1802 47.9179 85.8908 47.9008 85.7323 47.7246C85.3076 47.2415 85.0024 47.412 84.5154 47.7019C83.3829 48.3783 81.9785 47.645 81.9785 46.2183C81.9785 44.8939 82.3913 44.2913 83.6314 43.8196C83.9032 43.7172 84.17 43.6092 84.4361 43.4899C85.2062 43.1261 85.5001 42.1484 85.0358 41.4379C84.8093 41.0911 84.4186 41.0343 84.0618 41.04C83.5748 41.04 83.2577 41.3583 83.0595 41.7903C83.0369 41.8415 83.0369 41.904 83.0369 41.9608C83.0142 42.3076 82.7651 42.4554 82.4932 42.3928C82.1478 42.3132 82.1767 42.0006 82.2786 41.7278C82.6014 40.824 83.6484 40.2556 84.5884 40.4659C85.7153 40.716 85.965 41.0286 85.9707 42.2166C85.9707 42.5463 85.9707 42.8817 85.9707 43.2113C85.9707 43.541 85.9707 43.8764 85.9707 44.2061L85.948 44.2118ZM85.1269 45.1326C85.1269 44.9564 85.1269 44.7802 85.1269 44.604C85.1269 43.9958 85.0867 43.956 84.4978 44.2004C84.1411 44.3482 83.7957 44.5244 83.4672 44.729C82.9916 45.0246 82.7424 45.4452 82.7764 46.0364C82.8104 46.6617 83.1501 47.1732 83.6428 47.2528C84.2317 47.3495 84.798 46.9402 85.0188 46.3377C85.166 45.9341 85.11 45.5305 85.1269 45.1269V45.1326Z" fill="#FCFEFD"/>
<path d="M75.8231 44.2913C75.8061 45.0815 75.7551 45.9455 75.3757 46.7583C75.002 47.5598 74.3451 47.9633 73.49 47.952C72.6576 47.9406 72.0347 47.4575 71.7176 46.7299C70.9815 45.0587 71.0211 43.3478 71.729 41.6766C72.097 40.8126 72.8275 40.3977 73.6316 40.4602C74.6226 40.5341 75.2115 41.0059 75.5229 41.9779C75.7551 42.7055 75.8117 43.4558 75.8231 44.2913ZM75.0303 44.189C75.0643 43.5581 74.9057 42.9101 74.7302 42.2507C74.515 41.4379 74.1016 41.2219 73.558 41.1593C72.9804 41.0911 72.669 41.5345 72.4538 42.0233C71.8649 43.3762 71.9045 44.7518 72.3519 46.1273C72.5387 46.6958 72.8332 47.2244 73.5184 47.2471C74.1413 47.2642 74.6396 46.7185 74.8264 45.9113C74.951 45.36 75.0246 44.8086 75.0246 44.189H75.0303Z" fill="#FCFEFD"/>
<path d="M132.699 44.1038C132.268 44.1038 131.844 44.1038 131.413 44.1038C131.209 44.1038 131.011 44.1208 130.994 44.3937C130.949 45.1156 130.994 45.8375 131.272 46.4968C131.453 46.9175 131.77 47.2983 132.325 47.2528C132.806 47.213 133.327 46.6503 133.446 46.0478C133.463 45.9511 133.44 45.8488 133.457 45.7579C133.525 45.4737 133.758 45.5078 133.973 45.4964C134.205 45.485 134.284 45.593 134.273 45.809C134.211 46.8834 133.508 47.9463 132.291 47.9577C131.385 47.9634 130.439 47.1789 130.315 46.1899C130.139 44.7859 130.088 43.3705 130.422 41.9779C130.632 41.0968 131.391 40.4716 132.268 40.4545C133.18 40.4375 133.944 41.0514 134.148 41.9949C134.25 42.4838 134.312 42.9783 134.38 43.4728C134.437 43.8991 134.296 44.1436 133.809 44.1095C133.44 44.081 133.067 44.1038 132.699 44.1038ZM132.399 43.4842C132.704 43.2455 133.35 43.8821 133.554 43.1602C133.684 42.6941 133.463 42.2223 133.305 41.7619C133.067 41.0627 131.872 40.8524 131.419 41.6141C131.238 41.9154 131.124 42.2394 131.034 42.569C130.847 43.2852 131.006 43.4899 131.736 43.4785C131.929 43.4785 132.127 43.4785 132.399 43.4785V43.4842Z" fill="#FCFEFD"/>
<path d="M81.1401 44.8086C81.1401 45.593 81.1401 46.3718 81.1401 47.1562C81.1401 47.4518 81.1231 47.736 80.738 47.7246C80.3926 47.7132 80.3133 47.4859 80.319 47.1619C80.3303 45.6783 80.3303 44.189 80.319 42.7055C80.319 42.4951 80.319 42.2905 80.251 42.0745C80.0415 41.3469 79.7924 41.0911 79.1751 41.165C78.5296 41.2389 77.8104 41.5743 77.8161 42.3246C77.8274 43.6718 77.8161 45.0189 77.8161 46.3661C77.8161 46.6389 77.8161 46.9118 77.8388 47.1846C77.8614 47.4859 77.7368 47.6962 77.4424 47.7189C77.1196 47.7474 76.9384 47.5314 76.9327 47.2187C76.9271 46.7185 76.978 46.2183 77.012 45.7124C77.0686 44.9678 77.0913 44.2061 76.9441 43.4444C76.7798 42.6031 77.046 41.7448 77.0517 40.8922C77.0517 40.4943 77.4027 40.6307 77.55 40.7785C77.8161 41.0514 78.0483 40.949 78.2974 40.8126C80.0019 39.8634 81.0495 40.7785 81.1174 42.3928C81.1514 43.1943 81.1231 43.9958 81.1231 44.7972C81.1231 44.7972 81.1231 44.7972 81.1288 44.7972L81.1401 44.8086Z" fill="#FCFEFD"/>
<path d="M110.161 44.1777C110.161 45.1951 110.161 46.2126 110.161 47.2301C110.161 47.4063 110.195 47.6166 109.985 47.6791C109.787 47.7417 109.555 47.7815 109.408 47.5598C109.215 47.2756 109.091 47.321 108.836 47.5427C108.292 48.0259 107.596 48.1509 106.973 47.7871C106.412 47.4631 106.056 46.9459 106.078 46.1785C106.129 44.5187 106.078 42.8533 106.078 41.1935C106.078 40.9093 106.044 40.6648 106.48 40.6648C106.888 40.6648 106.899 40.8695 106.894 41.1764C106.888 42.7794 106.894 44.3823 106.894 45.9909C106.894 46.7242 107.284 47.2358 107.817 47.2528C108.547 47.2756 109.351 46.5878 109.351 45.9114C109.357 44.3482 109.351 42.7794 109.351 41.2162C109.351 40.9036 109.323 40.6591 109.787 40.6648C110.274 40.6705 110.189 40.9547 110.189 41.2446C110.189 42.2223 110.189 43.2 110.189 44.1777H110.172H110.161Z" fill="#FCFEFD"/>
<path d="M95.7782 44.1379C95.7782 43.1204 95.7782 42.1086 95.7782 41.0911C95.7782 40.9547 95.6876 40.7501 95.9084 40.7046C96.0443 40.6762 96.2368 40.608 96.3331 40.7728C96.5823 41.1878 96.8711 40.9718 97.0976 40.8012C97.7488 40.2897 98.4566 40.3749 99.1135 40.6762C99.81 41.0002 99.827 41.7619 99.8496 42.3928C99.9062 43.9901 99.8666 45.5987 99.8723 47.196C99.8723 47.4688 99.8553 47.7417 99.4985 47.7189C99.1701 47.7019 99.0455 47.4802 99.0512 47.1562C99.0625 45.7692 99.0625 44.3823 99.0625 42.9953C99.0625 42.7225 99.0512 42.4497 99.0568 42.1768C99.0795 41.3469 98.4 41.0457 97.7035 41.1878C96.8937 41.3583 96.5879 41.7903 96.5879 42.6259C96.5879 44.1322 96.5879 45.6328 96.5993 47.1391C96.5993 47.4347 96.5993 47.7189 96.2142 47.7246C95.8178 47.7303 95.7668 47.4631 95.7725 47.1278C95.7895 46.133 95.7725 45.1326 95.7725 44.1379H95.7782Z" fill="#FCFEFD"/>
<path d="M120.462 44.8086C120.462 45.593 120.462 46.3718 120.462 47.1562C120.462 47.429 120.496 47.7246 120.071 47.7246C119.624 47.7246 119.618 47.4347 119.647 47.1278C119.788 45.4111 119.72 43.6945 119.732 41.9722C119.732 41.6766 119.709 41.3924 119.658 41.1025C119.635 40.9718 119.562 40.7558 119.771 40.7046C119.947 40.6648 120.224 40.5796 120.304 40.7899C120.502 41.3299 120.677 40.949 120.876 40.8126C121.538 40.3636 122.229 40.3295 122.948 40.6535C123.497 40.8979 123.679 41.3924 123.724 41.921C123.78 42.5406 123.78 43.1602 123.82 43.7798C123.894 44.8711 123.843 45.9682 123.848 47.0652C123.848 47.4177 123.758 47.6905 123.35 47.7076C122.857 47.7303 122.891 47.3665 122.931 47.0596C123.073 45.9341 123.01 44.7972 123.016 43.6661C123.016 43.1261 122.988 42.5747 122.92 42.0404C122.857 41.5743 122.62 41.2332 122.099 41.148C121.289 41.0116 120.462 41.688 120.462 42.5122C120.462 43.2739 120.462 44.0356 120.462 44.8029V44.8086Z" fill="#FCFEFD"/>
<path d="M104.194 45.9796C104.284 45.5021 103.995 45.1895 103.678 44.8825C103.18 44.3937 102.517 44.1777 101.945 43.8082C101.43 43.4729 101.113 43.0124 101.039 42.3985C100.915 41.3242 101.793 40.3409 102.885 40.4375C103.905 40.5284 104.454 40.8297 104.737 41.9154C104.799 42.1427 104.816 42.3587 104.539 42.4326C104.307 42.4952 104.143 42.3985 104.035 42.1598C103.842 41.7107 103.724 41.2276 103.072 41.131C102.5 41.0514 102.166 41.2617 101.872 41.6823C101.543 42.1655 101.844 42.5179 102.121 42.8646C102.551 43.3876 103.146 43.6775 103.735 43.9731C104.318 44.2686 104.686 44.7234 104.896 45.3486C105.145 46.0876 105.003 46.7526 104.522 47.287C103.99 47.8781 103.237 48.0827 102.455 47.9179C101.572 47.736 100.892 46.9459 100.909 46.2126C100.909 46.0364 100.87 45.8375 101.147 45.8489C101.351 45.8545 101.589 45.775 101.651 46.0876C101.668 46.1785 101.702 46.2695 101.73 46.3661C101.934 47.0369 102.432 47.3779 103.089 47.2415C103.899 47.071 104.307 46.5992 104.177 45.9796H104.194Z" fill="#FCFEFD"/>
<path d="M125.842 44.1379C125.842 45.0303 125.972 45.7977 126.34 46.5139C126.544 46.9118 126.81 47.2756 127.291 47.2415C127.767 47.2074 128.061 46.8322 128.259 46.4229C128.356 46.224 128.384 45.9853 128.418 45.7579C128.446 45.593 128.378 45.377 128.628 45.3486C128.843 45.3259 129.069 45.3316 129.256 45.4623C129.483 45.6215 129.25 45.7806 129.222 45.9284C129.086 46.7413 128.735 47.4802 127.954 47.8099C126.81 48.293 125.745 47.7133 125.315 46.3434C124.879 44.9621 124.924 43.5183 125.292 42.137C125.785 40.301 127.212 40.1021 128.367 40.8069C128.888 41.1253 129.103 41.6766 129.115 42.2848C129.115 42.4326 129.211 42.66 128.911 42.6714C128.701 42.677 128.531 42.66 128.458 42.4156C128.384 42.1655 128.322 41.8926 128.175 41.688C127.937 41.3469 127.603 41.1082 127.155 41.1764C126.521 41.2674 126.244 41.7733 126.119 42.2848C125.96 42.9158 125.774 43.5581 125.842 44.1322V44.1379Z" fill="#FCFEFD"/>
<path d="M66.2876 44.3312C66.2876 43.5524 66.282 42.768 66.2876 41.9893C66.2876 41.6312 66.248 41.3356 65.8176 41.2503C65.6534 41.2162 65.4779 41.0798 65.4835 40.8979C65.4949 40.6762 65.727 40.6933 65.8912 40.6535C66.197 40.5853 66.3329 40.4204 66.2933 40.0794C66.2537 39.7497 66.2933 39.4143 66.2763 39.0846C66.2593 38.7947 66.3443 38.6697 66.667 38.6697C67.0011 38.6697 66.9898 38.8573 66.9841 39.0846C66.9841 39.4541 66.9955 39.8293 66.9841 40.1987C66.9671 40.5512 67.1144 40.7046 67.4655 40.6819C67.6976 40.6648 68.0034 40.6364 67.9978 40.9604C67.9921 41.2844 67.6863 41.2901 67.4315 41.2674C67.1087 41.2389 66.9671 41.3697 66.9898 41.7107C67.0861 43.1318 66.9955 44.5585 67.0181 45.9853C67.0294 46.548 66.8539 47.2813 67.8222 47.2869C67.8845 47.2869 68.0204 47.4859 67.9978 47.5427C67.9468 47.6564 67.8335 47.7701 67.7146 47.8156C67.0691 48.077 66.2933 47.5541 66.2876 46.8549C66.282 46.0137 66.2876 45.1781 66.2876 44.3368V44.3312Z" fill="#FCFEFD"/>
<path d="M94.2496 42.9158C94.2496 44.3198 94.2496 45.7294 94.2496 47.1334C94.2496 47.4063 94.2898 47.7189 93.8821 47.7189C93.5027 47.7189 93.4229 47.4802 93.4229 47.1334C93.4342 44.3027 93.4342 41.472 93.4229 38.6412C93.4229 38.3286 93.4738 38.1069 93.8532 38.1012C94.2496 38.0956 94.2666 38.3343 94.2666 38.6412C94.2553 40.068 94.2666 41.4947 94.2666 42.9158C94.2666 42.9158 94.2609 42.9158 94.2553 42.9158H94.2496Z" fill="#FCFEFD"/>
<path d="M87.6702 42.8135C87.6702 41.4095 87.6702 40.0055 87.6702 38.6015C87.6702 38.3343 87.6532 38.0672 88.0382 38.0956C88.3497 38.1183 88.4573 38.2889 88.4573 38.6015C88.4233 41.4891 88.395 44.3766 88.4686 47.2642C88.4743 47.5825 88.3157 47.5996 88.0722 47.6166C87.7608 47.6394 87.6645 47.5086 87.6702 47.2074C87.6815 45.7465 87.6702 44.28 87.6702 42.8192V42.8135Z" fill="#FCFEFD"/>
<path d="M111.559 44.2857C111.491 43.3989 111.684 42.3076 111.463 41.2219C111.429 41.0627 111.333 40.7785 111.588 40.7217C111.786 40.6762 112.074 40.5227 112.199 40.9263C112.261 41.1196 112.482 41.0513 112.646 40.9547C112.907 40.7956 113.184 40.6648 113.467 40.5455C113.739 40.4318 113.904 40.517 113.989 40.7046C114.085 40.9149 114.073 41.1707 113.773 41.2787C113.722 41.2958 113.677 41.3583 113.626 41.364C112.578 41.472 112.324 42.1655 112.33 43.0806C112.341 44.4278 112.329 45.7749 112.34 47.1221C112.34 47.4063 112.357 47.6109 111.978 47.628C111.576 47.6507 111.548 47.4461 111.553 47.1278C111.57 46.2524 111.553 45.3713 111.553 44.297L111.559 44.2857Z" fill="#FCFEFD"/>
<path d="M69.0958 44.0811C69.0958 43.0693 69.1127 42.0518 69.0844 41.04C69.0788 40.7615 69.1241 40.6535 69.4015 40.6819C69.6167 40.7046 69.9055 40.6023 69.8942 40.9888C69.8942 41.0457 69.8942 41.1082 69.8942 41.1651C69.8942 43.1545 69.8942 45.144 69.8942 47.1335C69.8942 47.3495 69.9282 47.5768 69.7017 47.7076C69.4015 47.8781 69.0958 47.6848 69.0901 47.304C69.0788 46.2297 69.0901 45.161 69.0901 44.0867L69.0958 44.0811Z" fill="#FCFEFD"/>
<path d="M68.1045 37.3964C68.3027 37.3964 68.404 37.3964 68.5003 37.3964C70.0462 37.3794 70.0519 37.3964 69.9216 38.9482C69.8877 39.3575 69.6164 39.2552 69.5145 39.1187C69.0955 38.539 68.4952 38.107 68.1045 37.3964Z" fill="#FCFEFD"/>
<path d="M64.7639 25.3743C64.3053 24.84 63.8409 24.3114 63.3823 23.7771C63.2973 23.6804 63.1557 23.5781 63.252 23.4303C63.337 23.2939 63.5012 23.3564 63.6314 23.3621C64.4695 23.3697 64.8863 23.7884 64.8829 24.6183C64.8829 24.8513 64.8829 25.0844 64.8829 25.3175C64.8432 25.3402 64.8036 25.363 64.7639 25.38V25.3743Z" fill="#FCFEFD"/>
<path d="M24.7285 9.4585C26.5349 9.4585 28.1602 9.4585 29.7854 9.4585C30.1704 9.4585 30.1307 9.74271 30.1307 9.9985C30.1307 11.3059 30.1477 12.6132 30.1194 13.9206C30.1137 14.2787 30.2779 14.597 30.2496 14.9494C30.2326 15.1484 30.1987 15.3473 30.0118 15.4269C29.8023 15.5122 29.7966 15.2621 29.706 15.1541C28.3357 13.5682 26.9653 11.9766 25.595 10.385C25.3628 10.1122 25.1079 9.86208 24.7285 9.4585Z" fill="#FCFEFD"/>
<path d="M31.7217 18.8431C32.135 18.8431 32.5767 19.2467 32.5824 19.6162C32.5824 20.1107 32.1634 20.5029 31.6311 20.4859C31.1554 20.4688 30.8949 20.1676 30.8439 19.7299C30.7816 19.241 31.212 18.8431 31.7273 18.8431H31.7217Z" fill="#373076"/>
<path d="M109.006 30.9562C109.482 30.672 109.98 30.5526 110.28 30.1036C110.665 29.5238 110.807 28.9383 110.427 28.3187C110.184 27.9208 110.376 27.881 110.722 27.8754C112.064 27.8469 112.064 27.8413 112.058 29.16C112.058 29.5124 112.058 29.8648 112.069 30.2173C112.092 31.1097 111.882 31.445 110.988 31.7634C110.218 32.0362 109.94 31.9339 109.289 31.3086C109.193 31.2177 109.119 31.0983 109.012 30.9619L109.006 30.9562Z" fill="#0F959E"/>
<path d="M104.821 29.0748C104.373 29.0407 104.017 28.9156 103.977 28.4438C103.932 27.9152 104.356 27.7788 104.736 27.7845C105.053 27.7902 105.483 27.7958 105.495 28.3472C105.506 28.8645 105.194 29.0009 104.821 29.0748Z" fill="#0F959E"/>
<path d="M68.9882 29.0634C68.5862 29.069 68.0986 28.6939 68.1665 28.3585C68.2515 27.9265 68.6082 27.7844 69.0216 27.7674C69.452 27.7503 69.7357 27.9379 69.798 28.3699C69.8489 28.7564 69.4808 29.052 68.9882 29.0634Z" fill="#0F959E"/>
<path d="M61.4903 45.9569C61.5016 45.2748 61.9376 44.8825 62.4529 44.5472C62.5039 44.5188 62.5492 44.4733 62.6002 44.4562C62.9796 44.3312 63.3873 43.956 63.727 44.1152C64.1064 44.2914 63.7723 44.7915 63.812 45.144C63.8516 45.4964 63.8403 45.8602 63.761 46.2297C63.6194 46.9175 63.1494 47.1278 62.5888 47.2358C62.0226 47.3438 61.4846 46.6957 61.4903 45.9511V45.9569Z" fill="#0F959E"/>
<path d="M117.432 44.0299C117.369 44.8598 117.528 45.6556 117.313 46.4343C117.177 46.9118 116.543 47.3097 115.999 47.2529C115.529 47.2017 115.121 46.6787 115.082 46.1558C115.025 45.4339 115.348 44.928 115.942 44.5926C116.39 44.3425 116.854 44.1038 117.437 44.0299H117.432Z" fill="#0F959E"/>
<path d="M85.1265 45.1326C85.1095 45.5362 85.1662 45.9398 85.0189 46.3434C84.7981 46.9459 84.2318 47.3551 83.6429 47.2585C83.1502 47.1789 82.8105 46.6674 82.7765 46.0421C82.7425 45.4509 82.9917 45.0303 83.4674 44.7347C83.7958 44.5301 84.1412 44.3539 84.4979 44.2061C85.0869 43.9617 85.1265 44.0015 85.1265 44.6097C85.1265 44.7859 85.1265 44.9621 85.1265 45.1383V45.1326Z" fill="#0F959E"/>
<path d="M75.0303 44.1891C75.0303 44.8029 74.9567 45.36 74.8321 45.9114C74.6452 46.7185 74.1475 47.2699 73.5246 47.2472C72.8394 47.2244 72.5444 46.6958 72.3575 46.1274C71.9102 44.7518 71.8705 43.3762 72.4594 42.0234C72.669 41.5345 72.9861 41.0912 73.5637 41.1594C74.1129 41.2219 74.5206 41.4379 74.7358 42.2507C74.9114 42.9101 75.0699 43.5581 75.0359 44.1891H75.0303Z" fill="#0F959E"/>
<path d="M132.398 43.4786C132.126 43.4786 131.928 43.4786 131.735 43.4786C131.01 43.4899 130.846 43.2853 131.033 42.5691C131.118 42.2337 131.237 41.9154 131.418 41.6141C131.877 40.8525 133.072 41.0571 133.304 41.7619C133.457 42.2224 133.683 42.6885 133.553 43.1602C133.349 43.8821 132.703 43.2455 132.398 43.4842V43.4786Z" fill="#0F959E"/>
</g>
<defs>
<clipPath id="clip0_20_301">
<rect width="141" height="54" fill="white"/>
</clipPath>
</defs>
</svg>
