<svg width="141" height="46" viewBox="0 0 141 46" fill="none" xmlns="http://www.w3.org/2000/svg">
<g clip-path="url(#clip0_20_341)">
<path d="M31.8635 31.9483C36.8148 26.9814 36.8148 18.9285 31.8635 13.9615C26.9122 8.99462 18.8845 8.99462 13.9332 13.9615C8.98189 18.9285 8.98189 26.9814 13.9332 31.9483C18.8845 36.9152 26.9122 36.9152 31.8635 31.9483Z" fill="#0066B2"/>
<path d="M22.8984 0C29.2172 0 34.9362 2.57095 39.0772 6.72499C43.2183 10.879 45.7779 16.6162 45.7779 22.9548C45.7779 29.2936 43.2183 35.0307 39.0772 39.1849C34.9362 43.3388 29.2172 45.9066 22.8984 45.9066C16.5796 45.9066 10.8605 43.3356 6.71948 39.1817C2.57848 35.034 0.015625 29.2936 0.015625 22.9548C0.015625 16.6162 2.57534 10.879 6.71632 6.72499C10.8573 2.57095 16.5796 0 22.8984 0ZM22.8984 0.851706C16.8163 0.851706 11.3086 3.3245 7.32231 7.32657C3.33283 11.3286 0.864653 16.8536 0.864653 22.9548C0.864653 29.0562 3.33283 34.5811 7.31916 38.58C11.3086 42.5822 16.8163 45.055 22.8952 45.055C28.9773 45.055 34.4849 42.5822 38.4712 38.58C42.4608 34.578 44.9257 29.053 44.9257 22.9548C44.9257 16.8536 42.4575 11.3286 38.4712 7.32973C34.4817 3.32767 28.9741 0.854872 22.8952 0.854872L22.8984 0.851706Z" fill="#0066B2"/>
<path d="M22.8981 1.89656C28.6962 1.89656 33.9418 4.25537 37.7388 8.06429C41.5357 11.8732 43.8872 17.1386 43.8872 22.9518C43.8872 28.768 41.5389 34.0302 37.7388 37.8391C33.9418 41.648 28.693 44.0069 22.8981 44.0069C17.1001 44.0069 11.8545 41.648 8.05753 37.8391C4.26058 34.0302 1.90918 28.7648 1.90918 22.9518C1.90918 17.1355 4.25743 11.8732 8.05753 8.06429C11.8545 4.25537 17.1033 1.89656 22.8981 1.89656ZM22.8981 2.74826C17.34 2.74826 12.3058 5.00892 8.66038 8.66587C5.01493 12.3228 2.75822 17.3729 2.75822 22.9518C2.75822 28.5274 5.01493 33.5775 8.66038 37.2344C12.3058 40.8913 17.34 43.1553 22.9013 43.1553C28.4595 43.1553 33.4937 40.8946 37.1391 37.2376C40.7846 33.5807 43.0413 28.5306 43.0413 22.9518C43.0413 17.3761 40.7846 12.326 37.1391 8.66905C33.4937 5.01209 28.4595 2.74826 22.8981 2.74826Z" fill="#0066B2"/>
<path d="M22.8976 6.9308C27.31 6.9308 31.3026 8.72603 34.1938 11.6263C37.0848 14.5265 38.8713 18.5317 38.8713 22.9581C38.8713 27.3844 37.0848 31.3896 34.1938 34.2899C31.3026 37.1901 27.31 38.9821 22.8976 38.9821C18.4851 38.9821 14.4925 37.1869 11.6014 34.2868C8.71026 31.3865 6.92383 27.3812 6.92383 22.9548C6.92383 18.5286 8.71026 14.5233 11.6014 11.6231C14.4925 8.72287 18.4851 6.9308 22.8976 6.9308ZM22.8976 7.78251C18.7218 7.78251 14.9438 9.47959 12.2042 12.2278C9.46776 14.9729 7.77285 18.766 7.77285 22.9548C7.77285 27.1438 9.46776 30.9337 12.2042 33.6819C14.9407 36.4271 18.7218 38.1273 22.8976 38.1273C27.0733 38.1273 30.8513 36.4302 33.5909 33.6819C36.3273 30.9369 38.0222 27.1438 38.0222 22.9548C38.0222 18.766 36.3273 14.9761 33.5909 12.2278C30.8545 9.48275 27.0733 7.78251 22.8976 7.78251Z" fill="#0066B2"/>
<path d="M22.8984 8.71976C26.8186 8.71976 30.3661 10.3155 32.9321 12.8896C35.4981 15.4637 37.0889 19.0226 37.0889 22.955C37.0889 26.8874 35.5014 30.4461 32.9321 33.0203C30.3661 35.5944 26.8186 37.1902 22.8984 37.1902C18.9784 37.1902 15.4309 35.5944 12.8648 33.0203C10.2988 30.4461 8.70801 26.8874 8.70801 22.955C8.70801 19.0226 10.2956 15.4637 12.8648 12.8896C15.4309 10.3155 18.9784 8.71976 22.8984 8.71976ZM22.8984 9.57147C19.2152 9.57147 15.8821 11.0691 13.4676 13.4912C11.0531 15.9133 9.55703 19.26 9.55703 22.9518C9.55703 26.6467 11.0499 29.9902 13.4676 32.4124C15.8821 34.8346 19.2182 36.3352 22.8984 36.3352C26.5818 36.3352 29.9147 34.8377 32.3293 32.4156C34.7438 29.9934 36.2399 26.6467 36.2399 22.955C36.2399 19.26 34.747 15.9166 32.3293 13.4944C29.9147 11.0722 26.5786 9.57147 22.8984 9.57147Z" fill="#0066B2"/>
<path d="M13.9978 16.4895C14.4587 16.7174 14.9384 16.6953 15.1594 16.4325C15.2824 16.2932 15.2824 16.0937 15.1656 15.986C15.0614 15.8974 14.8942 15.8626 14.7017 15.8911L14.7364 15.8246C14.8878 15.8278 15.0646 15.777 15.2445 15.6758L15.5949 15.9828L16.0147 15.8278L14.8815 14.8398L15.2098 14.5518L15.0519 14.3333L14.222 15.1628L14.5438 15.2294L14.6259 15.1343L14.9226 15.3939C14.9226 15.5016 14.8595 15.625 14.7585 15.7486C14.7585 15.6758 14.7238 15.5997 14.6543 15.5396C14.4176 15.3338 14.0199 15.4004 13.7643 15.6916C13.6948 15.7707 13.6412 15.8594 13.6064 15.9575L14.0105 16.0937C14.042 15.9322 14.1145 15.7802 14.222 15.66C14.2881 15.5839 14.3577 15.5364 14.3797 15.5586C14.4176 15.5902 14.3956 15.7043 14.3355 15.8531C14.3166 15.9037 14.2724 15.9545 14.1651 16.1317L14.5154 16.2457L14.6859 15.967C14.8122 16.0779 14.8437 16.252 14.7521 16.3564C14.6196 16.5084 14.3355 16.5306 14.0325 16.4198L13.9978 16.4863V16.4895ZM15.5665 14.8906C15.5191 14.8398 15.5223 14.7639 15.5665 14.7259C15.6296 14.672 15.6643 14.6435 15.6864 14.6467L15.4971 14.3365L15.2003 14.5866L15.0173 14.3681L15.8758 13.6146L16.0494 13.833L15.7716 14.1054C15.9262 14.2351 16.0494 14.3555 16.1347 14.4567C16.3208 14.6753 16.3839 14.9254 16.2766 15.0173C16.0809 15.185 15.7621 15.128 15.5633 14.8906H15.5665ZM16.3682 14.2509C16.3113 14.1592 16.346 14.0325 16.447 13.9692L17.0689 13.5797L16.8985 13.3043L16.0272 13.8489L15.8758 13.6051L17.3118 12.7059L17.4634 12.9497L17.233 13.0953L18.0284 14.3745L17.5802 14.3998L17.2393 13.852L16.9521 14.0325L17.0657 14.2161C17.1288 14.3175 17.1257 14.4314 17.0594 14.4757C16.9836 14.5233 16.8511 14.5201 16.6995 14.4757C16.5481 14.4283 16.4313 14.3491 16.3714 14.2541L16.3682 14.2509ZM15.5128 12.7375L15.9294 12.994C15.9768 12.9243 16.0462 12.8642 16.1347 12.8135C16.2135 12.7692 16.2956 12.7565 16.365 12.785L16.8574 12.9972L16.9489 12.9433L16.223 12.6172C16.103 12.5729 15.8506 12.6141 15.5096 12.7407L15.5128 12.7375ZM18.6091 12.9497C18.6438 13.0542 18.7416 13.1586 18.8805 13.241C19.0195 13.3233 19.1457 13.3549 19.2308 13.3264C19.3066 13.3011 19.335 13.1871 19.2971 13.0763L19.2277 12.8737L19.5496 12.7629L19.758 13.3739L20.1998 13.4499L19.7107 12.0251L19.9663 11.9365L19.8716 11.661L18.2714 12.2183L18.366 12.4906L19.3382 12.1549L19.4423 12.4589L18.7479 12.6995C18.6376 12.7375 18.5744 12.8547 18.6091 12.956V12.9497ZM20.1966 12.2309C20.3734 12.1645 20.4902 12.0378 20.4713 11.927C20.4713 11.8953 20.4492 11.8605 20.4176 11.8257L19.9599 11.9365L19.8558 11.6484L21.6486 11.3127L21.699 11.5945L21.4371 11.642L21.699 13.127L21.2729 12.9813L21.2225 12.6995C21.153 12.7217 21.0993 12.7407 21.0489 12.747C20.7427 12.8009 20.4049 12.5919 20.1936 12.2246L20.1966 12.2309ZM20.5344 12.5001C20.6228 12.5317 20.689 12.5444 20.7237 12.5381C20.8943 12.5096 21.0489 12.3797 21.134 12.193L21.0489 11.7149L20.6954 11.7782C20.7775 11.8447 20.8342 11.9397 20.8501 12.041C20.8878 12.2278 20.7491 12.4209 20.5313 12.4969L20.5344 12.5001ZM22.788 11.5439L23.2141 11.5724C23.2614 11.7338 23.2361 11.8953 23.1477 11.9998C23.1036 11.908 23.0247 11.8478 22.9427 11.8415C22.8826 11.8383 22.829 11.8985 22.8258 11.9776C22.8195 12.0441 22.8731 12.1739 22.9805 12.3481L23.4982 13.1586L23.6433 13.1143L23.2488 12.5824C23.4002 12.5381 23.5139 12.4114 23.5581 12.2436C23.6812 12.3639 23.8011 12.4399 23.9021 12.4652L23.8706 12.9117L24.2493 13.1555L24.3535 11.6515L24.7417 11.718L24.8048 11.4457L22.8069 11.2526L22.788 11.5375V11.5439ZM23.5171 11.5945L23.9621 11.6262L23.9337 12.0188C23.8454 12.0821 23.7443 12.1106 23.6401 12.1075L23.5675 12.1011C23.5802 11.9333 23.5613 11.7623 23.5139 11.5945H23.5171ZM22.911 13.0668L22.9899 13.0257C23.1509 13.3106 23.4192 13.5069 23.7127 13.5576C23.9841 13.6082 24.2367 13.4784 24.2714 13.2694C24.2714 13.2568 24.2493 13.2473 24.2208 13.241C24.1577 13.2251 24.0567 13.2821 23.8863 13.3834L23.596 13.0763C23.7506 12.9877 23.899 12.9465 24.0158 12.9687C24.3093 13.0193 24.5081 13.2663 24.464 13.5227C24.4229 13.757 24.1515 13.9059 23.8611 13.852C23.5044 13.7887 23.1604 13.5006 22.911 13.0637V13.0668ZM24.8489 11.7465L24.7417 11.7212L24.8048 11.4426L26.2251 11.7718L26.162 12.0505L25.8968 11.9903L25.5591 13.4594L25.2246 13.1586L25.2877 12.88C25.051 12.8294 24.8427 12.5824 24.7385 12.2373L24.8521 11.7465H24.8489ZM25.2308 11.8352L25.0699 12.5349C25.0604 12.5634 25.0699 12.5919 25.0921 12.5951C25.1961 12.6204 25.3129 12.5634 25.3792 12.4589L25.5087 11.8985L25.2308 11.8352ZM26.3703 11.9935C26.3071 12.1581 26.386 12.3608 26.5628 12.4906C26.3797 12.5191 26.2472 12.5222 26.1777 12.4969C26.1682 12.9085 26.3703 13.2631 26.6828 13.3834C26.7554 13.4119 26.8312 13.4278 26.8973 13.4278L26.809 13.6621L27.0994 14.004L27.6391 12.5951L28.0021 12.766L28.141 12.5222L27.0741 12.0695L27.172 12.4146L27.273 12.4526L27.0867 12.937C26.9258 13.0668 26.7207 13.108 26.5501 13.0383C26.5092 13.0225 26.4586 12.9655 26.3703 12.8547C26.6796 12.8579 26.9195 12.7724 26.9699 12.6425C27.0205 12.5127 27.0141 12.3449 26.951 12.174C26.8911 12.003 26.7933 11.8827 26.6828 11.8415C26.5628 11.794 26.4271 11.8605 26.3765 11.9935H26.3703ZM26.6259 12.3228C26.6606 12.2278 26.7332 12.1676 26.7901 12.193C26.828 12.2056 26.8469 12.2499 26.8312 12.2848C26.7901 12.3956 26.7175 12.4716 26.6417 12.4811C26.6165 12.4146 26.6132 12.3576 26.6259 12.3228ZM28.8984 12.9497L28.7596 13.1998L28.5292 13.07L27.8 14.3903L27.5601 14.0103L28.1852 12.88L27.9894 12.7692L28.1283 12.5191L28.9016 12.9497H28.8984ZM28.485 12.0156L28.5985 12.3671L28.9552 12.2784L28.8511 11.9112L28.485 12.0156ZM29.2456 14.0546C29.1889 14.1307 29.1604 14.2636 29.1699 14.4251L29.2204 15.1597C29.2298 15.3085 29.255 15.4162 29.2992 15.4447C29.3151 15.4573 29.3561 15.4731 29.4224 15.4921L29.3276 14.8145C29.5202 14.8019 29.6875 14.7228 29.7821 14.5961C29.8358 14.5233 29.921 14.3681 30.0473 14.1244L30.4072 14.4251L30.5838 14.213L29.6244 13.4468L29.4508 13.6747L29.7853 13.928C29.7412 13.985 29.6434 14.0863 29.495 14.2256C29.4571 14.1402 29.4192 14.0768 29.3813 14.0483C29.334 14.0103 29.2677 14.0135 29.2425 14.0546H29.2456ZM31.3067 14.8969L31.092 15.0932L30.8332 14.8463L29.8075 15.948L29.6654 15.5206L30.5429 14.5771L30.3787 14.4219L30.5743 14.213L31.3067 14.8969ZM30.83 15.3465C30.6249 15.7169 30.6185 16.1158 30.8237 16.3501C30.8552 16.3882 30.8995 16.4262 30.9532 16.4736L30.7385 16.6604L30.8332 17.1005L31.9662 16.1127L32.1398 16.3121L32.3545 16.1253L31.2814 14.8874L31.0667 15.0742L31.2845 15.3275C31.272 15.3718 31.253 15.4066 31.2278 15.4257C31.1425 15.4985 30.9752 15.4637 30.8269 15.3465H30.83ZM30.7764 15.7739C30.7953 15.8657 30.8175 15.929 30.8395 15.9575C30.9532 16.0874 31.1425 16.1538 31.3476 16.1317L31.7107 15.8151L31.4771 15.5428C31.4613 15.6473 31.4107 15.7454 31.3319 15.8118C31.1899 15.9385 30.9562 15.9195 30.7764 15.7739ZM32.2219 14.4632C32.383 14.7892 32.4523 15.0361 32.4177 15.1628L32.1715 15.9195L32.1083 15.8309L32.2661 15.318C32.285 15.2452 32.2661 15.1628 32.2124 15.09C32.1525 15.0045 32.0831 14.9444 32.0105 14.9032L32.2219 14.4599V14.4632Z" fill="white"/>
<path d="M6.87618 17.6483L7.23283 17.3223L5.70837 16.7967L5.80306 16.5211L5.51269 16.4199L5.418 16.6953L5.16549 16.6067C4.98559 16.5434 4.88459 16.3471 4.95087 16.1666C5.02663 15.9449 5.33593 15.7138 5.79359 15.5396L5.77465 15.4162C5.12446 15.6663 4.68891 15.9925 4.57844 16.3027C4.48375 16.575 4.58475 16.8599 4.80884 16.9328L5.13394 17.0468L5.34225 16.9137L5.20338 17.3159L5.49375 17.4172L5.5695 17.1956L6.87303 17.6451L6.87618 17.6483ZM5.83462 16.3787L5.55687 16.2489L6.18181 14.9064L6.45956 15.0363L6.34277 15.2895C6.5574 15.3465 6.62684 15.3593 6.68049 15.3846C6.77834 15.4289 6.8099 15.5586 6.75624 15.6758L6.59528 16.0241C6.51321 16.1983 6.57318 16.3977 6.72784 16.4673C6.82569 16.5086 6.95509 16.4294 7.02452 16.2869C7.04346 16.2552 7.04346 16.1983 7.02768 16.1413C7.00559 16.1413 6.95509 16.1285 6.87934 16.0937C6.80359 16.0558 6.78149 15.9417 6.82883 15.8373C6.91406 15.6568 7.13814 15.5809 7.33068 15.6695C7.41906 15.7106 7.47902 15.8215 7.49165 15.9577L7.96825 15.8405C7.96193 15.9069 7.96825 15.9291 7.96193 15.9449C7.93667 16.0051 7.86092 16.0431 7.76623 16.0463L7.48219 16.0621C7.48219 16.0779 7.47586 16.0937 7.4664 16.1255C7.46009 16.1508 7.45378 16.1698 7.45061 16.1824C7.38434 16.3248 7.22652 16.4547 7.01506 16.5371C6.80674 16.6193 6.6079 16.6288 6.46902 16.5624C6.2544 16.4673 6.16919 16.2046 6.27333 15.983L6.34594 15.8246C6.36802 15.7772 6.3554 15.7233 6.31753 15.7043L6.17865 15.6378L5.83462 16.3756V16.3787ZM7.2644 14.3365C7.78833 14.5075 8.29333 14.4156 8.48903 14.1023C8.59634 13.9344 8.57108 13.7223 8.42905 13.6273C8.30596 13.5481 8.1229 13.5386 7.92405 13.5956L7.9493 13.5196C8.11028 13.5007 8.29018 13.4215 8.46693 13.2853L8.88355 13.5576L9.30649 13.3297L7.95561 12.4495L8.11659 12.2025L7.86092 12.0347L7.30227 12.8959L7.65261 12.9181L7.72522 12.8041L8.0787 13.0352C8.09133 13.1492 8.04715 13.2885 7.95561 13.4373C7.94615 13.3582 7.89564 13.2822 7.81358 13.2315C7.52953 13.0479 7.11921 13.1777 6.89196 13.526C6.832 13.621 6.7878 13.7223 6.76256 13.8299L7.21075 13.9154C7.22021 13.7381 7.27703 13.5671 7.36855 13.4215C7.42852 13.3297 7.49481 13.2695 7.52005 13.2917C7.56424 13.3202 7.55792 13.4437 7.52005 13.6115C7.50743 13.6685 7.4664 13.7286 7.38117 13.9344L7.7694 14.0041L7.90826 13.6811C8.05977 13.7793 8.11659 13.9597 8.03452 14.0864C7.91774 14.2669 7.61789 14.3334 7.28017 14.2606L7.25493 14.3365H7.2644ZM8.53952 11.1672L8.78255 11.3571L8.60896 11.5819L9.87776 12.5761L9.43589 12.7661L8.34699 11.9144L8.19864 12.1044L7.95561 11.9144L8.53952 11.1672ZM6.77834 11.8859L7.29281 11.9745C7.31175 11.8859 7.35593 11.8004 7.42537 11.7117C7.48533 11.6358 7.56424 11.5914 7.64315 11.5883L8.21759 11.6009L8.28701 11.5091L7.43799 11.4775C7.29912 11.4806 7.06555 11.6263 6.77834 11.8891V11.8859ZM10.0293 12.003L10.4806 11.8352L9.26546 10.7746L9.45798 10.5529L9.22758 10.3503L9.03505 10.5719L8.83305 10.3946C8.68786 10.268 8.66893 10.0495 8.79833 9.90702C8.95299 9.72972 9.32543 9.63157 9.81464 9.64106L9.84304 9.51757C9.14551 9.50492 8.62158 9.64422 8.40065 9.89119C8.21128 10.1097 8.2018 10.4104 8.37855 10.5593L8.64052 10.7872L8.88355 10.7429L8.6058 11.0658L8.8362 11.2685L8.99086 11.0912L10.0324 11.9999L10.0293 12.003ZM9.88724 10.7904C9.84621 10.7556 9.85252 10.6891 9.8967 10.6416C9.93142 10.6068 10.0009 10.5719 10.0987 10.5434C9.97245 10.3661 9.87776 10.249 9.82095 10.1951L9.50849 10.5181L9.28754 10.3028L10.1145 9.44476L10.3354 9.65689L10.0608 9.94185C10.3039 10.1097 10.4585 10.2205 10.528 10.287C10.6479 10.4041 10.711 10.5941 10.6984 10.7999L11.4306 10.7872C11.4022 10.8569 11.3801 10.8949 11.3644 10.9107C11.3296 10.9519 11.2128 10.9677 11.0519 10.955L10.266 10.9139C10.0955 10.9044 9.95983 10.8569 9.88408 10.7841L9.88724 10.7904ZM10.4585 9.55557L10.2628 9.32127L11.4938 8.28593L11.6894 8.52023L11.4464 8.72602C11.6137 8.86534 11.762 9.01416 11.8851 9.15979C12.0303 9.33394 12.0587 9.55557 11.9609 9.69805L11.4748 9.65689C11.5506 9.57458 11.5474 9.44475 11.4748 9.3561L11.156 8.973L10.8909 9.19462L11.4212 9.82787C11.5095 9.93552 11.7589 9.95134 12.0556 9.86902C12.3775 9.75188 12.6616 9.75504 12.7626 9.87853C12.7973 9.91969 12.8162 9.98301 12.8162 10.059L12.3333 10.1382C12.3523 10.0907 12.3428 10.0305 12.3049 9.98617C12.2323 9.89753 12.0114 9.97668 11.6042 10.0463C11.3075 10.097 11.0456 10.0368 10.9225 9.89119L10.5658 9.46376L10.4617 9.5524L10.4585 9.55557ZM11.8662 8.36824L12.1629 8.79252C12.5637 8.93817 12.8951 8.95716 13.0466 8.85267C13.2202 8.73236 13.2612 8.49173 13.1413 8.31759L12.7468 7.75084L12.892 7.64953L12.7152 7.39623L11.6011 8.17827L11.7778 8.43157L11.8693 8.36824H11.8662ZM12.2102 8.12446L12.6489 8.75452C12.6742 8.78935 12.7215 8.79885 12.7563 8.77352C12.8288 8.7292 12.8131 8.58672 12.7278 8.46324L12.3996 7.99148L12.2102 8.12446ZM13.4191 8.12762C13.5043 8.27327 13.6873 8.38724 13.9272 8.43474C14.1734 8.48857 14.3975 8.4664 14.5585 8.37458C14.6815 8.30492 14.8015 8.17194 14.8962 8.00097L14.4827 7.82049C14.3944 8.01997 14.2712 8.16878 14.1292 8.24793C13.9619 8.34292 13.7757 8.33342 13.7158 8.22261C13.6305 8.07696 13.7063 7.87432 13.8767 7.773L14.1924 7.58936C14.265 7.5482 14.2902 7.45322 14.2492 7.38039C14.1545 7.21576 14.0597 7.07644 13.9682 6.96562L14.2744 6.78832L14.1198 6.52236L12.8131 7.27908L12.9677 7.54504L13.6368 7.15559L13.7315 7.3234C13.7568 7.3709 13.7378 7.43106 13.681 7.46589L13.5642 7.53237C13.3622 7.64953 13.296 7.91231 13.4191 8.12762ZM14.4196 6.69966L14.2934 6.41787L16.3418 5.50285L16.468 5.78464L16.1524 5.92395L16.8088 7.39939L16.3291 7.3614L16.0325 6.69333C15.9472 6.66483 15.9157 6.93079 15.9756 7.18093L15.5431 7.24742C15.5179 7.1366 15.5149 7.01629 15.5337 6.8928C15.4832 6.88647 15.4485 6.88964 15.4296 6.89596C15.2655 6.97195 15.1834 7.14927 15.2497 7.29175C15.3286 7.47538 15.559 7.6337 15.8809 7.72552L15.8431 7.82683C15.2812 7.71601 14.8804 7.50388 14.7699 7.25374C14.6815 7.06061 14.792 6.82315 15.0161 6.72184C15.155 6.66483 15.3475 6.68383 15.5464 6.77882C15.5716 6.58568 15.6915 6.41787 15.8746 6.33872L15.7641 6.09176L14.4164 6.69333L14.4196 6.69966ZM17.601 5.83529C17.6264 5.93662 17.7179 6.03793 17.8536 6.11708C17.9893 6.19941 18.1218 6.23108 18.2134 6.20574C18.3017 6.18041 18.368 6.10443 18.4564 6.07909C18.4848 6.0696 18.5132 6.07909 18.5227 6.10125C18.5606 6.2374 18.4059 6.39255 18.1944 6.42738C18.0367 6.35455 17.9388 6.31656 17.8914 6.32923C17.8095 6.35139 17.7621 6.44321 17.7873 6.53503C17.8472 6.76298 18.1376 6.88014 18.4343 6.79781C18.4596 6.84531 18.5448 6.91181 18.6426 7.06061C18.7184 7.17143 18.8068 7.23476 18.8636 7.21892C18.8794 7.21576 18.892 7.19359 18.9457 7.15559L18.5164 6.73449C18.6963 6.60784 18.7846 6.40838 18.7405 6.2374C18.7152 6.13924 18.63 6.04427 18.5037 5.96194C18.3743 5.87962 18.2513 5.84796 18.166 5.8733C18.0809 5.89546 18.0019 5.93662 17.9103 5.96194C17.8694 5.97145 17.8315 5.96827 17.8252 5.94611C17.8063 5.87646 17.8726 5.79731 17.9767 5.76564L18.346 5.66748C18.4281 5.64532 18.4753 5.55984 18.4533 5.48069C18.4406 5.43635 18.4091 5.36036 18.346 5.23055L18.6047 5.1609L18.5259 4.86327L17.2728 5.19889L17.3518 5.49652L17.9734 5.32871C17.9956 5.41103 17.9641 5.49018 17.9009 5.50601L17.7526 5.54717C17.6294 5.57884 17.5569 5.70865 17.5885 5.82896L17.601 5.83529ZM17.6831 4.35985L18.024 4.55616L18.245 4.23003L17.9009 4.01473L17.6863 4.35985H17.6831ZM18.8983 5.3192C19.1066 5.24322 19.1855 5.20839 19.2455 5.19889L19.2108 5.00892L18.7751 5.08491L18.7215 4.78096L19.9398 4.56565L19.9936 4.8696L19.6242 4.9361L19.6843 5.27805C19.8515 5.3382 19.9714 5.48069 20.003 5.65166C20.0408 5.86063 19.9146 6.08543 19.6937 6.21523L20.0692 6.6965C20.0345 6.7155 20.0061 6.72816 19.9777 6.73133C19.9178 6.74082 19.8484 6.69966 19.8041 6.62684L19.6022 6.25324C19.3212 6.25324 19.0939 6.13608 19.0656 5.97777C19.0467 5.8733 19.1066 5.77514 19.2013 5.7593C19.2423 5.75297 19.3024 5.79731 19.4349 5.8733C19.6053 5.7783 19.6968 5.59783 19.6684 5.42368C19.6621 5.39203 19.6242 5.37303 19.5832 5.37936C19.5107 5.39519 19.3938 5.46802 19.1949 5.60416L18.892 5.32553L18.8983 5.3192ZM20.1387 5.25905C20.3438 5.66432 20.6942 5.90812 21.0256 5.86696C21.0792 5.86063 21.1393 5.84479 21.2149 5.8258L21.2528 6.12975L21.701 6.30705L21.5054 4.70497L21.7863 4.67014L21.7484 4.36619L20.0093 4.58148L20.0472 4.88544L20.4007 4.84111C20.4322 4.87911 20.4511 4.9171 20.4543 4.95193C20.4701 5.06908 20.3376 5.19889 20.145 5.26221L20.1387 5.25905ZM20.4858 5.56617C20.7257 5.49334 20.8804 5.29704 20.852 5.0944C20.8394 4.98359 20.7826 4.87911 20.7005 4.80312L21.0824 4.75562L21.1455 5.27172C21.0413 5.46802 20.8679 5.59783 20.6848 5.61999C20.6469 5.62316 20.5774 5.60733 20.4858 5.56617ZM22.8846 4.35668L21.9378 4.37251L21.944 4.67963H22.1871L22.2124 6.06009L22.6384 6.28489L22.61 4.67014L22.8941 4.6638L22.8878 4.35668H22.8846ZM21.3159 3.34351L21.5559 3.80893C21.6379 3.77094 21.7327 3.7551 21.843 3.7551C21.9377 3.7551 22.023 3.7931 22.0703 3.85643L22.408 4.32503H22.5217L22.0356 3.62529C21.9504 3.51765 21.6948 3.41632 21.3129 3.34351H21.3159ZM23.0235 5.10391C23.0235 5.20839 23.0804 5.3382 23.1907 5.47118L23.699 6.07592C23.7999 6.19941 23.8914 6.2754 23.9452 6.27222C23.9672 6.27222 24.0114 6.26273 24.0809 6.23424L23.5726 5.70549C23.7337 5.57251 23.8283 5.39836 23.8315 5.23055C23.8315 5.13556 23.8093 4.94559 23.7652 4.65114L24.1598 4.65747L24.166 4.35035L22.9794 4.32819L22.973 4.63531L23.4212 4.64164C23.4212 4.71763 23.399 4.8696 23.3549 5.08175C23.2665 5.03108 23.1939 5.00258 23.1466 5.00258C23.0804 5.00258 23.0266 5.04374 23.0298 5.09757L23.0235 5.10391ZM22.6795 3.34033C23.0582 3.43215 23.3076 3.54614 23.3865 3.66012L23.8347 4.38518L23.721 4.37568L23.4085 3.89126C23.3643 3.82793 23.2823 3.78677 23.1845 3.78044C23.074 3.7741 22.9762 3.7836 22.8941 3.81842L22.6763 3.34033H22.6795ZM23.6926 3.70129L23.9609 3.98941L24.267 3.74245L23.9988 3.43532L23.6926 3.70445V3.70129ZM24.3428 4.6923L24.7941 4.74929C24.8352 4.92343 24.7973 5.0944 24.6995 5.20206C24.6584 5.10073 24.5763 5.03108 24.4912 5.02158C24.428 5.01209 24.3648 5.07541 24.3586 5.1609C24.3491 5.23371 24.3997 5.3762 24.5006 5.56617L25.0088 6.46221L25.1665 6.42421L24.7752 5.83213C24.9393 5.79413 25.0687 5.66432 25.1256 5.48701C25.2518 5.62316 25.3748 5.71181 25.4791 5.74348L25.4222 6.22157L25.8136 6.50336L26.0093 4.8981L26.2997 4.93292L26.3376 4.62898L24.3775 4.38835L24.3396 4.6923H24.3428ZM25.1193 4.78729L25.5958 4.84428L25.5454 5.26538C25.4474 5.32553 25.3371 5.35087 25.2266 5.34137L25.1508 5.33187C25.1729 5.1514 25.1635 4.96775 25.1224 4.78729H25.1193ZM27.1992 5.70231C27.1109 6.02844 27.3823 6.38304 27.7989 6.5002L27.7295 6.75982L28.0767 7.09227L28.266 6.38622C28.4207 6.2754 28.5659 6.2279 28.6574 6.25324C28.6858 6.26273 28.7016 6.2944 28.6984 6.32289C28.6669 6.44637 28.5469 6.61102 28.3512 6.80732L28.7268 7.18726C28.7899 7.05428 28.831 6.95613 28.8435 6.89914C28.9699 6.42738 28.771 5.96511 28.4049 5.86696L28.4933 5.53134L29.3044 5.74981L29.3833 5.45218L27.3254 4.8981L27.2466 5.19573L28.0862 5.42052L27.9757 5.82896L27.84 5.59467C27.7799 5.55033 27.72 5.51868 27.6632 5.50918C27.4486 5.45218 27.2403 5.53768 27.196 5.70231H27.1992ZM27.3601 6.06327C27.4043 5.89862 27.6726 5.82896 27.9567 5.90495L27.9283 6.01577C27.7011 6.12342 27.5242 6.16458 27.4202 6.13924C27.3791 6.12975 27.3539 6.09176 27.3601 6.06327ZM29.216 6.53185C29.2444 6.4717 29.3139 6.44637 29.3833 6.4717L29.5253 6.52553L29.7305 5.98728L29.4023 5.86063L29.5127 5.57251L30.5038 5.95561L30.3933 6.24373L30.1251 6.13924L29.9199 6.6775L30.2418 6.80099L30.1187 7.12394L29.7968 7.00045L29.7273 7.18093C29.6958 7.27274 29.62 7.3234 29.5569 7.30124C29.4622 7.26008 29.3644 7.13976 29.2855 6.96246C29.2066 6.77882 29.1813 6.62684 29.216 6.53185ZM30.6048 6.35455L30.3681 6.83897C30.3933 7.22525 30.5512 7.53237 30.7879 7.64319L30.6522 7.91865L30.9298 8.31125L31.6369 6.85798L31.8989 6.98462L32.0346 6.70917L30.6332 6.0221L30.4975 6.29756L30.6048 6.35139V6.35455ZM30.9835 6.54136L31.2581 6.6775L30.9899 7.23158C30.8919 7.32657 30.7594 7.35507 30.6552 7.30441C30.6332 7.29491 30.63 7.26325 30.6458 7.23476L30.9804 6.54452L30.9835 6.54136ZM31.8104 7.6337C31.8704 7.53555 32.0094 7.51021 32.1166 7.57671L32.7826 7.99464L32.9657 7.70018L32.0314 7.11444L32.1924 6.85482L33.7295 7.81733L33.5684 8.07696L33.3222 7.92182L32.4701 9.29277L32.2334 8.87167L32.5996 8.28593L32.2902 8.09279L32.1671 8.28909C32.1009 8.39674 31.9872 8.44741 31.9146 8.40307C31.8326 8.35242 31.7726 8.22261 31.7473 8.0548C31.7221 7.88382 31.7442 7.73501 31.8073 7.6337H31.8104ZM33.6033 7.07011L33.3728 7.37723L33.4486 7.57671L33.6095 7.70018L33.7705 7.48488C33.862 7.36456 34.0009 7.31707 34.086 7.38672C34.1871 7.46271 34.1871 7.73818 34.1398 8.14978L33.8273 7.91231L33.6442 8.15929L33.8336 8.30176L33.0035 9.40677L33.2024 9.84686L34.1713 8.55505L34.3986 8.72602L34.5816 8.47906L34.2629 8.23844C34.3354 7.63686 34.2723 7.1841 34.0955 7.05428C33.9283 6.92763 33.7073 6.93397 33.6063 7.07011H33.6033ZM34.3134 10.5149L35.2539 9.50174L35.0835 9.34027L35.2918 9.11547L35.6043 9.40677L35.5696 9.16297L35.8063 8.90967C35.964 8.73553 36.2608 8.75769 36.4722 8.95399C36.7121 9.18195 36.8289 9.71388 36.7942 10.4104L36.6742 10.3756C36.6994 9.88486 36.6174 9.50808 36.447 9.3466C36.308 9.21362 36.0903 9.22312 35.961 9.36243L35.7779 9.55873L35.9925 9.75821L35.7842 9.98301L35.5696 9.78353L34.4711 10.9645L34.3197 10.5054L34.3134 10.5149ZM35.9388 10.0812L36.9079 11.1988L36.7058 11.3761C36.5764 11.2242 36.3776 11.1577 36.1882 11.1893C36.2229 10.9709 36.185 10.7809 36.0903 10.6637C35.9294 10.4769 35.6674 10.4421 35.5128 10.5814C35.3075 10.7619 35.2224 11.2083 35.2791 11.7782L35.3865 11.7846C35.3801 11.449 35.4622 11.1798 35.6138 11.05C35.7337 10.9455 35.9231 10.974 36.043 11.107C36.0556 11.1228 36.0683 11.1545 36.0777 11.2052C35.9578 11.2242 35.8441 11.2621 35.7431 11.3191L35.9326 11.7149C36.1534 11.5819 36.4185 11.5376 36.4155 11.6263L35.8662 12.1044L35.9673 12.5761L37.1823 11.5154L37.4096 11.7782L37.64 11.5756L36.1693 9.87853L35.9388 10.0812ZM36.447 12.8452L37.5642 12.0315L37.4255 11.8416L37.6747 11.6611L37.9241 12.0062L37.9368 11.7592L38.2145 11.5566C38.4008 11.4141 38.6911 11.4933 38.8583 11.7276C39.0477 11.9967 39.0635 12.5413 38.8962 13.2189L38.7857 13.1619C38.9057 12.6838 38.8962 12.2975 38.7573 12.1075C38.6468 11.9492 38.429 11.9176 38.2744 12.0315L38.0566 12.1899L38.2272 12.4273L37.9778 12.6078L37.8074 12.3703L36.5038 13.3202L36.4439 12.8421L36.447 12.8452ZM37.4886 13.1017C37.5454 13.07 37.618 13.0954 37.6558 13.1587L37.7348 13.2917L38.2272 12.9941L38.0441 12.6901L38.306 12.5318L39.2466 14.1023L38.9845 14.2606L38.8394 14.0167L37.4602 14.8495L37.4412 14.3682L37.8358 14.1307L37.659 13.8331L37.4948 13.9313C37.416 13.9851 37.3212 13.9787 37.2865 13.9218C37.236 13.8299 37.2329 13.6748 37.2803 13.4848C37.3307 13.2917 37.4033 13.1555 37.4886 13.1017ZM37.9525 13.6526L38.1292 13.9503L38.6216 13.6526L38.4449 13.355L37.9525 13.6526ZM38.4322 14.8177C38.2808 14.8906 38.1482 15.0648 38.082 15.299C38.0094 15.5428 38.0094 15.7644 38.085 15.9354C38.1451 16.0653 38.2649 16.1951 38.426 16.306L38.6437 15.9069C38.4544 15.7993 38.3155 15.6663 38.2524 15.5175C38.1703 15.3433 38.1987 15.1565 38.3155 15.1059C38.4669 15.0331 38.6627 15.1249 38.7478 15.3054L38.9025 15.6378C38.9373 15.7138 39.0288 15.7486 39.1077 15.7106C39.2781 15.6315 39.4265 15.5491 39.5432 15.4637L39.6916 15.7835L39.9693 15.6537L39.3317 14.2796L39.0541 14.4093L39.3823 15.1122L39.2087 15.1945C39.1613 15.2168 39.1014 15.1913 39.073 15.1312L39.0162 15.0077C38.9184 14.7956 38.6595 14.707 38.4385 14.8114L38.4322 14.8177ZM40.1114 13.7001C40.2155 14.0768 40.2345 14.3492 40.1745 14.4759L39.761 15.2199L39.7136 15.1154L39.9851 14.6056C40.0199 14.5328 40.0167 14.4441 39.9757 14.3555C39.9283 14.2541 39.8715 14.175 39.8021 14.1181L40.1145 13.6969L40.1114 13.7001ZM39.1077 16.1793L39.1551 16.2426C38.9184 16.5497 38.8268 16.8694 38.9152 17.0847C38.994 17.281 39.1613 17.3982 39.2908 17.3476C39.3128 17.3413 39.3192 17.3191 39.3128 17.297C39.2718 17.1956 39.1676 17.1418 39.1267 17.0404C39.0825 16.9328 39.1109 16.7808 39.193 16.6193C39.2749 16.4547 39.3886 16.3343 39.5053 16.2869C39.5937 16.2457 39.6979 16.2995 39.7358 16.4009L39.8431 16.6668C39.8588 16.7049 39.9031 16.7239 39.9441 16.7079L40.0514 16.6636L39.7326 15.8721L40.0167 15.7582L40.6006 17.2082L40.3165 17.3223L40.1935 17.0183C40.0671 17.0975 40.0294 17.126 39.9945 17.1418C39.8558 17.1987 39.7201 17.1798 39.6884 17.1005L39.5432 16.7429C39.4991 16.6352 39.4328 16.5592 39.3918 16.575C39.3444 16.6004 39.3128 16.6352 39.3255 16.6636C39.3634 16.7555 39.4202 16.8441 39.458 16.9423C39.5053 17.0562 39.4959 17.2019 39.436 17.3444C39.3759 17.4901 39.2781 17.5945 39.1613 17.6421C38.9751 17.718 38.7605 17.6198 38.6816 17.4235C38.549 17.0847 38.7131 16.5972 39.1077 16.1728V16.1793Z" fill="#0066B2"/>
<path fill-rule="evenodd" clip-rule="evenodd" d="M5.33401 20.1116L6.34085 20.0008L5.63385 20.6657L6.23354 21.4826L5.3056 21.2008L4.9016 22.1317L4.67751 21.185L3.67383 21.2958L4.38082 20.6309L3.78114 19.814L4.70908 20.0958L5.11307 19.1682L5.33401 20.1116Z" fill="#0066B2"/>
<path d="M3.88477 23.4108L5.40291 23.3855L5.39345 22.8409L5.70276 22.8345L5.72801 24.2909L5.4187 24.2972L5.40924 23.7559L3.89108 23.7812L3.88477 23.4108ZM3.93527 24.6107L5.7501 24.386L5.7943 24.7532L5.08098 24.8418L5.16936 25.5638L5.88266 25.4751L5.92686 25.8424L4.11201 26.0672L4.06783 25.6999L4.8632 25.6017L4.77482 24.8799L3.97945 24.978L3.93527 24.6107ZM4.17514 26.4788L4.48761 27.8371L4.78746 27.7675L4.55705 26.77L5.04311 26.6593L5.24826 27.5553L5.54811 27.4856L5.34295 26.5897L5.73748 26.4978L5.95841 27.4635L6.26141 27.3938L5.95526 26.0672L4.17199 26.4788H4.17514ZM5.56704 28.4356C5.74063 28.369 5.89845 28.3374 6.03417 28.3437C6.13516 28.35 6.23301 28.3722 6.3277 28.4133C6.42239 28.4546 6.50129 28.5084 6.56757 28.5748C6.65278 28.6635 6.72222 28.7774 6.77588 28.9168C6.87373 29.17 6.87057 29.4011 6.77588 29.6134C6.67804 29.8255 6.48867 29.9838 6.21092 30.0914C5.93632 30.1991 5.69014 30.2054 5.47866 30.1167C5.26721 30.025 5.10939 29.854 5.0147 29.6039C4.91685 29.3505 4.91685 29.1162 5.0147 28.9073C5.11254 28.6983 5.2956 28.54 5.5702 28.4356H5.56704ZM5.71538 28.7869C5.52286 28.863 5.39345 28.9611 5.32717 29.0909C5.26088 29.2176 5.25457 29.3505 5.30822 29.4899C5.36189 29.6292 5.45342 29.721 5.58598 29.7717C5.71855 29.8223 5.88266 29.8097 6.08151 29.7336C6.2772 29.6577 6.4066 29.5595 6.46973 29.4361C6.53285 29.3125 6.53601 29.1795 6.48236 29.037C6.4287 28.8946 6.33401 28.7996 6.20461 28.749C6.0752 28.6983 5.91107 28.711 5.71223 28.7869H5.71538ZM5.48814 30.7184L5.65542 31.0476L6.33716 30.6993L6.37188 30.7659C6.40975 30.8418 6.43185 30.8989 6.43816 30.94C6.44447 30.9811 6.43816 31.0254 6.41923 31.0729C6.40344 31.1205 6.35295 31.2186 6.26772 31.3706L6.03417 31.7917L6.23616 32.1874L6.45395 31.8265C6.53916 31.6841 6.59598 31.5764 6.62439 31.5036C6.64963 31.4307 6.66542 31.3484 6.67173 31.2567C6.76642 31.3896 6.87057 31.4718 6.98735 31.5036C7.10414 31.5352 7.22407 31.5194 7.344 31.456C7.44185 31.4054 7.51444 31.3389 7.56494 31.2534C7.61544 31.1679 7.63438 31.0792 7.62492 30.9843C7.61544 30.8894 7.56494 30.7564 7.47657 30.5822L7.12307 29.8888L5.49445 30.7214L5.48814 30.7184ZM6.59598 30.5664L7.00945 30.3543L7.13886 30.6107C7.20828 30.7437 7.24617 30.826 7.25563 30.8545C7.27456 30.9114 7.27456 30.9653 7.25563 31.0096C7.23669 31.0571 7.19882 31.0952 7.14517 31.1205C7.09466 31.1458 7.05048 31.1553 7.00629 31.149C6.9621 31.1426 6.92422 31.1235 6.8895 31.0919C6.85479 31.0603 6.79798 30.9653 6.71907 30.807L6.59598 30.5632V30.5664ZM6.37188 32.3711L7.97209 31.4813L8.15201 31.8043L6.55178 32.694L6.37188 32.3711ZM6.74747 33.017L8.30035 32.0449L9.01997 33.1975L8.758 33.3622L8.23406 32.5231L7.89003 32.7383L8.37609 33.5204L8.11412 33.685L7.62806 32.903L7.20513 33.1689L7.748 34.0397L7.48603 34.2043L6.74747 33.0202V33.017ZM7.73854 34.4702L7.95 34.7426L8.89056 34.0049L8.4045 35.3252L8.63176 35.6197L10.0742 34.4892L9.86268 34.217L8.90003 34.9705L9.40188 33.6249L9.18093 33.3399L7.73854 34.4702ZM9.22196 36.2212L10.333 35.1827L9.96368 34.7837L10.1909 34.5716L11.182 35.6385L10.9547 35.8508L10.5855 35.455L9.47447 36.4935L9.22196 36.2212ZM11.1725 38.0164L11.8196 36.1515L11.5229 35.8951L9.78378 36.8101L10.0805 37.0665L10.4687 36.8513L11.021 37.3326L10.8695 37.7536L11.1725 38.0164ZM11.1346 37.0222L11.3903 36.3415L10.7591 36.6929L11.1378 37.0222H11.1346ZM11.3651 38.1557L12.4319 36.6834L12.7317 36.9019L11.848 38.1241L12.5897 38.6654L12.4098 38.9156L11.3682 38.1557H11.3651ZM13.1988 39.3843L14.1141 37.7948L14.4329 37.9784L13.5176 39.5678L13.1988 39.3843ZM13.8585 39.7451L14.1615 39.9066L14.7233 38.8492L14.8148 40.2549L15.1431 40.4291L16.0016 38.8079L15.6986 38.6464L15.1241 39.7293L15.0358 38.2951L14.717 38.1273L13.8585 39.7483V39.7451ZM15.7018 39.9827L16.049 40.0839C16.0236 40.2043 16.03 40.3024 16.071 40.3816C16.1121 40.4575 16.1847 40.5178 16.2888 40.5621C16.3992 40.6064 16.4908 40.6159 16.5666 40.5937C16.6422 40.5684 16.6928 40.5273 16.718 40.4639C16.7338 40.4227 16.737 40.3848 16.7243 40.3468C16.7118 40.3087 16.6801 40.2676 16.6297 40.2233C16.595 40.1916 16.5129 40.1314 16.3835 40.0365C16.2194 39.9161 16.1121 39.8085 16.0647 39.7103C15.9984 39.5741 15.9921 39.4381 16.0458 39.3051C16.0805 39.2195 16.1373 39.1467 16.2162 39.0929C16.2952 39.036 16.3898 39.0074 16.497 39.0074C16.6045 39.0074 16.7243 39.0295 16.8537 39.0834C17.0684 39.1689 17.2072 39.2829 17.2767 39.4191C17.3461 39.5551 17.3524 39.704 17.2957 39.8623L16.9485 39.7388C16.9705 39.6439 16.9642 39.5711 16.9295 39.5108C16.8979 39.4539 16.8317 39.4033 16.737 39.3652C16.636 39.324 16.5507 39.3145 16.4781 39.3304C16.4309 39.343 16.3992 39.3715 16.3803 39.4126C16.3645 39.4539 16.3678 39.495 16.3898 39.5362C16.4182 39.5901 16.5065 39.6692 16.6581 39.7769C16.8096 39.8845 16.9168 39.9732 16.9769 40.0491C17.04 40.1219 17.0779 40.2074 17.0937 40.2992C17.1094 40.3911 17.0937 40.4892 17.0525 40.5969C17.0147 40.695 16.9485 40.7742 16.86 40.8375C16.7717 40.9009 16.6707 40.9325 16.5539 40.9357C16.4371 40.9357 16.3077 40.9071 16.1593 40.847C15.9448 40.7615 15.7996 40.6443 15.7238 40.4987C15.6481 40.353 15.6386 40.179 15.6923 39.9795L15.7018 39.9827ZM17.687 39.4033L17.4187 40.3435C17.3619 40.5398 17.3304 40.695 17.3241 40.8027C17.3209 40.8755 17.3366 40.9483 17.3683 41.0275C17.3998 41.1035 17.4566 41.1731 17.5292 41.2396C17.605 41.303 17.728 41.3599 17.8953 41.4074C18.0343 41.4485 18.151 41.4612 18.2488 41.4517C18.3466 41.4422 18.4287 41.4137 18.4982 41.3663C18.5676 41.3218 18.6244 41.2554 18.6686 41.1763C18.7128 41.0939 18.7664 40.9483 18.8263 40.7361L19.0915 39.8085L18.738 39.7071L18.4603 40.6823C18.4192 40.8217 18.3877 40.9199 18.3593 40.9768C18.3309 41.0338 18.2867 41.0749 18.2236 41.1035C18.1605 41.1288 18.0784 41.1288 17.9774 41.1002C17.8795 41.0719 17.8069 41.0275 17.7627 40.9673C17.7185 40.9071 17.6996 40.8375 17.7028 40.7615C17.706 40.7141 17.7312 40.6159 17.7754 40.4639L18.05 39.5077L17.6965 39.4063L17.687 39.4033ZM18.9937 41.6353L19.3125 39.8275L20.0795 39.9637C20.272 39.9985 20.4077 40.0396 20.4898 40.0871C20.5718 40.1347 20.6317 40.2043 20.6696 40.296C20.7075 40.3879 20.717 40.4892 20.6981 40.5937C20.6729 40.7299 20.616 40.8343 20.5213 40.9071C20.4267 40.98 20.2972 41.018 20.1363 41.0116C20.2057 41.0719 20.2625 41.135 20.3035 41.1984C20.3446 41.2617 20.395 41.3726 20.4581 41.5277L20.616 41.9203L20.1805 41.8443L19.9879 41.4042C19.9185 41.2459 19.8712 41.1478 19.8427 41.1035C19.8143 41.0623 19.7827 41.0306 19.748 41.0085C19.7133 40.9895 19.6502 40.9705 19.5681 40.9547L19.4955 40.942L19.363 41.6956L18.9999 41.6322L18.9937 41.6353ZM19.5397 40.657L19.808 40.7046C19.9816 40.7362 20.092 40.7457 20.1394 40.7394C20.1867 40.7329 20.2246 40.7141 20.2561 40.6823C20.2877 40.6507 20.3067 40.6064 20.3162 40.5526C20.3256 40.4923 20.3162 40.4385 20.294 40.3974C20.2688 40.353 20.2278 40.3215 20.171 40.3024C20.1426 40.2929 20.0542 40.2739 19.9058 40.2486L19.6218 40.1979L19.5397 40.657ZM22.5192 42.0722L21.951 40.179L21.5597 40.1442L20.6918 41.9108L21.0832 41.9457L21.2693 41.5436L21.9984 41.6069L22.1216 42.0374L22.5223 42.0722H22.5192ZM21.9069 41.2902L21.4082 41.2459L21.7143 40.5905L21.9069 41.2902ZM22.737 42.0597L22.6739 40.2264L23.0336 40.2138L23.8258 41.4137L23.7817 40.1885L24.1257 40.1758L24.1888 42.0089L23.8196 42.0216L23.04 40.8501L23.081 42.0469L22.737 42.0597ZM25.6786 41.1573L26.0478 41.2206C26.0226 41.4264 25.95 41.5847 25.8396 41.7019C25.726 41.8158 25.5744 41.8855 25.3788 41.914C25.1389 41.9488 24.9274 41.8919 24.7507 41.7494C24.5739 41.6069 24.4634 41.3916 24.4224 41.1067C24.3813 40.8027 24.4224 40.5589 24.5582 40.3688C24.6907 40.179 24.8832 40.0681 25.1357 40.0301C25.3566 39.9985 25.546 40.0396 25.7038 40.1505C25.7954 40.2169 25.8742 40.3182 25.9374 40.4575L25.5871 40.5937C25.5524 40.5018 25.4988 40.4354 25.423 40.3879C25.3472 40.3435 25.262 40.3277 25.1641 40.3405C25.0316 40.3593 24.9274 40.4227 24.858 40.5303C24.7886 40.638 24.7697 40.7995 24.7979 41.018C24.8296 41.2491 24.8959 41.4042 24.9905 41.4928C25.0852 41.5784 25.1988 41.6132 25.3314 41.5942C25.4292 41.5815 25.5081 41.5372 25.5681 41.4645C25.6281 41.3916 25.666 41.287 25.6786 41.151V41.1573ZM26.4898 41.7399L27.8406 41.4011L27.7649 41.1002L26.7737 41.3473L26.6539 40.8628L27.544 40.6412L27.4682 40.3405L26.5781 40.5621L26.4803 40.1663L27.4367 39.9256L27.3609 39.6249L26.0448 39.9541L26.4866 41.7335L26.4898 41.7399ZM29.6775 40.0871L30.0531 40.0586C30.0783 40.2644 30.0468 40.4354 29.9648 40.5747C29.8827 40.7141 29.7502 40.8185 29.5671 40.8913C29.343 40.9831 29.1252 40.98 28.9201 40.8849C28.7118 40.79 28.5539 40.6064 28.4467 40.3405C28.333 40.0586 28.3172 39.8085 28.3993 39.5931C28.4814 39.3778 28.6423 39.2228 28.879 39.1246C29.0873 39.039 29.2798 39.0328 29.4597 39.1056C29.5671 39.1467 29.6649 39.2291 29.7595 39.3494L29.4534 39.5678C29.3966 39.4887 29.3272 39.4349 29.2451 39.4096C29.1599 39.3843 29.0748 39.3905 28.9832 39.4286C28.857 39.4792 28.7749 39.5646 28.7308 39.6882C28.6896 39.8117 28.7086 39.9732 28.7907 40.1758C28.8759 40.3911 28.9768 40.5273 29.0905 40.5874C29.204 40.6475 29.324 40.6538 29.4472 40.6032C29.5387 40.5652 29.6049 40.505 29.646 40.4196C29.687 40.334 29.6996 40.2233 29.6775 40.0871ZM30.1005 39.704C30.2362 39.9604 30.4161 40.1251 30.6338 40.1979C30.8548 40.2676 31.082 40.2423 31.325 40.1124C31.5618 39.9857 31.7133 39.8117 31.7765 39.5868C31.8396 39.362 31.8017 39.1214 31.6628 38.8587C31.524 38.5958 31.3409 38.428 31.1199 38.3552C30.899 38.2823 30.6687 38.3109 30.4319 38.4375C30.2993 38.5072 30.1952 38.5895 30.1162 38.6877C30.0563 38.7605 30.0121 38.846 29.9837 38.9441C29.9553 39.0423 29.9426 39.1436 29.9521 39.2449C29.9616 39.3843 30.0122 39.5362 30.0973 39.7008L30.1005 39.704ZM30.4319 39.514C30.334 39.3272 30.2993 39.1657 30.334 39.0295C30.3688 38.8935 30.4509 38.7889 30.5866 38.7162C30.7223 38.6434 30.8517 38.6339 30.981 38.6812C31.1105 38.7288 31.2242 38.846 31.322 39.0328C31.423 39.2195 31.4545 39.3843 31.4198 39.5235C31.3851 39.6628 31.3062 39.7674 31.1736 39.8338C31.0442 39.9034 30.9117 39.9129 30.7759 39.8623C30.6402 39.8117 30.5265 39.6945 30.4287 39.514H30.4319ZM32.3983 39.5362L31.4008 37.9974L31.8648 37.6967L32.8243 38.5642L32.4203 37.3356L32.8843 37.0317L33.8817 38.5705L33.5944 38.7573L32.8117 37.5447L33.2914 38.9536L32.9915 39.1467L31.9027 38.1336L32.6854 39.3462L32.3983 39.533V39.5362ZM34.1973 38.3394L34.4844 38.1051L34.0489 37.5668L34.2352 37.4148C34.3646 37.3103 34.4592 37.2217 34.5161 37.1521C34.557 37.1013 34.5887 37.0381 34.6108 36.9621C34.6328 36.8892 34.6328 36.8101 34.6171 36.7246C34.6013 36.6391 34.557 36.5536 34.4876 36.465C34.3961 36.351 34.2951 36.2813 34.1815 36.2529C34.0679 36.2244 33.9638 36.2339 33.8628 36.2782C33.7996 36.3067 33.6797 36.3922 33.5029 36.5346L33.0421 36.9082L34.1941 38.333L34.1973 38.3394ZM33.5282 36.9209L33.8564 37.3261L34.0142 37.1995C34.1279 37.1077 34.1973 37.0381 34.2225 36.9938C34.2477 36.9495 34.2604 36.8987 34.2541 36.8513C34.2509 36.8006 34.232 36.7562 34.1973 36.7151C34.1563 36.6644 34.1057 36.6328 34.0489 36.6233C33.9922 36.6138 33.9353 36.6233 33.8817 36.655C33.8406 36.6771 33.7712 36.7277 33.667 36.8133L33.5282 36.9272V36.9209ZM36.5929 36.2275L36.3025 36.5061L35.8985 36.3161L35.3714 36.8259L35.5513 37.2312L35.2704 37.5034L34.5129 35.6861L34.7937 35.4139L36.5897 36.2244L36.5929 36.2275ZM35.6019 36.1768L34.9484 35.8634L35.242 36.5251L35.6019 36.1768ZM36.7665 36.0534L36.9905 35.7937L36.0878 35.0085L37.4734 35.2366L37.7164 34.9547L36.3372 33.7516L36.1132 34.0112L37.0347 34.8154L35.6208 34.5779L35.3841 34.8502L36.7633 36.0534H36.7665ZM38.2657 34.2138L37.6344 33.7706L36.3814 33.7105L36.6308 33.3557L37.4702 33.4191L37.1168 32.6561L37.3599 32.3046L37.8428 33.4697L38.4709 33.9098L38.2594 34.2138H38.2657ZM39.2978 32.6401L39.9227 31.5099L39.6545 31.3611L39.2093 32.1653L37.8932 31.4339L37.7134 31.7568L39.3009 32.6401H39.2978ZM40.0521 31.2407L38.3824 30.4935L38.534 30.1548L40.2036 30.9019L40.0521 31.2407ZM40.3834 30.5664L40.5066 30.2434L39.1621 29.7241L40.636 29.9046L40.7623 29.5721L39.5471 28.7141L40.8917 29.2334L41.0147 28.9104L39.3073 28.2518L39.1085 28.7711L40.1562 29.5247L38.8717 29.3853L38.6728 29.9046L40.3804 30.5632L40.3834 30.5664ZM41.122 28.5147L39.3545 28.0397L39.4493 27.6819L41.2168 28.1569L41.122 28.5147ZM41.4093 27.378L39.9227 27.0614L39.8091 27.5933L39.5061 27.53L39.8091 26.1052L40.112 26.1686L39.9985 26.7004L41.485 27.0171L41.4093 27.378ZM41.6775 26.2159L41.8481 24.8323L41.5418 24.7944L41.4188 25.8108L40.9264 25.7506L41.0369 24.8355L40.7307 24.7975L40.6202 25.7126L40.2163 25.662L40.3362 24.6805L40.03 24.6424L39.8658 25.9913L41.6807 26.2159H41.6775ZM40.0616 24.4652L40.0741 23.7876C40.0741 23.6356 40.09 23.5184 40.1152 23.4393C40.1499 23.3316 40.2068 23.2398 40.2888 23.1669C40.3709 23.091 40.4719 23.034 40.5887 22.9959C40.7054 22.9581 40.8506 22.939 41.021 22.9421C41.1726 22.9421 41.302 22.9643 41.4093 23.0055C41.5418 23.053 41.6491 23.1226 41.7281 23.2082C41.788 23.2746 41.8354 23.36 41.8701 23.4709C41.8953 23.5533 41.9048 23.664 41.9017 23.8002L41.889 24.4968L40.0584 24.4652H40.0616ZM40.3772 24.1009L41.5892 24.1232L41.5955 23.8477C41.5955 23.7433 41.5955 23.6704 41.5829 23.6229C41.5702 23.5628 41.545 23.512 41.5103 23.4709C41.4755 23.4298 41.4156 23.3981 41.3367 23.3695C41.2547 23.3442 41.1442 23.3284 41.0021 23.3252C40.8601 23.3252 40.7528 23.3347 40.677 23.357C40.6014 23.379 40.5413 23.4139 40.4971 23.4582C40.453 23.5026 40.4246 23.5596 40.4088 23.6292C40.3961 23.6799 40.3899 23.7812 40.3867 23.9331V24.1009H40.3772Z" fill="#0066B2"/>
<path d="M22.8979 16.5211C24.6685 16.5211 26.2719 17.243 27.4335 18.405C28.5918 19.5671 29.3113 21.1754 29.3113 22.9548C29.3113 24.7311 28.5949 26.3395 27.4335 27.5046C26.2719 28.6667 24.6717 29.3885 22.8979 29.3885C21.1272 29.3885 19.524 28.6667 18.3624 27.5046C17.204 26.3395 16.4844 24.7343 16.4844 22.9548C16.4844 21.1786 17.2009 19.5701 18.3624 18.405C19.5208 17.243 21.1241 16.5211 22.8979 16.5211ZM22.8979 17.1196C21.2913 17.1196 19.8395 17.7718 18.7854 18.8292C17.7312 19.8868 17.081 21.3464 17.081 22.9548C17.081 24.5664 17.7343 26.0229 18.7854 27.0804C19.8395 28.1379 21.2945 28.7901 22.8979 28.7901C24.5045 28.7901 25.9563 28.1379 27.0105 27.0804C28.0646 26.0229 28.7149 24.5633 28.7149 22.9548C28.7149 21.3433 28.0616 19.8868 27.0105 18.8292C25.9563 17.7718 24.5013 17.1196 22.8979 17.1196Z" fill="white"/>
<path d="M22.8979 16.5211C24.6685 16.5211 26.2719 17.243 27.4335 18.405C28.5918 19.5671 29.3113 21.1754 29.3113 22.9548C29.3113 24.7311 28.5949 26.3395 27.4335 27.5046C26.2719 28.6667 24.6717 29.3885 22.8979 29.3885C21.1272 29.3885 19.524 28.6667 18.3624 27.5046C17.204 26.3395 16.4844 24.7343 16.4844 22.9548C16.4844 21.1786 17.2009 19.5701 18.3624 18.405C19.5208 17.243 21.1241 16.5211 22.8979 16.5211ZM22.8979 17.1196C21.2913 17.1196 19.8395 17.7718 18.7854 18.8292C17.7312 19.8868 17.081 21.3464 17.081 22.9548C17.081 24.5664 17.7343 26.0229 18.7854 27.0804C19.8395 28.1379 21.2945 28.7901 22.8979 28.7901C24.5045 28.7901 25.9563 28.1379 27.0105 27.0804C28.0646 26.0229 28.7149 24.5633 28.7149 22.9548C28.7149 21.3433 28.0616 19.8868 27.0105 18.8292C25.9563 17.7718 24.5013 17.1196 22.8979 17.1196Z" fill="white"/>
<path d="M11.2773 25.0636L12.9407 24.6773L13.0196 25.013L12.3662 25.1649L12.5177 25.8266L13.1711 25.6747L13.25 26.0103L11.5867 26.3966L11.5078 26.0609L12.2337 25.8931L12.0822 25.2314L11.3562 25.3991L11.2773 25.0636ZM11.7382 26.8271L12.2021 28.0429L12.4704 27.9385L12.1295 27.0456L12.5619 26.8778L12.8681 27.6821L13.1364 27.5775L12.8302 26.7733L13.1837 26.6372L13.5151 27.4984L13.7834 27.3939L13.3289 26.2098L11.735 26.824L11.7382 26.8271ZM13.149 29.7463L12.9659 29.4171L13.2342 29.0973L12.9028 28.4989L12.4957 28.5622L12.3189 28.2425L14.1338 27.9954L14.3104 28.3153L13.149 29.7433V29.7463ZM13.4331 28.8599L13.8718 28.3437L13.2058 28.4483L13.4331 28.8567V28.8599ZM13.5277 30.1359L13.755 30.4271L15.4751 29.854L15.251 29.5658L13.9981 30.0155L14.7272 28.8947L14.4967 28.6003L13.5277 30.1359ZM14.4209 31.187L15.6077 29.9554L16.5167 30.8387L16.3147 31.0476L15.6519 30.4049L15.39 30.6772L16.0054 31.2757L15.8066 31.4846L15.1911 30.8861L14.8692 31.2218L15.5541 31.8867L15.3553 32.0957L14.4209 31.1901V31.187ZM15.6771 32.3173L15.936 32.5073L16.5925 31.6017L16.4946 32.9125L16.7756 33.1152L17.7792 31.7284L17.5204 31.5384L16.8512 32.463L16.9555 31.1268L16.684 30.9306L15.6803 32.3173H15.6771ZM17.3815 32.7891L17.694 32.9189C17.6592 33.0266 17.6561 33.1215 17.6846 33.1975C17.713 33.2735 17.7761 33.3369 17.8676 33.3844C17.9654 33.4381 18.0506 33.454 18.1232 33.4413C18.1959 33.4255 18.2463 33.3907 18.2747 33.3336C18.2937 33.2988 18.3 33.2608 18.2905 33.226C18.2842 33.1912 18.259 33.1501 18.2147 33.1025C18.1864 33.0709 18.1169 33.0044 18.0064 32.9062C17.8644 32.7795 17.7761 32.6688 17.7413 32.5737C17.694 32.4408 17.7003 32.3141 17.7634 32.1938C17.8045 32.1178 17.8644 32.0577 17.9433 32.0133C18.0223 31.969 18.1138 31.9532 18.2116 31.9595C18.3126 31.969 18.4199 32.0038 18.5367 32.064C18.726 32.1653 18.846 32.2825 18.8966 32.4155C18.947 32.5484 18.9407 32.6878 18.8712 32.8303L18.5588 32.6814C18.5873 32.596 18.5873 32.5263 18.5651 32.4693C18.5399 32.4122 18.4862 32.3616 18.401 32.3141C18.3126 32.2667 18.2336 32.2477 18.1643 32.2572C18.1201 32.2635 18.0854 32.2857 18.0665 32.3268C18.0475 32.3616 18.0475 32.3997 18.0632 32.444C18.0854 32.4978 18.1611 32.5802 18.2905 32.6941C18.4199 32.8081 18.5115 32.903 18.5619 32.9791C18.6125 33.055 18.6409 33.1343 18.6472 33.2229C18.6534 33.3083 18.6314 33.4002 18.5809 33.4951C18.5335 33.5806 18.4673 33.6503 18.3788 33.7009C18.2905 33.7516 18.1927 33.7706 18.0854 33.7611C17.978 33.7516 17.8582 33.7104 17.7287 33.6408C17.5394 33.5395 17.4162 33.416 17.3594 33.2735C17.3027 33.131 17.3121 32.9696 17.3815 32.7891ZM19.2595 34.2233L19.7265 32.5897L20.058 32.6846L19.6698 34.0397L20.4935 34.2771L20.4147 34.5558L19.2595 34.2233ZM20.7524 34.5843L21.049 32.8967L21.39 32.9568L21.0932 34.6444L20.7524 34.5843ZM22.3715 34.1569L22.3968 33.8687L23.1386 33.9353L23.0785 34.6159C22.9996 34.6792 22.8924 34.7331 22.7502 34.7743C22.6083 34.8154 22.4694 34.8312 22.3274 34.8186C22.1506 34.8028 21.9991 34.7521 21.8729 34.6667C21.7465 34.5811 21.6582 34.4641 21.6013 34.3184C21.5477 34.1727 21.5257 34.0176 21.5414 33.8561C21.5572 33.6789 21.6078 33.5237 21.6929 33.3938C21.7782 33.2608 21.8981 33.1659 22.0465 33.1057C22.1601 33.0582 22.299 33.0424 22.4599 33.055C22.6714 33.074 22.8323 33.131 22.9428 33.2324C23.0533 33.3306 23.1196 33.4603 23.1386 33.6218L22.7913 33.6566C22.7755 33.5712 22.7345 33.5014 22.6746 33.4476C22.6113 33.3938 22.5325 33.3622 22.4315 33.3527C22.28 33.3399 22.1568 33.378 22.0622 33.4635C21.9644 33.5522 21.9076 33.6882 21.8918 33.8782C21.8729 34.0808 21.9044 34.236 21.9864 34.3469C22.0685 34.4546 22.179 34.5178 22.3242 34.5305C22.3968 34.5368 22.4694 34.5305 22.5452 34.5084C22.6208 34.4862 22.6839 34.4576 22.7408 34.4228L22.7597 34.2075L22.3653 34.1727L22.3715 34.1569ZM23.4793 34.8186L23.2426 33.1215L23.5836 33.074L23.6782 33.742L24.3474 33.6471L24.2526 32.9791L24.5936 32.9315L24.8303 34.6286L24.4893 34.6762L24.3853 33.9353L23.7161 34.0302L23.8203 34.7711L23.4793 34.8186ZM25.6477 34.4671L25.9822 34.3848L25.6382 33.0044L26.1274 32.8809L26.058 32.599L24.7418 32.9284L24.8113 33.2102L25.3037 33.0867L25.6477 34.4671ZM26.8912 33.2165C26.8186 33.0582 26.7807 32.9157 26.7777 32.786C26.7777 32.6909 26.7902 32.596 26.8218 32.5073C26.8533 32.4155 26.8976 32.3395 26.9575 32.273C27.0364 32.1876 27.1374 32.1147 27.2636 32.0546C27.4909 31.9469 27.7056 31.9342 27.9107 32.0101C28.1127 32.0894 28.2736 32.254 28.3905 32.5073C28.5073 32.7575 28.5293 32.9854 28.4599 33.1912C28.3905 33.397 28.2421 33.5522 28.0149 33.6566C27.7844 33.7643 27.5699 33.7801 27.3679 33.7009C27.1658 33.625 27.008 33.4603 26.8944 33.2134L26.8912 33.2165ZM27.21 33.055C27.2921 33.2292 27.3931 33.3464 27.5162 33.397C27.6393 33.4508 27.7624 33.4476 27.8887 33.3875C28.0117 33.3306 28.0938 33.2355 28.1317 33.1088C28.1695 32.9823 28.1474 32.8271 28.0623 32.6466C27.9802 32.4693 27.8792 32.3553 27.7592 32.3015C27.6393 32.2509 27.5162 32.254 27.39 32.3141C27.2606 32.3744 27.1785 32.4661 27.1406 32.5927C27.1027 32.7194 27.1249 32.8714 27.21 33.0487V33.055ZM28.0528 31.7031L28.5893 32.4408C28.7029 32.596 28.7944 32.7067 28.8702 32.7733C28.9207 32.8176 28.9838 32.8492 29.0596 32.8714C29.1354 32.8904 29.2174 32.8904 29.3058 32.8714C29.3973 32.8524 29.5078 32.7953 29.6403 32.6972C29.7508 32.6181 29.8266 32.5389 29.877 32.463C29.9244 32.3839 29.9528 32.3078 29.9591 32.2319C29.9655 32.1558 29.9496 32.0767 29.9181 31.9975C29.8834 31.9184 29.8044 31.7949 29.6845 31.627L29.1574 30.8989L28.8797 31.1015L29.4352 31.8677C29.5141 31.9785 29.5677 32.0577 29.5931 32.1115C29.6183 32.1653 29.6246 32.2224 29.6056 32.2825C29.5899 32.3458 29.5425 32.4027 29.4636 32.463C29.3846 32.5199 29.312 32.5484 29.2427 32.5454C29.1733 32.5454 29.1102 32.5199 29.0596 32.4725C29.0281 32.4408 28.968 32.3679 28.8829 32.2477L28.3399 31.4973L28.0623 31.6999L28.0528 31.7031ZM30.5305 31.9913L29.3437 30.7596L29.8645 30.2529C29.997 30.1264 30.1012 30.044 30.1833 30.0092C30.2653 29.9744 30.3505 29.968 30.4389 29.9902C30.5305 30.0123 30.6093 30.0598 30.6787 30.1327C30.7672 30.2245 30.8144 30.329 30.8176 30.4397C30.8208 30.5538 30.7767 30.6677 30.6851 30.788C30.7702 30.7691 30.846 30.7596 30.9186 30.7627C30.9912 30.7659 31.1017 30.788 31.2532 30.826L31.6351 30.9211L31.3384 31.2091L30.8997 31.1142C30.745 31.0794 30.6408 31.0636 30.5936 31.0603C30.5462 31.0603 30.5051 31.0666 30.4704 31.0824C30.4357 31.0984 30.3883 31.1332 30.3315 31.1901L30.2811 31.2376L30.7767 31.7506L30.5273 31.9913H30.5305ZM30.0948 31.0413L29.7949 30.7279L29.9875 30.5411C30.0885 30.4429 30.1486 30.386 30.1738 30.3701C30.2212 30.3385 30.2653 30.3227 30.3126 30.329C30.3599 30.3322 30.401 30.3543 30.442 30.3986C30.4767 30.4366 30.4988 30.4747 30.5051 30.5158C30.5115 30.5569 30.5051 30.5949 30.4862 30.6361C30.4672 30.674 30.3978 30.7532 30.2779 30.8673L30.0948 31.0445V31.0413ZM32.1401 29.2588L32.3674 28.9358L32.544 29.0593C32.544 29.1258 32.541 29.1955 32.522 29.2714C32.5031 29.3474 32.4746 29.4139 32.4335 29.4741C32.3484 29.5944 32.2411 29.6609 32.1054 29.6767C31.9696 29.6925 31.8213 29.6419 31.654 29.5247C31.4993 29.4171 31.411 29.2999 31.3826 29.1702C31.3542 29.0435 31.3826 28.9168 31.4709 28.7933C31.5278 28.711 31.5941 28.6572 31.673 28.6319C31.7518 28.6065 31.8308 28.6065 31.9129 28.6319L32.0581 28.3153C31.9097 28.252 31.7645 28.2455 31.6256 28.2931C31.4836 28.3406 31.3542 28.4514 31.2311 28.6256C31.1364 28.7585 31.0828 28.8883 31.067 29.0119C31.0449 29.1732 31.067 29.3221 31.1396 29.4646C31.209 29.6039 31.3195 29.7273 31.4647 29.8287C31.6004 29.9236 31.7423 29.9839 31.8939 30.0092C32.0454 30.0345 32.1906 30.0155 32.3295 29.9489C32.4684 29.8825 32.5883 29.7781 32.6892 29.6292C32.7713 29.5152 32.8281 29.3855 32.8628 29.2398C32.8976 29.0973 32.907 28.9738 32.8912 28.8757L32.3327 28.4831L31.9065 29.0941L32.1432 29.2588H32.1401ZM31.7298 27.9575L31.8687 27.6408L32.7146 28.0176C32.8471 28.0778 32.9386 28.1126 32.9797 28.1221C33.0491 28.1379 33.1154 28.1285 33.1753 28.0936C33.2352 28.0587 33.2858 27.9986 33.3268 27.91C33.3679 27.8213 33.3774 27.7453 33.3616 27.6821C33.3457 27.6187 33.3142 27.5712 33.2637 27.5396C33.2132 27.5079 33.128 27.4635 33.0049 27.4065L32.1432 27.0203L32.2821 26.7036L33.1027 27.0709C33.289 27.1533 33.4183 27.2229 33.4878 27.2735C33.5572 27.3243 33.6078 27.3876 33.6425 27.4572C33.674 27.5269 33.6899 27.606 33.6867 27.6979C33.6867 27.7897 33.655 27.8973 33.6014 28.0209C33.5352 28.1696 33.4689 28.2773 33.3994 28.3374C33.33 28.3975 33.2606 28.4388 33.1848 28.4609C33.109 28.4799 33.0396 28.4862 32.9733 28.4736C32.8755 28.4546 32.7366 28.407 32.563 28.3279L31.7298 27.9575ZM33.996 26.9823L34.1033 26.653L32.4809 26.1242L32.3736 26.4535L33.996 26.9823ZM32.5977 25.8931L32.7303 25.2757C32.7587 25.1364 32.7934 25.032 32.8281 24.9654C32.8787 24.8736 32.9481 24.8007 33.0364 24.747C33.1249 24.6932 33.2258 24.6582 33.3395 24.6457C33.4531 24.6329 33.5889 24.6424 33.7466 24.6742C33.8823 24.7026 33.9992 24.747 34.0906 24.8007C34.2043 24.8673 34.2895 24.9496 34.3462 25.0446C34.3905 25.1142 34.4188 25.2028 34.4283 25.3105C34.4378 25.3896 34.4283 25.491 34.3999 25.6177L34.2642 26.2541L32.5946 25.8994L32.5977 25.8931ZM32.9513 25.6145L34.0559 25.8488L34.1095 25.5954C34.1285 25.5005 34.1379 25.4309 34.1379 25.3865C34.1379 25.3295 34.1222 25.2789 34.097 25.2346C34.0718 25.1902 34.0244 25.149 33.9549 25.1111C33.8855 25.0731 33.7845 25.0383 33.655 25.013C33.5257 24.9844 33.4247 24.9749 33.3521 24.9844C33.2795 24.9907 33.2164 25.013 33.1691 25.0446C33.1217 25.0763 33.0838 25.1237 33.0586 25.184C33.0396 25.2283 33.0144 25.32 32.9828 25.4594L32.9513 25.6114V25.6145ZM34.6335 24.4493L32.9291 24.329L33.0175 23.0625L33.3048 23.0815L33.2416 24.0029L33.6203 24.0282L33.6804 23.1702L33.9675 23.1892L33.9076 24.0472L34.3716 24.0788L34.4378 23.1258L34.7251 23.1449L34.6335 24.4431V24.4493Z" fill="white"/>
<path fill-rule="evenodd" clip-rule="evenodd" d="M23.062 15.8246L22.6327 15.8752L22.4307 15.5174V14.194C22.7873 14.2224 23.1093 14.3333 23.3586 14.634L23.0588 15.8246H23.062Z" fill="white"/>
<path fill-rule="evenodd" clip-rule="evenodd" d="M21.806 15.9036L21.3926 16.0302L21.1338 15.7135L20.9033 14.4092C21.26 14.3742 21.5977 14.4281 21.8944 14.6814L21.806 15.9068V15.9036Z" fill="white"/>
<path fill-rule="evenodd" clip-rule="evenodd" d="M20.5822 16.2046L20.1971 16.4009L19.8878 16.1317L19.4365 14.8874C19.7805 14.7892 20.1245 14.7861 20.4592 14.9824L20.5854 16.2046H20.5822Z" fill="white"/>
<path fill-rule="evenodd" clip-rule="evenodd" d="M19.4258 16.711L19.0786 16.9706L18.7251 16.7618L18.0654 15.6155C18.3874 15.4605 18.7251 15.3971 19.0881 15.5301L19.4226 16.711H19.4258Z" fill="white"/>
<path fill-rule="evenodd" clip-rule="evenodd" d="M18.3783 17.4141L18.0815 17.7307L17.6997 17.5851L16.8506 16.5719C17.1409 16.3629 17.4597 16.2394 17.8448 16.3092L18.3783 17.4141Z" fill="white"/>
<path fill-rule="evenodd" clip-rule="evenodd" d="M17.467 18.2879L17.2303 18.6521L16.8264 18.576L15.8164 17.7244C16.0657 17.4678 16.3592 17.2905 16.7474 17.2938L17.464 18.2879H17.467Z" fill="white"/>
<path fill-rule="evenodd" clip-rule="evenodd" d="M16.7214 19.3073L16.551 19.7062L16.1407 19.6999L14.998 19.0381C15.2001 18.7405 15.4589 18.5158 15.8408 18.4524L16.7182 19.3073H16.7214Z" fill="white"/>
<path fill-rule="evenodd" clip-rule="evenodd" d="M16.1632 20.4408L16.0652 20.8619L15.6613 20.9285L14.4209 20.4757C14.5693 20.1495 14.7838 19.8836 15.15 19.7506L16.1632 20.4408Z" fill="white"/>
<path fill-rule="evenodd" clip-rule="evenodd" d="M15.8054 21.6535L15.7802 22.0873L15.3951 22.2234L14.0947 21.9923C14.1831 21.644 14.3504 21.3433 14.6881 21.1502L15.8054 21.6535Z" fill="white"/>
<path fill-rule="evenodd" clip-rule="evenodd" d="M15.6703 22.9104L15.7209 23.341L15.3642 23.5436H14.0449C14.0733 23.1858 14.1837 22.8628 14.4835 22.6127L15.6703 22.9136V22.9104Z" fill="white"/>
<path fill-rule="evenodd" clip-rule="evenodd" d="M15.7492 24.1706L15.8754 24.5854L15.5599 24.845L14.2595 25.0762C14.2248 24.7184 14.2785 24.3796 14.5309 24.0819L15.7524 24.1706H15.7492Z" fill="white"/>
<path fill-rule="evenodd" clip-rule="evenodd" d="M16.0493 25.3991L16.2451 25.7854L15.9767 26.0957L14.7364 26.5486C14.6385 26.2034 14.6354 25.8583 14.831 25.5227L16.0493 25.3961V25.3991Z" fill="white"/>
<path fill-rule="evenodd" clip-rule="evenodd" d="M16.554 26.5579L16.8128 26.9062L16.6045 27.2608L15.462 27.9226C15.3073 27.5997 15.2442 27.2608 15.3767 26.8967L16.554 26.5612V26.5579Z" fill="white"/>
<path fill-rule="evenodd" clip-rule="evenodd" d="M17.2548 27.6091L17.5704 27.9066L17.4252 28.2899L16.4152 29.1415C16.2069 28.8502 16.0838 28.5305 16.1533 28.1442L17.2548 27.6091Z" fill="white"/>
<path fill-rule="evenodd" clip-rule="evenodd" d="M18.1258 28.5242L18.4888 28.7616L18.413 29.1669L17.5641 30.1801C17.3084 29.9299 17.1316 29.6355 17.1348 29.2461L18.1258 28.5273V28.5242Z" fill="white"/>
<path fill-rule="evenodd" clip-rule="evenodd" d="M19.1392 29.2746L19.537 29.4456L19.5306 29.8572L18.871 31.0033C18.5743 30.8007 18.3502 30.5411 18.2871 30.158L19.1392 29.2778V29.2746Z" fill="white"/>
<path fill-rule="evenodd" clip-rule="evenodd" d="M20.2691 29.835L20.6889 29.9331L20.7552 30.3383L20.3039 31.5827C19.9787 31.4339 19.7137 31.2186 19.5811 30.8513L20.2691 29.835Z" fill="white"/>
<path fill-rule="evenodd" clip-rule="evenodd" d="M21.4804 30.1897L21.9128 30.215L22.0486 30.6044L21.8181 31.9089C21.4709 31.8203 21.1711 31.6525 20.9785 31.3137L21.4804 30.1929V30.1897Z" fill="white"/>
<path fill-rule="evenodd" clip-rule="evenodd" d="M22.7341 30.3288L23.1634 30.2782L23.3654 30.636V31.9594C23.0087 31.9309 22.6869 31.8201 22.4375 31.5194L22.7373 30.3288H22.7341Z" fill="white"/>
<path fill-rule="evenodd" clip-rule="evenodd" d="M23.9907 30.2465L24.4042 30.1198L24.6629 30.4363L24.8934 31.7408C24.5367 31.7757 24.199 31.7218 23.9023 31.4686L23.9907 30.2433V30.2465Z" fill="white"/>
<path fill-rule="evenodd" clip-rule="evenodd" d="M25.2151 29.9457L25.6001 29.7494L25.9094 30.0186L26.3608 31.2629C26.0168 31.3611 25.6728 31.3642 25.3381 31.1679L25.2119 29.9457H25.2151Z" fill="white"/>
<path fill-rule="evenodd" clip-rule="evenodd" d="M26.3701 29.4392L26.7172 29.1795L27.0708 29.3885L27.7304 30.5346C27.4085 30.6898 27.0708 30.7532 26.7078 30.6202L26.3732 29.4392H26.3701Z" fill="white"/>
<path fill-rule="evenodd" clip-rule="evenodd" d="M27.418 28.7362L27.7146 28.4196L28.0966 28.5652L28.9456 29.5784C28.6552 29.7873 28.3364 29.9109 27.9513 29.8411L27.418 28.7362Z" fill="white"/>
<path fill-rule="evenodd" clip-rule="evenodd" d="M28.3301 27.8657L28.5668 27.5014L28.9708 27.5775L29.9808 28.4291C29.7314 28.6857 29.4379 28.863 29.0497 28.8598L28.3333 27.8657H28.3301Z" fill="white"/>
<path fill-rule="evenodd" clip-rule="evenodd" d="M29.0752 26.8461L29.2456 26.4471L29.6559 26.4535L30.7984 27.1151C30.5965 27.4128 30.3376 27.6376 29.9557 27.7009L29.0783 26.8461H29.0752Z" fill="white"/>
<path fill-rule="evenodd" clip-rule="evenodd" d="M29.6338 25.7126L29.7316 25.2916L30.1355 25.2251L31.3759 25.6778C31.2276 26.004 31.013 26.2699 30.6468 26.4029L29.6338 25.7126Z" fill="white"/>
<path fill-rule="evenodd" clip-rule="evenodd" d="M29.9873 24.5L30.0125 24.0663L30.4007 23.9301L31.701 24.1612C31.6127 24.5095 31.4454 24.8104 31.1076 25.0034L29.9904 24.5H29.9873Z" fill="white"/>
<path fill-rule="evenodd" clip-rule="evenodd" d="M30.1258 23.2429L30.0752 22.8122L30.4319 22.6127H31.7512C31.7228 22.9705 31.6124 23.2935 31.3124 23.5436L30.1258 23.2429Z" fill="white"/>
<path fill-rule="evenodd" clip-rule="evenodd" d="M30.0471 21.9795L29.9209 21.5648L30.2365 21.3051L31.5368 21.074C31.5717 21.4318 31.518 21.7706 31.2654 22.0681L30.0439 21.9795H30.0471Z" fill="white"/>
<path fill-rule="evenodd" clip-rule="evenodd" d="M29.7474 20.7512L29.5518 20.3649L29.82 20.0546L31.0604 19.6017C31.1582 19.9469 31.1614 20.292 30.9657 20.6276L29.7474 20.7542V20.7512Z" fill="white"/>
<path fill-rule="evenodd" clip-rule="evenodd" d="M29.2423 19.5922L28.9834 19.2439L29.1918 18.8894L30.3343 18.2276C30.489 18.5506 30.5521 18.8894 30.4196 19.2534L29.2423 19.5891V19.5922Z" fill="white"/>
<path fill-rule="evenodd" clip-rule="evenodd" d="M28.5412 18.5411L28.2256 18.2434L28.3708 17.8603L29.3808 17.0085C29.5891 17.2999 29.7122 17.6197 29.6427 18.006L28.5412 18.5411Z" fill="white"/>
<path fill-rule="evenodd" clip-rule="evenodd" d="M27.6706 17.626L27.3076 17.3886L27.3834 16.9832L28.2325 15.9701C28.4881 16.2202 28.6648 16.5147 28.6616 16.9041L27.6706 17.6228V17.626Z" fill="white"/>
<path fill-rule="evenodd" clip-rule="evenodd" d="M26.6574 16.8788L26.2598 16.7078L26.266 16.2962L26.9256 15.1499C27.2224 15.3527 27.4464 15.6123 27.5095 15.9954L26.6574 16.8756V16.8788Z" fill="white"/>
<path fill-rule="evenodd" clip-rule="evenodd" d="M25.527 16.3185L25.1072 16.2204L25.041 15.8151L25.4923 14.5708C25.8174 14.7196 26.0825 14.9349 26.2151 15.3022L25.527 16.3185Z" fill="white"/>
<path fill-rule="evenodd" clip-rule="evenodd" d="M24.3151 15.964L23.8828 15.9387L23.7471 15.5493L23.9774 14.2448C24.3246 14.3334 24.6244 14.5012 24.817 14.84L24.3151 15.9609V15.964Z" fill="white"/>
<path d="M22.8974 17.525C21.4045 17.525 20.0504 18.133 19.072 19.1145C18.0905 20.0991 17.4844 21.4542 17.4844 22.955C17.4844 24.4526 18.0905 25.8109 19.072 26.7924C20.0536 27.7772 21.4045 28.3851 22.9005 28.3851C24.3934 28.3851 25.7474 27.7772 26.7259 26.7956C27.7074 25.8109 28.3135 24.4558 28.3135 22.955C28.3135 21.4574 27.7074 20.0991 26.7259 19.1175C25.7443 18.133 24.3934 17.525 22.8974 17.525Z" fill="white"/>
<path fill-rule="evenodd" clip-rule="evenodd" d="M41.3408 20.1116L42.3445 20.0008L41.6407 20.6657L42.2404 21.4826L41.3125 21.2008L40.9052 22.1317L40.6844 21.185L39.6807 21.2958L40.3845 20.6309L39.7879 19.814L40.7128 20.0958L41.1199 19.1682L41.3408 20.1116Z" fill="#0066B2"/>
<path d="M23.0558 19.5005L21.6702 21.2608C21.6418 21.2988 21.6008 21.3179 21.5566 21.3242L19.7196 21.5427L21.0642 23.3886C21.0927 23.4297 21.1021 23.4772 21.0927 23.5215L20.7864 25.4149L22.9453 24.6487C22.9895 24.6329 23.0336 24.636 23.0715 24.655L25.0506 25.4212L25.0064 23.341C25.0064 23.2967 25.0221 23.2588 25.0474 23.2271L26.1174 21.9764L24.3973 21.1596C24.3688 21.1469 24.3467 21.1248 24.3277 21.0995L23.0526 19.5005H23.0558ZM21.4492 20.9949L22.9233 19.1237C22.9233 19.1237 22.939 19.1047 22.9516 19.0952C23.0242 19.0351 23.1316 19.0476 23.1883 19.1205L24.5803 20.8651L26.4677 21.7611C26.4677 21.7611 26.4929 21.777 26.5056 21.7865C26.5782 21.8466 26.5844 21.9543 26.5245 22.0272L25.3536 23.3981L25.404 25.6619C25.404 25.6841 25.404 25.7094 25.3914 25.7315C25.3567 25.8201 25.2589 25.8614 25.1705 25.8296L23.0022 24.9906L20.6318 25.8328C20.6066 25.8424 20.5781 25.8456 20.5466 25.8391C20.4551 25.8233 20.392 25.7379 20.4077 25.6428L20.7517 23.531L19.281 21.5142C19.262 21.4889 19.2462 21.4603 19.2431 21.4255C19.2336 21.3306 19.2999 21.2482 19.3915 21.2355L21.4461 20.9886L21.4492 20.9949Z" fill="#0066B2"/>
<path d="M23.1699 23.9396L23.7885 23.4901L24.4071 23.0404L24.1704 22.3122L23.9337 21.5839H22.4059L22.1692 22.3122L21.9325 23.0404L22.5513 23.4901L23.1699 23.9396ZM23.9873 23.7655L23.2677 24.2879L23.1667 24.3607L23.0657 24.2879L22.346 23.7655L21.6264 23.243L21.5254 23.1702L21.5633 23.0531L21.8379 22.2077L22.1125 21.3623L22.1504 21.2451H24.1735L24.2114 21.3623L24.486 22.2077L24.7606 23.0531L24.7985 23.1702L24.6975 23.243L23.9778 23.7655H23.9873Z" fill="#0066B2"/>
<path d="M23.1695 23.2809L23.4441 23.0815L23.7188 22.882L23.6145 22.559L23.5105 22.236H22.8318L22.7277 22.559L22.6235 22.882L22.8981 23.0815L23.1727 23.2809H23.1695ZM23.643 23.357L23.2705 23.6292L23.1695 23.702L23.0685 23.6292L22.6961 23.357L22.3237 23.0846L22.2227 23.0117L22.2606 22.8946L22.4025 22.4546L22.5446 22.0144L22.5824 21.8973H23.7535L23.7914 22.0144L23.9333 22.4546L24.0753 22.8946L24.1132 23.0117L24.0122 23.0846L23.6398 23.357H23.643Z" fill="#0066B2"/>
<path d="M23.3878 20.1876H23.0469V21.3336H23.3878V20.1876Z" fill="#0066B2"/>
<path d="M25.5203 21.9041L24.376 22.1815L24.4561 22.514L25.6004 22.2365L25.5203 21.9041Z" fill="#0066B2"/>
<path d="M20.7998 21.9035L20.7197 22.2359L21.864 22.5134L21.9441 22.1811L20.7998 21.9035Z" fill="#0066B2"/>
<path d="M22.2558 23.4903L21.4619 24.4299L21.7219 24.651L22.5159 23.7115L22.2558 23.4903Z" fill="#0066B2"/>
<path d="M23.8489 23.4896L23.5889 23.7108L24.3828 24.6503L24.6427 24.4292L23.8489 23.4896Z" fill="#0066B2"/>
<path d="M21.9702 26.6815C22.0081 26.5708 22.1281 26.5107 22.2386 26.5455C22.349 26.5834 22.409 26.7038 22.3743 26.8146L21.8377 28.4294C21.7998 28.5401 21.6799 28.6003 21.5694 28.5654C21.4589 28.5276 21.399 28.4072 21.4337 28.2963L21.9702 26.6815Z" fill="#0066B2"/>
<path d="M22.9834 26.7763C22.9677 26.6592 23.0497 26.5547 23.1665 26.5389C23.2834 26.5231 23.3875 26.6053 23.4032 26.7225C23.4443 27.036 23.4538 27.359 23.4127 27.6787C23.3717 28.0049 23.2834 28.331 23.1223 28.6507C23.0687 28.7552 22.9424 28.7995 22.8382 28.7457C22.7341 28.692 22.69 28.5653 22.7436 28.4607C22.8793 28.1917 22.9551 27.9098 22.9898 27.6281C23.0245 27.3399 23.0182 27.055 22.9834 26.7763Z" fill="#0066B2"/>
<path d="M24.0468 26.786C23.99 26.6846 24.0247 26.5549 24.1257 26.4946C24.2267 26.4377 24.3561 26.4725 24.416 26.5739L24.839 27.3178C24.8612 27.3591 24.8707 27.4002 24.8643 27.4445L24.7696 28.3849C24.757 28.502 24.6528 28.5875 24.536 28.5748C24.4192 28.5622 24.334 28.4576 24.3467 28.3406L24.435 27.4666L24.0468 26.7828V26.786Z" fill="#0066B2"/>
<path d="M24.7359 26.5263C24.6663 26.4314 24.6917 26.2983 24.7863 26.2287C24.881 26.159 25.0135 26.1843 25.0831 26.2794L25.5755 26.9696C25.6069 27.0139 25.6196 27.0646 25.6132 27.1153L25.5186 28.0397C25.5059 28.1569 25.4019 28.2425 25.285 28.2297C25.1682 28.217 25.0831 28.1126 25.0956 27.9954L25.1809 27.1501L24.7359 26.5231V26.5263Z" fill="#0066B2"/>
<path fill-rule="evenodd" clip-rule="evenodd" d="M22.551 27.929C22.7024 27.929 22.8255 27.8055 22.8255 27.6535C22.8255 27.5016 22.7024 27.378 22.551 27.378C22.3994 27.378 22.2764 27.5016 22.2764 27.6535C22.2764 27.8055 22.3994 27.929 22.551 27.929Z" fill="#0066B2"/>
<path fill-rule="evenodd" clip-rule="evenodd" d="M23.8669 27.7581C24.0311 27.7581 24.1637 27.6252 24.1637 27.4605C24.1637 27.2959 24.0311 27.1628 23.8669 27.1628C23.7028 27.1628 23.5703 27.2959 23.5703 27.4605C23.5703 27.6252 23.7028 27.7581 23.8669 27.7581Z" fill="#0066B2"/>
<path fill-rule="evenodd" clip-rule="evenodd" d="M23.5733 27.5111C23.7153 27.5111 23.8321 27.4572 23.8321 27.3907C23.8321 27.3243 23.7153 27.2704 23.5733 27.2704C23.4312 27.2704 23.3145 27.3243 23.3145 27.3907C23.3145 27.4572 23.4312 27.5111 23.5733 27.5111Z" fill="#0066B2"/>
<path d="M22.8982 18.9084C24.0123 18.9084 25.0223 19.3612 25.7514 20.0926C26.4805 20.824 26.9318 21.8371 26.9318 22.9548C26.9318 24.0725 26.4805 25.0857 25.7514 25.817C25.5588 26.0101 25.3475 26.1843 25.1201 26.3331L25.0823 26.2793C25.0128 26.1843 24.8803 26.1621 24.7856 26.2287C24.691 26.2951 24.6688 26.4313 24.7351 26.5263L24.7541 26.5516C24.6656 26.599 24.571 26.6403 24.4795 26.6814L24.4194 26.5769C24.3627 26.4756 24.2333 26.4377 24.129 26.4978C24.028 26.5547 23.9903 26.6846 24.0502 26.7891L24.0754 26.8303C23.8671 26.8935 23.6525 26.941 23.4316 26.9696C23.4253 26.8872 23.4189 26.8049 23.4063 26.7257C23.3969 26.6498 23.3495 26.5895 23.2832 26.5579C24.126 26.4693 24.8834 26.0862 25.4515 25.5163C26.1049 24.8608 26.5089 23.9554 26.5089 22.9579C26.5089 21.9606 26.1049 21.0551 25.4515 20.3997C24.7982 19.7443 23.8955 19.339 22.9013 19.339C21.907 19.339 21.0045 19.7443 20.351 20.3997C19.6977 21.0551 19.2938 21.9606 19.2938 22.9579C19.2938 23.9554 19.6977 24.8608 20.351 25.5163C21.0045 26.1716 21.907 26.5769 22.9013 26.5769C22.9613 26.5769 23.0212 26.5769 23.0781 26.5737C23.0118 26.6181 22.9739 26.6941 22.9833 26.7795C22.9928 26.8524 22.9991 26.9285 23.0055 27.0044C22.9708 27.0044 22.936 27.0044 22.8982 27.0044C22.7025 27.0044 22.5131 26.9886 22.3238 26.9633L22.371 26.8176C22.4089 26.7067 22.349 26.5865 22.2353 26.5484C22.1249 26.5104 22.005 26.5707 21.9671 26.6846L21.9008 26.8809C21.1843 26.7004 20.5468 26.3268 20.0417 25.8203C19.3126 25.0889 18.8613 24.0756 18.8613 22.9579C18.8613 21.8403 19.3126 20.8271 20.0417 20.0957C20.7708 19.3643 21.7808 18.9116 22.895 18.9116L22.8982 18.9084Z" fill="#0066B2"/>
<path d="M57.9357 11.5345C59.4476 11.5314 60.7479 11.8606 61.9315 12.592C63.5821 13.6116 64.5606 15.0996 64.8984 17.0025C65.154 18.4463 65.0089 19.8552 64.3681 21.1787C63.4182 23.1481 61.8084 24.3038 59.7033 24.7628C58.0872 25.1143 56.4933 25.0035 54.9752 24.3133C52.8225 23.3349 51.5159 21.6822 51.1467 19.3266C50.9193 17.8796 51.1024 16.4802 51.7684 15.1662C52.6301 13.4691 54.0156 12.3894 55.821 11.8416C56.5501 11.62 57.2982 11.5124 57.9357 11.5314V11.5345ZM60.5302 18.269C60.5302 18.1613 60.5364 18.0506 60.5302 17.9429C60.4765 17.2336 60.2239 16.6321 59.6212 16.2047C59.2329 15.9291 58.8131 15.7646 58.3429 15.714C57.1308 15.5841 56.0325 16.1952 55.6442 17.3476C55.4549 17.9112 55.477 18.4938 55.619 19.0669C55.7736 19.6812 56.1335 20.1466 56.689 20.4474C57.4371 20.8558 58.2198 20.9033 59.0246 20.6279C59.3055 20.5329 59.5611 20.3872 59.7789 20.1814C60.3313 19.6621 60.5522 19.0131 60.527 18.2659L60.5302 18.269Z" fill="#F26321"/>
<path d="M104.121 39.4224C103.787 39.6345 103.452 39.8213 103.092 39.9512C101.839 40.3977 100.58 40.4039 99.3457 39.9227C98.1873 39.47 97.5562 38.5739 97.534 37.3327C97.5088 36.0156 98.0706 34.9898 99.4499 34.499C99.9264 34.3311 100.419 34.2584 100.921 34.2172C101.868 34.1348 102.78 34.2868 103.679 34.5591C103.698 34.5654 103.717 34.5717 103.736 34.5749C103.916 34.6193 103.941 34.5877 103.897 34.3977C103.865 34.2679 103.796 34.1665 103.704 34.0716C103.468 33.8278 103.158 33.7296 102.84 33.6535C102.01 33.4572 101.18 33.5175 100.356 33.6853C99.9328 33.7707 99.5193 33.8942 99.1217 34.0779C98.8533 34.2014 98.8061 34.1728 98.8061 33.8879C98.8061 33.1976 98.8123 32.5105 98.8061 31.8204C98.8061 31.5988 98.8881 31.4784 99.0932 31.4025C99.6582 31.1935 100.242 31.0668 100.836 30.9718C101.625 30.8452 102.42 30.8166 103.215 30.8547C104.172 30.9022 105.109 31.0605 105.993 31.4499C106.476 31.6621 106.905 31.9566 107.268 32.3333C107.789 32.8748 108.032 33.5428 108.076 34.2805C108.183 36.079 108.104 37.8805 108.123 39.6788C108.126 39.9733 108.085 39.9986 107.798 39.9828C107.662 39.9733 107.524 39.9701 107.385 39.9701C106.432 39.9701 105.478 39.9701 104.525 39.9701C104.184 39.9701 104.175 39.9607 104.162 39.6282C104.162 39.5712 104.172 39.5111 104.115 39.4161L104.121 39.4224ZM102.698 37.8963C103.08 37.9184 103.411 37.7759 103.72 37.5766C104.011 37.3898 104.02 36.9369 103.736 36.7944C103.37 36.6108 102.979 36.5317 102.568 36.5507C102.448 36.557 102.338 36.5981 102.234 36.6519C101.965 36.7881 101.842 37.051 101.896 37.3675C101.94 37.6272 102.161 37.8393 102.436 37.8773C102.524 37.89 102.612 37.8868 102.701 37.8931L102.698 37.8963Z" fill="#004F8F"/>
<path d="M94.2797 16.4769C94.488 16.3471 94.6711 16.2173 94.8699 16.1096C96.183 15.4068 97.5401 15.3688 98.9163 15.8816C99.7021 16.1761 100.182 16.7903 100.479 17.5566C100.674 18.0569 100.759 18.5855 100.763 19.1175C100.775 20.859 100.772 22.6003 100.769 24.3449C100.769 24.6424 100.741 24.671 100.45 24.6742C99.2603 24.6774 98.0704 24.6805 96.8836 24.6742C96.606 24.6742 96.5775 24.6424 96.5775 24.3322C96.5743 23.1797 96.5775 22.0304 96.5743 20.8778C96.5743 20.5423 96.5743 20.2098 96.5743 19.8742C96.5743 19.7761 96.5743 19.6779 96.5616 19.5798C96.4985 19.051 96.2303 18.8167 95.7 18.8136C95.3845 18.8136 95.0972 18.8895 94.8415 19.0795C94.5511 19.2979 94.387 19.5671 94.3934 19.9566C94.4092 21.3845 94.3997 22.8093 94.3997 24.2372C94.3997 24.671 94.3997 24.6742 93.9547 24.6774C92.8342 24.6774 91.7137 24.6774 90.5932 24.6774C90.5333 24.6774 90.4765 24.6742 90.4164 24.6742C90.2839 24.6742 90.2176 24.6013 90.2113 24.4747C90.2081 24.3955 90.2051 24.3164 90.2051 24.2372C90.2051 21.5713 90.2051 18.9022 90.2051 16.2363C90.2051 16.2268 90.2051 16.2173 90.2051 16.2078C90.2081 15.831 90.2335 15.8057 90.609 15.8057C91.679 15.8057 92.7521 15.8057 93.822 15.8057C93.8726 15.8057 93.92 15.8057 93.9704 15.8057C94.1914 15.8215 94.2198 15.8532 94.2356 16.0684C94.245 16.192 94.2039 16.3218 94.286 16.48L94.2797 16.4769Z" fill="#F26321"/>
<path d="M84.7983 39.3876C84.7194 39.3749 84.6783 39.4034 84.6406 39.4351C84.347 39.6568 84.0187 39.8087 83.681 39.948C82.8257 40.3058 81.9451 40.3469 81.0487 40.1791C79.78 39.9417 78.9845 39.1502 78.5553 37.9596C78.3691 37.4467 78.2965 36.9085 78.2933 36.3639C78.2838 34.7492 78.2901 33.1375 78.2901 31.5227C78.2901 31.5132 78.2901 31.5037 78.2901 31.4943C78.2965 31.127 78.3185 31.1017 78.7036 31.1017C79.7451 31.1017 80.7867 31.1017 81.8284 31.1017C81.9451 31.1017 82.0651 31.0985 82.1818 31.1017C82.4438 31.1143 82.4847 31.1523 82.4847 31.4215C82.4879 32.2383 82.4847 33.0553 82.4847 33.8721C82.4847 34.4832 82.4847 35.091 82.4847 35.7022C82.4847 35.9112 82.5069 36.1169 82.5543 36.3164C82.6301 36.6519 82.8319 36.8737 83.1697 36.9623C83.6842 37.0921 84.3059 36.8294 84.5742 36.3765C84.6658 36.2245 84.6595 36.0567 84.6595 35.8889C84.6595 34.461 84.6595 33.0363 84.6595 31.6083C84.6595 31.2684 84.8278 31.0985 85.1644 31.0985C86.266 31.0985 87.3643 31.0985 88.4658 31.0985C88.8793 31.0985 88.914 31.1428 88.8793 31.567C88.8667 31.7127 88.8636 31.8615 88.8636 32.0104C88.8636 34.4009 88.8636 36.7913 88.8636 39.1818C88.8636 39.3686 88.8856 39.5554 88.892 39.7422C88.8983 39.948 88.8352 40.0145 88.6299 40.0018C87.4906 39.9354 86.3512 39.9891 85.2118 39.9733C84.8394 39.967 84.8362 39.9638 84.8267 39.5934C84.8267 39.5269 84.8362 39.454 84.7952 39.3844L84.7983 39.3876Z" fill="#004F8F"/>
<path d="M61.1238 31.7315C61.2246 31.7505 61.2784 31.6651 61.3478 31.6207C62.6798 30.7657 64.1063 30.6328 65.5866 31.1268C66.5903 31.4623 67.171 32.219 67.4394 33.2228C67.5529 33.6534 67.6098 34.0934 67.6098 34.5368C67.6098 36.2116 67.6098 37.8834 67.6098 39.5583C67.6098 39.9667 67.5971 39.9762 67.2026 39.9762C66.1705 39.9762 65.1385 39.9762 64.1064 39.9762C63.9485 39.9762 63.7908 39.9825 63.6361 39.989C63.4877 39.9952 63.4182 39.9256 63.4151 39.7799C63.4151 39.6913 63.4151 39.6026 63.4151 39.514C63.4151 38.1176 63.4151 36.7182 63.4151 35.322C63.4151 35.113 63.3962 34.9104 63.3488 34.7078C63.2636 34.3435 63.0363 34.1537 62.6671 34.1219C62.2094 34.0839 61.8212 34.2296 61.4867 34.5494C61.3099 34.7171 61.2341 34.9071 61.2373 35.151C61.2436 36.3699 61.2405 37.5921 61.2405 38.8142C61.2405 39.0992 61.2436 39.3841 61.2405 39.6692C61.2341 39.9414 61.2026 39.973 60.928 39.973C59.8581 39.973 58.7849 39.973 57.715 39.973C57.5571 39.973 57.3994 39.9825 57.2447 39.9857C57.1278 39.9857 57.0584 39.9351 57.0522 39.8117C57.049 39.7324 57.0459 39.6533 57.0459 39.5741C57.0459 36.8955 57.0459 34.2201 57.0459 31.5415C57.0459 31.111 57.0584 31.0982 57.494 31.095C58.5451 31.095 59.596 31.095 60.6503 31.095C60.7008 31.095 60.7481 31.095 60.7986 31.095C61.0322 31.111 61.0669 31.1488 61.0827 31.3769C61.0889 31.4845 61.0637 31.5922 61.1048 31.6967C61.1048 31.7029 61.1173 31.7094 61.13 31.7189L61.1238 31.7315Z" fill="#004F8F"/>
<path d="M113.306 31.7443C113.438 31.7506 113.501 31.662 113.58 31.6114C114.915 30.7596 116.339 30.6298 117.816 31.1396C118.807 31.4784 119.378 32.2224 119.637 33.2229C119.751 33.663 119.807 34.1127 119.811 34.5654C119.817 36.2561 119.814 37.9501 119.811 39.6408C119.811 39.7104 119.811 39.7801 119.801 39.8466C119.792 39.9385 119.735 39.9859 119.64 39.9859C119.514 39.9859 119.385 39.9796 119.258 39.9796C118.207 39.9796 117.156 39.9796 116.105 39.9796C116.026 39.9796 115.947 39.9796 115.869 39.9796C115.663 39.9669 115.629 39.9353 115.616 39.7357C115.61 39.6471 115.616 39.5585 115.613 39.4698C115.613 38.0736 115.613 36.6742 115.613 35.2778C115.613 35.0688 115.6 34.863 115.543 34.6636C115.461 34.3722 115.272 34.1823 114.969 34.138C114.505 34.0684 114.092 34.1791 113.744 34.5021C113.539 34.6921 113.435 34.9105 113.438 35.205C113.451 36.3765 113.441 37.548 113.441 38.7163C113.441 39.0424 113.441 39.3654 113.441 39.6914C113.438 39.9828 113.404 39.9954 113.11 39.9923C112.333 39.9828 111.557 39.9828 110.781 39.9796C110.358 39.9796 109.935 39.9828 109.512 39.9796C109.288 39.9764 109.256 39.9416 109.244 39.7232C109.24 39.6535 109.244 39.587 109.244 39.5174C109.244 36.8705 109.244 34.2234 109.244 31.5766C109.244 31.1111 109.247 31.1079 109.727 31.1079C110.651 31.1079 111.573 31.1079 112.498 31.1079C112.567 31.1079 112.637 31.1079 112.703 31.1079C113.065 31.11 113.257 31.2895 113.28 31.6462C113.28 31.6747 113.293 31.7032 113.306 31.7475V31.7443Z" fill="#004F8F"/>
<path d="M119.518 21.8531C119.518 22.651 119.518 23.4457 119.518 24.2435C119.518 24.3227 119.518 24.4018 119.511 24.4811C119.505 24.595 119.442 24.6615 119.325 24.6647C119.256 24.6647 119.186 24.671 119.12 24.671C118.059 24.671 116.999 24.671 115.935 24.671C115.897 24.671 115.856 24.671 115.819 24.671C115.61 24.6552 115.582 24.6266 115.566 24.4273C115.537 24.0853 115.537 24.0885 115.235 24.2753C114.708 24.6013 114.13 24.7851 113.521 24.8737C112.53 25.0162 111.558 24.9433 110.633 24.538C109.55 24.06 108.976 23.224 108.95 22.0241C108.944 21.7169 108.96 21.4129 109.033 21.1154C109.254 20.2288 109.8 19.6273 110.63 19.2726C111.103 19.07 111.605 18.9814 112.113 18.9148C113.129 18.7788 114.108 18.9561 115.077 19.2473C115.105 19.2568 115.134 19.2663 115.162 19.2695C115.288 19.2916 115.332 19.2536 115.31 19.1333C115.269 18.9307 115.162 18.7693 114.991 18.6552C114.818 18.5412 114.632 18.4526 114.433 18.3957C113.798 18.2182 113.158 18.1961 112.504 18.2563C111.804 18.3228 111.131 18.4938 110.488 18.7755C110.26 18.8737 110.203 18.8389 110.203 18.5888C110.2 17.8985 110.203 17.2114 110.203 16.5213C110.203 16.2932 110.304 16.1603 110.522 16.0843C111.229 15.8342 111.958 15.6853 112.703 15.6031C113.401 15.527 114.098 15.527 114.793 15.5618C115.771 15.6125 116.724 15.7962 117.605 16.2489C118.476 16.6953 119.101 17.3571 119.363 18.3196C119.47 18.709 119.511 19.1111 119.514 19.5164C119.521 20.2954 119.514 21.0711 119.514 21.8499L119.518 21.8531ZM114.127 22.594C114.468 22.6035 114.805 22.4768 115.115 22.2742C115.443 22.0589 115.411 21.6124 115.058 21.4542C114.723 21.3022 114.37 21.2293 113.997 21.2421C113.868 21.2484 113.745 21.2737 113.628 21.3338C113.388 21.4605 113.268 21.6631 113.275 21.9322C113.284 22.2014 113.407 22.3977 113.653 22.518C113.792 22.5845 113.937 22.594 114.124 22.5908L114.127 22.594Z" fill="#F26321"/>
<path d="M137.704 36.7153C136.75 36.7153 135.797 36.7153 134.844 36.7153C134.749 36.7153 134.617 36.6709 134.573 36.7691C134.519 36.8895 134.661 36.9528 134.734 37.0192C135.093 37.3391 135.538 37.4594 135.999 37.5259C136.754 37.6367 137.508 37.5703 138.262 37.4974C138.843 37.4404 139.405 37.3137 139.958 37.1364C140.181 37.0636 140.223 37.0953 140.223 37.3296C140.228 38.0072 140.223 38.6878 140.228 39.3654C140.228 39.5428 140.153 39.625 139.988 39.6821C139.146 39.967 138.281 40.1253 137.397 40.2108C136.817 40.2678 136.239 40.2773 135.662 40.252C134.784 40.2139 133.916 40.081 133.108 39.7201C131.609 39.0551 130.706 37.9185 130.482 36.2783C130.343 35.2494 130.482 34.252 130.94 33.318C131.517 32.1402 132.493 31.4341 133.743 31.1048C135.027 30.766 136.328 30.7185 137.615 31.0922C138.887 31.4626 139.897 32.1845 140.484 33.4098C140.774 34.0178 140.936 34.6668 140.939 35.3476C140.939 35.6736 140.941 35.9966 140.939 36.3227C140.939 36.6932 140.923 36.7122 140.56 36.7122C139.607 36.7122 138.654 36.7122 137.7 36.7122L137.704 36.7153ZM135.696 34.3914C136.05 34.3914 136.403 34.3914 136.754 34.3881C136.933 34.3851 136.965 34.3312 136.892 34.1697C136.782 33.9259 136.593 33.7549 136.346 33.6631C135.958 33.5175 135.56 33.489 135.163 33.6187C134.882 33.7106 134.658 33.8816 134.525 34.1538C134.44 34.3312 134.468 34.3881 134.664 34.3914C135.008 34.3977 135.349 34.3914 135.693 34.3914H135.696Z" fill="#004F8F"/>
<path d="M86.0736 21.4097C85.1299 21.4097 84.1861 21.4097 83.2424 21.4097C83.1414 21.4097 82.993 21.3559 82.9553 21.4826C82.9236 21.5902 83.0594 21.6631 83.1414 21.7264C83.5455 22.0304 84.0062 22.1761 84.5049 22.2393C84.9658 22.2963 85.4233 22.2647 85.8873 22.2488C86.4776 22.2267 87.0614 22.1538 87.6391 22.043C87.8885 21.9956 88.1315 21.91 88.3776 21.8436C88.5765 21.7897 88.6176 21.8055 88.6176 21.9986C88.6206 22.6762 88.6176 23.357 88.6176 24.0345C88.6176 24.2087 88.5355 24.31 88.3744 24.3575C88.1125 24.4366 87.8506 24.5317 87.5822 24.5886C86.8626 24.7469 86.143 24.8705 85.4013 24.9179C84.7795 24.9559 84.1609 24.9559 83.5485 24.8926C82.2577 24.7533 81.0489 24.3828 80.0798 23.4425C79.5338 22.9137 79.1773 22.2836 79.0037 21.5459C78.7764 20.5771 78.7922 19.6114 79.0857 18.6615C79.4866 17.3634 80.345 16.4863 81.5949 15.9798C82.1945 15.7359 82.8194 15.6188 83.4602 15.5714C84.4859 15.4985 85.5054 15.5554 86.4776 15.9417C88.0399 16.5624 88.9741 17.6959 89.2645 19.3613C89.3687 19.9565 89.3213 20.5581 89.3245 21.1565C89.3245 21.3559 89.2804 21.3876 89.0783 21.4034C88.9995 21.4097 88.9205 21.4034 88.8416 21.4034C87.9169 21.4034 86.9952 21.4034 86.0704 21.4034L86.0736 21.4097ZM84.0788 19.0541C84.4323 19.0541 84.7858 19.0605 85.1362 19.0541C85.3287 19.051 85.3602 18.9844 85.2687 18.8134C85.1646 18.6171 85.013 18.4621 84.8079 18.3765C84.3944 18.2055 83.9715 18.1802 83.5423 18.3227C83.2929 18.405 83.091 18.557 82.9647 18.7944C82.8511 19.0035 82.8732 19.051 83.1067 19.0573C83.4287 19.0636 83.7538 19.0573 84.0788 19.0573V19.0541Z" fill="#F26321"/>
<path d="M72.7791 33.6821C72.8958 33.8403 73.0348 33.8561 73.1674 33.8879C73.5682 33.9828 73.9754 34.062 74.373 34.1601C75.0327 34.3248 75.6798 34.5211 76.2762 34.8599C77.0495 35.2968 77.463 35.9554 77.5229 36.8387C77.5546 37.3232 77.5514 37.8045 77.3463 38.2604C77.0527 38.9189 76.5698 39.3875 75.9228 39.6914C75.2852 39.9922 74.6129 40.1537 73.909 40.217C72.4857 40.3437 71.0843 40.217 69.6955 39.9035C69.3799 39.8339 69.0737 39.72 68.7738 39.5965C68.5877 39.5204 68.4961 39.4002 68.4992 39.1944C68.5056 38.4377 68.4992 37.6778 68.4992 36.9211C68.4992 36.8735 68.5024 36.8229 68.5119 36.7754C68.5308 36.674 68.594 36.6487 68.6855 36.6868C68.7297 36.7058 68.777 36.7248 68.818 36.7501C69.7366 37.225 70.7244 37.4783 71.7407 37.6302C72.11 37.6841 72.4857 37.6651 72.8581 37.6493C72.9148 37.6493 72.9779 37.6365 73.0285 37.6144C73.1232 37.5764 73.1295 37.4878 73.0412 37.4371C72.9748 37.3991 72.896 37.377 72.8202 37.358C72.5803 37.301 72.3405 37.2471 72.1006 37.1933C71.3683 37.035 70.6645 36.7881 69.989 36.4619C69.705 36.3227 69.4493 36.1422 69.2094 35.9331C68.4709 35.2904 68.2878 34.4483 68.3889 33.5237C68.5056 32.4472 69.1242 31.7569 70.0963 31.3422C70.8222 31.035 71.583 30.9053 72.3625 30.8578C73.5903 30.7818 74.7928 30.9622 75.9796 31.2694C76.2288 31.3327 76.4625 31.4341 76.6992 31.5353C76.8634 31.6049 76.939 31.7158 76.9359 31.8994C76.9295 32.6657 76.9359 33.435 76.9327 34.2012C76.9327 34.4578 76.8854 34.4831 76.6551 34.3596C75.7744 33.8879 74.8275 33.6503 73.8429 33.5491C73.4924 33.5111 73.139 33.5141 72.776 33.6821H72.7791Z" fill="#004F8F"/>
<path d="M129.853 33.2292C129.853 33.6819 129.857 34.1348 129.853 34.5875C129.85 34.8124 129.803 34.844 129.607 34.7331C129.143 34.4641 128.654 34.2678 128.127 34.1632C127.496 34.0366 126.861 33.9923 126.224 34.1189C126.022 34.1601 125.826 34.2329 125.643 34.3279C125.138 34.5906 124.898 35.0182 124.901 35.5753C124.904 36.1389 125.176 36.5506 125.681 36.8007C126.012 36.9653 126.369 37.0318 126.735 37.0571C127.736 37.1268 128.664 36.8735 129.541 36.4081C129.821 36.2603 129.961 36.3436 129.961 36.6582C129.961 37.456 129.951 38.254 129.967 39.0487C129.973 39.3178 129.876 39.4539 129.636 39.5615C128.799 39.9351 127.925 40.1251 127.016 40.2107C126.495 40.2581 125.974 40.2741 125.457 40.2518C124.696 40.2202 123.948 40.1031 123.244 39.7991C121.755 39.1531 120.868 38.0354 120.634 36.4144C120.492 35.4296 120.565 34.4704 120.94 33.5427C121.328 32.5865 122.013 31.9057 122.932 31.4592C123.778 31.0478 124.683 30.8831 125.615 30.8482C126.792 30.807 127.95 30.9464 129.074 31.3168C129.241 31.3706 129.402 31.4497 129.569 31.51C129.784 31.5859 129.872 31.7221 129.863 31.9564C129.847 32.3774 129.857 32.8018 129.857 33.226L129.853 33.2292Z" fill="#004F8F"/>
<path d="M104.367 13.1555C104.926 13.1555 105.488 13.1429 106.046 13.1587C106.542 13.1745 106.542 13.1903 106.542 13.6906C106.542 14.2796 106.542 14.8716 106.542 15.4605C106.542 15.7739 106.564 15.793 106.88 15.7962C107.293 15.7962 107.707 15.7962 108.117 15.7962C108.407 15.7962 108.432 15.8246 108.432 16.1222C108.432 16.8315 108.432 17.5407 108.432 18.2468C108.432 18.5539 108.404 18.5792 108.092 18.5823C107.688 18.5855 107.287 18.5823 106.883 18.5823C106.561 18.5823 106.542 18.5983 106.542 18.9085C106.542 19.4974 106.536 20.0894 106.545 20.6783C106.558 21.4635 106.949 21.777 107.726 21.6568C107.978 21.6187 108.224 21.5586 108.461 21.451C108.742 21.3211 108.786 21.3496 108.789 21.6536C108.792 22.3216 108.789 22.9929 108.792 23.6609C108.792 23.8192 108.783 23.9776 108.792 24.1327C108.802 24.3322 108.71 24.4398 108.53 24.5095C108.088 24.6772 107.637 24.8134 107.167 24.8673C106.482 24.9464 105.8 24.9717 105.112 24.8545C103.632 24.6044 102.758 23.5976 102.474 22.2615C102.388 21.8561 102.341 21.4477 102.344 21.0298C102.35 20.3395 102.344 19.6525 102.344 18.9623C102.344 18.5823 102.341 18.5792 101.972 18.576C101.785 18.576 101.599 18.5823 101.413 18.576C101.211 18.5665 101.167 18.5317 101.167 18.3291C101.161 17.5629 101.161 16.7935 101.167 16.0273C101.167 15.8436 101.214 15.8025 101.397 15.793C101.612 15.7834 101.83 15.793 102.044 15.7867C102.319 15.7802 102.344 15.7581 102.344 15.4763C102.344 14.9159 102.344 14.3555 102.344 13.7951C102.344 13.7254 102.344 13.6558 102.344 13.5893C102.344 13.1745 102.373 13.146 102.802 13.1429C103.016 13.1429 103.234 13.1429 103.449 13.1429C103.755 13.1429 104.058 13.1429 104.364 13.1429V13.1492L104.367 13.1555Z" fill="#F26321"/>
<path d="M55.8281 33.5807C55.8281 35.55 55.8281 37.5163 55.8281 39.4856C55.8281 39.5552 55.8281 39.625 55.8281 39.6914C55.8218 39.9701 55.7966 39.9859 55.5188 39.9859C54.3384 39.9796 53.1611 39.9796 51.9807 39.9796C51.8639 39.9796 51.747 40.0017 51.6272 40.0049C51.4851 40.0112 51.4062 39.9416 51.4 39.7959C51.3968 39.7072 51.3936 39.6186 51.3936 39.5299C51.3936 35.5437 51.3936 31.5575 51.3936 27.5712C51.3936 27.0869 51.3936 27.0869 51.8922 27.0837C53.0316 27.0837 54.1711 27.0837 55.3137 27.0837C55.3641 27.0837 55.4115 27.0837 55.4619 27.0837C55.7934 27.0932 55.8281 27.1248 55.8281 27.4668C55.8281 29.5026 55.8281 31.5416 55.8281 33.5775V33.5807Z" fill="#004F8F"/>
<path d="M120.634 17.8572C120.634 15.7517 120.634 13.6431 120.634 11.5376C120.634 11.0658 120.634 11.0658 121.11 11.0658C122.193 11.0658 123.272 11.0658 124.355 11.0658C124.443 11.0658 124.532 11.0658 124.62 11.069C124.753 11.069 124.819 11.1418 124.825 11.2684C124.828 11.3476 124.832 11.4267 124.832 11.5059C124.832 15.7391 124.832 19.9692 124.832 24.2023C124.832 24.6677 124.832 24.671 124.358 24.671C123.247 24.671 122.136 24.671 121.025 24.671C120.965 24.671 120.908 24.6677 120.848 24.6677C120.719 24.6677 120.65 24.5981 120.643 24.4682C120.64 24.3701 120.637 24.2719 120.637 24.1738C120.637 22.0683 120.637 19.9597 120.637 17.8542L120.634 17.8572Z" fill="#F26321"/>
<path d="M94.1723 31.8391C94.5416 31.5637 94.9298 31.3547 95.3464 31.2059C95.8956 31.0096 96.4638 30.8924 97.0445 30.8576C97.3791 30.8386 97.4075 30.8703 97.4075 31.1932C97.4075 32.0607 97.4075 32.9251 97.4075 33.7927C97.4075 34.0808 97.3759 34.1094 97.0855 34.1189C96.4417 34.141 95.8168 34.2454 95.2139 34.4829C95.0024 34.5653 94.8068 34.6792 94.6237 34.8122C94.387 34.9863 94.2733 35.2016 94.2765 35.5151C94.289 36.8544 94.2828 38.1905 94.2828 39.5298C94.2828 39.9098 94.3554 40.0048 93.8157 39.992C92.6763 39.9667 91.5369 39.9446 90.3975 40.008C90.1513 40.0206 90.0976 39.9762 90.085 39.7356C90.085 39.6755 90.085 39.6184 90.085 39.5583C90.085 36.9208 90.085 34.2834 90.085 31.646C90.085 31.6175 90.085 31.5858 90.085 31.5574C90.085 31.1616 90.085 31.1648 90.4669 31.1393C91.5653 31.0666 92.6669 31.1205 93.7684 31.1077C94.1061 31.1045 94.1628 31.1806 94.1345 31.5162C94.1251 31.6112 94.0872 31.7094 94.1692 31.8423L94.1723 31.8391Z" fill="#004F8F"/>
<path d="M69.9637 16.4927C70.0774 16.4897 70.15 16.401 70.2384 16.344C71.0275 15.831 71.9049 15.6126 72.8328 15.562C73.1421 15.546 73.1705 15.581 73.1705 15.8912C73.1705 16.7461 73.1705 17.6042 73.1705 18.459C73.1705 18.7851 73.1516 18.801 72.8138 18.8105C72.2805 18.8263 71.7597 18.9182 71.2483 19.0764C70.9644 19.1651 70.7023 19.2948 70.4561 19.4595C70.1722 19.6495 70.0395 19.8965 70.0427 20.251C70.0553 21.5588 70.049 22.8695 70.0458 24.1803C70.0458 24.269 70.0458 24.3576 70.0458 24.4463C70.0458 24.5887 69.9827 24.6679 69.8344 24.6711C69.7365 24.6711 69.6387 24.6774 69.5409 24.6774C68.4488 24.6774 67.3598 24.6774 66.2678 24.6774C66.1984 24.6774 66.129 24.6774 66.0627 24.6711C65.9395 24.6647 65.8891 24.5983 65.8923 24.4779C65.8923 24.44 65.8923 24.3987 65.8923 24.3608C65.8923 21.7804 65.8923 19.2031 65.8923 16.6226C65.8923 16.4358 65.8828 16.249 65.8796 16.0622C65.8733 15.8437 65.9048 15.8121 66.129 15.7994C66.1795 15.7994 66.2268 15.7994 66.2773 15.7994C67.3378 15.7994 68.4015 15.7994 69.462 15.7994C69.4998 15.7994 69.5409 15.7994 69.5788 15.7994C69.8754 15.8089 69.9133 15.8469 69.9165 16.1477C69.9165 16.2458 69.9196 16.344 69.926 16.4421C69.926 16.4579 69.948 16.4707 69.9669 16.4927H69.9637Z" fill="#F26321"/>
<path d="M73.7461 20.1972C73.7461 18.8896 73.7461 17.5819 73.7461 16.2744C73.7461 16.2142 73.7461 16.1572 73.7461 16.0971C73.7556 15.8374 73.784 15.7994 74.0332 15.7994C75.2327 15.7994 76.4289 15.7994 77.6282 15.7994C77.8903 15.7994 77.9312 15.85 77.9375 16.1129C77.9407 16.2395 77.9375 16.3693 77.9375 16.496C77.9375 19.0732 77.9375 21.6505 77.9375 24.2277C77.9375 24.6679 77.9375 24.6711 77.4957 24.6711C76.3752 24.6711 75.2579 24.6711 74.1375 24.6711C74.0774 24.6711 74.0207 24.6711 73.9607 24.6679C73.8124 24.6679 73.7493 24.5855 73.7493 24.4431C73.7493 24.3544 73.7493 24.2658 73.7493 24.1771C73.7493 22.8505 73.7493 21.5207 73.7493 20.194L73.7461 20.1972Z" fill="#F26321"/>
<path d="M75.8183 10.8316C76.8031 10.8126 77.9709 11.5566 77.9741 12.9498C77.9772 14.1877 77.0272 15.0648 75.7805 15.0553C74.6726 15.0458 73.7005 14.229 73.6848 12.9434C73.6689 11.7846 74.6411 10.8348 75.8152 10.8316H75.8183Z" fill="#F26321"/>
</g>
<defs>
<clipPath id="clip0_20_341">
<rect width="141" height="46" fill="white"/>
</clipPath>
</defs>
</svg>
