<svg width="141" height="28" viewBox="0 0 141 28" fill="none" xmlns="http://www.w3.org/2000/svg">
<g clip-path="url(#clip0_20_426)">
<path d="M26.9871 23.9996C26.4779 25.1553 25.7449 26.0251 24.7264 26.6506C23.5343 27.3834 22.2803 27.7677 20.8497 27.7468C16.8581 27.6902 12.8636 27.7736 8.872 27.7111C6.67311 27.6753 4.99818 26.603 3.79718 24.7115C2.79634 23.1387 2.78756 21.4528 3.12314 19.74C3.33214 18.6796 4.04156 17.8694 4.8069 17.1217C5.5693 16.38 6.51421 15.9868 7.465 15.5996C7.74465 15.4864 8.05661 15.4596 8.37747 15.6323C8.30388 16.0702 7.9036 16.3026 7.75054 16.6868C7.40907 17.5447 6.95572 18.3519 6.47003 19.1353C5.48391 20.7319 6.13151 22.7694 7.65925 23.5736C8.08314 23.797 8.51291 23.8834 8.978 23.8834C12.1424 23.8834 15.3068 23.8983 18.4683 23.8774C19.4485 23.8715 20.4258 23.9966 21.403 23.8983C21.5797 23.8804 21.7504 23.9251 21.9064 24.0145C23.0544 24.6609 24.282 24.3749 25.4889 24.3243C25.7067 24.3153 25.8892 24.1664 26.0717 24.0383C26.3395 23.8506 26.625 23.8089 26.9842 23.9936L26.9871 23.9996Z" fill="#02ACF2"/>
<path d="M17.9831 9.05235C17.6564 8.42681 17.3944 7.92937 17.1353 7.42596C16.6349 6.44596 16.0638 5.50469 15.425 4.61107C14.8128 3.7532 13.4322 3.38979 12.4314 3.65192C11.2304 3.96767 10.5651 4.83149 10.05 5.85022C8.98732 7.9532 7.68627 9.9132 6.5412 11.9655C5.91126 13.0975 5.34016 14.2681 4.61309 15.3404C4.43941 15.5936 4.30109 15.8826 4.05677 16.0702C3.20017 16.7285 2.72034 17.6847 2.18165 18.5753C1.90789 19.0281 1.84905 19.6149 1.69304 20.1421C1.64888 20.2881 1.66652 20.4549 1.52228 20.574C1.22792 20.6336 1.18378 20.3834 1.09547 20.1928C0.786388 19.5375 0.51558 18.8672 0.218273 18.2089C-0.0966957 17.506 0.00341658 16.7106 0.247738 15.954C0.804085 14.2294 1.89318 12.8055 2.77038 11.2626C4.33639 8.5132 5.88182 5.74894 7.51554 3.04128C8.27794 1.78127 9.31701 0.839994 10.7241 0.360419C10.9095 0.297866 11.095 0.193611 11.2834 0.184675C12.7906 0.095313 14.2947 0.0476529 15.6576 0.884674C16.8763 1.63233 17.7447 2.5885 18.2539 4.02724C18.6101 5.03107 18.6542 5.9783 18.6807 6.97915C18.6896 7.27405 18.6424 7.54511 18.4423 7.78043C18.1685 8.09915 18.2039 8.55788 17.9861 9.04937L17.9831 9.05235Z" fill="#02ACF2"/>
<path d="M19.1804 20.44C20.0929 20.44 21.0055 20.3923 21.9092 20.4549C22.7746 20.5115 23.59 20.306 24.4142 20.1391C24.8146 20.0587 25.106 19.7638 25.4004 19.5077C26.3806 18.6498 26.6455 17.2557 26.0745 16.0851C25.6388 15.1945 25.1678 14.3247 24.6085 13.5055C24.0345 12.6655 23.7019 11.6974 23.1749 10.8306C22.5009 9.72553 21.8003 8.62936 21.1762 7.50042C20.5375 6.34468 19.8192 5.23063 19.5219 3.86638C19.2511 2.61829 18.4092 1.59361 17.4172 0.759566C17.2553 0.622545 17.0316 0.545101 16.9668 0.205526C18.103 0.134036 19.1746 0.0804191 20.2431 0.646378C21.5854 1.35829 22.5362 2.34127 23.2809 3.69957C24.3112 5.5851 25.3856 7.45574 26.4777 9.31148C27.4491 10.9587 28.4352 12.597 29.3301 14.2889C30.4193 16.3472 30.016 19.4928 28.4588 21.2353C27.0605 22.8021 25.3061 23.246 23.3133 23.0762C22.0829 22.9719 20.9908 22.5251 19.9988 21.7983C19.7309 21.6017 19.4895 21.3813 19.2894 21.1191C19.1422 20.9255 19.0156 20.717 19.1834 20.446L19.1804 20.44Z" fill="#02ACF2"/>
<path d="M120.628 19.0757C121.093 19.4123 121.696 19.4808 122.241 19.7519C122.423 20.2076 122.467 20.6663 122.255 21.1221C120.978 21.3604 120.039 20.5681 119.029 20.1063C116.574 21.6344 112.959 21.6523 110.587 19.5046C109.253 18.2953 108.509 16.6689 108.202 14.8906C107.67 11.8076 109.468 8.60848 112.453 7.1906C115.617 5.68933 119.606 7.08933 121.237 10.4315C122.503 13.0229 122.367 15.6293 120.904 18.1404C120.742 18.4174 120.477 18.6617 120.63 19.0757H120.628ZM119.035 17.8395C120.198 16.1685 120.622 14.5451 120.183 12.4749C119.668 10.0412 117.716 8.42975 115.261 8.4089C115.088 8.4089 114.911 8.42677 114.737 8.4089C113.757 8.29869 112.924 8.70975 112.194 9.26975C110.263 10.7561 109.769 12.8323 110.004 15.1646C110.016 15.2778 110.098 15.3612 110.322 15.4953C113.692 14.1012 116.342 15.9898 119.035 17.8425V17.8395ZM110.978 17.074C111.729 18.5127 112.962 19.2455 114.446 19.5672C115.488 19.7936 116.498 19.6446 117.36 18.9178C116.35 17.3123 112.859 16.3025 110.978 17.074Z" fill="black"/>
<path d="M130.12 13.434C130.461 13.7408 130.744 13.9791 131.012 14.2383C132.292 15.4804 132.601 17.1187 131.877 18.7629C131.456 19.7132 130.776 20.3536 129.811 20.7646C129.304 20.9821 128.83 21.0566 128.306 21.0178C126.979 20.9195 125.651 21.1787 124.324 21.0178C124.153 20.997 123.971 21.0238 123.785 20.8481V6.83316C123.882 6.70805 124 6.64252 124.135 6.64252C125.722 6.65146 127.318 6.48167 128.869 7.01784C130.005 7.41103 130.741 8.16763 131.147 9.29656C131.718 10.8842 131.35 12.2366 130.12 13.4281V13.434ZM125.598 19.3021C126.637 19.4034 127.632 19.4093 128.618 19.2783C129.578 19.1502 130.358 18.3221 130.461 17.4076C130.596 16.1953 130.093 15.1825 129.122 14.7863C127.988 14.3246 126.814 14.5838 125.666 14.5361C125.607 14.7208 125.554 14.8042 125.56 14.8846C125.675 16.3323 125.698 17.7829 125.595 19.3021H125.598ZM125.592 12.5344C126.154 12.7519 128.233 12.7995 128.645 12.6327C128.745 12.591 128.845 12.5434 128.934 12.4808C130.046 11.6676 129.978 9.69571 128.824 8.94507C127.894 8.34039 126.873 8.4655 125.857 8.51912C125.752 8.52507 125.654 8.59358 125.545 8.76933C125.61 9.9638 125.748 11.2357 125.595 12.5315L125.592 12.5344Z" fill="black"/>
<path d="M34.249 6.77659C34.4168 6.69617 34.458 6.6634 34.4963 6.66042C36.6304 6.6217 38.7587 6.53829 40.8693 7.05063C43.1035 7.58978 43.8953 9.36212 44.0896 10.9915C44.2721 12.5166 43.8629 13.8272 42.6531 14.834C42.188 15.2213 41.7141 15.5519 41.09 15.5877C40.9134 15.5966 40.7427 15.6353 40.5572 15.8825C41.4109 17.6281 42.5942 19.2247 43.6716 20.8898C43.3243 21.0536 42.2175 21.0685 41.5463 20.9285C40.3571 18.9477 39.162 16.9519 37.9757 14.977C38.0905 14.694 38.3113 14.7566 38.4938 14.7387C39.0354 14.6821 39.577 14.6404 40.1186 14.5808C40.675 14.5183 41.1136 14.2025 41.4286 13.7796C42.7532 12.0072 42.3705 10.2677 40.7221 8.99574C40.4572 8.79021 40.1128 8.75149 39.7978 8.68C38.6586 8.42383 37.5135 8.58766 36.2713 8.56681V20.8213C35.6561 21.0685 34.7995 21.0745 34.2461 20.8868V6.77659H34.249Z" fill="black"/>
<path d="M68.3658 12.7251C68.3923 10.7383 68.4159 8.74848 68.2893 6.73784C68.984 6.55316 69.5786 6.66638 70.235 6.65446V20.8511C69.7199 21.0774 68.9163 21.0804 68.3364 20.86C68.3658 18.8344 68.4747 16.8 68.2716 14.7119H61.8074C61.5101 16.7642 61.6955 18.8225 61.6926 20.9315C61.0715 21.0715 60.4563 21.0238 59.791 21.0089V6.73188C60.3974 6.55018 60.9832 6.68425 61.5219 6.61276C61.775 6.79446 61.7485 7.02082 61.7279 7.23826C61.5778 8.86763 61.672 10.5 61.6661 12.1323C61.6661 12.8383 61.828 12.9812 62.5286 12.9842C64.1211 12.9932 65.7136 12.9842 67.3032 12.9842C67.6329 12.9842 67.9537 12.9336 68.3658 12.7281V12.7251Z" fill="black"/>
<path d="M96.0532 6.69022C96.5654 6.58894 97.107 6.64554 97.6104 6.63958C97.9342 6.8332 98.0254 7.14298 98.1255 7.42894C99.5826 11.5634 101.446 15.537 102.947 19.6536C103.094 20.0617 103.409 20.3983 103.462 20.9285C102.762 21.0864 102.082 21.0209 101.381 20.9851C100.81 20.0111 100.522 18.9447 100.107 17.8723H93.5688C93.2891 18.3072 93.1714 18.8285 92.9742 19.3111C92.8653 19.5762 92.7946 19.8562 92.6828 20.1183C92.4237 20.7349 92.044 21.1668 91.2875 21.0238C90.9519 20.9613 90.5898 21.0923 90.1807 20.8719C92.2294 16.2132 93.9426 11.4175 96.0532 6.69022ZM96.7862 9.40681C95.7147 11.4979 95.0259 13.72 94.2105 15.9392C94.3959 15.9838 94.4784 16.0255 94.5578 16.0166C95.9237 15.8617 97.2925 15.8855 98.6583 16.0047C98.9115 16.0255 99.1793 16.0166 99.4472 15.7217C98.52 13.6783 97.8783 11.486 96.7862 9.40681Z" fill="black"/>
<path d="M52.4943 6.61873C54.5078 11.4175 56.3741 16.1804 58.2874 20.9911C57.6251 20.9911 57.0275 21.006 56.43 20.9821C56.1827 20.9732 56.0944 20.726 55.9914 20.5323C55.5616 19.7132 55.2466 18.8434 54.9111 17.8485C52.7328 17.783 50.5251 17.8187 48.2967 17.8128C48.0995 18.4175 47.9288 18.9596 47.7404 19.4957C47.6315 19.8085 47.502 20.1094 47.3783 20.4162C47.187 20.8957 46.9073 21.1817 46.3274 21.0417C45.9359 20.9464 45.5062 21.0804 45.0293 20.9315C46.8308 16.106 48.9473 11.4502 50.7782 6.61873H52.4914H52.4943ZM51.5494 9.38894C50.6075 11.5515 49.7067 13.6783 48.9885 16.0315C50.8047 15.8289 52.4767 15.9481 54.2635 15.9749C53.3951 13.6664 52.6739 11.4621 51.5494 9.38894Z" fill="black"/>
<path d="M79.8665 6.66341C80.049 7.16681 79.9989 7.65234 79.9548 8.12894C79.9165 8.53702 79.5839 8.55787 79.263 8.55787C78.1503 8.55787 77.0373 8.54894 75.9246 8.55787C75.4066 8.56383 74.8797 8.50426 74.3763 8.62043C74.1644 9.11192 74.1205 12.2396 74.3324 12.9515H79.8665C80.0431 13.5979 80.0284 14.1668 79.8723 14.8072H74.253V19.2009H79.8694C79.9871 19.8889 80.0752 20.4549 79.822 21.0596C77.2934 20.9851 74.8031 21.0149 72.248 21.0596V6.66341H79.8665Z" fill="black"/>
<path d="M140.759 6.68124C140.953 7.27997 140.824 7.7655 140.885 8.21827C140.553 8.54592 140.17 8.51614 139.808 8.5221C138.651 8.53699 137.497 8.53103 136.341 8.53997C136.061 8.53997 135.772 8.50422 135.378 8.70678C135.328 10.077 135.354 11.5127 135.366 12.8621C135.681 13.1868 135.978 13.1272 136.255 13.1302C137.497 13.1391 138.743 13.1332 139.985 13.1391C140.288 13.1391 140.6 13.1242 140.883 13.3566C141.08 13.7527 140.944 14.14 140.797 14.5272C140.456 14.7685 140.082 14.7536 139.714 14.7536C138.581 14.7595 137.447 14.7536 136.311 14.7595C136.031 14.7595 135.743 14.7149 135.419 14.9234V19.3378H140.815C140.903 19.9336 141.086 20.3953 140.847 20.854C140.226 21.1042 134.136 21.1817 133.521 20.9344V6.68124H140.762H140.759Z" fill="black"/>
<path d="M87.5554 6.57104C88.1824 6.68125 88.8712 6.59784 89.4982 6.66338C89.719 6.91657 89.666 7.14593 89.666 7.3604C89.6719 9.82976 89.6807 12.3021 89.6719 14.7715C89.6689 15.9421 89.5041 17.0978 89.2774 18.2447C88.9625 19.8293 88.0911 20.854 86.4751 21.1638C86.2219 21.2115 85.9806 21.3336 85.7421 21.4378C85.4478 21.5659 85.1181 21.6315 84.8532 21.4825C84.3851 21.2204 83.867 21.1489 83.3754 20.9791C82.7308 20.7587 82.2215 20.3417 81.8477 19.7847C81.3944 19.1115 81.1442 18.331 80.8057 17.6578C80.9146 17.3838 81.0941 17.363 81.2678 17.36C81.5504 17.354 81.8389 17.3868 82.1185 17.354C82.7867 17.2766 83.2165 17.4761 83.452 18.1821C83.6345 18.7272 84.0996 19.1234 84.5823 19.4361C85.5861 20.0855 87.2169 19.2336 87.3729 17.9825C87.4112 17.6787 87.4053 17.3659 87.4053 17.0561C87.3965 13.8123 87.3817 10.5715 87.3729 7.32763C87.3729 7.09231 87.3081 6.83912 87.5525 6.56508L87.5554 6.57104Z" fill="black"/>
<path d="M13.6768 19.0668C14.1242 17.8664 15.0249 16.8744 15.5165 15.6889C15.6608 15.531 15.8403 15.531 16.014 15.531C17.6477 15.5459 19.2785 15.5191 20.9093 15.4208C21.8454 15.3642 22.7756 15.5519 23.7146 15.54C24.3327 15.534 25.0833 16.3889 25.1334 17.0591C25.2276 18.337 24.3504 19.2395 22.9492 19.2544C21.1418 19.2753 19.3315 19.2604 17.5241 19.2604C16.4997 19.2604 15.4754 19.2634 14.451 19.2604C14.2184 19.2604 13.9682 19.3289 13.6768 19.0668Z" fill="#02ACF2"/>
<path d="M12.4959 11.477C12.9816 12.7519 13.8647 13.8451 14.5417 15.1438C13.903 15.9362 13.4614 16.8953 12.9227 17.7919C12.1191 19.1323 11.3361 20.4817 10.5325 21.8192C9.98796 22.7277 8.46319 22.8528 7.75966 22.0575C7.57127 21.843 7.40934 21.6077 7.22389 21.3902C7.03255 21.1668 6.99137 20.9196 7.10029 20.6515C7.24747 20.2851 7.35927 19.8919 7.56532 19.5613C8.97827 17.2587 10.3323 14.9204 11.6717 12.5762C11.813 12.3289 11.9337 12.0668 12.0573 11.8106C12.1339 11.6528 12.181 11.4711 12.4959 11.477Z" fill="#02ACF2"/>
<path d="M15.2832 13.9791C14.6562 12.9157 14.1029 11.8702 13.4259 10.8991C12.8725 10.1038 12.5074 9.20125 12.06 8.34635C11.9275 8.09018 11.7833 7.85784 11.589 7.64338C11.1328 7.14295 11.1386 6.13614 11.6214 5.65657C11.9658 5.31104 12.2278 4.87018 12.8018 4.78678C13.6466 4.66167 14.2354 4.9655 14.6622 5.67444C15.2627 6.67231 15.8455 7.67912 16.4666 8.6621C17.0288 9.54976 17.3585 10.5655 18.0326 11.3966C18.2622 11.6795 18.3564 12.0936 18.5654 12.4332C18.8834 12.9544 19.1336 13.5174 19.6605 13.9076C19.1453 14.1489 16.0133 14.1817 15.2862 13.9791H15.2832Z" fill="#02ACF2"/>
</g>
<defs>
<clipPath id="clip0_20_426">
<rect width="141" height="28" fill="white"/>
</clipPath>
</defs>
</svg>
