<svg width="141" height="39" viewBox="0 0 141 39" fill="none" xmlns="http://www.w3.org/2000/svg">
<g clip-path="url(#clip0_20_275)">
<path d="M27.8898 14.3949C25.71 14.3949 23.5303 14.3949 21.3505 14.3949C20.9499 14.3949 20.9223 14.4339 20.9733 14.8239C21.1265 15.9783 21.7864 16.8207 22.6976 17.4876C24.1704 18.5679 25.8239 18.9852 27.6502 18.8214C28.8364 18.7161 29.9754 18.4782 31.0358 17.9166C31.5896 17.6241 32.0766 17.2419 32.5283 16.8168C32.7011 16.653 32.7875 16.6764 32.9014 16.8675C33.3924 17.6787 33.8873 18.4899 34.3939 19.2933C34.5039 19.4688 34.4881 19.578 34.331 19.7106C33.3727 20.5335 32.2848 21.138 31.1065 21.5865C29.5394 22.1871 27.9056 22.4601 26.2285 22.3938C23.652 22.2924 21.3543 21.4929 19.5162 19.6287C18.118 18.2052 17.3168 16.4736 16.9948 14.5314C16.5863 12.0666 16.8219 9.66425 17.8745 7.37885C19.0607 4.80875 21.0873 3.24484 23.8759 2.68324C25.6393 2.32834 27.4028 2.39074 29.1348 2.86264C31.9823 3.63484 33.7812 5.47565 34.5864 8.27195C35.0695 9.94895 35.1284 11.661 34.9438 13.3848C34.9202 13.6149 34.8809 13.8411 34.877 14.0712C34.8731 14.3247 34.7553 14.3988 34.5118 14.3988C33.632 14.391 32.7482 14.3988 31.8684 14.3988C30.5409 14.3988 29.2174 14.3988 27.8898 14.3988V14.3949ZM26.0164 11.1189C27.5914 11.1189 29.1702 11.1189 30.7452 11.1189C31.1301 11.1189 31.1576 11.0877 31.1104 10.7055C31.0594 10.3038 31.0122 9.90215 30.8983 9.51215C30.431 7.89755 29.4648 6.74315 27.7995 6.26345C26.8844 6.00215 25.9535 5.99435 25.0188 6.16595C24.0447 6.34925 23.2004 6.77045 22.517 7.49975C21.645 8.43185 21.2483 9.57455 21.0048 10.7913C20.9498 11.0682 21.0323 11.1189 21.2876 11.1189C22.8625 11.1111 24.4414 11.115 26.0164 11.115V11.1189Z" fill="#29559B"/>
<path d="M133.797 14.3949C131.625 14.3949 129.457 14.3949 127.285 14.3949C126.892 14.3949 126.865 14.4144 126.896 14.7966C126.963 15.5727 127.316 16.224 127.839 16.7817C128.93 17.9478 130.301 18.603 131.88 18.7941C133.404 18.9774 134.896 18.7746 136.33 18.213C137.116 17.9049 137.795 17.4291 138.404 16.848C138.647 16.6179 138.659 16.6179 138.828 16.887C139.319 17.6787 139.798 18.4782 140.297 19.2621C140.43 19.4688 140.403 19.5936 140.218 19.7457C138.584 21.0912 136.703 21.8868 134.622 22.23C132.811 22.5303 131.012 22.4679 129.256 21.9141C126.122 20.9274 124.092 18.8253 123.204 15.7053C122.367 12.7686 122.576 9.86313 123.931 7.10193C125.184 4.55133 127.297 3.09662 130.097 2.62082C131.915 2.31272 133.722 2.41412 135.482 2.97962C138.078 3.81422 139.704 5.58483 140.478 8.15493C140.968 9.78123 141.016 11.4504 140.878 13.1313C140.855 13.4355 140.815 13.7358 140.796 14.0361C140.78 14.2974 140.666 14.3949 140.391 14.391C139.425 14.3754 138.463 14.3832 137.497 14.3832C136.263 14.3832 135.03 14.3832 133.797 14.3832V14.3949ZM131.959 11.1189C133.553 11.1189 135.148 11.1189 136.746 11.1189C136.958 11.1189 137.037 11.0721 137.025 10.8381C137.006 10.3272 136.919 9.83193 136.766 9.34833C136.271 7.77273 135.274 6.67293 133.628 6.24003C132.595 5.97093 131.554 5.98653 130.521 6.25953C129.331 6.57153 128.436 7.27743 127.807 8.31873C127.359 9.06363 127.092 9.87093 126.939 10.7211C126.868 11.115 126.872 11.115 127.281 11.115C128.84 11.115 130.399 11.115 131.955 11.115L131.959 11.1189Z" fill="#29559B"/>
<path d="M90.3265 8.54885V8.96225C90.3265 13.2406 90.3265 17.5228 90.3265 21.8011C90.3265 22.0897 90.1847 22.234 89.9019 22.234C88.8925 22.234 87.8792 22.2262 86.8698 22.2379C86.6106 22.2379 86.5128 22.1599 86.5167 21.8908C86.5246 15.955 86.5167 10.0192 86.5246 4.08335C86.5246 3.11615 87.2586 2.36345 88.3269 2.25035C89.1753 2.16065 89.8905 2.40245 90.4443 3.09275C93.6099 7.04735 96.7834 10.9981 99.9569 14.9527C100.13 15.1672 100.303 15.3817 100.491 15.6118C100.581 15.4987 100.546 15.3856 100.546 15.2881C100.546 11.2555 100.546 7.22675 100.546 3.19415C100.546 2.88995 100.698 2.73785 101.001 2.73785C102.003 2.73785 103.005 2.74565 104.006 2.73395C104.269 2.73395 104.36 2.80805 104.36 3.07715C104.352 8.95055 104.359 14.8201 104.351 20.6935C104.351 21.7855 103.452 22.5343 102.251 22.4836C101.618 22.4563 101.139 22.1365 100.762 21.6685C99.3913 19.9642 98.0359 18.2482 96.677 16.5322C94.6228 13.9426 92.573 11.353 90.5228 8.76335C90.4796 8.70875 90.4247 8.66195 90.3225 8.55275L90.3265 8.54885Z" fill="#29559B"/>
<path d="M0.443481 12.4605C0.443481 9.34834 0.443481 6.24004 0.443481 3.12783C0.443481 2.73783 0.447487 2.73393 0.820607 2.73393C3.83699 2.73393 6.84947 2.72613 9.86585 2.73783C10.7221 2.73783 11.5664 2.84703 12.3912 3.09663C13.923 3.56463 14.9756 4.52794 15.4312 6.06064C15.9614 7.85464 15.9614 9.66034 15.2937 11.427C14.8067 12.7179 13.8798 13.5915 12.5404 14.001C12.2891 14.079 12.2734 14.1609 12.3912 14.3832C13.7345 16.8441 15.0659 19.3089 16.4013 21.7737C16.6526 22.2378 16.6566 22.2378 16.1342 22.2378C15.0227 22.2378 13.9073 22.23 12.7958 22.2456C12.513 22.2495 12.3676 22.1481 12.242 21.8985C11.0283 19.4961 9.79904 17.1015 8.58542 14.703C8.46759 14.469 8.32227 14.391 8.06698 14.3949C6.90834 14.4066 5.74967 14.3988 4.58711 14.3988C4.19828 14.3988 4.19828 14.3988 4.19828 14.781C4.19828 17.1288 4.19828 19.4727 4.19828 21.8205C4.19828 22.2378 4.19824 22.2378 3.78585 22.2378C2.79218 22.2378 1.80249 22.23 0.808813 22.2417C0.529955 22.2417 0.439554 22.1598 0.443481 21.879C0.451336 18.7395 0.447413 15.6039 0.447413 12.4644L0.443481 12.4605ZM4.19435 8.64634C4.19435 9.34444 4.19435 10.0425 4.19435 10.7406C4.19435 11.1111 4.19439 11.1111 4.55965 11.1111C5.88325 11.1111 7.21073 11.1228 8.53432 11.1072C9.04098 11.0994 9.5516 11.0799 10.0583 11.0097C11.0716 10.8654 11.6882 10.3623 11.8885 9.49654C11.9828 9.07924 12.0024 8.65804 11.9592 8.23684C11.8531 7.19944 11.425 6.67684 10.4942 6.42334C10.2153 6.34924 9.93258 6.29854 9.64586 6.28294C7.92166 6.19714 6.2013 6.24784 4.47709 6.22834C4.25715 6.22834 4.18649 6.31024 4.19042 6.52084C4.19828 7.22674 4.19042 7.93654 4.19042 8.64634H4.19435Z" fill="#29559B"/>
<path d="M83.0603 22.2339C82.4868 22.2339 81.9095 22.23 81.3361 22.2339C81.1436 22.2339 81.0336 22.1598 80.9472 21.9882C78.7871 17.5851 76.6269 13.1859 74.4628 8.78669C73.7598 7.35539 73.0567 5.92409 72.3537 4.49279C72.3105 4.40309 72.2594 4.31339 72.2123 4.22369C72.1416 4.09109 72.063 3.96629 71.8863 3.96629C71.7056 3.96629 71.6271 4.09499 71.5603 4.22759C71.309 4.71899 71.0615 5.21429 70.8141 5.70959C69.8008 7.76879 68.7914 9.82799 67.782 11.8872C66.1481 15.2139 64.5142 18.5367 62.8922 21.8673C62.7586 22.1403 62.6015 22.2378 62.2991 22.2339C61.2033 22.2144 60.1114 22.23 59.0156 22.2261C58.67 22.2261 58.6543 22.1949 58.8075 21.8829C60.2293 18.9969 61.655 16.1148 63.0768 13.2288C64.7106 9.91379 66.3445 6.59879 67.9744 3.2838C68.2769 2.6715 68.6146 2.0826 69.0585 1.5561C70.5509 -0.210596 73.2256 -0.210596 74.7063 1.5561C75.0716 1.989 75.3779 2.457 75.6293 2.964C77.9073 7.58549 80.1892 12.2031 82.4672 16.8246C83.2998 18.5094 84.1286 20.1981 84.9612 21.8829C85.1183 22.2027 85.1026 22.23 84.7334 22.23C84.1757 22.23 83.6219 22.23 83.0642 22.23L83.0603 22.2339Z" fill="#29559B"/>
<path d="M117.878 22.2339C116.653 22.2339 115.427 22.2495 114.206 22.23C113.334 22.2144 112.462 22.1754 111.618 21.9336C109.827 21.4149 108.538 20.2878 107.639 18.6927C106.94 17.4486 106.63 16.0914 106.492 14.6874C106.292 12.6321 106.374 10.5885 106.838 8.57221C107.12 7.34761 107.588 6.20491 108.389 5.21041C109.465 3.87662 110.907 3.19022 112.568 2.89772C113.173 2.79242 113.778 2.73392 114.394 2.73392C116.833 2.73392 119.276 2.73392 121.715 2.73392C122.104 2.73392 122.108 2.73782 122.108 3.11612C122.108 3.98971 122.108 4.86331 122.108 5.74081C122.108 6.11521 122.104 6.12301 121.715 6.12301C119.284 6.12301 116.853 6.11521 114.422 6.13081C113.409 6.13861 112.501 6.44281 111.802 7.21111C111.339 7.72201 111.068 8.33821 110.879 8.98561C110.62 9.86311 110.522 10.7679 110.475 11.6805C110.412 12.8856 110.416 14.0868 110.589 15.288C110.655 15.7521 110.765 16.2084 110.934 16.6491C111.441 17.9946 112.466 18.6186 113.86 18.7551C114.445 18.8136 115.027 18.8058 115.612 18.8058C117.654 18.8058 119.693 18.8058 121.735 18.8058C122.104 18.8058 122.112 18.8136 122.112 19.1724C122.112 20.0733 122.112 20.9781 122.112 21.879C122.112 22.2261 122.096 22.2417 121.755 22.2417C120.466 22.2417 119.174 22.2417 117.886 22.2417L117.878 22.2339Z" fill="#29559B"/>
<path d="M37.0801 11.1306C37.0801 8.46299 37.0801 5.79149 37.0801 3.12389C37.0801 2.74169 37.0879 2.73779 37.4649 2.73779C38.4586 2.73779 39.4523 2.73779 40.442 2.73779C40.8191 2.73779 40.8269 2.74559 40.8269 3.12779C40.8269 8.17049 40.8269 13.2171 40.8269 18.2598C40.8269 18.3534 40.8348 18.4431 40.8269 18.5367C40.8073 18.7473 40.9094 18.8214 41.1058 18.8019C41.1882 18.7941 41.2707 18.8019 41.3571 18.8019C44.6681 18.8019 47.983 18.8019 51.2939 18.8019C51.3764 18.8019 51.4628 18.8019 51.5453 18.8019C51.7613 18.7902 51.7809 18.876 51.6827 19.0476C51.2507 19.7886 50.8265 20.5335 50.3984 21.2784C50.257 21.528 50.1078 21.7698 49.9742 22.0233C49.8918 22.1793 49.7779 22.2456 49.5972 22.2456C46.4983 22.2456 43.3995 22.2651 40.3006 22.2339C38.4823 22.2183 37.0879 20.7558 37.084 18.9501C37.084 16.3449 37.084 13.7397 37.084 11.1345L37.0801 11.1306Z" fill="#29559B"/>
<path d="M53.6662 12.4566C53.6662 9.34831 53.6662 6.23611 53.6662 3.12781C53.6662 2.73391 53.6662 2.73391 54.0707 2.73391C55.1194 2.73391 56.168 2.74171 57.2167 2.73001C57.4838 2.73001 57.5937 2.79631 57.5937 3.08491C57.5859 9.35221 57.5898 15.6156 57.5898 21.8829C57.5898 22.2222 57.5741 22.2378 57.2245 22.2378C56.1562 22.2378 55.0919 22.23 54.0236 22.2417C53.7369 22.2417 53.6622 22.1442 53.6662 21.8712C53.674 18.7356 53.6701 15.5961 53.6701 12.4605L53.6662 12.4566Z" fill="#29559B"/>
<path d="M71.8868 22.2339C70.0409 22.2339 68.1949 22.2339 66.3489 22.2339C65.9405 22.2339 65.9287 22.2183 66.1015 21.8595C66.9931 19.9992 67.8886 18.1389 68.788 16.2825C69.7738 14.2428 70.7596 12.2031 71.7454 10.1595C71.7769 10.0932 71.7847 9.9918 71.8633 9.984C71.9654 9.9762 71.9772 10.0893 72.0125 10.1595C73.4225 13.0689 74.8286 15.9822 76.2347 18.8916C76.7177 19.8939 77.2048 20.9001 77.6879 21.9024C77.8293 22.1949 77.8096 22.23 77.4797 22.23C75.6141 22.23 73.7524 22.23 71.8868 22.23V22.2339Z" fill="#D72729"/>
<path d="M7.08182 35.5095C7.08182 36.2739 7.08182 37.0383 7.08182 37.7988C7.08182 37.9704 7.05433 38.1108 6.86973 38.1732C5.18873 38.7426 3.52343 38.8869 1.95633 37.8612C0.927305 37.1865 0.420656 36.1569 0.196785 34.9908C-0.0742178 33.5751 0.0043374 32.1789 0.691662 30.8763C1.4379 29.4684 2.65547 28.7625 4.24222 28.6806C5.05523 28.6377 5.85646 28.7079 6.61841 29.016C6.9444 29.1486 6.95618 29.172 6.81479 29.5035C6.72445 29.7141 6.63011 29.9247 6.54763 30.1392C6.47694 30.3303 6.38664 30.3615 6.19026 30.2835C5.46366 29.991 4.70564 29.8857 3.92798 30.0573C2.72222 30.3264 2.06633 31.1376 1.78747 32.2764C1.5204 33.3723 1.53216 34.476 1.96026 35.5329C2.6358 37.1943 3.9515 37.4907 5.37329 37.167C5.51075 37.1358 5.57756 37.0578 5.57756 36.9135C5.57756 36.0399 5.57756 35.1663 5.57756 34.2927C5.57756 34.1094 5.48726 34.0548 5.31838 34.0587C4.91777 34.0626 4.52104 34.0509 4.12043 34.0587C3.90441 34.0626 3.81801 33.9846 3.82979 33.7701C3.84157 33.5517 3.83765 33.3294 3.82979 33.1071C3.82979 32.9511 3.88481 32.8692 4.0537 32.8692C4.98061 32.8692 5.90744 32.8692 6.83434 32.8692C7.07393 32.8692 7.07004 33.0252 7.07004 33.1851C7.07004 33.9573 7.07004 34.7295 7.07004 35.5056L7.08182 35.5095Z" fill="#D72729"/>
<path d="M38.1053 35.5758C38.1053 36.3207 38.1053 37.0656 38.1053 37.8105C38.1053 37.9821 38.0778 38.1186 37.8932 38.181C36.5185 38.649 35.1243 38.8011 33.7261 38.3058C32.4457 37.8495 31.9389 36.3441 32.6577 35.2092C32.9405 34.7607 33.3765 34.4994 33.8596 34.3161C34.6294 34.0275 35.4385 33.9222 36.2554 33.8754C36.6207 33.8559 36.6482 33.8364 36.6443 33.4698C36.6443 32.6859 36.2554 32.2881 35.466 32.2413C34.7787 32.1984 34.1149 32.2998 33.4747 32.5494C33.2154 32.6508 33.0977 32.5962 33.0348 32.3427C33.0152 32.2647 32.9758 32.1867 32.9483 32.1087C32.7755 31.6056 32.6538 31.6446 33.2547 31.4496C34.2366 31.1337 35.2421 30.9972 36.2672 31.2039C37.4337 31.4379 38.066 32.1867 38.0896 33.3684C38.1053 34.1055 38.0896 34.8387 38.0896 35.5758H38.1053ZM36.6482 36.1179C36.6482 35.7864 36.6482 35.4549 36.6482 35.1234C36.6482 34.9908 36.6168 34.8816 36.4518 34.8855C35.7763 34.9128 35.0968 34.944 34.4723 35.2404C33.9853 35.4744 33.7339 35.8917 33.781 36.3675C33.8321 36.8823 34.1306 37.2411 34.6569 37.3854C35.2499 37.5492 35.8509 37.4985 36.4479 37.3854C36.6011 37.3581 36.656 37.2567 36.656 37.1085C36.6521 36.777 36.656 36.4455 36.656 36.114L36.6482 36.1179Z" fill="#D72729"/>
<path d="M76.0063 35.6382C76.0063 36.3558 75.9985 37.0734 76.0063 37.791C76.0063 38.0055 75.9396 38.1342 75.7275 38.2044C74.4117 38.6412 73.0842 38.766 71.741 38.3604C70.8809 38.0991 70.3153 37.4166 70.2564 36.6132C70.1778 35.5719 70.547 34.8933 71.4543 34.4526C72.2869 34.047 73.1903 33.9417 74.0975 33.8793C74.5414 33.8481 74.5492 33.852 74.5453 33.4191C74.5374 32.6859 74.1368 32.292 73.3631 32.2413C72.6679 32.1984 71.9924 32.3037 71.3482 32.5572C71.0969 32.6586 70.9987 32.5923 70.9319 32.3583C70.8809 32.1828 70.8102 32.0112 70.7395 31.8435C70.6727 31.6914 70.7041 31.6017 70.8651 31.5471C71.9963 31.1532 73.1471 30.9582 74.3332 31.2429C75.4329 31.5081 75.9788 32.2569 76.0024 33.5127C76.0181 34.2225 76.0024 34.9284 76.0024 35.6382H76.0063ZM74.5492 36.1374C74.5492 35.7981 74.5492 35.4549 74.5492 35.1156C74.5492 34.9752 74.506 34.8816 74.345 34.8894C73.6969 34.9167 73.0449 34.9518 72.4362 35.2053C71.8824 35.4354 71.6349 35.841 71.6782 36.4221C71.7096 36.894 72.0395 37.2684 72.5933 37.4049C73.1785 37.5531 73.7716 37.5063 74.3568 37.3854C74.5178 37.3542 74.5571 37.2528 74.5531 37.1046C74.5492 36.7809 74.5531 36.4611 74.5531 36.1374H74.5492Z" fill="#D72729"/>
<path d="M92.5101 38.5905C92.0545 38.61 91.6225 38.5554 91.2022 38.4306C90.2086 38.142 89.5055 37.518 89.1599 36.5547C88.6847 35.2326 88.72 33.9144 89.3916 32.6547C90.3303 30.8958 93.0207 30.5565 94.3718 32.0229C94.8353 32.526 95.0473 33.1383 95.1023 33.8052C95.1259 34.0782 95.173 34.3512 95.1298 34.6281C95.1023 34.7958 95.0277 34.866 94.8667 34.8855C93.4999 35.0688 92.1331 35.2599 90.7663 35.4471C90.3539 35.5017 90.3185 35.5407 90.4324 35.9346C90.7388 37.0266 91.6304 37.4478 92.7261 37.3893C93.2839 37.362 93.8298 37.2645 94.3443 37.0344C94.4778 36.9759 94.5525 37.0149 94.6035 37.1436C94.6978 37.3854 94.7842 37.6272 94.8863 37.8612C94.957 38.025 94.906 38.1147 94.7489 38.181C94.3168 38.3604 93.8651 38.4618 93.4056 38.5242C93.1032 38.5671 92.8008 38.61 92.5101 38.5866V38.5905ZM92.1017 32.2257C91.9563 32.2413 91.8071 32.2452 91.6618 32.2803C90.8448 32.4714 90.1771 33.4425 90.2596 34.3005C90.2753 34.4721 90.3696 34.4877 90.5031 34.4682C90.7427 34.4331 90.9784 34.4019 91.218 34.3707C91.9681 34.2654 92.7183 34.1601 93.4685 34.0548C93.5666 34.0392 93.6845 34.0392 93.6727 33.891C93.6138 33.0018 93.1778 32.2179 92.0977 32.2257H92.1017Z" fill="#D72729"/>
<path d="M11.5513 38.5944C11.1114 38.61 10.6833 38.5515 10.2592 38.4306C9.24977 38.142 8.55451 37.5024 8.20496 36.5313C7.76114 35.3028 7.78471 34.0743 8.33064 32.877C8.90014 31.629 10.2238 30.9543 11.5945 31.1259C13.3776 31.3482 14.1553 32.682 14.171 34.0743C14.171 34.2381 14.1631 34.4058 14.171 34.5696C14.1867 34.7841 14.0768 34.8582 13.8804 34.8855C12.5136 35.0688 11.1467 35.2599 9.77992 35.4471C9.38323 35.5017 9.37938 35.5095 9.47364 35.8917C9.7525 36.9915 10.644 37.4205 11.6809 37.3854C12.2661 37.3659 12.8435 37.2801 13.3855 37.0305C13.5308 36.9642 13.6093 37.0149 13.6604 37.1553C13.7429 37.3815 13.8253 37.6077 13.9235 37.8222C14.0138 38.0211 13.955 38.1225 13.7586 38.1966C13.0477 38.4696 12.3093 38.5749 11.5552 38.5905L11.5513 38.5944ZM12.706 33.8013C12.6628 32.9667 12.2346 32.409 11.5394 32.2608C10.3415 32.0112 9.17114 33.0876 9.32039 34.3044C9.34003 34.4565 9.41862 34.4838 9.54823 34.4682C10.5301 34.3317 11.5081 34.1913 12.49 34.0626C12.6785 34.0392 12.761 33.9651 12.71 33.7974L12.706 33.8013Z" fill="#D72729"/>
<path d="M25.0656 38.5983C24.8221 38.61 24.4253 38.5632 24.0404 38.4579C22.6226 38.0679 21.8959 37.089 21.6681 35.6967C21.5228 34.7997 21.5936 33.9183 21.9314 33.0642C22.9093 30.6072 25.965 30.7242 27.0725 31.9683C27.5949 32.5533 27.8345 33.2436 27.858 34.0119C27.8855 34.8465 27.8737 34.8426 27.0568 34.9518C25.8432 35.1156 24.6335 35.2872 23.4238 35.4549C23.0821 35.5017 23.0625 35.529 23.1489 35.8566C23.4513 37.0149 24.3075 37.401 25.3326 37.3854C25.9257 37.3776 26.5148 37.2879 27.0646 37.0344C27.2257 36.9603 27.3003 37.0227 27.3553 37.1709C27.4378 37.3971 27.5203 37.6194 27.6185 37.8378C27.7049 38.0289 27.6381 38.1225 27.4535 38.1927C26.7347 38.4657 25.9886 38.5827 25.0656 38.5944V38.5983ZM24.8495 32.2257C24.7042 32.2413 24.551 32.2452 24.4096 32.2803C23.5809 32.4714 22.9211 33.4347 23.0075 34.3005C23.0232 34.4721 23.1135 34.4916 23.251 34.4721C23.4788 34.437 23.7105 34.4097 23.9383 34.3785C24.661 34.281 25.3876 34.1796 26.1103 34.0821C26.2988 34.0587 26.4009 33.9924 26.3931 33.7662C26.3616 32.8458 25.7568 32.2413 24.8417 32.2296L24.8495 32.2257Z" fill="#D72729"/>
<path d="M77.0586 35.0142C77.0586 33.9846 77.0625 32.955 77.0547 31.9215C77.0547 31.6992 77.1332 31.5822 77.3414 31.5159C78.5236 31.1376 79.7254 30.9777 80.9587 31.2234C82.2077 31.4691 82.864 32.2686 82.8679 33.5322C82.8679 35.0493 82.8679 36.5703 82.8679 38.0874C82.8679 38.4618 82.864 38.4657 82.4751 38.4657C82.2159 38.4657 81.9567 38.454 81.6975 38.4657C81.4304 38.4813 81.344 38.3721 81.344 38.1108C81.3519 36.6678 81.3479 35.2209 81.344 33.7779C81.344 33.6219 81.344 33.462 81.3204 33.3099C81.2183 32.7717 80.7937 32.4051 80.2085 32.3544C79.7647 32.3154 79.3213 32.3466 78.8814 32.4402C78.6457 32.4909 78.5711 32.6001 78.5711 32.838C78.579 34.5579 78.5751 36.2778 78.5751 38.0016C78.5751 38.311 78.414 38.467 78.092 38.4696C77.8681 38.4696 77.6478 38.4696 77.4239 38.4696C77.0822 38.4696 77.0586 38.4423 77.0547 38.1108C77.0547 37.0812 77.0547 36.0516 77.0547 35.0181L77.0586 35.0142Z" fill="#D72729"/>
<path d="M14.9844 35.0142C14.9844 34.0002 14.9923 32.9901 14.9805 31.98C14.9805 31.7148 15.063 31.5783 15.3183 31.5003C16.4887 31.1376 17.6709 30.9894 18.8846 31.2273C20.1335 31.473 20.7933 32.2725 20.7972 33.5361C20.8012 35.0649 20.7933 36.5898 20.8051 38.1186C20.8051 38.4072 20.703 38.493 20.432 38.4735C20.165 38.4579 19.8939 38.4579 19.6268 38.4735C19.3637 38.4891 19.2695 38.3838 19.2734 38.1186C19.2812 36.6756 19.2773 35.2287 19.2734 33.7857C19.2734 33.6297 19.2734 33.4698 19.2459 33.3177C19.1398 32.7795 18.7156 32.409 18.1344 32.3583C17.6905 32.3232 17.2468 32.3427 16.8069 32.4402C16.5712 32.4948 16.4966 32.6001 16.4966 32.838C16.5044 34.5579 16.5005 36.2778 16.5005 37.9977C16.5005 38.3097 16.3395 38.4657 16.0174 38.4657C15.7936 38.4657 15.5736 38.4657 15.3497 38.4657C15.008 38.4657 14.9805 38.4384 14.9805 38.1069C14.9805 37.0773 14.9805 36.0477 14.9805 35.0142H14.9844Z" fill="#D72729"/>
<path d="M65.4967 34.7256C65.4967 35.7552 65.4928 36.7848 65.4967 37.8144C65.4967 38.0211 65.4221 38.1381 65.2257 38.2005C64.0985 38.5749 62.9438 38.7114 61.7734 38.5047C60.5166 38.2824 59.8293 37.5024 59.8018 36.2349C59.7703 34.671 59.7939 33.1071 59.79 31.5432C59.79 31.3443 59.8646 31.2624 60.0688 31.2663C60.3555 31.278 60.6423 31.2663 60.9329 31.2663C61.3021 31.2663 61.3099 31.2741 61.3099 31.6329C61.3099 32.4441 61.3099 33.2514 61.3099 34.0626C61.3099 34.7256 61.3099 35.3886 61.3099 36.0477C61.3178 36.8628 61.7223 37.284 62.5432 37.3425C62.9163 37.3698 63.2816 37.3113 63.6469 37.2567C63.9021 37.2177 63.9768 37.0968 63.9768 36.8472C63.9689 35.1468 63.9728 33.4425 63.9728 31.7421C63.9728 31.6485 63.9728 31.5588 63.9768 31.4652C63.9807 31.3287 64.0514 31.2663 64.1889 31.2663C64.5502 31.2663 64.9115 31.2663 65.2729 31.2663C65.5007 31.2663 65.4889 31.4184 65.4889 31.5705C65.4889 32.6196 65.4889 33.6687 65.4889 34.7178L65.4967 34.7256Z" fill="#D72729"/>
<path d="M47.4844 35.022C47.4844 33.9807 47.4844 32.9433 47.4844 31.902C47.4844 31.7499 47.4883 31.6134 47.6729 31.551C48.9612 31.1181 50.2769 30.9348 51.6084 31.2936C52.7277 31.5978 53.2737 32.3349 53.2855 33.54C53.3051 35.0766 53.2854 36.6132 53.2933 38.1498C53.2933 38.3916 53.1951 38.4774 52.9595 38.4696C52.6727 38.4579 52.3821 38.4579 52.0954 38.4696C51.844 38.4813 51.7576 38.3877 51.7615 38.1342C51.7733 36.7263 51.7655 35.3184 51.7655 33.9105C51.7655 33.7818 51.7655 33.6531 51.7498 33.5244C51.6437 32.7561 51.2078 32.37 50.4262 32.3466C50.0334 32.3349 49.6485 32.3661 49.2636 32.4441C49.028 32.4948 48.9533 32.6001 48.9533 32.838C48.9612 34.5774 48.9573 36.3168 48.9573 38.0562C48.9573 38.3292 48.817 38.4657 48.537 38.4657C48.3131 38.4657 48.0932 38.4657 47.8693 38.4657C47.4805 38.4657 47.4766 38.4579 47.4766 38.0835C47.4766 37.0617 47.4766 36.0399 47.4766 35.0181L47.4844 35.022Z" fill="#D72729"/>
<path d="M56.3453 38.5945C55.5088 38.5945 54.8411 38.458 54.1969 38.2045C54.0084 38.1304 53.9299 38.0368 54.0359 37.834C54.1498 37.6156 54.248 37.3816 54.3344 37.1515C54.4051 36.9682 54.4994 36.9565 54.6722 37.0306C55.2652 37.288 55.874 37.4557 56.5339 37.3543C57.0209 37.2802 57.3547 36.9916 57.4333 36.5782C57.504 36.1921 57.3037 35.8294 56.8716 35.5954C56.5064 35.3926 56.1018 35.2795 55.7169 35.1157C55.3752 34.9675 55.0374 34.8153 54.7586 34.5657C53.7099 33.6219 53.9652 31.9411 55.2692 31.3912C56.3964 30.9193 57.5197 31.0558 58.6155 31.5394C58.7647 31.6057 58.7686 31.6954 58.7058 31.828C58.5998 32.0425 58.5016 32.2609 58.4152 32.4832C58.3523 32.647 58.2698 32.647 58.1167 32.5807C57.5864 32.3545 57.0444 32.1712 56.4474 32.296C56.0233 32.3857 55.7405 32.6353 55.6894 32.9668C55.6187 33.4153 55.7719 33.7156 56.1922 33.9457C56.6006 34.1719 57.0484 34.3006 57.4725 34.48C57.6964 34.5736 57.9085 34.6789 58.1127 34.8076C58.7726 35.2249 59.0632 35.8332 59.0122 36.5859C58.9611 37.3893 58.5408 37.9627 57.7985 38.2942C57.2879 38.5204 56.7538 38.5984 56.3414 38.5906L56.3453 38.5945Z" fill="#D72729"/>
<path d="M85.2519 34.8309C85.2362 35.2287 85.2833 35.6187 85.4129 36.0009C85.8096 37.1787 86.8426 37.6389 87.9776 37.1202C88.2093 37.0149 88.3036 37.0461 88.3822 37.2723C88.4332 37.4283 88.5118 37.5765 88.5825 37.7286C88.7553 38.103 88.7435 38.1459 88.3704 38.3058C86.6619 39.0351 84.3878 38.493 83.8262 36.0945C83.563 34.9713 83.6102 33.8637 84.1207 32.8068C85.0044 30.9699 87.2117 30.7905 88.5353 31.5042C88.7042 31.5939 88.7278 31.6992 88.6453 31.863C88.5471 32.0619 88.4529 32.2608 88.3704 32.4636C88.2958 32.6469 88.2054 32.6937 88.013 32.5923C87.6438 32.3934 87.2432 32.3193 86.8308 32.3817C86.2102 32.4753 85.79 32.8341 85.5307 33.3879C85.3147 33.8481 85.2401 34.3356 85.2597 34.8387L85.2519 34.8309Z" fill="#D72729"/>
<path d="M40.7249 33.2202C40.7249 34.8465 40.7171 36.4767 40.7289 38.103C40.7289 38.3799 40.6464 38.4891 40.3675 38.4657C40.1279 38.4501 39.8844 38.4657 39.6449 38.4657C39.2129 38.4657 39.2051 38.4579 39.2051 38.0406C39.2051 36.6717 39.2051 35.2989 39.2051 33.93C39.2051 32.0892 39.2051 30.2523 39.2051 28.4115C39.2051 28.0176 39.2051 28.0176 39.6134 28.0176C39.853 28.0176 40.0965 28.0176 40.3361 28.0176C40.7249 28.0176 40.7249 28.0176 40.7249 28.3959C40.7249 30.0066 40.7249 31.6134 40.7249 33.2241V33.2202Z" fill="#D72729"/>
<path d="M46.2939 33.6375C46.2939 35.1273 46.2861 36.6171 46.3018 38.1108C46.3018 38.3955 46.2075 38.4891 45.9326 38.4696C45.6655 38.454 45.3945 38.4696 45.1275 38.4657C44.77 38.4657 44.7622 38.4579 44.7622 38.0874C44.7622 35.6577 44.7622 33.228 44.7622 30.7983C44.7622 30.2367 44.77 29.6751 44.7583 29.1135C44.7504 28.8678 44.8447 28.7859 45.0843 28.7976C45.3788 28.8093 45.6773 28.8132 45.9758 28.7976C46.239 28.782 46.3057 28.8912 46.3057 29.1369C46.2979 30.6384 46.3018 32.136 46.3018 33.6375H46.2939Z" fill="#D72729"/>
<path d="M28.6749 35.022C28.6749 33.9924 28.6827 32.9628 28.6709 31.9332C28.6709 31.6953 28.7613 31.5822 28.9734 31.512C29.9631 31.1883 30.9764 31.0752 32.0133 31.1259C32.2451 31.1376 32.355 31.2234 32.2764 31.4769C32.2097 31.6953 32.1626 31.9215 32.1194 32.1477C32.084 32.3466 32.0015 32.4285 31.7776 32.3856C31.3652 32.3076 30.9489 32.3544 30.5326 32.4207C30.2812 32.4636 30.1831 32.5767 30.1831 32.8458C30.1949 34.5735 30.191 36.3012 30.187 38.0289C30.187 38.3201 30.0351 38.467 29.7314 38.4696C29.5075 38.4696 29.2876 38.4696 29.0637 38.4696C28.6866 38.4696 28.667 38.4501 28.667 38.0835C28.667 37.0617 28.667 36.0438 28.667 35.022H28.6749Z" fill="#D72729"/>
<path d="M66.5802 34.9908C66.5802 33.969 66.5881 32.9472 66.5763 31.9254C66.5763 31.6914 66.6548 31.5783 66.8748 31.5081C67.8488 31.1922 68.8464 31.0713 69.8637 31.122C70.2054 31.1376 70.2368 31.1844 70.1543 31.5081C70.0836 31.785 70.1111 32.1282 69.9226 32.3193C69.7262 32.5182 69.4002 32.3193 69.1292 32.3427C68.8896 32.3622 68.65 32.3895 68.4105 32.4207C68.1748 32.4519 68.0884 32.5689 68.0923 32.8107C68.1002 34.3668 68.0963 35.9229 68.0963 37.4751C68.0963 37.6857 68.0845 37.9002 68.0963 38.1108C68.112 38.3682 68.0216 38.4852 67.7467 38.4696C67.4679 38.454 67.189 38.4579 66.9141 38.4696C66.6666 38.4813 66.5724 38.3994 66.5763 38.1381C66.5881 37.089 66.5802 36.0399 66.5802 34.9908Z" fill="#D72729"/>
</g>
<defs>
<clipPath id="clip0_20_275">
<rect width="141" height="39" fill="white"/>
</clipPath>
</defs>
</svg>
