<svg width="141" height="43" viewBox="0 0 141 43" fill="none" xmlns="http://www.w3.org/2000/svg">
<g clip-path="url(#clip0_20_531)">
<path fill-rule="evenodd" clip-rule="evenodd" d="M35.9756 26.2634V26.8231H140.814V26.2634H35.9756Z" fill="#FDB927"/>
<path d="M41.3925 42.203C41.173 42.1845 41.1399 42.203 41.1399 41.5765C41.1399 41.0465 41.1581 40.9538 41.4371 40.9019L41.6083 40.8759V40.6572H39.1941V40.8759L39.6108 40.9352C40.0424 41.0094 40.042 41.0465 40.042 41.6247V42.4365C39.8299 42.4699 39.6104 42.4958 39.3984 42.4958C38.1074 42.4958 37.222 41.5321 37.222 39.8195C37.222 38.4071 37.7652 37.3099 39.1194 37.3099C40.4736 37.3099 40.7042 38.2811 40.8344 38.7964L41.1655 38.7556C41.1655 38.181 41.0874 37.7251 40.9795 37.3173C40.6075 37.1394 40.1205 36.9874 39.2313 36.9874C37.613 36.9874 35.9834 37.7807 35.9834 39.8862C35.9834 41.9917 37.5085 42.8183 39.2905 42.8183C40.2503 42.8183 41.1283 42.4996 41.4297 42.3958L41.404 42.203H41.3925ZM47.9146 42.0844C47.7955 42.1437 47.438 42.329 46.9804 42.329C45.8197 42.329 45.567 41.4171 45.4703 40.9093C46.352 40.7054 47.2933 40.4348 48.0225 40.0975C47.9294 39.6082 47.7096 38.7185 46.3442 38.7185C45.3769 38.7185 44.4059 39.4784 44.4059 40.824C44.4059 42.1696 45.3881 42.8183 46.3889 42.8183C47.2483 42.8183 47.7806 42.4551 48.0001 42.2771L47.9179 42.0807L47.9146 42.0844ZM45.4216 40.5127C45.4216 40.3607 45.4216 39.041 46.1582 39.041C46.6939 39.041 46.9473 39.5377 47.0068 40.1457C46.4897 40.3162 45.9536 40.4237 45.4216 40.509V40.5127ZM51.203 41.8879C51.203 42.3365 51.1624 42.4291 50.8722 42.4551L50.6974 42.4736V42.6923H52.7469V42.4736L52.5683 42.4551C52.2632 42.4291 52.2227 42.3365 52.2227 41.8879V39.534C52.3566 39.3895 52.5795 39.2115 52.9255 39.2115C53.8072 39.2115 53.8072 40.0233 53.8072 40.6906V41.8879C53.8072 42.3365 53.7663 42.4291 53.4575 42.4551L53.2789 42.4736V42.6923H55.3478V42.4736L55.1692 42.4551C54.8641 42.4291 54.8195 42.3365 54.8195 41.8879V40.2235C54.8195 39.0818 54.3023 38.7185 53.5397 38.7185C52.8179 38.7185 52.4124 39.0225 52.2004 39.2078V38.7185C51.7577 38.7445 51.3108 38.8112 50.6747 39.0225V39.2671C50.7082 39.256 50.8198 39.2152 50.9463 39.2152C51.1992 39.2152 51.1996 39.5971 51.1996 39.8899V41.8842L51.203 41.8879ZM61.6496 42.0844C61.5306 42.1437 61.1738 42.329 60.7162 42.329C59.5554 42.329 59.3021 41.4171 59.2091 40.9093C60.0908 40.7054 61.032 40.4348 61.7612 40.0975C61.6682 39.6082 61.4487 38.7185 60.0833 38.7185C59.1161 38.7185 58.1413 39.4784 58.1413 40.824C58.1413 42.1696 59.1235 42.8183 60.1243 42.8183C60.9799 42.8183 61.5157 42.4551 61.7352 42.2771L61.6496 42.0807V42.0844ZM59.157 40.5127C59.157 40.3607 59.1574 39.041 59.894 39.041C60.426 39.041 60.6823 39.5377 60.7381 40.1457C60.221 40.3162 59.6853 40.4237 59.1533 40.509L59.157 40.5127ZM64.9309 41.8879C64.9309 42.3365 64.8904 42.4291 64.5853 42.4551L64.4067 42.4736V42.6923H66.6464V42.4736L66.3074 42.4328C65.9503 42.3921 65.9507 42.2808 65.9507 41.6803V39.6267C66.0623 39.4933 66.1627 39.4562 66.2892 39.4562C66.4083 39.4562 66.8993 39.6601 67.0333 39.6934C67.3049 39.5081 67.4235 39.3635 67.5426 39.0929C67.4235 38.9669 67.2119 38.7222 66.8547 38.7222C66.4231 38.7222 66.0656 39.1263 65.8982 39.3042C65.8982 39.0521 65.8577 38.8742 65.8316 38.7222C65.2215 38.8149 65.0429 38.8742 64.4067 39.0855V39.3042C64.4588 39.2894 64.5518 39.2523 64.6783 39.2523C64.9313 39.2523 64.9309 39.6341 64.9309 39.9307V41.8879ZM73.8188 42.4958C73.7927 42.5033 73.7782 42.5033 73.7522 42.5033C73.209 42.5033 73.2086 41.8768 73.2086 41.2689V40.2272C73.2086 39.2634 73.023 38.7148 71.9553 38.7148C71.0996 38.7148 70.5114 39.1967 70.1319 39.6082C70.1989 39.8121 70.2439 39.8788 70.3592 40.0419H70.4448C70.5564 39.7861 70.802 39.2041 71.453 39.2041C72.0557 39.2041 72.193 39.6527 72.193 40.1531V40.357C71.4898 40.5423 69.9946 40.8315 69.9946 41.8953C69.9946 42.4365 70.4444 42.8146 71.1067 42.8146C71.6982 42.8146 72.0479 42.5515 72.286 42.3846C72.4199 42.5959 72.5725 42.8146 73.1156 42.8146C73.4877 42.8146 73.7336 42.6627 73.8452 42.6033L73.8188 42.4921V42.4958ZM72.193 41.6692C72.193 41.8286 72.2194 42.0399 72.2268 42.1252C72.1599 42.1771 71.9995 42.329 71.7093 42.329C71.3261 42.329 71.081 42.0251 71.081 41.6173C71.081 40.9908 71.6167 40.7388 72.0966 40.7388C72.1301 40.7388 72.1558 40.7462 72.193 40.7462V41.6692ZM76.423 42.6886H78.4915V42.4699L78.3129 42.4514C78.0078 42.418 77.9636 42.3327 77.9636 41.8842V36.6056C77.506 36.6056 77.1265 36.6575 76.4196 36.8021V37.0208C76.4531 37.0208 76.5532 37.0022 76.6574 37.0022C76.9475 37.0022 76.9479 37.3321 76.9479 38.0735V41.8842C76.9479 42.3327 76.907 42.418 76.5982 42.4514L76.4196 42.4699V42.6886H76.423ZM87.6769 38.359C87.6769 37.5249 87.6773 37.4211 88.0754 37.3618L88.28 37.3358V37.1134H85.973V37.3358L86.178 37.3618C86.5761 37.4211 86.5757 37.5212 86.5757 38.3664V41.4468C86.5757 42.2808 86.5761 42.3809 86.178 42.444L85.973 42.4699V42.6923H88.28V42.4699L88.0754 42.444C87.6773 42.3846 87.6769 42.2846 87.6769 41.4468V38.359ZM91.6878 41.8879C91.6878 42.3365 91.6465 42.4291 91.3601 42.4551L91.1815 42.4736V42.6923H93.2351V42.4736L93.0565 42.4551C92.7515 42.4291 92.7109 42.3365 92.7109 41.8879V39.534C92.8448 39.3895 93.0677 39.2115 93.4137 39.2115C94.2954 39.2115 94.2954 40.0233 94.2954 40.6906V41.8879C94.2954 42.3365 94.2548 42.4291 93.946 42.4551L93.7675 42.4736V42.6923H95.836V42.4736L95.6574 42.4551C95.3523 42.4291 95.3077 42.3365 95.3077 41.8879V40.2235C95.3077 39.0818 94.7906 38.7185 94.0279 38.7185C93.3062 38.7185 92.9006 39.0225 92.6886 39.2078V38.7185C92.2459 38.7445 91.7994 38.8112 91.1632 39.0225V39.2671C91.1967 39.256 91.3083 39.2152 91.4348 39.2152C91.6878 39.2152 91.6878 39.5971 91.6878 39.8899V41.8842V41.8879ZM101.338 40.0048C101.338 39.6564 101.331 39.2857 101.245 38.9558C101.041 38.8446 100.68 38.7185 100.23 38.7185C98.7192 38.7185 98.7192 39.7602 98.7192 39.8269C98.7192 41.1799 100.627 40.9352 100.627 41.9398C100.627 42.2438 100.423 42.4958 100.066 42.4958C99.4298 42.4958 99.0503 41.8175 98.9982 41.3541H98.6593C98.6593 41.8583 98.7267 42.2141 98.8122 42.5515C99.1173 42.7034 99.4815 42.8146 99.9837 42.8146C101.13 42.8146 101.595 42.2512 101.595 41.5988C101.595 40.3051 99.6865 40.4496 99.6865 39.56C99.6865 39.2634 99.8982 39.0373 100.162 39.0373C100.791 39.0373 100.977 39.7194 100.999 40.0011H101.338V40.0048ZM107.666 42.8183C108.09 42.7331 108.555 42.6145 108.946 42.481L108.931 42.2623C108.846 42.2808 108.745 42.2734 108.693 42.2734C108.403 42.2734 108.403 41.9435 108.403 41.2503V38.7222C107.96 38.7482 107.495 38.8149 106.859 39.0262V39.2709C106.892 39.2597 107.004 39.219 107.13 39.219C107.383 39.219 107.384 39.6008 107.384 39.8936V42.1177C107.265 42.1771 107.071 42.329 106.748 42.329C105.918 42.329 105.788 41.7656 105.788 41.0946V38.7185C105.345 38.7445 104.88 38.8112 104.244 39.0225V39.2671C104.277 39.256 104.389 39.2152 104.515 39.2152C104.768 39.2152 104.768 39.5971 104.768 39.8899V41.1132C104.768 42.051 104.828 42.8109 106.141 42.8109C106.777 42.8109 107.175 42.5329 107.432 42.3809L107.659 42.8109L107.666 42.8183ZM112.22 41.8879C112.22 42.3365 112.179 42.4291 111.871 42.4551L111.692 42.4736V42.6923H113.932V42.4736L113.589 42.4328C113.232 42.3921 113.232 42.2808 113.232 41.6803V39.6267C113.343 39.4933 113.444 39.4562 113.574 39.4562C113.693 39.4562 114.184 39.6601 114.318 39.6934C114.59 39.5081 114.709 39.3635 114.828 39.0929C114.709 38.9669 114.497 38.7222 114.14 38.7222C113.708 38.7222 113.351 39.1263 113.18 39.3042C113.18 39.0521 113.139 38.8742 113.113 38.7222C112.503 38.8149 112.324 38.8742 111.688 39.0855V39.3042C111.74 39.2894 111.833 39.2523 111.959 39.2523C112.212 39.2523 112.213 39.6341 112.213 39.9307V41.8879H112.22ZM121.108 42.4958C121.082 42.5033 121.067 42.5033 121.041 42.5033C120.498 42.5033 120.498 41.8768 120.498 41.2689V40.2272C120.498 39.2634 120.312 38.7148 119.244 38.7148C118.385 38.7148 117.801 39.1967 117.421 39.6082C117.488 39.8121 117.532 39.8788 117.648 40.0419H117.733C117.845 39.7861 118.091 39.2041 118.742 39.2041C119.344 39.2041 119.478 39.6527 119.478 40.1531V40.357C118.775 40.5423 117.283 40.8315 117.283 41.8953C117.283 42.4365 117.734 42.8146 118.396 42.8146C118.987 42.8146 119.337 42.5515 119.571 42.3846C119.705 42.5959 119.861 42.8146 120.401 42.8146C120.773 42.8146 121.022 42.6627 121.13 42.6033L121.104 42.4921L121.108 42.4958ZM119.478 41.6692C119.478 41.8286 119.505 42.0399 119.512 42.1252C119.445 42.1771 119.281 42.329 118.995 42.329C118.612 42.329 118.366 42.0251 118.366 41.6173C118.366 40.9908 118.898 40.7388 119.382 40.7388C119.415 40.7388 119.441 40.7462 119.475 40.7462V41.6692H119.478ZM124.244 41.8879C124.244 42.3365 124.203 42.4291 123.913 42.4551L123.734 42.4736V42.6923H125.788V42.4736L125.609 42.4551C125.304 42.4291 125.26 42.3365 125.26 41.8879V39.534C125.394 39.3895 125.617 39.2115 125.963 39.2115C126.845 39.2115 126.845 40.0233 126.845 40.6906V41.8879C126.845 42.3365 126.804 42.4291 126.499 42.4551L126.32 42.4736V42.6923H128.389V42.4736L128.21 42.4551C127.905 42.4291 127.864 42.3365 127.864 41.8879V40.2235C127.864 39.0818 127.347 38.7185 126.581 38.7185C125.859 38.7185 125.453 39.0225 125.241 39.2078V38.7185C124.799 38.7445 124.352 38.8112 123.712 39.0225V39.2671C123.745 39.256 123.857 39.2152 123.984 39.2152C124.24 39.2152 124.241 39.5971 124.241 39.8899V41.8842L124.244 41.8879ZM134.572 42.1845C134.453 42.2252 134.095 42.329 133.801 42.329C132.953 42.329 132.224 41.773 132.224 40.5127C132.224 39.6564 132.596 39.1448 133.14 39.1448C133.631 39.1448 133.928 39.4821 134.114 39.6934H134.188C134.4 39.4377 134.479 39.2783 134.52 39.0002C134.3 38.8408 133.969 38.7222 133.366 38.7222C132.417 38.7222 131.138 39.3895 131.138 40.9538C131.138 42.1882 132.198 42.8221 133.121 42.8221C133.935 42.8221 134.378 42.5885 134.65 42.3921L134.572 42.1882V42.1845ZM140.696 42.0807C140.576 42.14 140.219 42.3253 139.761 42.3253C138.601 42.3253 138.348 41.4134 138.251 40.9056C139.133 40.7017 140.074 40.4311 140.803 40.0938C140.71 39.6045 140.491 38.7148 139.125 38.7148C138.158 38.7148 137.187 39.4747 137.187 40.8203C137.187 42.1659 138.169 42.8146 139.17 42.8146C140.03 42.8146 140.562 42.4514 140.781 42.2734L140.699 42.077L140.696 42.0807ZM138.203 40.509C138.203 40.357 138.203 39.0373 138.939 39.0373C139.475 39.0373 139.728 39.534 139.788 40.142C139.271 40.3125 138.735 40.42 138.203 40.5052" fill="#004A90"/>
<path fill-rule="evenodd" clip-rule="evenodd" d="M30.6369 0.0444946H0.3125V10.9168C0.3125 22.1524 6.4138 31.8274 15.4728 36.9837C29.7402 28.5728 29.9002 14.7683 30.6331 0.0444946" fill="#004A90"/>
<path fill-rule="evenodd" clip-rule="evenodd" d="M30.3058 7.53985C30.3839 6.36848 30.4546 5.18227 30.5141 3.98865L29.0186 7.19882L30.3058 7.53985Z" fill="#FDB927"/>
<path fill-rule="evenodd" clip-rule="evenodd" d="M13.3037 14.1085L16.4475 15.5801L16.8159 14.1085L12.5635 13.8304L13.3037 14.1085Z" fill="#FDB927"/>
<path fill-rule="evenodd" clip-rule="evenodd" d="M12.5635 21.3851L16.8159 21.1108L16.4251 19.5428L12.5635 21.3851Z" fill="#FDB927"/>
<path fill-rule="evenodd" clip-rule="evenodd" d="M16.4434 28.1094L19.9589 25.7147L18.828 24.5878L16.4434 28.1131V28.1094Z" fill="#FDB927"/>
<path fill-rule="evenodd" clip-rule="evenodd" d="M16.9084 7.75114L18.8503 10.6055L19.9589 9.59347L16.4434 7.10614L16.9046 7.75114" fill="#FDB927"/>
<path fill-rule="evenodd" clip-rule="evenodd" d="M23.1926 4.06648L23.468 7.56579L24.9487 7.10613L23.0996 3.3288L23.1926 4.06648Z" fill="#FDB927"/>
<path fill-rule="evenodd" clip-rule="evenodd" d="M26.1543 7.01338H27.728L26.9877 0.630127L26.1543 7.01338Z" fill="#FDB927"/>
<path fill-rule="evenodd" clip-rule="evenodd" d="M18.5718 3.42147L20.9751 8.76681L22.2698 8.02913L18.0176 2.22784L18.5718 3.42517" fill="#FDB927"/>
<path fill-rule="evenodd" clip-rule="evenodd" d="M12.5635 9.50079L17.3701 13.0038L18.0175 11.6211L11.5479 8.76312L12.5635 9.50079Z" fill="#FDB927"/>
<path fill-rule="evenodd" clip-rule="evenodd" d="M9.14062 17.6077L16.2613 18.3454V16.8701L9.14062 17.6077Z" fill="#FDB927"/>
<path fill-rule="evenodd" clip-rule="evenodd" d="M11.4541 26.4524L18.0168 23.598L17.2764 22.308L11.4541 26.4524Z" fill="#FDB927"/>
<path fill-rule="evenodd" clip-rule="evenodd" d="M18.0176 32.9914L22.2698 27.2827L20.8821 26.4524C19.8962 28.6098 18.97 30.8191 18.0176 32.9914Z" fill="#FDB927"/>
<path fill-rule="evenodd" clip-rule="evenodd" d="M25.2567 27.6238C20.4352 26.8231 16.8115 22.6232 16.8115 17.7005C16.8115 12.0808 21.3428 7.5658 26.9828 7.5658C28.1287 7.5658 29.2745 7.73261 30.2604 8.14778C29.7433 15.265 28.6905 21.9448 25.2567 27.6238Z" fill="#FDB927"/>
<path fill-rule="evenodd" clip-rule="evenodd" d="M23.1885 30.5523C23.8321 29.7701 24.4123 28.962 24.9444 28.1317L23.3819 27.7424L23.1885 30.5523Z" fill="#FDB927"/>
<path d="M36.4365 24.6546H40.0413V24.3358L39.5056 24.2913C38.9401 24.232 38.9401 24.1578 38.9401 22.3378V20.3731H39.4907C39.8032 20.3731 40.1753 20.3731 40.4134 20.5659C40.6068 20.729 40.9491 21.2961 41.336 22.0264L41.9312 23.1755C42.3777 23.9947 43.0626 24.6583 44.0448 24.6583H45.1906V24.3395C44.8632 24.3395 44.5954 24.2802 44.4466 24.1875C44.0745 23.9799 43.4194 23.0977 42.7944 21.9819C42.3926 21.2665 41.9015 20.3138 41.6783 19.8949C42.4967 19.5057 43.736 18.6865 43.736 17.3001C43.736 15.0389 41.7382 14.835 40.3244 14.835H36.4365V15.1538L36.9722 15.1983C37.5524 15.2576 37.5524 15.3317 37.5524 17.1518V22.3378C37.5524 24.1578 37.5524 24.2357 36.9722 24.2913L36.4365 24.3358V24.6546ZM38.9401 15.4392C39.2377 15.3799 39.5502 15.3206 39.8628 15.3206C41.0235 15.3206 42.1731 15.8544 42.1731 17.5966C42.1731 19.3389 41.0425 19.9468 39.7887 19.9468H38.9401V15.4355V15.4392ZM48.5166 24.8733C50.4065 24.8733 52.1807 23.6537 52.1807 21.0774C52.1807 19.0238 50.7224 17.6559 48.5906 17.6559C46.7602 17.6559 44.941 18.92 44.941 21.3925C44.941 23.7278 46.6267 24.8733 48.5166 24.8733ZM46.3101 21.2146C46.3101 19.7837 46.8462 18.1786 48.3938 18.1786C50.1349 18.1786 50.8046 19.7096 50.8046 21.4815C50.8046 23.0606 50.12 24.3543 48.7658 24.3543C47.0805 24.3543 46.3067 22.8678 46.3067 21.2146H46.3101ZM57.8397 21.4815C58.2564 20.4695 58.9409 18.8644 59.2832 18.5197C59.3873 18.4159 59.551 18.3565 59.685 18.3121L59.9975 18.2083V17.8821H56.9729V18.2083L57.7612 18.3417C57.9398 18.3714 58.2076 18.401 58.2076 18.579C58.2076 18.9941 56.705 22.7752 56.5227 23.2052L54.8262 19.0683C54.7518 18.8903 54.6774 18.679 54.6774 18.6197C54.6774 18.4566 54.9304 18.3973 55.1536 18.338L55.734 18.2046V17.8784H52.3076V18.2046L52.6978 18.3232C53.2782 18.5011 53.2782 18.7384 53.4717 19.2314L55.2615 23.2645C55.455 23.7241 55.708 24.2913 55.708 24.9029C55.708 26.3004 54.2347 26.6155 53.4014 27.3421C53.2972 27.4755 53.2075 27.8017 53.1778 28.1168C53.2819 28.1316 53.3716 28.1465 53.4758 28.1465C54.9676 28.1465 55.6518 26.6266 56.2173 25.2736L57.843 21.4778L57.8397 21.4815ZM66.415 24.295C66.3555 24.3247 66.2956 24.3543 66.1468 24.3543C65.3283 24.3543 65.3287 23.2385 65.3287 22.1969V20.0654C65.3287 18.5493 64.9712 17.6559 63.271 17.6559C61.6936 17.6559 60.7412 18.6531 60.2947 19.2462C60.3989 19.5131 60.5179 19.6614 60.6816 19.843H60.8011C61.0875 19.2907 61.4558 18.3528 62.6463 18.3528C63.7624 18.3528 64.034 19.2017 64.034 20.184V20.5288C62.7245 20.9143 60.1459 21.4963 60.1459 23.4313C60.1459 24.2505 60.89 24.8733 61.9912 24.8733C63.1519 24.8733 63.7029 24.5619 64.1828 24.2468C64.3316 24.5582 64.5995 24.8733 65.3584 24.8733C65.9835 24.8733 66.296 24.636 66.4894 24.5026L66.415 24.295ZM64.034 21.2294V23.7464C63.9298 23.8947 63.5578 24.3543 62.903 24.3543C62.0548 24.3543 61.5187 23.8502 61.5187 23.0013C61.5187 21.6038 62.9774 21.2294 63.8257 21.2294H64.034ZM67.1591 24.6546H70.4813V24.3358L70.1353 24.2913C69.5847 24.232 69.4657 24.232 69.4657 23.2052V13.9416C68.8407 13.9416 67.6353 14.0751 67.1591 14.1826L67.2037 14.5125L67.4269 14.4828C67.4567 14.4828 67.5605 14.468 67.6349 14.468C68.1706 14.468 68.171 15.1501 68.171 16.3289V23.2089C68.171 24.2357 68.0367 24.2357 67.5159 24.295L67.1591 24.3395V24.6583V24.6546ZM78.5094 18.553C77.7058 18.0748 77.0659 17.6003 77.0659 16.7218C77.0659 15.7247 77.8249 15.0982 78.688 15.0982C80.3733 15.0982 80.6117 16.3919 80.7606 17.137H81.1326C81.1326 16.7663 81.1028 15.5578 80.9838 15.0834C80.5969 14.8461 79.8524 14.6052 78.9261 14.6052C77.3487 14.6052 75.827 15.3651 75.827 17.1815C75.827 18.2972 76.6161 19.2203 77.4644 19.6799L78.4205 20.2026C79.5812 20.7253 80.489 21.4666 80.489 22.5528C80.489 23.713 79.7297 24.384 78.7029 24.384C76.6604 24.384 76.1139 22.6121 75.9465 21.5408L75.4699 21.6594C75.4699 22.5972 75.6786 23.6982 75.9465 24.2802C76.4078 24.5619 77.1221 24.8733 78.2865 24.8733C79.864 24.8733 81.7278 24.0985 81.7278 22.0931C81.7278 20.3064 80.5072 19.6799 79.3279 19.0127L78.5094 18.553ZM90.5297 24.0281L90.1726 24.0726C90.0982 24.0874 89.9944 24.0874 89.9349 24.0874C89.5182 24.0874 89.5182 23.4795 89.5182 22.2117V17.6597C88.9973 17.6597 87.6428 18.06 87.2112 18.1972L87.2711 18.553L87.5981 18.464C87.6279 18.464 87.7324 18.4492 87.8068 18.4492C88.2235 18.4492 88.2235 18.8644 88.2235 20.3249V23.7019C88.0003 23.865 87.4344 24.1801 86.6755 24.1801C85.1985 24.1801 84.886 23.3164 84.886 22.1265V17.6634C84.3652 17.6634 83.0114 18.0637 82.5798 18.2009L82.6389 18.5567L82.9663 18.4678C82.9961 18.4678 83.1003 18.4529 83.1747 18.4529C83.5914 18.4529 83.5913 18.8681 83.5913 20.3286V22.2043C83.5913 23.8279 83.8001 24.8807 86.0062 24.8807C87.1521 24.8807 87.8511 24.4359 88.2976 24.1356C88.372 24.4618 88.5063 24.7028 88.6253 24.8807C89.3991 24.7324 89.9494 24.6138 90.6228 24.3765L90.5338 24.0318L90.5297 24.0281ZM91.4524 24.6546H94.775V24.3358L94.4327 24.2913C93.8821 24.232 93.7593 24.1578 93.7593 23.2052V19.1647C94.0272 18.8236 94.503 18.3603 95.2955 18.3603C97.0663 18.3603 97.0667 19.8059 97.0667 21.2072V23.2052C97.0667 24.1578 96.9324 24.232 96.4116 24.2913L96.0544 24.3358V24.6546H99.377V24.3358L99.0348 24.2913C98.4842 24.232 98.3614 24.1578 98.3614 23.2052V20.981C98.3614 19.2684 98.3614 17.6597 96.0362 17.6597C94.9052 17.6597 94.1012 18.2861 93.7553 18.5975V17.6597C93.2344 17.6597 91.8806 18.0452 91.449 18.1823L91.5086 18.5382L91.8359 18.4492C91.8657 18.4492 91.9699 18.4344 92.0443 18.4344C92.461 18.4344 92.4606 18.8496 92.4606 20.3101V23.2015C92.4606 24.1541 92.327 24.2283 91.8062 24.2876L91.449 24.3321V24.6509L91.4524 24.6546ZM107.866 23.9984L107.599 24.0429C107.539 24.0578 107.42 24.0578 107.361 24.0578C106.959 24.0578 106.869 23.7167 106.869 22.9272V13.9379C106.244 13.9379 105.039 14.0714 104.559 14.1789L104.604 14.5051L104.827 14.4754C104.857 14.4754 104.961 14.4606 105.036 14.4606C105.571 14.4606 105.571 15.1464 105.571 16.3215V17.7931C105.244 17.6893 104.857 17.6597 104.5 17.6597C102.714 17.6597 100.344 18.7309 100.344 21.5741C100.344 23.9391 102.104 24.877 103.651 24.877C104.678 24.877 105.322 24.4433 105.664 24.269C105.754 24.4618 105.843 24.7139 105.947 24.877C106.453 24.8177 107.271 24.6546 107.959 24.3432L107.871 23.9984H107.866ZM105.575 23.8502C105.396 23.954 104.846 24.1764 104.399 24.1764C102.896 24.1764 101.717 22.9383 101.717 21.0515C101.717 19.1647 102.699 18.1786 104.083 18.1786C104.723 18.1786 105.214 18.3714 105.575 18.7013V23.8502ZM115.226 24.295C115.166 24.3247 115.107 24.3543 114.958 24.3543C114.139 24.3543 114.139 23.2385 114.139 22.1969V20.0654C114.139 18.5493 113.782 17.6559 112.082 17.6559C110.504 17.6559 109.552 18.6531 109.106 19.2462C109.21 19.5131 109.329 19.6614 109.493 19.843H109.611C109.894 19.2907 110.266 18.3528 111.457 18.3528C112.573 18.3528 112.844 19.2017 112.844 20.184V20.5288C111.535 20.9143 108.957 21.4963 108.957 23.4313C108.957 24.2505 109.701 24.8733 110.802 24.8733C111.963 24.8733 112.513 24.5619 112.989 24.2468C113.142 24.5582 113.406 24.8733 114.165 24.8733C114.794 24.8733 115.103 24.636 115.296 24.5026L115.221 24.295H115.226ZM112.841 21.2294V23.7464C112.737 23.8947 112.361 24.3543 111.71 24.3543C110.862 24.3543 110.326 23.8502 110.326 23.0013C110.326 21.6038 111.784 21.2294 112.633 21.2294H112.841ZM115.951 24.6546H119.511V24.3358L119.169 24.2913C118.38 24.232 118.261 24.232 118.261 23.2052V19.2091C118.261 18.9867 118.499 18.6272 118.975 18.6272C119.184 18.6272 119.988 18.8792 120.196 18.9534C120.538 18.6865 120.747 18.4603 120.955 18.1045C120.761 17.9859 120.285 17.6597 119.824 17.6597C119.065 17.6597 118.425 18.3899 118.202 18.6272C118.202 18.2268 118.157 17.9117 118.097 17.6597C117.681 17.6597 116.684 17.9414 115.94 18.2083L116.059 18.5641L116.192 18.5197C116.312 18.49 116.434 18.4307 116.55 18.4307C116.966 18.4307 116.966 18.7569 116.966 20.2953V23.2015C116.966 24.2283 116.833 24.2283 116.312 24.2876L115.955 24.3321V24.6509L115.951 24.6546ZM127.629 24.295C127.57 24.3247 127.51 24.3543 127.361 24.3543C126.542 24.3543 126.543 23.2385 126.543 22.1969V20.0654C126.543 18.5493 126.185 17.6559 124.485 17.6559C122.908 17.6559 121.952 18.6531 121.509 19.2462C121.613 19.5131 121.732 19.6614 121.896 19.843H122.015C122.298 19.2907 122.67 18.3528 123.86 18.3528C124.977 18.3528 125.248 19.2017 125.248 20.184V20.5288C123.939 20.9143 121.36 21.4963 121.36 23.4313C121.36 24.2505 122.104 24.8733 123.205 24.8733C124.366 24.8733 124.917 24.5619 125.397 24.2468C125.546 24.5582 125.814 24.8733 126.573 24.8733C127.198 24.8733 127.51 24.636 127.703 24.5026L127.629 24.295ZM125.248 21.2294V23.7464C125.144 23.8947 124.772 24.3543 124.117 24.3543C123.269 24.3543 122.733 23.8502 122.733 23.0013C122.733 21.6038 124.192 21.2294 125.04 21.2294H125.248ZM128.462 24.6546H131.784V24.3358L131.442 24.2913C130.892 24.232 130.769 24.1282 130.769 23.2052V19.2388C130.992 18.9867 131.487 18.3603 132.376 18.3603C133.912 18.3603 133.913 19.8504 133.913 20.4324V23.2052C133.913 24.1282 133.778 24.232 133.258 24.2913L132.9 24.3358V24.6546H136.223V24.3358L135.881 24.2913C135.33 24.232 135.211 24.1282 135.211 23.2052V21.1034C135.211 19.8393 135.196 19.5539 135.137 19.0794C135.553 18.6457 136.029 18.364 136.699 18.364C138.351 18.364 138.351 19.7837 138.351 21.1367V23.2089C138.351 24.1319 138.217 24.2357 137.696 24.295L137.339 24.3395V24.6583H140.661V24.3395L140.319 24.295C139.768 24.2357 139.645 24.1319 139.645 23.2089V20.7772C139.645 19.3018 139.645 17.6671 137.205 17.6671C136.118 17.6671 135.297 18.338 134.943 18.6346C134.78 18.2046 134.244 17.6671 132.99 17.6671C131.814 17.6671 131.115 18.3528 130.769 18.679V17.6671C130.248 17.6671 128.894 18.0526 128.462 18.1897L128.522 18.5456L128.849 18.4566C128.879 18.4566 128.983 18.4418 129.057 18.4418C129.474 18.4418 129.474 18.857 129.474 20.3175V23.2089C129.474 24.1319 129.34 24.2357 128.819 24.295L128.462 24.3395V24.6583" fill="#004A90"/>
</g>
<defs>
<clipPath id="clip0_20_531">
<rect width="141" height="43" fill="white"/>
</clipPath>
</defs>
</svg>
