<svg width="141" height="30" viewBox="0 0 141 30" fill="none" xmlns="http://www.w3.org/2000/svg">
<g clip-path="url(#clip0_20_442)">
<path d="M125.861 29.7594H15.138C6.82086 29.7594 0.0820312 23.125 0.0820312 14.9406C0.0820312 6.75937 6.82403 0.125 15.138 0.125H125.861C134.178 0.125 140.92 6.75624 140.92 14.9406C140.92 23.125 134.181 29.7594 125.864 29.7594H125.861Z" fill="#65106B"/>
<path d="M15.1353 28.9031C7.30086 28.9031 0.946289 22.6531 0.946289 14.9406C0.946289 7.22815 7.29768 0.978149 15.1353 0.978149H47.324C55.1584 0.978149 61.5129 7.22815 61.5129 14.9406C61.5129 22.6531 55.1616 28.9031 47.324 28.9031H15.1353Z" fill="white"/>
<path d="M14.6275 7.17189C10.2482 7.18126 6.70729 10.6844 6.71682 14.9906C6.72634 18.9781 9.7909 22.3188 13.8208 22.7313V17.0469C12.6458 16.6094 12.0551 15.3156 12.4997 14.1594C12.9443 13.0031 14.2591 12.4219 15.4341 12.8594C16.6091 13.2969 17.1997 14.5906 16.7551 15.7469C16.5232 16.3469 16.0438 16.8188 15.4341 17.0469V22.7313C19.7879 22.2844 22.9508 18.4469 22.4967 14.1594C22.0744 10.1906 18.6796 7.17501 14.6242 7.16876" fill="#00A9ED"/>
<path d="M34.1869 15.05C33.2945 14.4031 32.31 13.8875 31.2685 13.5156C29.9348 12.9812 28.7725 12.4937 28.7725 11.6437C28.7694 11.2468 28.963 10.875 29.2901 10.6468C29.6839 10.3625 30.1633 10.2156 30.6492 10.2343C31.7575 10.2906 32.815 10.7 33.6661 11.4031L33.9868 11.7187L35.4952 8.96872L35.3238 8.79997C34.0567 7.66247 32.3894 7.05935 30.6747 7.12185C29.3059 7.09372 27.9691 7.54997 26.9147 8.41247C25.9398 9.22497 25.3808 10.4187 25.3808 11.6718C25.3586 12.8593 25.908 13.9875 26.8639 14.7125C27.7403 15.3781 28.7154 15.9031 29.757 16.2718C31.1448 16.8812 32.3326 17.3656 32.3326 18.2687C32.3326 18.95 31.8626 19.7031 30.5509 19.7031C29.2743 19.6218 28.0611 19.1156 27.1147 18.2687L26.8195 17.975L24.9902 20.5093L25.165 20.7031C25.5778 21.1187 26.0414 21.4781 26.5526 21.775C27.7594 22.4468 29.1218 22.8 30.5095 22.7968C31.9067 22.8531 33.2726 22.375 34.3174 21.4593C35.2129 20.6156 35.7147 19.4437 35.7052 18.2218C35.7369 16.9937 35.178 15.8218 34.1967 15.0593" fill="#0D1963"/>
<path d="M47.6352 15.7282C47.2955 15.2063 46.8286 14.7813 46.2761 14.4875C47.1938 13.7375 47.7115 12.6188 47.6861 11.4469C47.7242 10.2719 47.2034 9.1469 46.2761 8.40628C45.2598 7.67503 44.0213 7.30628 42.7638 7.3594H37.1523V22.5688H42.84C44.1865 22.6125 45.5139 22.2282 46.6222 21.475C47.721 20.6532 48.3402 19.3532 48.2799 17.9938C48.2863 17.1938 48.064 16.4094 47.6352 15.7313M43.0369 19.7219H40.4169V10.2094H42.7415C43.5418 10.1125 44.269 10.6719 44.3675 11.4594C44.3802 11.5625 44.3834 11.6657 44.3707 11.7688C44.4659 12.525 43.9197 13.2125 43.1512 13.3063C43.021 13.3219 42.8908 13.3188 42.7638 13.3H41.973V16.0938H43.0369C43.5577 16.0625 44.0721 16.2469 44.4469 16.6063C44.7898 16.9282 44.9677 17.3813 44.9391 17.8469C45.0185 18.8032 44.2944 19.6438 43.3227 19.7219C43.2274 19.7282 43.129 19.7282 43.0337 19.7219" fill="#0D1963"/>
<path d="M53.275 7.33435H49.7881V22.5656H53.275V7.33435Z" fill="#0D1963"/>
<path d="M70.1736 20.1844C70.5484 20.4344 70.9641 20.6219 71.4023 20.7344C71.9104 20.8563 72.4344 20.9125 72.9552 20.9032C73.53 20.9188 74.0892 20.7188 74.5211 20.3438C74.953 19.9407 75.1849 19.3688 75.1499 18.7844V17.7625C74.826 18.0282 74.4668 18.2469 74.0826 18.4125C73.5935 18.5969 73.073 18.6813 72.549 18.6625C71.9203 18.675 71.2915 18.5594 70.7103 18.3219C70.1895 18.1063 69.7224 17.7813 69.3381 17.3719C68.9539 16.9563 68.6588 16.4657 68.4747 15.9313C68.2714 15.3407 68.1726 14.7219 68.179 14.1C68.1758 13.4282 68.3032 12.7625 68.554 12.1407C68.7954 11.5407 69.1635 10.9969 69.6303 10.5407C70.1162 10.075 70.6945 9.71253 71.3264 9.4719C72.0409 9.20315 72.7968 9.0719 73.5621 9.08128C74.3274 9.07503 75.0924 9.14378 75.8483 9.28128C76.4231 9.3844 76.9886 9.52503 77.5444 9.70003V18.8188C77.5539 19.4157 77.4361 20.0094 77.1979 20.5594C76.9788 21.05 76.6517 21.4875 76.242 21.8375C75.8197 22.1938 75.3274 22.4625 74.8003 22.6282C74.216 22.8125 73.6065 22.9032 72.9936 22.8969C72.549 22.9 72.1044 22.8782 71.663 22.8282C71.3137 22.7875 70.9672 22.725 70.6274 22.6375C70.3416 22.5625 70.0622 22.4625 69.7954 22.3375C69.5477 22.2188 69.3127 22.0782 69.0936 21.9188L70.1701 20.1782L70.1736 20.1844ZM75.1528 11.3282C74.9622 11.2594 74.7654 11.2094 74.5653 11.1782C74.2477 11.1375 73.9301 11.1219 73.6094 11.1282C73.1712 11.1188 72.7329 11.2 72.3296 11.3688C71.9771 11.5188 71.6595 11.7375 71.396 12.0094C71.1387 12.275 70.9422 12.5938 70.8151 12.9375C70.6849 13.2938 70.6211 13.6688 70.6211 14.0469C70.5989 14.6969 70.7926 15.3344 71.1705 15.8657C71.596 16.3875 72.2601 16.6657 72.9397 16.6063C73.5303 16.6469 74.1147 16.4844 74.5942 16.1469C74.9975 15.7688 75.2004 15.2313 75.1528 14.6875V11.3282Z" fill="white"/>
<path d="M88.3571 17.3063L88.0204 17.6375C87.7823 17.8594 87.5155 18.05 87.2297 18.2063C86.8137 18.4375 86.3691 18.6188 85.9086 18.7469C85.283 18.9188 84.6384 19 83.9873 18.9875C83.2792 18.9969 82.5742 18.8688 81.9168 18.6063C80.6973 18.1313 79.7446 17.1625 79.3064 15.9469C79.0619 15.2813 78.9412 14.575 78.9507 13.8688C78.9444 13.2094 79.065 12.5532 79.3064 11.9375C79.5319 11.3625 79.8717 10.8344 80.3004 10.3875C80.7323 9.94379 81.2499 9.59067 81.8247 9.34692C82.444 9.08754 83.114 8.95942 83.7873 8.96567C84.5494 8.94379 85.3053 9.10317 85.9912 9.43442C86.566 9.72504 87.0646 10.1469 87.4425 10.6625C87.814 11.1813 88.084 11.7657 88.2332 12.3813C88.3952 13.0219 88.4777 13.6813 88.4777 14.3407V14.6813H81.3674C81.3611 15.0094 81.4436 15.3313 81.6024 15.6219C81.7548 15.9 81.9644 16.1438 82.2121 16.3407C82.4662 16.5438 82.7552 16.7 83.0664 16.8C83.3713 16.9032 83.6888 16.9594 84.0096 16.9594C84.7304 16.9719 85.445 16.825 86.1023 16.5282C86.3151 16.4344 86.5184 16.3125 86.7025 16.1688C86.8582 16.0407 86.9757 15.9375 87.0582 15.8594L88.3571 17.3V17.3063ZM86.0198 12.9875C86.0198 12.7407 85.969 12.4969 85.8769 12.2688C85.7816 12.0282 85.6387 11.8063 85.4609 11.6188C85.2608 11.4157 85.0226 11.2532 84.759 11.1407C84.451 11.0094 84.1175 10.9438 83.7841 10.95C83.4252 10.9438 83.0696 11.0094 82.7361 11.1407C82.4535 11.2532 82.1963 11.4157 81.974 11.6188C81.7771 11.8032 81.6183 12.025 81.5071 12.2688C81.4023 12.4938 81.3452 12.7407 81.3452 12.9875H86.0198Z" fill="white"/>
<path d="M89.8213 9.28751H92.1173L92.1776 10.3469C92.3142 10.2 92.4603 10.0594 92.6159 9.92813C92.8033 9.76876 93.0065 9.63126 93.2256 9.51876C93.4797 9.38438 93.7496 9.28126 94.0291 9.20938C94.3593 9.12501 94.7023 9.08438 95.0453 9.09063C96.0678 9.02188 97.065 9.40626 97.7668 10.1406C98.4242 10.9375 98.7576 11.9438 98.7005 12.9688V18.6688H96.3028V12.9906C96.3346 12.4813 96.1568 11.9781 95.8043 11.6C95.4613 11.2688 94.9945 11.0906 94.5149 11.1094C94.2005 11.1094 93.8893 11.1719 93.6003 11.3C93.3209 11.4219 93.07 11.6031 92.8699 11.8281C92.6635 12.0594 92.5016 12.3281 92.3936 12.6188C92.2761 12.9281 92.2189 13.2563 92.2221 13.5875V18.6656H89.8245V9.28751H89.8213Z" fill="white"/>
<path d="M109.473 17.3063L109.136 17.6375C108.898 17.8594 108.631 18.05 108.345 18.2063C107.929 18.4375 107.485 18.6188 107.024 18.7469C106.398 18.9188 105.754 19 105.103 18.9875C104.392 18.9969 103.687 18.8688 103.029 18.6063C101.81 18.1313 100.857 17.1625 100.419 15.9469C100.174 15.2813 100.053 14.575 100.063 13.8688C100.057 13.2094 100.178 12.5532 100.419 11.9375C100.644 11.3625 100.984 10.8344 101.413 10.3875C101.845 9.94379 102.363 9.59067 102.937 9.34692C103.557 9.08754 104.226 8.95942 104.9 8.96567C105.662 8.94379 106.418 9.10317 107.103 9.43442C107.678 9.72504 108.177 10.1469 108.555 10.6625C108.927 11.1813 109.196 11.7657 109.346 12.3813C109.507 13.0219 109.59 13.6813 109.59 14.3407V14.6813H102.48C102.474 15.0094 102.556 15.3313 102.715 15.6219C102.867 15.9 103.077 16.1438 103.325 16.3407C103.579 16.5438 103.867 16.7 104.179 16.8C104.484 16.9032 104.801 16.9594 105.122 16.9594C105.843 16.9719 106.558 16.825 107.215 16.5282C107.428 16.4344 107.631 16.3125 107.815 16.1688C107.971 16.0407 108.088 15.9375 108.171 15.8594L109.47 17.3L109.473 17.3063ZM107.136 12.9875C107.136 12.7407 107.085 12.4969 106.993 12.2688C106.897 12.0282 106.754 11.8063 106.577 11.6188C106.377 11.4157 106.138 11.2532 105.875 11.1407C105.567 11.0094 105.233 10.9438 104.9 10.95C104.541 10.9438 104.185 11.0094 103.852 11.1407C103.569 11.2532 103.312 11.4157 103.09 11.6188C102.893 11.8032 102.734 12.025 102.623 12.2688C102.518 12.4938 102.461 12.7407 102.461 12.9875H107.136Z" fill="white"/>
<path d="M110.933 9.28755H113.229L113.289 10.4657C113.419 10.3094 113.556 10.1625 113.705 10.025C113.886 9.8563 114.089 9.70942 114.305 9.58442C114.559 9.44067 114.829 9.32817 115.109 9.2438C115.449 9.14692 115.801 9.10005 116.153 9.10317C116.36 9.10317 116.569 9.11567 116.773 9.1438C116.963 9.17192 117.151 9.2188 117.332 9.28442L116.843 11.5032C116.684 11.4375 116.515 11.3907 116.344 11.3625C116.147 11.3344 115.944 11.3188 115.744 11.3219C115.426 11.3219 115.109 11.375 114.81 11.4813C114.524 11.5813 114.261 11.7375 114.039 11.9407C113.575 12.3719 113.317 12.9719 113.327 13.6V18.6594H110.93V9.2813L110.933 9.28755Z" fill="white"/>
<path d="M123.613 17.7844C123.286 18.1406 122.886 18.4188 122.435 18.6031C121.879 18.85 121.276 18.9719 120.666 18.9625C120.269 18.9625 119.875 18.9 119.497 18.7813C119.113 18.6625 118.757 18.4781 118.44 18.2313C118.113 17.975 117.849 17.65 117.668 17.2813C117.461 16.8563 117.363 16.3906 117.373 15.9219C117.363 15.4281 117.468 14.9406 117.678 14.4938C117.874 14.0813 118.167 13.7188 118.532 13.4344C118.926 13.1344 119.373 12.9125 119.853 12.7844C120.409 12.6313 120.983 12.5594 121.558 12.5656C121.748 12.5656 121.958 12.5688 122.187 12.575C122.415 12.5813 122.641 12.5906 122.857 12.6063L123.61 12.6469V12.4281C123.626 11.9906 123.41 11.575 123.041 11.3281C122.603 11.0438 122.082 10.9031 121.558 10.9281C121.005 10.9063 120.45 10.9969 119.932 11.1875C119.558 11.3438 119.199 11.5313 118.856 11.7469L117.76 10.1469C117.95 10.0125 118.167 9.87814 118.411 9.73751C118.684 9.58439 118.97 9.45626 119.265 9.35626C119.634 9.23126 120.011 9.13751 120.392 9.07501C120.885 8.99689 121.387 8.95939 121.885 8.96564C122.447 8.95939 123.006 9.04376 123.543 9.21564C124.006 9.36564 124.438 9.60314 124.813 9.91564C125.162 10.2125 125.442 10.5813 125.626 10.9969C125.817 11.4281 125.915 11.8938 125.912 12.3656V18.6656H123.676L123.613 17.7844ZM123.613 14.425L122.901 14.3844C122.711 14.3719 122.511 14.3625 122.301 14.3531C122.092 14.3469 121.91 14.3438 121.761 14.3438C121.18 14.2844 120.599 14.4469 120.135 14.7938C119.84 15.0563 119.672 15.4313 119.669 15.8219C119.653 16.1875 119.815 16.5375 120.107 16.7625C120.485 17.0156 120.942 17.1344 121.396 17.1031C121.949 17.1031 122.485 16.9188 122.92 16.5844C123.12 16.4281 123.289 16.2406 123.419 16.025C123.546 15.8188 123.613 15.5844 123.613 15.3469V14.425Z" fill="white"/>
<path d="M127.716 5.32812H130.113V18.6657H127.716V5.32812Z" fill="white"/>
<path d="M94.5273 21.5281H95.2609V25.0938H94.5273V21.5281Z" fill="white"/>
<path d="M96.6611 21.5281H97.4011L99.2842 24.0625V21.5281H100.002V25.0938H99.2779L97.3788 22.5281V25.0938H96.6611V21.5281Z" fill="white"/>
<path d="M101.686 24.0875C101.74 24.1438 101.794 24.1969 101.851 24.2469C101.918 24.3031 101.99 24.3563 102.067 24.4C102.152 24.45 102.241 24.4906 102.337 24.5188C102.445 24.5531 102.559 24.5688 102.67 24.5656C102.851 24.5813 103.032 24.5281 103.182 24.4219C103.286 24.3375 103.35 24.2094 103.347 24.075C103.347 24.0063 103.331 23.9375 103.299 23.875C103.261 23.8094 103.207 23.7563 103.14 23.7219C103.048 23.6688 102.953 23.6313 102.851 23.6031C102.705 23.5625 102.559 23.5281 102.41 23.5031C102.248 23.475 102.092 23.425 101.946 23.3531C101.826 23.2938 101.714 23.2094 101.622 23.1125C101.54 23.0219 101.473 22.9188 101.429 22.8063C101.384 22.6969 101.362 22.5781 101.362 22.4625C101.362 22.3281 101.387 22.1969 101.444 22.0719C101.501 21.9469 101.587 21.8344 101.695 21.7469C101.819 21.6469 101.965 21.5688 102.118 21.5188C102.312 21.4594 102.511 21.4281 102.715 21.4344C102.892 21.4344 103.071 21.4531 103.242 21.5C103.372 21.5344 103.496 21.5844 103.614 21.65C103.696 21.6969 103.775 21.7531 103.845 21.8188C103.899 21.875 103.937 21.9125 103.963 21.9375L103.48 22.3531C103.461 22.3375 103.429 22.3125 103.388 22.275C103.34 22.2344 103.286 22.1969 103.229 22.1656C103.156 22.125 103.08 22.0938 102.997 22.0688C102.899 22.0375 102.797 22.025 102.695 22.025C102.607 22.025 102.518 22.0344 102.432 22.0625C102.365 22.0844 102.302 22.1156 102.248 22.1594C102.204 22.1938 102.165 22.2375 102.14 22.2906C102.117 22.3344 102.105 22.3781 102.105 22.4281C102.105 22.4875 102.118 22.5469 102.143 22.6C102.175 22.6563 102.216 22.7031 102.27 22.7375C102.346 22.7875 102.429 22.8281 102.518 22.8531C102.648 22.8938 102.781 22.925 102.915 22.9469C103.064 22.975 103.21 23.0188 103.353 23.0781C103.487 23.1313 103.614 23.2063 103.725 23.3C103.833 23.3906 103.918 23.5063 103.982 23.6313C104.049 23.7781 104.083 23.9375 104.077 24.1C104.077 24.25 104.042 24.4 103.972 24.5313C103.899 24.6656 103.801 24.7844 103.68 24.8781C103.55 24.9813 103.397 25.0625 103.239 25.1125C103.057 25.1688 102.87 25.1969 102.68 25.1969C102.502 25.1969 102.324 25.1781 102.152 25.1313C102.006 25.0938 101.864 25.0375 101.727 24.9688C101.61 24.9094 101.501 24.8375 101.4 24.7531C101.317 24.6844 101.241 24.6094 101.168 24.5281L101.686 24.0938V24.0875Z" fill="white"/>
<path d="M105.41 21.5281H106.147V23.6625C106.147 23.7875 106.16 23.9094 106.191 24.0281C106.217 24.1313 106.267 24.225 106.334 24.3063C106.404 24.3875 106.496 24.4469 106.598 24.4844C106.858 24.5656 107.141 24.5656 107.401 24.4844C107.503 24.45 107.595 24.3875 107.665 24.3063C107.731 24.225 107.782 24.1313 107.807 24.0281C107.839 23.9094 107.852 23.7844 107.852 23.6625V21.5281H108.586V23.7781C108.586 23.9688 108.551 24.1563 108.481 24.3344C108.411 24.5031 108.306 24.6563 108.173 24.7813C108.03 24.9125 107.859 25.0156 107.674 25.0813C107.239 25.2281 106.763 25.2281 106.328 25.0813C106.143 25.0156 105.972 24.9125 105.829 24.7813C105.693 24.6563 105.588 24.5031 105.521 24.3344C105.451 24.1563 105.413 23.9688 105.417 23.7781L105.41 21.5281Z" fill="white"/>
<path d="M109.951 21.5281H111.241C111.454 21.5219 111.663 21.5563 111.863 21.6281C112.019 21.6844 112.158 21.775 112.276 21.8875C112.466 22.075 112.574 22.325 112.581 22.5906C112.584 22.8 112.53 23.0063 112.419 23.1875C112.301 23.3719 112.13 23.5156 111.927 23.6031L112.825 25.0969H111.996L111.209 23.6906H110.656V25.0969H109.951V21.5281ZM111.247 23.1313C111.406 23.1406 111.562 23.0875 111.682 22.9813C111.784 22.8875 111.838 22.7563 111.838 22.6188C111.841 22.475 111.784 22.3406 111.676 22.2438C111.558 22.1438 111.406 22.0938 111.25 22.1H110.663V23.1313H111.25H111.247Z" fill="white"/>
<path d="M115.071 21.5281H115.83L117.303 25.0938H116.487L116.15 24.1906H114.706L114.369 25.0938H113.601L115.074 21.5281H115.071ZM115.941 23.6344L115.427 22.25L114.909 23.6344H115.941Z" fill="white"/>
<path d="M118.348 21.5281H119.088L120.971 24.0625V21.5281H121.689V25.0938H120.965L119.062 22.5281V25.0938H118.345V21.5281H118.348Z" fill="white"/>
<path d="M126.509 24.4406C126.439 24.5344 126.36 24.6188 126.268 24.6906C126.157 24.7813 126.033 24.8625 125.902 24.9281C125.756 25.0031 125.601 25.0625 125.439 25.1062C125.267 25.1531 125.089 25.175 124.912 25.175C124.639 25.1781 124.369 25.1313 124.111 25.0375C123.88 24.95 123.667 24.8188 123.489 24.6469C123.314 24.4813 123.175 24.2813 123.083 24.0625C122.889 23.5906 122.889 23.0625 123.083 22.5906C123.178 22.3656 123.318 22.1625 123.492 21.9937C123.673 21.8187 123.889 21.6813 124.124 21.5875C124.381 21.4844 124.658 21.4344 124.934 21.4375C125.112 21.4375 125.29 21.4531 125.461 21.4938C125.61 21.5281 125.756 21.5781 125.896 21.6469C126.02 21.7062 126.137 21.7844 126.242 21.875C126.341 21.9594 126.43 22.0531 126.509 22.1563L125.992 22.5781C125.874 22.4219 125.725 22.2875 125.557 22.1813C125.369 22.075 125.153 22.0219 124.934 22.0313C124.42 22.0219 123.956 22.3406 123.787 22.8187C123.73 22.975 123.702 23.1406 123.702 23.3094C123.702 23.4719 123.73 23.6375 123.787 23.7906C123.841 23.9344 123.924 24.0688 124.029 24.1812C124.134 24.2906 124.264 24.3813 124.404 24.4406C124.559 24.5063 124.728 24.5406 124.896 24.5375C125.042 24.5375 125.185 24.5219 125.325 24.4844C125.433 24.4531 125.534 24.4094 125.63 24.35C125.706 24.3031 125.775 24.2469 125.839 24.1812C125.896 24.1219 125.947 24.0719 125.995 24.0281L126.503 24.4406H126.509Z" fill="white"/>
<path d="M127.634 21.5281H130.155V22.1219H128.374V22.9625H129.685V23.5625H128.374V24.4938H130.289V25.0969H127.637V21.5313L127.634 21.5281Z" fill="white"/>
</g>
<defs>
<clipPath id="clip0_20_442">
<rect width="141" height="30" fill="white"/>
</clipPath>
</defs>
</svg>
