<svg width="141" height="19" viewBox="0 0 141 19" fill="none" xmlns="http://www.w3.org/2000/svg">
<g clip-path="url(#clip0_20_589)">
<path d="M28.5052 4.23311L28.0518 3.87967H32.6147L33.066 4.23311H32.1115V7.40999L31.5076 7.05655V6.06773C31.3391 6.19031 31.1485 6.28633 30.9339 6.35784C30.7274 6.42322 30.5147 6.4559 30.3001 6.4559C29.9451 6.4559 29.6222 6.35171 29.3354 6.14537C29.0546 5.93902 28.8721 5.67752 28.7919 5.36289C29.0787 5.36289 29.3274 5.3016 29.536 5.17902C29.7426 5.05236 29.8471 4.90117 29.8471 4.72752C29.8471 4.63762 29.8268 4.54773 29.7867 4.45988C29.7406 4.37612 29.6766 4.30053 29.5963 4.23515H28.5012L28.5052 4.23311ZM30.1036 6.10451C30.3242 6.10451 30.5569 6.05139 30.7975 5.94924C31.0463 5.84096 31.2849 5.69182 31.5116 5.50386V4.23311H29.903C30.1036 4.47827 30.2039 4.71322 30.2039 4.93999C30.2039 5.12795 30.1116 5.29547 29.9231 5.44053C29.7285 5.58558 29.488 5.67752 29.1992 5.71633C29.2794 5.83483 29.4036 5.92881 29.5721 5.99827C29.7325 6.06773 29.911 6.10451 30.1036 6.10451ZM28.8984 8.18633L29.0488 8.04537C29.845 8.42128 30.6172 8.61128 31.3593 8.61128C31.6803 8.61128 31.953 8.56225 32.1737 8.46214C32.4023 8.36816 32.5144 8.25171 32.5144 8.11687C32.5144 8.00042 32.4542 7.90031 32.3339 7.82064C32.2196 7.73483 32.0794 7.69397 31.9109 7.69397C31.7424 7.69397 31.5318 7.74096 31.2591 7.83494L30.8579 7.51623C31.1588 7.42225 31.4095 7.37526 31.6101 7.37526C31.933 7.37526 32.2037 7.45494 32.4244 7.61429C32.653 7.76956 32.7651 7.95956 32.7651 8.18633C32.7651 8.37838 32.6289 8.5459 32.3542 8.68687C32.0794 8.82375 31.7484 8.89117 31.3593 8.89117C31.0104 8.89117 30.6251 8.82988 30.2039 8.7073C29.7807 8.59085 29.3454 8.41515 28.8962 8.18429L28.8984 8.18633ZM32.9178 4.23311L32.4665 3.87967H36.9793L37.4306 4.23311H36.4757V7.40999L35.8721 7.05655V5.43236H34.6665C34.5402 5.43236 34.4321 5.46096 34.3458 5.51612C34.2596 5.56719 34.2152 5.63461 34.2152 5.71429V6.13719C34.2152 6.1658 34.1954 6.19236 34.1553 6.21483C34.1152 6.23322 34.0688 6.24343 34.0147 6.24343C33.9004 6.24343 33.7461 6.13924 33.5536 5.93289C33.359 5.72042 33.2607 5.55494 33.2607 5.43236C33.2607 5.33429 33.3209 5.25053 33.4433 5.18515C33.5556 5.11569 33.6978 5.07891 33.8642 5.07891H35.8739V4.23311H32.9196H32.9178ZM36.7765 3.87967H39.2598L39.711 4.23311H38.7561V7.40999L38.1526 7.05655V4.23311H37.2278L36.7765 3.87967ZM39.5105 4.23311L39.057 3.87967H42.7958L43.2489 4.23311H42.182L42.2823 5.00945H40.774C40.6597 5.00945 40.5675 5.04418 40.4933 5.11569C40.413 5.18107 40.3729 5.26279 40.3729 5.36289C40.3729 5.4201 40.413 5.46913 40.4933 5.50999C40.5675 5.55289 40.6617 5.57332 40.774 5.57332C40.8864 5.57332 41.0546 5.54881 41.2773 5.50182C41.4979 5.45483 41.6664 5.43236 41.7787 5.43236C41.9993 5.43236 42.22 5.52633 42.4426 5.71429C42.6712 5.90225 42.7838 6.09021 42.7838 6.28021C42.7838 6.44978 42.6692 6.60504 42.4426 6.74601C42.2139 6.88698 41.9271 6.97891 41.5781 7.02182L42.7336 7.86967L42.4305 8.04537L41.2755 7.05655C41.1611 7.08107 40.9925 7.09128 40.7718 7.09128C40.5913 7.09128 40.4371 7.05451 40.3087 6.97891C40.1824 6.90332 40.1182 6.81139 40.1182 6.70311C40.1182 6.63773 40.1583 6.57848 40.2385 6.52741C40.3127 6.48042 40.405 6.4559 40.5193 6.4559C40.6738 6.4559 40.814 6.47633 40.9423 6.51924C41.0707 6.56623 41.163 6.62752 41.2231 6.70311C41.5721 6.70311 41.867 6.64795 42.1076 6.54171C42.3543 6.42935 42.4789 6.29451 42.4789 6.13924C42.4789 6.04117 42.4287 5.95741 42.3285 5.89203C42.2342 5.82257 42.1179 5.7858 41.9775 5.7858C41.8692 5.7858 41.7185 5.81031 41.524 5.8573C41.3294 5.90429 41.179 5.92881 41.0727 5.92881C40.8641 5.92881 40.6296 5.81848 40.3689 5.5958C40.1001 5.37515 39.9678 5.17902 39.9678 5.00945C39.9678 4.91139 40.0179 4.82762 40.1182 4.76225C40.2125 4.69279 40.3288 4.65601 40.4692 4.65601H41.7769V4.23311H39.5042H39.5105ZM43.0483 4.23311L42.597 3.87967H46.7889L47.2402 4.23311H46.1052V5.46913H45.4032C45.0281 5.46913 44.709 5.56311 44.4483 5.75107C44.1795 5.93494 44.0453 6.15762 44.0453 6.42117C44.0453 6.59483 44.1494 6.74601 44.356 6.87268C44.5646 6.99526 44.8113 7.05655 45.1001 7.05655C45.3889 7.05655 45.6439 7.02386 45.9046 6.95849C46.1593 6.89311 46.394 6.79504 46.6066 6.66838L47.0095 7.02182C46.7949 7.14848 46.5544 7.24451 46.2857 7.30988C46.0189 7.37526 45.7399 7.40999 45.4511 7.40999C44.9216 7.40999 44.4723 7.27719 44.1053 7.01365C43.7302 6.75623 43.5417 6.43956 43.5417 6.06773C43.5417 5.80418 43.6821 5.5815 43.9629 5.39762C44.2517 5.20967 44.5969 5.11569 44.998 5.11569H45.5013V4.23311H43.0483ZM43.1686 2.11451C43.65 2.11451 44.1637 2.27182 44.7052 2.58848C45.2407 2.90311 45.7339 3.33418 46.1832 3.87967H45.8823C45.5474 3.47515 45.1563 3.15848 44.707 2.92762C44.2577 2.69268 43.8127 2.57418 43.3714 2.57418L43.1709 2.11451H43.1686ZM47.088 4.23311L46.6345 3.87967H50.9068L51.3581 4.23311H50.3332V5.23623H48.927C48.8127 5.23623 48.7184 5.26687 48.6442 5.32816C48.564 5.38945 48.524 5.463 48.524 5.54676C48.524 5.63053 48.564 5.70203 48.6442 5.75924C48.7184 5.82053 48.8106 5.85117 48.927 5.85117C49.0132 5.85117 49.1378 5.83279 49.2982 5.79397C49.4647 5.75515 49.5931 5.73676 49.6813 5.73676C49.936 5.73676 50.1906 5.84096 50.4453 6.0473C50.706 6.24956 50.8364 6.45182 50.8364 6.65408C50.8364 6.86655 50.7281 7.04429 50.5155 7.19139C50.3009 7.34257 50.0403 7.41612 49.7315 7.41612C49.3022 7.41612 48.8728 7.28128 48.4436 7.01365C48.0144 6.74193 47.6574 6.37827 47.3686 5.92676L47.519 5.85526C47.8259 6.22709 48.1588 6.52128 48.5138 6.73784C48.8748 6.9544 49.2138 7.06268 49.5287 7.06268C49.7774 7.06268 49.99 6.9973 50.1725 6.86451C50.347 6.72762 50.4335 6.56623 50.4335 6.37623C50.4335 6.29655 50.3833 6.22709 50.283 6.17193C50.1888 6.11472 50.0724 6.08612 49.932 6.08612C49.8378 6.08612 49.7032 6.10451 49.5287 6.14332C49.3542 6.1801 49.222 6.20053 49.1257 6.20053C48.8911 6.20053 48.6562 6.09225 48.4215 5.87569C48.1869 5.65913 48.0706 5.44461 48.0706 5.23214C48.0706 5.13408 48.1349 5.05031 48.2613 4.98494C48.3876 4.91547 48.5419 4.8787 48.7224 4.8787H49.928V4.22902H47.084L47.088 4.23311ZM54.5752 4.23311L54.1239 3.87967H57.8625L58.3158 4.23311H57.2506L57.3509 5.00945H55.8426C55.7283 5.00945 55.6362 5.04418 55.562 5.11569C55.4818 5.18107 55.4415 5.26279 55.4415 5.36289C55.4415 5.4201 55.4818 5.46913 55.562 5.50999C55.6362 5.55289 55.7283 5.57332 55.8426 5.57332C55.9569 5.57332 56.1236 5.54881 56.3462 5.50182C56.5669 5.45483 56.7353 5.43236 56.8476 5.43236C57.0683 5.43236 57.2909 5.52633 57.5115 5.71429C57.7402 5.90225 57.8545 6.09021 57.8545 6.28021C57.8545 6.44978 57.7402 6.60504 57.5115 6.74601C57.2849 6.88698 56.9961 6.97891 56.6471 7.02182L57.8022 7.86967L57.5013 8.04537L56.3462 7.05655C56.2319 7.08107 56.0652 7.09128 55.8426 7.09128C55.6621 7.09128 55.5078 7.05451 55.3815 6.97891C55.2551 6.90332 55.1908 6.81139 55.1908 6.70311C55.1908 6.63773 55.2311 6.57848 55.3113 6.52741C55.3855 6.48042 55.4776 6.4559 55.5919 6.4559C55.7463 6.4559 55.8867 6.47633 56.0151 6.51924C56.1414 6.56623 56.2359 6.62752 56.2961 6.70311C56.6451 6.70311 56.9397 6.64795 57.1804 6.54171C57.4291 6.42935 57.5514 6.29451 57.5514 6.13924C57.5514 6.04117 57.5013 5.95741 57.401 5.89203C57.3068 5.82257 57.1886 5.7858 57.0482 5.7858C56.9399 5.7858 56.7893 5.81031 56.5947 5.8573C56.4002 5.90429 56.2498 5.92881 56.1435 5.92881C55.9349 5.92881 55.7022 5.81848 55.4415 5.5958C55.1727 5.37515 55.0385 5.17902 55.0385 5.00945C55.0385 4.91139 55.0887 4.82762 55.1889 4.76225C55.2812 4.69279 55.3995 4.65601 55.5399 4.65601H56.8454V4.23311H54.573H54.5752ZM56.5548 2.60891L57.058 2.25547L57.5595 2.60891L57.058 2.96236L56.5548 2.60891ZM58.1634 4.23311L57.7099 3.87967H59.1883C59.0278 3.76322 58.9035 3.63859 58.8172 3.5058C58.729 3.36891 58.6869 3.23612 58.6869 3.10332C58.6869 2.86838 58.805 2.66816 59.0397 2.50268C59.2743 2.33719 59.5593 2.25547 59.8943 2.25547C60.2553 2.25547 60.6302 2.38214 61.0193 2.63752C61.4084 2.89085 61.7536 3.23612 62.0544 3.66924L61.8037 3.7387C61.5891 3.39547 61.3101 3.12171 60.9691 2.91945C60.6342 2.71311 60.2934 2.60891 59.9444 2.60891C59.7639 2.60891 59.6093 2.65795 59.4829 2.75805C59.3546 2.85203 59.2904 2.96644 59.2904 3.10332C59.2904 3.21569 59.3345 3.34031 59.4207 3.47719C59.509 3.60999 59.6336 3.74279 59.794 3.87967H60.1951L60.6482 4.23311H59.6937V7.40999L59.0898 7.05655V4.23311H58.1654H58.1634ZM60.4459 4.23311L59.9924 3.87967H64.2647L64.716 4.23311H63.6909V5.23623H62.2829C62.1685 5.23623 62.0743 5.26687 62.0021 5.32816C61.9218 5.38945 61.8817 5.463 61.8817 5.54676C61.8817 5.63053 61.9218 5.70203 62.0021 5.75924C62.0763 5.82053 62.1685 5.85117 62.2829 5.85117C62.3691 5.85117 62.4935 5.83279 62.6539 5.79397C62.8224 5.75515 62.9488 5.73676 63.035 5.73676C63.2897 5.73676 63.5444 5.84096 63.7992 6.0473C64.0599 6.24956 64.1905 6.45182 64.1905 6.65408C64.1905 6.86655 64.082 7.04429 63.8694 7.19139C63.6548 7.34257 63.394 7.41612 63.0851 7.41612C62.6559 7.41612 62.2289 7.28128 61.7997 7.01365C61.3705 6.74193 61.0113 6.37827 60.7244 5.92676L60.8749 5.85526C61.1838 6.22709 61.5149 6.52128 61.8699 6.73784C62.2309 6.9544 62.5697 7.06268 62.8846 7.06268C63.1333 7.06268 63.3481 6.9973 63.5286 6.86451C63.7031 6.72762 63.7893 6.56623 63.7893 6.37623C63.7893 6.29655 63.7392 6.22709 63.6389 6.17193C63.5446 6.11472 63.4281 6.08612 63.2857 6.08612C63.1914 6.08612 63.0573 6.10451 62.8828 6.14332C62.7083 6.1801 62.5739 6.20053 62.4816 6.20053C62.247 6.20053 62.0121 6.09225 61.7774 5.87569C61.5428 5.65913 61.4264 5.44461 61.4264 5.23214C61.4264 5.13408 61.4886 5.05031 61.617 4.98494C61.7453 4.91547 61.8998 4.8787 62.0783 4.8787H63.2839V4.22902H60.4396L60.4459 4.23311ZM64.5154 4.23311L64.0641 3.87967H68.6271L69.0783 4.23311H68.1234V7.40999L67.5199 7.05655V6.06773C67.3515 6.19031 67.1607 6.28633 66.9461 6.35784C66.7375 6.42322 66.5271 6.4559 66.3125 6.4559C65.9575 6.4559 65.6346 6.35171 65.3478 6.14537C65.065 5.93902 64.8865 5.67752 64.8042 5.36289C65.091 5.36289 65.3397 5.3016 65.5483 5.17902C65.7569 5.05236 65.859 4.90117 65.859 4.72752C65.859 4.63762 65.8392 4.54773 65.799 4.45988C65.7509 4.37612 65.6885 4.30053 65.6083 4.23515H64.5132L64.5154 4.23311ZM66.1137 6.10451C66.3344 6.10451 66.567 6.05139 66.8077 5.94924C67.0544 5.84096 67.2931 5.69182 67.5217 5.50386V4.23311H65.9132C66.1137 4.47827 66.214 4.71322 66.214 4.93999C66.214 5.12795 66.12 5.29547 65.9314 5.44053C65.7369 5.58558 65.496 5.67752 65.2072 5.71633C65.2874 5.83483 65.4117 5.92881 65.5782 5.99827C65.7387 6.06773 65.9172 6.10451 66.1097 6.10451H66.1137ZM68.4265 3.87967H70.9095L71.3626 4.23311H70.4081V7.40999L69.8042 7.05655V4.23311H68.8796L68.4265 3.87967ZM74.5779 4.23311L74.1267 3.87967H77.8653L78.3166 4.23311H77.2515L77.3518 5.00945H75.8435C75.7292 5.00945 75.6349 5.04418 75.5627 5.11569C75.4825 5.18107 75.4424 5.26279 75.4424 5.36289C75.4424 5.4201 75.4825 5.46913 75.5627 5.50999C75.637 5.55289 75.7292 5.57332 75.8435 5.57332C75.9579 5.57332 76.1241 5.54881 76.3468 5.50182C76.5674 5.45483 76.7361 5.43236 76.8504 5.43236C77.071 5.43236 77.2916 5.52633 77.5143 5.71429C77.7429 5.90225 77.855 6.09021 77.855 6.28021C77.855 6.44978 77.7409 6.60504 77.5143 6.74601C77.2856 6.88698 76.9988 6.97891 76.6498 7.02182L77.8049 7.86967L77.5041 8.04537L76.349 7.05655C76.2346 7.08107 76.068 7.09128 75.8453 7.09128C75.6648 7.09128 75.5106 7.05451 75.3842 6.97891C75.2559 6.90332 75.1935 6.81139 75.1935 6.70311C75.1935 6.63773 75.2338 6.57848 75.314 6.52741C75.3882 6.48042 75.4825 6.4559 75.5968 6.4559C75.7513 6.4559 75.8917 6.47633 76.02 6.51924C76.1464 6.56623 76.2405 6.62752 76.3006 6.70311C76.6496 6.70311 76.9447 6.64795 77.1853 6.54171C77.432 6.42935 77.5564 6.29451 77.5564 6.13924C77.5564 6.04117 77.5063 5.95741 77.406 5.89203C77.3117 5.82257 77.1954 5.7858 77.055 5.7858C76.9467 5.7858 76.796 5.81031 76.6015 5.8573C76.4069 5.90429 76.2565 5.92881 76.1502 5.92881C75.9416 5.92881 75.7092 5.81848 75.4464 5.5958C75.1797 5.37515 75.0453 5.17902 75.0453 5.00945C75.0453 4.91139 75.0954 4.82762 75.1957 4.76225C75.29 4.69279 75.4061 4.65601 75.5485 4.65601H76.8544V4.23311H74.582H74.5779ZM76.5576 2.60891L77.059 2.25547L77.5622 2.60891L77.059 2.96236L76.5576 2.60891ZM78.5773 4.30257C78.5773 4.18612 78.6515 4.08601 78.7979 4.00633C78.9443 3.92257 79.1228 3.87967 79.3294 3.87967C79.7988 3.87967 80.1997 4.01859 80.5346 4.29644C80.8696 4.56816 81.0383 4.90117 81.0383 5.29139C81.0383 5.55902 80.954 5.79805 80.7876 6.0044C80.6271 6.21279 80.4083 6.34967 80.1335 6.42117L81.1386 7.33848L80.7876 7.47945L79.8327 6.49064H79.6321C79.3834 6.49064 79.1708 6.43752 78.9883 6.32719C78.8138 6.21483 78.7277 6.07999 78.7277 5.92472C78.7277 5.83483 78.7678 5.75924 78.8481 5.69795C78.9223 5.63666 79.0145 5.60601 79.1289 5.60601C79.2171 5.60601 79.3234 5.63666 79.4498 5.69795C79.5701 5.75924 79.6983 5.84504 79.8327 5.95945C80.0071 5.95945 80.1638 5.90838 80.3062 5.80418C80.4406 5.70612 80.5168 5.5815 80.5369 5.43031C79.9532 5.31386 79.4817 5.15042 79.1206 4.94203C78.7596 4.72956 78.5773 4.51709 78.5773 4.29848V4.30257ZM80.587 3.87967H81.301L81.7523 4.23311H80.9881L80.5848 3.87967H80.587ZM79.1808 4.51504C79.1808 4.6315 79.3052 4.76021 79.5519 4.89709C79.8006 5.03397 80.1277 5.15451 80.5369 5.25666C80.6111 4.95021 80.5569 4.68053 80.3764 4.44558C80.1959 4.21064 79.947 4.09214 79.6321 4.09214C79.5057 4.09214 79.3976 4.13504 79.3114 4.21881C79.2251 4.29848 79.1808 4.39859 79.1808 4.51504ZM81.5517 4.23311L81.1005 3.87967H85.6634L86.1165 4.23311H85.162V7.40999L84.5581 7.05655V6.06773C84.3916 6.19031 84.199 6.28633 83.9844 6.35784C83.7778 6.42322 83.5654 6.4559 83.3528 6.4559C82.9978 6.4559 82.6749 6.35171 82.3881 6.14537C82.1073 5.93902 81.9268 5.67752 81.8446 5.36289C82.1334 5.36289 82.3801 5.3016 82.5887 5.17902C82.7953 5.05236 82.8994 4.90117 82.8994 4.72752C82.8994 4.63762 82.8795 4.54773 82.8394 4.45988C82.7933 4.37612 82.7289 4.30053 82.6486 4.23515H81.5535L81.5517 4.23311ZM83.1501 6.10451C83.3707 6.10451 83.6013 6.05139 83.844 5.94924C84.0927 5.84096 84.3294 5.69182 84.5581 5.50386V4.23311H82.9495C83.1501 4.47827 83.2504 4.71322 83.2504 4.93999C83.2504 5.12795 83.1561 5.29547 82.9696 5.44053C82.775 5.58558 82.5345 5.67752 82.2457 5.71633C82.3259 5.83483 82.4503 5.92881 82.6168 5.99827C82.7772 6.06773 82.9557 6.10451 83.1483 6.10451H83.1501ZM84.1551 7.86967C84.1551 7.72461 84.2251 7.59999 84.3655 7.4958C84.4999 7.3916 84.6644 7.34053 84.8589 7.34053C85.3002 7.34053 85.7795 7.46719 86.297 7.72257C86.8125 7.9759 87.3061 8.33343 87.7734 8.78902L87.5728 8.86053C87.2318 8.50709 86.8427 8.22924 86.4075 8.02698C85.9723 7.82881 85.5388 7.73074 85.1096 7.73074C84.9552 7.73074 84.8248 7.76139 84.7165 7.82268C84.6102 7.88397 84.5563 7.95956 84.5563 8.04945C84.5563 8.13935 84.6102 8.21289 84.7165 8.27623C84.8248 8.33752 84.9552 8.36816 85.1096 8.36816C85.236 8.36816 85.3603 8.34978 85.4807 8.31096C85.601 8.27214 85.7113 8.22106 85.8116 8.15569L86.2651 8.43762C86.1588 8.5173 86.0304 8.57859 85.884 8.6215C85.7356 8.6644 85.579 8.68483 85.4105 8.68483C85.1357 8.68483 84.8571 8.59289 84.5763 8.40902C84.2955 8.22924 84.1551 8.0515 84.1551 7.87171V7.86967ZM85.9643 4.23311L85.5108 3.87967H88.8183L89.2696 4.23311H87.6932C87.8616 4.43537 87.9439 4.68257 87.9439 4.97472C87.9439 5.14838 87.8735 5.31386 87.7331 5.46913C87.5867 5.62848 87.3883 5.75924 87.1416 5.8573L89.051 7.26902L88.7501 7.44472L86.6903 5.92676C86.564 5.83279 86.4617 5.73676 86.3895 5.63666C86.3233 5.54268 86.2892 5.45074 86.2892 5.36085C86.2892 5.28117 86.3333 5.21375 86.4195 5.16268C86.5058 5.10547 86.6141 5.07687 86.7405 5.07687C86.8608 5.07687 86.9651 5.08504 87.0513 5.0973C87.1396 5.10752 87.2018 5.12386 87.2419 5.14633C87.3361 5.08913 87.4102 5.02171 87.4623 4.94203C87.5165 4.86236 87.5427 4.77859 87.5427 4.6887C87.5427 4.59472 87.5267 4.50687 87.4926 4.42719C87.4585 4.3516 87.4104 4.28623 87.3422 4.22902H85.9661L85.9643 4.23311ZM85.2001 2.11451C85.6835 2.11451 86.1947 2.27182 86.7383 2.58848C87.2738 2.90311 87.7674 3.33418 88.2166 3.87967H87.9136C87.5786 3.47515 87.1875 3.15848 86.7383 2.92762C86.289 2.69268 85.8439 2.57418 85.4007 2.57418L85.2001 2.11451ZM88.064 2.96236L87.5608 2.60891L88.064 2.25547L88.5654 2.60891L88.064 2.96236ZM89.1192 4.23311L88.6679 3.87967H93.6821L94.1352 4.23311H93.1807V7.40999L92.5768 7.05655V5.57332C92.2278 5.71429 91.9272 5.78375 91.6724 5.78375C91.3375 5.78375 91.0525 5.73676 90.8178 5.64279C90.7637 5.74698 90.6937 5.83891 90.6074 5.91859C90.5212 5.99827 90.4227 6.05956 90.3164 6.10246C90.5631 6.4559 91.0166 6.85633 91.6724 7.30171L91.3716 7.47741L90.2161 6.48859C89.9875 6.30064 89.8152 6.11472 89.6948 5.93085C89.5745 5.74698 89.5141 5.57945 89.5141 5.43031C89.5141 5.34042 89.5522 5.26483 89.6345 5.20354C89.7087 5.14225 89.8009 5.1116 89.9153 5.1116C90.0697 5.1116 90.2043 5.13408 90.3186 5.18107C90.453 5.01762 90.5192 4.8644 90.5192 4.72139C90.5192 4.61719 90.5031 4.52322 90.469 4.43945C90.4349 4.35365 90.3848 4.28418 90.3186 4.22698H89.1232L89.1192 4.23311ZM91.7727 5.43236C91.9332 5.43236 92.0816 5.41397 92.216 5.37515C92.3564 5.33838 92.4765 5.28526 92.5768 5.21988V4.23107H90.7677C90.8479 4.31074 90.9123 4.41902 90.9584 4.5559C90.9985 4.69687 91.0184 4.85827 91.0184 5.04214C91.0184 5.10343 90.9843 5.19741 90.9181 5.32408C90.9783 5.35676 91.0828 5.38332 91.2292 5.40171C91.3696 5.4201 91.5501 5.43031 91.7727 5.43031V5.43236ZM97.3505 4.23311L96.8971 3.87967H102.696L103.149 4.23311H100.776V5.29139C100.891 5.22193 101.001 5.16881 101.109 5.13612C101.209 5.09934 101.3 5.07891 101.38 5.07891C101.729 5.07891 102.024 5.18924 102.264 5.41193C102.513 5.63257 102.637 5.90021 102.637 6.2087C102.637 6.44773 102.503 6.73171 102.236 7.05655L101.783 6.73988C102.05 6.48042 102.184 6.18623 102.184 5.8573C102.184 5.74902 102.134 5.65709 102.034 5.5815C101.94 5.5059 101.821 5.46913 101.681 5.46913C101.54 5.46913 101.38 5.49773 101.22 5.55289C101.065 5.60397 100.917 5.6816 100.776 5.7858V7.40999L100.175 7.05655V6.2087C99.994 6.29859 99.8236 6.36805 99.6611 6.42117C99.4946 6.46816 99.346 6.49064 99.2197 6.49064C98.8987 6.49064 98.5758 6.36805 98.2549 6.12289C97.926 5.87773 97.7615 5.63666 97.7615 5.39558C97.7615 5.21171 97.858 5.0544 98.0525 4.9216C98.2531 4.79085 98.4918 4.72343 98.7666 4.72343C98.9812 4.72343 99.2118 4.76633 99.4605 4.8501C99.7012 4.9359 99.9399 5.05644 100.175 5.21784V4.22902H97.3505V4.23311ZM98.9689 6.10451C99.1695 6.10451 99.3743 6.07182 99.5829 6.0044C99.7975 5.93494 99.9939 5.83687 100.176 5.71429V5.36085C100.042 5.28117 99.8777 5.21988 99.6832 5.17698C99.4966 5.13408 99.2921 5.11365 99.0714 5.11365C98.8628 5.11365 98.6863 5.16472 98.5379 5.26892C98.3915 5.37311 98.3171 5.49773 98.3171 5.64279C98.3171 5.76945 98.3815 5.87773 98.5078 5.96762C98.6342 6.05752 98.7884 6.10246 98.9689 6.10246V6.10451ZM99.974 2.60891L100.475 2.25547L100.979 2.60891L100.475 2.96236L99.974 2.60891ZM102.998 4.23311L102.545 3.87967H106.908L107.359 4.23311H106.404V7.40999L105.801 7.05655V5.92676C105.674 6.01461 105.536 6.08612 105.389 6.13924C105.241 6.18623 105.095 6.2087 104.946 6.2087C104.671 6.2087 104.36 6.08203 104.011 5.82666C103.662 5.57332 103.49 5.34655 103.49 5.14838V4.23107H102.997L102.998 4.23311ZM104.697 5.8573C104.886 5.8573 105.076 5.81236 105.271 5.72246C105.465 5.63666 105.642 5.51816 105.802 5.36289V4.23311H104.094V5.43236C104.094 5.54881 104.154 5.64892 104.274 5.72859C104.389 5.81236 104.529 5.85526 104.695 5.85526L104.697 5.8573ZM107.16 4.23311L106.709 3.87967H111.222L111.675 4.23311H110.72V7.40999L110.117 7.05655V5.43236H108.911C108.785 5.43236 108.677 5.46096 108.59 5.51612C108.504 5.56719 108.46 5.63461 108.46 5.71429V6.13719C108.46 6.1658 108.44 6.19236 108.4 6.21483C108.36 6.23322 108.311 6.24343 108.259 6.24343C108.147 6.24343 107.993 6.13924 107.798 5.93289C107.603 5.72042 107.507 5.55494 107.507 5.43236C107.507 5.33429 107.567 5.25053 107.69 5.18515C107.802 5.11569 107.945 5.07891 108.111 5.07891H110.121V4.23311H107.166H107.16ZM109.984 2.89085C109.984 2.67429 110.073 2.49042 110.245 2.34128C110.426 2.1901 110.64 2.11451 110.889 2.11451C111.218 2.11451 111.567 2.2759 111.934 2.60279C112.303 2.92354 112.624 3.34848 112.899 3.87967H113.502L113.956 4.23311H113.001V7.40999L112.397 7.05655V4.23311H111.472L111.021 3.87967H112.65C112.443 3.47515 112.204 3.15031 111.936 2.90515C111.667 2.65999 111.42 2.53741 111.192 2.53741C111.025 2.53741 110.885 2.5987 110.77 2.72128C110.65 2.84795 110.59 2.99913 110.59 3.17279C110.59 3.27289 110.6 3.35666 110.62 3.42816C110.634 3.49762 110.656 3.55483 110.69 3.59773H110.289C110.189 3.51805 110.115 3.4159 110.068 3.29332C110.014 3.17074 109.988 3.0359 109.988 2.89085H109.984ZM117.171 4.23311L116.719 3.87967H118.195C118.095 3.79999 118.021 3.69784 117.975 3.57526C117.921 3.45268 117.895 3.31784 117.895 3.17279C117.895 2.86225 118.053 2.59666 118.368 2.37601C118.683 2.15537 119.062 2.04504 119.503 2.04504C119.878 2.04504 120.288 2.18193 120.729 2.45365C121.164 2.72128 121.577 3.09107 121.966 3.563L121.766 3.66924C121.445 3.27494 121.08 2.96236 120.671 2.73762C120.268 2.51085 119.88 2.39848 119.505 2.39848C119.231 2.39848 118.992 2.47408 118.791 2.62526C118.597 2.77644 118.5 2.96031 118.5 3.17483C118.5 3.38934 118.601 3.63655 118.801 3.88171H119.202L119.654 4.23515H118.699V7.41203L118.095 7.05859V4.23515H117.171V4.23311ZM119.451 4.23311L119 3.87967H124.337L124.79 4.23311H123.835V7.40999L123.232 7.12805V5.4344C122.965 5.4344 122.722 5.49978 122.508 5.63257C122.293 5.76537 122.149 5.93289 122.076 6.14128L121.623 5.82257L121.784 5.6101C121.824 5.55289 121.854 5.51816 121.874 5.50386C121.74 5.42418 121.605 5.36289 121.471 5.31999C121.344 5.27913 121.226 5.25666 121.12 5.25666C120.951 5.25666 120.811 5.30569 120.699 5.4058C120.578 5.49977 120.516 5.61418 120.516 5.75107C120.516 6.00031 120.62 6.24343 120.827 6.47838C121.028 6.71741 121.308 6.92375 121.671 7.09332L121.521 7.23429C121.017 6.97483 120.623 6.70924 120.336 6.43752C120.055 6.16375 119.915 5.91246 119.915 5.6816C119.915 5.46504 120.019 5.28117 120.225 5.12999C120.434 4.97881 120.681 4.90322 120.969 4.90322C121.144 4.90322 121.323 4.94816 121.503 5.03805C121.69 5.12182 121.864 5.24236 122.026 5.39762C122.193 5.28322 122.382 5.19741 122.588 5.13612C122.797 5.07483 123.011 5.04418 123.232 5.04418V4.23311H119.453H119.451ZM124.588 4.23311L124.136 3.87967H125.613C125.512 3.79999 125.438 3.69784 125.392 3.57526C125.338 3.45268 125.312 3.31784 125.312 3.17279C125.312 2.86225 125.47 2.59666 125.785 2.37601C126.1 2.15537 126.479 2.04504 126.92 2.04504C127.295 2.04504 127.705 2.18193 128.146 2.45365C128.581 2.72128 128.994 3.09107 129.383 3.563L129.183 3.66924C128.862 3.27494 128.497 2.96236 128.088 2.73762C127.685 2.51085 127.298 2.39848 126.922 2.39848C126.648 2.39848 126.411 2.47408 126.208 2.62526C126.014 2.77644 125.917 2.96031 125.917 3.17483C125.917 3.38934 126.018 3.63655 126.22 3.88171H126.623L127.075 4.23515H126.12V7.41203L125.516 7.05859V4.23515H124.592L124.588 4.23311ZM126.868 4.23311L126.417 3.87967H131.251L131.704 4.23311H130.749V7.40999L130.145 7.05655V5.8573H128.537V6.31698C128.537 6.37418 128.513 6.42322 128.467 6.46612C128.412 6.50902 128.354 6.52945 128.286 6.52945C128.132 6.52945 127.911 6.41096 127.622 6.17601C127.327 5.94515 127.179 5.76945 127.179 5.64687C127.179 5.6101 127.199 5.57741 127.239 5.54881C127.281 5.52021 127.327 5.5059 127.38 5.5059H127.933V4.23515H126.868V4.23311ZM128.537 5.50386H130.145V4.23311H128.537V5.50386ZM131.501 4.23311L131.048 3.87967H135.24L135.693 4.23311H134.558V5.46913H133.854C133.479 5.46913 133.16 5.56311 132.899 5.75107C132.63 5.93494 132.496 6.15762 132.496 6.42117C132.496 6.59483 132.6 6.74601 132.807 6.87268C133.016 6.99526 133.262 7.05655 133.551 7.05655C133.84 7.05655 134.095 7.02386 134.356 6.95849C134.61 6.89311 134.845 6.79504 135.059 6.66838L135.463 7.02182C135.248 7.14848 135.007 7.24451 134.738 7.30988C134.47 7.37526 134.193 7.40999 133.904 7.40999C133.375 7.40999 132.925 7.27719 132.558 7.01365C132.183 6.75623 131.997 6.43956 131.997 6.06773C131.997 5.80418 132.137 5.5815 132.418 5.39762C132.707 5.20967 133.052 5.11569 133.453 5.11569H133.954V4.23311H131.503H131.501ZM131.622 2.11451C132.105 2.11451 132.617 2.27182 133.16 2.58848C133.696 2.90311 134.189 3.33418 134.636 3.87967H134.335C134.001 3.47515 133.609 3.15848 133.16 2.92762C132.711 2.69268 132.266 2.57418 131.822 2.57418L131.622 2.11451ZM135.541 4.23311L135.088 3.87967H139.36L139.813 4.23311H138.788V5.23623H137.38C137.266 5.23623 137.171 5.26687 137.099 5.32816C137.019 5.38945 136.979 5.463 136.979 5.54676C136.979 5.63053 137.019 5.70203 137.099 5.75924C137.173 5.82053 137.266 5.85117 137.38 5.85117C137.466 5.85117 137.591 5.83279 137.751 5.79397C137.919 5.75515 138.046 5.73676 138.132 5.73676C138.387 5.73676 138.641 5.84096 138.896 6.0473C139.157 6.24956 139.287 6.45182 139.287 6.65408C139.287 6.86655 139.179 7.04429 138.966 7.19139C138.752 7.34257 138.491 7.41612 138.182 7.41612C137.753 7.41612 137.326 7.28128 136.897 7.01365C136.468 6.74193 136.108 6.37827 135.822 5.92676L135.972 5.85526C136.281 6.22709 136.612 6.52128 136.967 6.73784C137.328 6.9544 137.667 7.06268 137.982 7.06268C138.229 7.06268 138.443 6.9973 138.626 6.86451C138.8 6.72762 138.886 6.56623 138.886 6.37623C138.886 6.29655 138.836 6.22709 138.736 6.17193C138.642 6.11472 138.525 6.08612 138.383 6.08612C138.289 6.08612 138.154 6.10451 137.982 6.14332C137.807 6.1801 137.673 6.20053 137.578 6.20053C137.344 6.20053 137.109 6.09225 136.875 5.87569C136.64 5.65913 136.524 5.44461 136.524 5.23214C136.524 5.13408 136.586 5.05031 136.714 4.98494C136.84 4.91547 136.995 4.8787 137.176 4.8787H138.381V4.22902H135.537L135.541 4.23311Z" fill="#3150A0"/>
<path d="M28.5052 4.23311L28.0518 3.87967H32.6147L33.066 4.23311H32.1115V7.40999L31.5076 7.05655V6.06773C31.3391 6.19031 31.1485 6.28633 30.9339 6.35784C30.7274 6.42322 30.5147 6.4559 30.3001 6.4559C29.9451 6.4559 29.6222 6.35171 29.3354 6.14537C29.0546 5.93902 28.8721 5.67752 28.7919 5.36289C29.0787 5.36289 29.3274 5.3016 29.536 5.17902C29.7426 5.05236 29.8471 4.90117 29.8471 4.72752C29.8471 4.63762 29.8268 4.54773 29.7867 4.45988C29.7406 4.37612 29.6766 4.30053 29.5963 4.23515H28.5012L28.5052 4.23311ZM30.1036 6.10451C30.3242 6.10451 30.5569 6.05139 30.7975 5.94924C31.0463 5.84096 31.2849 5.69182 31.5116 5.50386V4.23311H29.903C30.1036 4.47827 30.2039 4.71322 30.2039 4.93999C30.2039 5.12795 30.1096 5.29547 29.9231 5.44053C29.7285 5.58558 29.488 5.67752 29.1992 5.71633C29.2794 5.83483 29.4036 5.92881 29.5721 5.99827C29.7325 6.06773 29.911 6.10451 30.1036 6.10451ZM28.8984 8.18633L29.0488 8.04537C29.845 8.42128 30.6172 8.61128 31.3593 8.61128C31.6803 8.61128 31.953 8.56225 32.1737 8.46214C32.4023 8.36816 32.5144 8.25171 32.5144 8.11687C32.5144 8.00042 32.4542 7.90031 32.3339 7.82064C32.2196 7.73483 32.0794 7.69397 31.9109 7.69397C31.7424 7.69397 31.5318 7.74096 31.2591 7.83494L30.8557 7.51623C31.1566 7.42225 31.4095 7.37526 31.6101 7.37526C31.931 7.37526 32.2037 7.45494 32.4244 7.61429C32.653 7.76956 32.7651 7.95956 32.7651 8.18633C32.7651 8.37838 32.6289 8.5459 32.3542 8.68687C32.0794 8.82375 31.7484 8.89117 31.3593 8.89117C31.0104 8.89117 30.6251 8.82988 30.2039 8.7073C29.7827 8.59085 29.3476 8.41515 28.8984 8.18429V8.18633ZM32.9178 4.23311L32.4643 3.87967H36.9771L37.4306 4.23311H36.4757V7.40999L35.8721 7.05655V5.43236H34.6665C34.5382 5.43236 34.4321 5.46096 34.3458 5.51612C34.2596 5.56719 34.2152 5.63461 34.2152 5.71429V6.13719C34.2152 6.1658 34.1954 6.19236 34.1553 6.21483C34.1152 6.23322 34.0668 6.24343 34.0147 6.24343C33.9004 6.24343 33.7461 6.13924 33.5536 5.93289C33.359 5.72042 33.2625 5.55494 33.2625 5.43236C33.2625 5.33429 33.3229 5.25053 33.4433 5.18515C33.5576 5.11569 33.698 5.07891 33.8665 5.07891H35.8762V4.23311H32.9218H32.9178ZM36.7765 3.87967H39.2598L39.711 4.23311H38.7561V7.40999L38.1526 7.05655V4.23311H37.2278L36.7765 3.87967ZM39.5105 4.23311L39.057 3.87967H42.7958L43.2489 4.23311H42.1839L42.2841 5.00945H40.7759C40.6635 5.00945 40.5673 5.04418 40.4951 5.11569C40.4148 5.18107 40.3747 5.26279 40.3747 5.36289C40.3747 5.4201 40.4148 5.46913 40.4951 5.50999C40.5693 5.55289 40.6635 5.57332 40.7759 5.57332C40.8882 5.57332 41.0567 5.54881 41.2773 5.50182C41.4979 5.45483 41.6666 5.43236 41.7809 5.43236C42.0015 5.43236 42.2242 5.52633 42.4448 5.71429C42.6734 5.90225 42.7856 6.09021 42.7856 6.28021C42.7856 6.44978 42.6714 6.60504 42.4448 6.74601C42.2161 6.88698 41.9293 6.97891 41.5803 7.02182L42.7354 7.86967L42.4328 8.04537L41.2773 7.05655C41.163 7.08107 40.9965 7.09128 40.7759 7.09128C40.5953 7.09128 40.4411 7.05451 40.3147 6.97891C40.1884 6.90332 40.124 6.81139 40.124 6.70311C40.124 6.63773 40.1641 6.57848 40.2443 6.52741C40.3186 6.48042 40.4108 6.4559 40.5251 6.4559C40.6796 6.4559 40.8202 6.47633 40.9485 6.51924C41.0749 6.56623 41.1692 6.62752 41.2293 6.70311C41.5783 6.70311 41.8732 6.64795 42.1139 6.54171C42.3626 6.42935 42.4847 6.29451 42.4847 6.13924C42.4847 6.04117 42.4346 5.95741 42.3343 5.89203C42.24 5.82257 42.1237 5.7858 41.9833 5.7858C41.875 5.7858 41.7247 5.81031 41.5302 5.8573C41.3356 5.90429 41.1852 5.92881 41.0789 5.92881C40.8703 5.92881 40.6355 5.81848 40.3747 5.5958C40.106 5.37515 39.9718 5.17902 39.9718 5.00945C39.9718 4.91139 40.0219 4.82762 40.1222 4.76225C40.2165 4.69279 40.3328 4.65601 40.4732 4.65601H41.7787V4.23311H39.5083H39.5105ZM43.0483 4.23311L42.5952 3.87967H46.7871L47.2402 4.23311H46.1052V5.46913H45.4032C45.0281 5.46913 44.709 5.56311 44.4483 5.75107C44.1795 5.93494 44.0453 6.15762 44.0453 6.42117C44.0453 6.59483 44.1494 6.74601 44.356 6.87268C44.5646 6.99526 44.8113 7.05655 45.1001 7.05655C45.3889 7.05655 45.6439 7.02386 45.9046 6.95849C46.1593 6.89311 46.3938 6.79504 46.6084 6.66838L47.0117 7.02182C46.7971 7.14848 46.5563 7.24451 46.2875 7.30988C46.0187 7.37526 45.7421 7.40999 45.4533 7.40999C44.9238 7.40999 44.4745 7.27719 44.1075 7.01365C43.7324 6.75623 43.5439 6.43956 43.5439 6.06773C43.5439 5.80418 43.6843 5.5815 43.9651 5.39762C44.2539 5.20967 44.5987 5.11569 44.9998 5.11569H45.5035V4.23311H43.0505H43.0483ZM43.1686 2.11451C43.65 2.11451 44.1637 2.27182 44.7052 2.58848C45.2407 2.90311 45.7339 3.33418 46.1832 3.87967H45.8823C45.5474 3.47515 45.1563 3.15848 44.707 2.92762C44.2577 2.69268 43.8127 2.57418 43.3714 2.57418L43.1709 2.11451H43.1686ZM47.088 4.23311L46.6345 3.87967H50.9068L51.3599 4.23311H50.335V5.23623H48.927C48.8127 5.23623 48.7186 5.26687 48.6464 5.32816C48.5662 5.38945 48.5258 5.463 48.5258 5.54676C48.5258 5.63053 48.5662 5.70203 48.6464 5.75924C48.7206 5.82053 48.8127 5.85117 48.927 5.85117C49.0132 5.85117 49.1378 5.83279 49.2982 5.79397C49.4647 5.75515 49.5931 5.73676 49.6813 5.73676C49.936 5.73676 50.1906 5.84096 50.4453 6.0473C50.706 6.24956 50.8364 6.45182 50.8364 6.65408C50.8364 6.86655 50.7301 7.04429 50.5155 7.19139C50.3009 7.34257 50.0403 7.41612 49.7315 7.41612C49.3022 7.41612 48.873 7.28128 48.4458 7.01365C48.0166 6.74193 47.6574 6.37827 47.3686 5.92676L47.519 5.85526C47.8259 6.22709 48.1588 6.52128 48.5138 6.73784C48.8748 6.9544 49.2138 7.06268 49.5287 7.06268C49.7774 7.06268 49.992 6.9973 50.1725 6.86451C50.347 6.72762 50.4335 6.56623 50.4335 6.37623C50.4335 6.29655 50.3833 6.22709 50.283 6.17193C50.1888 6.11472 50.0724 6.08612 49.932 6.08612C49.8378 6.08612 49.7032 6.10451 49.5287 6.14332C49.3542 6.1801 49.222 6.20053 49.1257 6.20053C48.8911 6.20053 48.6564 6.09225 48.4238 5.87569C48.1891 5.65913 48.0706 5.44461 48.0706 5.23214C48.0706 5.13408 48.1349 5.05031 48.2613 4.98494C48.3876 4.91547 48.5419 4.8787 48.7224 4.8787H49.928V4.22902H47.084L47.088 4.23311ZM54.5752 4.23311L54.1239 3.87967H57.8625L58.3158 4.23311H57.2488L57.3491 5.00945H55.8408C55.7265 5.00945 55.6322 5.04418 55.558 5.11569C55.4778 5.18107 55.4374 5.26279 55.4374 5.36289C55.4374 5.4201 55.4778 5.46913 55.558 5.50999C55.6322 5.55289 55.7265 5.57332 55.8408 5.57332C55.9551 5.57332 56.1216 5.54881 56.3422 5.50182C56.5628 5.45483 56.7311 5.43236 56.8454 5.43236C57.0661 5.43236 57.2867 5.52633 57.5093 5.71429C57.738 5.90225 57.8505 6.09021 57.8505 6.28021C57.8505 6.44978 57.736 6.60504 57.5093 6.74601C57.2807 6.88698 56.9939 6.97891 56.6449 7.02182L57.8004 7.86967L57.4973 8.04537L56.3422 7.05655C56.2279 7.08107 56.0614 7.09128 55.8408 7.09128C55.6603 7.09128 55.5056 7.05451 55.3793 6.97891C55.2509 6.90332 55.1889 6.81139 55.1889 6.70311C55.1889 6.63773 55.2289 6.57848 55.3091 6.52741C55.3833 6.48042 55.4778 6.4559 55.5901 6.4559C55.7445 6.4559 55.8847 6.47633 56.0111 6.51924C56.1394 6.56623 56.2317 6.62752 56.2939 6.70311C56.6429 6.70311 56.9379 6.64795 57.1786 6.54171C57.4253 6.42935 57.5496 6.29451 57.5496 6.13924C57.5496 6.04117 57.4995 5.95741 57.3992 5.89203C57.3049 5.82257 57.1886 5.7858 57.0482 5.7858C56.9399 5.7858 56.7893 5.81031 56.5947 5.8573C56.4002 5.90429 56.25 5.92881 56.1416 5.92881C55.9351 5.92881 55.6982 5.81848 55.4374 5.5958C55.1707 5.37515 55.0363 5.17902 55.0363 5.00945C55.0363 4.91139 55.0865 4.82762 55.1867 4.76225C55.281 4.69279 55.3975 4.65601 55.5399 4.65601H56.8454V4.23311H54.573H54.5752ZM56.5548 2.60891L57.058 2.25547L57.5595 2.60891L57.058 2.96236L56.5548 2.60891ZM58.1634 4.23311L57.7099 3.87967H59.1883C59.0278 3.76322 58.9035 3.63859 58.8152 3.5058C58.729 3.36891 58.6847 3.23612 58.6847 3.10332C58.6847 2.86838 58.801 2.66816 59.0357 2.50268C59.2703 2.33719 59.5553 2.25547 59.8903 2.25547C60.2513 2.25547 60.6262 2.38214 61.0153 2.63752C61.4044 2.89085 61.7496 3.23612 62.0504 3.66924L61.7997 3.7387C61.5851 3.39547 61.3061 3.12171 60.9651 2.91945C60.6302 2.71311 60.2894 2.60891 59.9404 2.60891C59.7599 2.60891 59.6055 2.65795 59.4771 2.75805C59.3508 2.85203 59.2864 2.96644 59.2864 3.10332C59.2864 3.21569 59.3307 3.34031 59.4169 3.47719C59.5052 3.60999 59.6273 3.74279 59.7878 3.87967H60.1911L60.6442 4.23311H59.6897V7.40999L59.0858 7.05655V4.23311H58.1612H58.1634ZM60.4459 4.23311L59.9924 3.87967H64.2647L64.716 4.23311H63.6909V5.23623H62.2829C62.1685 5.23623 62.0743 5.26687 62.0021 5.32816C61.9218 5.38945 61.8817 5.463 61.8817 5.54676C61.8817 5.63053 61.9218 5.70203 62.0021 5.75924C62.0763 5.82053 62.1685 5.85117 62.2829 5.85117C62.3691 5.85117 62.4935 5.83279 62.6539 5.79397C62.8224 5.75515 62.9488 5.73676 63.035 5.73676C63.2897 5.73676 63.5444 5.84096 63.7992 6.0473C64.0599 6.24956 64.1905 6.45182 64.1905 6.65408C64.1905 6.86655 64.082 7.04429 63.8694 7.19139C63.6548 7.34257 63.394 7.41612 63.0851 7.41612C62.6559 7.41612 62.2289 7.28128 61.7997 7.01365C61.3705 6.74193 61.0113 6.37827 60.7244 5.92676L60.8749 5.85526C61.1838 6.22709 61.5149 6.52128 61.8699 6.73784C62.2309 6.9544 62.5697 7.06268 62.8846 7.06268C63.1333 7.06268 63.3481 6.9973 63.5286 6.86451C63.7031 6.72762 63.7893 6.56623 63.7893 6.37623C63.7893 6.29655 63.7392 6.22709 63.6389 6.17193C63.5446 6.11472 63.4281 6.08612 63.2857 6.08612C63.1914 6.08612 63.0573 6.10451 62.8828 6.14332C62.7083 6.1801 62.5739 6.20053 62.4816 6.20053C62.247 6.20053 62.0121 6.09225 61.7774 5.87569C61.5428 5.65913 61.4264 5.44461 61.4264 5.23214C61.4264 5.13408 61.4886 5.05031 61.617 4.98494C61.7453 4.91547 61.8998 4.8787 62.0783 4.8787H63.2839V4.22902H60.4396L60.4459 4.23311ZM64.5154 4.23311L64.0641 3.87967H68.6271L69.0783 4.23311H68.1234V7.40999L67.5199 7.05655V6.06773C67.3515 6.19031 67.1607 6.28633 66.9461 6.35784C66.7375 6.42322 66.5271 6.4559 66.3125 6.4559C65.9575 6.4559 65.6346 6.35171 65.3478 6.14537C65.065 5.93902 64.8865 5.67752 64.8042 5.36289C65.091 5.36289 65.3397 5.3016 65.5483 5.17902C65.7569 5.05236 65.859 4.90117 65.859 4.72752C65.859 4.63762 65.8392 4.54773 65.799 4.45988C65.7509 4.37612 65.6885 4.30053 65.6083 4.23515H64.5132L64.5154 4.23311ZM66.1137 6.10451C66.3344 6.10451 66.567 6.05139 66.8077 5.94924C67.0544 5.84096 67.2931 5.69182 67.5217 5.50386V4.23311H65.9132C66.1137 4.47827 66.214 4.71322 66.214 4.93999C66.214 5.12795 66.12 5.29547 65.9314 5.44053C65.7369 5.58558 65.496 5.67752 65.2072 5.71633C65.2874 5.83483 65.4117 5.92881 65.5782 5.99827C65.7387 6.06773 65.9172 6.10451 66.1097 6.10451H66.1137ZM68.4265 3.87967H70.9095L71.3626 4.23311H70.4081V7.40999L69.8042 7.05655V4.23311H68.8796L68.4265 3.87967ZM74.5779 4.23311L74.1267 3.87967H77.8653L78.3166 4.23311H77.2515L77.3518 5.00945H75.8435C75.7292 5.00945 75.6349 5.04418 75.5627 5.11569C75.4825 5.18107 75.4424 5.26279 75.4424 5.36289C75.4424 5.4201 75.4825 5.46913 75.5627 5.50999C75.637 5.55289 75.7292 5.57332 75.8435 5.57332C75.9579 5.57332 76.1241 5.54881 76.3468 5.50182C76.5674 5.45483 76.7361 5.43236 76.8504 5.43236C77.071 5.43236 77.2916 5.52633 77.5143 5.71429C77.7429 5.90225 77.855 6.09021 77.855 6.28021C77.855 6.44978 77.7409 6.60504 77.5143 6.74601C77.2856 6.88698 76.9988 6.97891 76.6498 7.02182L77.8049 7.86967L77.5041 8.04537L76.349 7.05655C76.2346 7.08107 76.068 7.09128 75.8453 7.09128C75.6648 7.09128 75.5106 7.05451 75.3842 6.97891C75.2559 6.90332 75.1935 6.81139 75.1935 6.70311C75.1935 6.63773 75.2338 6.57848 75.314 6.52741C75.3882 6.48042 75.4825 6.4559 75.5968 6.4559C75.7513 6.4559 75.8917 6.47633 76.02 6.51924C76.1464 6.56623 76.2405 6.62752 76.3006 6.70311C76.6496 6.70311 76.9447 6.64795 77.1853 6.54171C77.432 6.42935 77.5564 6.29451 77.5564 6.13924C77.5564 6.04117 77.5063 5.95741 77.406 5.89203C77.3117 5.82257 77.1954 5.7858 77.055 5.7858C76.9467 5.7858 76.796 5.81031 76.6015 5.8573C76.4069 5.90429 76.2565 5.92881 76.1502 5.92881C75.9416 5.92881 75.7092 5.81848 75.4464 5.5958C75.1797 5.37515 75.0453 5.17902 75.0453 5.00945C75.0453 4.91139 75.0954 4.82762 75.1957 4.76225C75.29 4.69279 75.4061 4.65601 75.5485 4.65601H76.8544V4.23311H74.582H74.5779ZM76.5576 2.60891L77.059 2.25547L77.5622 2.60891L77.059 2.96236L76.5576 2.60891ZM78.5773 4.30257C78.5773 4.18612 78.6515 4.08601 78.7979 4.00633C78.9443 3.92257 79.1228 3.87967 79.3294 3.87967C79.7988 3.87967 80.1997 4.01859 80.5346 4.29644C80.8696 4.56816 81.0383 4.90117 81.0383 5.29139C81.0383 5.55902 80.954 5.79805 80.7876 6.0044C80.6271 6.21279 80.4083 6.34967 80.1335 6.42117L81.1386 7.33848L80.7876 7.47945L79.8327 6.49064H79.6321C79.3834 6.49064 79.1708 6.43752 78.9883 6.32719C78.8138 6.21483 78.7277 6.07999 78.7277 5.92472C78.7277 5.83483 78.7678 5.75924 78.8481 5.69795C78.9223 5.63666 79.0145 5.60601 79.1289 5.60601C79.2171 5.60601 79.3234 5.63666 79.4498 5.69795C79.5701 5.75924 79.6983 5.84504 79.8327 5.95945C80.0071 5.95945 80.1638 5.90838 80.3062 5.80418C80.4406 5.70612 80.5168 5.5815 80.5369 5.43031C79.9532 5.31386 79.4817 5.15042 79.1206 4.94203C78.7596 4.72956 78.5773 4.51709 78.5773 4.29848V4.30257ZM80.587 3.87967H81.301L81.7523 4.23311H80.9881L80.5848 3.87967H80.587ZM79.1808 4.51504C79.1808 4.6315 79.3052 4.76021 79.5519 4.89709C79.8006 5.03397 80.1277 5.15451 80.5369 5.25666C80.6111 4.95021 80.5569 4.68053 80.3764 4.44558C80.1959 4.21064 79.947 4.09214 79.6321 4.09214C79.5057 4.09214 79.3976 4.13504 79.3114 4.21881C79.2251 4.29848 79.1808 4.39859 79.1808 4.51504ZM81.5517 4.23311L81.1005 3.87967H85.6634L86.1165 4.23311H85.162V7.40999L84.5581 7.05655V6.06773C84.3916 6.19031 84.199 6.28633 83.9844 6.35784C83.7778 6.42322 83.5654 6.4559 83.3528 6.4559C82.9978 6.4559 82.6749 6.35171 82.3881 6.14537C82.1073 5.93902 81.9268 5.67752 81.8446 5.36289C82.1334 5.36289 82.3801 5.3016 82.5887 5.17902C82.7953 5.05236 82.8994 4.90117 82.8994 4.72752C82.8994 4.63762 82.8795 4.54773 82.8394 4.45988C82.7933 4.37612 82.7289 4.30053 82.6486 4.23515H81.5535L81.5517 4.23311ZM83.1501 6.10451C83.3707 6.10451 83.6013 6.05139 83.844 5.94924C84.0927 5.84096 84.3294 5.69182 84.5581 5.50386V4.23311H82.9495C83.1501 4.47827 83.2504 4.71322 83.2504 4.93999C83.2504 5.12795 83.1561 5.29547 82.9696 5.44053C82.775 5.58558 82.5345 5.67752 82.2457 5.71633C82.3259 5.83483 82.4503 5.92881 82.6168 5.99827C82.7772 6.06773 82.9557 6.10451 83.1483 6.10451H83.1501ZM84.1551 7.86967C84.1551 7.72461 84.2251 7.59999 84.3655 7.4958C84.4999 7.3916 84.6644 7.34053 84.8589 7.34053C85.3002 7.34053 85.7795 7.46719 86.297 7.72257C86.8125 7.9759 87.3059 8.33343 87.7752 8.78902L87.5746 8.86053C87.2337 8.50709 86.8445 8.22924 86.4093 8.02698C85.9741 7.82881 85.5411 7.73074 85.1118 7.73074C84.9574 7.73074 84.827 7.76139 84.7187 7.82268C84.6124 7.88397 84.5581 7.95956 84.5581 8.04945C84.5581 8.13935 84.6124 8.21289 84.7187 8.27623C84.827 8.33752 84.9574 8.36816 85.1118 8.36816C85.2382 8.36816 85.3625 8.34978 85.4829 8.31096C85.6032 8.27214 85.7135 8.22106 85.8138 8.15569L86.2669 8.43762C86.1606 8.5173 86.0322 8.57859 85.8858 8.6215C85.7374 8.6644 85.5812 8.68483 85.4127 8.68483C85.1379 8.68483 84.8589 8.59289 84.5781 8.40902C84.2973 8.22924 84.1569 8.0515 84.1569 7.87171L84.1551 7.86967ZM85.9643 4.23311L85.5108 3.87967H88.8183L89.2696 4.23311H87.691C87.8594 4.43537 87.9417 4.68257 87.9417 4.97472C87.9417 5.14838 87.8717 5.31386 87.7313 5.46913C87.5828 5.62848 87.3863 5.75924 87.1376 5.8573L89.047 7.26902L88.7439 7.44472L86.6841 5.92676C86.5577 5.83279 86.4554 5.73676 86.3832 5.63666C86.3171 5.54268 86.283 5.45074 86.283 5.36085C86.283 5.28117 86.3271 5.21375 86.4133 5.16268C86.4996 5.10547 86.6079 5.07687 86.7342 5.07687C86.8546 5.07687 86.9591 5.08504 87.0453 5.0973C87.1336 5.10752 87.1955 5.12386 87.2357 5.14633C87.3299 5.08913 87.4043 5.02171 87.4565 4.94203C87.5106 4.86236 87.5365 4.77859 87.5365 4.6887C87.5365 4.59472 87.5205 4.50687 87.4864 4.42719C87.4523 4.3516 87.4041 4.28623 87.3359 4.22902H85.9602L85.9643 4.23311ZM85.2001 2.11451C85.6835 2.11451 86.1947 2.27182 86.7383 2.58848C87.2738 2.90311 87.7674 3.33418 88.2166 3.87967H87.9158C87.5808 3.47515 87.1877 3.15848 86.7405 2.92762C86.2912 2.69268 85.8457 2.57418 85.4025 2.57418L85.2019 2.11451H85.2001ZM88.064 2.96236L87.5608 2.60891L88.064 2.25547L88.5676 2.60891L88.064 2.96236ZM89.1192 4.23311L88.6657 3.87967H93.6799L94.1312 4.23311H93.1767V7.40999L92.5728 7.05655V5.57332C92.2238 5.71429 91.9232 5.78375 91.6684 5.78375C91.3335 5.78375 91.0485 5.73676 90.8138 5.64279C90.7596 5.74698 90.6895 5.83891 90.6032 5.91859C90.517 5.99827 90.4187 6.05956 90.3124 6.10246C90.5611 6.4559 91.0126 6.85633 91.6684 7.30171L91.3676 7.47741L90.2121 6.48859C89.9834 6.30064 89.8112 6.11472 89.6908 5.93085C89.5705 5.74698 89.5101 5.57945 89.5101 5.43031C89.5101 5.34042 89.5502 5.26483 89.6305 5.20354C89.7047 5.14225 89.7969 5.1116 89.9112 5.1116C90.0657 5.1116 90.2003 5.13408 90.3146 5.18107C90.449 5.01762 90.5152 4.8644 90.5152 4.72139C90.5152 4.61719 90.4991 4.52322 90.465 4.43945C90.4309 4.35365 90.3808 4.28418 90.3146 4.22698H89.1192V4.23311ZM91.7727 5.43236C91.9332 5.43236 92.0816 5.41397 92.216 5.37515C92.3564 5.33838 92.4765 5.28526 92.5768 5.21988V4.23107H90.7677C90.8479 4.31074 90.9123 4.41902 90.9584 4.5559C90.9985 4.69687 91.0184 4.85827 91.0184 5.04214C91.0184 5.10343 90.9843 5.19741 90.9181 5.32408C90.9783 5.35676 91.0828 5.38332 91.2292 5.40171C91.3696 5.4201 91.5501 5.43031 91.7727 5.43031V5.43236ZM97.3505 4.23311L96.8971 3.87967H102.698L103.151 4.23311H100.778V5.29139C100.892 5.22193 101.003 5.16881 101.109 5.13612C101.209 5.09934 101.3 5.07891 101.38 5.07891C101.729 5.07891 102.024 5.18924 102.264 5.41193C102.513 5.63257 102.637 5.90021 102.637 6.2087C102.637 6.44773 102.503 6.73171 102.236 7.05655L101.783 6.73988C102.05 6.48042 102.184 6.18623 102.184 5.8573C102.184 5.74902 102.134 5.65709 102.034 5.5815C101.94 5.5059 101.823 5.46913 101.681 5.46913C101.538 5.46913 101.38 5.49773 101.22 5.55289C101.065 5.60397 100.917 5.6816 100.776 5.7858V7.40999L100.172 7.05655V6.2087C99.9918 6.29859 99.8214 6.36805 99.6589 6.42117C99.4924 6.46816 99.3442 6.49064 99.2178 6.49064C98.8969 6.49064 98.574 6.36805 98.2531 6.12289C97.9242 5.87773 97.7597 5.63666 97.7597 5.39558C97.7597 5.21171 97.8558 5.0544 98.0503 4.9216C98.2509 4.79085 98.4896 4.72343 98.7644 4.72343C98.979 4.72343 99.2096 4.76633 99.4583 4.8501C99.699 4.9359 99.9377 5.05644 100.172 5.21784V4.22902H97.3483L97.3505 4.23311ZM98.9689 6.10451C99.1695 6.10451 99.3743 6.07182 99.5829 6.0044C99.7975 5.93494 99.9959 5.83687 100.176 5.71429V5.36085C100.042 5.28117 99.8777 5.21988 99.6832 5.17698C99.4966 5.13408 99.2921 5.11365 99.0714 5.11365C98.8628 5.11365 98.6863 5.16472 98.5379 5.26892C98.3915 5.37311 98.3171 5.49773 98.3171 5.64279C98.3171 5.76945 98.3815 5.87773 98.5078 5.96762C98.6342 6.05752 98.7884 6.10246 98.9689 6.10246V6.10451ZM99.974 2.60891L100.477 2.25547L100.979 2.60891L100.477 2.96236L99.974 2.60891ZM102.998 4.23311L102.545 3.87967H106.908L107.361 4.23311H106.406V7.40999L105.802 7.05655V5.92676C105.676 6.01461 105.538 6.08612 105.391 6.13924C105.243 6.18623 105.097 6.2087 104.948 6.2087C104.673 6.2087 104.362 6.08203 104.013 5.82666C103.664 5.57332 103.492 5.34655 103.492 5.14838V4.23107H102.998V4.23311ZM104.697 5.8573C104.886 5.8573 105.076 5.81236 105.271 5.72246C105.465 5.63666 105.642 5.51816 105.802 5.36289V4.23311H104.094V5.43236C104.094 5.54881 104.154 5.64892 104.274 5.72859C104.389 5.81236 104.529 5.85526 104.695 5.85526L104.697 5.8573ZM107.16 4.23311L106.709 3.87967H111.222L111.673 4.23311H110.718V7.40999L110.115 7.05655V5.43236H108.909C108.783 5.43236 108.674 5.46096 108.588 5.51612C108.502 5.56719 108.458 5.63461 108.458 5.71429V6.13719C108.458 6.1658 108.438 6.19236 108.398 6.21483C108.358 6.23322 108.31 6.24343 108.257 6.24343C108.145 6.24343 107.991 6.13924 107.796 5.93289C107.602 5.72042 107.505 5.55494 107.505 5.43236C107.505 5.33429 107.566 5.25053 107.688 5.18515C107.8 5.11569 107.942 5.07891 108.109 5.07891H110.119V4.23311H107.164H107.16ZM109.984 2.89085C109.984 2.67429 110.071 2.49042 110.245 2.34128C110.426 2.1901 110.64 2.11451 110.889 2.11451C111.218 2.11451 111.565 2.2759 111.934 2.60279C112.303 2.92354 112.624 3.34848 112.899 3.87967H113.5L113.953 4.23311H112.999V7.40999L112.395 7.05655V4.23311H111.471L111.019 3.87967H112.648C112.439 3.47515 112.203 3.15031 111.934 2.90515C111.665 2.65999 111.418 2.53741 111.19 2.53741C111.023 2.53741 110.881 2.5987 110.769 2.72128C110.648 2.84795 110.588 2.99913 110.588 3.17279C110.588 3.27289 110.598 3.35666 110.618 3.42816C110.632 3.49762 110.654 3.55483 110.688 3.59773H110.287C110.187 3.51805 110.113 3.4159 110.067 3.29332C110.012 3.17074 109.986 3.0359 109.986 2.89085H109.984ZM117.171 4.23311L116.719 3.87967H118.195C118.095 3.79999 118.021 3.69784 117.975 3.57526C117.921 3.45268 117.895 3.31784 117.895 3.17279C117.895 2.86225 118.053 2.59666 118.368 2.37601C118.683 2.15537 119.062 2.04504 119.503 2.04504C119.878 2.04504 120.288 2.18193 120.729 2.45365C121.164 2.72128 121.577 3.09107 121.966 3.563L121.766 3.66924C121.445 3.27494 121.08 2.96236 120.671 2.73762C120.268 2.51085 119.88 2.39848 119.505 2.39848C119.231 2.39848 118.992 2.47408 118.791 2.62526C118.597 2.77644 118.5 2.96031 118.5 3.17483C118.5 3.38934 118.601 3.63655 118.801 3.88171H119.202L119.656 4.23515H118.701V7.41203L118.097 7.05859V4.23515H117.173L117.171 4.23311ZM119.451 4.23311L119 3.87967H124.337L124.79 4.23311H123.835V7.40999L123.232 7.12805V5.4344C122.965 5.4344 122.722 5.49978 122.508 5.63257C122.293 5.76537 122.149 5.93289 122.075 6.14128L121.623 5.82257L121.784 5.6101C121.824 5.55289 121.854 5.51816 121.874 5.50386C121.74 5.42418 121.605 5.36289 121.471 5.31999C121.344 5.27913 121.226 5.25666 121.12 5.25666C120.951 5.25666 120.811 5.30569 120.699 5.4058C120.578 5.49977 120.516 5.61418 120.516 5.75107C120.516 6.00031 120.62 6.24343 120.827 6.47838C121.028 6.71741 121.308 6.92375 121.671 7.09332L121.521 7.23429C121.017 6.97483 120.623 6.70924 120.336 6.43752C120.055 6.16375 119.915 5.91246 119.915 5.6816C119.915 5.46504 120.019 5.28117 120.225 5.12999C120.432 4.97881 120.681 4.90322 120.969 4.90322C121.144 4.90322 121.323 4.94816 121.503 5.03805C121.69 5.12182 121.864 5.24236 122.026 5.39762C122.193 5.28322 122.382 5.19741 122.588 5.13612C122.797 5.07483 123.011 5.04418 123.232 5.04418V4.23311H119.453H119.451ZM124.588 4.23311L124.136 3.87967H125.613C125.512 3.79999 125.438 3.69784 125.392 3.57526C125.338 3.45268 125.312 3.31784 125.312 3.17279C125.312 2.86225 125.47 2.59666 125.785 2.37601C126.1 2.15537 126.479 2.04504 126.92 2.04504C127.295 2.04504 127.705 2.18193 128.146 2.45365C128.581 2.72128 128.994 3.09107 129.383 3.563L129.183 3.66924C128.862 3.27494 128.497 2.96236 128.088 2.73762C127.685 2.51085 127.297 2.39848 126.92 2.39848C126.645 2.39848 126.409 2.47408 126.206 2.62526C126.012 2.77644 125.916 2.96031 125.916 3.17483C125.916 3.38934 126.016 3.63655 126.218 3.88171H126.622L127.073 4.23515H126.118V7.41203L125.516 7.05859V4.23515H124.592L124.588 4.23311ZM126.868 4.23311L126.417 3.87967H131.251L131.704 4.23311H130.749V7.40999L130.145 7.05655V5.8573H128.537V6.31698C128.537 6.37418 128.513 6.42322 128.467 6.46612C128.412 6.50902 128.354 6.52945 128.286 6.52945C128.132 6.52945 127.911 6.41096 127.622 6.17601C127.327 5.94515 127.179 5.76945 127.179 5.64687C127.179 5.6101 127.199 5.57741 127.239 5.54881C127.279 5.52021 127.327 5.5059 127.38 5.5059H127.933V4.23515H126.868V4.23311ZM128.537 5.50386H130.145V4.23311H128.537V5.50386ZM131.501 4.23311L131.048 3.87967H135.24L135.693 4.23311H134.558V5.46913H133.854C133.479 5.46913 133.16 5.56311 132.899 5.75107C132.63 5.93494 132.498 6.15762 132.498 6.42117C132.498 6.59483 132.603 6.74601 132.809 6.87268C133.016 6.99526 133.264 7.05655 133.553 7.05655C133.842 7.05655 134.097 7.02386 134.357 6.95849C134.612 6.89311 134.847 6.79504 135.062 6.66838L135.464 7.02182C135.25 7.14848 135.009 7.24451 134.741 7.30988C134.472 7.37526 134.195 7.40999 133.906 7.40999C133.377 7.40999 132.927 7.27719 132.56 7.01365C132.185 6.75623 131.999 6.43956 131.999 6.06773C131.999 5.80418 132.139 5.5815 132.42 5.39762C132.709 5.20967 133.054 5.11569 133.455 5.11569H133.958V4.23311H131.507H131.501ZM131.622 2.11451C132.105 2.11451 132.617 2.27182 133.16 2.58848C133.696 2.90311 134.189 3.33418 134.636 3.87967H134.335C134.001 3.47515 133.607 3.15848 133.16 2.92762C132.711 2.69268 132.266 2.57418 131.822 2.57418L131.622 2.11451ZM135.541 4.23311L135.088 3.87967H139.36L139.811 4.23311H138.786V5.23623H137.378C137.264 5.23623 137.172 5.26687 137.097 5.32816C137.017 5.38945 136.977 5.463 136.977 5.54676C136.977 5.63053 137.017 5.70203 137.097 5.75924C137.172 5.82053 137.264 5.85117 137.378 5.85117C137.466 5.85117 137.589 5.83279 137.749 5.79397C137.918 5.75515 138.044 5.73676 138.132 5.73676C138.387 5.73676 138.641 5.84096 138.896 6.0473C139.157 6.24956 139.287 6.45182 139.287 6.65408C139.287 6.86655 139.179 7.04429 138.966 7.19139C138.752 7.34257 138.491 7.41612 138.182 7.41612C137.753 7.41612 137.326 7.28128 136.897 7.01365C136.468 6.74193 136.108 6.37827 135.822 5.92676L135.972 5.85526C136.281 6.22709 136.612 6.52128 136.967 6.73784C137.328 6.9544 137.667 7.06268 137.982 7.06268C138.229 7.06268 138.443 6.9973 138.626 6.86451C138.8 6.72762 138.886 6.56623 138.886 6.37623C138.886 6.29655 138.836 6.22709 138.736 6.17193C138.641 6.11472 138.523 6.08612 138.383 6.08612C138.289 6.08612 138.154 6.10451 137.982 6.14332C137.807 6.1801 137.673 6.20053 137.578 6.20053C137.344 6.20053 137.109 6.09225 136.875 5.87569C136.64 5.65913 136.524 5.44461 136.524 5.23214C136.524 5.13408 136.586 5.05031 136.714 4.98494C136.84 4.91547 136.995 4.8787 137.176 4.8787H138.381V4.22902H135.537L135.541 4.23311Z" stroke="#3150A0" stroke-width="0.22" stroke-miterlimit="22.93"/>
<path d="M28.054 9.70636H29.4158V12.5788C29.4158 12.8751 29.4638 13.0916 29.56 13.2306C29.6563 13.3695 29.8168 13.4369 30.0414 13.4328C30.2761 13.4328 30.4407 13.3633 30.535 13.2203C30.6313 13.0794 30.6774 12.8649 30.6774 12.5788V9.70636H32.0393V12.4195C32.0393 13.1917 31.8706 13.7515 31.5356 14.0947C31.2007 14.438 30.7055 14.6116 30.0516 14.6116C29.3978 14.6116 28.8941 14.4421 28.5572 14.1009C28.2202 13.7617 28.0518 13.1999 28.0518 12.4195V9.70636H28.054ZM32.8215 9.70636H34.1011L35.5713 12.3092L35.5252 11.2488V9.70636H36.8289V14.4809H35.547L34.0769 11.8781L34.123 12.965V14.4809H32.8193V9.70636H32.8215ZM37.645 9.70636H39.0068V14.4809H37.645V9.70636ZM39.6208 9.70636H43.4113V10.9649H42.1999V14.4809H40.8442V10.9649H39.6208V9.70636ZM44.0311 9.70636H47.4089V10.8178H45.393V11.5063H47.0938V12.6197H45.393V13.3674H47.4909V14.4809H44.0333V9.70636H44.0311ZM48.1149 9.70636H49.9017C50.349 9.70636 50.7363 9.78399 51.0652 9.93722C51.3922 10.0925 51.6469 10.3376 51.8294 10.6727C52.0119 11.0078 52.1022 11.445 52.1022 11.9843C52.1022 12.871 51.9096 13.5104 51.5246 13.8986C51.1395 14.2868 50.5959 14.4809 49.8899 14.4809H48.1149V9.70636ZM49.4767 10.8178V13.3654H49.7816C50.4314 13.3654 50.7522 12.9221 50.7401 12.0354C50.7401 11.5798 50.6681 11.2652 50.5257 11.0854C50.3813 10.9056 50.1103 10.8178 49.7132 10.8178H49.4785H49.4767ZM54.5531 9.70636H55.9148V14.4809H54.5531V9.70636ZM56.7411 9.70636H58.023L59.4932 12.3092L59.447 11.2488V9.70636H60.7507V14.4809H59.4709L58.0009 11.8781L58.0471 12.965V14.4809H56.7434V9.70636H56.7411ZM61.4966 9.70636H63.2839C63.7312 9.70636 64.1181 9.78399 64.447 9.93722C64.7739 10.0925 65.0287 10.3376 65.2112 10.6727C65.3937 11.0078 65.4841 11.445 65.4841 11.9843C65.4841 12.871 65.2916 13.5104 64.9085 13.8986C64.5234 14.2868 63.9779 14.4809 63.2739 14.4809H61.4988V9.70636H61.4966ZM62.8585 10.8178V13.3654H63.1634C63.8132 13.3654 64.1343 12.9221 64.1223 12.0354C64.1223 11.5798 64.0499 11.2652 63.9075 11.0854C63.7651 10.9056 63.4925 10.8178 63.0954 10.8178H62.8607H62.8585ZM66.0277 9.70636H67.3896V14.4809H66.0277V9.70636ZM69.377 9.70636H70.7551L72.2373 14.4809H70.8875L70.721 13.8455H69.377L69.2167 14.4809H67.8948L69.377 9.70636ZM69.6299 12.8506H70.4863L70.0491 11.1426L69.6299 12.8506ZM74.6321 9.70636H75.994V14.4809H74.6321V9.70636ZM76.8201 9.70636H78.1017L79.5719 12.3092L79.526 11.2488V9.70636H80.8297V14.4809H79.5478L78.0777 11.8781L78.1238 12.965V14.4809H76.8201V9.70636ZM83.7638 11.0895C83.7297 10.8157 83.5434 10.6788 83.2064 10.6788C82.9397 10.6788 82.7991 10.7646 82.787 10.9363C82.783 11.0425 82.8272 11.1303 82.9234 11.2018C83.0177 11.2713 83.142 11.3306 83.3005 11.3775C83.4569 11.4245 83.6096 11.4674 83.754 11.5063C84.2394 11.639 84.5984 11.8188 84.827 12.0436C85.0577 12.2683 85.17 12.5809 85.166 12.9772C85.166 13.3654 85.0755 13.6821 84.897 13.9272C84.7165 14.1724 84.48 14.3481 84.1872 14.4543C83.8944 14.5606 83.5793 14.6137 83.2423 14.6137C82.7369 14.6137 82.3097 14.4645 81.9587 14.1663C81.6077 13.868 81.4212 13.4818 81.3991 13.0038H82.7028C82.7329 13.1938 82.8131 13.3266 82.9415 13.4001C83.0698 13.4757 83.2024 13.5125 83.3408 13.5125C83.6738 13.4961 83.8503 13.3879 83.8703 13.1876C83.8844 13.0508 83.8242 12.9466 83.6878 12.873C83.5514 12.7995 83.3428 12.7239 83.06 12.6442C82.705 12.5421 82.42 12.4379 82.2094 12.3337C81.9988 12.2274 81.8265 12.0701 81.6901 11.8597C81.5537 11.6493 81.4873 11.3735 81.4914 11.0282C81.4994 10.5992 81.662 10.2518 81.983 9.98217C82.3019 9.71249 82.7391 9.57765 83.2947 9.57765C83.5895 9.57765 83.8601 9.62464 84.1068 9.72066C84.3535 9.81464 84.5643 9.97604 84.7366 10.2049C84.9091 10.4316 85.0156 10.7258 85.0577 11.0895H83.766H83.7638ZM85.7637 9.70636H87.1255V12.5788C87.1255 12.8751 87.1737 13.0916 87.268 13.2306C87.3642 13.3695 87.5247 13.4369 87.7493 13.4328C87.982 13.4328 88.1483 13.3633 88.2425 13.2203C88.3388 13.0794 88.3871 12.8649 88.3871 12.5788V9.70636H89.749V12.4195C89.749 13.1917 89.5823 13.7515 89.2454 14.0947C88.9104 14.438 88.4152 14.6116 87.7613 14.6116C87.1075 14.6116 86.6061 14.4421 86.2691 14.1009C85.9322 13.7617 85.7637 13.1999 85.7637 12.4195V9.70636ZM91.8447 10.8178V11.7637H92.4144C92.8355 11.7637 93.0383 11.6084 93.0223 11.2999C93.0223 11.1446 92.9721 11.0261 92.8719 10.9424C92.7716 10.8586 92.645 10.8178 92.4926 10.8178H91.8447ZM90.4891 9.70636H92.4926C93.2086 9.70636 93.686 9.8269 93.9226 10.068C94.1613 10.309 94.2798 10.64 94.2798 11.065C94.2798 11.3878 94.2157 11.6452 94.0873 11.8393C93.9589 12.0333 93.7923 12.1641 93.5837 12.2315C93.8404 12.3459 94.0209 12.4746 94.1232 12.6156C94.2275 12.7566 94.2798 13.0528 94.2798 13.5023V13.8741C94.2798 14.1867 94.328 14.344 94.4222 14.344V14.4829H93.0562C93.0181 14.3276 92.996 14.105 92.99 13.8149C92.984 13.5227 92.9679 13.3082 92.9398 13.1713C92.9138 13.0344 92.8416 12.9425 92.7272 12.8935C92.5848 12.8403 92.3582 12.8138 92.0453 12.8138H91.8447V14.4809H90.4891V9.70636ZM96.1511 9.70636H97.5289L99.0111 14.4809H97.6612L97.4948 13.8455H96.1511L95.9905 14.4809H94.6689L96.1511 9.70636ZM96.4037 12.8506H97.2601L96.823 11.1426L96.4037 12.8506ZM99.4525 9.70636H100.734L102.204 12.3092L102.158 11.2488V9.70636H103.462V14.4809H102.18L100.71 11.8781L100.756 12.965V14.4809H99.4525V9.70636ZM106.827 11.5328C106.797 11.2161 106.705 11.0037 106.554 10.8995C106.402 10.7953 106.252 10.7442 106.097 10.7442C105.822 10.7442 105.624 10.877 105.504 11.1446C105.383 11.4123 105.323 11.7392 105.323 12.1273C105.323 12.9915 105.592 13.4308 106.127 13.4451C106.53 13.4451 106.765 13.1733 106.833 12.6299H108.137C108.083 13.2163 107.884 13.6943 107.543 14.06C107.2 14.4257 106.745 14.6096 106.173 14.6096C105.728 14.6096 105.339 14.5095 105.004 14.3072C104.669 14.107 104.414 13.821 104.238 13.4492C104.061 13.0794 103.969 12.636 103.963 12.1253C103.963 11.5512 104.067 11.0711 104.276 10.685C104.485 10.2988 104.75 10.0149 105.068 9.83507C105.389 9.65324 105.712 9.56743 106.043 9.57561C106.777 9.59195 107.293 9.78808 107.585 10.162C107.878 10.5338 108.055 10.9914 108.117 11.5287H106.831L106.827 11.5328ZM108.739 9.70636H112.116V10.8178H110.101V11.5063H111.801V12.6197H110.101V13.3674H112.197V14.4809H108.739V9.70636ZM117.349 11.5328C117.317 11.2161 117.227 11.0037 117.077 10.8995C116.926 10.7953 116.774 10.7442 116.621 10.7442C116.344 10.7442 116.148 10.877 116.028 11.1446C115.907 11.4123 115.847 11.7392 115.847 12.1273C115.847 12.9915 116.114 13.4308 116.651 13.4451C117.054 13.4451 117.289 13.1733 117.359 12.6299H118.663C118.609 13.2163 118.41 13.6943 118.067 14.06C117.724 14.4257 117.267 14.6096 116.697 14.6096C116.254 14.6096 115.865 14.5095 115.53 14.3072C115.195 14.107 114.938 13.821 114.764 13.4492C114.587 13.0794 114.495 12.636 114.487 12.1253C114.487 11.5512 114.591 11.0711 114.8 10.685C115.009 10.2988 115.273 10.0149 115.592 9.83507C115.911 9.65324 116.236 9.56743 116.567 9.57561C117.301 9.59195 117.817 9.78808 118.109 10.162C118.402 10.5338 118.579 10.9914 118.641 11.5287H117.355L117.349 11.5328ZM121.214 9.57969C121.69 9.57561 122.087 9.68593 122.41 9.91066C122.731 10.1354 122.973 10.4357 123.136 10.8116C123.298 11.1875 123.384 11.5961 123.39 12.0374C123.402 12.7566 123.216 13.3654 122.831 13.8639C122.446 14.3624 121.91 14.6116 121.226 14.6116C120.839 14.6075 120.504 14.532 120.221 14.3828C119.938 14.2357 119.712 14.0375 119.541 13.7903C119.371 13.5431 119.246 13.2694 119.168 12.969C119.09 12.6687 119.05 12.3623 119.05 12.0497C119.062 11.3469 119.25 10.7646 119.62 10.2988C119.987 9.83303 120.518 9.59399 121.216 9.57969H121.214ZM121.214 10.7463C120.966 10.7463 120.767 10.8607 120.621 11.0936C120.472 11.3265 120.402 11.6574 120.406 12.0906C120.41 12.5237 120.484 12.8587 120.63 13.0937C120.777 13.3286 120.975 13.4471 121.228 13.4471C121.754 13.4349 122.022 13.0017 122.038 12.1498C122.046 11.7432 121.98 11.4082 121.844 11.1426C121.706 10.877 121.497 10.7463 121.218 10.7463H121.214ZM123.954 13.11H125.159V14.4809H123.954V13.11ZM127.855 9.70636H129.217V13.3674H131.078V14.4809H127.857V9.70636H127.855ZM130.904 9.70636H134.694V10.9649H133.483V14.4809H132.127V10.9649H130.904V9.70636ZM135.246 9.70636H137.031C137.478 9.70636 137.867 9.78399 138.194 9.93722C138.523 10.0925 138.778 10.3376 138.958 10.6727C139.141 11.0078 139.231 11.445 139.231 11.9843C139.231 12.871 139.039 13.5104 138.654 13.8986C138.268 14.2868 137.723 14.4809 137.019 14.4809H135.244V9.70636H135.246ZM136.608 10.8178V13.3654H136.913C137.563 13.3654 137.883 12.9221 137.871 12.0354C137.871 11.5798 137.799 11.2652 137.657 11.0854C137.514 10.9056 137.242 10.8178 136.844 10.8178H136.61H136.608ZM139.692 13.108H140.898V14.4788H139.692V13.108Z" fill="#3150A0"/>
<path d="M62.9566 18.2788C62.8263 18.1093 62.7139 17.9111 62.6237 17.6843C62.5334 17.4575 62.4873 17.2226 62.4873 16.9795C62.4873 16.765 62.5214 16.5607 62.5896 16.3645C62.6698 16.1357 62.7922 15.9089 62.9566 15.6842H63.1271C63.0208 15.8701 62.9486 16.005 62.9145 16.0846C62.8604 16.2093 62.8182 16.338 62.7862 16.4748C62.748 16.6424 62.73 16.8119 62.73 16.9836C62.73 17.4167 62.8624 17.8498 63.1271 18.2809H62.9566V18.2788ZM63.2214 17.6986L63.9675 15.7169H64.2503L65.0426 17.6986H64.7497L64.5251 17.098H63.7048L63.4942 17.6986H63.2214ZM63.781 16.8834H64.4449L64.2423 16.3339C64.1801 16.1663 64.134 16.0295 64.1039 15.9212C64.0778 16.0499 64.0417 16.1766 63.9956 16.3032L63.781 16.8855V16.8834ZM66.7614 16.9202V16.6873H67.5858V17.4208C67.4594 17.5229 67.329 17.6005 67.1947 17.6537C67.0603 17.7047 66.9219 17.7313 66.7815 17.7313C66.5909 17.7313 66.4165 17.6904 66.26 17.6067C66.1036 17.5229 65.9852 17.4024 65.907 17.2451C65.8268 17.0877 65.7867 16.912 65.7867 16.718C65.7867 16.5239 65.8248 16.3461 65.905 16.1786C65.9852 16.0131 66.0975 15.8885 66.246 15.8068C66.3944 15.7251 66.5669 15.6862 66.7594 15.6862C66.8998 15.6862 67.0262 15.7087 67.1405 15.7557C67.2548 15.8027 67.3431 15.8681 67.4073 15.9498C67.4714 16.0336 67.5196 16.1418 67.5537 16.2746L67.321 16.338C67.2909 16.2379 67.2548 16.1582 67.2127 16.0989C67.1686 16.0417 67.1084 15.9947 67.0262 15.962C66.9459 15.9273 66.8577 15.9089 66.7594 15.9089C66.6431 15.9089 66.5408 15.9273 66.4546 15.9641C66.3683 16.0009 66.3001 16.0479 66.248 16.1071C66.1958 16.1663 66.1557 16.2317 66.1256 16.3032C66.0755 16.4258 66.0514 16.5586 66.0514 16.7016C66.0514 16.8794 66.0815 17.0265 66.1417 17.147C66.2018 17.2655 66.2881 17.3554 66.4024 17.4126C66.5167 17.4698 66.6371 17.4984 66.7654 17.4984C66.8778 17.4984 66.9861 17.4759 67.0924 17.433C67.1987 17.3881 67.2789 17.3411 67.3331 17.292V16.9202H66.7614ZM67.8445 16.9795C67.8445 16.7159 67.9167 16.5177 68.0611 16.3911C68.1815 16.2848 68.3299 16.2317 68.5044 16.2317C68.6969 16.2317 68.8574 16.2971 68.9797 16.4258C69.1021 16.5545 69.1642 16.7323 69.1642 16.9611C69.1642 17.145 69.1362 17.29 69.082 17.3962C69.0279 17.5025 68.9476 17.5842 68.8453 17.6414C68.741 17.7007 68.6287 17.7293 68.5044 17.7293C68.3078 17.7293 68.1474 17.6659 68.025 17.5372C67.9027 17.4085 67.8425 17.2226 67.8425 16.9815L67.8445 16.9795ZM68.0892 16.9795C68.0892 17.1633 68.1293 17.3002 68.2075 17.3922C68.2878 17.4841 68.386 17.529 68.5064 17.529C68.6267 17.529 68.723 17.4841 68.8032 17.3922C68.8814 17.3002 68.9216 17.1613 68.9216 16.9733C68.9216 16.7956 68.8814 16.6628 68.8032 16.5709C68.723 16.4789 68.6247 16.434 68.5064 16.434C68.388 16.434 68.2878 16.4789 68.2075 16.5709C68.1293 16.6608 68.0892 16.7997 68.0892 16.9815V16.9795ZM69.8301 17.6966L69.2986 16.2603H69.5554L69.8562 17.1204C69.8883 17.2124 69.9184 17.3084 69.9465 17.4085C69.9685 17.3329 69.9966 17.243 70.0347 17.1347L70.3476 16.2583H70.5923L70.0588 17.6945H69.8281L69.8301 17.6966ZM71.7656 17.2308L72.0123 17.2655C71.9742 17.4105 71.902 17.525 71.7977 17.6067C71.6934 17.6864 71.559 17.7272 71.3946 17.7272C71.19 17.7272 71.0255 17.6639 70.9052 17.5331C70.7848 17.4044 70.7247 17.2226 70.7247 16.9917C70.7247 16.7609 70.7848 16.5627 70.9072 16.4299C71.0295 16.2971 71.188 16.2297 71.3805 16.2297C71.5731 16.2297 71.7215 16.2951 71.8418 16.4258C71.9602 16.5566 72.0203 16.7404 72.0203 16.9774C72.0203 16.9917 72.0203 17.0122 72.0203 17.0408H70.9714C70.9794 17.1981 71.0235 17.3186 71.1017 17.4024C71.18 17.4861 71.2782 17.527 71.3966 17.527C71.4848 17.527 71.559 17.5045 71.6192 17.4575C71.6814 17.4105 71.7315 17.335 71.7676 17.2308H71.7656ZM70.9834 16.8405H71.7676C71.7576 16.72 71.7275 16.6281 71.6774 16.5688C71.6012 16.4748 71.5029 16.4279 71.3825 16.4279C71.2722 16.4279 71.18 16.4646 71.1058 16.5402C71.0315 16.6158 70.9914 16.7159 70.9814 16.8405H70.9834ZM72.3132 17.6966V16.2603H72.5278V16.481C72.5819 16.3788 72.6341 16.3114 72.6802 16.2787C72.7263 16.246 72.7785 16.2297 72.8347 16.2297C72.9149 16.2297 72.9971 16.2562 73.0794 16.3073L72.9951 16.532C72.9369 16.4994 72.8788 16.483 72.8206 16.483C72.7685 16.483 72.7223 16.4994 72.6802 16.53C72.6381 16.5627 72.61 16.6056 72.592 16.6628C72.5659 16.7486 72.5519 16.8446 72.5519 16.9468V17.6966H72.3132ZM73.2197 17.6966V16.2603H73.4344V16.4646C73.5387 16.3073 73.6871 16.2297 73.8816 16.2297C73.9679 16.2297 74.0441 16.246 74.1163 16.2767C74.1865 16.3073 74.2406 16.3482 74.2747 16.3993C74.3108 16.4503 74.3349 16.5096 74.349 16.579C74.357 16.624 74.361 16.7037 74.361 16.816V17.6986H74.1223V16.8262C74.1223 16.7282 74.1123 16.6526 74.0942 16.6036C74.0762 16.5545 74.0421 16.5157 73.9959 16.4851C73.9498 16.4565 73.8937 16.4422 73.8295 16.4422C73.7272 16.4422 73.6409 16.4748 73.5667 16.5402C73.4925 16.6056 73.4564 16.7302 73.4564 16.9141V17.6986H73.2177L73.2197 17.6966ZM74.73 17.6966V16.2603H74.9446V16.4626C74.9888 16.3931 75.0469 16.3359 75.1211 16.293C75.1954 16.2501 75.2776 16.2297 75.3719 16.2297C75.4762 16.2297 75.5604 16.2522 75.6286 16.2951C75.6948 16.34 75.7409 16.4013 75.769 16.481C75.8813 16.3134 76.0277 16.2297 76.2062 16.2297C76.3466 16.2297 76.4549 16.2685 76.5311 16.3482C76.6074 16.4279 76.6435 16.5484 76.6435 16.7118V17.6966H76.4048V16.7915C76.4048 16.6955 76.3968 16.624 76.3807 16.5811C76.3647 16.5382 76.3366 16.5034 76.2965 16.4789C76.2564 16.4524 76.2082 16.4401 76.1541 16.4401C76.0538 16.4401 75.9716 16.4728 75.9054 16.5402C75.8412 16.6076 75.8071 16.7159 75.8071 16.863V17.6966H75.5684V16.765C75.5684 16.6567 75.5484 16.575 75.5102 16.5218C75.4721 16.4687 75.408 16.4401 75.3197 16.4401C75.2535 16.4401 75.1913 16.4585 75.1332 16.4932C75.075 16.53 75.0349 16.5811 75.0088 16.6526C74.9828 16.722 74.9707 16.8222 74.9707 16.9529V17.6966H74.732H74.73ZM77.9552 17.2308L78.2019 17.2655C78.1638 17.4105 78.0916 17.525 77.9873 17.6067C77.883 17.6864 77.7486 17.7272 77.5841 17.7272C77.3795 17.7272 77.2151 17.6639 77.0947 17.5331C76.9744 17.4044 76.9142 17.2226 76.9142 16.9917C76.9142 16.7609 76.9744 16.5627 77.0967 16.4299C77.2191 16.2971 77.3775 16.2297 77.5701 16.2297C77.7626 16.2297 77.9111 16.2951 78.0314 16.4258C78.1497 16.5566 78.2099 16.7404 78.2099 16.9774C78.2099 16.9917 78.2099 17.0122 78.2099 17.0408H77.1589C77.169 17.1981 77.2111 17.3186 77.2913 17.4024C77.3695 17.4861 77.4678 17.527 77.5841 17.527C77.6724 17.527 77.7466 17.5045 77.8088 17.4575C77.8709 17.4105 77.9191 17.335 77.9552 17.2308ZM77.173 16.8405H77.9572C77.9472 16.72 77.9171 16.6281 77.8669 16.5688C77.7907 16.4748 77.6924 16.4279 77.5721 16.4279C77.4618 16.4279 77.3695 16.4646 77.2953 16.5402C77.2211 16.6158 77.181 16.7159 77.171 16.8405H77.173ZM78.5047 17.6966V16.2603H78.7194V16.4646C78.8216 16.3073 78.9721 16.2297 79.1666 16.2297C79.2509 16.2297 79.3291 16.246 79.4013 16.2767C79.4715 16.3073 79.5256 16.3482 79.5597 16.3993C79.5938 16.4503 79.6199 16.5096 79.6339 16.579C79.642 16.624 79.648 16.7037 79.648 16.816V17.6986H79.4093V16.8262C79.4093 16.7282 79.3993 16.6526 79.3812 16.6036C79.3632 16.5545 79.3291 16.5157 79.2829 16.4851C79.2348 16.4565 79.1807 16.4422 79.1165 16.4422C79.0142 16.4422 78.9279 16.4748 78.8537 16.5402C78.7795 16.6056 78.7434 16.7302 78.7434 16.9141V17.6986H78.5047V17.6966ZM80.5345 17.478L80.5666 17.6925C80.5004 17.7068 80.4402 17.715 80.3861 17.715C80.2998 17.715 80.2316 17.7007 80.1835 17.672C80.1354 17.6434 80.1033 17.6087 80.0832 17.5617C80.0632 17.5168 80.0531 17.4208 80.0531 17.2737V16.4462H79.8766V16.2583H80.0531V15.9028L80.2918 15.7557V16.2562H80.5305V16.4442H80.2918V17.2859C80.2918 17.3554 80.2958 17.4003 80.3059 17.4208C80.3139 17.4412 80.3279 17.4575 80.346 17.4677C80.364 17.48 80.3921 17.4841 80.4282 17.4841C80.4543 17.4841 80.4904 17.48 80.5325 17.4739L80.5345 17.478ZM81.4351 16.9774C81.4351 16.7139 81.5073 16.5157 81.6517 16.389C81.772 16.2828 81.9204 16.2297 82.0949 16.2297C82.2875 16.2297 82.4479 16.2951 82.5703 16.4238C82.6926 16.5525 82.7548 16.7302 82.7548 16.959C82.7548 17.1429 82.7267 17.288 82.6726 17.3942C82.6184 17.5004 82.5402 17.5822 82.4359 17.6394C82.3316 17.6986 82.2193 17.7272 82.0949 17.7272C81.8984 17.7272 81.7379 17.6639 81.6156 17.5352C81.4932 17.4065 81.433 17.2205 81.433 16.9795L81.4351 16.9774ZM81.6798 16.9774C81.6798 17.1613 81.7199 17.2982 81.7981 17.3901C81.8783 17.482 81.9766 17.527 82.0969 17.527C82.2173 17.527 82.3135 17.482 82.3938 17.3901C82.472 17.2982 82.5121 17.1593 82.5121 16.9713C82.5121 16.7936 82.472 16.6608 82.3938 16.5688C82.3135 16.4769 82.2153 16.4319 82.0969 16.4319C81.9786 16.4319 81.8783 16.4769 81.7981 16.5688C81.7199 16.6587 81.6798 16.7976 81.6798 16.9795V16.9774ZM83.0938 17.6945V16.4462H82.8812V16.2583H83.0938V16.1071C83.0938 16.0111 83.1018 15.9396 83.1178 15.8926C83.1419 15.8293 83.18 15.7782 83.2382 15.7394C83.2963 15.7005 83.3766 15.6801 83.4809 15.6801C83.547 15.6801 83.6213 15.6883 83.7035 15.7046L83.6674 15.9171C83.6172 15.9089 83.5711 15.9028 83.527 15.9028C83.4548 15.9028 83.4026 15.9191 83.3725 15.9498C83.3425 15.9804 83.3284 16.0397 83.3284 16.1255V16.2562H83.6032V16.4442H83.3324V17.6925H83.0938V17.6945ZM84.8768 17.6945H84.6181V15.7128H84.8768V17.6945ZM85.298 17.6945V16.2583H85.5126V16.4626C85.6149 16.3053 85.7653 16.2276 85.9599 16.2276C86.0441 16.2276 86.1224 16.244 86.1946 16.2746C86.2648 16.3053 86.3189 16.3461 86.353 16.3972C86.3871 16.4483 86.4132 16.5075 86.4272 16.577C86.4352 16.6219 86.4413 16.7016 86.4413 16.814V17.6966H86.2026V16.8242C86.2026 16.7261 86.1946 16.6505 86.1745 16.6015C86.1564 16.5525 86.1224 16.5137 86.0762 16.483C86.0301 16.4544 85.9739 16.4401 85.9098 16.4401C85.8075 16.4401 85.7212 16.4728 85.647 16.5382C85.5728 16.6036 85.5367 16.7282 85.5367 16.912V17.6966H85.298V17.6945ZM87.7189 17.6945V17.5127C87.6286 17.6537 87.4983 17.7252 87.3258 17.7252C87.2134 17.7252 87.1112 17.6945 87.0169 17.6312C86.9226 17.5679 86.8504 17.48 86.7983 17.3676C86.7461 17.2553 86.72 17.1245 86.72 16.9795C86.72 16.8344 86.7441 16.7057 86.7902 16.5893C86.8364 16.4728 86.9066 16.3829 87.0008 16.3216C87.0931 16.2583 87.1994 16.2276 87.3137 16.2276C87.4 16.2276 87.4742 16.246 87.5404 16.2828C87.6066 16.3196 87.6607 16.3666 87.7008 16.4258V15.7128H87.9395V17.6945H87.7169H87.7189ZM86.9627 16.9774C86.9627 17.1613 87.0008 17.2982 87.0771 17.3901C87.1533 17.48 87.2435 17.525 87.3458 17.525C87.4481 17.525 87.5384 17.482 87.6126 17.3942C87.6848 17.3084 87.7229 17.1756 87.7229 16.9979C87.7229 16.8017 87.6868 16.6587 87.6106 16.5668C87.5364 16.4748 87.4441 16.4299 87.3358 16.4299C87.2275 16.4299 87.1412 16.4728 87.069 16.5627C86.9988 16.6505 86.9627 16.7895 86.9627 16.9795V16.9774ZM88.5573 15.9886H88.3186V15.7128H88.5573V15.9886ZM88.5573 17.6945H88.3186V16.2583H88.5573V17.6945ZM89.8429 17.5147C89.7547 17.5924 89.6684 17.6455 89.5862 17.6782C89.5039 17.7109 89.4177 17.7252 89.3214 17.7252C89.167 17.7252 89.0487 17.6863 88.9644 17.6108C88.8822 17.5352 88.8401 17.4371 88.8401 17.3166C88.8401 17.2471 88.8561 17.1817 88.8882 17.1245C88.9203 17.0653 88.9604 17.0203 89.0126 16.9836C89.0627 16.9488 89.1209 16.9223 89.183 16.9039C89.2312 16.8916 89.3014 16.8794 89.3956 16.8671C89.5882 16.8446 89.7306 16.816 89.8208 16.7833C89.8208 16.7507 89.8208 16.7282 89.8208 16.72C89.8208 16.6219 89.7988 16.5525 89.7527 16.5116C89.6905 16.4565 89.6002 16.4299 89.4799 16.4299C89.3676 16.4299 89.2833 16.4503 89.2312 16.4912C89.177 16.532 89.1369 16.6015 89.1128 16.7037L88.8782 16.671C88.9002 16.5688 88.9343 16.4871 88.9825 16.4238C89.0326 16.3625 89.1028 16.3134 89.1951 16.2787C89.2873 16.244 89.3936 16.2276 89.516 16.2276C89.6383 16.2276 89.7346 16.2419 89.8108 16.2705C89.885 16.2991 89.9412 16.3359 89.9773 16.3788C90.0114 16.4217 90.0375 16.4789 90.0515 16.5443C90.0595 16.5852 90.0635 16.6608 90.0635 16.769V17.0918C90.0635 17.3166 90.0696 17.4596 90.0776 17.5209C90.0876 17.5801 90.1077 17.6394 90.1357 17.6945H89.885C89.863 17.6434 89.8449 17.5822 89.8389 17.5147H89.8429ZM89.8249 16.9754C89.7386 17.0122 89.6062 17.0408 89.4337 17.0673C89.3355 17.0816 89.2653 17.098 89.2252 17.1163C89.185 17.1347 89.153 17.1613 89.1309 17.194C89.1088 17.2287 89.0988 17.2675 89.0988 17.3084C89.0988 17.3717 89.1229 17.4269 89.171 17.4698C89.2211 17.5127 89.2893 17.5331 89.3836 17.5331C89.4779 17.5331 89.5581 17.5127 89.6283 17.4718C89.7005 17.431 89.7547 17.3758 89.7867 17.3043C89.8128 17.2491 89.8249 17.1695 89.8249 17.0632V16.9733V16.9754ZM92.4924 15.7128H92.7512V16.8569C92.7512 17.0571 92.7291 17.2144 92.685 17.3309C92.6408 17.4473 92.5606 17.5433 92.4463 17.6169C92.33 17.6904 92.1795 17.7272 91.993 17.7272C91.8065 17.7272 91.6621 17.6966 91.5457 17.6312C91.4314 17.5679 91.3472 17.4739 91.299 17.3533C91.2489 17.2328 91.2248 17.0673 91.2248 16.8569V15.7128H91.4836V16.8569C91.4836 17.0285 91.4996 17.1572 91.5317 17.2369C91.5638 17.3186 91.6159 17.3819 91.6942 17.4248C91.7684 17.4698 91.8626 17.4923 91.9729 17.4923C92.1615 17.4923 92.2959 17.4494 92.3761 17.3615C92.4563 17.2737 92.4964 17.1061 92.4964 16.8569V15.7128H92.4924ZM93.1503 17.6945V16.2583H93.3649V16.4626C93.4692 16.3053 93.6176 16.2276 93.8142 16.2276C93.8984 16.2276 93.9766 16.244 94.0488 16.2746C94.121 16.3053 94.1732 16.3461 94.2093 16.3972C94.2434 16.4483 94.2695 16.5075 94.2835 16.577C94.2915 16.6219 94.2955 16.7016 94.2955 16.814V17.6966H94.0569V16.8242C94.0569 16.7261 94.0468 16.6505 94.0288 16.6015C94.0107 16.5525 93.9766 16.5137 93.9305 16.483C93.8824 16.4544 93.8282 16.4401 93.764 16.4401C93.6617 16.4401 93.5755 16.4728 93.5013 16.5382C93.4271 16.6036 93.391 16.7282 93.391 16.912V17.6966H93.1523L93.1503 17.6945ZM95.5712 17.6945V17.5127C95.4809 17.6537 95.3505 17.7252 95.176 17.7252C95.0637 17.7252 94.9614 17.6945 94.8672 17.6312C94.7729 17.5679 94.7007 17.48 94.6485 17.3676C94.5964 17.2553 94.5703 17.1245 94.5703 16.9795C94.5703 16.8344 94.5944 16.7057 94.6405 16.5893C94.6866 16.4728 94.7568 16.3829 94.8511 16.3216C94.9434 16.2583 95.0497 16.2276 95.164 16.2276C95.2482 16.2276 95.3245 16.246 95.3906 16.2828C95.4568 16.3196 95.511 16.3666 95.5511 16.4258V15.7128H95.7898V17.6945H95.5671H95.5712ZM94.815 16.9774C94.815 17.1613 94.8531 17.2982 94.9293 17.3901C95.0056 17.48 95.0958 17.525 95.2001 17.525C95.3044 17.525 95.3927 17.482 95.4669 17.3942C95.5391 17.3084 95.5772 17.1756 95.5772 16.9979C95.5772 16.8017 95.5391 16.6587 95.4649 16.5668C95.3906 16.4748 95.2984 16.4299 95.1901 16.4299C95.0818 16.4299 94.9955 16.4728 94.9233 16.5627C94.8531 16.6505 94.817 16.7895 94.817 16.9795L94.815 16.9774ZM97.1336 17.2287L97.3803 17.2634C97.3422 17.4085 97.27 17.5229 97.1657 17.6046C97.0614 17.6843 96.927 17.7252 96.7625 17.7252C96.5559 17.7252 96.3935 17.6618 96.2731 17.5311C96.1528 17.4024 96.0926 17.2205 96.0926 16.9897C96.0926 16.7588 96.1528 16.5607 96.2752 16.4279C96.3975 16.2951 96.5559 16.2276 96.7485 16.2276C96.941 16.2276 97.0895 16.293 97.2098 16.4238C97.3281 16.5545 97.3883 16.7384 97.3883 16.9754C97.3883 16.9897 97.3883 17.0101 97.3883 17.0387H96.3393C96.3474 17.196 96.3915 17.3166 96.4697 17.4003C96.5479 17.4841 96.6462 17.525 96.7645 17.525C96.8508 17.525 96.927 17.5025 96.9872 17.4555C97.0493 17.4085 97.0975 17.3329 97.1356 17.2287H97.1336ZM96.3514 16.8385H97.1376C97.1276 16.718 97.0975 16.626 97.0473 16.5668C96.9711 16.4728 96.8729 16.4258 96.7525 16.4258C96.6422 16.4258 96.5499 16.4626 96.4757 16.5382C96.4015 16.6138 96.3614 16.7139 96.3514 16.8385ZM97.6811 17.6945V16.2583H97.8957V16.4789C97.9499 16.3768 98.0021 16.3094 98.0482 16.2767C98.0943 16.244 98.1465 16.2276 98.2026 16.2276C98.2828 16.2276 98.3651 16.2542 98.4473 16.3053L98.3611 16.53C98.3029 16.4973 98.2447 16.481 98.1866 16.481C98.1344 16.481 98.0883 16.4973 98.0462 16.528C98.0061 16.5607 97.976 16.6036 97.9579 16.6608C97.9298 16.7466 97.9178 16.8426 97.9178 16.9447V17.6945H97.6791H97.6811ZM99.1072 17.4759L99.1393 17.6904C99.0731 17.7047 99.0109 17.7129 98.9588 17.7129C98.8725 17.7129 98.8063 17.6986 98.7582 17.67C98.7101 17.6414 98.676 17.6067 98.6579 17.5597C98.6399 17.5147 98.6298 17.4187 98.6298 17.2716V16.4442H98.4533V16.2562H98.6298V15.9008L98.8685 15.7537V16.2542H99.1072V16.4422H98.8685V17.2839C98.8685 17.3533 98.8725 17.3983 98.8826 17.4187C98.8906 17.4391 98.9046 17.4555 98.9227 17.4657C98.9407 17.478 98.9688 17.482 99.0049 17.482C99.031 17.482 99.0651 17.478 99.1092 17.4718L99.1072 17.4759ZM100.264 17.5127C100.176 17.5903 100.09 17.6434 100.008 17.6761C99.9255 17.7088 99.8373 17.7231 99.743 17.7231C99.5886 17.7231 99.4702 17.6843 99.386 17.6087C99.3017 17.5331 99.2616 17.4351 99.2616 17.3145C99.2616 17.2451 99.2777 17.1797 99.3078 17.1225C99.3398 17.0632 99.38 17.0183 99.4321 16.9815C99.4843 16.9468 99.5404 16.9202 99.6046 16.9018C99.6527 16.8896 99.7229 16.8773 99.8172 16.8651C100.01 16.8426 100.152 16.814 100.244 16.7813C100.244 16.7486 100.244 16.7261 100.244 16.718C100.244 16.6199 100.222 16.5504 100.176 16.5096C100.116 16.4544 100.024 16.4279 99.9034 16.4279C99.7911 16.4279 99.7069 16.4483 99.6527 16.4891C99.5986 16.53 99.5605 16.5995 99.5344 16.7016L99.3017 16.6689C99.3238 16.5668 99.3579 16.4851 99.408 16.4217C99.4562 16.3604 99.5284 16.3114 99.6186 16.2767C99.7109 16.2419 99.8172 16.2256 99.9395 16.2256C100.062 16.2256 100.158 16.2399 100.234 16.2685C100.309 16.2971 100.365 16.3339 100.401 16.3768C100.437 16.4197 100.461 16.4769 100.475 16.5423C100.483 16.5831 100.487 16.6587 100.487 16.767V17.0898C100.487 17.3145 100.493 17.4575 100.501 17.5188C100.511 17.5781 100.531 17.6373 100.559 17.6925H100.309C100.285 17.6414 100.268 17.5801 100.262 17.5127H100.264ZM100.244 16.9733C100.158 17.0101 100.028 17.0387 99.8533 17.0653C99.755 17.0796 99.6848 17.0959 99.6447 17.1143C99.6046 17.1327 99.5725 17.1593 99.5504 17.1919C99.5284 17.2267 99.5164 17.2655 99.5164 17.3063C99.5164 17.3697 99.5404 17.4248 99.5886 17.4677C99.6367 17.5107 99.7069 17.5311 99.8012 17.5311C99.8954 17.5311 99.9757 17.5107 100.046 17.4698C100.118 17.4289 100.17 17.3738 100.204 17.3023C100.23 17.2471 100.242 17.1674 100.242 17.0612V16.9713L100.244 16.9733ZM100.854 17.6945V15.7128H101.093V16.8405L101.658 16.2562H101.967L101.43 16.7895L102.021 17.6925H101.727L101.259 16.959L101.093 17.1225V17.6925H100.854V17.6945ZM102.451 15.9886H102.212V15.7128H102.451V15.9886ZM102.451 17.6945H102.212V16.2583H102.451V17.6945ZM102.816 17.6945V16.2583H103.03V16.4626C103.135 16.3053 103.283 16.2276 103.478 16.2276C103.562 16.2276 103.64 16.244 103.712 16.2746C103.782 16.3053 103.837 16.3461 103.873 16.3972C103.909 16.4483 103.933 16.5075 103.947 16.577C103.957 16.6219 103.961 16.7016 103.961 16.814V17.6966H103.722V16.8242C103.722 16.7261 103.714 16.6505 103.694 16.6015C103.676 16.5525 103.642 16.5137 103.596 16.483C103.55 16.4544 103.494 16.4401 103.429 16.4401C103.327 16.4401 103.241 16.4728 103.167 16.5382C103.092 16.6036 103.056 16.7282 103.056 16.912V17.6966H102.818L102.816 17.6945ZM104.282 17.813L104.513 17.8457C104.523 17.9193 104.549 17.9724 104.595 18.0051C104.655 18.05 104.735 18.0725 104.837 18.0725C104.948 18.0725 105.034 18.05 105.094 18.0051C105.154 17.9601 105.194 17.8968 105.217 17.8151C105.229 17.766 105.235 17.6618 105.233 17.5045C105.128 17.6291 104.998 17.6925 104.843 17.6925C104.649 17.6925 104.498 17.621 104.392 17.478C104.286 17.337 104.234 17.1654 104.234 16.9672C104.234 16.8303 104.258 16.7037 104.306 16.5872C104.354 16.4728 104.424 16.3829 104.517 16.3196C104.609 16.2562 104.717 16.2256 104.843 16.2256C105.01 16.2256 105.146 16.2951 105.255 16.434V16.2562H105.475V17.4963C105.475 17.719 105.453 17.8784 105.409 17.9703C105.365 18.0643 105.295 18.1379 105.196 18.191C105.1 18.2441 104.98 18.2727 104.839 18.2727C104.671 18.2727 104.537 18.2339 104.432 18.1583C104.33 18.0827 104.278 17.9662 104.282 17.811V17.813ZM104.476 16.9509C104.476 17.1388 104.513 17.2757 104.587 17.3615C104.661 17.4473 104.753 17.4923 104.864 17.4923C104.974 17.4923 105.066 17.4494 105.14 17.3636C105.215 17.2777 105.251 17.1429 105.251 16.959C105.251 16.7752 105.213 16.6505 105.136 16.5627C105.06 16.4748 104.968 16.4299 104.86 16.4299C104.751 16.4299 104.663 16.4728 104.589 16.5607C104.515 16.6485 104.476 16.7793 104.476 16.9509ZM105.993 18.2747H105.82C106.085 17.8416 106.217 17.4105 106.217 16.9774C106.217 16.8079 106.199 16.6403 106.159 16.4728C106.129 16.338 106.087 16.2072 106.033 16.0826C105.999 16.0009 105.927 15.866 105.818 15.6781H105.991C106.155 15.9048 106.28 16.1316 106.358 16.3584C106.426 16.5545 106.46 16.7588 106.46 16.9733C106.46 17.2165 106.414 17.4514 106.322 17.6782C106.231 17.905 106.119 18.1031 105.989 18.2727L105.993 18.2747Z" fill="#030303"/>
<path fill-rule="evenodd" clip-rule="evenodd" d="M12.5018 0.161407C19.3091 0.161407 24.8267 4.37 24.8267 9.56334C24.8267 14.7567 19.3091 18.9653 12.5018 18.9653C5.69445 18.9653 0.176758 14.7567 0.176758 9.56334C0.176758 4.37 5.69445 0.161407 12.5018 0.161407Z" fill="#FEFEFE"/>
<path fill-rule="evenodd" clip-rule="evenodd" d="M17.7026 13.3163C17.6444 13.3919 17.5682 13.4389 17.478 13.4532C17.492 13.5145 17.5382 13.5595 17.5823 13.6044C17.6445 13.6351 17.7026 13.6494 17.7628 13.6494H17.7768C17.835 13.6494 17.8651 13.6351 17.9253 13.6044C17.9854 13.5758 18.0296 13.5288 18.0757 13.4675V12.8465H17.7167C17.7468 12.8914 17.7628 12.9363 17.7768 12.967C17.7908 13.0119 17.8049 13.0426 17.8049 13.0589C17.8049 13.1202 17.7908 13.1652 17.7768 13.2101C17.7628 13.2408 17.7307 13.2857 17.7006 13.3163H17.7026ZM18.2462 15.392C18.1238 15.392 18.0255 15.4819 18.0255 15.5902H18.0235V15.9191H18.4768V15.5902C18.4768 15.4819 18.3685 15.392 18.2462 15.392ZM16.0679 15.3716C16.0559 15.3716 16.0479 15.3716 16.0379 15.3716H15.9837V16.1827H16.08C16.2966 16.1745 16.4711 15.9968 16.4711 15.7761C16.4711 15.5555 16.2906 15.3716 16.0679 15.3716ZM12.5038 0.159363C5.71257 0.159363 0.172852 4.38226 0.172852 9.56334C0.172852 14.7444 5.71257 18.9673 12.5038 18.9673C19.2951 18.9673 24.8329 14.7424 24.8329 9.56334C24.8329 4.3843 19.2951 0.159363 12.5038 0.159363ZM1.81756 11.5144L7.23694 3.69989H11.5452L8.80338 7.63065H9.57952L12.3193 3.69989H16.3307L10.9113 11.5144H1.8155H1.81756ZM7.27502 15.9866C7.27101 16.2828 7.00029 16.5259 6.66734 16.5259C6.3344 16.5259 6.06158 16.2848 6.05958 15.9866V15.0468H6.44465V15.9825C6.44465 16.0908 6.54499 16.1806 6.66734 16.1806C6.78969 16.1806 6.89797 16.0908 6.89797 15.9825V15.0468H7.27502V15.9866ZM8.74317 16.5259H8.36612V15.5902C8.36612 15.4819 8.25783 15.392 8.13549 15.392C8.01314 15.392 7.91484 15.4819 7.91484 15.5902H7.91287V16.5259H7.52977V15.5861C7.53378 15.2879 7.80449 15.0468 8.13743 15.0468C8.47038 15.0468 8.7412 15.2879 8.74522 15.5861V16.5259H8.74317ZM9.34692 16.5096H8.96987V15.0468H9.34692V16.5096ZM10.5684 15.4349H10.2736V16.5096H9.89644V15.4349H9.60164V15.0488H10.5684V15.4349ZM11.5632 15.3818C11.5291 15.3737 11.495 15.3716 11.4609 15.3716C11.2704 15.3716 11.1059 15.486 11.0477 15.6454H11.5632V15.9416H11.0617C11.1299 16.0846 11.2824 16.1827 11.4609 16.1827C11.495 16.1827 11.5291 16.1806 11.5632 16.1725V16.5137C11.5291 16.5177 11.495 16.5198 11.4609 16.5198C11.0197 16.5198 10.6606 16.1868 10.6606 15.7761C10.6606 15.3655 11.0197 15.0325 11.4609 15.0325C11.495 15.0325 11.5291 15.0325 11.5632 15.0386V15.3798V15.3818ZM12.3474 16.5198C12.3374 16.5198 12.3273 16.5198 12.3153 16.5198V16.5259H11.9002V15.0366H12.2973C12.3133 15.0366 12.3293 15.0366 12.3454 15.0366C12.7706 15.0366 13.1176 15.3696 13.1176 15.7802C13.1176 16.1909 12.7706 16.5239 12.3454 16.5239L12.3474 16.5198ZM13.1336 12.8424H12.895V13.1917H12.3434C12.3274 13.1917 12.3133 13.206 12.2973 13.206C12.2879 13.2156 12.2833 13.2258 12.2833 13.2367C12.2833 13.2673 12.3133 13.298 12.3574 13.3429C12.4015 13.3879 12.4457 13.4185 12.4778 13.4185C12.5099 13.4185 12.5379 13.4042 12.5961 13.3879C12.6422 13.3715 12.6864 13.3572 12.7145 13.3572C12.7887 13.3572 12.8649 13.3879 12.9231 13.4328C12.9833 13.492 13.0133 13.5533 13.0133 13.631C13.0133 13.7679 12.9692 13.8598 12.8789 13.9497C12.7746 14.0396 12.6703 14.0702 12.5359 14.0702C12.3715 14.0702 12.207 14.011 12.0586 13.9047C11.9082 13.7822 11.7898 13.6146 11.6855 13.4185L11.8941 13.3266C11.9543 13.4798 12.0285 13.6146 12.1469 13.7229C12.2652 13.8128 12.3996 13.8741 12.5359 13.8741C12.5941 13.8741 12.6543 13.8434 12.7145 13.7985C12.7586 13.7515 12.7886 13.7066 12.7886 13.631C12.7886 13.6146 12.7746 13.6003 12.7586 13.584C12.7445 13.584 12.7145 13.5697 12.6984 13.5697C12.6683 13.5697 12.6242 13.584 12.5801 13.5983C12.5199 13.6126 12.4898 13.6126 12.4598 13.6126C12.3855 13.6126 12.2952 13.5676 12.207 13.4451C12.1027 13.3388 12.0426 13.2489 12.0426 13.157C12.0426 13.1263 12.0706 13.0794 12.1007 13.0508C12.1449 13.0201 12.191 13.0038 12.2512 13.0038H12.6703V12.8383H11.4168V13.2632H10.8933C10.8492 13.2632 10.789 13.2939 10.7589 13.3388C10.7148 13.3695 10.6847 13.4308 10.6847 13.49C10.6847 13.5962 10.7289 13.6882 10.8171 13.7474C10.8913 13.8251 10.9976 13.8557 11.1159 13.8557C11.16 13.8557 11.2203 13.8414 11.2644 13.8087C11.3246 13.7781 11.3847 13.7331 11.4288 13.6718L11.6073 13.8087C11.5492 13.8863 11.473 13.9619 11.3987 14.0069C11.3105 14.0518 11.2042 14.0661 11.1159 14.0661C10.9354 14.0661 10.7709 14.0212 10.6526 13.9006C10.5182 13.7944 10.4581 13.6412 10.4581 13.49C10.4581 13.3674 10.5022 13.2612 10.5925 13.1856C10.6827 13.0937 10.787 13.0487 10.9073 13.0487H11.1902V12.8362H10.1452V13.1856H9.65375C9.62367 13.1856 9.60967 13.1999 9.59362 13.1999C9.57958 13.2142 9.57952 13.2305 9.57952 13.2469C9.57952 13.2775 9.59362 13.3082 9.63975 13.3531C9.66984 13.3838 9.71396 13.3981 9.74405 13.3981C9.76009 13.3981 9.81824 13.3981 9.87841 13.3838C9.93858 13.3674 9.98269 13.3531 10.0128 13.3531C10.087 13.3531 10.1472 13.3838 10.2074 13.443C10.2515 13.488 10.2815 13.5656 10.2815 13.6412C10.2815 13.7474 10.2515 13.8537 10.1773 13.9313C10.1171 14.0069 10.0428 14.0518 9.93854 14.0825C10.0128 14.1438 10.1031 14.2194 10.2374 14.297L10.1171 14.4788C9.9085 14.3726 9.77411 14.252 9.66982 14.1458C9.57956 14.1458 9.49135 14.1152 9.41714 14.0682C9.34293 14.0232 9.31078 13.9783 9.31078 13.9027C9.31078 13.8577 9.32486 13.8271 9.35494 13.7965C9.38503 13.7658 9.42914 13.7352 9.47326 13.7352C9.51739 13.7352 9.62367 13.7965 9.75805 13.917C9.83226 13.917 9.90649 13.8863 9.96666 13.8414C10.0268 13.7965 10.0549 13.7352 10.0549 13.6596C10.0549 13.6432 10.0549 13.6126 10.0409 13.5983C10.0269 13.5819 10.0108 13.5697 9.99673 13.5697C9.9526 13.5697 9.90647 13.584 9.8463 13.5983C9.78813 13.6126 9.728 13.6126 9.69792 13.6126C9.63775 13.6126 9.56352 13.5676 9.47326 13.4757C9.38501 13.3858 9.34085 13.3082 9.34085 13.2489C9.34085 13.1733 9.37093 13.1263 9.4291 13.0651C9.48927 13.0201 9.5635 13.0038 9.65375 13.0038H9.90651V12.8383H9.00993V14.0988H8.78733V12.8383H8.38413V14.0988H8.14547V13.3552H7.75637C7.74233 13.3552 7.72634 13.3552 7.7123 13.3695C7.69626 13.3858 7.69624 13.4001 7.69624 13.4144V13.5676C7.69624 13.5962 7.68222 13.6126 7.66617 13.6289C7.65213 13.6596 7.63605 13.6596 7.62201 13.6596C7.56184 13.6596 7.48761 13.6126 7.39735 13.5063C7.3091 13.4001 7.27699 13.3082 7.27699 13.2326C7.27699 13.2019 7.27703 13.1876 7.30912 13.1733C7.32316 13.157 7.35327 13.1427 7.38335 13.1427H8.14547V12.8403H7.01031V14.0743C7.06246 14.0886 7.11058 14.1111 7.14467 14.1479C7.21888 14.2234 7.24897 14.3011 7.24897 14.3767C7.24897 14.4829 7.21889 14.5748 7.12863 14.6504C7.05442 14.726 6.95008 14.7567 6.84579 14.7567C6.71141 14.7567 6.57706 14.726 6.44268 14.6647C6.32234 14.5891 6.20399 14.4972 6.11373 14.3767L6.23203 14.2398C6.33632 14.346 6.44064 14.4216 6.54493 14.4809C6.64923 14.5279 6.73953 14.5565 6.84382 14.5565C6.90399 14.5565 6.94812 14.5422 6.99425 14.5115C7.03837 14.4666 7.05438 14.4359 7.05438 14.3746C7.05438 14.344 7.03835 14.3133 7.00827 14.299C6.97818 14.2684 6.93404 14.252 6.90395 14.252C6.87387 14.252 6.85981 14.2684 6.82972 14.2827C6.79964 14.299 6.77158 14.3133 6.74149 14.344L6.60713 14.1928C6.65125 14.1479 6.71147 14.1152 6.75559 14.1009C6.76562 14.0947 6.77563 14.0927 6.78566 14.0866V13.7352C6.74153 13.7801 6.6954 13.8108 6.63523 13.8271C6.5911 13.8577 6.53093 13.8577 6.4848 13.8577H6.4707C6.30624 13.8577 6.1719 13.7965 6.0676 13.6902C5.9633 13.5697 5.90317 13.4165 5.90317 13.251C5.97738 13.2653 6.02349 13.2653 6.03753 13.2653C6.0977 13.2653 6.15583 13.251 6.20196 13.204C6.24609 13.1733 6.26015 13.1141 6.26015 13.0528C6.26015 13.0222 6.26017 12.9772 6.23008 12.9466C6.21604 12.9016 6.18594 12.871 6.15585 12.8403H5.82688V12.6279H11.2162L10.6045 12.0354L10.7689 11.8965L11.4268 12.6279H13.1277V12.8403L13.1336 12.8424ZM13.8718 16.5075H13.4927V15.0447H13.8718V16.5075ZM15.372 16.5239H14.9929V15.5882C14.9929 15.4799 14.8846 15.39 14.7623 15.39C14.6399 15.39 14.5416 15.4799 14.5416 15.5882H14.5397V16.5239H14.1545V15.5841C14.1585 15.2858 14.4293 15.0447 14.7623 15.0447C15.0952 15.0447 15.368 15.2858 15.37 15.5841V16.5239H15.372ZM16.066 16.5198C16.0539 16.5198 16.0459 16.5198 16.0359 16.5198V16.5259H15.6388V15.0366H16.0199C16.0359 15.0366 16.0519 15.0366 16.066 15.0366C16.4711 15.0366 16.8021 15.3696 16.8021 15.7802C16.8021 16.1909 16.4711 16.5239 16.066 16.5239V16.5198ZM17.3817 16.5075H17.0046V15.0447H17.3817V16.5075ZM18.8499 16.5239H18.4728V16.1806H18.0195V16.5239H17.6365V15.5841C17.6365 15.2858 17.9112 15.0447 18.2441 15.0447C18.5771 15.0447 18.8479 15.2858 18.8519 15.5841V16.5239H18.8499ZM19.1768 12.8424H18.9522V14.1029H18.7134V12.8424H18.3103V14.1029H18.0717V13.7393C18.0416 13.7842 17.9975 13.8148 17.9373 13.8312C17.8771 13.8618 17.833 13.8618 17.7728 13.8618H17.7588C17.6084 13.8618 17.474 13.8005 17.3697 13.6943C17.2654 13.5738 17.2052 13.4205 17.2052 13.2551C17.2653 13.2694 17.3095 13.2694 17.3396 13.2694C17.3998 13.2694 17.4579 13.2551 17.504 13.2081C17.5341 13.1774 17.5642 13.1182 17.5642 13.0569C17.5642 13.0262 17.5502 12.9813 17.5341 12.9506C17.5201 12.9057 17.488 12.8751 17.4599 12.8444H16.9525V13.1938H16.3849C16.3708 13.1938 16.3708 13.2081 16.3548 13.2081C16.3441 13.2176 16.3387 13.2278 16.3387 13.2387C16.3387 13.2694 16.3548 13.3 16.4149 13.3449C16.4591 13.3899 16.4911 13.4205 16.5192 13.4205C16.5513 13.4205 16.5935 13.4062 16.6396 13.3899C16.6978 13.3736 16.7299 13.3593 16.76 13.3593C16.8482 13.3593 16.9244 13.3899 16.9685 13.4348C17.0287 13.4941 17.0587 13.5554 17.0587 13.633C17.0587 13.7699 17.0126 13.8618 16.9244 13.9517C16.8341 14.0416 16.7158 14.0723 16.5955 14.0723C16.417 14.0723 16.2686 14.013 16.1201 13.9068C15.9557 13.7842 15.8353 13.6167 15.747 13.4205L15.9416 13.3286C16.0018 13.4818 16.09 13.6167 16.2103 13.7249C16.3307 13.8148 16.449 13.8761 16.5975 13.8761C16.6576 13.8761 16.7178 13.8455 16.7619 13.8005C16.806 13.7536 16.8361 13.7086 16.8361 13.633C16.8361 13.6167 16.8362 13.6024 16.8061 13.586C16.792 13.586 16.776 13.5717 16.7479 13.5717C16.7178 13.5717 16.6878 13.586 16.6296 13.6003C16.5835 13.6146 16.5393 13.6146 16.5092 13.6146C16.4511 13.6146 16.3608 13.5697 16.2545 13.4471C16.1502 13.3409 16.106 13.251 16.106 13.159C16.106 13.1284 16.1201 13.0814 16.1642 13.0528C16.1943 13.0222 16.2384 13.0058 16.2986 13.0058H16.7158V12.8403H15.5064V14.1009H15.2817V12.8403H14.8345V13.1897H14.343C14.313 13.1897 14.299 13.204 14.2829 13.204C14.2689 13.2183 14.2689 13.2346 14.2689 13.251C14.2689 13.2816 14.2829 13.3123 14.329 13.3572C14.3591 13.3879 14.3892 13.4022 14.4173 13.4022C14.4494 13.4022 14.4935 13.4022 14.5677 13.3879C14.6118 13.3715 14.672 13.3572 14.7021 13.3572C14.7763 13.3572 14.8345 13.3879 14.8966 13.4471C14.9388 13.492 14.9709 13.5697 14.9709 13.6453C14.9709 13.7515 14.9388 13.8577 14.8666 13.9354C14.8064 14.011 14.7322 14.0559 14.6279 14.0866C14.7041 14.1479 14.7924 14.2234 14.9127 14.3011L14.7923 14.4829C14.5978 14.3767 14.4634 14.2561 14.3591 14.1499C14.2688 14.1499 14.1806 14.1192 14.1044 14.0723C14.0301 14.0273 14.0001 13.9824 14.0001 13.9068C14.0001 13.8618 14.0141 13.8312 14.0442 13.8005C14.0743 13.7699 14.1185 13.7393 14.1646 13.7393C14.2107 13.7393 14.299 13.8005 14.4494 13.9211C14.5236 13.9211 14.5978 13.8904 14.658 13.8455C14.7182 13.8005 14.7462 13.7392 14.7462 13.6637C14.7462 13.6473 14.7322 13.6167 14.7322 13.6024C14.7182 13.586 14.7041 13.5738 14.6881 13.5738C14.6439 13.5738 14.5978 13.5881 14.5376 13.6024C14.4775 13.6167 14.4173 13.6167 14.3892 13.6167C14.3291 13.6167 14.2548 13.5717 14.1646 13.4798C14.0603 13.3899 14.0302 13.3123 14.0302 13.253C14.0302 13.1774 14.0603 13.1304 14.1185 13.0691C14.1786 13.0242 14.2528 13.0079 14.343 13.0079H14.5958V12.8424H13.8798V12.6299H15.2536C15.2376 12.5993 15.2376 12.5829 15.2236 12.5543V12.4624C15.2236 12.3398 15.2677 12.2356 15.386 12.1437C15.4903 12.0517 15.6106 12.0088 15.7591 12.0088C15.9235 12.0088 16.0719 12.0681 16.2063 12.1763C16.3567 12.2969 16.4611 12.4358 16.5513 12.6156H16.3127C16.2525 12.4951 16.1643 12.4052 16.074 12.3275C15.9697 12.2662 15.8654 12.2376 15.7611 12.2376C15.6869 12.2376 15.6127 12.2519 15.5525 12.2969C15.4923 12.3418 15.4622 12.4031 15.4622 12.4644C15.4622 12.5257 15.4623 12.5849 15.4924 12.6319H19.1808V12.8444L19.1768 12.8424ZM14.8525 12.3275H14.6339V12.1048H14.8525V12.3275ZM17.1791 11.5083L14.4394 7.84108L17.2393 3.69581L23.078 11.5083H17.1791ZM6.49078 12.9813C6.50683 13.0262 6.50685 13.0426 6.50685 13.0569C6.50685 13.1182 6.50683 13.1631 6.49078 13.2081C6.47674 13.2387 6.44671 13.2837 6.41663 13.3143C6.35846 13.3899 6.26612 13.4369 6.17787 13.4512C6.19191 13.5125 6.23604 13.5574 6.28217 13.6024C6.34234 13.633 6.40255 13.6473 6.47678 13.6473H6.49078C6.52087 13.6473 6.58102 13.633 6.62514 13.6024C6.68531 13.5738 6.7295 13.5268 6.78967 13.4655V12.8444H6.41663C6.44671 12.9037 6.47674 12.9506 6.49078 12.9813ZM12.3454 15.3716C12.3454 15.3716 12.3253 15.3716 12.3153 15.3716H12.2552V16.1827H12.3574C12.5841 16.1745 12.7666 15.9968 12.7666 15.7761C12.7666 15.5555 12.578 15.3716 12.3454 15.3716Z" fill="#3150A0"/>
</g>
<defs>
<clipPath id="clip0_20_589">
<rect width="141" height="19" fill="white"/>
</clipPath>
</defs>
</svg>
