<svg width="333" height="333" viewBox="0 0 333 333" fill="none" xmlns="http://www.w3.org/2000/svg">
<g clip-path="url(#clip0_1511_42991)">
<rect x="0.500651" y="46.6667" width="332" height="238.667" rx="12.6667" stroke="#0E2B72" stroke-width="1.33333"/>
<path d="M13.3333 46.6667H319.667C326.662 46.6667 332.333 52.3377 332.333 59.3333V82.3333H0.666667V59.3333C0.666667 52.3377 6.33773 46.6667 13.3333 46.6667Z" stroke="#0E2B72" stroke-width="1.33333"/>
<circle cx="27.168" cy="65" r="5.33333" stroke="#0E2B72" stroke-width="1.33333"/>
<circle cx="50.5" cy="65" r="5.33333" stroke="#0E2B72" stroke-width="1.33333"/>
<circle cx="73.834" cy="65" r="5.33333" fill="#FFB400" stroke="#0E2B72" stroke-width="1.33333"/>
<path d="M83.4396 274.53L218.134 271.629L215.674 164.644C215.592 161.211 214.151 157.952 211.667 155.582C209.183 153.211 205.859 151.924 202.427 152.003L93.6528 154.329C90.2194 154.409 86.9583 155.85 84.5869 158.334C82.2154 160.818 80.9279 164.143 81.0074 167.576L83.4396 274.53Z" stroke="#0E2B72" stroke-width="1.48484" stroke-linecap="round" stroke-linejoin="round"/>
<path d="M237.818 177.724L168.651 179.173C167.005 179.208 165.382 178.776 163.97 177.929C162.557 177.081 161.413 175.852 160.668 174.383C159.928 172.917 158.789 171.689 157.381 170.842C155.974 169.994 154.356 169.562 152.713 169.593L112.466 170.369C110.482 170.407 108.571 171.118 107.046 172.386C105.521 173.654 104.472 175.403 104.073 177.346L83.4102 274.564L218.139 271.63L243.11 185.013C243.438 184.18 243.552 183.275 243.438 182.383C243.326 181.492 242.991 180.644 242.463 179.917C241.936 179.19 241.233 178.609 240.421 178.226C239.609 177.842 238.714 177.67 237.818 177.724Z" fill="#0E2B72"/>
<path d="M237.818 177.724L168.651 179.173C167.005 179.208 165.382 178.776 163.97 177.929C162.557 177.081 161.413 175.852 160.668 174.383C159.928 172.917 158.789 171.689 157.381 170.842C155.974 169.994 154.356 169.562 152.713 169.593L112.466 170.369C110.482 170.407 108.571 171.118 107.046 172.386C105.521 173.654 104.472 175.403 104.073 177.346L83.4102 274.564L218.139 271.63L243.11 185.013C243.438 184.18 243.552 183.275 243.438 182.383C243.326 181.492 242.991 180.644 242.463 179.917C241.936 179.19 241.233 178.609 240.421 178.226C239.609 177.842 238.714 177.67 237.818 177.724Z" stroke="#0E2B72" stroke-width="1.48484" stroke-linecap="round" stroke-linejoin="round"/>
<path d="M249.418 193.123L136.127 195.449C133.88 195.488 131.683 196.112 129.75 197.259C127.818 198.405 126.217 200.035 125.105 201.988L83.4414 274.527L218.136 271.626L256.598 205.257C257.32 204.015 257.698 202.603 257.692 201.167C257.687 199.73 257.299 198.321 256.567 197.084C255.837 195.847 254.789 194.827 253.532 194.13C252.275 193.434 250.855 193.086 249.418 193.123Z" fill="#FFB400"/>
<path d="M249.418 193.123L136.127 195.449C133.88 195.488 131.683 196.112 129.75 197.259C127.818 198.405 126.217 200.035 125.105 201.988L83.4414 274.527L218.136 271.626L256.598 205.257C257.32 204.015 257.698 202.603 257.692 201.167C257.687 199.73 257.299 198.321 256.567 197.084C255.837 195.847 254.789 194.827 253.532 194.13C252.275 193.434 250.855 193.086 249.418 193.123Z" stroke="#0E2B72" stroke-width="1.48484" stroke-linecap="round" stroke-linejoin="round"/>
<path d="M25.72 105.816H24.968V107H24.128V105.816H21.224V105.016L23.848 101.64H24.968V105.112H25.72V105.816ZM24.128 105.112V102.504L22.168 105.112H24.128ZM29.5693 101.528C30.9213 101.528 31.8333 102.656 31.8333 104.32C31.8333 105.984 30.9213 107.112 29.5693 107.112C28.2173 107.112 27.3053 105.984 27.3053 104.32C27.3053 102.656 28.2173 101.528 29.5693 101.528ZM29.5693 106.32C30.4173 106.32 30.9613 105.504 30.9613 104.32C30.9613 103.136 30.4173 102.32 29.5693 102.32C28.7213 102.32 28.1773 103.136 28.1773 104.32C28.1773 105.504 28.7213 106.32 29.5693 106.32ZM37.9134 105.816H37.1614V107H36.3214V105.816H33.4174V105.016L36.0414 101.64H37.1614V105.112H37.9134V105.816ZM36.3214 105.112V102.504L34.3614 105.112H36.3214ZM47.4913 101.64V107H46.7633L43.5233 103.152V107H42.6673V101.64H43.3953L46.6273 105.552V101.64H47.4913ZM52.2572 101.528C53.8252 101.528 55.0572 102.768 55.0572 104.328C55.0572 105.88 53.8252 107.112 52.2572 107.112C50.6892 107.112 49.4652 105.88 49.4652 104.328C49.4652 102.768 50.6892 101.528 52.2572 101.528ZM52.2572 106.304C53.3452 106.304 54.1932 105.456 54.1932 104.328C54.1932 103.192 53.3452 102.336 52.2572 102.336C51.1772 102.336 50.3292 103.192 50.3292 104.328C50.3292 105.456 51.1772 106.304 52.2572 106.304ZM60.9588 102.416H59.0708V107H58.2068V102.416H56.3268V101.64H60.9588V102.416ZM66.5274 102.416V104.008H69.2954V104.784H66.5274V107H65.6714V101.64H69.5914V102.416H66.5274ZM73.9176 101.528C75.4856 101.528 76.7176 102.768 76.7176 104.328C76.7176 105.88 75.4856 107.112 73.9176 107.112C72.3496 107.112 71.1256 105.88 71.1256 104.328C71.1256 102.768 72.3496 101.528 73.9176 101.528ZM73.9176 106.304C75.0056 106.304 75.8536 105.456 75.8536 104.328C75.8536 103.192 75.0056 102.336 73.9176 102.336C72.8376 102.336 71.9896 103.192 71.9896 104.328C71.9896 105.456 72.8376 106.304 73.9176 106.304ZM83.2051 101.64V104.632C83.2051 106.112 82.3011 107.112 80.9411 107.112C79.5491 107.112 78.6291 106.112 78.6291 104.632V101.64H79.4851V104.632C79.4851 105.632 80.0611 106.288 80.9411 106.288C81.7811 106.288 82.3491 105.632 82.3491 104.632V101.64H83.2051ZM90.1957 101.64V107H89.4677L86.2277 103.152V107H85.3717V101.64H86.0997L89.3317 105.552V101.64H90.1957ZM92.4176 101.64H94.2896C96.1136 101.64 97.2496 102.76 97.2496 104.32C97.2496 105.88 96.1136 107 94.2896 107H92.4176V101.64ZM93.2736 106.224H94.2896C95.5936 106.224 96.3856 105.432 96.3856 104.32C96.3856 103.208 95.5936 102.416 94.2896 102.416H93.2736V106.224Z" fill="#0E2B72"/>
<path d="M253.288 119.353C243.334 117.467 233.837 123.323 232.116 132.427C231.531 135.616 231.944 138.907 233.299 141.852L229 148.892L237.146 147.233C239.881 149.856 243.324 151.621 247.051 152.312C257.006 154.197 266.503 148.342 268.223 139.239C269.956 130.138 263.27 121.239 253.288 119.353Z" stroke="#120071" stroke-width="1.32991" stroke-linecap="round" stroke-linejoin="round"/>
<path d="M250.372 137.881C250.397 136.75 250.831 135.924 252.233 134.06C255.256 130.038 253.424 127.268 250.85 127.146C250.39 127.125 249.93 127.206 249.505 127.383C249.079 127.56 248.698 127.828 248.388 128.17C248.079 128.511 247.848 128.916 247.713 129.357C247.578 129.798 247.542 130.263 247.608 130.719" stroke="#120071" stroke-width="1.32991" stroke-linecap="round" stroke-linejoin="round"/>
<path d="M252.016 141.181C252.005 141.41 251.904 141.626 251.735 141.782C251.565 141.937 251.341 142.019 251.111 142.01C250.968 142.005 250.829 141.964 250.706 141.891C250.582 141.819 250.479 141.717 250.405 141.594C250.331 141.472 250.288 141.333 250.28 141.19C250.273 141.047 250.301 140.905 250.362 140.776C250.448 140.595 250.594 140.449 250.774 140.363C250.955 140.278 251.16 140.257 251.354 140.304C251.549 140.352 251.721 140.465 251.841 140.625C251.962 140.784 252.024 140.981 252.016 141.181Z" stroke="#120071" stroke-width="1.32991"/>
<path d="M261.147 275.294C261.982 275.294 262.782 274.963 263.373 274.373C263.963 273.782 264.294 272.982 264.294 272.147C264.294 271.313 263.963 270.512 263.373 269.922C262.782 269.332 261.982 269 261.147 269C260.313 269 259.512 269.332 258.922 269.922C258.332 270.512 258 271.313 258 272.147C258 272.982 258.332 273.782 258.922 274.373C259.512 274.963 260.313 275.294 261.147 275.294Z" stroke="#0E2B72" stroke-width="0.806048" stroke-linecap="round" stroke-linejoin="round"/>
<path d="M62.6201 133.098L61.3359 129" stroke="#0E2B72" stroke-width="0.806048" stroke-linecap="round" stroke-linejoin="round"/>
<path d="M60.0977 137.926L56 139.21" stroke="#0E2B72" stroke-width="0.806048" stroke-linecap="round" stroke-linejoin="round"/>
<path d="M64.9238 140.449L66.2083 144.547" stroke="#0E2B72" stroke-width="0.806048" stroke-linecap="round" stroke-linejoin="round"/>
<path d="M67.4492 135.622L71.5469 134.338" stroke="#0E2B72" stroke-width="0.806048" stroke-linecap="round" stroke-linejoin="round"/>
<path d="M64.9233 140.45C65.8982 140.144 66.7118 139.464 67.1851 138.559C67.6584 137.653 67.7527 136.597 67.4472 135.622C67.1416 134.647 66.4613 133.833 65.5559 133.36C64.6505 132.887 63.5942 132.792 62.6193 133.098C61.6444 133.404 60.8307 134.084 60.3574 134.989C59.8841 135.895 59.7898 136.951 60.0953 137.926C60.4009 138.901 61.0812 139.714 61.9866 140.188C62.892 140.661 63.9483 140.755 64.9233 140.45Z" stroke="#0E2B72" stroke-width="0.806048" stroke-linecap="round" stroke-linejoin="round"/>
</g>
<defs>
<clipPath id="clip0_1511_42991">
<rect width="332.67" height="332.67" fill="white" transform="translate(0.335938)"/>
</clipPath>
</defs>
</svg>
