<svg width="314" height="315" viewBox="0 0 314 315" fill="none" xmlns="http://www.w3.org/2000/svg">
<path d="M217.976 85.9141C217.093 80.1778 212.239 74.2527 207.701 71.3846C207.228 71.0701 206.756 70.7855 206.283 70.5024C196.008 77.6191 177.222 89.1298 155.159 92.6286C153.457 92.9116 151.377 92.5011 150.084 93.6679C146.02 97.2925 145.2 109.963 135.146 110.246C133.758 113.778 132.498 117.181 131.143 120.081C132.786 117.778 144.797 119.961 147.847 120.648C150.839 121.31 163.747 124.827 163.197 127.583C165.466 122.696 164.584 117.749 163.103 112.578C181.1 109.113 206.031 96.3789 217.976 85.9141Z" fill="#0E2B72"/>
<path d="M60.572 139.087C57.3709 142.163 53.3293 144.222 48.9583 145.002C44.5873 145.782 40.0832 145.248 36.0156 143.468C31.948 141.688 28.4996 138.742 26.1064 135.002C23.7133 131.262 22.4829 126.896 22.5708 122.457C22.6588 118.018 24.0611 113.705 26.6006 110.063C29.14 106.42 32.7024 103.613 36.8374 101.996C40.9723 100.378 45.494 100.023 49.8307 100.976C54.1674 101.928 58.1242 104.145 61.2009 107.346C63.2456 109.471 64.8514 111.977 65.9265 114.723C67.0017 117.468 67.525 120.399 67.4666 123.347C67.4082 126.295 66.7692 129.202 65.5861 131.903C64.4031 134.604 62.6992 137.045 60.572 139.087Z" fill="#FFB400"/>
<path d="M130.763 242.844C127.895 244.515 122.538 241.048 116.676 234.428C116.778 236.712 117.426 238.939 118.566 240.922C122.538 248.36 122.349 266.704 126.762 265.417C127.991 265.038 129.441 258.796 130.734 251.643C131.403 248.187 132.287 244.776 133.382 241.43C132.834 241.71 131.313 242.478 130.763 242.844Z" fill="#FFB400"/>
<path d="M149.107 84.7798C149.686 86.4624 150.538 88.0382 151.63 89.4437C154.402 89.0349 157.484 88.1941 158.058 86.9231C158.157 86.7079 158.243 86.4878 158.311 86.261C157.586 88.5615 153.394 87.0174 149.107 84.7798Z" fill="#FFB400"/>
<path d="M152.826 67.8537C147.247 61.9916 129.062 66.5926 116.738 75.5132C104.352 84.4636 107.914 92.848 123.956 89.0034C123.011 89.2864 112.735 92.3747 106.022 100.092C96.1564 111.439 104.729 115.788 115.787 113.519C128.992 110.808 140.339 99.9663 144.184 92.4641C145.95 88.0439 147.147 83.4176 147.749 78.6959C143.148 74.9456 145.953 71.5412 148.474 74.1263C149.829 75.5132 151.342 74.8512 149.672 70.3197C151.355 69.2754 153.376 68.9411 152.826 67.8537Z" fill="#FFB400"/>
<path d="M194.903 251.102C194.321 243.619 194.405 236.098 195.155 228.629C189.175 230.317 182.831 230.219 176.906 228.346C177.032 233.579 175.394 236.225 176.749 239.473C177.563 241.292 178.718 242.94 180.152 244.325C186.079 250.315 191.153 267.964 195.029 265.443C196.101 264.747 195.691 258.351 194.903 251.102Z" fill="#FFB400"/>
<path d="M135.615 119.072C135.332 120.535 134.887 121.961 134.291 123.327C129.154 120.773 130.352 119.103 135.615 119.072Z" fill="#FFB400"/>
<path d="M163.229 127.544C163.101 128.143 162.25 128.522 160.832 128.703C161.368 127.726 161.842 126.843 162.25 125.96C162.975 126.573 163.321 127.109 163.229 127.544Z" fill="#FFB400"/>
<path d="M177.347 175.899L174.037 185.386C173.911 181.698 173.785 178.074 173.721 174.512L177.347 175.899Z" fill="#FFB400"/>
<path d="M64.1543 242.875C55.6905 228.387 44.4594 216.047 39.1534 218.091C31.9722 220.858 41.7154 243.049 47.3027 252.741C56.6951 269.005 68.042 280.036 72.7754 277.49C79.6553 273.657 68.416 250.169 64.1543 242.875Z" fill="#FFB400"/>
<path d="M122.348 208.742C113.019 192.604 101.704 181.699 97.038 184.413C92.3427 187.122 96.1244 202.378 105.422 218.515C114.72 234.651 126.067 245.527 130.731 242.844C135.428 240.135 131.646 224.879 122.348 208.742Z" fill="#FFB400"/>
<path d="M133.378 241.425C132.286 244.772 131.402 248.183 130.73 251.639C129.452 258.795 127.991 265.044 126.758 265.412C122.354 266.736 122.519 248.365 118.562 240.917C117.42 238.935 116.772 236.708 116.672 234.423" stroke="#0E2B72" stroke-width="1.66335" stroke-linecap="round" stroke-linejoin="round"/>
<path d="M242.463 122.823C241.834 121.805 240.989 120.938 239.988 120.283C238.987 119.628 237.854 119.201 236.67 119.033C235.486 118.864 234.279 118.958 233.135 119.308C231.991 119.658 230.938 120.255 230.05 121.057C229.698 119.86 229.075 118.76 228.229 117.843C227.384 116.925 226.339 116.215 225.174 115.766C223.497 115.119 221.653 115.047 219.931 115.561C218.208 116.076 216.706 117.147 215.658 118.608C215.024 119.484 214.57 120.477 214.322 121.529C213.344 120.792 212.212 120.285 211.011 120.047C209.809 119.809 208.569 119.845 207.384 120.152C206.198 120.46 205.097 121.032 204.164 121.824C203.23 122.617 202.487 123.61 201.991 124.73C201.328 126.228 201.133 127.892 201.431 129.503C200.368 129.224 199.259 129.162 198.171 129.319C197.083 129.476 196.037 129.85 195.096 130.418C194.033 131.07 193.135 131.958 192.47 133.012C191.805 134.066 191.391 135.259 191.26 136.499C191.129 137.738 191.285 138.991 191.715 140.161C192.145 141.331 192.838 142.387 193.74 143.246C192.074 143.902 190.67 145.089 189.746 146.623C188.823 148.158 188.431 149.954 188.631 151.733C188.762 152.913 189.151 154.05 189.768 155.065C190.631 156.491 191.919 157.61 193.451 158.266C194.983 158.922 196.683 159.081 198.31 158.721L242.309 131.744C243.416 131.077 244.762 126.535 242.463 122.823Z" stroke="#0E2B72" stroke-width="1.66335" stroke-linecap="round" stroke-linejoin="round"/>
<path d="M209.088 135.335C209.863 136.067 210.437 136.986 210.755 138.004C211.073 139.022 211.123 140.104 210.902 141.147C210.68 142.19 210.194 143.159 209.491 143.96C208.787 144.761 207.889 145.368 206.883 145.722C205.535 146.195 204.065 146.189 202.721 145.705" stroke="#0E2B72" stroke-width="1.66335" stroke-linecap="round" stroke-linejoin="round"/>
<path d="M228.692 129.789C228.516 131.063 227.951 132.252 227.074 133.193C226.198 134.135 225.052 134.782 223.793 135.048C222.534 135.313 221.224 135.184 220.042 134.677C218.86 134.17 217.863 133.31 217.187 132.215C216.902 131.742 216.679 131.233 216.525 130.702" stroke="#0E2B72" stroke-width="1.66335" stroke-linecap="round" stroke-linejoin="round"/>
<path d="M230.047 121.057C229.2 121.856 228.496 122.795 227.967 123.832" stroke="#0E2B72" stroke-width="1.66335" stroke-linecap="round" stroke-linejoin="round"/>
<path d="M196.611 142.714C195.633 142.763 194.667 142.943 193.736 143.247" stroke="#0E2B72" stroke-width="1.66335" stroke-linecap="round" stroke-linejoin="round"/>
<path d="M214.32 121.53C214.114 122.557 214.079 123.612 214.219 124.65" stroke="#0E2B72" stroke-width="1.66335" stroke-linecap="round" stroke-linejoin="round"/>
<path d="M204.551 130.966C203.605 130.296 202.548 129.801 201.428 129.504" stroke="#0E2B72" stroke-width="1.66335" stroke-linecap="round" stroke-linejoin="round"/>
<path d="M253.685 141.039C251.347 137.188 246.521 136.501 245.68 137.132L201.648 164.143C200.388 164.9 198.659 169.476 201.05 173.345C201.673 174.356 202.509 175.219 203.5 175.873C204.491 176.527 205.612 176.957 206.787 177.132C207.962 177.306 209.16 177.22 210.299 176.881C211.437 176.541 212.486 175.956 213.374 175.166C213.879 176.902 214.95 178.42 216.417 179.477C217.884 180.535 219.662 181.072 221.469 181.003C223.276 180.934 225.008 180.263 226.39 179.097C227.772 177.931 228.725 176.336 229.097 174.567C230.398 175.563 231.97 176.143 233.607 176.23C235.243 176.318 236.868 175.909 238.268 175.057C239.669 174.206 240.779 172.951 241.454 171.457C242.129 169.964 242.337 168.301 242.051 166.687C243.797 167.128 245.64 166.977 247.292 166.258C248.943 165.539 250.31 164.292 251.176 162.713C252.042 161.133 252.358 159.31 252.075 157.531C251.793 155.752 250.927 154.117 249.614 152.883C250.731 152.458 251.742 151.793 252.574 150.935C253.406 150.077 254.039 149.046 254.428 147.916C254.816 146.785 254.951 145.583 254.823 144.395C254.694 143.206 254.306 142.061 253.685 141.039Z" stroke="#0E2B72" stroke-width="1.66335" stroke-linecap="round" stroke-linejoin="round"/>
<path d="M227.365 165.151C227.123 164.331 226.714 163.57 226.165 162.915C225.615 162.259 224.937 161.724 224.172 161.342C223.406 160.961 222.571 160.74 221.717 160.696C220.863 160.651 220.009 160.782 219.208 161.082C218.137 161.483 217.197 162.171 216.492 163.071C215.802 163.96 215.356 165.014 215.199 166.128" stroke="#0E2B72" stroke-width="1.66335" stroke-linecap="round" stroke-linejoin="round"/>
<path d="M241.204 150.219C239.856 149.755 238.389 149.766 237.049 150.251C235.708 150.736 234.573 151.664 233.833 152.883C233.093 154.102 232.792 155.537 232.981 156.95C233.169 158.363 233.835 159.67 234.868 160.652" stroke="#0E2B72" stroke-width="1.66335" stroke-linecap="round" stroke-linejoin="round"/>
<path d="M249.618 152.891C248.507 153.301 247.334 153.515 246.15 153.522" stroke="#0E2B72" stroke-width="1.66335" stroke-linecap="round" stroke-linejoin="round"/>
<path d="M215.119 172.893C214.648 173.733 214.06 174.503 213.375 175.181" stroke="#0E2B72" stroke-width="1.66335" stroke-linecap="round" stroke-linejoin="round"/>
<path d="M242.057 166.696C241.042 166.405 240.082 165.95 239.215 165.349" stroke="#0E2B72" stroke-width="1.66335" stroke-linecap="round" stroke-linejoin="round"/>
<path d="M229.191 171.199C229.341 172.322 229.311 173.462 229.102 174.575" stroke="#0E2B72" stroke-width="1.66335" stroke-linecap="round" stroke-linejoin="round"/>
<path d="M201.647 164.144L196.951 166.979" stroke="#0E2B72" stroke-width="1.66335" stroke-linecap="round" stroke-linejoin="round"/>
<path d="M198.308 158.722L193.674 161.527" stroke="#0E2B72" stroke-width="1.66335" stroke-linecap="round" stroke-linejoin="round"/>
<path d="M173.882 181.005L123.83 211.388" stroke="#0E2B72" stroke-width="1.66335" stroke-linecap="round" stroke-linejoin="round"/>
<path d="M172.873 174.166L120.646 205.906" stroke="#0E2B72" stroke-width="1.66335" stroke-linecap="round" stroke-linejoin="round"/>
<path d="M217.31 86.4814C228.52 85.4442 239.79 87.6678 249.766 92.8848C259.741 98.1018 267.997 106.09 273.54 115.888C290.282 144.661 281.512 181.821 253.966 198.876C236.735 209.545 231.954 203.904 198.494 213.441" stroke="#0E2B72" stroke-width="1.66335" stroke-linecap="round" stroke-linejoin="round"/>
<path d="M131.09 242.599C146.396 234.616 160.074 227.639 174.162 221.884" stroke="#0E2B72" stroke-width="1.66335" stroke-linecap="round" stroke-linejoin="round"/>
<path d="M132.844 157.556C122.224 166.066 110.592 174.356 97.0078 184.379" stroke="#0E2B72" stroke-width="1.66335" stroke-linecap="round" stroke-linejoin="round"/>
<path d="M178.482 108.072C171.877 118.002 164.465 127.374 156.324 136.091" stroke="#0E2B72" stroke-width="1.66335" stroke-linecap="round" stroke-linejoin="round"/>
<path d="M206.251 70.5339C211.577 73.5278 216.999 79.6746 217.976 85.9141C206.03 96.3789 181.1 109.113 163.103 112.578C164.584 117.749 165.466 122.697 163.197 127.583C163.747 124.831 151.028 121.358 147.847 120.648C144.742 119.955 132.773 117.8 131.143 120.081C132.498 117.181 133.759 113.777 135.146 110.246C145.2 109.963 146.003 97.2743 150.084 93.6679C151.37 92.5326 153.394 92.9132 155.159 92.6286C177.209 89.0421 196.008 77.6257 206.283 70.5024L206.251 70.5339Z" stroke="#0E2B72" stroke-width="1.66335" stroke-linecap="round" stroke-linejoin="round"/>
<path d="M132.945 125.691C141.969 125.547 150.855 127.908 158.618 132.509" stroke="#0E2B72" stroke-width="1.66335" stroke-linecap="round" stroke-linejoin="round"/>
<path d="M158.165 86.5969C157.138 88.3943 153.166 86.8981 149.107 84.7764C149.686 86.4592 150.538 88.035 151.63 89.4402" stroke="#0E2B72" stroke-width="1.66335" stroke-linecap="round" stroke-linejoin="round"/>
<path d="M153.989 92.7457C151.793 92.2062 152.38 91.137 151.629 89.4439C157.554 88.5684 158.58 87.4777 158.337 84.5086C157.981 80.1956 155.449 70.7983 152.825 67.854" stroke="#0E2B72" stroke-width="1.66335" stroke-linecap="round" stroke-linejoin="round"/>
<path d="M163.102 112.579C161.274 112.926 159.509 113.178 157.869 113.337" stroke="#0E2B72" stroke-width="1.66335" stroke-linecap="round" stroke-linejoin="round"/>
<path d="M149.675 70.3133C151.345 74.8514 149.84 75.5134 148.476 74.1199C145.954 71.5364 143.151 74.9474 147.752 78.6894C147.152 83.4127 145.955 88.0407 144.19 92.4626C140.345 99.9649 128.998 110.807 115.793 113.518C104.729 115.787 96.156 111.438 106.028 100.091C112.741 92.3683 123.017 89.28 123.962 89.0019C107.92 92.8466 104.362 84.4671 116.745 75.5118C129.071 66.5961 147.253 61.9901 152.833 67.8523C153.365 68.9314 151.295 69.312 149.675 70.3133Z" stroke="#0E2B72" stroke-width="1.66335" stroke-linecap="round" stroke-linejoin="round"/>
<path d="M135.145 110.246C136.809 105.742 138.954 101.43 141.543 97.3862C142.566 95.8552 143.442 94.2304 144.158 92.5337" stroke="#0E2B72" stroke-width="1.66335" stroke-linecap="round" stroke-linejoin="round"/>
<path d="M156.371 136.041C158.557 132.823 160.526 129.462 162.265 125.982" stroke="#0E2B72" stroke-width="1.66335" stroke-linecap="round" stroke-linejoin="round"/>
<path d="M224.846 68.9895C229.604 67.8542 233.521 69.9991 233.197 71.8263C233.124 72.1928 232.974 72.5396 232.757 72.8437C232.54 73.1479 232.26 73.4024 231.938 73.5905" stroke="#0E2B72" stroke-width="1.66335" stroke-linecap="round" stroke-linejoin="round"/>
<path d="M224.404 66.0902C229.416 64.892 234.396 67.4142 232.252 70.0623" stroke="#0E2B72" stroke-width="1.66335" stroke-linecap="round" stroke-linejoin="round"/>
<path d="M217.438 83.6444C220.403 80.2593 224.208 77.7156 228.47 76.2695" stroke="#0E2B72" stroke-width="1.66335" stroke-linecap="round" stroke-linejoin="round"/>
<path d="M224.657 72.392C229.291 71.4469 232.343 73.2741 232.16 75.0714C231.933 77.2776 227.525 80.6191 223.807 78.4759" stroke="#0E2B72" stroke-width="1.66335" stroke-linecap="round" stroke-linejoin="round"/>
<path d="M220.749 64.4185C220.812 64.3556 222.735 61.6777 221.884 60.8254C221.16 60.1005 210.695 68.705 207.764 71.4474" stroke="#0E2B72" stroke-width="1.66335" stroke-linecap="round" stroke-linejoin="round"/>
<path d="M226.767 65.774C235.088 61.7721 237.322 56.9444 235.75 57.8298C230.503 60.4563 225.116 62.7923 219.612 64.8273C215.352 66.4479 211.35 68.6779 207.73 71.4474" stroke="#0E2B72" stroke-width="1.66335" stroke-linecap="round" stroke-linejoin="round"/>
<path d="M195.155 228.629C194.412 236.098 194.328 243.618 194.904 251.103C195.706 258.35 196.1 264.748 195.03 265.443C191.15 267.961 186.068 250.326 180.152 244.325C178.716 242.942 177.561 241.294 176.75 239.473C175.391 236.22 177.038 233.569 176.905 228.319" stroke="#0E2B72" stroke-width="1.66335" stroke-linecap="round" stroke-linejoin="round"/>
<path d="M122.347 208.742C131.657 224.872 135.43 240.14 130.73 242.836C126.069 245.52 114.719 234.642 105.421 218.507C96.123 202.372 92.3445 187.126 97.0365 184.41C101.729 181.694 113.029 192.597 122.347 208.742Z" stroke="#0E2B72" stroke-width="1.66335" stroke-linecap="round" stroke-linejoin="round"/>
<path d="M74.5086 268.606C72.1519 253.938 57.9848 229.533 46.4823 220.72C40.5408 216.117 36.2857 216.931 36.7722 224.65C37.6958 239.297 54.0061 267.555 66.1805 275.847C72.9397 280.448 75.8459 276.933 74.5086 268.606Z" stroke="#0E2B72" stroke-width="1.66335" stroke-linecap="round" stroke-linejoin="round"/>
<path d="M73.0873 277.325L82.4449 271.911C83.3458 271.204 83.9581 270.193 84.1671 269.068C84.3761 267.942 84.1675 266.778 83.5803 265.796C87.3041 271.404 94.611 265.613 91.68 260.753C94.3992 265.387 102.949 262.394 99.4338 255.364C100.23 256.397 101.365 257.116 102.64 257.392C103.914 257.669 105.245 257.487 106.398 256.877C110.205 254.447 108.793 249.722 106.431 242.031C102.014 228.822 95.0057 216.626 85.8179 206.158C83.6099 203.528 81.0818 201.184 78.2924 199.18C73.8818 196.445 68.92 198.495 70.6263 205.938C69.2228 203.599 67.5761 202.07 64.794 202.817C64.0918 203.013 63.4444 203.368 62.9024 203.856C62.3604 204.343 61.9383 204.949 61.6693 205.627C61.4004 206.305 61.2923 207.035 61.3535 207.762C61.4147 208.488 61.6434 209.191 62.0218 209.814C62.0218 209.814 58.7564 205.686 55.0558 208.617C54.1374 209.334 53.5187 210.367 53.3204 211.514C53.1221 212.662 53.3585 213.843 53.9833 214.826C53.5352 214.033 52.8607 213.393 52.0462 212.987C51.2317 212.581 50.3144 212.428 49.4121 212.547C48.8129 212.625 48.2352 212.821 47.7124 213.124L38.9043 218.192" stroke="#0E2B72" stroke-width="1.66335" stroke-linecap="round" stroke-linejoin="round"/>
<path d="M309.221 76.333L305.092 85.583H312.655L308.495 94.8346" stroke="#0E2B72" stroke-width="1.66335" stroke-linecap="round" stroke-linejoin="round"/>
<path d="M162.25 304.81L145.482 305.313" stroke="#0E2B72" stroke-width="1.66335" stroke-linecap="round" stroke-linejoin="round"/>
<path d="M154.118 313.446L153.613 296.677" stroke="#0E2B72" stroke-width="1.66335" stroke-linecap="round" stroke-linejoin="round"/>
<path d="M135.619 119.073C135.336 120.536 134.891 121.962 134.295 123.328C129.158 120.774 130.356 119.104 135.619 119.073Z" stroke="#0E2B72" stroke-width="1.66335" stroke-linecap="round" stroke-linejoin="round"/>
<path d="M163.196 127.583C163.043 128.154 162.234 128.526 160.865 128.711" stroke="#0E2B72" stroke-width="1.66335" stroke-linecap="round" stroke-linejoin="round"/>
<path d="M135.616 119.073C135.1 122.653 133.282 125.918 130.51 128.243C118.124 138.077 117.932 151.851 126.98 162.158" stroke="#0E2B72" stroke-width="1.66335" stroke-linecap="round" stroke-linejoin="round"/>
<path d="M38.3538 218.537L24.3887 226.454" stroke="#0E2B72" stroke-width="1.66335" stroke-linecap="round" stroke-linejoin="round"/>
<path d="M72.447 277.671L59.9102 284.984" stroke="#0E2B72" stroke-width="1.66335" stroke-linecap="round" stroke-linejoin="round"/>
<path d="M53.8585 288.798L44.5605 294.22" stroke="#0E2B72" stroke-width="1.66335" stroke-linecap="round" stroke-linejoin="round"/>
<path d="M17.8949 230.521L8.4082 235.911" stroke="#0E2B72" stroke-width="1.66335" stroke-linecap="round" stroke-linejoin="round"/>
<path d="M47.3349 252.741L16.793 270.8" stroke="#0E2B72" stroke-width="1.66335" stroke-linecap="round" stroke-linejoin="round"/>
<path d="M10.7099 274.616L1.44336 280.005" stroke="#0E2B72" stroke-width="1.66335" stroke-linecap="round" stroke-linejoin="round"/>
<path d="M60.572 139.087C57.3709 142.163 53.3293 144.222 48.9583 145.002C44.5873 145.782 40.0832 145.248 36.0156 143.468C31.948 141.688 28.4996 138.742 26.1064 135.002C23.7133 131.262 22.4829 126.896 22.5708 122.457C22.6588 118.018 24.0611 113.705 26.6006 110.063C29.14 106.42 32.7024 103.613 36.8374 101.996C40.9723 100.378 45.494 100.023 49.8307 100.976C54.1674 101.928 58.1242 104.145 61.2009 107.346C63.2456 109.471 64.8514 111.977 65.9265 114.723C67.0017 117.468 67.525 120.399 67.4666 123.347C67.4082 126.295 66.7692 129.202 65.5861 131.903C64.4031 134.604 62.6992 137.045 60.572 139.087Z" stroke="#0E2B72" stroke-width="1.66335" stroke-linecap="round" stroke-linejoin="round"/>
<path d="M67.4444 124.234C74.4105 127.544 78.5332 130.689 77.9407 132.675C76.8798 136.261 61.2033 134.881 42.892 129.585C24.5807 124.289 10.5808 117.084 11.6251 113.493C12.221 111.442 17.5187 111.002 25.3619 111.98" stroke="#0E2B72" stroke-width="1.66335" stroke-linecap="round" stroke-linejoin="round"/>
<path d="M128.219 147.659C129.132 153.395 132.356 158.655 136.697 160.015C150.254 164.255 173.73 174.545 173.73 174.545C174.023 190.777 175.493 208.638 173.921 227.307C181.438 230.471 189.876 230.662 197.528 227.842C198.852 210.224 199.701 193.329 199.387 177.727C199.316 173.845 198.416 170.023 196.747 166.517C195.078 163.011 192.68 159.902 189.711 157.399C177.462 147.272 163.805 138.98 149.17 132.783" stroke="#0E2B72" stroke-width="1.66335" stroke-linecap="round" stroke-linejoin="round"/>
<path d="M173.723 174.544L177.347 175.899L174.039 185.386" stroke="#0E2B72" stroke-width="1.66335" stroke-linecap="round" stroke-linejoin="round"/>
<path d="M174.574 214.855C182.237 217.485 190.487 217.889 198.37 216.022" stroke="#0E2B72" stroke-width="1.66335" stroke-linecap="round" stroke-linejoin="round"/>
<path d="M167.639 1.22412V6.48878" stroke="#0E2B72" stroke-width="1.66335" stroke-linecap="round" stroke-linejoin="round"/>
<path d="M177.884 11.4673H172.619" stroke="#0E2B72" stroke-width="1.66335" stroke-linecap="round" stroke-linejoin="round"/>
<path d="M167.639 21.7114V16.4468" stroke="#0E2B72" stroke-width="1.66335" stroke-linecap="round" stroke-linejoin="round"/>
<path d="M157.398 11.4673H162.665" stroke="#0E2B72" stroke-width="1.66335" stroke-linecap="round" stroke-linejoin="round"/>
<path d="M172.619 11.4671C171.965 11.4691 171.317 11.3416 170.712 11.0922C170.107 10.8427 169.557 10.476 169.094 10.0134C168.632 9.5507 168.265 9.00111 168.016 8.39622C167.766 7.79133 167.639 7.14309 167.641 6.48877C167.644 7.4739 167.354 8.43766 166.807 9.25712C166.26 10.0766 165.482 10.7146 164.571 11.0898C163.966 11.3399 163.318 11.4682 162.664 11.4671C163.318 11.4656 163.966 11.5934 164.571 11.8431C165.176 12.0929 165.725 12.4597 166.188 12.9225C166.65 13.3853 167.017 13.9349 167.266 14.5398C167.515 15.1447 167.643 15.7928 167.641 16.4471C167.639 15.7927 167.766 15.1444 168.016 14.5394C168.265 13.9344 168.632 13.3847 169.094 12.9219C169.557 12.4591 170.107 12.0923 170.712 11.8427C171.316 11.593 171.965 11.4654 172.619 11.4671Z" stroke="#0E2B72" stroke-width="1.66335" stroke-linecap="round" stroke-linejoin="round"/>
</svg>
