<svg width="333" height="333" viewBox="0 0 333 333" fill="none" xmlns="http://www.w3.org/2000/svg">
<path d="M130.228 241.439C128.3 242.312 126.563 243.556 125.116 245.1C123.669 246.645 122.541 248.46 121.796 250.441C120.291 254.44 120.436 258.874 122.199 262.767C123.963 266.66 127.199 269.694 131.198 271.201C133.179 271.947 135.287 272.296 137.402 272.227C139.518 272.158 141.599 271.673 143.526 270.8L130.228 241.439Z" fill="#FFB400"/>
<path d="M116.477 211.016L150.239 285.524" stroke="#0E2B72" stroke-width="1.60596" stroke-linecap="round" stroke-linejoin="round"/>
<path d="M98.3814 171.06L50.744 66.0071C48.1633 60.4143 51.8066 55.4719 57.9091 56.2597L140.615 67.0681C145.422 67.6969 149.994 69.5293 153.904 72.3956C157.815 75.2619 160.939 79.0692 162.986 83.4645L256.56 285.462" stroke="#0E2B72" stroke-width="1.60596" stroke-linecap="round" stroke-linejoin="round"/>
<path d="M50.5488 59.5856C52.1954 55.7351 55.0507 52.5252 58.6831 50.4412C62.3155 48.3572 66.5276 47.5123 70.6827 48.0341L151.779 58.4782C155.293 58.9281 158.635 60.2617 161.493 62.3543C164.351 64.4468 166.631 67.23 168.121 70.4435L267.738 285.467" stroke="#0E2B72" stroke-width="1.60596" stroke-linecap="round" stroke-linejoin="round"/>
<path d="M79.6903 76.4217C83.495 82.0835 83.5627 88.7411 79.819 91.307C76.0754 93.8729 69.8618 91.3459 66.045 85.6861C62.2282 80.0262 62.1513 73.3371 65.9163 70.8008C69.6812 68.2645 75.8856 70.7599 79.6903 76.4217Z" fill="#FFB400" stroke="#0E2B72" stroke-width="2" stroke-linecap="round" stroke-linejoin="round"/>
<path d="M106.794 81.1619C110.599 86.8237 110.666 93.4813 106.923 96.0472C103.179 98.6131 96.9653 96.0862 93.1485 90.4263C89.3317 84.7664 89.2548 78.0773 93.0198 75.541C96.7847 73.0047 102.989 75.5001 106.794 81.1619Z" fill="#FFB400" stroke="#0E2B72" stroke-width="2" stroke-linecap="round" stroke-linejoin="round"/>
<path d="M95.3329 104.284C99.1376 109.946 99.2052 116.604 95.4616 119.17C91.718 121.736 85.5043 119.209 81.6876 113.549C77.8708 107.889 77.7939 101.2 81.5588 98.6636C85.3238 96.1273 91.5282 98.6227 95.3329 104.284Z" fill="#FFB400" stroke="#0E2B72" stroke-width="2" stroke-linecap="round" stroke-linejoin="round"/>
<path d="M16.7051 82.0391L24.8114 99.5875" stroke="#0E2B72" stroke-width="1.60596" stroke-linecap="round" stroke-linejoin="round"/>
<path d="M29.5181 86.7461L12 94.8827" stroke="#0E2B72" stroke-width="1.60596" stroke-linecap="round" stroke-linejoin="round"/>
<path d="M260.359 230.843C274.995 238.707 278.061 216.269 292.695 224.132" stroke="#FFB400" stroke-width="1.60596" stroke-linecap="round" stroke-linejoin="round"/>
<path d="M130.23 241.47C127.373 242.76 124.955 244.855 123.271 247.498C121.587 250.142 120.711 253.219 120.749 256.353C120.778 258.697 121.318 261.007 122.332 263.121C123.346 265.235 124.81 267.102 126.62 268.592C128.431 270.081 130.544 271.157 132.814 271.745C135.084 272.333 137.454 272.418 139.76 271.995C142.066 271.572 144.252 270.65 146.165 269.294C148.077 267.938 149.671 266.181 150.834 264.145C151.997 262.11 152.702 259.845 152.899 257.509C153.096 255.172 152.78 252.821 151.974 250.62C150.824 247.491 148.732 244.795 145.987 242.903C143.241 241.012 139.978 240.017 136.644 240.056C134.431 240.082 132.248 240.563 130.23 241.47Z" stroke="#0E2B72" stroke-width="1.60596" stroke-linecap="round" stroke-linejoin="round"/>
<mask id="path-12-inside-1_1511_42893" fill="white">
<path fill-rule="evenodd" clip-rule="evenodd" d="M173.53 47C168.224 47 163.922 51.3018 163.922 56.6082V124.666C163.922 129.973 168.224 134.275 173.53 134.275H267.134L280.873 144.301C283.397 146.143 286.795 143.65 285.796 140.69L280.021 123.579V56.6082C280.021 51.3017 275.719 47 270.413 47H173.53Z"/>
</mask>
<path fill-rule="evenodd" clip-rule="evenodd" d="M173.53 47C168.224 47 163.922 51.3018 163.922 56.6082V124.666C163.922 129.973 168.224 134.275 173.53 134.275H267.134L280.873 144.301C283.397 146.143 286.795 143.65 285.796 140.69L280.021 123.579V56.6082C280.021 51.3017 275.719 47 270.413 47H173.53Z" fill="#FFF8E6"/>
<path d="M267.134 134.275L268.08 132.977L267.657 132.669H267.134V134.275ZM280.873 144.301L279.926 145.598L279.926 145.598L280.873 144.301ZM285.796 140.69L284.274 141.203L284.274 141.203L285.796 140.69ZM280.021 123.579H278.415V123.842L278.5 124.092L280.021 123.579ZM165.528 56.6082C165.528 52.1887 169.111 48.606 173.53 48.606V45.394C167.337 45.394 162.316 50.4148 162.316 56.6082H165.528ZM165.528 124.666V56.6082H162.316V124.666H165.528ZM173.53 132.669C169.111 132.669 165.528 129.086 165.528 124.666H162.316C162.316 130.86 167.337 135.881 173.53 135.881V132.669ZM267.134 132.669H173.53V135.881H267.134V132.669ZM281.82 143.004L268.08 132.977L266.187 135.572L279.926 145.598L281.82 143.004ZM284.274 141.203C284.772 142.679 283.078 143.922 281.82 143.004L279.926 145.598C283.716 148.364 288.817 144.621 287.317 140.176L284.274 141.203ZM278.5 124.092L284.274 141.203L287.317 140.176L281.543 123.065L278.5 124.092ZM278.415 56.6082V123.579H281.627V56.6082H278.415ZM270.413 48.606C274.832 48.606 278.415 52.1887 278.415 56.6082H281.627C281.627 50.4148 276.606 45.394 270.413 45.394V48.606ZM173.53 48.606H270.413V45.394H173.53V48.606Z" fill="#0E2B72" mask="url(#path-12-inside-1_1511_42893)"/>
<mask id="path-14-inside-2_1511_42893" fill="white">
<path fill-rule="evenodd" clip-rule="evenodd" d="M85.1161 233.686C80.7437 233.686 77.1992 230.141 77.1992 225.769V169.691C77.1992 165.319 80.7437 161.774 85.1161 161.774H162.241L173.562 153.513C175.642 151.995 178.441 154.049 177.618 156.489L172.861 170.585V225.769C172.861 230.141 169.316 233.686 164.944 233.686H85.1161Z"/>
</mask>
<path fill-rule="evenodd" clip-rule="evenodd" d="M85.1161 233.686C80.7437 233.686 77.1992 230.141 77.1992 225.769V169.691C77.1992 165.319 80.7437 161.774 85.1161 161.774H162.241L173.562 153.513C175.642 151.995 178.441 154.049 177.618 156.489L172.861 170.585V225.769C172.861 230.141 169.316 233.686 164.944 233.686H85.1161Z" fill="#FFF8E6"/>
<path d="M162.241 161.774L163.188 163.072L162.765 163.38H162.241V161.774ZM173.562 153.513L172.616 152.216L172.616 152.216L173.562 153.513ZM177.618 156.489L176.097 155.975L176.097 155.975L177.618 156.489ZM172.861 170.585H171.255V170.322L171.339 170.072L172.861 170.585ZM78.8052 225.769C78.8052 229.254 81.6307 232.08 85.1161 232.08V235.292C79.8568 235.292 75.5933 231.028 75.5933 225.769H78.8052ZM78.8052 169.691V225.769H75.5933V169.691H78.8052ZM85.1161 163.38C81.6307 163.38 78.8052 166.206 78.8052 169.691H75.5933C75.5933 164.432 79.8568 160.168 85.1161 160.168V163.38ZM162.241 163.38H85.1161V160.168H162.241V163.38ZM174.509 154.81L163.188 163.072L161.295 160.477L172.616 152.216L174.509 154.81ZM176.097 155.975C176.419 155.02 175.323 154.216 174.509 154.81L172.616 152.216C175.961 149.775 180.464 153.078 179.14 157.002L176.097 155.975ZM171.339 170.072L176.097 155.975L179.14 157.002L174.383 171.099L171.339 170.072ZM171.255 225.769V170.585H174.467V225.769H171.255ZM164.944 232.08C168.429 232.08 171.255 229.254 171.255 225.769H174.467C174.467 231.028 170.203 235.292 164.944 235.292V232.08ZM85.1161 232.08H164.944V235.292H85.1161V232.08Z" fill="#0E2B72" mask="url(#path-14-inside-2_1511_42893)"/>
<path d="M125.913 214.287C125.887 214.844 125.641 215.368 125.23 215.745C124.82 216.121 124.277 216.32 123.72 216.298C123.373 216.285 123.035 216.186 122.737 216.01C122.438 215.834 122.187 215.587 122.007 215.29C121.827 214.994 121.724 214.657 121.706 214.311C121.688 213.965 121.756 213.62 121.904 213.306C122.112 212.868 122.465 212.515 122.903 212.307C123.341 212.099 123.838 212.048 124.309 212.163C124.78 212.279 125.197 212.553 125.489 212.94C125.781 213.327 125.931 213.803 125.913 214.287Z" stroke="#FFB400" stroke-width="3"/>
<path d="M123.777 205.029C123.838 202.287 124.89 200.285 128.287 195.766C135.615 186.019 131.173 179.303 124.935 179.008C123.819 178.957 122.706 179.153 121.675 179.582C120.643 180.011 119.719 180.662 118.969 181.489C118.218 182.316 117.659 183.299 117.332 184.367C117.005 185.435 116.918 186.562 117.077 187.668" stroke="#0E2B72" stroke-width="3" stroke-linecap="round" stroke-linejoin="round"/>
<path d="M181.586 71.0894H260.278" stroke="#0E2B72" stroke-width="2" stroke-linecap="round"/>
<path d="M181.586 83.937H260.278" stroke="#FFB400" stroke-width="2" stroke-linecap="round"/>
<path d="M181.586 96.7852H260.278" stroke="#0E2B72" stroke-width="2" stroke-linecap="round"/>
<path d="M181.586 109.632H260.278" stroke="#FFB400" stroke-width="2" stroke-linecap="round"/>
<path d="M2 286H330" stroke="#0E2B72" stroke-width="2" stroke-linecap="round"/>
</svg>
