<svg width="332" height="306" viewBox="0 0 332 306" fill="none" xmlns="http://www.w3.org/2000/svg">
<path d="M134.913 105.301C129.803 109.576 113.973 112.582 99.1108 150.088L77.2353 130.416C67.138 135.54 59.3143 144.245 55.293 154.83L88.1898 184.391C92.0003 187.803 97.0087 189.565 102.116 189.289C107.224 189.014 112.014 186.724 115.435 182.921L129.067 167.746L123.651 203.661L101.475 228.376C107.04 238.146 115.616 245.854 125.922 250.348L149.401 224.231C152.877 220.365 155.333 215.693 156.548 210.638C161.658 189.193 159.921 151.357 163.227 118.761C149.976 116.289 145.066 113.283 134.913 105.301Z" fill="#0E2B72"/>
<path d="M315.902 106.803L277.828 146.981L292.924 80.5193L330.997 40.3418L315.902 106.803Z" fill="#FFB400"/>
<path d="M195.192 92.0753C194.691 91.7413 193.823 92.0419 192.688 92.8434L195.324 95.0143C195.76 93.478 195.76 92.4093 195.192 92.0753Z" fill="#FFB400"/>
<path d="M171.616 112.615C170.913 114.419 171.006 115.934 171.549 116.289C172.092 116.644 173.659 116.289 174.713 114.92L171.616 112.615Z" fill="#FFB400"/>
<path d="M186.815 93.5455C186.314 93.2115 185.446 93.5121 184.311 94.3137L186.947 96.4845C187.378 94.9816 187.343 93.9129 186.815 93.5455Z" fill="#FFB400"/>
<path d="M108.695 220.156L101.312 228.372C106.877 238.142 115.453 245.85 125.76 250.344L133.475 241.761C123.33 237.059 114.735 229.565 108.695 220.156Z" fill="#FFB400"/>
<path d="M151.178 99.0225L163.535 118.226L166.808 112.281L151.178 99.0225Z" fill="#FFB400"/>
<path d="M163.834 50.5957L165.537 54.2695L166.472 51.7646L163.834 50.5957Z" fill="#FFB400"/>
<path d="M154.985 138.899L129.035 167.755L126.396 185.456L154.985 138.899Z" fill="#FFB400"/>
<path d="M91.9284 249.88C89.7093 252.258 87.4715 254.618 85.2154 256.961C83.3785 267.815 84.2469 292.73 87.7536 304.319C97.0699 288.822 100.445 279.007 105.156 263.039C100.081 259.377 95.6165 254.936 91.9284 249.88Z" fill="#FFB400"/>
<path d="M55.1606 121.8C53.5575 120.197 51.7206 118.226 49.2826 115.588C30.376 118.26 9.57091 124.572 0.753906 128.747C14.202 133.832 28.6072 135.885 42.9405 134.758L43.6753 135.426C46.8277 130.355 50.6961 125.765 55.1606 121.8Z" fill="#FFB400"/>
<path d="M84.4461 136.728L77.2392 130.225C67.1494 135.358 59.3287 144.06 55.2969 154.638L62.611 161.218C67.6709 151.319 75.1897 142.886 84.4461 136.728Z" fill="#FFB400"/>
<path d="M178.53 28.854C178.673 28.0446 178.523 27.2108 178.107 26.502C177.691 25.7933 177.036 25.2561 176.259 24.9869C176.632 24.6414 176.925 24.2188 177.117 23.7486C177.31 23.2783 177.398 22.7717 177.375 22.2641C177.352 21.7564 177.218 21.2599 176.984 20.8091C176.749 20.3583 176.419 19.964 176.016 19.6538C175.477 19.2398 174.828 18.9924 174.15 18.9419C174.357 18.5017 174.471 18.0233 174.483 17.537C174.496 17.0506 174.407 16.5669 174.223 16.1166C174.039 15.6663 173.764 15.2591 173.414 14.9209C173.064 14.5827 172.648 14.3208 172.192 14.1519C171.582 13.9253 170.921 13.8724 170.283 13.999C170.366 13.3504 170.265 12.6915 169.991 12.0977C169.717 11.5039 169.281 10.9993 168.734 10.6417C168.187 10.2839 167.552 10.0865 166.898 10.0719C166.245 10.0573 165.601 10.2261 165.039 10.5591C164.95 10.0614 164.754 9.58894 164.465 9.17375C164.177 8.75856 163.802 8.41042 163.367 8.15304C162.932 7.89566 162.446 7.73508 161.943 7.68223C161.441 7.62939 160.932 7.68552 160.453 7.8468C159.813 8.06336 159.248 8.46006 158.827 8.98936C158.509 8.35175 158.011 7.82071 157.396 7.46108C156.78 7.10146 156.074 6.92881 155.362 6.96423C154.65 6.99965 153.964 7.2416 153.387 7.66053C152.81 8.07946 152.368 8.65725 152.114 9.32334C151.71 8.89832 151.206 8.58166 150.648 8.4025C150.09 8.22334 149.496 8.18742 148.92 8.29805C148.344 8.40867 147.805 8.6623 147.353 9.03559C146.901 9.40888 146.55 9.88984 146.333 10.4342C146.39 9.59916 146.208 8.76505 145.807 8.03006C145.407 7.29506 144.805 6.68976 144.072 6.28537C143.339 5.88097 142.506 5.69431 141.67 5.74734C140.835 5.80037 140.032 6.0909 139.356 6.58472C138.986 5.7305 138.364 5.00965 137.573 4.5186C136.783 4.02755 135.861 3.78973 134.931 3.83694C134.001 3.88415 133.108 4.21415 132.371 4.78279C131.634 5.35143 131.088 6.13158 130.806 7.01889C130.042 6.55652 129.154 6.33946 128.263 6.39691C127.371 6.45437 126.519 6.78359 125.82 7.34025C125.121 7.89691 124.61 8.65428 124.355 9.51042C124.099 10.3665 124.113 11.2803 124.392 12.1287C123.498 12.23 122.657 12.6044 121.983 13.2011C121.309 13.7977 120.836 14.5875 120.627 15.463C120.418 16.3384 120.485 17.2569 120.817 18.0933C121.149 18.9297 121.731 19.6434 122.483 20.1372C121.779 20.7076 121.269 21.4827 121.023 22.3555C120.778 23.2282 120.81 24.1556 121.114 25.0096C121.418 25.8636 121.98 26.6021 122.722 27.1232C123.464 27.6443 124.349 27.9223 125.255 27.9189C125.072 28.7899 125.16 29.6959 125.506 30.5158C125.853 31.3356 126.442 32.03 127.194 32.5059C127.946 32.9818 128.825 33.2166 129.714 33.1787C130.604 33.1408 131.46 32.8321 132.169 32.294C132.45 33.0142 132.922 33.6441 133.535 34.1156C134.148 34.5871 134.877 34.8823 135.646 34.9693C135.504 35.468 135.475 35.992 135.562 36.5032C135.648 37.0144 135.846 37.5 136.143 37.9249C136.44 38.3498 136.828 38.7033 137.279 38.9597C137.729 39.2162 138.231 39.3692 138.748 39.4077C138.469 39.9983 138.361 40.6552 138.436 41.3041C138.511 41.9529 138.767 42.5677 139.174 43.0788C139.58 43.5899 140.122 43.9768 140.738 44.1957C141.353 44.4146 142.018 44.4566 142.656 44.3172C142.579 44.9665 142.686 45.6243 142.964 46.2159C143.243 46.8075 143.681 47.3092 144.231 47.664C144.78 48.0187 145.417 48.2124 146.071 48.223C146.725 48.2336 147.369 48.0606 147.929 47.7237C148.048 48.3901 148.358 49.0076 148.821 49.5017C149.283 49.9957 149.879 50.3452 150.536 50.5077C151.194 50.6702 151.884 50.6389 152.523 50.4174C153.163 50.196 153.725 49.794 154.141 49.26C154.562 49.8639 155.108 50.3702 155.742 50.7447C156.376 51.1193 157.083 51.3533 157.815 51.4309C158.934 49.4098 159.691 47.2088 160.052 44.9271C160.424 42.6038 159.99 40.2233 158.822 38.1808C153.846 36.5443 156.083 30.6997 159.456 32.9707C161.06 34.0728 161.668 34.0025 161.794 32.9373C161.804 32.6296 161.896 32.3302 162.062 32.0708C162.228 31.8115 162.461 31.6019 162.736 31.4643C163.033 32.0906 163.509 32.6152 164.103 32.9721C164.697 33.329 165.384 33.5023 166.076 33.4702C166.768 33.438 167.436 33.202 167.995 32.7916C168.553 32.3812 168.978 31.8148 169.216 31.1637C169.539 31.5051 169.927 31.7783 170.358 31.967C170.789 32.1557 171.253 32.2561 171.723 32.2623C172.193 32.2686 172.66 32.1805 173.095 32.0032C173.531 31.826 173.926 31.5633 174.259 31.2305C175.085 33.177 175.712 35.2024 176.129 37.2755C176.887 36.8497 177.46 36.158 177.737 35.3343C178.014 34.5106 177.976 33.6133 177.63 32.816C177.401 32.2876 177.047 31.8234 176.597 31.4643C177.099 31.2093 177.536 30.8406 177.872 30.3875C178.207 29.9344 178.433 29.4094 178.53 28.854Z" fill="#FFB400"/>
<path d="M251.47 19.3022C251.245 17.9482 250.624 16.6912 249.685 15.6901C248.746 14.6889 247.531 13.9885 246.195 13.6773C244.744 13.3402 243.224 13.4784 241.859 14.0715C240.493 14.6646 239.355 15.6811 238.611 16.9709C237.868 18.2607 237.558 19.7555 237.73 21.2344C237.901 22.7133 238.543 24.098 239.561 25.184C240.58 26.2699 241.92 26.9996 243.385 27.2652C244.85 27.5308 246.362 27.3182 247.697 26.6589C249.031 25.9996 250.119 24.9285 250.798 23.6037C251.478 22.279 251.713 20.7709 251.47 19.3022Z" fill="#FFB400"/>
<path d="M261.657 108.942L252.674 117.191C255.825 117.859 258.887 118.901 261.791 120.297C263.022 120.821 264.152 121.556 265.131 122.468C266.5 124.038 259.154 121.8 255.546 121.399H255.512C256.242 121.784 256.906 122.278 257.483 122.869C258.668 124.224 249.606 121.157 248.799 121.733C252.273 123.303 257.65 126.275 258.952 128.588C260.489 131.36 252.607 125.848 247.497 125.681C250.736 127.184 254.277 129.29 255.546 131.628C257.282 134.792 251.004 128.991 243.523 128.755H243.489C250.636 133.097 253.976 136.665 243.823 132.262C241.962 131.43 239.976 130.91 237.945 130.726L217.539 149.386L277.789 147.049L286.639 108.04L261.657 108.942Z" fill="#FFB400"/>
<path d="M315.904 106.804L277.83 146.982L292.926 80.5203L330.999 40.3428L315.904 106.804Z" stroke="#0E2B72" stroke-width="1.76661" stroke-linejoin="round"/>
<path d="M261.656 108.942L252.672 117.191C255.823 117.859 258.885 118.901 261.789 120.297C263.02 120.821 264.15 121.556 265.129 122.468C266.498 124.038 259.152 121.8 255.544 121.399H255.51C256.24 121.784 256.904 122.278 257.481 122.869C258.666 124.224 249.604 121.157 248.797 121.733C252.271 123.303 257.648 126.275 258.95 128.588C260.487 131.36 252.605 125.848 247.495 125.681C250.734 127.184 254.275 129.29 255.544 131.628C257.28 134.792 251.002 128.991 243.521 128.755H243.487C250.634 133.097 253.974 136.665 243.821 132.262C241.96 131.43 239.974 130.91 237.943 130.726L217.537 149.386L277.787 147.049L286.637 108.04L261.656 108.942Z" stroke="#0E2B72" stroke-width="1.76661" stroke-linejoin="round"/>
<path d="M178.53 28.8545C178.673 28.0451 178.523 27.2112 178.107 26.5025C177.691 25.7938 177.036 25.2566 176.259 24.9874C176.632 24.6419 176.925 24.2193 177.117 23.7491C177.31 23.2788 177.398 22.7722 177.375 22.2646C177.352 21.7569 177.218 21.2604 176.984 20.8096C176.749 20.3588 176.419 19.9645 176.016 19.6543C175.477 19.2403 174.828 18.9929 174.15 18.9424C174.357 18.5022 174.471 18.0238 174.483 17.5375C174.496 17.0511 174.407 16.5674 174.223 16.1171C174.039 15.6667 173.764 15.2596 173.414 14.9214C173.064 14.5832 172.648 14.3213 172.192 14.1524C171.582 13.9258 170.921 13.8729 170.283 13.9995C170.366 13.3509 170.265 12.692 169.991 12.0982C169.717 11.5044 169.281 10.9998 168.734 10.6422C168.187 10.2844 167.552 10.087 166.898 10.0724C166.245 10.0578 165.601 10.2266 165.039 10.5595C164.95 10.0619 164.754 9.58943 164.465 9.17424C164.177 8.75905 163.802 8.41091 163.367 8.15353C162.932 7.89615 162.446 7.73557 161.943 7.68272C161.441 7.62988 160.932 7.68601 160.453 7.84729C159.813 8.06385 159.248 8.46055 158.827 8.98985C158.509 8.35224 158.011 7.82119 157.396 7.46157C156.78 7.10195 156.074 6.9293 155.362 6.96472C154.65 7.00014 153.964 7.24208 153.387 7.66102C152.81 8.07995 152.368 8.65774 152.114 9.32382C151.71 8.89881 151.206 8.58215 150.648 8.40299C150.09 8.22383 149.496 8.18791 148.92 8.29853C148.344 8.40916 147.805 8.66279 147.353 9.03608C146.901 9.40936 146.55 9.89033 146.333 10.4347C146.39 9.59965 146.208 8.76554 145.807 8.03054C145.407 7.29555 144.805 6.69025 144.072 6.28586C143.339 5.88146 142.506 5.6948 141.67 5.74783C140.835 5.80086 140.032 6.09138 139.356 6.58521C138.986 5.73099 138.364 5.01014 137.573 4.51909C136.783 4.02804 135.861 3.79021 134.931 3.83743C134.001 3.88464 133.108 4.21464 132.371 4.78328C131.634 5.35192 131.088 6.13207 130.806 7.01938C130.042 6.55701 129.154 6.33995 128.263 6.3974C127.371 6.45486 126.519 6.78407 125.82 7.34073C125.121 7.89739 124.61 8.65477 124.355 9.5109C124.099 10.367 124.113 11.2808 124.392 12.1292C123.498 12.2305 122.657 12.6049 121.983 13.2015C121.309 13.7982 120.836 14.588 120.627 15.4635C120.418 16.3389 120.485 17.2574 120.817 18.0938C121.149 18.9302 121.731 19.6439 122.483 20.1377C121.779 20.7081 121.269 21.4832 121.023 22.356C120.778 23.2287 120.81 24.1561 121.114 25.0101C121.418 25.8641 121.98 26.6026 122.722 27.1237C123.464 27.6448 124.349 27.9228 125.255 27.9193C125.072 28.7903 125.16 29.6964 125.506 30.5163C125.853 31.3361 126.442 32.0305 127.194 32.5064C127.946 32.9823 128.825 33.2171 129.714 33.1792C130.604 33.1413 131.46 32.8326 132.169 32.2945C132.45 33.0147 132.922 33.6446 133.535 34.1161C134.148 34.5876 134.877 34.8827 135.646 34.9698C135.504 35.4685 135.475 35.9925 135.562 36.5037C135.648 37.0149 135.846 37.5005 136.143 37.9254C136.44 38.3503 136.828 38.7038 137.279 38.9602C137.729 39.2167 138.231 39.3697 138.748 39.4082C138.469 39.9987 138.361 40.6557 138.436 41.3046C138.511 41.9534 138.767 42.5682 139.174 43.0793C139.58 43.5904 140.122 43.9773 140.738 44.1962C141.353 44.415 142.018 44.4571 142.656 44.3176C142.579 44.967 142.686 45.6248 142.964 46.2164C143.243 46.808 143.681 47.3097 144.231 47.6644C144.78 48.0192 145.417 48.2129 146.071 48.2235C146.725 48.234 147.369 48.0611 147.929 47.7242C148.048 48.3906 148.358 49.0081 148.821 49.5022C149.283 49.9962 149.879 50.3457 150.536 50.5082C151.194 50.6707 151.884 50.6393 152.523 50.4179C153.163 50.1965 153.725 49.7945 154.141 49.2605C154.562 49.8644 155.108 50.3707 155.742 50.7452C156.376 51.1197 157.083 51.3537 157.815 51.4314C158.934 49.4103 159.691 47.2093 160.052 44.9276C160.424 42.6043 159.99 40.2238 158.822 38.1813C153.846 36.5448 156.083 30.7002 159.456 32.9712C161.06 34.0733 161.668 34.003 161.794 32.9378C161.804 32.6301 161.896 32.3307 162.062 32.0713C162.228 31.812 162.461 31.6024 162.736 31.4648C163.033 32.0911 163.509 32.6157 164.103 32.9726C164.697 33.3295 165.384 33.5028 166.076 33.4707C166.768 33.4385 167.436 33.2024 167.995 32.7921C168.553 32.3817 168.978 31.8153 169.216 31.1642C169.539 31.5056 169.927 31.7788 170.358 31.9675C170.789 32.1562 171.253 32.2566 171.723 32.2628C172.193 32.2691 172.66 32.181 173.095 32.0037C173.531 31.8265 173.926 31.5637 174.259 31.231C175.085 33.1775 175.712 35.2028 176.129 37.276C176.887 36.8502 177.46 36.1585 177.737 35.3348C178.014 34.5111 177.976 33.6138 177.63 32.8165C177.401 32.2881 177.047 31.8239 176.597 31.4648C177.099 31.2098 177.536 30.8411 177.872 30.388C178.207 29.9349 178.433 29.4099 178.53 28.8545Z" stroke="#0E2B72" stroke-width="1.76661" stroke-linejoin="round"/>
<path d="M175.49 49.5274L275.183 32.7617" stroke="#0E2B72" stroke-width="1.76661" stroke-linecap="round" stroke-linejoin="round"/>
<path d="M11.9062 76.98L157.186 52.5996" stroke="#0E2B72" stroke-width="1.76661" stroke-linecap="round" stroke-linejoin="round"/>
<path d="M165.336 65.2246L195.227 92.0764" stroke="#0E2B72" stroke-width="1.76661" stroke-linecap="round" stroke-linejoin="round"/>
<path d="M195.359 95.0152C195.76 93.5123 195.762 92.4401 195.226 92.0762C194.726 91.7387 193.819 92.0375 192.687 92.8443C190.991 94.1839 189.457 95.7178 188.117 97.4146" stroke="#0E2B72" stroke-width="1.76661" stroke-linecap="round" stroke-linejoin="round"/>
<path d="M70.4552 134.591C59.1668 125.607 58.2316 125.34 49.281 115.554C30.3779 118.226 9.57287 124.538 0.755859 128.713C14.2139 133.798 28.6281 135.851 42.9706 134.725L58.3002 148.518" stroke="#0E2B72" stroke-width="1.76661" stroke-linecap="round" stroke-linejoin="round"/>
<path d="M155.352 65.291L186.846 93.5455" stroke="#0E2B72" stroke-width="1.76661" stroke-linecap="round" stroke-linejoin="round"/>
<path d="M171.548 116.29L151.176 99.0229L163.514 118.221" stroke="#0E2B72" stroke-width="1.76661" stroke-linecap="round" stroke-linejoin="round"/>
<path d="M244.258 120.057C245.488 120.324 256.756 124.261 259.12 128.473C260.702 131.277 252.707 125.701 247.531 125.534" stroke="#0E2B72" stroke-width="1.76661" stroke-linecap="round" stroke-linejoin="round"/>
<path d="M243.152 123.737C246.292 124.873 253.732 128.016 255.677 131.552C257.434 134.762 251.106 128.881 243.52 128.647" stroke="#0E2B72" stroke-width="1.76661" stroke-linecap="round" stroke-linejoin="round"/>
<path d="M242.285 127.946C250.234 132.588 254.614 136.886 243.821 132.221C238.246 129.811 197.592 128.58 197.592 128.58C194.024 128.211 190.617 126.908 187.713 124.803L171.615 112.579" stroke="#0E2B72" stroke-width="1.76661" stroke-linecap="round" stroke-linejoin="round"/>
<path d="M184.307 94.314L200.672 108.842C200.672 108.842 241.684 116.523 244.823 117.42C247.963 118.316 255.481 120.222 257.682 122.73C258.852 124.066 252.408 121.763 248.497 121.561" stroke="#0E2B72" stroke-width="1.76661" stroke-linecap="round" stroke-linejoin="round"/>
<path d="M186.978 96.4846C187.379 94.9817 187.381 93.9095 186.845 93.5456C186.345 93.2081 185.438 93.5087 184.306 94.3138C179.685 97.6026 172.818 107.798 171.381 113.384C171.03 114.755 171.093 115.991 171.548 116.29C172.076 116.641 173.586 116.223 174.712 114.954" stroke="#0E2B72" stroke-width="1.76661" stroke-linecap="round" stroke-linejoin="round"/>
<path d="M120.518 127.177C128.58 127.516 136.513 125.05 142.961 120.197" stroke="#0E2B72" stroke-width="1.76661" stroke-linecap="round" stroke-linejoin="round"/>
<path d="M163.234 118.728L166.808 112.283" stroke="#0E2B72" stroke-width="1.76661" stroke-linecap="round" stroke-linejoin="round"/>
<path d="M164.803 62.0496C162.599 65.2558 158.558 63.8531 152.98 58.4761" stroke="#0E2B72" stroke-width="1.76661" stroke-linecap="round" stroke-linejoin="round"/>
<path d="M129.028 167.792L154.983 138.899L126.395 185.456" stroke="#0E2B72" stroke-width="1.76661" stroke-linecap="round" stroke-linejoin="round"/>
<path d="M88.1878 184.355C90.0728 186.048 92.2731 187.353 94.6628 188.196C97.0525 189.039 99.5848 189.402 102.115 189.266C104.645 189.129 107.124 188.495 109.409 187.401C111.694 186.306 113.741 184.772 115.433 182.885L129.021 167.793L123.649 203.652L101.473 228.366C107.038 238.136 115.614 245.844 125.92 250.338L149.399 224.188C152.875 220.322 155.331 215.65 156.546 210.595C161.658 189.15 159.919 151.28 163.226 118.718C149.933 116.246 145.024 113.24 134.904 105.258C128.365 110.038 113.77 113.585 99.1036 150.055L77.2333 130.384C67.1436 135.518 59.3228 144.219 55.291 154.798L88.1878 184.355Z" stroke="#0E2B72" stroke-width="1.76661" stroke-linecap="round" stroke-linejoin="round"/>
<path d="M166.428 51.7121C165.544 51.3824 164.681 50.9985 163.844 50.5625L165.54 54.2538" stroke="#0E2B72" stroke-width="1.76661" stroke-linecap="round" stroke-linejoin="round"/>
<path d="M167.808 76.4796C165.347 69.3782 163.305 58.5204 166.418 51.7126C179.063 56.3513 177.992 39.9566 174.287 31.2925M134.902 105.235C136.324 100.769 137.286 96.1698 137.775 91.5086C138.625 84.3372 140.707 77.3662 143.927 70.9022C147.073 64.2912 154.298 58.1953 157.989 51.1641C159.095 49.2325 159.798 47.0965 160.054 44.8854C160.427 42.5621 159.993 40.1813 158.824 38.139C153.848 36.5025 156.096 30.6439 159.458 32.929C161.067 34.0241 161.696 33.9643 161.796 32.8956C161.888 32.3331 162 31.7987 162.132 31.2925" stroke="#0E2B72" stroke-width="1.76661" stroke-linecap="round" stroke-linejoin="round"/>
<path d="M108.863 220.157C114.904 229.568 123.501 237.063 133.648 241.765" stroke="#0E2B72" stroke-width="1.76661" stroke-linecap="round" stroke-linejoin="round"/>
<path d="M62.5723 161.243C68.1831 151.048 75.1966 142.674 84.4144 136.863" stroke="#0E2B72" stroke-width="1.76661" stroke-linecap="round" stroke-linejoin="round"/>
<path d="M105.454 234.417C98.3987 243.031 92.0866 249.791 85.2154 256.961C83.3785 267.815 84.2469 292.73 87.7536 304.319C97.0699 288.822 100.445 278.97 105.156 263.011L119.45 247.114" stroke="#0E2B72" stroke-width="1.76661" stroke-linecap="round" stroke-linejoin="round"/>
<path d="M43.7031 135.393C46.8558 130.331 50.7257 125.752 55.192 121.8" stroke="#0E2B72" stroke-width="1.76661" stroke-linecap="round" stroke-linejoin="round"/>
<path d="M255.675 121.266C259.316 121.633 266.723 123.903 265.361 122.335C264.371 121.412 263.23 120.667 261.988 120.13C257.277 117.828 252.77 117.091 247.76 115.722L208.913 106.304L192.703 92.8286" stroke="#0E2B72" stroke-width="1.76661" stroke-linecap="round" stroke-linejoin="round"/>
<path d="M131.439 125.875L101.481 169.894L72.5254 146.949" stroke="#0E2B72" stroke-width="1.76661" stroke-linecap="round" stroke-linejoin="round"/>
<path d="M213.328 25.6479C213.553 27.002 213.372 28.3926 212.806 29.6434C212.24 30.8942 211.316 31.9488 210.15 32.6737C209.279 33.2171 208.299 33.5604 207.279 33.6789C206.259 33.7973 205.226 33.688 204.254 33.3587C203.282 33.0294 202.395 32.4885 201.657 31.7748C200.92 31.0612 200.349 30.1927 199.988 29.232C199.627 28.2718 199.483 27.2436 199.566 26.2211C199.649 25.1986 199.958 24.2073 200.471 23.3185C200.983 22.4296 201.686 21.6654 202.529 21.0807C203.372 20.496 204.334 20.1053 205.346 19.9368C207.162 19.6365 209.022 20.0694 210.519 21.1403C212.016 22.2111 213.026 23.8324 213.328 25.6479Z" stroke="#0E2B72" stroke-width="1.76661" stroke-linecap="round" stroke-linejoin="round"/>
<path d="M232.232 22.5082C232.458 23.8624 232.276 25.253 231.71 26.5038C231.144 27.7545 230.22 28.8092 229.054 29.534C228.183 30.0774 227.203 30.4207 226.183 30.5392C225.164 30.6577 224.131 30.5483 223.158 30.2191C222.186 29.8898 221.299 29.3488 220.562 28.6352C219.824 27.9215 219.254 27.053 218.892 26.0923C218.531 25.1322 218.387 24.1039 218.47 23.0814C218.554 22.0589 218.863 21.0676 219.375 20.1788C219.887 19.29 220.59 18.5257 221.433 17.941C222.276 17.3563 223.238 16.9657 224.25 16.7972C226.066 16.4969 227.926 16.9297 229.423 18.0006C230.92 19.0715 231.93 20.6928 232.232 22.5082Z" stroke="#0E2B72" stroke-width="1.76661" stroke-linecap="round" stroke-linejoin="round"/>
<path d="M251.471 19.3024C251.696 20.6566 251.514 22.0472 250.949 23.298C250.383 24.5488 249.458 25.6034 248.293 26.3283C247.128 27.0553 245.773 27.4203 244.401 27.377C243.029 27.3337 241.7 26.884 240.583 26.0849C239.467 25.2859 238.612 24.1734 238.128 22.8883C237.645 21.6033 237.553 20.2036 237.865 18.8665C238.123 17.7544 238.651 16.723 239.402 15.8638C240.154 15.0047 241.106 14.3443 242.174 13.9414C243.242 13.5385 244.393 13.4055 245.525 13.5542C246.656 13.7029 247.734 14.1287 248.662 14.7937C249.403 15.3238 250.033 15.9949 250.515 16.7685C250.997 17.5422 251.322 18.4032 251.471 19.3024Z" stroke="#0E2B72" stroke-width="1.76661" stroke-linecap="round" stroke-linejoin="round"/>
<path d="M21.166 133.973L38.4924 240.796C39.1105 244.44 40.4411 247.926 42.4079 251.054C44.3748 254.183 46.9394 256.893 49.9549 259.03C52.9701 261.166 56.3766 262.687 59.9798 263.507C63.583 264.327 67.3124 264.429 70.955 263.807L84.845 261.471" stroke="#0E2B72" stroke-width="1.76661" stroke-linecap="round" stroke-linejoin="round"/>
<path d="M291.383 132.807L301.701 196.41C302.323 200.053 302.221 203.782 301.401 207.385C300.581 210.989 299.06 214.395 296.923 217.41C294.786 220.425 292.075 222.988 288.947 224.955C285.818 226.922 282.333 228.253 278.69 228.873L110.488 257.159" stroke="#0E2B72" stroke-width="1.76661" stroke-linecap="round" stroke-linejoin="round"/>
<path d="M121.156 22.1074L33.6836 36.8024C30.0406 37.422 26.5554 38.7533 23.4272 40.7202C20.2989 42.6872 17.5889 45.2512 15.4519 48.2659C13.3149 51.2806 11.793 54.6868 10.9729 58.29C10.1528 61.8931 10.0508 65.6225 10.6725 69.2651L19.2399 122.093" stroke="#0E2B72" stroke-width="1.76661" stroke-linecap="round" stroke-linejoin="round"/>
<path d="M170.314 13.8479L241.418 1.90206C245.061 1.27982 248.79 1.38154 252.394 2.20141C255.997 3.02128 259.403 4.54323 262.418 6.68026C265.433 8.8173 267.997 11.5275 269.964 14.656C271.931 17.7845 273.262 21.27 273.881 24.9131L287.066 106.196" stroke="#0E2B72" stroke-width="1.76661" stroke-linecap="round" stroke-linejoin="round"/>
<path d="M91.9277 249.88C95.6065 254.934 100.072 259.365 105.153 263.006" stroke="#0E2B72" stroke-width="1.76661" stroke-linecap="round" stroke-linejoin="round"/>
<path d="M268.767 272.132L252 272.635" stroke="#0E2B72" stroke-width="1.66335" stroke-linecap="round" stroke-linejoin="round"/>
<path d="M35.7671 25.1323L19 25.6354" stroke="#0E2B72" stroke-width="1.66335" stroke-linecap="round" stroke-linejoin="round"/>
<path d="M260.636 280.769L260.131 264" stroke="#0E2B72" stroke-width="1.66335" stroke-linecap="round" stroke-linejoin="round"/>
<path d="M27.6356 33.7688L27.1309 17" stroke="#0E2B72" stroke-width="1.66335" stroke-linecap="round" stroke-linejoin="round"/>
</svg>
