<svg width="174" height="122" viewBox="0 0 174 122" fill="none" xmlns="http://www.w3.org/2000/svg">
<path d="M107.496 68.8477C105.344 70.1736 98.519 71.0512 95.6191 71.2127H108.698C108.354 70.3969 107.952 69.6066 107.496 68.8477Z" fill="#FFB400"/>
<path d="M109.639 74.1968H66.759L50.9922 106.931C51.7403 107.592 52.5352 108.198 53.3707 108.745L51.0093 113.717C54.402 114.648 57.976 114.702 61.3949 113.871L62.2644 111.842C63.1315 111.927 64.0027 111.964 64.8738 111.951L71.0489 100.65L69.1926 110.031C70.0269 110.443 70.885 110.804 71.7623 111.113L71.0777 113.869C74.1689 114.752 77.4458 114.752 80.5378 113.869L80.8283 112.571C81.6637 112.567 82.4986 112.531 83.3313 112.464L90.135 84.9404L92.1915 85.2489L106.502 84.1006C109.444 81.695 110.726 78.7049 109.639 74.1968Z" fill="#FFB400"/>
<path d="M55.294 46.8961C55.2423 47.5247 55.0086 48.1247 54.6215 48.6227C54.2344 49.1207 53.7107 49.4953 53.1142 49.7005C52.5177 49.9057 51.8744 49.9328 51.2629 49.7784C50.6513 49.624 50.0979 49.2948 49.6703 48.831C49.2428 48.3673 48.9596 47.789 48.8553 47.1669C48.7509 46.5448 48.8301 45.9059 49.083 45.328C49.3359 44.7502 49.7516 44.2585 50.2794 43.913C50.8072 43.5676 51.4241 43.3834 52.0549 43.3828C52.9502 43.4194 53.7944 43.81 54.4018 44.4688C55.0092 45.1277 55.3301 46.0007 55.294 46.8961Z" fill="#FFB400"/>
<path d="M54.0104 41.9089C53.4909 42.2922 52.8559 42.4862 52.2109 42.4573C52.2741 41.8151 52.5591 41.2153 53.0164 40.7606C53.5358 40.3772 54.171 40.1837 54.8159 40.2122C54.7527 40.8542 54.4679 41.4541 54.0104 41.9089Z" fill="#FFB400"/>
<path d="M91.6944 38.4503C91.6656 38.9006 91.5745 39.3447 91.4238 39.7699L93.0691 38.2275C92.6219 38.3588 92.1601 38.4337 91.6944 38.4503Z" fill="#FFF8E6"/>
<path d="M98.2422 52.98V60.9662C98.6878 60.8977 99.1334 60.8291 99.5789 60.7434C99.3406 58.1242 98.8936 55.5281 98.2422 52.98Z" fill="#FFF8E6"/>
<path d="M88.2485 64.822L86.1577 64.0508C85.9154 63.8427 85.681 63.6254 85.4551 63.3996C86.0053 61.0174 87.4773 61.9086 88.2485 64.822Z" fill="#FFF8E6"/>
<path d="M72.2771 35.3453V57.0075C72.2767 57.7982 71.9623 58.5564 71.4032 59.1155C70.8441 59.6747 70.0859 59.989 69.2952 59.9895H68.1641C68.9548 59.989 69.713 59.6747 70.2721 59.1155C70.8312 58.5564 71.1456 57.7982 71.146 57.0075V35.3453C71.1456 34.5545 70.8312 33.7963 70.2721 33.2372C69.713 32.6781 68.9548 32.3638 68.1641 32.3633H69.2952C70.0859 32.3638 70.8441 32.6781 71.4032 33.2372C71.9623 33.7963 72.2767 34.5545 72.2771 35.3453Z" fill="#FFF8E6"/>
<path d="M61.4638 70.4606H59.2359C58.8787 70.4637 58.5331 70.3339 58.2664 70.0963C57.9996 69.8587 57.8308 69.5304 57.7927 69.1752L56.8537 60.0083H55.7227L56.9737 71.4221H62.4064C62.4091 71.2967 62.3866 71.172 62.3404 71.0554C62.2942 70.9388 62.2252 70.8326 62.1374 70.743C62.0496 70.6535 61.9448 70.5823 61.8291 70.5338C61.7135 70.4853 61.5893 70.4604 61.4638 70.4606Z" fill="#FFF8E6"/>
<path d="M99.5254 32.2606C99.7276 32.0174 99.8364 31.71 99.8322 31.3937C99.8279 31.0775 99.7109 30.7731 99.5021 30.5355C99.2934 30.2978 99.0067 30.1425 98.6937 30.0975C98.3806 30.0524 98.0618 30.1206 97.7945 30.2897C97.94 30.0291 97.9933 29.727 97.9456 29.4323C97.898 29.1376 97.7523 28.8676 97.532 28.6661C97.3123 28.4645 97.0311 28.3425 96.7337 28.3199C96.4362 28.2974 96.1399 28.3755 95.8922 28.5417C96.6914 27.103 94.4003 25.8736 93.547 27.2563C93.0194 28.8175 92.36 30.3311 91.5762 31.7807C93.7698 28.7139 95.2437 31.9692 95.1066 33.8887C95.1237 34.2657 95.3122 34.3685 95.9292 33.9229C97.1974 32.9975 98.1057 35.1569 95.7407 36.2194C95.0116 37.6214 94.7993 39.2352 95.1408 40.7781C95.1237 40.5381 94.8495 35.7567 100.248 34.7627C100.527 34.7036 100.778 34.5507 100.959 34.3293C101.139 34.108 101.238 33.8315 101.24 33.5459C101.242 33.3373 101.195 33.1312 101.103 32.9442C101.01 32.7572 100.875 32.5947 100.708 32.4698C100.541 32.3446 100.347 32.2603 100.142 32.224C99.9362 32.1876 99.7251 32.2002 99.5254 32.2606Z" fill="#FFF8E6"/>
<path d="M94.1107 46.3478C94.1107 46.5117 94.0456 46.6689 93.9298 46.7847C93.8139 46.9006 93.6567 46.9657 93.4929 46.9657C93.329 46.9657 93.1718 46.9006 93.056 46.7847C92.9401 46.6689 92.875 46.5117 92.875 46.3478C92.875 46.184 92.9401 46.0268 93.056 45.911C93.1718 45.7951 93.329 45.73 93.4929 45.73C93.6567 45.73 93.8139 45.7951 93.9298 45.911C94.0456 46.0268 94.1107 46.184 94.1107 46.3478Z" fill="#FFF8E6"/>
<path d="M88.181 52.0544C88.181 52.2183 88.1159 52.3754 88.0001 52.4913C87.8842 52.6072 87.727 52.6723 87.5632 52.6723C87.3993 52.6723 87.2422 52.6072 87.1263 52.4913C87.0104 52.3754 86.9453 52.2183 86.9453 52.0544C86.9453 51.8905 87.0104 51.7334 87.1263 51.6175C87.2422 51.5016 87.3993 51.4365 87.5632 51.4365C87.727 51.4365 87.8842 51.5016 88.0001 51.6175C88.1159 51.7334 88.181 51.8905 88.181 52.0544Z" fill="#FFF8E6"/>
<path d="M92.7904 58.5153C92.7904 58.6792 92.7253 58.8363 92.6094 58.9522C92.4936 59.0681 92.3364 59.1332 92.1725 59.1332C92.0087 59.1332 91.8515 59.0681 91.7357 58.9522C91.6198 58.8363 91.5547 58.6792 91.5547 58.5153C91.5547 58.3515 91.6198 58.1943 91.7357 58.0784C91.8515 57.9626 92.0087 57.8975 92.1725 57.8975C92.3364 57.8975 92.4936 57.9626 92.6094 58.0784C92.7253 58.1943 92.7904 58.3515 92.7904 58.5153Z" fill="#FFF8E6"/>
<path d="M126.688 60.4521H120.518C120.3 60.4521 120.091 60.5388 119.936 60.6931C119.782 60.8474 119.695 61.0566 119.695 61.2748V70.3921C119.695 70.6103 119.782 70.8195 119.936 70.9738C120.091 71.128 120.3 71.2147 120.518 71.2147H126.688C126.905 71.2119 127.112 71.1243 127.266 70.9707C127.42 70.817 127.507 70.6094 127.51 70.3921V61.2712C127.509 61.0538 127.421 60.8459 127.267 60.6926C127.113 60.5393 126.905 60.4529 126.688 60.4521Z" fill="#FFF8E6"/>
<path d="M125.784 17.0737L117.438 19.3531C117.289 19.3937 117.153 19.4727 117.044 19.5822C116.935 19.6916 116.857 19.8277 116.817 19.9768C116.777 20.1259 116.777 20.2829 116.817 20.432C116.857 20.5812 116.935 20.7173 117.043 20.8269L124.55 28.2647C124.631 28.3467 124.728 28.4117 124.835 28.4561C124.942 28.5004 125.057 28.5233 125.173 28.5233C125.288 28.5233 125.403 28.5004 125.51 28.4561C125.617 28.4117 125.714 28.3467 125.795 28.2647C125.904 28.1555 125.983 28.0196 126.024 27.8706L128.251 19.3702L125.784 17.0737Z" fill="#FFF8E6"/>
<path d="M131.567 13.5864C131.265 13.2892 130.857 13.1241 130.433 13.1275C130.008 13.1309 129.603 13.3024 129.305 13.6045L125.826 17.1168L128.171 19.2933L131.582 15.8486C131.876 15.5446 132.039 15.1375 132.036 14.7146C132.034 14.2917 131.865 13.8866 131.567 13.5864Z" fill="#FFF8E6"/>
<path d="M57.9689 2.10043C57.9685 2.24459 57.9398 2.38726 57.8843 2.52031C57.8288 2.65335 57.7476 2.77416 57.6455 2.87585C57.5433 2.97753 57.4221 3.05809 57.2887 3.11293C57.1554 3.16777 57.0126 3.1958 56.8685 3.19545C56.7243 3.19509 56.5816 3.16635 56.4486 3.11086C56.3155 3.05536 56.1947 2.97421 56.093 2.87202C55.9914 2.76984 55.9108 2.64863 55.856 2.51531C55.8011 2.38199 55.7731 2.23918 55.7734 2.09502C55.7742 1.80389 55.8905 1.52496 56.0969 1.31961C56.3032 1.11425 56.5827 0.999286 56.8739 1C57.165 1.00072 57.4439 1.11706 57.6493 1.32343C57.8546 1.5298 57.9696 1.8093 57.9689 2.10043Z" fill="#FFF8E6"/>
<path d="M80.5383 113.871C77.4463 114.754 74.1703 114.754 71.0782 113.871C68.1819 114.71 62.4922 118.755 62.4922 118.755H81.6351C81.454 117.091 81.0861 115.452 80.5383 113.871Z" fill="#FFF8E6"/>
<path d="M61.394 113.871C57.9755 114.702 54.4009 114.649 51.0085 113.717C47.9025 114.735 45.075 116.46 42.748 118.755H62.4737C62.2333 117.103 61.8725 115.471 61.394 113.871Z" fill="#FFF8E6"/>
<path d="M95.5846 84.9766L92.1913 85.2508L90.1348 84.9424L90.5632 83.2114L95.5846 84.9766Z" fill="#FFF8E6"/>
<path d="M154.933 71.2144H21.7039C21.3084 71.2144 20.9292 71.3714 20.6496 71.6511C20.37 71.9307 20.2129 72.3099 20.2129 72.7053C20.2129 73.1008 20.37 73.48 20.6496 73.7596C20.9292 74.0393 21.3084 74.1963 21.7039 74.1963H39.9629L31.5581 120.726C31.5437 120.81 31.5383 120.897 31.541 120.983H34.5573L43.0035 74.1963H133.665L142.114 121H145.131C145.113 120.914 145.113 120.828 145.096 120.729L136.692 74.1999H154.933C155.32 74.1865 155.686 74.0235 155.955 73.7454C156.223 73.4672 156.373 73.0956 156.373 72.709C156.373 72.3223 156.223 71.9507 155.955 71.6725C155.686 71.3944 155.32 71.2314 154.933 71.218V71.2144Z" fill="#FFF8E6"/>
<path d="M57.9689 2.10043C57.9685 2.24459 57.9398 2.38726 57.8843 2.52031C57.8288 2.65335 57.7476 2.77416 57.6455 2.87585C57.5433 2.97753 57.4221 3.05809 57.2887 3.11293C57.1554 3.16777 57.0126 3.1958 56.8685 3.19545C56.7243 3.19509 56.5816 3.16635 56.4486 3.11086C56.3155 3.05536 56.1947 2.97421 56.093 2.87202C55.9914 2.76984 55.9108 2.64863 55.856 2.51531C55.8011 2.38199 55.7731 2.23918 55.7734 2.09502C55.7742 1.80389 55.8905 1.52496 56.0969 1.31961C56.3032 1.11425 56.5827 0.999286 56.8739 1C57.165 1.00072 57.4439 1.11706 57.6493 1.32343C57.8546 1.5298 57.9696 1.8093 57.9689 2.10043Z" stroke="#0E2B72" stroke-width="0.906524"/>
<path d="M131.567 13.5864C131.265 13.2892 130.857 13.1241 130.433 13.1275C130.008 13.1309 129.603 13.3024 129.305 13.6045L125.826 17.1168L128.171 19.2933L131.582 15.8486C131.876 15.5446 132.039 15.1375 132.036 14.7146C132.034 14.2917 131.865 13.8866 131.567 13.5864Z" stroke="#0E2B72" stroke-width="0.906524" stroke-linejoin="round"/>
<path d="M154.933 71.2144H21.7039C21.3084 71.2144 20.9292 71.3714 20.6496 71.6511C20.37 71.9307 20.2129 72.3099 20.2129 72.7053C20.2129 73.1008 20.37 73.48 20.6496 73.7596C20.9292 74.0393 21.3084 74.1963 21.7039 74.1963H39.9629L31.5581 120.726C31.5437 120.81 31.5383 120.897 31.541 120.983H34.5573L43.0035 74.1963H133.665L142.114 121H145.131C145.113 120.914 145.113 120.828 145.096 120.729L136.692 74.1999H154.933C155.32 74.1865 155.686 74.0235 155.955 73.7454C156.223 73.4672 156.373 73.0956 156.373 72.709C156.373 72.3223 156.223 71.9507 155.955 71.6725C155.686 71.3944 155.32 71.2314 154.933 71.218V71.2144Z" stroke="#0E2B72" stroke-width="0.906524" stroke-linejoin="round"/>
<path d="M84.359 68.8838C83.6476 69.8473 82.6697 70.5814 81.5459 70.9956C80.4221 71.4098 79.2017 71.4859 78.0352 71.2145" stroke="#0E2B72" stroke-width="0.906524" stroke-linecap="round" stroke-linejoin="round"/>
<path d="M45.597 66.0045C45.597 66.0045 37.2635 65.2342 36.1152 71.2144" stroke="#0E2B72" stroke-width="0.906524" stroke-linecap="round" stroke-linejoin="round"/>
<path d="M48.5609 67.3418C48.3038 67.2047 48.0964 67.0712 47.8925 66.9476C46.9238 66.3622 46.5729 65.9708 45.716 65.4052C44.8919 64.8589 44.1279 64.227 43.4367 63.5201C41.5335 61.5672 42.1685 61.2236 44.3107 62.5089C44.3237 62.5108 44.3357 62.5168 44.345 62.5261C45.7674 63.3876 47.2509 64.144 48.7837 64.7892" stroke="#0E2B72" stroke-width="0.906524" stroke-linecap="round" stroke-linejoin="round"/>
<path d="M47.8917 66.9475C46.0194 66.1194 44.0902 65.4261 42.119 64.8729C40.4575 64.4057 40.748 64.0314 41.0222 63.9818C42.0346 63.9048 43.0524 63.9451 44.0556 64.1017" stroke="#0E2B72" stroke-width="0.906524" stroke-linecap="round" stroke-linejoin="round"/>
<path d="M48.2516 70.4604C47.9048 70.4144 47.5559 70.3858 47.2062 70.3747C44.2432 70.2664 45.2877 69.6071 46.315 69.3121C46.8472 69.1597 47.7203 68.9865 48.423 68.7466" stroke="#0E2B72" stroke-width="0.906524" stroke-linecap="round" stroke-linejoin="round"/>
<path d="M112.348 86.7246L117.232 121" stroke="#0E2B72" stroke-width="0.906524" stroke-linecap="round" stroke-linejoin="round"/>
<path d="M117.644 61.8405L109.623 61.2578" stroke="#0E2B72" stroke-width="0.906524" stroke-linecap="round" stroke-linejoin="round"/>
<path d="M80.8295 112.573L80.5391 113.871" stroke="#0E2B72" stroke-width="0.906524" stroke-linecap="round" stroke-linejoin="round"/>
<path d="M71.0625 113.871L71.7642 111.115" stroke="#0E2B72" stroke-width="0.906524" stroke-linecap="round" stroke-linejoin="round"/>
<path d="M62.2705 111.832L61.3965 113.871" stroke="#0E2B72" stroke-width="0.906524" stroke-linecap="round" stroke-linejoin="round"/>
<path d="M50.9922 113.734L53.3707 108.745" stroke="#0E2B72" stroke-width="0.906524" stroke-linecap="round" stroke-linejoin="round"/>
<path d="M71.0606 100.606L64.8738 111.951C59.773 112.126 54.8009 110.328 50.9922 106.93L66.759 74.1963" stroke="#0E2B72" stroke-width="0.906524" stroke-linecap="round" stroke-linejoin="round"/>
<path d="M78.4121 112.504L84.736 82.5256C84.828 82.0877 85.0061 81.6724 85.2598 81.3038C85.5136 80.9353 85.8379 80.6207 86.2142 80.3784C86.5904 80.1361 87.0109 79.9709 87.4514 79.8923C87.892 79.8137 88.3437 79.8234 88.7805 79.9207C94.1013 81.1104 104.104 82.2036 105.111 74.2363" stroke="#0E2B72" stroke-width="0.906524" stroke-linecap="round" stroke-linejoin="round"/>
<path d="M56.127 63.5766L75.5522 60.4197C78.757 55.5489 82.5634 44.2668 88.08 42.6991C88.9844 42.4685 89.8084 41.9943 90.4621 41.3281" stroke="#0E2B72" stroke-width="0.906524" stroke-linecap="round" stroke-linejoin="round"/>
<path d="M91.6967 38.4504C92.1509 38.4342 92.602 38.3676 93.0416 38.252L91.418 39.77" stroke="#0E2B72" stroke-width="0.906524" stroke-linecap="round" stroke-linejoin="round"/>
<path d="M95.4141 41.4634C95.6792 41.9505 96.1203 42.3185 96.648 42.4916C99.3892 43.5148 101.93 45.0107 104.154 46.9114C106.693 49.2403 108.935 57.7741 109.913 63.398C110.149 64.7201 109.878 66.0827 109.154 67.2136C108.429 68.3446 107.305 69.1608 106.005 69.4991C102.615 70.4407 99.133 71.0153 95.6197 71.2128" stroke="#0E2B72" stroke-width="0.906524" stroke-linecap="round" stroke-linejoin="round"/>
<path d="M101.532 60.3496C96.5579 61.309 91.5149 61.8707 86.4512 62.0291" stroke="#0E2B72" stroke-width="0.906524" stroke-linecap="round" stroke-linejoin="round"/>
<path d="M99.5614 60.7297C99.3385 58.1085 98.8913 55.5112 98.2246 52.9663V60.9697" stroke="#0E2B72" stroke-width="0.906524" stroke-linecap="round" stroke-linejoin="round"/>
<path d="M59.082 63.0913C60.6434 65.4849 61.1976 68.3977 60.6244 71.1975" stroke="#0E2B72" stroke-width="0.906524" stroke-linecap="round" stroke-linejoin="round"/>
<path d="M80.264 64.3594C78.9444 64.9421 75.5682 65.9027 73.7516 66.4845C72.8947 66.7551 74.42 67.7355 79.5956 66.2445" stroke="#0E2B72" stroke-width="0.906524" stroke-linecap="round" stroke-linejoin="round"/>
<path d="M80.5216 65.6963C79.2706 66.4846 77.4548 67.392 75.8087 68.267C75.0375 68.6774 75.7402 69.5694 80.2988 67.6843" stroke="#0E2B72" stroke-width="0.906524" stroke-linecap="round" stroke-linejoin="round"/>
<path d="M80.8798 66.9473C80.1582 67.8384 79.5331 68.7025 78.3262 69.9978C77.7643 70.6012 78.7962 70.9674 82.6107 68.284C83.3143 67.7888 83.6931 68.3318 84.6158 69.1066C85.8362 70.1304 86.6552 71.3174 87.5464 71.1974" stroke="#0E2B72" stroke-width="0.906524" stroke-linecap="round" stroke-linejoin="round"/>
<path d="M83.1095 62.9541C81.7384 59.7971 82.6296 59.6167 83.1095 60.4177C83.9228 61.7306 84.9078 62.9291 86.0382 63.9814" stroke="#0E2B72" stroke-width="0.906524" stroke-linecap="round" stroke-linejoin="round"/>
<path d="M85.457 63.3995C85.8846 61.5414 86.8759 61.6749 87.657 63.2065C88.559 64.978 89.3816 71.2143 87.4964 71.2143" stroke="#0E2B72" stroke-width="0.906524" stroke-linecap="round" stroke-linejoin="round"/>
<path d="M88.1862 64.7988C86.1702 64.0465 82.9357 62.7314 82.0625 62.7314C81.7369 62.7314 78.018 63.8138 76.2185 64.3081C75.036 64.6346 74.4714 65.1803 76.3899 65.1136C77.1954 65.0856 78.0866 64.9765 78.892 64.8737" stroke="#0E2B72" stroke-width="0.906524" stroke-linecap="round" stroke-linejoin="round"/>
<path d="M84.4291 51.4395C83.6858 55.0686 83.7326 58.8153 84.5662 62.4248" stroke="#0E2B72" stroke-width="0.906524" stroke-linecap="round" stroke-linejoin="round"/>
<path d="M56.9729 71.1973H48.1641L49.2609 60.0063H55.739L56.9729 71.1973Z" stroke="#0E2B72" stroke-width="0.906524" stroke-linecap="round" stroke-linejoin="round"/>
<path d="M55.294 46.8961C55.2423 47.5247 55.0086 48.1247 54.6215 48.6227C54.2344 49.1207 53.7107 49.4953 53.1142 49.7005C52.5177 49.9057 51.8744 49.9328 51.2629 49.7784C50.6513 49.624 50.0979 49.2948 49.6703 48.831C49.2428 48.3673 48.9596 47.789 48.8553 47.1669C48.7509 46.5448 48.8301 45.9059 49.083 45.328C49.3359 44.7502 49.7516 44.2585 50.2794 43.913C50.8072 43.5676 51.4241 43.3834 52.0549 43.3828C52.9502 43.4194 53.7944 43.81 54.4018 44.4688C55.0092 45.1277 55.3301 46.0007 55.294 46.8961Z" stroke="#0E2B72" stroke-width="0.906524" stroke-linecap="round" stroke-linejoin="round"/>
<path d="M54.0104 41.9089C53.4909 42.2922 52.8559 42.4862 52.2109 42.4573C52.2741 41.8151 52.5591 41.2153 53.0164 40.7606C53.5358 40.3772 54.171 40.1837 54.8159 40.2122C54.7527 40.8542 54.4679 41.4541 54.0104 41.9089Z" stroke="#0E2B72" stroke-width="0.906524" stroke-linecap="round" stroke-linejoin="round"/>
<path d="M91.5742 31.7978C92.3564 30.3473 93.0156 28.8339 93.5451 27.2734C93.6671 27.0945 93.8301 26.9473 94.0205 26.8441C94.2108 26.7408 94.423 26.6844 94.6395 26.6795C94.856 26.6747 95.0705 26.7215 95.2653 26.8162C95.4601 26.9108 95.6295 27.0506 95.7595 27.2238C95.9326 27.4556 96.0273 27.7379 96.0301 28.0275C96.0283 28.2131 95.9812 28.3954 95.8929 28.5587C96.1407 28.3933 96.4368 28.3159 96.7338 28.3389C97.0308 28.3619 97.3114 28.484 97.5308 28.6855C97.7501 28.8871 97.8954 29.1564 97.9433 29.4504C97.9913 29.7444 97.9391 30.046 97.7952 30.3068C98.0625 30.1376 98.3814 30.0695 98.6944 30.1145C99.0075 30.1596 99.2942 30.3149 99.5029 30.5525C99.7116 30.7902 99.8286 31.0945 99.8329 31.4108C99.8372 31.727 99.7284 32.0344 99.5262 32.2776C99.691 32.2249 99.8647 32.2058 100.037 32.2212C100.209 32.2367 100.377 32.2865 100.53 32.3677C100.683 32.4489 100.818 32.5598 100.927 32.694C101.036 32.8282 101.117 32.9829 101.166 33.149C101.238 33.3996 101.233 33.666 101.151 33.9136C101.07 34.1613 100.916 34.3788 100.71 34.538C100.572 34.6431 100.415 34.7195 100.248 34.7626C98.7882 34.9207 97.4448 35.6327 96.4947 36.7519C95.5445 37.871 95.0599 39.3121 95.1407 40.778" stroke="#0E2B72" stroke-width="0.906524" stroke-linecap="round" stroke-linejoin="round"/>
<path d="M95.4145 41.4633L95.0889 44.034L92.4668 41.9603L89.502 43.4513L90.4617 41.3262" stroke="#0E2B72" stroke-width="0.906524" stroke-linecap="round" stroke-linejoin="round"/>
<path d="M92.4668 41.9604C90.3074 47.4103 89.5362 54.2483 89.502 61.8575" stroke="#0E2B72" stroke-width="0.906524" stroke-linecap="round" stroke-linejoin="round"/>
<path d="M127.514 63.3828C128.164 63.3828 128.787 63.6408 129.246 64.1008C129.474 64.3281 129.655 64.5982 129.779 64.8955C129.902 65.1928 129.966 65.5116 129.966 65.8335C129.966 66.1554 129.902 66.4742 129.779 66.7715C129.655 67.0689 129.474 67.3389 129.246 67.5663C128.787 68.0263 128.164 68.2842 127.514 68.2842" stroke="#0E2B72" stroke-width="0.906524" stroke-linecap="round" stroke-linejoin="round"/>
<path d="M149.98 40.6409C149.981 40.864 149.931 41.0844 149.836 41.2862C149.741 41.4879 149.602 41.666 149.43 41.8075C149.257 41.9491 149.055 42.0505 148.839 42.1046C148.622 42.1587 148.397 42.164 148.178 42.1202C147.959 42.0771 147.752 41.9858 147.573 41.853C147.394 41.7203 147.246 41.5493 147.141 41.3525C147.036 41.1557 146.975 40.938 146.965 40.7151C146.954 40.4922 146.993 40.2697 147.078 40.0637C147.193 39.7884 147.387 39.5532 147.635 39.3877C147.883 39.2222 148.174 39.1339 148.473 39.1338C148.771 39.1337 149.062 39.2219 149.311 39.3872C149.559 39.5525 149.753 39.7875 149.867 40.0628C149.943 40.2459 149.981 40.4425 149.98 40.6409Z" stroke="#0E2B72" stroke-width="0.906524" stroke-linecap="round" stroke-linejoin="round"/>
<path d="M137.865 66.8617L148.474 42.1489" stroke="#0E2B72" stroke-width="0.906524" stroke-linecap="round" stroke-linejoin="round"/>
<path d="M148.474 39.1325L133.016 21.7891" stroke="#0E2B72" stroke-width="0.906524" stroke-linecap="round" stroke-linejoin="round"/>
<path d="M131.165 20.6063L128.543 18.9268" stroke="#0E2B72" stroke-width="0.906524" stroke-linecap="round" stroke-linejoin="round"/>
<path d="M122.371 26.1077C122.093 26.3252 121.764 26.468 121.415 26.5227C121.067 26.5775 120.71 26.5422 120.379 26.4203C120.047 26.2985 119.753 26.094 119.522 25.8264C119.292 25.5587 119.134 25.2367 119.064 24.8909C119.004 24.5991 119.008 24.2978 119.076 24.0078C119.144 23.7178 119.274 23.4461 119.458 23.2114" stroke="#0E2B72" stroke-width="0.906524" stroke-linecap="round" stroke-linejoin="round"/>
<path d="M133.272 21.0862C133.273 21.251 133.237 21.4139 133.166 21.563C133.096 21.7121 132.993 21.8438 132.866 21.9483C132.739 22.0529 132.589 22.1278 132.429 22.1676C132.27 22.2074 132.103 22.2111 131.941 22.1785C131.668 22.1263 131.425 21.974 131.259 21.7516C131.092 21.5291 131.015 21.2525 131.042 20.9761C131.07 20.6997 131.199 20.4435 131.406 20.2577C131.612 20.072 131.881 19.9701 132.158 19.9722C132.453 19.9764 132.734 20.0951 132.942 20.3031C133.15 20.5111 133.268 20.792 133.272 21.0862Z" stroke="#0E2B72" stroke-width="0.906524" stroke-linecap="round" stroke-linejoin="round"/>
<path d="M138.961 67.9756C138.961 68.1405 138.925 68.3034 138.855 68.4525C138.785 68.6016 138.682 68.7332 138.555 68.8378C138.427 68.9424 138.278 69.0173 138.118 69.0571C137.958 69.0969 137.791 69.1006 137.63 69.068C137.414 69.0253 137.215 68.9192 137.06 68.7631C136.943 68.6465 136.855 68.5056 136.799 68.3506C136.744 68.1955 136.724 68.0302 136.74 67.8664C136.756 67.7026 136.808 67.5444 136.892 67.4031C136.977 67.2619 137.092 67.141 137.228 67.0493C137.442 66.9054 137.7 66.8405 137.957 66.8657C138.213 66.8908 138.453 67.0046 138.635 67.1873C138.739 67.2908 138.821 67.4137 138.877 67.549C138.933 67.6843 138.961 67.8293 138.961 67.9756Z" stroke="#0E2B72" stroke-width="0.906524" stroke-linecap="round" stroke-linejoin="round"/>
<path d="M92.1913 89.0723L90.1348 121" stroke="#0E2B72" stroke-width="0.906524" stroke-linecap="round" stroke-linejoin="round"/>
<path d="M58.6204 17.2478H48.4062V7.03369H58.6204V17.2478Z" stroke="#0E2B72" stroke-width="0.906524" stroke-linecap="round" stroke-linejoin="round"/>
<path d="M53.5117 9.36429L56.4937 3.07471" stroke="#0E2B72" stroke-width="0.906524" stroke-linecap="round" stroke-linejoin="round"/>
<path d="M24.12 90.8452H16.3223" stroke="#0E2B72" stroke-width="0.906524" stroke-linecap="round" stroke-linejoin="round"/>
<path d="M20.2129 94.745V86.9473" stroke="#0E2B72" stroke-width="0.906524" stroke-linecap="round" stroke-linejoin="round"/>
<path d="M150.289 85.9014C150.32 86.2359 150.276 86.5731 150.16 86.8885C150.045 87.204 149.861 87.49 149.622 87.7257C149.382 87.9615 149.094 88.1411 148.777 88.2518C148.459 88.3625 148.122 88.4013 147.788 88.3656C147.341 88.3179 146.919 88.139 146.573 87.8515C146.228 87.564 145.976 87.1808 145.848 86.7502C145.754 86.428 145.731 86.0889 145.783 85.7572C145.835 85.4254 145.96 85.1093 146.148 84.8315C146.337 84.5537 146.585 84.3212 146.874 84.1506C147.163 83.98 147.487 83.8756 147.821 83.8448C148.27 83.7986 148.722 83.8886 149.118 84.103C149.515 84.3175 149.838 84.6466 150.044 85.0472C150.182 85.3124 150.264 85.6028 150.289 85.9014Z" stroke="#0E2B72" stroke-width="0.906524" stroke-linecap="round" stroke-linejoin="round"/>
<path d="M1.31055 121H172.689" stroke="#0E2B72" stroke-width="0.906524" stroke-linecap="round" stroke-linejoin="round"/>
<path d="M62.4922 118.755H81.6351" stroke="#0E2B72" stroke-width="0.906524" stroke-linecap="round" stroke-linejoin="round"/>
<path d="M42.7324 118.755H62.4581" stroke="#0E2B72" stroke-width="0.906524" stroke-linecap="round" stroke-linejoin="round"/>
<path d="M62.4918 118.728C62.3102 117.073 61.9425 115.443 61.3959 113.87C57.9773 114.701 54.4027 114.648 51.0103 113.716C46.9444 115.097 43.3626 117.62 40.6934 120.983C48.611 120.983 53.8724 121 59.8363 120.983" stroke="#0E2B72" stroke-width="0.906524" stroke-linecap="round" stroke-linejoin="round"/>
<path d="M80.5384 113.871C77.4464 114.754 74.1704 114.754 71.0784 113.871C66.8101 115.108 61.3486 119.47 59.8359 120.983C68.8847 120.983 74.5745 120.897 81.6867 120.897C81.7494 118.504 81.3599 116.12 80.5384 113.871Z" stroke="#0E2B72" stroke-width="0.906524" stroke-linecap="round" stroke-linejoin="round"/>
<path d="M90.1348 84.9423L90.5632 83.2114L95.5846 84.9766" stroke="#0E2B72" stroke-width="0.906524" stroke-linecap="round" stroke-linejoin="round"/>
<path d="M90.1348 84.942L92.1913 85.2505L110.697 83.7388" stroke="#0E2B72" stroke-width="0.906524" stroke-linecap="round" stroke-linejoin="round"/>
<path d="M113.085 83.9138L107.258 83.4854" stroke="#0E2B72" stroke-width="0.906524" stroke-linecap="round" stroke-linejoin="round"/>
<path d="M59.2539 111.317L73.7525 86.9985" stroke="#0E2B72" stroke-width="0.906524" stroke-linecap="round" stroke-linejoin="round"/>
<path d="M90.8906 61.7544C92.433 64.0337 92.8272 67.1871 92.0389 71.2145" stroke="#0E2B72" stroke-width="0.906524" stroke-linecap="round" stroke-linejoin="round"/>
<path d="M89.1934 88.7295L92.1925 89.0723L110.954 87.5128C111.348 87.4821 111.722 87.3282 112.023 87.0729C112.325 86.8176 112.538 86.4738 112.633 86.0903L120.74 46.7933C120.874 46.1574 120.796 45.495 120.517 44.9079C120.239 44.3208 119.775 43.8414 119.197 43.5434C118.815 43.3448 118.394 43.2315 117.963 43.2115L95.9971 42.1489" stroke="#0E2B72" stroke-width="0.906524" stroke-linecap="round" stroke-linejoin="round"/>
<path d="M82.0803 73.6826C80.3251 74.0208 78.7107 74.875 77.4437 76.1359C76.1767 77.3967 75.3147 79.007 74.9681 80.7605L69.1953 110.032C73.5986 112.116 78.4873 112.958 83.334 112.467C83.334 112.383 88.5827 91.2155 90.1377 84.944" stroke="#0E2B72" stroke-width="0.906524" stroke-linecap="round" stroke-linejoin="round"/>
<path d="M68.1663 32.3633C68.9571 32.3638 69.7153 32.6781 70.2744 33.2372C70.8335 33.7963 71.1478 34.5545 71.1483 35.3453V57.0246C71.1483 57.8157 70.8342 58.5743 70.275 59.1338C69.7158 59.6934 68.9574 60.0079 68.1663 60.0084H38.535C37.7436 60.0079 36.9845 59.6939 36.4241 59.135C35.8637 58.5761 35.5476 57.8179 35.5449 57.0264V35.3453C35.5442 34.9539 35.6207 34.5663 35.7699 34.2045C35.9192 33.8428 36.1384 33.514 36.4148 33.237C36.6913 32.96 37.0197 32.7403 37.3812 32.5904C37.7426 32.4405 38.1302 32.3633 38.5215 32.3633H68.1663Z" stroke="#0E2B72" stroke-width="0.906524" stroke-linecap="round" stroke-linejoin="round"/>
<path d="M72.2771 35.3453V57.0075C72.2767 57.7982 71.9623 58.5564 71.4032 59.1155C70.8441 59.6747 70.0859 59.989 69.2952 59.9895H68.1641C68.9548 59.989 69.713 59.6747 70.2721 59.1155C70.8312 58.5564 71.1456 57.7982 71.146 57.0075V35.3453C71.1456 34.5545 70.8312 33.7963 70.2721 33.2372C69.713 32.6781 68.9548 32.3638 68.1641 32.3633H69.2952C70.0859 32.3638 70.8441 32.6781 71.4032 33.2372C71.9623 33.7963 72.2767 34.5545 72.2771 35.3453Z" stroke="#0E2B72" stroke-width="0.906524" stroke-linecap="round" stroke-linejoin="round"/>
<path d="M95.9277 33.9411C97.1905 33.0103 98.0925 35.1615 95.7392 36.2376C95.4118 36.3873 94.4025 39.6823 95.4136 41.4691C93.799 42.0004 91.8489 42.317 90.4607 41.332C91.1939 40.5441 91.6299 39.5255 91.6938 38.4511C87.2379 38.5196 91.4881 31.7844 91.5738 31.7844C93.7521 28.7384 95.2206 31.9432 95.1069 33.8518C95.0735 34.4156 95.4686 34.2776 95.9277 33.9411Z" stroke="#0E2B72" stroke-width="0.906524" stroke-linecap="round" stroke-linejoin="round"/>
<path d="M106.596 84.0465C107.734 83.1933 108.643 82.071 109.241 80.7802C109.84 79.4894 110.108 78.0704 110.023 76.6502C109.961 75.839 109.843 75.0331 109.669 74.2383" stroke="#0E2B72" stroke-width="0.906524" stroke-linecap="round" stroke-linejoin="round"/>
<path d="M107.496 68.8477C107.96 69.6042 108.366 70.3952 108.709 71.2136" stroke="#0E2B72" stroke-width="0.906524" stroke-linecap="round" stroke-linejoin="round"/>
<path d="M127.514 70.3923C127.514 70.6105 127.427 70.8197 127.273 70.974C127.119 71.1282 126.91 71.2149 126.691 71.2149H120.522C120.304 71.2149 120.094 71.1282 119.94 70.974C119.786 70.8197 119.699 70.6105 119.699 70.3923V61.2713C119.699 61.0532 119.786 60.8439 119.94 60.6897C120.094 60.5354 120.304 60.4487 120.522 60.4487H126.688C126.906 60.449 127.115 60.5357 127.269 60.6899C127.423 60.8442 127.51 61.0532 127.51 61.2713L127.514 70.3923Z" stroke="#0E2B72" stroke-width="0.906524" stroke-linecap="round" stroke-linejoin="round"/>
<path d="M145.611 69.0723C145.678 69.0741 145.742 69.0993 145.791 69.1426C145.814 69.1633 145.833 69.1886 145.846 69.2168C145.859 69.245 145.867 69.2756 145.868 69.3068V70.9782C145.867 71.0093 145.859 71.0399 145.846 71.0682C145.833 71.0964 145.814 71.1216 145.791 71.1423C145.741 71.1863 145.677 71.2112 145.611 71.2127H130.101C130.034 71.2112 129.97 71.1863 129.92 71.1423C129.897 71.1216 129.878 71.0964 129.865 71.0682C129.852 71.0399 129.845 71.0093 129.844 70.9782V69.3068C129.845 69.2756 129.852 69.245 129.865 69.2168C129.878 69.1886 129.897 69.1633 129.92 69.1426C129.97 69.0987 130.034 69.0738 130.101 69.0723H145.611Z" stroke="#0E2B72" stroke-width="0.906524" stroke-linecap="round" stroke-linejoin="round"/>
<path d="M92.1934 89.0722V85.2505" stroke="#0E2B72" stroke-width="0.906524" stroke-linecap="round" stroke-linejoin="round"/>
<path d="M125.786 17.0737L117.439 19.3531C117.291 19.3937 117.155 19.4727 117.046 19.5822C116.937 19.6916 116.859 19.8277 116.819 19.9768C116.779 20.1259 116.779 20.2829 116.819 20.432C116.858 20.5812 116.937 20.7173 117.045 20.8269L124.552 28.2647C124.633 28.3467 124.73 28.4117 124.837 28.4561C124.944 28.5004 125.059 28.5233 125.174 28.5233C125.29 28.5233 125.405 28.5004 125.512 28.4561C125.619 28.4117 125.716 28.3467 125.797 28.2647C125.906 28.1555 125.985 28.0196 126.026 27.8706L128.253 19.3702L125.786 17.0737Z" stroke="#0E2B72" stroke-width="0.906524" stroke-linejoin="round"/>
<mask id="path-92-inside-1_1644_24663" fill="white">
<path fill-rule="evenodd" clip-rule="evenodd" d="M5.44808 7C3.54376 7 2 8.54376 2 10.4481V34.872C2 36.7763 3.54375 38.3201 5.44808 38.3201H39.0394L43.97 41.9182C44.8758 42.5791 46.0951 41.6846 45.7366 40.6222L43.6643 34.4816V10.4481C43.6643 8.54376 42.1205 7 40.2162 7H5.44808Z"/>
</mask>
<path fill-rule="evenodd" clip-rule="evenodd" d="M5.44808 7C3.54376 7 2 8.54376 2 10.4481V34.872C2 36.7763 3.54375 38.3201 5.44808 38.3201H39.0394L43.97 41.9182C44.8758 42.5791 46.0951 41.6846 45.7366 40.6222L43.6643 34.4816V10.4481C43.6643 8.54376 42.1205 7 40.2162 7H5.44808Z" fill="#FFF8E6"/>
<path d="M39.0394 38.3201L39.4517 37.755L39.2674 37.6206H39.0394V38.3201ZM43.97 41.9182L43.5577 42.4832L43.97 41.9182ZM45.7366 40.6222L46.3993 40.3986L45.7366 40.6222ZM43.6643 34.4816H42.9648V34.5965L43.0016 34.7053L43.6643 34.4816ZM2.69946 10.4481C2.69946 8.93005 3.93006 7.69946 5.44808 7.69946V6.30054C3.15746 6.30054 1.30054 8.15746 1.30054 10.4481H2.69946ZM2.69946 34.872V10.4481H1.30054V34.872H2.69946ZM5.44808 37.6206C3.93005 37.6206 2.69946 36.39 2.69946 34.872H1.30054C1.30054 37.1626 3.15745 39.0195 5.44808 39.0195V37.6206ZM39.0394 37.6206H5.44808V39.0195H39.0394V37.6206ZM44.3824 41.3532L39.4517 37.755L38.6271 38.8851L43.5577 42.4832L44.3824 41.3532ZM45.0738 40.8459C45.2142 41.2617 44.7369 41.6119 44.3824 41.3532L43.5577 42.4832C45.0147 43.5464 46.976 42.1075 46.3993 40.3986L45.0738 40.8459ZM43.0016 34.7053L45.0738 40.8459L46.3993 40.3986L44.327 34.258L43.0016 34.7053ZM42.9648 10.4481V34.4816H44.3637V10.4481H42.9648ZM40.2162 7.69946C41.7342 7.69946 42.9648 8.93006 42.9648 10.4481H44.3637C44.3637 8.15746 42.5068 6.30054 40.2162 6.30054V7.69946ZM5.44808 7.69946H40.2162V6.30054H5.44808V7.69946Z" fill="#0E2B72" mask="url(#path-92-inside-1_1644_24663)"/>
<path d="M23.2166 30.2122C23.205 30.4546 23.0981 30.6827 22.9191 30.8468C22.7402 31.0108 22.5037 31.0975 22.2611 31.088C22.1102 31.0822 21.9631 31.039 21.8329 30.9624C21.7028 30.8858 21.5936 30.7781 21.5153 30.649C21.437 30.5198 21.3919 30.3733 21.384 30.2225C21.3762 30.0717 21.4059 29.9212 21.4704 29.7847C21.5611 29.5939 21.7147 29.4402 21.9055 29.3496C22.0963 29.2589 22.3125 29.2368 22.5176 29.2871C22.7228 29.3373 22.9044 29.4567 23.0317 29.6253C23.159 29.7938 23.2243 30.0011 23.2166 30.2122Z" stroke="#FFB400" stroke-width="1.30661"/>
<path d="M22.2857 26.1793C22.3123 24.985 22.7704 24.1133 24.2498 22.1451C27.4417 17.8999 25.507 14.9747 22.79 14.8462C22.304 14.824 21.8191 14.9093 21.37 15.0961C20.9208 15.2829 20.5184 15.5666 20.1915 15.9269C19.8645 16.2871 19.6212 16.7151 19.4788 17.1803C19.3364 17.6455 19.2984 18.1363 19.3676 18.6179" stroke="#FFB400" stroke-width="1.30661" stroke-linecap="round" stroke-linejoin="round"/>
</svg>
