<svg width="102" height="102" viewBox="0 0 102 102" fill="none" xmlns="http://www.w3.org/2000/svg">
<g clip-path="url(#clip0_10498_286)">
<path fill-rule="evenodd" clip-rule="evenodd" d="M48.2761 23.3842C48.6431 24.4255 48.9085 25.4556 49.0933 26.4581C49.1788 26.9217 49.2469 27.3834 49.2983 27.8425C49.3864 28.6298 49.4251 29.4095 49.4169 30.1788C49.3113 40.0764 41.4386 48.24 31.0353 48.3204C26.9579 48.3519 22.2032 47.1996 17.5462 43.3531C5.36579 33.2921 1.3099 16.0226 0.0488405 8.09871C0.0156215 7.88997 -0.000281076 7.68287 3.83512e-06 7.47879C-0.000283912 7.68287 0.0156171 7.88997 0.0488361 8.09871M7.17543 3.5918C16.107 3.69429 31.0097 5.34685 41.6676 14.1502C41.9587 14.3906 42.2395 14.6334 42.5103 14.8782C43.978 16.2051 45.1539 17.5938 46.0899 19.0037C47.0542 20.4561 47.764 21.9311 48.2761 23.3842" fill="url(#paint0_linear_10498_286)"/>
<path fill-rule="evenodd" clip-rule="evenodd" d="M100.65 17.89C101.683 18.6199 102.235 19.9378 101.905 21.2632C100.309 27.6757 95.7569 41.5578 85.0495 48.9495C80.9557 51.7754 76.9727 52.3838 73.6294 52.0688C70.4996 51.774 67.7264 50.6106 65.4999 48.8541C63.9893 47.6635 62.73 46.2001 61.7813 44.5497C61.7828 44.5506 61.7844 44.5516 61.786 44.5525C59.8515 41.186 59.2093 37.0422 60.3625 32.8506C61.2532 29.6127 63.234 26.104 67.3277 23.2781C76.5511 16.911 88.6587 16.5218 96.0319 17.0351C96.0322 17.0338 96.0326 17.0325 96.0329 17.0313C97.2163 17.1137 98.2777 17.2195 99.1854 17.3275C99.735 17.3929 100.232 17.5933 100.65 17.89Z" fill="url(#paint1_linear_10498_286)"/>
<path d="M20.179 21.1881C20.2838 21.2552 30.7302 27.9641 36.3675 34.1443C45.335 43.9755 50.2688 56.815 50.2603 70.2977L50.2499 87.2688H53.3466L53.339 74.6817C53.3322 63.6456 57.3702 53.1366 64.7096 45.0904C69.6602 39.6629 75.679 35.2856 82.599 32.0798C83.3704 31.7226 83.7059 30.8076 83.3489 30.0362C82.9919 29.2648 82.0773 28.9293 81.3051 29.2865C74.0117 32.6651 67.663 37.2844 62.4353 43.0157C57.8662 48.0249 54.4947 53.9247 52.472 60.3057C50.628 49.7854 45.878 40.0027 38.6418 32.0694C32.7336 25.592 22.2794 18.8768 21.8373 18.5941C21.1213 18.1363 20.1695 18.3457 19.7115 19.0618C19.2535 19.7782 19.4626 20.7301 20.179 21.1881Z" fill="url(#paint2_linear_10498_286)"/>
<path fill-rule="evenodd" clip-rule="evenodd" d="M51.8328 74.6875C51.8312 74.6875 51.8296 74.6875 51.8281 74.6875C46.1175 74.6875 41.0071 77.5786 37.571 82.1319C34.3861 82.6618 31.3191 84.3106 28.8679 87.0805C27.9794 88.0846 27.2247 89.1821 26.5966 90.3423C23.016 89.7546 19.2436 91.0169 16.4884 94.1303L16.4396 94.1858C15.7515 94.9724 15.4615 95.9412 15.4858 96.8857H88.1707C88.1707 96.8856 88.1707 96.8855 88.1707 96.8855H88.18C88.2045 95.9412 87.9145 94.9724 87.2264 94.1858C87.2209 94.1796 87.2155 94.1735 87.21 94.1673C87.1992 94.1549 87.1884 94.1426 87.1774 94.1303C84.8582 91.5097 81.8182 90.2005 78.7786 90.2023C78.207 90.2021 77.6353 90.2483 77.0684 90.3409C76.4404 89.1811 75.6863 88.0843 74.7979 87.0805C72.3467 84.3108 69.2796 82.662 66.0947 82.1319C62.6585 77.5786 57.5482 74.6875 51.8376 74.6875C51.836 74.6875 51.8344 74.6875 51.8328 74.6875Z" fill="url(#paint3_linear_10498_286)"/>
<path d="M95.4623 98.4221H6.29698C5.44671 98.4221 4.75781 97.733 4.75781 96.8829C4.75781 96.0329 5.44691 95.3438 6.29698 95.3438H95.4623C96.3126 95.3438 97.0015 96.0329 97.0015 96.8829C97.0015 97.733 96.3126 98.4221 95.4623 98.4221Z" fill="url(#paint4_linear_10498_286)"/>
</g>
<defs>
<linearGradient id="paint0_linear_10498_286" x1="1.82897" y1="3.56925" x2="48.9251" y2="74.3335" gradientUnits="userSpaceOnUse">
<stop offset="0.428851" stop-color="#FFB400"/>
<stop offset="1" stop-color="#FFB400" stop-opacity="0"/>
</linearGradient>
<linearGradient id="paint1_linear_10498_286" x1="61.3513" y1="16.8572" x2="97.2612" y2="75.3079" gradientUnits="userSpaceOnUse">
<stop offset="0.428851" stop-color="#FFB400"/>
<stop offset="1" stop-color="#FFB400" stop-opacity="0"/>
</linearGradient>
<linearGradient id="paint2_linear_10498_286" x1="51" y1="95.5" x2="26.3302" y2="38.534" gradientUnits="userSpaceOnUse">
<stop/>
<stop offset="1" stop-opacity="0"/>
</linearGradient>
<linearGradient id="paint3_linear_10498_286" x1="18.1749" y1="74.6763" x2="29.0065" y2="122.919" gradientUnits="userSpaceOnUse">
<stop offset="0.428851" stop-color="#FFB400"/>
<stop offset="1" stop-color="#FFB400" stop-opacity="0"/>
</linearGradient>
<linearGradient id="paint4_linear_10498_286" x1="52" y1="95" x2="52" y2="100.5" gradientUnits="userSpaceOnUse">
<stop/>
<stop offset="1" stop-opacity="0"/>
</linearGradient>
<clipPath id="clip0_10498_286">
<rect width="102" height="102" fill="white"/>
</clipPath>
</defs>
</svg>
