<svg width="102" height="102" viewBox="0 0 102 102" fill="none" xmlns="http://www.w3.org/2000/svg">
<g clip-path="url(#clip0_10339_125781)">
<path d="M86.9609 76.4051C94.4427 76.4051 100.508 69.5462 100.508 61.0853C100.508 52.6245 94.4427 45.7656 86.9609 45.7656C79.4792 45.7656 73.4141 52.6245 73.4141 61.0853C73.4141 69.5462 79.4792 76.4051 86.9609 76.4051Z" fill="url(#paint0_linear_10339_125781)"/>
<path d="M86.957 45.7656C85.9297 45.7656 84.9306 45.8993 83.9688 46.1441C90.0121 47.6835 94.5273 53.7862 94.5273 61.0852C94.5273 68.3841 90.0121 74.4868 83.9688 76.0262C84.9306 76.2712 85.9297 76.4047 86.957 76.4047C94.4387 76.4047 100.504 69.5458 100.504 61.0852C100.504 52.6245 94.4387 45.7656 86.957 45.7656Z" fill="url(#paint1_linear_10339_125781)"/>
<path d="M85.4688 99.7544C85.4688 100.58 86.1375 101.249 86.9629 101.249C87.7883 101.249 88.457 100.58 88.457 99.7544V70.382L93.1813 65.6577C93.7648 65.074 93.7648 64.1281 93.1813 63.5446C92.5976 62.9613 91.6517 62.9613 91.0682 63.5446L88.457 66.1558V61.5488C88.457 60.7235 87.7883 60.0547 86.9629 60.0547C86.1375 60.0547 85.4688 60.7235 85.4688 61.5488V99.7544Z" fill="url(#paint2_linear_10339_125781)"/>
<path d="M62.9812 0.734375C56.8536 0.734375 51.8861 5.7017 51.8861 11.8293V11.8438C51.8861 12.615 51.3672 13.2971 50.6185 13.4824C47.0999 14.3536 44.4909 17.5303 44.4909 21.3183C44.4909 21.6454 44.5108 21.9679 44.5491 22.2847C44.6376 23.019 44.2049 23.72 43.5165 23.9908C38.864 25.822 35.5703 30.3534 35.5703 35.656C35.5703 41.3292 39.3403 46.1198 44.5108 47.6653C44.5419 47.9865 45.1826 53.6349 50.1141 55.9955C53.8014 57.7605 57.3579 56.4764 58.1944 56.1445C60.8846 55.0775 62.3929 53.1719 62.9812 52.3336C63.5695 53.1721 65.0778 55.0775 67.768 56.1445C68.6046 56.4762 72.161 57.7605 75.8484 55.9955C80.7796 53.6349 81.4205 47.9867 81.4514 47.6653C86.6219 46.1198 90.3919 41.3292 90.3919 35.656C90.3919 30.3532 87.0982 25.822 82.4457 23.9908C81.7574 23.7198 81.3247 23.0188 81.4131 22.2847C81.4514 21.9679 81.4711 21.6454 81.4711 21.3183C81.4711 17.5303 78.8621 14.3534 75.3435 13.4824C74.5949 13.2971 74.0759 12.615 74.0759 11.8438V11.8293C74.0763 5.7017 69.1088 0.734375 62.9812 0.734375Z" fill="url(#paint3_linear_10339_125781)"/>
<path d="M82.4526 23.9908C81.7645 23.7198 81.3315 23.019 81.4202 22.2847C81.4584 21.9679 81.4784 21.6454 81.4784 21.3183C81.4784 17.5303 78.8694 14.3534 75.3508 13.4824C74.6021 13.2971 74.0832 12.615 74.0832 11.8438V11.8293C74.0832 5.7017 69.1157 0.734375 62.9883 0.734375C61.9525 0.734375 60.9511 0.879406 60 1.14496C64.6755 2.45005 68.1066 6.73763 68.1066 11.8295V11.844C68.1066 12.6152 68.6256 13.2973 69.3742 13.4826C72.8928 14.3536 75.5018 17.5305 75.5018 21.3185C75.5018 21.6456 75.4819 21.9681 75.4436 22.2849C75.355 23.0192 75.7879 23.72 76.476 23.991C81.1285 25.8222 84.4222 30.3536 84.4222 35.6562C84.4222 41.0806 80.9757 45.698 76.1539 47.4436C75.7524 47.5888 75.4568 47.9307 75.3761 48.3498C75.0603 49.9868 73.8865 54.0772 69.8787 55.9957C69.4834 56.1849 69.0901 56.3371 68.7009 56.4612C70.1906 56.8953 72.9831 57.3705 75.8552 55.9957C80.7865 53.6351 81.4274 47.9869 81.4584 47.6655C86.629 46.12 90.3988 41.3294 90.3988 35.6562C90.3986 30.3532 87.1051 25.8218 82.4526 23.9908Z" fill="url(#paint4_linear_10339_125781)"/>
<path d="M64.4764 45.3862L71.0038 38.8592C71.5873 38.2755 71.5873 37.3296 71.0038 36.7461C70.4201 36.163 69.474 36.1626 68.8908 36.7461L64.4766 41.1602V31.2676C64.4766 30.4422 63.8078 29.7734 62.9824 29.7734C62.1571 29.7734 61.4883 30.4422 61.4883 31.2676V38.2926L57.0742 33.8785C56.4905 33.2952 55.5446 33.2952 54.9611 33.8785C54.3776 34.4623 54.3776 35.4081 54.9611 35.9917L61.4885 42.5191V99.7476C61.4885 100.573 62.1573 101.242 62.9826 101.242C63.808 101.242 64.4768 100.573 64.4768 99.7476V45.3862H64.4764Z" fill="url(#paint5_linear_10339_125781)"/>
<path d="M45.8873 50.2498C45.8873 63.9515 35.9509 75.0589 23.6938 75.0589C11.4364 75.0589 1.5 63.9515 1.5 50.2498C1.5 36.5481 11.4364 0.734375 23.6936 0.734375C35.9509 0.734375 45.8873 36.5481 45.8873 50.2498Z" fill="url(#paint6_linear_10339_125781)"/>
<path d="M23.6914 0.734375C22.678 0.734375 21.6805 0.980609 20.7031 1.43742C31.547 6.50674 39.9084 37.6809 39.9084 50.2498C39.9084 62.8185 31.5468 73.2028 20.7031 74.8344C21.6807 74.9814 22.6778 75.0589 23.6914 75.0589C35.9485 75.0589 45.885 63.9515 45.885 50.2498C45.885 36.5481 35.9487 0.734375 23.6914 0.734375Z" fill="url(#paint7_linear_10339_125781)"/>
<path d="M31.4206 49.4278C32.0042 48.8441 32.0042 47.8982 31.4206 47.3147C30.8369 46.7314 29.891 46.7314 29.3075 47.3147L25.1851 51.4372V45.1895C25.1851 44.3641 24.5163 43.6953 23.691 43.6953C22.8656 43.6953 22.1968 44.3641 22.1968 45.1895C22.1968 47.3769 22.1994 55.6861 22.1968 57.7701L18.0742 53.6477C17.4905 53.0644 16.5446 53.0644 15.9611 53.6477C15.3776 54.2314 15.3776 55.1773 15.9611 55.7608L22.1968 61.9965V99.7465C22.1968 100.572 22.8656 101.241 23.691 101.241C24.5163 101.241 25.1851 100.572 25.1851 99.7465V61.3786C25.1851 61.378 25.1851 61.3772 25.1851 61.3766V55.6638L31.4206 49.4278Z" fill="url(#paint8_linear_10339_125781)"/>
<path d="M100.506 101.246H1.49414C0.668777 101.246 0 100.577 0 99.752C0 98.9266 0.668777 98.2578 1.49414 98.2578H100.506C101.331 98.2578 102 98.9266 102 99.752C102 100.577 101.331 101.246 100.506 101.246Z" fill="url(#paint9_linear_10339_125781)"/>
</g>
<defs>
<linearGradient id="paint0_linear_10339_125781" x1="74.4168" y1="45.7502" x2="108.802" y2="87.1021" gradientUnits="userSpaceOnUse">
<stop stop-color="#FFB400" stop-opacity="0"/>
<stop offset="0.446736" stop-color="#FFB400"/>
</linearGradient>
<linearGradient id="paint1_linear_10339_125781" x1="84.5807" y1="45.7502" x2="117.944" y2="70.237" gradientUnits="userSpaceOnUse">
<stop offset="0.428851" stop-color="#FFB400"/>
<stop offset="1" stop-color="#FFB400" stop-opacity="0"/>
</linearGradient>
<linearGradient id="paint2_linear_10339_125781" x1="89.5438" y1="111.547" x2="89.5438" y2="58.2373" gradientUnits="userSpaceOnUse">
<stop/>
<stop offset="1" stop-opacity="0"/>
</linearGradient>
<linearGradient id="paint3_linear_10339_125781" x1="37.5993" y1="0.706057" x2="99.2278" y2="82.5049" gradientUnits="userSpaceOnUse">
<stop stop-color="#FFB400" stop-opacity="0"/>
<stop offset="0.446736" stop-color="#FFB400"/>
</linearGradient>
<linearGradient id="paint4_linear_10339_125781" x1="61.1251" y1="0.706057" x2="122.342" y2="45.7606" gradientUnits="userSpaceOnUse">
<stop offset="0.428851" stop-color="#FFB400"/>
<stop offset="1" stop-color="#FFB400" stop-opacity="0"/>
</linearGradient>
<linearGradient id="paint5_linear_10339_125781" x1="62.9824" y1="119.109" x2="62.9824" y2="26.6204" gradientUnits="userSpaceOnUse">
<stop/>
<stop offset="1" stop-opacity="0"/>
</linearGradient>
<linearGradient id="paint6_linear_10339_125781" x1="3.14279" y1="0.696906" x2="86.1745" y2="68.1351" gradientUnits="userSpaceOnUse">
<stop stop-color="#FFB400" stop-opacity="0"/>
<stop offset="0.446736" stop-color="#FFB400"/>
</linearGradient>
<linearGradient id="paint7_linear_10339_125781" x1="21.6351" y1="0.696906" x2="86.1229" y2="30.4114" gradientUnits="userSpaceOnUse">
<stop offset="0.428851" stop-color="#FFB400"/>
<stop offset="1" stop-color="#FFB400" stop-opacity="0"/>
</linearGradient>
<linearGradient id="paint8_linear_10339_125781" x1="23.6909" y1="115.627" x2="23.6909" y2="41.1565" gradientUnits="userSpaceOnUse">
<stop/>
<stop offset="1" stop-opacity="0"/>
</linearGradient>
<linearGradient id="paint9_linear_10339_125781" x1="51" y1="105" x2="51" y2="99" gradientUnits="userSpaceOnUse">
<stop stop-opacity="0"/>
<stop offset="1"/>
</linearGradient>
<clipPath id="clip0_10339_125781">
<rect width="102" height="102" fill="white"/>
</clipPath>
</defs>
</svg>
