<svg width="102" height="102" viewBox="0 0 102 102" fill="none" xmlns="http://www.w3.org/2000/svg">
<path d="M8.92969 102C8.92969 101.932 21.4582 91.2969 51.0021 91.2969C79.6994 91.2969 93.0746 101.932 93.0746 102H8.92969Z" fill="url(#paint0_linear_10339_125760)"/>
<path d="M51.0059 91.2969C49.1732 91.2969 47.4061 91.3379 45.7031 91.4149C70.8442 92.5759 82.6115 101.936 82.6115 102H93.0783C93.0783 101.932 79.7032 91.2969 51.0059 91.2969Z" fill="url(#paint1_linear_10339_125760)"/>
<path d="M70.1007 17.2479C66.6774 27.1774 57.4531 28.8861 57.4531 28.8861C57.4531 28.8861 51.3407 21.5678 54.6749 11.8962C58.187 1.70855 67.4115 0 67.4115 0C67.4115 0 73.5685 7.18926 70.1007 17.2479Z" fill="url(#paint2_linear_10339_125760)"/>
<path d="M67.415 0C67.415 0 64.977 0.451919 62.1307 2.27478C63.6947 5.15952 65.6333 10.5711 63.3317 17.2476C61.6757 22.0511 58.6622 24.9305 55.9922 26.6234C56.7756 28.0695 57.4567 28.8857 57.4567 28.8857C57.4567 28.8857 66.6813 27.1772 70.1043 17.2474C73.5719 7.18926 67.415 0 67.415 0Z" fill="url(#paint3_linear_10339_125760)"/>
<path d="M50.5946 52.392C50.4423 52.392 50.2874 52.3692 50.1345 52.3212C49.3232 52.0673 48.8715 51.2037 49.1254 50.3924C49.5024 49.1877 58.4117 20.7662 62.7521 10.1225C63.0729 9.33545 63.971 8.95741 64.7584 9.27839C65.5457 9.59938 65.9235 10.4977 65.6024 11.2849C61.3108 21.809 52.155 51.0184 52.0628 51.3122C51.857 51.9704 51.2497 52.392 50.5946 52.392Z" fill="url(#paint4_linear_10339_125760)"/>
<path d="M50.5939 97.9314C49.7436 97.9314 49.0547 97.2422 49.0547 96.3921V50.1252C49.0547 49.2751 49.7436 48.5859 50.5939 48.5859C51.4442 48.5859 52.1332 49.2751 52.1332 50.1252V96.3921C52.1332 97.2422 51.444 97.9314 50.5939 97.9314Z" fill="url(#paint5_linear_10339_125760)"/>
<path d="M60.9103 63.9317C55.2868 64.7308 51.1468 63.5822 51.1468 63.5822C51.1468 63.5822 47.5664 49.2149 58.7554 37.9904C70.5412 26.1672 84.5649 30.0584 84.5649 30.0584C84.5649 30.0584 87.6411 41.7854 79.4893 52.6829" fill="url(#paint6_linear_10339_125760)"/>
<path d="M84.561 30.0579C84.561 30.0579 80.8007 29.0152 75.5384 29.6506C76.9596 29.8287 77.7884 30.0579 77.7884 30.0579C77.7884 30.0579 80.8646 41.7849 72.7128 52.6824L54.1338 63.9312C53.9282 63.9603 53.725 63.9862 53.5234 64.0104C55.2765 64.2265 57.8752 64.362 60.9064 63.9312L79.4854 52.6824C87.6374 41.7847 84.561 30.0579 84.561 30.0579Z" fill="url(#paint7_linear_10339_125760)"/>
<path d="M37.7323 56.3936C47.7139 64.2605 46.0107 75.5367 46.0107 75.5367C46.0107 75.5367 35.2331 79.6613 25.5109 71.9986C15.2701 63.9272 16.9733 52.6512 16.9733 52.6512C16.9733 52.6512 27.6211 48.4244 37.7323 56.3936Z" fill="url(#paint8_linear_10339_125760)"/>
<path d="M26.2842 40.1686C36.334 52.9732 50.7176 50.7713 50.7176 50.7713C50.7176 50.7713 55.9652 36.929 46.1765 24.4569C35.8656 11.3198 21.482 13.5216 21.482 13.5216C21.482 13.5216 16.1039 27.1978 26.2842 40.1686Z" fill="url(#paint9_linear_10339_125760)"/>
<path d="M50.6022 94.2455C49.752 94.2455 49.063 93.5563 49.063 92.7063C49.063 83.7637 45.7582 76.1287 39.2404 70.0134C34.3598 65.4341 29.4751 63.5006 29.4265 63.4817C28.6343 63.1733 28.2421 62.2809 28.5507 61.4889C28.859 60.6969 29.7513 60.3045 30.5435 60.6132C30.7654 60.6996 36.0365 62.786 41.3469 67.7686C46.2714 72.389 52.1417 80.4663 52.1417 92.7065C52.1415 93.5563 51.4523 94.2455 50.6022 94.2455Z" fill="url(#paint10_linear_10339_125760)"/>
<path fill-rule="evenodd" clip-rule="evenodd" d="M78.107 52.8906C82.143 52.8894 84.9182 54.2399 84.9182 54.2399C84.9182 54.2399 85.6298 63.6912 76.8939 69.7308C73.9401 71.773 71.0083 72.6336 68.4298 72.8825C63.4748 73.3638 59.8219 71.5855 59.8219 71.5855C59.8219 71.5855 59.2224 62.0569 67.6221 56.2494C71.3999 53.6375 75.1033 52.8899 78.107 52.8906Z" fill="url(#paint11_linear_10339_125760)"/>
<path d="M50.5992 94.2476C49.7823 94.2476 49.1014 93.6052 49.0628 92.7806C49.0523 92.5557 48.8356 87.195 51.5352 80.5675C54.0187 74.4705 59.5481 66.1024 71.7866 60.8591C72.5681 60.5244 73.4728 60.8864 73.8075 61.6677C74.1425 62.4493 73.7802 63.3539 72.9989 63.6889C63.9445 67.5679 57.6823 73.6377 54.3865 81.7289C51.9399 87.735 52.1359 92.5881 52.1384 92.6363C52.178 93.4856 51.5221 94.2062 50.6728 94.246C50.648 94.2472 50.6234 94.2476 50.5992 94.2476Z" fill="url(#paint12_linear_10339_125760)"/>
<path d="M50.0818 51.677C49.5211 51.677 48.9803 51.3694 48.7086 50.8352C42.8221 39.2612 32.8745 29.1693 32.7746 29.0685C32.1759 28.4652 32.1798 27.4905 32.7832 26.8919C33.3868 26.293 34.361 26.2971 34.9599 26.9005C35.3812 27.3251 45.3493 37.4397 51.4525 49.4396C51.8377 50.1973 51.5358 51.1239 50.7783 51.5094C50.5548 51.6231 50.3163 51.677 50.0818 51.677Z" fill="url(#paint13_linear_10339_125760)"/>
<path d="M51.0848 65.0499C50.7884 65.0499 50.489 64.9643 50.2249 64.7859C49.5203 64.3102 49.335 63.3534 49.8105 62.6489C50.2345 62.0209 60.3364 47.1886 72.6275 40.0373C73.3622 39.6096 74.3043 39.8587 74.732 40.5935C75.1595 41.3284 74.9103 42.2704 74.1756 42.6979C62.4874 49.4987 52.4617 64.2236 52.3619 64.3714C52.0646 64.8122 51.579 65.0499 51.0848 65.0499Z" fill="url(#paint14_linear_10339_125760)"/>
<defs>
<linearGradient id="paint0_linear_10339_125760" x1="12.0439" y1="91.2915" x2="14.3092" y2="115.512" gradientUnits="userSpaceOnUse">
<stop offset="0.428851" stop-color="#FFB400"/>
<stop offset="1" stop-color="#FFB400" stop-opacity="0"/>
</linearGradient>
<linearGradient id="paint1_linear_10339_125760" x1="47.4565" y1="91.2915" x2="51.4061" y2="115.068" gradientUnits="userSpaceOnUse">
<stop offset="0.428851" stop-color="#FFB400"/>
<stop offset="1" stop-color="#FFB400" stop-opacity="0"/>
</linearGradient>
<linearGradient id="paint2_linear_10339_125760" x1="54.3266" y1="-0.0145621" x2="86.6815" y2="26.6132" gradientUnits="userSpaceOnUse">
<stop offset="0.428851" stop-color="#FFB400"/>
<stop offset="1" stop-color="#FFB400" stop-opacity="0"/>
</linearGradient>
<linearGradient id="paint3_linear_10339_125760" x1="56.5537" y1="-0.0145619" x2="87.7419" y2="22.2629" gradientUnits="userSpaceOnUse">
<stop offset="0.428851" stop-color="#FFB400"/>
<stop offset="1" stop-color="#FFB400" stop-opacity="0"/>
</linearGradient>
<linearGradient id="paint4_linear_10339_125760" x1="50.5" y1="92" x2="16.402" y2="61.8158" gradientUnits="userSpaceOnUse">
<stop/>
<stop offset="1" stop-opacity="0"/>
</linearGradient>
<linearGradient id="paint5_linear_10339_125760" x1="51" y1="93" x2="44.1153" y2="92.2849" gradientUnits="userSpaceOnUse">
<stop/>
<stop offset="1" stop-opacity="0"/>
</linearGradient>
<linearGradient id="paint6_linear_10339_125760" x1="51.8796" y1="29.4278" x2="89.8369" y2="80.6978" gradientUnits="userSpaceOnUse">
<stop offset="0.428851" stop-color="#FFB400"/>
<stop offset="1" stop-color="#FFB400" stop-opacity="0"/>
</linearGradient>
<linearGradient id="paint7_linear_10339_125760" x1="54.6932" y1="29.4278" x2="93.5017" y2="77.4073" gradientUnits="userSpaceOnUse">
<stop offset="0.428851" stop-color="#FFB400"/>
<stop offset="1" stop-color="#FFB400" stop-opacity="0"/>
</linearGradient>
<linearGradient id="paint8_linear_10339_125760" x1="17.9499" y1="51.5186" x2="43.8279" y2="92.5137" gradientUnits="userSpaceOnUse">
<stop offset="0.428851" stop-color="#FFB400"/>
<stop offset="1" stop-color="#FFB400" stop-opacity="0"/>
</linearGradient>
<linearGradient id="paint9_linear_10339_125760" x1="21.249" y1="13.3639" x2="63.6124" y2="62.5768" gradientUnits="userSpaceOnUse">
<stop offset="0.428851" stop-color="#FFB400"/>
<stop offset="1" stop-color="#FFB400" stop-opacity="0"/>
</linearGradient>
<linearGradient id="paint10_linear_10339_125760" x1="52.1291" y1="87.939" x2="26.6356" y2="82.1816" gradientUnits="userSpaceOnUse">
<stop/>
<stop offset="1" stop-opacity="0"/>
</linearGradient>
<linearGradient id="paint11_linear_10339_125760" x1="60.7422" y1="52.8805" x2="80.759" y2="86.9447" gradientUnits="userSpaceOnUse">
<stop offset="0.428851" stop-color="#FFB400"/>
<stop offset="1" stop-color="#FFB400" stop-opacity="0"/>
</linearGradient>
<linearGradient id="paint12_linear_10339_125760" x1="51.5" y1="91" x2="46.7473" y2="67.9371" gradientUnits="userSpaceOnUse">
<stop/>
<stop offset="1" stop-opacity="0"/>
</linearGradient>
<linearGradient id="paint13_linear_10339_125760" x1="50.5" y1="64.5" x2="27.8174" y2="46.3514" gradientUnits="userSpaceOnUse">
<stop/>
<stop offset="1" stop-opacity="0"/>
</linearGradient>
<linearGradient id="paint14_linear_10339_125760" x1="50.5" y1="88.5" x2="48.4384" y2="48.1937" gradientUnits="userSpaceOnUse">
<stop/>
<stop offset="1" stop-opacity="0"/>
</linearGradient>
</defs>
</svg>
