<svg width="102" height="100" viewBox="0 0 102 100" fill="none" xmlns="http://www.w3.org/2000/svg">
<g clip-path="url(#clip0_10339_126072)">
<path d="M51.003 88.3809C71.6462 88.3809 88.3809 71.6462 88.3809 51.003C88.3809 30.3597 71.6462 13.625 51.003 13.625C30.3597 13.625 13.625 30.3597 13.625 51.003C13.625 71.6462 30.3597 88.3809 51.003 88.3809Z" fill="#B0B0B0"/>
<path d="M80.9908 73.3162C74.177 82.4575 63.2813 88.3778 51.0028 88.3778C30.3589 88.3778 13.625 71.6439 13.625 51C13.625 39.9673 18.4041 30.0519 26.0048 23.2109C21.3627 29.4387 18.6148 37.1634 18.6148 45.5272C18.6148 66.1711 35.3489 82.905 55.9927 82.905C65.6041 82.905 74.3686 79.2769 80.9908 73.3162Z" fill="#575757"/>
<path d="M51 11C28.9086 11 11 28.9086 11 51C11 73.0914 28.9086 91 51 91C73.0914 91 91 73.0914 91 51C91 28.9086 73.0914 11 51 11ZM52.1338 86.3947C31.8584 87.0278 15.2594 70.6117 15.5925 50.4025C15.9109 31.0803 31.8258 15.5073 51.1505 15.5878C58.5905 15.6188 65.4884 17.9445 71.1744 21.8934C73.0877 23.2222 72.4245 26.1764 70.1303 26.5794C70.1089 26.5831 70.0873 26.587 70.0659 26.5908C66.5222 27.2334 63.7455 29.438 62.0366 32.9666C60.9652 35.1781 60.6928 37.5459 60.4527 39.635C59.9719 43.8178 59.6541 46.5809 54.1041 47.9961C53.613 48.1214 53.133 48.193 52.6725 48.2242C52.6725 48.2242 51.4241 48.5484 51 48.5103C49.4311 48.3692 48.5873 47.5456 48.2814 47.3967L46.1105 46.34L43.997 50.6819L46.1678 51.7388C46.9377 52.1133 51.3891 52.4305 51.3891 52.4305L52.6291 53.0617C53.4758 53.0286 54.3716 52.9116 55.2973 52.6755C59.1695 51.6881 61.8048 49.93 63.3541 47.3005C64.6936 45.0269 64.9766 42.5662 65.2502 40.1867C65.4655 38.3139 65.6689 36.545 66.3825 35.0719C67.3363 33.1028 68.6538 31.9022 70.4238 31.4541C71.8656 31.0891 73.3519 31.1372 74.7705 31.4147C79.5741 32.3544 83.4338 35.9448 84.8667 40.625C85.8741 43.915 86.4155 47.4086 86.4125 51.0292C86.3973 69.7505 70.8459 85.8105 52.1338 86.3947Z" fill="#F5F5F5"/>
<path d="M50.9839 50.4895C51.5753 51.2975 52.1253 52.158 52.6327 53.0655C52.4572 53.0719 52.285 53.0753 52.1159 53.0753C49.1992 53.0753 46.9409 52.1175 46.1714 51.7425L44 50.685L46.1134 46.3438L48.2848 47.4013C48.6728 47.5895 50.4467 48.3783 52.6761 48.227C52.5006 48.4702 52.3139 48.7067 52.1175 48.9369C51.7766 49.3386 51.413 49.7131 51.0295 50.0594C50.9058 50.1709 50.8855 50.3552 50.9839 50.4895Z" fill="#D9D9D9"/>
<path d="M37.9456 35.8513C39.0025 34.7944 39.6653 34.0791 41.0068 33.3576C43.9759 32.5452 47.3079 33.4102 49.504 35.9527C52.16 39.0276 52.1747 43.6474 49.5395 46.7401C48.6459 47.7888 47.5601 48.5541 46.3856 49.0394C45.9573 49.2163 45.8529 49.7712 46.185 50.0944C47.4906 51.3657 48.7201 52.9719 49.747 54.8346C50.644 56.4616 51.2923 58.1148 51.694 59.6951C51.7808 60.0362 52.1865 60.1771 52.4625 59.9587L54.9139 58.0174C56.5723 56.7041 58.8722 56.5599 60.6815 57.6558L65.9214 60.8293C67.0058 61.486 67.4043 62.8654 66.8375 63.9993C66.2714 65.1315 64.932 65.6407 63.7568 65.1705L59.6604 63.5319C59.0604 63.2919 58.3754 63.4257 57.9098 63.8738L55.9078 65.801L54.4665 66.6205C52.1572 68.8427 48.7101 68.5874 45.9222 67.0068C43.1031 65.4087 40.4961 63.6333 38.3548 60.9393C34.9003 56.5929 35.6217 52.4494 36.6278 49.7043C37.1636 48.2426 37.0309 46.6352 36.3068 45.2571C34.6595 42.1232 35.3104 38.4863 37.9456 35.8513Z" fill="#F5F5F5"/>
<path d="M55.9124 65.8027L54.7615 66.9102C52.4517 69.1316 48.9571 69.5758 46.1692 67.9952C43.349 66.3983 39.9574 64.1111 37.8167 61.4164C34.3623 57.0703 35.172 52.4233 36.1781 49.6788C36.714 48.2172 36.5804 46.6091 35.8562 45.2313C34.2095 42.0972 34.7037 38.1311 37.3387 35.4961C38.3962 34.4402 39.6678 33.7264 41.0118 33.3594C38.9773 35.9573 38.707 39.4897 40.2023 42.3339C40.9267 43.7117 41.0603 45.3198 40.5242 46.7814C39.5181 49.5258 38.7085 54.173 42.1628 58.5191C44.3035 61.2136 47.6951 63.5009 50.5153 65.0978C52.1957 66.0506 54.1337 66.268 55.9124 65.8027Z" fill="#D9D9D9"/>
<path d="M79.8092 46.0866C79.8092 46.5742 79.7369 47.045 79.6025 47.4889C78.5602 49.408 77.1489 50.5139 74.9697 50.5139C72.3027 50.5139 70.5156 48.7536 70.5156 46.0867C70.5156 44.3997 71.2955 43.1058 72.6063 42.2422C72.9791 41.9966 73.5442 41.4748 73.5442 41.4748C73.9978 41.3337 74.4802 41.2578 74.9802 41.2578C77.6473 41.2577 79.8092 43.4197 79.8092 46.0866Z" fill="#575757"/>
<path d="M79.6073 47.4828C79.0069 49.4659 77.1645 50.9095 74.9852 50.9095C72.318 50.9095 70.1562 48.7478 70.1562 46.0806C70.1562 43.9011 71.5661 42.0692 73.5492 41.4688C73.4141 41.913 73.3756 42.3736 73.3756 42.8613C73.3756 45.5284 75.5373 47.6902 78.2045 47.6902C78.6922 47.6902 79.1631 47.618 79.6073 47.4828Z" fill="#A3A3A3"/>
<path d="M30.7155 48.6647C30.7155 49.1523 30.6431 49.6231 30.5087 50.067C29.4664 51.9861 28.0552 53.092 25.8759 53.092C23.2089 53.092 21.4219 51.3317 21.4219 48.6648C21.4219 46.9778 22.2017 45.6839 23.5125 44.8203C23.8853 44.5747 24.4505 44.053 24.4505 44.053C24.9041 43.9119 25.3864 43.8359 25.8864 43.8359C28.5534 43.8358 30.7155 45.9978 30.7155 48.6647Z" fill="#575757"/>
<path d="M30.5136 50.0609C29.9131 52.0441 28.0708 53.4877 25.8914 53.4877C23.2242 53.4877 21.0625 51.3259 21.0625 48.6588C21.0625 46.4792 22.4723 44.6473 24.4555 44.0469C24.3203 44.4911 24.2819 44.9517 24.2819 45.4394C24.2819 48.1066 26.4436 50.2683 29.1108 50.2683C29.5984 50.2683 30.0694 50.1961 30.5136 50.0609Z" fill="#A3A3A3"/>
<path d="M57.1206 25.317C57.1206 25.7641 57.0544 26.1956 56.9311 26.6025C55.9756 28.3616 54.682 29.3755 52.6844 29.3755C50.2397 29.3755 48.6016 27.7619 48.6016 25.3172C48.6016 23.7708 49.3164 22.5847 50.518 21.7931C50.8597 21.568 51.3778 21.0897 51.3778 21.0897C51.7936 20.9603 52.2358 20.8906 52.6941 20.8906C55.1387 20.8905 57.1206 22.8723 57.1206 25.317Z" fill="#575757"/>
<path d="M56.9292 26.5989C56.3789 28.4167 54.69 29.74 52.6922 29.74C50.2472 29.74 48.2656 27.7584 48.2656 25.3134C48.2656 23.3156 49.558 21.6362 51.3759 21.0859C51.252 21.4931 51.2167 21.9153 51.2167 22.3625C51.2167 24.8075 53.1983 26.7891 55.6433 26.7891C56.0903 26.7889 56.522 26.7228 56.9292 26.5989Z" fill="#A3A3A3"/>
<path d="M63.8741 74.5809C63.8741 74.9142 63.8247 75.2359 63.7328 75.5392C63.0205 76.8506 62.0563 77.6063 60.567 77.6063C58.7445 77.6063 57.5234 76.4034 57.5234 74.5809C57.5234 73.4281 58.0564 72.5439 58.952 71.9539C59.2069 71.7861 59.593 71.4295 59.593 71.4295C59.903 71.3331 60.2325 71.2813 60.5742 71.2813C62.3967 71.2811 63.8741 72.7584 63.8741 74.5809Z" fill="#575757"/>
<path d="M63.7319 75.5394C63.3216 76.8945 62.0627 77.8809 60.5733 77.8809C58.7506 77.8809 57.2734 76.4037 57.2734 74.5811C57.2734 73.0917 58.2369 71.8398 59.592 71.4297C59.4997 71.7333 59.4733 72.048 59.4733 72.3812C59.4733 74.2039 60.9505 75.6811 62.7731 75.6811C63.1066 75.6811 63.4283 75.6319 63.7319 75.5394Z" fill="#A3A3A3"/>
<path d="M75.063 62.5087C76.3965 62.5087 77.4775 61.4277 77.4775 60.0942C77.4775 58.7607 76.3965 57.6797 75.063 57.6797C73.7295 57.6797 72.6484 58.7607 72.6484 60.0942C72.6484 61.4277 73.7295 62.5087 75.063 62.5087Z" fill="#575757"/>
<path d="M38.0395 76.1884C39.373 76.1884 40.4541 75.1074 40.4541 73.7739C40.4541 72.4404 39.373 71.3594 38.0395 71.3594C36.706 71.3594 35.625 72.4404 35.625 73.7739C35.625 75.1074 36.706 76.1884 38.0395 76.1884Z" fill="#575757"/>
<path d="M24.3642 60.6644C23.6975 60.6644 23.1562 60.1239 23.1562 59.4572C23.1562 58.7905 23.6961 58.25 24.3627 58.25H24.3642C25.0311 58.25 25.5714 58.7905 25.5714 59.4572C25.5714 60.1239 25.0311 60.6644 24.3642 60.6644Z" fill="#575757"/>
<path d="M29.1923 60.6644C28.5256 60.6644 27.9844 60.1239 27.9844 59.4572C27.9844 58.7905 28.5242 58.25 29.1908 58.25H29.1923C29.8592 58.25 30.3995 58.7905 30.3995 59.4572C30.3995 60.1239 29.8591 60.6644 29.1923 60.6644Z" fill="#575757"/>
<path d="M26.7783 64.6956C26.1116 64.6956 25.5703 64.1552 25.5703 63.4884C25.5703 62.8216 26.1102 62.2812 26.7767 62.2812H26.7783C27.4452 62.2812 27.9855 62.8217 27.9855 63.4884C27.9855 64.1553 27.445 64.6956 26.7783 64.6956Z" fill="#575757"/>
<path d="M39.083 25.8831C38.4163 25.8831 37.875 25.3427 37.875 24.6759C37.875 24.0091 38.4148 23.4688 39.0814 23.4688H39.083C39.7498 23.4688 40.2902 24.0092 40.2902 24.6759C40.2902 25.3428 39.7497 25.8831 39.083 25.8831Z" fill="#575757"/>
<path d="M43.2705 23.4691C42.6038 23.4691 42.0625 22.9286 42.0625 22.2619C42.0625 21.595 42.6023 21.0547 43.2689 21.0547H43.2705C43.9373 21.0547 44.4777 21.5952 44.4777 22.2619C44.4778 22.9286 43.9373 23.4691 43.2705 23.4691Z" fill="#575757"/>
<path d="M43.1923 28.1644C42.5256 28.1644 41.9844 27.6239 41.9844 26.9572C41.9844 26.2903 42.5242 25.75 43.1908 25.75H43.1923C43.8592 25.75 44.3995 26.2905 44.3995 26.9572C44.3997 27.6239 43.8592 28.1644 43.1923 28.1644Z" fill="#575757"/>
<path d="M70.0517 73.3597C69.385 73.3597 68.8438 72.8192 68.8438 72.1525C68.8438 71.4858 69.3836 70.9453 70.0502 70.9453H70.0517C70.7186 70.9453 71.2589 71.4858 71.2589 72.1525C71.2589 72.8192 70.7184 73.3597 70.0517 73.3597Z" fill="#575757"/>
<path d="M73.1533 69.6644C72.4866 69.6644 71.9453 69.1239 71.9453 68.4572C71.9453 67.7905 72.4852 67.25 73.1517 67.25H73.1533C73.8202 67.25 74.3605 67.7905 74.3605 68.4572C74.3605 69.1239 73.82 69.6644 73.1533 69.6644Z" fill="#575757"/>
</g>
<defs>
<clipPath id="clip0_10339_126072">
<rect width="80" height="80" fill="white" transform="translate(11 11)"/>
</clipPath>
</defs>
</svg>
