<svg width="102" height="102" viewBox="0 0 102 102" fill="none" xmlns="http://www.w3.org/2000/svg">
<path d="M50.9988 98.9507C74.9966 98.9507 94.4507 79.4966 94.4507 55.4988C94.4507 31.5009 74.9966 12.0469 50.9988 12.0469C27.0009 12.0469 7.54688 31.5009 7.54688 55.4988C7.54688 79.4966 27.0009 98.9507 50.9988 98.9507Z" fill="#E6A200"/>
<path d="M85.8596 81.4427C77.9386 92.0694 65.2723 98.9518 50.9986 98.9518C27 98.9518 7.54688 79.4986 7.54688 55.5001C7.54688 42.6746 13.1025 31.1479 21.9384 23.1953C16.5419 30.4351 13.3476 39.4151 13.3476 49.138C13.3476 73.1365 32.8009 92.5897 56.7993 92.5897C67.9725 92.5897 78.1613 88.372 85.8596 81.4427Z" fill="#CC9000"/>
<path d="M51 9C25.3187 9 4.5 29.8187 4.5 55.5C4.5 81.1813 25.3187 102 51 102C76.6813 102 97.5 81.1813 97.5 55.5C97.5 29.8187 76.6813 9 51 9ZM52.318 96.6463C28.7479 97.3823 9.45152 78.2986 9.83878 54.8054C10.209 32.3434 28.71 14.2398 51.1749 14.3333C59.8239 14.3693 67.8428 17.073 74.4527 21.6636C76.6769 23.2083 75.906 26.6426 73.239 27.111C73.2141 27.1154 73.189 27.1199 73.1642 27.1243C69.0445 27.8714 65.8166 30.4341 63.83 34.5361C62.5845 37.1071 62.2679 39.8597 61.9887 42.2882C61.4298 47.1507 61.0603 50.3628 54.6085 52.008C54.0376 52.1536 53.4796 52.2368 52.9443 52.2732C52.9443 52.2732 51.493 52.6501 51 52.6057C49.1761 52.4417 48.1953 51.4843 47.8396 51.3112L45.3159 50.0827L42.859 55.1302L45.3826 56.3588C46.2775 56.7942 51.4523 57.1629 51.4523 57.1629L52.8938 57.8967C53.8781 57.8582 54.9194 57.7222 55.9957 57.4477C60.4971 56.2999 63.5606 54.2561 65.3616 51.1993C66.9188 48.5562 67.2478 45.6958 67.5658 42.9296C67.8161 40.7524 68.0526 38.6961 68.8822 36.9836C69.9909 34.6945 71.5225 33.2988 73.5801 32.7778C75.2563 32.3535 76.9841 32.4095 78.6332 32.7321C84.2173 33.8245 88.7042 37.9984 90.3701 43.4391C91.5411 47.2637 92.1705 51.325 92.167 55.534C92.1494 77.2974 74.0709 95.9672 52.318 96.6463Z" fill="#FFE8B0"/>
<path d="M50.9782 54.9054C51.6657 55.8447 52.305 56.845 52.8948 57.8999C52.6909 57.9074 52.4907 57.9114 52.2941 57.9114C48.9035 57.9114 46.2782 56.7979 45.3836 56.362L42.8594 55.1326L45.3162 50.0859L47.8405 51.3153C48.2915 51.5342 50.3537 52.4511 52.9453 52.2753C52.7414 52.5579 52.5243 52.8329 52.296 53.1004C51.8996 53.5674 51.4769 54.0028 51.0312 54.4054C50.8873 54.535 50.8637 54.7492 50.9782 54.9054Z" fill="#FFE8B0"/>
<path d="M35.827 37.8904C37.0556 36.6618 37.8261 35.8303 39.3857 34.9914C42.8372 34.0471 46.7107 35.0527 49.2637 38.0083C52.3512 41.5828 52.3683 46.9534 49.3049 50.5486C48.2661 51.7678 47.0039 52.6575 45.6385 53.2216C45.1406 53.4272 45.0193 54.0723 45.4053 54.4481C46.923 55.9259 48.3524 57.7932 49.5461 59.9585C50.5889 61.8499 51.3425 63.7717 51.8095 65.6088C51.9104 66.0053 52.3821 66.1692 52.7029 65.9152L55.5526 63.6585C57.4805 62.1318 60.1541 61.9642 62.2575 63.2382L68.3488 66.9273C69.6094 67.6908 70.0728 69.2943 69.4138 70.6124C68.7557 71.9286 67.1987 72.5206 65.8326 71.974L61.0705 70.0692C60.373 69.7902 59.5767 69.9456 59.0354 70.4666L56.708 72.7069L55.0326 73.6596C52.3479 76.2429 48.3408 75.9461 45.0997 74.1087C41.8226 72.2508 38.7919 70.187 36.3027 67.0552C32.2868 62.0025 33.1254 57.1858 34.295 53.9945C34.9179 52.2953 34.7637 50.4267 33.9219 48.8247C32.0069 45.1815 32.7636 40.9536 35.827 37.8904Z" fill="#FFE8B0"/>
<path d="M56.7088 72.7075L55.3708 73.995C52.6856 76.5774 48.6232 77.0938 45.3822 75.2563C42.1038 73.3999 38.1611 70.7411 35.6724 67.6085C31.6567 62.5562 32.598 57.154 33.7676 53.9635C34.3906 52.2644 34.2353 50.3949 33.3934 48.7932C31.4791 45.1499 32.0536 40.5393 35.1168 37.4761C36.3461 36.2486 37.8243 35.4189 39.3868 34.9922C37.0217 38.0123 36.7074 42.1187 38.4457 45.4251C39.2878 47.0268 39.4431 48.8962 38.8199 50.5953C37.6503 53.7856 36.7092 59.188 40.7248 64.2403C43.2134 67.3727 47.1561 70.0318 50.4345 71.8881C52.3881 72.9958 54.641 73.2484 56.7088 72.7075Z" fill="#FFB400"/>
<path d="M84.4913 49.7931C84.4913 50.36 84.4072 50.9073 84.251 51.4233C83.0393 53.6542 81.3987 54.9399 78.8653 54.9399C75.7649 54.9399 73.6875 52.8935 73.6875 49.7933C73.6875 47.8321 74.5941 46.328 76.1179 45.324C76.5512 45.0385 77.2082 44.432 77.2082 44.432C77.7355 44.268 78.2963 44.1797 78.8775 44.1797C81.9781 44.1795 84.4913 46.6929 84.4913 49.7931Z" fill="#CC9000"/>
<path d="M84.2525 51.421C83.5545 53.7264 81.4128 55.4046 78.8792 55.4046C75.7786 55.4046 73.2656 52.8916 73.2656 49.791C73.2656 47.2573 74.9046 45.1277 77.21 44.4297C77.0528 44.9461 77.0081 45.4816 77.0081 46.0485C77.0081 49.1491 79.5211 51.6621 82.6218 51.6621C83.1887 51.6621 83.7361 51.5782 84.2525 51.421Z" fill="#E6A200"/>
<path d="M27.421 52.7853C27.421 53.3522 27.3369 53.8995 27.1807 54.4155C25.969 56.6464 24.3284 57.9321 21.795 57.9321C18.6946 57.9321 16.6172 55.8857 16.6172 52.7855C16.6172 50.8243 17.5238 49.3201 19.0475 48.3162C19.4809 48.0307 20.1379 47.4242 20.1379 47.4242C20.6652 47.2602 21.226 47.1719 21.8072 47.1719C24.9076 47.1717 27.421 49.6851 27.421 52.7853Z" fill="#CC9000"/>
<path d="M27.1822 54.4132C26.4842 56.7186 24.3424 58.3968 21.8089 58.3968C18.7083 58.3968 16.1953 55.8838 16.1953 52.7832C16.1953 50.2495 17.8343 48.1199 20.1396 47.4219C19.9825 47.9383 19.9378 48.4738 19.9378 49.0407C19.9378 52.1413 22.4508 54.6543 25.5514 54.6543C26.1183 54.6543 26.6658 54.5703 27.1822 54.4132Z" fill="#E6A200"/>
<path d="M58.1222 25.6535C58.1222 26.1732 58.0451 26.6749 57.9018 27.1479C56.7911 29.1928 55.2873 30.3714 52.965 30.3714C50.1231 30.3714 48.2188 28.4956 48.2188 25.6537C48.2188 23.856 49.0498 22.4772 50.4466 21.557C50.8438 21.2952 51.4461 20.7392 51.4461 20.7392C51.9295 20.5888 52.4435 20.5078 52.9763 20.5078C55.8182 20.5076 58.1222 22.8116 58.1222 25.6535Z" fill="#CC9000"/>
<path d="M57.8996 27.1432C57.2598 29.2564 55.2965 30.7947 52.974 30.7947C50.1317 30.7947 47.8281 28.4912 47.8281 25.6488C47.8281 23.3264 49.3305 21.3741 51.4439 20.7344C51.2998 21.2077 51.2588 21.6985 51.2588 22.2184C51.2588 25.0607 53.5623 27.3643 56.4047 27.3643C56.9243 27.3641 57.4262 27.2872 57.8996 27.1432Z" fill="#E6A200"/>
<path d="M65.9607 82.914C65.9607 83.3015 65.9033 83.6755 65.7965 84.028C64.9684 85.5525 63.8475 86.4309 62.1163 86.4309C59.9976 86.4309 58.5781 85.0327 58.5781 82.914C58.5781 81.5739 59.1977 80.546 60.2389 79.8601C60.5351 79.665 60.984 79.2505 60.984 79.2505C61.3443 79.1384 61.7274 79.0781 62.1247 79.0781C64.2433 79.0779 65.9607 80.7954 65.9607 82.914Z" fill="#CC9000"/>
<path d="M65.797 84.0275C65.32 85.6029 63.8565 86.7496 62.1251 86.7496C60.0063 86.7496 58.2891 85.0323 58.2891 82.9135C58.2891 81.1821 59.4091 79.7268 60.9844 79.25C60.8771 79.6029 60.8464 79.9688 60.8464 80.3562C60.8464 82.475 62.5636 84.1923 64.6824 84.1923C65.0701 84.1923 65.4441 84.135 65.797 84.0275Z" fill="#E6A200"/>
<path d="M78.971 68.8794C80.5212 68.8794 81.7778 67.6227 81.7778 66.0725C81.7778 64.5223 80.5212 63.2656 78.971 63.2656C77.4208 63.2656 76.1641 64.5223 76.1641 66.0725C76.1641 67.6227 77.4208 68.8794 78.971 68.8794Z" fill="#CC9000"/>
<path d="M35.9319 84.7857C37.4821 84.7857 38.7388 83.529 38.7388 81.9788C38.7388 80.4286 37.4821 79.1719 35.9319 79.1719C34.3817 79.1719 33.125 80.4286 33.125 81.9788C33.125 83.529 34.3817 84.7857 35.9319 84.7857Z" fill="#CC9000"/>
<path d="M20.0293 66.7286C19.2542 66.7286 18.625 66.1003 18.625 65.3252C18.625 64.5502 19.2526 63.9219 20.0274 63.9219H20.0293C20.8045 63.9219 21.4326 64.5502 21.4326 65.3252C21.4326 66.1003 20.8045 66.7286 20.0293 66.7286Z" fill="#CC9000"/>
<path d="M25.6465 66.7286C24.8714 66.7286 24.2422 66.1003 24.2422 65.3252C24.2422 64.5502 24.8698 63.9219 25.6446 63.9219H25.6465C26.4217 63.9219 27.0498 64.5502 27.0498 65.3252C27.0498 66.1003 26.4215 66.7286 25.6465 66.7286Z" fill="#CC9000"/>
<path d="M22.834 71.4083C22.0589 71.4083 21.4297 70.78 21.4297 70.0049C21.4297 69.2297 22.0573 68.6016 22.8321 68.6016H22.834C23.6092 68.6016 24.2373 69.2299 24.2373 70.0049C24.2373 70.7802 23.609 71.4083 22.834 71.4083Z" fill="#CC9000"/>
<path d="M37.1543 26.2911C36.3792 26.2911 35.75 25.6628 35.75 24.8877C35.75 24.1125 36.3776 23.4844 37.1524 23.4844H37.1543C37.9295 23.4844 38.5576 24.1127 38.5576 24.8877C38.5576 25.663 37.9293 26.2911 37.1543 26.2911Z" fill="#CC9000"/>
<path d="M42.0136 23.4942C41.2386 23.4942 40.6094 22.8659 40.6094 22.0909C40.6094 21.3156 41.2369 20.6875 42.0118 20.6875H42.0136C42.7889 20.6875 43.417 21.3158 43.417 22.0909C43.4172 22.8659 42.7889 23.4942 42.0136 23.4942Z" fill="#CC9000"/>
<path d="M41.9277 28.9473C41.1526 28.9473 40.5234 28.319 40.5234 27.544C40.5234 26.7687 41.151 26.1406 41.9259 26.1406H41.9277C42.7029 26.1406 43.3311 26.7689 43.3311 27.544C43.3312 28.319 42.7029 28.9473 41.9277 28.9473Z" fill="#CC9000"/>
<path d="M73.1464 81.4864C72.3714 81.4864 71.7422 80.8581 71.7422 80.083C71.7422 79.308 72.3698 78.6797 73.1446 78.6797H73.1464C73.9217 78.6797 74.5498 79.308 74.5498 80.083C74.5498 80.8581 73.9215 81.4864 73.1464 81.4864Z" fill="#CC9000"/>
<path d="M76.7636 77.1895C75.9886 77.1895 75.3594 76.5612 75.3594 75.7862C75.3594 75.0111 75.9869 74.3828 76.7618 74.3828H76.7636C77.5389 74.3828 78.167 75.0111 78.167 75.7862C78.167 76.5612 77.5387 77.1895 76.7636 77.1895Z" fill="#CC9000"/>
<rect x="8.63641" y="0.636412" width="25.9336" height="26.7206" rx="4.45488" fill="#E6F7F3"/>
<path fill-rule="evenodd" clip-rule="evenodd" d="M28.6706 9.08207C28.8998 9.31129 28.8998 9.68293 28.6706 9.91215L19.6706 18.9121C19.5589 19.0238 19.4069 19.0858 19.249 19.084C19.0911 19.0822 18.9406 19.0169 18.8314 18.9028L14.5271 14.4028C14.303 14.1686 14.3112 13.797 14.5455 13.5729C14.7798 13.3489 15.1513 13.3571 15.3754 13.5914L19.2649 17.6577L27.8405 9.08207C28.0697 8.85285 28.4413 8.85285 28.6706 9.08207Z" fill="#00AB82"/>
<rect x="8.63641" y="0.636412" width="25.9336" height="26.7206" rx="4.45488" stroke="#B0E5D8" stroke-width="1.27282"/>
<rect x="37.9098" y="0.636412" width="25.9336" height="26.7206" rx="4.45488" fill="#E6F7F3"/>
<path fill-rule="evenodd" clip-rule="evenodd" d="M57.944 9.08207C58.1732 9.31129 58.1732 9.68293 57.944 9.91215L48.944 18.9121C48.8324 19.0238 48.6804 19.0858 48.5225 19.084C48.3645 19.0822 48.214 19.0169 48.1048 18.9028L43.8005 14.4028C43.5764 14.1686 43.5847 13.797 43.8189 13.5729C44.0532 13.3489 44.4247 13.3571 44.6488 13.5914L48.5383 17.6577L57.1139 9.08207C57.3431 8.85285 57.7148 8.85285 57.944 9.08207Z" fill="#00AB82"/>
<rect x="37.9098" y="0.636412" width="25.9336" height="26.7206" rx="4.45488" stroke="#B0E5D8" stroke-width="1.27282"/>
<rect x="67.1833" y="0.636412" width="25.9336" height="26.7206" rx="4.45488" fill="#E6F7F3"/>
<path fill-rule="evenodd" clip-rule="evenodd" d="M87.2169 9.08207C87.4462 9.31129 87.4462 9.68293 87.2169 9.91215L78.217 18.9121C78.1053 19.0238 77.9533 19.0858 77.7954 19.084C77.6375 19.0822 77.4869 19.0169 77.3778 18.9028L73.0734 14.4028C72.8494 14.1686 72.8576 13.797 73.0919 13.5729C73.3261 13.3489 73.6977 13.3571 73.9218 13.5914L77.8113 17.6577L86.3869 9.08207C86.6161 8.85285 86.9877 8.85285 87.2169 9.08207Z" fill="#00AB82"/>
<rect x="67.1833" y="0.636412" width="25.9336" height="26.7206" rx="4.45488" stroke="#B0E5D8" stroke-width="1.27282"/>
</svg>
