<svg width="102" height="102" viewBox="0 0 102 102" fill="none" xmlns="http://www.w3.org/2000/svg">
<path d="M95.6253 57.3672V63.7581H89.2344V57.3672H89.2503H95.6253Z" fill="#D9D9D9"/>
<path d="M95.625 63.7578V82.8828H6.375V63.7578H28.6716H89.2341H95.625Z" fill="#FFE8B0"/>
<path d="M23.8903 54.1956V57.3672H6.375V47.8206H17.5153V47.8047C21.0375 47.8047 23.8903 50.6575 23.8903 54.1956Z" fill="#B0B0B0"/>
<path d="M28.6716 57.3672V63.7581H6.375V57.3672H23.8903H28.6716Z" fill="#D9D9D9"/>
<path d="M89.2344 62.1644V65.3519V71.7269C89.2344 72.6034 88.5172 73.3206 87.6406 73.3206H30.2656C29.3891 73.3206 28.6719 72.6034 28.6719 71.7269V65.3519C28.6719 64.4753 28.6719 63.0409 28.6719 62.1644V57.3672C28.6719 56.4906 29.3891 55.7734 30.2656 55.7734H87.6406C88.5172 55.7734 89.2344 56.4906 89.2344 57.3672V62.1644Z" fill="#E6A200"/>
<path d="M33.4688 55.7734H84.4688V68.5234H33.4688V55.7734Z" fill="#CC9000"/>
<path d="M55.7812 9.57031C64.5947 9.57031 71.7188 16.6944 71.7188 25.5078C71.7188 34.3069 64.5947 41.4453 55.7812 41.4453C46.9837 41.4453 39.8438 34.3069 39.8438 25.5078C39.8438 16.6944 46.9837 9.57031 55.7812 9.57031Z" fill="#FFE8B0"/>
<path d="M98.8125 49.4141C99.6891 49.4141 100.406 50.1313 100.406 51.0078V90.8356C100.406 91.7122 99.6891 92.4294 98.8125 92.4294H97.2188C96.3422 92.4294 95.625 91.7122 95.625 90.8356V84.4766C95.625 83.6 95.625 82.1656 95.625 81.2891V65.3516C95.625 64.475 95.625 63.0406 95.625 62.1641V58.9606C95.625 58.0841 95.625 56.6497 95.625 55.7731V51.0078C95.625 50.1313 96.3422 49.4141 97.2188 49.4141H98.8125Z" fill="#FFE8B0"/>
<path d="M6.375 46.2272V49.4147V55.7738V58.9613V62.1647V65.3522V81.2897V84.4772V90.8363C6.375 91.7128 5.65781 92.43 4.78125 92.43H3.1875C2.31094 92.43 1.59375 91.7128 1.59375 90.8363V28.6641C1.59375 27.7875 2.31094 27.0703 3.1875 27.0703H4.78125C5.65781 27.0703 6.375 27.7875 6.375 28.6641V46.2272Z" fill="#FFE8B0"/>
<path d="M55.7734 33.4688C54.8921 33.4688 54.1797 32.7563 54.1797 31.875V19.125C54.1797 18.2437 54.8921 17.5312 55.7734 17.5312C56.6548 17.5312 57.3672 18.2437 57.3672 19.125V31.875C57.3672 32.7563 56.6548 33.4688 55.7734 33.4688Z" fill="#FFB400"/>
<path d="M62.1484 27.0938H49.3984C48.5171 27.0938 47.8047 26.3813 47.8047 25.5C47.8047 24.6187 48.5171 23.9062 49.3984 23.9062H62.1484C63.0298 23.9062 63.7422 24.6187 63.7422 25.5C63.7422 26.3813 63.0298 27.0938 62.1484 27.0938Z" fill="#FFB400"/>
</svg>
