<svg width="102" height="102" viewBox="0 0 102 102" fill="none" xmlns="http://www.w3.org/2000/svg">
<g clip-path="url(#clip0_10394_27922)">
<path d="M21.9006 15.0823L15.3125 3.66503H2.125V0.796875H16.9692L24.3849 13.6487L21.9006 15.0823Z" fill="#BF8700"/>
<path fill-rule="evenodd" clip-rule="evenodd" d="M98.0122 44.375C100.201 44.375 101.995 46.169 101.995 48.3638V63.6161H94.0234V48.3638C94.0234 46.169 95.8176 44.375 98.0122 44.375Z" fill="#FFE8B0"/>
<path fill-rule="evenodd" clip-rule="evenodd" d="M102.005 63.6172V67.6059C102.005 69.8005 100.211 71.5947 98.0223 71.5947H10.0903C7.89573 71.5947 6.10156 69.8007 6.10156 67.6059V63.6172H102.005Z" fill="#FFE8B0"/>
<path d="M95.4616 71.5938V90.8929H92.5932V79.5944H15.5012V90.8929H12.6328V71.5938H15.5012V76.7262H92.5932V71.5938H95.4616Z" fill="#FFE8B0"/>
<path fill-rule="evenodd" clip-rule="evenodd" d="M1.48639 50.7401L14.3583 63.612H94.0283V58.7755C94.0283 56.1164 91.851 53.9391 89.1919 53.9391H18.3646L8.32597 43.9005C3.80311 39.3718 -3.04225 46.217 1.48639 50.7401Z" fill="#D9D9D9"/>
<path fill-rule="evenodd" clip-rule="evenodd" d="M16.0301 43.9062L23.3689 50.9257C24.2339 51.756 24.7449 52.8243 24.8843 53.9391H18.3641L8.67969 44.2489L8.84803 44.069C10.7814 42.0541 14.0096 41.9786 16.0301 43.9062Z" fill="#A3A3A3"/>
<path fill-rule="evenodd" clip-rule="evenodd" d="M53.7344 12.0547H102V37.3224H53.7344V12.0547Z" fill="#FFB400"/>
<path d="M62.6167 34.1026C62.0049 34.1026 61.4543 33.712 61.2575 33.1233L59.2334 27.0698L59.089 27.3828C58.8543 27.8904 58.3463 28.2153 57.7871 28.2153H53.7344V25.3472H56.8699L58.1455 22.5858C58.3921 22.0521 58.9408 21.7244 59.5265 21.7552C60.1134 21.7877 60.6212 22.1748 60.8076 22.7324L62.1231 26.6668L63.7447 16.505C63.8519 15.8327 64.4171 15.3286 65.097 15.2984C65.7807 15.2675 66.3848 15.7201 66.5513 16.3799L68.815 25.3472H74.542L75.8128 22.5876C76.0588 22.0533 76.6103 21.7258 77.193 21.7554C77.7803 21.7873 78.2885 22.1742 78.4752 22.732L79.7942 26.6694L81.4124 16.5056C81.5194 15.8333 82.0844 15.3288 82.7645 15.2984C83.4463 15.2675 84.0525 15.7201 84.219 16.3799L86.483 25.3472H89.8422V28.2153H85.3659C84.7091 28.2153 84.1362 27.7691 83.9756 27.1324L83.1472 23.8514L81.7075 32.894C81.6037 33.5462 81.0678 34.0433 80.4098 34.0976C79.7569 34.1526 79.1413 33.7504 78.9316 33.1239L76.9049 27.0736L76.7633 27.381C76.5292 27.8896 76.0206 28.2153 75.4608 28.2153H67.698C67.0412 28.2153 66.4682 27.7691 66.3075 27.1324L65.4779 23.8458L64.034 32.8948C63.93 33.547 63.3939 34.0437 62.7357 34.098C62.6956 34.101 62.6562 34.1026 62.6167 34.1026Z" fill="#FFF8E6"/>
<path fill-rule="evenodd" clip-rule="evenodd" d="M89.8438 12.0547H102.001V37.3224H89.8438V12.0547Z" fill="#BF8700"/>
<path fill-rule="evenodd" clip-rule="evenodd" d="M38.9699 16.5526C36.6474 17.8938 35.8464 20.8723 37.1933 23.1948C38.5344 25.523 41.5072 26.3183 43.8354 24.9772C46.1637 23.636 46.959 20.6575 45.6178 18.3292C44.2709 16.007 41.2982 15.2057 38.9699 16.5526Z" fill="#FFE8B0"/>
<path fill-rule="evenodd" clip-rule="evenodd" d="M28.048 22.8625C25.7256 24.2036 24.9245 27.1821 26.2714 29.5046C27.6126 31.8329 30.5853 32.6282 32.9136 31.287C35.2418 29.9459 36.0371 26.9674 34.696 24.6449C33.3491 22.3166 30.3763 21.5211 28.048 22.8625Z" fill="#FFE8B0"/>
<path fill-rule="evenodd" clip-rule="evenodd" d="M17.1118 29.1671C14.7835 30.514 13.9883 33.4867 15.3352 35.815C16.6763 38.1375 19.6491 38.9386 21.9773 37.5916C24.3056 36.2505 25.1009 33.2778 23.7597 30.9495C22.4128 28.6212 19.4401 27.8259 17.1118 29.1671Z" fill="#FFE8B0"/>
<path fill-rule="evenodd" clip-rule="evenodd" d="M43.7644 10.1352L9.16644 30.1136C7.78465 30.9091 7.30852 32.6857 8.104 34.0675L9.21883 35.9952C10.0143 37.3769 11.7967 37.8531 13.1727 37.0576L47.7762 17.0791C49.1522 16.2837 49.6341 14.5012 48.8329 13.1252L47.724 11.1976C46.9228 9.81582 45.1461 9.33988 43.7644 10.1352Z" fill="#A3A3A3"/>
<path fill-rule="evenodd" clip-rule="evenodd" d="M22.9209 13.9846C15.9942 17.9849 11.5991 23.9477 11.5469 28.7435L41.3839 11.5171C37.2037 9.16548 29.8417 9.99005 22.9209 13.9846Z" fill="#D9D9D9"/>
<path d="M92.9062 29.3125H98.9448V32.1807H92.9062V29.3125Z" fill="#593F00"/>
<path d="M92.9062 23.2578H98.9448V26.126H92.9062V23.2578Z" fill="#593F00"/>
<path d="M92.9062 17.2031H98.9448V20.0713H92.9062V17.2031Z" fill="#593F00"/>
<path d="M14.0731 89.4531C15.6987 89.4531 17.162 90.1091 18.2244 91.1718C19.2869 92.2342 19.9489 93.7033 19.9489 95.3231C19.9489 96.943 19.2871 98.412 18.2244 99.4744C17.1618 100.537 15.6987 101.193 14.0731 101.193C12.4533 101.193 10.9902 100.537 9.92756 99.4744C8.86493 98.4118 8.20312 96.943 8.20312 95.3231C8.20312 93.7033 8.86493 92.2342 9.92756 91.1718C10.9902 90.1091 12.4533 89.4531 14.0731 89.4531Z" fill="#593F00"/>
<path d="M16.1972 93.2049C15.6573 92.665 14.9025 92.3281 14.0721 92.3281C13.2478 92.3281 12.4929 92.6648 11.9529 93.2049C11.407 93.7507 11.0703 94.4996 11.0703 95.33C11.0703 96.1603 11.407 96.9092 11.9529 97.455C12.4927 97.9949 13.2476 98.3318 14.0721 98.3318C14.9025 98.3318 15.6571 97.9951 16.1972 97.455C16.7431 96.9092 17.0797 96.1603 17.0797 95.33C17.0797 94.4996 16.7429 93.7505 16.1972 93.2049Z" fill="#BF8700"/>
<path d="M94.034 89.4531C95.6539 89.4531 97.1229 90.1091 98.1854 91.1718C99.2478 92.2342 99.904 93.7033 99.904 95.3231C99.904 96.943 99.248 98.412 98.1854 99.4744C97.1229 100.537 95.6539 101.193 94.034 101.193C92.4142 101.193 90.9452 100.537 89.8827 99.4744C88.8203 98.4118 88.1641 96.943 88.1641 95.3231C88.1641 93.7033 88.8201 92.2342 89.8827 91.1718C90.9454 90.1091 92.4142 89.4531 94.034 89.4531Z" fill="#593F00"/>
<path d="M96.1444 93.2049C95.6045 92.665 94.8554 92.3281 94.0253 92.3281C93.1949 92.3281 92.4461 92.6648 91.9002 93.2049C91.3543 93.7507 91.0234 94.4996 91.0234 95.33C91.0234 96.1603 91.3543 96.9092 91.9002 97.455C92.4461 97.9949 93.1949 98.3318 94.0253 98.3318C94.8556 98.3318 95.6045 97.9951 96.1444 97.455C96.6902 96.9092 97.0269 96.1603 97.0269 95.33C97.0269 94.4996 96.69 93.7505 96.1444 93.2049Z" fill="#BF8700"/>
</g>
<defs>
<clipPath id="clip0_10394_27922">
<rect width="102" height="102" fill="white"/>
</clipPath>
</defs>
</svg>
