<svg width="102" height="102" viewBox="0 0 102 102" fill="none" xmlns="http://www.w3.org/2000/svg">
<g clip-path="url(#clip0_10339_126969)">
<path d="M49.3535 7.99219H52.7501V16.4836H49.3535V7.99219Z" fill="#D9D9D9"/>
<path d="M56.146 6.29304H40.8615V2.89648H37.4649V6.29304H34.0684V9.68959H37.4649V94.6034H32.3701V98H45.9563V94.6034H40.8615V9.68959H56.146V6.29304Z" fill="#BF8700"/>
<path d="M95.2052 98.0002C98.019 98.0002 100.3 95.7192 100.3 92.9054C100.3 90.0916 98.019 87.8105 95.2052 87.8105C92.3914 87.8105 90.1104 90.0916 90.1104 92.9054C90.1104 95.7192 92.3914 98.0002 95.2052 98.0002Z" fill="#593F00"/>
<path d="M6.89561 98.0002C9.70941 98.0002 11.9904 95.7192 11.9904 92.9054C11.9904 90.0916 9.70941 87.8105 6.89561 87.8105C4.08181 87.8105 1.80078 90.0916 1.80078 92.9054C1.80078 95.7192 4.08181 98.0002 6.89561 98.0002Z" fill="#593F00"/>
<path d="M49.3535 48.7514V45.3549C49.3535 44.0036 49.8903 42.7078 50.8458 41.7523C51.8012 40.7968 53.0971 40.26 54.4483 40.26H57.8449C58.2953 40.26 58.7273 40.0811 59.0458 39.7626C59.3643 39.4441 59.5432 39.0122 59.5432 38.5618C59.5432 38.1114 59.3643 37.6794 59.0458 37.3609C58.7273 37.0424 58.2953 36.8635 57.8449 36.8635H54.4483C53.0971 36.8635 51.8012 36.3267 50.8458 35.3712C49.8903 34.4158 49.3535 33.1199 49.3535 31.7687V28.3721C49.3535 27.9217 49.5324 27.4897 49.8509 27.1712C50.1694 26.8528 50.6014 26.6738 51.0518 26.6738C51.5022 26.6738 51.9342 26.8528 52.2527 27.1712C52.5711 27.4897 52.7501 27.9217 52.7501 28.3721V31.7687C52.7501 32.2191 52.929 32.651 53.2475 32.9695C53.566 33.288 53.9979 33.4669 54.4483 33.4669H57.8449C59.1961 33.4669 60.492 34.0037 61.4475 34.9592C62.403 35.9146 62.9397 37.2105 62.9397 38.5618C62.9397 39.913 62.403 41.2089 61.4475 42.1644C60.492 43.1198 59.1961 43.6566 57.8449 43.6566H54.4483C53.9979 43.6566 53.566 43.8355 53.2475 44.154C52.929 44.4725 52.7501 44.9045 52.7501 45.3549V48.7514H49.3535Z" fill="#D9D9D9"/>
<path d="M40.862 58.9385L13.4161 39.5646C13.2307 39.4337 13.021 39.3414 12.7993 39.293C12.5776 39.2446 12.3485 39.2411 12.1254 39.2827C11.9023 39.3244 11.6899 39.4103 11.5006 39.5354C11.3113 39.6605 11.149 39.8223 11.0233 40.0112L8.59473 43.654L39.1637 65.7316H93.5086V60.6368C93.5086 60.1864 93.3297 59.7544 93.0112 59.4359C92.6927 59.1174 92.2607 58.9385 91.8103 58.9385H40.862Z" fill="#A3A3A3"/>
<path d="M39.1654 65.7339L8.59644 43.6562L5.07422 49.1162L37.4672 72.527H39.1654H93.5103V65.7339H39.1654Z" fill="#D9D9D9"/>
<path d="M54.4474 14.7832H47.6543C46.7164 14.7832 45.9561 15.5435 45.9561 16.4815V26.6711C45.9561 27.6091 46.7164 28.3694 47.6543 28.3694H54.4474C55.3854 28.3694 56.1457 27.6091 56.1457 26.6711V16.4815C56.1457 15.5435 55.3854 14.7832 54.4474 14.7832Z" fill="#FFB400"/>
<path d="M98.6036 53.8449V72.5259H85.0174V50.4483C85.0174 49.0971 84.4806 47.8012 83.5251 46.8458C82.5697 45.8903 81.2738 45.3535 79.9225 45.3535H59.5432C58.192 45.3535 56.8961 45.8903 55.9406 46.8458C54.9852 47.8012 54.4484 49.0971 54.4484 50.4483V72.5259H3.50007V53.8449H0.103516V81.0173H5.19835V92.9053H8.5949V81.0173H93.5088V92.9053H96.9053V81.0173H102V53.8449H98.6036ZM76.526 48.7501H79.9225C80.3729 48.7501 80.8049 48.929 81.1234 49.2475C81.4419 49.566 81.6208 49.9979 81.6208 50.4483V57.2415H76.526V48.7501ZM66.3363 48.7501H73.1294V57.2415H66.3363V48.7501ZM57.8449 50.4483C57.8449 49.9979 58.0239 49.566 58.3423 49.2475C58.6608 48.929 59.0928 48.7501 59.5432 48.7501H62.9398V57.2415H57.8449V50.4483ZM57.8449 72.5259V60.638H81.6208V72.5259H57.8449Z" fill="#FFE8B0"/>
<path d="M47.1116 47.7895C47.0077 47.1292 46.7742 46.4961 46.4244 45.9265C46.0747 45.357 45.6156 44.8623 45.0736 44.4711L28.546 32.5356C28.0036 32.1437 27.3894 31.8625 26.7383 31.708C26.0872 31.5535 25.4121 31.5287 24.7515 31.6352C24.0909 31.7416 23.4577 31.9772 22.8881 32.3284C22.3185 32.6796 21.8237 33.1395 21.4319 33.6819L8.50293 51.5784L11.2558 53.5671L18.2188 43.931L37.4908 57.8569L30.5279 67.4946L33.2825 69.4731L46.2115 51.5835C46.6046 51.0418 46.8865 50.4277 47.041 49.7765C47.1955 49.1254 47.2195 48.45 47.1116 47.7895ZM37.5689 43.2449L32.5964 50.1297L27.0906 46.1507L32.0631 39.2676L37.5689 43.2449ZM24.1865 35.6706C24.3166 35.4898 24.4813 35.3366 24.6711 35.22C24.8609 35.1034 25.072 35.0256 25.2921 34.9913C25.5123 34.9556 25.7373 34.9636 25.9544 35.0149C26.1715 35.0662 26.3764 35.1597 26.5573 35.2902L29.3136 37.2789L24.3377 44.1688L20.2075 41.1849L24.1865 35.6706ZM43.4586 49.5965L39.4795 55.1023L35.3493 52.1201L40.3218 45.237L43.0697 47.2257C43.4352 47.4884 43.6816 47.8855 43.7545 48.3297C43.8274 48.774 43.721 49.2307 43.4586 49.5965Z" fill="#FFE8B0"/>
</g>
<defs>
<clipPath id="clip0_10339_126969">
<rect width="102" height="102" fill="white"/>
</clipPath>
</defs>
</svg>
