<svg width="120" height="120" viewBox="0 0 120 120" fill="none" xmlns="http://www.w3.org/2000/svg">
<path d="M15.3414 10.3762L18.776 12.2547C19.4876 12.6439 19.4876 13.6661 18.776 14.0552L15.3414 15.9336C15.1693 16.0279 15.0277 16.1693 14.9336 16.3416L13.0552 19.7762C12.6659 20.4878 11.6439 20.4878 11.2547 19.7762L9.37624 16.3416C9.28201 16.1695 9.14056 16.0279 8.96824 15.9336L5.53371 14.0552C4.8221 13.6659 4.8221 12.6437 5.53371 12.2547L8.96824 10.3762C9.14036 10.282 9.28201 10.1406 9.37624 9.96824L11.2547 6.53371C11.6439 5.8221 12.6661 5.8221 13.0552 6.53371L14.9336 9.96824C15.0277 10.1404 15.1693 10.282 15.3414 10.3762Z" fill="#FFB400"/>
<path d="M112.341 102.376L115.776 104.255C116.488 104.644 116.488 105.666 115.776 106.055L112.341 107.934C112.169 108.028 112.028 108.169 111.933 108.341L110.055 111.776C109.666 112.488 108.644 112.488 108.254 111.776L106.376 108.341C106.282 108.169 106.14 108.028 105.968 107.934L102.534 106.055C101.822 105.666 101.822 104.644 102.534 104.255L105.968 102.376C106.14 102.282 106.282 102.141 106.376 101.968L108.254 98.5337C108.644 97.8221 109.666 97.8221 110.055 98.5337L111.933 101.968C112.028 102.141 112.169 102.282 112.341 102.376Z" fill="#FFE8B0"/>
<path d="M55.4493 87.2762L23.5254 87.3376C22.9448 87.3376 19.9964 88.4427 19.6159 88.0622C19.2354 87.6817 19 87.1559 19 86.5752V21.1067C19 20.5282 19.2335 20.0043 19.6116 19.6242C19.9925 19.2411 21.9218 20.4057 22.5048 20.4057H55.4495C56.6108 20.4057 57.5523 21.3472 57.5523 22.5086V85.1735C57.5522 86.3348 56.6108 87.2762 55.4493 87.2762Z" fill="#FFE8B0"/>
<path d="M56.8541 19.2827H52.6484C53.8098 19.2827 54.7513 20.2242 54.7513 21.3856V23.2236V84.4556V86.0132C54.7513 87.1745 53.8099 88.1161 52.6484 88.1161H56.8541C57.4347 88.1161 57.9604 88.4414 58.341 88.061C58.7215 87.6805 58.957 87.1546 58.957 86.574V21.1053C58.957 20.5264 58.723 20.0021 58.3444 19.6219C57.9637 19.2392 57.4365 19.2827 56.8541 19.2827Z" fill="#FFB400"/>
<path d="M56.8488 88.6712H21.1004C20.5175 88.6712 19.9901 88.4337 19.6094 88.0506L31.3323 76.2991L45.5134 75.1953L58.3392 88.0516C57.9583 88.4342 57.4312 88.6712 56.8488 88.6712Z" fill="#CC9000"/>
<path d="M56.8488 19H21.1004C20.5175 19 19.9901 19.2375 19.6094 19.6205L31.3323 31.3721L45.5134 32.4759L58.3392 19.6196C57.9583 19.2369 57.4312 19 56.8488 19Z" fill="#CC9000"/>
<path d="M51.0743 82.2098H26.8785C26.1043 82.2098 25.4766 81.5822 25.4766 80.8079V26.9175C25.4766 26.1434 26.1042 25.5156 26.8785 25.5156H51.0741C51.8483 25.5156 52.476 26.1432 52.476 26.9175V80.8079C52.476 81.5822 51.8484 82.2098 51.0743 82.2098Z" fill="#FFB400"/>
<path d="M41.6988 46.8583C45.3234 45.3559 47.0438 41.1997 45.5414 37.5752C44.039 33.9507 39.8828 32.2304 36.2582 33.7328C32.6336 35.2352 30.9132 39.3914 32.4156 43.0159C33.918 46.6404 38.0742 48.3607 41.6988 46.8583Z" fill="#FFE8B0"/>
<path d="M40.7549 41.3449H37.1842C36.6035 41.3449 36.1328 40.8742 36.1328 40.2936C36.1328 39.7129 36.6035 39.2422 37.1842 39.2422H40.7549C41.3355 39.2422 41.8062 39.7129 41.8062 40.2936C41.8064 40.8742 41.3355 41.3449 40.7549 41.3449Z" fill="#FFB400"/>
<path d="M46.0771 62.5246H31.8717C31.291 62.5246 30.8203 62.0539 30.8203 61.4732C30.8203 60.8926 31.291 60.4219 31.8717 60.4219H46.0769C46.6576 60.4219 47.1283 60.8926 47.1283 61.4732C47.1283 62.0539 46.6577 62.5246 46.0771 62.5246Z" fill="#FFE8B0"/>
<path d="M46.0771 69.0559H31.8717C31.291 69.0559 30.8203 68.5852 30.8203 68.0045C30.8203 67.4238 31.291 66.9531 31.8717 66.9531H46.0769C46.6576 66.9531 47.1283 67.4238 47.1283 68.0045C47.1285 68.5852 46.6577 69.0559 46.0771 69.0559Z" fill="#FFE8B0"/>
<path d="M46.0771 75.5949H31.8717C31.291 75.5949 30.8203 75.1242 30.8203 74.5436C30.8203 73.9629 31.291 73.4922 31.8717 73.4922H46.0769C46.6576 73.4922 47.1283 73.9629 47.1283 74.5436C47.1283 75.1242 46.6577 75.5949 46.0771 75.5949Z" fill="#FFE8B0"/>
<path d="M98.2149 100.518L66.2911 100.58C65.7104 100.58 62.762 101.685 62.3815 101.304C62.001 100.924 61.7656 100.398 61.7656 99.8174V34.3489C61.7656 33.7704 61.9991 33.2465 62.3772 32.8664C62.7581 32.4833 64.6875 33.6479 65.2704 33.6479H98.2151C99.3764 33.6479 100.318 34.5893 100.318 35.7508V98.4156C100.318 99.577 99.3764 100.518 98.2149 100.518Z" fill="#FFE8B0"/>
<path d="M99.6197 32.5249H95.4141C96.5754 32.5249 97.5169 33.4664 97.5169 34.6278V36.4658V97.6978V99.2554C97.5169 100.417 96.5755 101.358 95.4141 101.358H99.6197C100.2 101.358 100.726 101.684 101.107 101.303C101.487 100.923 101.723 100.397 101.723 99.8162V34.3475C101.723 33.7686 101.489 33.2443 101.11 32.8641C100.729 32.4814 100.202 32.5249 99.6197 32.5249Z" fill="#FFB400"/>
<path d="M99.6144 101.913H63.8661C63.2831 101.913 62.7558 101.676 62.375 101.293L74.098 89.5413L88.279 88.4375L101.105 101.294C100.724 101.676 100.197 101.913 99.6144 101.913Z" fill="#CC9000"/>
<path d="M99.6144 32.2422H63.8661C63.2831 32.2422 62.7558 32.4797 62.375 32.8627L74.098 44.6143L88.279 45.718L101.105 32.8618C100.724 32.4791 100.197 32.2422 99.6144 32.2422Z" fill="#CC9000"/>
<path d="M93.8399 95.452H69.6441C68.8699 95.452 68.2422 94.8244 68.2422 94.0501V40.1597C68.2422 39.3856 68.8698 38.7578 69.6441 38.7578H93.8397C94.6139 38.7578 95.2417 39.3854 95.2417 40.1597V94.0501C95.2417 94.8244 94.6141 95.452 93.8399 95.452Z" fill="#FFB400"/>
<path d="M84.4644 60.1005C88.089 58.5981 89.8094 54.4419 88.307 50.8174C86.8046 47.1929 82.6484 45.4726 79.0238 46.975C75.3992 48.4774 73.6788 52.6336 75.1812 56.2581C76.6836 59.8826 80.8398 61.6029 84.4644 60.1005Z" fill="#FFE8B0"/>
<path d="M83.5205 54.5871H79.9498C79.3691 54.5871 78.8984 54.1164 78.8984 53.5358C78.8984 52.9551 79.3691 52.4844 79.9498 52.4844H83.5205C84.1011 52.4844 84.5719 52.9551 84.5719 53.5358C84.572 54.1164 84.1011 54.5871 83.5205 54.5871Z" fill="#FFB400"/>
<path d="M88.8427 75.7668H74.6373C74.0566 75.7668 73.5859 75.2961 73.5859 74.7154C73.5859 74.1348 74.0566 73.6641 74.6373 73.6641H88.8426C89.4232 73.6641 89.8939 74.1348 89.8939 74.7154C89.8939 75.2961 89.4234 75.7668 88.8427 75.7668Z" fill="#FFE8B0"/>
<path d="M88.8427 82.2824H74.6373C74.0566 82.2824 73.5859 81.8117 73.5859 81.2311C73.5859 80.6504 74.0566 80.1797 74.6373 80.1797H88.8426C89.4232 80.1797 89.8939 80.6504 89.8939 81.2311C89.8941 81.8117 89.4234 82.2824 88.8427 82.2824Z" fill="#FFE8B0"/>
<path d="M88.8427 88.8215H74.6373C74.0566 88.8215 73.5859 88.3508 73.5859 87.7701C73.5859 87.1895 74.0566 86.7188 74.6373 86.7188H88.8426C89.4232 86.7188 89.8939 87.1895 89.8939 87.7701C89.8939 88.3508 89.4234 88.8215 88.8427 88.8215Z" fill="#FFE8B0"/>
</svg>
