<svg width="102" height="102" viewBox="0 0 102 102" fill="none" xmlns="http://www.w3.org/2000/svg">
<g clip-path="url(#clip0_10339_125986)">
<path d="M63.5698 44.1973L57.1691 31.3356C56.8832 30.7612 56.2991 30.3984 55.66 30.3984H51.631L51.0003 30.8327L43.9844 44.6824V45.6791L44.9864 46.6505H62.0607C63.315 46.6507 64.1308 45.3245 63.5698 44.1973Z" fill="#FFB400"/>
<path d="M44.5872 44.1973L50.9879 31.3356C51.2738 30.7612 51.8579 30.3984 52.497 30.3984H46.3401C45.701 30.3984 45.1169 30.7612 44.831 31.3356L38.4303 44.1973C37.8693 45.3245 38.6851 46.6507 39.9394 46.6507H46.0963C44.842 46.6507 44.0262 45.3245 44.5872 44.1973Z" fill="#CC9000"/>
<path d="M74.9252 31.5603C74.5001 30.824 74.7525 29.8827 75.4886 29.4578L82.2159 25.5738C82.9522 25.1485 83.8935 25.4009 84.3184 26.1372C84.7435 26.8735 84.4913 27.8148 83.755 28.2398L77.0278 32.1237C76.2923 32.5487 75.3506 32.297 74.9252 31.5603Z" fill="#FFE8B0"/>
<path d="M64.8089 21.4512C64.0728 21.0263 63.8204 20.0848 64.2456 19.3487L68.1295 12.6214C68.5545 11.8853 69.496 11.6329 70.2321 12.0581C70.9682 12.483 71.2206 13.4245 70.7955 14.1606L66.9115 20.8878C66.4868 21.6237 65.5455 21.8766 64.8089 21.4512Z" fill="#FFE8B0"/>
<path d="M51.0001 17.7449C50.15 17.7449 49.4609 17.0558 49.4609 16.2057V8.4376C49.4609 7.58754 50.15 6.89844 51.0001 6.89844C51.8502 6.89844 52.5393 7.58754 52.5393 8.4376V16.2055C52.5393 17.0556 51.8502 17.7449 51.0001 17.7449Z" fill="#FFE8B0"/>
<path d="M35.0827 20.888L31.1987 14.1607C30.7735 13.4244 31.026 12.4831 31.7621 12.0582C32.4982 11.6329 33.4397 11.8853 33.8646 12.6216L37.7486 19.3488C38.1737 20.0851 37.9213 21.0264 37.1852 21.4514C36.4497 21.8763 35.508 21.6247 35.0827 20.888Z" fill="#FFE8B0"/>
<path d="M24.9659 32.1237L18.2386 28.2397C17.5025 27.8148 17.2501 26.8733 17.6752 26.1372C18.1002 25.401 19.0417 25.1484 19.7778 25.5738L26.505 29.4577C27.2411 29.8827 27.4935 30.8242 27.0684 31.5603C26.6437 32.2962 25.7024 32.549 24.9659 32.1237Z" fill="#FFE8B0"/>
<path d="M50.8198 60.3692L44.4191 47.5074C44.1332 46.9331 43.5491 46.5703 42.91 46.5703H38.881L38.2503 47.0046L31.2344 60.8543V61.851L32.2364 62.8224H49.3107C50.565 62.8226 51.3808 61.4964 50.8198 60.3692Z" fill="#FFB400"/>
<path d="M31.8372 60.3692L38.2379 47.5074C38.5238 46.9331 39.1079 46.5703 39.747 46.5703H33.5901C32.951 46.5703 32.3669 46.9331 32.081 47.5074L25.6803 60.3692C25.1193 61.4964 25.9351 62.8226 27.1894 62.8226H33.3463C32.0922 62.8226 31.2764 61.4964 31.8372 60.3692Z" fill="#CC9000"/>
<path d="M76.3198 60.3692L69.9191 47.5074C69.6332 46.9331 69.0491 46.5703 68.41 46.5703H64.381L63.7503 47.0046L56.7344 60.8543V61.851L57.7364 62.8224H74.8107C76.065 62.8226 76.8808 61.4964 76.3198 60.3692Z" fill="#FFB400"/>
<path d="M57.3372 60.3692L63.7379 47.5074C64.0238 46.9331 64.6079 46.5703 65.247 46.5703H59.0901C58.451 46.5703 57.8669 46.9331 57.581 47.5074L51.1803 60.3692C50.6193 61.4964 51.4351 62.8226 52.6894 62.8226H58.8463C57.5922 62.8226 56.7764 61.4964 57.3372 60.3692Z" fill="#CC9000"/>
<path d="M89.0698 76.5411L82.6691 63.6793C82.3832 63.105 81.7991 62.7422 81.16 62.7422H77.131L76.5003 63.1765L69.4844 77.0262V78.0229L70.4864 78.9942H87.5607C88.815 78.9944 89.6308 77.6683 89.0698 76.5411Z" fill="#FFB400"/>
<path d="M70.0872 76.5411L76.4879 63.6793C76.7738 63.105 77.3579 62.7422 77.997 62.7422H71.8401C71.201 62.7422 70.6169 63.105 70.331 63.6793L63.9303 76.5411C63.3693 77.6683 64.1851 78.9944 65.4394 78.9944H71.5963C70.3422 78.9944 69.5264 77.6683 70.0872 76.5411Z" fill="#CC9000"/>
<path d="M63.5698 76.5411L57.1691 63.6793C56.8832 63.105 56.2991 62.7422 55.66 62.7422H51.631L51.0003 63.1765L43.9844 77.0262V78.0229L44.9864 78.9942H62.0607C63.315 78.9944 64.1308 77.6683 63.5698 76.5411Z" fill="#FFB400"/>
<path d="M44.5872 76.5411L50.9879 63.6793C51.2738 63.105 51.8579 62.7422 52.497 62.7422H46.3401C45.701 62.7422 45.1169 63.105 44.831 63.6793L38.4303 76.5411C37.8693 77.6683 38.6851 78.9944 39.9394 78.9944H46.0963C44.8422 78.9944 44.0264 77.6683 44.5872 76.5411Z" fill="#CC9000"/>
<path d="M38.0698 76.5411L31.6691 63.6793C31.3832 63.105 30.7991 62.7422 30.16 62.7422H26.131L25.5003 63.1765L18.4844 77.0262V78.0229L19.4864 78.9942H36.5607C37.815 78.9944 38.6308 77.6683 38.0698 76.5411Z" fill="#FFB400"/>
<path d="M19.0872 76.5411L25.4879 63.6793C25.7738 63.105 26.3579 62.7422 26.997 62.7422H20.8401C20.201 62.7422 19.6169 63.105 19.331 63.6793L12.9303 76.5411C12.3693 77.6683 13.1851 78.9944 14.4394 78.9944H20.5963C19.3422 78.9944 18.5264 77.6683 19.0872 76.5411Z" fill="#CC9000"/>
<path d="M25.32 92.6426L18.9193 79.7809C18.6334 79.2065 18.0493 78.8438 17.4102 78.8438H13.381L12.7503 79.2782L5.73438 93.1279V94.1246L6.73645 95.096H23.8107C25.0652 95.096 25.881 93.7698 25.32 92.6426Z" fill="#FFB400"/>
<path d="M6.3372 92.6426L12.7379 79.7809C13.0238 79.2065 13.6079 78.8438 14.247 78.8438H8.09012C7.45103 78.8438 6.86692 79.2065 6.58104 79.7809L0.18034 92.6426C-0.38066 93.7698 0.435141 95.096 1.68942 95.096H7.84628C6.5922 95.096 5.77639 93.7698 6.3372 92.6426Z" fill="#CC9000"/>
<path d="M50.8198 92.6426L44.4191 79.7809C44.1332 79.2065 43.5491 78.8438 42.91 78.8438H38.881L38.2503 79.278L31.2344 93.1277V94.1244L32.2364 95.0958H49.3107C50.565 95.096 51.3808 93.7698 50.8198 92.6426Z" fill="#FFB400"/>
<path d="M31.8372 92.6426L38.2379 79.7809C38.5238 79.2065 39.1079 78.8438 39.747 78.8438H33.5901C32.951 78.8438 32.3669 79.2065 32.081 79.7809L25.6803 92.6426C25.1193 93.7698 25.9351 95.096 27.1894 95.096H33.3463C32.0922 95.096 31.2764 93.7698 31.8372 92.6426Z" fill="#CC9000"/>
<path d="M76.3198 92.6426L69.9191 79.7809C69.6332 79.2065 69.0491 78.8438 68.41 78.8438H64.381L63.7503 79.278L56.7344 93.1277V94.1244L57.7364 95.0958H74.8107C76.065 95.096 76.8808 93.7698 76.3198 92.6426Z" fill="#FFB400"/>
<path d="M57.3372 92.6426L63.7379 79.7809C64.0238 79.2065 64.6079 78.8438 65.247 78.8438H59.0901C58.451 78.8438 57.8669 79.2065 57.581 79.7809L51.1803 92.6426C50.6193 93.7698 51.4351 95.096 52.6894 95.096H58.8463C57.5922 95.096 56.7764 93.7698 57.3372 92.6426Z" fill="#CC9000"/>
<path d="M101.82 92.6426L95.4191 79.7809C95.1332 79.2065 94.5491 78.8438 93.91 78.8438H89.881L89.2503 79.278L82.2344 93.1277V94.1244L83.2364 95.0958H100.311C101.565 95.096 102.381 93.7698 101.82 92.6426Z" fill="#FFB400"/>
<path d="M82.8372 92.6426L89.2379 79.7809C89.5238 79.2065 90.1079 78.8438 90.747 78.8438H84.5901C83.951 78.8438 83.3669 79.2065 83.081 79.7809L76.6803 92.6426C76.1193 93.7698 76.9351 95.096 78.1894 95.096H84.3463C83.0922 95.096 82.2764 93.7698 82.8372 92.6426Z" fill="#CC9000"/>
<path d="M8.69774 64.988L10.2579 65.8413C10.5812 66.0181 10.5812 66.4824 10.2579 66.6592L8.69774 67.5125C8.61955 67.5553 8.55521 67.6196 8.51249 67.6978L7.65919 69.258C7.48236 69.5813 7.0181 69.5813 6.84127 69.258L5.98797 67.6978C5.94516 67.6196 5.88091 67.5553 5.80263 67.5125L4.24244 66.6592C3.91919 66.4824 3.91919 66.018 4.24244 65.8413L5.80263 64.988C5.88082 64.9452 5.94516 64.8809 5.98797 64.8026L6.84127 63.2424C7.0181 62.9192 7.48245 62.9192 7.65919 63.2424L8.51249 64.8026C8.55521 64.8808 8.61955 64.9452 8.69774 64.988Z" fill="#FFB400"/>
<path d="M85.6977 45.988L87.2579 46.8413C87.5812 47.0181 87.5812 47.4824 87.2579 47.6592L85.6977 48.5125C85.6196 48.5553 85.5552 48.6196 85.5124 48.6977L84.6591 50.2579C84.4823 50.5812 84.0179 50.5812 83.8412 50.2579L82.9879 48.6977C82.9451 48.6196 82.8808 48.5552 82.8026 48.5125L81.2424 47.6592C80.9192 47.4824 80.9192 47.018 81.2424 46.8413L82.8026 45.988C82.8808 45.9452 82.9452 45.8809 82.9879 45.8026L83.8412 44.2424C84.018 43.9192 84.4824 43.9192 84.6591 44.2424L85.5124 45.8026C85.5553 45.8809 85.6196 45.9452 85.6977 45.988Z" fill="#FFE8B0"/>
</g>
<defs>
<clipPath id="clip0_10339_125986">
<rect width="102" height="102" fill="white"/>
</clipPath>
</defs>
</svg>
