<svg width="103" height="102" viewBox="0 0 103 102" fill="none" xmlns="http://www.w3.org/2000/svg">
<path d="M66.7785 42.2953L62.6546 25.8L60.2943 23.6875H40.8013C39.2412 23.6875 37.8814 24.7493 37.5031 26.2628L34.1032 39.8621C34.0339 40.1396 34.0006 40.4157 34 40.6866L35.6097 42.2955L66.7785 42.2953Z" fill="#FFB400"/>
<path d="M64.4986 26.2628C64.1203 24.7493 62.7604 23.6875 61.2001 23.6875H60.2941L62.9909 34.3347C63.8071 37.5573 61.3717 40.6866 58.0473 40.6866H34C33.9966 42.5105 35.4758 44.0865 37.4015 44.0865H64.6002C66.8121 44.0865 68.435 42.0079 67.8985 39.8621L64.4986 26.2628Z" fill="#CC9000"/>
<path d="M49.7785 62.6938L45.6546 46.1985L43.2943 44.0859H23.8013C22.2412 44.0859 20.8814 45.1478 20.5031 46.6612L17.1032 60.2605C17.0339 60.538 17.0006 60.8141 17 61.0851L18.6097 62.694H49.7785V62.6938Z" fill="#FFB400"/>
<path d="M47.4986 46.6612C47.1203 45.1478 45.7604 44.0859 44.2001 44.0859H43.2941L45.9909 54.7332C46.8071 57.9557 44.3717 61.0851 41.0473 61.0851H17C16.9966 62.9089 18.4758 64.4849 20.4015 64.4849H47.6002C49.8121 64.4849 51.435 62.4063 50.8985 60.2605L47.4986 46.6612Z" fill="#CC9000"/>
<path d="M83.7785 62.6938L79.6546 46.1985L77.2943 44.0859H57.8013C56.2412 44.0859 54.8814 45.1478 54.5031 46.6612L51.1032 60.2605C51.0339 60.538 51.0006 60.8141 51 61.0851L52.6097 62.694H83.7785V62.6938Z" fill="#FFB400"/>
<path d="M81.4986 46.6612C81.1203 45.1478 79.7604 44.0859 78.2001 44.0859H77.2943L79.9911 54.7332C80.8073 57.9557 78.3717 61.0851 75.0475 61.0851H51C50.9966 62.9089 52.4758 64.4849 54.4015 64.4849H81.6002C83.8121 64.4849 85.435 62.4063 84.8985 60.2605L81.4986 46.6612Z" fill="#CC9000"/>
<path d="M32.7785 83.0922L28.6546 66.5969L26.2943 64.4844H6.80133C5.24125 64.4844 3.88138 65.5462 3.50306 67.0597L0.103195 80.6587C0.0338672 80.9363 0.000597656 81.2124 0 81.4833L1.60969 83.0922H32.7785Z" fill="#FFB400"/>
<path d="M30.4986 67.0597C30.1203 65.5462 28.7602 64.4844 27.2001 64.4844H26.2941L28.9909 75.1316C29.8071 78.3542 27.3717 81.4835 24.0473 81.4835H5.80384e-06C-0.00338091 83.3074 1.47582 84.8834 3.40147 84.8834H30.6002C32.8121 84.8834 34.435 82.8047 33.8985 80.6589L30.4986 67.0597Z" fill="#CC9000"/>
<path d="M66.7785 83.0922L62.6546 66.5969L60.2943 64.4844H40.8013C39.2412 64.4844 37.8814 65.5462 37.5031 67.0597L34.1032 80.6589C34.0339 80.9365 34.0006 81.2126 34 81.4835L35.6097 83.0924H66.7785V83.0922Z" fill="#FFB400"/>
<path d="M64.4986 67.0597C64.1203 65.5462 62.7604 64.4844 61.2001 64.4844H60.2941L62.9909 75.1316C63.8071 78.3542 61.3717 81.4835 58.0473 81.4835H34C33.9966 83.3074 35.4758 84.8834 37.4015 84.8834H64.6002C66.8121 84.8834 68.435 82.8047 67.8985 80.6589L64.4986 67.0597Z" fill="#CC9000"/>
<path d="M100.778 83.0922L96.6546 66.5969L94.2943 64.4844H74.8013C73.2412 64.4844 71.8814 65.5462 71.5031 67.0597L68.1032 80.6589C68.0339 80.9365 68.0006 81.2126 68 81.4835L69.6097 83.0924H100.778V83.0922Z" fill="#FFB400"/>
<path d="M98.4986 67.0597C98.1203 65.5462 96.7604 64.4844 95.2001 64.4844H94.2941L96.9909 75.1316C97.8071 78.3542 95.3715 81.4835 92.0473 81.4835H68C67.9966 83.3074 69.4758 84.8834 71.4015 84.8834H98.6002C100.812 84.8834 102.435 82.8047 101.898 80.6589L98.4986 67.0597Z" fill="#CC9000"/>
<path d="M9.69774 37.988L11.2579 38.8413C11.5812 39.0181 11.5812 39.4824 11.2579 39.6592L9.69774 40.5125C9.61955 40.5553 9.55521 40.6196 9.51249 40.6978L8.65919 42.258C8.48236 42.5813 8.0181 42.5813 7.84127 42.258L6.98797 40.6978C6.94516 40.6196 6.88091 40.5553 6.80263 40.5125L5.24244 39.6592C4.91919 39.4824 4.91919 39.018 5.24244 38.8413L6.80263 37.988C6.88082 37.9452 6.94516 37.8809 6.98797 37.8026L7.84127 36.2424C8.0181 35.9192 8.48245 35.9192 8.65919 36.2424L9.51249 37.8026C9.55521 37.8808 9.61955 37.9452 9.69774 37.988Z" fill="#FFB400"/>
<path d="M86.6977 18.988L88.2579 19.8413C88.5812 20.0181 88.5812 20.4824 88.2579 20.6592L86.6977 21.5125C86.6196 21.5553 86.5552 21.6196 86.5124 21.6977L85.6591 23.2579C85.4823 23.5812 85.0179 23.5812 84.8412 23.2579L83.9879 21.6977C83.9451 21.6196 83.8808 21.5552 83.8026 21.5125L82.2424 20.6592C81.9192 20.4824 81.9192 20.018 82.2424 19.8413L83.8026 18.988C83.8808 18.9452 83.9452 18.8809 83.9879 18.8026L84.8412 17.2424C85.018 16.9192 85.4824 16.9192 85.6591 17.2424L86.5124 18.8026C86.5553 18.8809 86.6196 18.9452 86.6977 18.988Z" fill="#FFE8B0"/>
</svg>
