<svg width="102" height="102" viewBox="0 0 102 102" fill="none" xmlns="http://www.w3.org/2000/svg">
<g clip-path="url(#clip0_10339_125903)">
<path d="M75.118 99.9495L28.3828 100.039C27.5328 100.039 23.2165 101.657 22.6595 101.1C22.1025 100.543 21.7578 99.7734 21.7578 98.9233V3.08038C21.7578 2.2335 22.0997 1.46651 22.6531 0.910091C23.2107 0.34929 26.0352 2.0542 26.8887 2.0542H75.1182C76.8183 2.0542 78.1967 3.4324 78.1967 5.13273V96.8712C78.1965 98.5713 76.8183 99.9495 75.118 99.9495Z" fill="#FFE8B0"/>
<path d="M77.1647 0.408441H71.0078C72.7079 0.408441 74.0863 1.78664 74.0863 3.48697V6.17762V95.8185V98.0987C74.0863 99.7989 72.7081 101.177 71.0078 101.177H77.1647C78.0147 101.177 78.7843 101.654 79.3415 101.097C79.8985 100.54 80.2432 99.7698 80.2432 98.9197V3.07658C80.2432 2.2291 79.9007 1.46151 79.3465 0.904894C78.7891 0.344691 78.0173 0.408441 77.1647 0.408441Z" fill="#FFB400"/>
<path d="M77.1652 102.001H24.8313C23.9778 102.001 23.2059 101.654 22.6484 101.093L39.8103 83.8893L60.5707 82.2734L79.3471 101.094C78.7895 101.655 78.0179 102.001 77.1652 102.001Z" fill="#CC9000"/>
<path d="M77.1652 0H24.8313C23.9778 0 23.2059 0.347637 22.6484 0.908437L39.8103 18.1122L60.5707 19.728L79.3471 0.907043C78.7895 0.34684 78.0179 0 77.1652 0Z" fill="#CC9000"/>
<path d="M68.7082 92.5368H33.2867C32.1534 92.5368 31.2344 91.618 31.2344 90.4844V11.5914C31.2344 10.4581 32.1532 9.53906 33.2867 9.53906H68.708C69.8414 9.53906 70.7604 10.4579 70.7604 11.5914V90.4844C70.7604 91.618 69.8416 92.5368 68.7082 92.5368Z" fill="#FFB400"/>
<path d="M54.9944 40.7796C60.3006 38.5802 62.8192 32.4957 60.6198 27.1896C58.4204 21.8835 52.3359 19.365 47.0296 21.5644C41.7234 23.7639 39.2048 29.8483 41.4042 35.1545C43.6036 40.4606 49.6882 42.9791 54.9944 40.7796Z" fill="#FFE8B0"/>
<path d="M53.618 32.719H48.3907C47.5407 32.719 46.8516 32.0299 46.8516 31.1798C46.8516 30.3297 47.5407 29.6406 48.3907 29.6406H53.618C54.4681 29.6406 55.1572 30.3297 55.1572 31.1798C55.1574 32.0299 54.4681 32.719 53.618 32.719Z" fill="#FFB400"/>
<path d="M11.6149 32.595L15.0494 34.4734C15.761 34.8627 15.761 35.8849 15.0494 36.274L11.6149 38.1524C11.4428 38.2466 11.3011 38.3881 11.2071 38.5604L9.32865 41.9949C8.93938 42.7065 7.91738 42.7065 7.52811 41.9949L5.64968 38.5604C5.55545 38.3883 5.414 38.2466 5.24168 38.1524L1.80714 36.274C1.09554 35.8847 1.09554 34.8625 1.80714 34.4734L5.24168 32.595C5.4138 32.5008 5.55545 32.3593 5.64968 32.187L7.52811 28.7525C7.91738 28.0408 8.93957 28.0408 9.32865 28.7525L11.2071 32.187C11.3011 32.3591 11.4428 32.5008 11.6149 32.595Z" fill="#FFB400"/>
<path d="M96.7555 63.9231L100.19 65.8015C100.902 66.1908 100.902 67.213 100.19 67.6021L96.7555 69.4805C96.5834 69.5747 96.4417 69.7162 96.3475 69.8883L94.4691 73.3228C94.0798 74.0345 93.0576 74.0345 92.6685 73.3228L90.7901 69.8883C90.6959 69.7162 90.5544 69.5745 90.3823 69.4805L86.9478 67.6021C86.2362 67.2128 86.2362 66.1906 86.9478 65.8015L90.3823 63.9231C90.5544 63.8289 90.6961 63.6874 90.7901 63.5151L92.6685 60.0806C93.0578 59.369 94.08 59.369 94.4691 60.0806L96.3475 63.5151C96.4419 63.6874 96.5834 63.8289 96.7555 63.9231Z" fill="#FFE8B0"/>
<path d="M61.3977 63.7111H40.6017C39.7516 63.7111 39.0625 63.022 39.0625 62.172C39.0625 61.3219 39.7516 60.6328 40.6017 60.6328H61.3975C62.2476 60.6328 62.9367 61.3219 62.9367 62.172C62.9367 63.022 62.2478 63.7111 61.3977 63.7111Z" fill="#FFE8B0"/>
<path d="M61.3977 73.2736H40.6017C39.7516 73.2736 39.0625 72.5845 39.0625 71.7345C39.0625 70.8844 39.7516 70.1953 40.6017 70.1953H61.3975C62.2476 70.1953 62.9367 70.8844 62.9367 71.7345C62.9369 72.5845 62.2478 73.2736 61.3977 73.2736Z" fill="#FFE8B0"/>
<path d="M61.3977 82.8283H40.6017C39.7516 82.8283 39.0625 82.1392 39.0625 81.2892C39.0625 80.4391 39.7516 79.75 40.6017 79.75H61.3975C62.2476 79.75 62.9367 80.4391 62.9367 81.2892C62.9367 82.1392 62.2478 82.8283 61.3977 82.8283Z" fill="#FFE8B0"/>
</g>
<defs>
<clipPath id="clip0_10339_125903">
<rect width="102" height="102" fill="white"/>
</clipPath>
</defs>
</svg>
