<svg width="62" height="69" viewBox="0 0 62 69" fill="none" xmlns="http://www.w3.org/2000/svg">
<path d="M0.265625 45.8873C0.486425 44.6873 0.793625 43.5161 1.32643 42.4121C2.25283 40.4777 3.61603 38.9321 5.40163 37.7417C7.44163 36.3785 9.70242 35.8265 12.1312 35.8361C14.4832 35.8457 16.84 35.8361 19.192 35.8361C20.1712 35.8361 20.176 35.8409 20.2864 36.7913C20.5744 39.2393 21.5584 41.3657 23.248 43.1657C23.632 43.5785 23.6176 43.6121 23.0896 43.7993C19.7344 44.9897 17.1904 47.1401 15.4864 50.2649C14.416 52.2281 13.9312 54.3449 13.9024 56.5721C13.8928 57.3017 13.9024 58.0313 13.9024 58.7609C13.9024 59.4473 13.8736 59.4857 13.1776 59.4185C11.224 59.2313 9.27522 59.0153 7.34562 58.6409C5.12802 58.2137 2.95363 57.6377 0.788825 56.9993C0.620825 56.9513 0.438425 56.9273 0.265625 56.8937C0.265625 53.2217 0.265625 49.5545 0.265625 45.8825V45.8873Z" fill="url(#paint0_linear_10410_125807)"/>
<path d="M61.2545 56.7023C58.4801 58.0511 55.5377 58.7855 52.4897 59.1743C51.3953 59.3135 50.2962 59.4047 49.197 59.5103C48.5874 59.5679 48.5009 59.4911 48.4865 58.8575C48.4577 57.4943 48.5537 56.1311 48.3809 54.7727C48.0593 52.2719 47.0609 50.0687 45.4961 48.1151C43.8737 46.0895 41.8049 44.6783 39.3665 43.8047C38.7713 43.5887 38.7858 43.5743 39.1986 43.1231C40.9602 41.2031 42.0018 38.9711 42.1458 36.3503C42.165 36.0335 42.2322 35.8175 42.6114 35.8271C45.4002 35.8751 48.1985 35.7023 50.9825 35.9183C55.4849 36.2735 59.5793 39.6815 60.8177 44.0351C60.9905 44.6447 61.1298 45.2591 61.2498 45.8783V56.6927L61.2545 56.7023Z" fill="url(#paint1_linear_10410_125807)"/>
<path d="M15.8559 60.8053C15.8751 59.2597 15.7647 57.3733 15.9519 55.4965C16.1775 53.2165 16.9935 51.1573 18.4527 49.3717C20.2815 47.1349 22.6239 45.7573 25.4655 45.2437C26.1663 45.1189 26.8815 45.0805 27.5967 45.0853C30.0495 45.0853 32.4975 45.0709 34.9503 45.0901C38.9679 45.1237 42.1551 46.8181 44.4831 50.0629C45.7359 51.8101 46.3887 53.8069 46.4751 55.9717C46.5999 59.0725 46.4943 62.1685 46.5375 65.2693C46.5423 65.7157 46.3887 65.9701 45.9711 66.1669C44.4927 66.8581 42.9519 67.3333 41.3727 67.7317C39.4191 68.2261 37.4271 68.5333 35.4255 68.6677C33.0975 68.8261 30.7599 68.8501 28.4271 68.6437C25.3167 68.3701 22.2543 67.8181 19.2351 67.0405C18.2319 66.7813 17.2479 66.4453 16.2495 66.1621C15.8751 66.0565 15.8559 65.7829 15.8559 65.4805C15.8559 64.0357 15.8559 62.5909 15.8559 60.8101V60.8053Z" fill="url(#paint2_linear_10410_125807)"/>
<path d="M31.2737 26.5823C36.1985 26.5871 40.2401 30.6431 40.2113 35.5967C40.1777 40.6559 36.2081 44.6303 31.1441 44.5823C26.0033 44.5343 22.1825 40.4975 22.2017 35.5631C22.2161 30.4607 26.3201 26.5439 31.2737 26.5823Z" fill="url(#paint3_linear_10410_125807)"/>
<path d="M6.5634 25.9099C6.6498 21.8251 9.7986 18.2059 13.9746 17.4619C18.189 16.7131 22.461 19.1755 23.949 23.1691C24.3378 24.2107 24.4482 25.2763 24.5154 26.3611C24.5346 26.6923 24.4146 26.9851 24.1362 27.2155C22.1634 28.8523 20.9586 30.9451 20.4498 33.4507C20.3826 33.7771 20.2434 34.0075 19.941 34.1659C16.965 35.7547 13.9746 35.8027 11.0322 34.1323C8.5218 32.7067 7.0722 30.5083 6.6258 27.6571C6.5778 27.3547 6.5922 27.0427 6.5634 26.7355C6.5346 26.4427 6.5202 26.1547 6.5634 25.9099Z" fill="url(#paint4_linear_10410_125807)"/>
<path d="M46.0482 35.3661C44.877 35.3229 43.7346 35.1165 42.6354 34.6797C42.2946 34.5453 42.1122 34.3341 42.069 33.9741C41.8386 32.1069 41.0658 30.4653 39.957 28.9629C39.2466 28.0029 38.3826 27.1965 37.3986 26.5245C37.1394 26.3517 37.0338 26.1549 37.053 25.8429C37.2546 22.5021 38.8434 19.9917 41.7522 18.4317C44.9442 16.7181 48.1602 16.9245 51.1458 18.9693C53.5122 20.5917 54.8082 22.8957 54.9618 25.8045C55.1298 29.0349 53.8962 31.6221 51.3618 33.5853C50.2578 34.4397 48.9858 34.9725 47.5938 35.1933C47.0802 35.2749 46.581 35.4237 46.0482 35.3661Z" fill="url(#paint5_linear_10410_125807)"/>
<g filter="url(#filter0_d_10410_125807)">
<path d="M45.6258 10.7768V17.2664C45.6258 26.4296 39.765 34.5608 31.0722 37.4552C22.3794 34.556 16.5186 26.4248 16.5186 17.2664V10.7768L31.0722 3.5L45.6258 10.7768Z" fill="url(#paint6_linear_10410_125807)"/>
<path d="M17.5938 10.7767C22.2978 8.24233 27.2753 5.73193 32.0561 3.31753L32.1474 3.26953L32.2386 3.31753C37.0242 5.73193 41.997 8.23753 46.701 10.7767C41.853 8.53513 36.8561 6.05833 32.0561 3.68233H32.2386C27.4386 6.06313 22.4466 8.53033 17.5938 10.7767Z" fill="white"/>
<g opacity="0.46">
<path d="M31.5953 3.50022L46.1489 10.777V17.2666C46.1489 26.4298 40.2881 34.561 31.5953 37.4554C22.9025 34.5562 17.0417 26.425 17.0417 17.2666V10.777L31.5953 3.50022ZM31.5953 2.89062C31.4993 2.89062 31.4081 2.90983 31.3217 2.95303L16.7681 10.2298C16.5617 10.3354 16.4321 10.5466 16.4321 10.777V17.2666C16.4321 26.7034 22.4465 35.0506 31.4033 38.0362C31.4657 38.0554 31.5329 38.0698 31.5953 38.0698C31.6577 38.0698 31.7249 38.0602 31.7873 38.0362C40.7441 35.0506 46.7585 26.7034 46.7585 17.2666V10.777C46.7585 10.5466 46.6289 10.3354 46.4225 10.2298L31.8689 2.95303C31.7825 2.90983 31.6913 2.89062 31.5953 2.89062Z" fill="white"/>
</g>
</g>
<g style="mix-blend-mode:overlay">
<g opacity="0.6">
<path style="mix-blend-mode:hard-light" d="M50.5743 0.0668134C53.9689 1.18077 51.0947 15.933 44.1497 33.018C37.2048 50.1029 28.8204 63.051 25.4257 61.9327C22.0311 60.8187 24.9053 46.0665 31.8503 28.9815C38.7952 11.9009 47.1796 -1.04714 50.5743 0.0668134Z" fill="url(#paint7_radial_10410_125807)"/>
<path d="M48.3424 0.536026C50.0176 1.15043 46.84 14.0768 41.2432 29.408C35.6416 44.744 29.7472 56.6768 28.0672 56.0624C26.392 55.448 29.5696 42.5216 35.1664 27.1904C40.7632 11.8592 46.6624 -0.0735738 48.3424 0.536026Z" fill="url(#paint8_radial_10410_125807)"/>
</g>
</g>
<path d="M37.9793 16.7976V20.0376H24.4097V16.7976H37.9793ZM32.9009 25.2024H29.4929V11.6328H32.9009V25.2024Z" fill="white"/>
<defs>
<filter id="filter0_d_10410_125807" x="12.0737" y="-1.46777" width="39.043" height="43.8965" filterUnits="userSpaceOnUse" color-interpolation-filters="sRGB">
<feFlood flood-opacity="0" result="BackgroundImageFix"/>
<feColorMatrix in="SourceAlpha" type="matrix" values="0 0 0 0 0 0 0 0 0 0 0 0 0 0 0 0 0 0 127 0" result="hardAlpha"/>
<feOffset/>
<feGaussianBlur stdDeviation="2.1792"/>
<feColorMatrix type="matrix" values="0 0 0 0 0 0 0 0 0 1 0 0 0 0 0.282353 0 0 0 0.75 0"/>
<feBlend mode="normal" in2="BackgroundImageFix" result="effect1_dropShadow_10410_125807"/>
<feBlend mode="normal" in="SourceGraphic" in2="effect1_dropShadow_10410_125807" result="shape"/>
</filter>
<linearGradient id="paint0_linear_10410_125807" x1="0.265625" y1="47.6393" x2="23.512" y2="47.6393" gradientUnits="userSpaceOnUse">
<stop stop-color="#00FFC0"/>
<stop offset="0.1" stop-color="#00F3AE"/>
<stop offset="0.39" stop-color="#00D17B"/>
<stop offset="0.66" stop-color="#00B856"/>
<stop offset="0.87" stop-color="#00A940"/>
<stop offset="1" stop-color="#01A438"/>
</linearGradient>
<linearGradient id="paint1_linear_10410_125807" x1="38.9057" y1="47.6687" x2="61.2546" y2="47.6687" gradientUnits="userSpaceOnUse">
<stop stop-color="#00FFC0"/>
<stop offset="0.1" stop-color="#00F3AE"/>
<stop offset="0.39" stop-color="#00D17B"/>
<stop offset="0.66" stop-color="#00B856"/>
<stop offset="0.87" stop-color="#00A940"/>
<stop offset="1" stop-color="#01A438"/>
</linearGradient>
<linearGradient id="paint2_linear_10410_125807" x1="15.8415" y1="56.9317" x2="46.5423" y2="56.9317" gradientUnits="userSpaceOnUse">
<stop stop-color="#00FFC0"/>
<stop offset="0.1" stop-color="#00F3AE"/>
<stop offset="0.39" stop-color="#00D17B"/>
<stop offset="0.66" stop-color="#00B856"/>
<stop offset="0.87" stop-color="#00A940"/>
<stop offset="1" stop-color="#01A438"/>
</linearGradient>
<linearGradient id="paint3_linear_10410_125807" x1="22.2017" y1="35.5823" x2="40.2113" y2="35.5823" gradientUnits="userSpaceOnUse">
<stop stop-color="#00FFC0"/>
<stop offset="0.1" stop-color="#00F3AE"/>
<stop offset="0.39" stop-color="#00D17B"/>
<stop offset="0.66" stop-color="#00B856"/>
<stop offset="0.87" stop-color="#00A940"/>
<stop offset="1" stop-color="#01A438"/>
</linearGradient>
<linearGradient id="paint4_linear_10410_125807" x1="6.5298" y1="26.3515" x2="24.5154" y2="26.3515" gradientUnits="userSpaceOnUse">
<stop stop-color="#00FFC0"/>
<stop offset="0.1" stop-color="#00F3AE"/>
<stop offset="0.39" stop-color="#00D17B"/>
<stop offset="0.66" stop-color="#00B856"/>
<stop offset="0.87" stop-color="#00A940"/>
<stop offset="1" stop-color="#01A438"/>
</linearGradient>
<linearGradient id="paint5_linear_10410_125807" x1="37.053" y1="26.3325" x2="54.9762" y2="26.3325" gradientUnits="userSpaceOnUse">
<stop stop-color="#00FFC0"/>
<stop offset="0.1" stop-color="#00F3AE"/>
<stop offset="0.39" stop-color="#00D17B"/>
<stop offset="0.66" stop-color="#00B856"/>
<stop offset="0.87" stop-color="#00A940"/>
<stop offset="1" stop-color="#01A438"/>
</linearGradient>
<linearGradient id="paint6_linear_10410_125807" x1="16.5186" y1="20.4776" x2="45.6258" y2="20.4776" gradientUnits="userSpaceOnUse">
<stop stop-color="white" stop-opacity="0.9"/>
<stop offset="0.03" stop-color="white" stop-opacity="0.79"/>
<stop offset="0.07" stop-color="white" stop-opacity="0.69"/>
<stop offset="0.11" stop-color="white" stop-opacity="0.6"/>
<stop offset="0.15" stop-color="white" stop-opacity="0.55"/>
<stop offset="0.2" stop-color="white" stop-opacity="0.51"/>
<stop offset="0.28" stop-color="white" stop-opacity="0.5"/>
<stop offset="0.46" stop-color="#FDFDFD" stop-opacity="0.48"/>
<stop offset="0.67" stop-color="#F9F9F9" stop-opacity="0.43"/>
<stop offset="0.89" stop-color="#F3F3F3" stop-opacity="0.35"/>
<stop offset="1" stop-color="#EFEFEF" stop-opacity="0.3"/>
</linearGradient>
<radialGradient id="paint7_radial_10410_125807" cx="0" cy="0" r="1" gradientUnits="userSpaceOnUse" gradientTransform="translate(21.7102 25.5212) rotate(-67.8769) scale(33.3872 6.48459)">
<stop stop-color="white" stop-opacity="0.6"/>
<stop offset="0.15" stop-color="white" stop-opacity="0.45"/>
<stop offset="0.33" stop-color="white" stop-opacity="0.29"/>
<stop offset="0.52" stop-color="white" stop-opacity="0.16"/>
<stop offset="0.69" stop-color="white" stop-opacity="0.07"/>
<stop offset="0.86" stop-color="white" stop-opacity="0.02"/>
<stop offset="1" stop-color="white" stop-opacity="0"/>
</radialGradient>
<radialGradient id="paint8_radial_10410_125807" cx="0" cy="0" r="1" gradientUnits="userSpaceOnUse" gradientTransform="translate(29.37 25.4839) rotate(-69.94) scale(29.5596 3.2387)">
<stop stop-color="white" stop-opacity="0.96"/>
<stop offset="0.05" stop-color="white" stop-opacity="0.78"/>
<stop offset="0.09" stop-color="white" stop-opacity="0.61"/>
<stop offset="0.14" stop-color="white" stop-opacity="0.47"/>
<stop offset="0.2" stop-color="white" stop-opacity="0.34"/>
<stop offset="0.25" stop-color="white" stop-opacity="0.23"/>
<stop offset="0.32" stop-color="white" stop-opacity="0.15"/>
<stop offset="0.4" stop-color="white" stop-opacity="0.08"/>
<stop offset="0.49" stop-color="white" stop-opacity="0.03"/>
<stop offset="0.63" stop-color="white" stop-opacity="0"/>
<stop offset="1" stop-color="white" stop-opacity="0"/>
</radialGradient>
</defs>
</svg>
