<svg width="199" height="22" viewBox="0 0 199 22" fill="none" xmlns="http://www.w3.org/2000/svg">
<path d="M1.70917 20.9578C3.64171 10.525 14.088 2.03593 24.9988 2.02577L25.1375 1.27178C25.2311 0.76386 24.8229 0.298828 24.284 0.298828H4.38135C3.96079 0.298828 3.60112 0.58778 3.52783 0.983961L0.0134086 20.0435C-0.080174 20.5514 0.327982 21.0165 0.866927 21.0165H1.71143C1.71143 20.9973 1.70579 20.9781 1.7103 20.9578H1.70917Z" fill="#0E2B72"/>
<path d="M13.8518 16.5421H12.8157C12.7751 16.5421 12.7412 16.5692 12.7334 16.6065L12.5687 17.4304C12.5586 17.4801 12.5981 17.5253 12.651 17.5253H13.6771C13.9939 17.5253 14.4923 17.4259 14.4866 16.9857C14.481 16.6776 14.1315 16.541 13.8518 16.541V16.5421Z" fill="#0E2B72"/>
<path d="M14.1182 15.0617H13.0945C13.0539 15.0617 13.0189 15.0899 13.0122 15.1271L12.878 15.8405C12.869 15.889 12.9084 15.9342 12.9603 15.9342H13.966C14.4261 15.9342 14.6606 15.7096 14.6606 15.4579C14.6606 15.2062 14.4745 15.0605 14.1194 15.0605L14.1182 15.0617Z" fill="#0E2B72"/>
<path d="M2.49194 21.015H20.7733C21.1938 21.015 21.5535 20.726 21.6268 20.3298L24.8638 2.77148C14.3871 2.85275 4.3884 10.9976 2.49194 21.015ZM14.8663 16.333C15.1662 16.5182 15.2981 16.8342 15.2305 17.1694C15.0828 17.9076 14.3386 18.1266 13.5618 18.1266H11.8446C11.7927 18.1266 11.7532 18.0814 11.7623 18.0329L12.4061 14.5305C12.4128 14.4921 12.4478 14.4639 12.4884 14.4639H14.2349C14.979 14.4639 15.3511 14.877 15.3624 15.3477C15.3669 15.6468 15.2192 15.9922 14.8685 16.1965C14.8144 16.2281 14.8144 16.3003 14.8663 16.3319V16.333ZM19.5758 14.5531C19.0719 14.9966 18.569 15.4414 18.065 15.8849C18.0255 15.9199 17.9894 15.9448 18.0244 16.0114C18.3875 16.6954 18.746 17.3805 19.1057 18.0656C19.1147 18.0826 19.1666 18.139 19.1294 18.1401C18.525 18.1435 18.8317 18.1413 18.2274 18.1446C18.1597 18.1446 18.1349 18.1153 18.109 18.0645C17.8598 17.5667 17.6084 17.0701 17.358 16.5735C17.3254 16.508 17.2374 16.4933 17.1833 16.5407C17.0108 16.6942 16.8405 16.8432 16.6748 16.9945C16.6511 17.0159 16.6455 17.0577 16.6387 17.0915C16.5789 17.4098 16.5181 17.7293 16.4639 18.0487C16.4459 18.1514 16.4143 18.1503 16.2125 18.1503C16.0265 18.1503 15.6172 18.139 15.5552 18.1356C15.7795 16.9256 16.0017 15.7224 16.226 14.5147C16.2305 14.4887 16.2542 14.4707 16.2802 14.4707H17.0581C17.092 14.4707 17.119 14.5 17.1123 14.5327C17.0322 14.9763 16.9521 15.4165 16.8676 15.8782C16.9149 15.8387 16.942 15.8161 16.9679 15.7924C17.4313 15.3725 17.8947 14.9538 18.3559 14.5327C18.4111 14.4819 18.4675 14.4628 18.5431 14.4628C18.8757 14.4661 19.2083 14.4639 19.5398 14.4639H19.6446C19.6503 14.4865 19.5973 14.5316 19.5747 14.5508L19.5758 14.5531Z" fill="#0E2B72"/>
<path d="M44.4311 5.29319C44.4605 7.18719 43.4559 9.40625 41.0317 10.4706C43.1593 11.4176 44.1346 13.429 43.7208 15.5894C42.9225 19.7611 38.903 21.0038 34.7064 21.0038H24.8938L28.53 0.292969H38.3426C42.3622 0.292969 44.3725 2.63055 44.4311 5.29319ZM29.2392 17.6019H35.3277C37.0415 17.6019 39.7317 17.0398 39.7024 14.5543C39.6731 12.8082 37.7811 12.0395 36.2737 12.0395H30.3036L29.2392 17.6019ZM30.9237 8.60711H36.8938C39.3766 8.60711 40.6472 7.33505 40.6472 5.91512C40.6472 4.49519 39.6426 3.66671 37.7214 3.66671H31.8099L30.9237 8.60824V8.60711Z" fill="#0E2B72"/>
<path d="M43.425 21.005L47.0601 0.292969H50.932L47.2969 21.005H43.425Z" fill="#0E2B72"/>
<path d="M69.9373 6.00311L61.6028 14.9979H60.8338L55.839 5.97376L53.1792 21.0343H49.2781L52.9131 0.322266H57.4051L62.3109 9.22786L70.3511 0.322266H74.8137L71.1787 21.0331H67.2775L69.9373 6.00311Z" fill="#0E2B72"/>
<path d="M88.5276 17.0985H77.7103L75.2569 21.0038H70.9126L83.8281 0.292969H88.0844L93.7298 21.005H89.5919L88.5276 17.0996V17.0985ZM85.3356 4.49406L79.927 13.4595H87.612L85.3367 4.49406H85.3356Z" fill="#0E2B72"/>
<path d="M111.433 0.440831L99.6107 10.3826L108.714 20.8571L108.685 21.005H106.202L97.5124 10.9752L95.7389 21.005H93.6699L97.305 0.292969H99.3739L97.7481 9.6128L108.861 0.292969H111.433V0.440831Z" fill="#0E2B72"/>
<path d="M123.724 16.2113H111.665L108.68 21.005H106.463L119.38 0.292969H121.449L127.094 21.005H124.996L123.725 16.2113H123.724ZM112.818 14.3173H123.221L120.148 2.51203L112.818 14.3173Z" fill="#0E2B72"/>
<path d="M134.689 21.0637H132.383L127.24 0.292969H129.516L133.831 18.8446L144.767 0.292969H147.073L134.69 21.0637H134.689Z" fill="#0E2B72"/>
<path d="M157.89 16.2113H145.831L142.846 21.005H140.629L153.546 0.292969H155.615L161.26 21.005H159.162L157.891 16.2113H157.89ZM146.984 14.3173H157.387L154.313 2.51203L146.984 14.3173Z" fill="#0E2B72"/>
<path d="M178.225 18.1961C175.771 20.2966 172.935 21.3328 170.156 21.3328C163.92 21.3328 161.053 17.4274 161.053 12.5751C161.053 6.15491 165.694 0 173.85 0C176.51 0 179.259 1.00569 180.677 3.13671L179.199 4.37943C177.81 2.72247 175.77 1.89399 173.554 1.89399C167.022 1.89399 163.15 7.1019 163.15 12.3087C163.15 16.3326 165.514 19.4095 170.48 19.4095C172.697 19.4095 175.179 18.5223 177.13 16.8653L178.224 18.1972L178.225 18.1961Z" fill="#0E2B72"/>
<path d="M193.297 21.005L194.923 11.833H182.39L180.765 21.005H178.696L182.332 0.292969H184.401L182.716 9.87918H195.248L196.933 0.292969H199.002L195.367 21.005H193.298H193.297Z" fill="#0E2B72"/>
</svg>
