<svg width="199" height="41" viewBox="0 0 199 41" fill="none" xmlns="http://www.w3.org/2000/svg">
<path d="M3.39203 40.9999C7.22736 20.295 27.9592 3.44746 49.6129 3.4273L49.8881 1.93094C50.0738 0.922906 49.2638 0 48.1942 0H8.69525C7.86061 0 7.1468 0.573456 7.00136 1.35972L0.0266109 39.1854C-0.159114 40.1935 0.650914 41.1164 1.72051 41.1164H3.39651C3.39651 41.0783 3.38532 41.0402 3.39427 40.9999H3.39203Z" fill="#30404F"/>
<path d="M27.4949 32.2444H25.4385C25.358 32.2444 25.2908 32.2982 25.2752 32.3721L24.9485 34.0074C24.9283 34.1059 25.0067 34.1955 25.1118 34.1955H27.1481C27.7769 34.1955 28.7659 33.9984 28.7547 33.1248C28.7435 32.5132 28.0499 32.2422 27.4949 32.2422V32.2444Z" fill="#30404F"/>
<path d="M28.0265 29.2913H25.9947C25.9141 29.2913 25.8448 29.3473 25.8313 29.4212L25.5651 30.8369C25.5472 30.9333 25.6255 31.0229 25.7284 31.0229H27.7244C28.6373 31.0229 29.1028 30.5771 29.1028 30.0776C29.1028 29.578 28.7336 29.2891 28.0287 29.2891L28.0265 29.2913Z" fill="#30404F"/>
<path d="M4.94531 41.1202H41.2265C42.0612 41.1202 42.775 40.5468 42.9204 39.7605L49.3447 4.91406C28.5525 5.07535 8.70903 21.2396 4.94531 41.1202ZM29.5035 31.8284C30.0987 32.1958 30.3605 32.823 30.2262 33.4883C29.9331 34.9533 28.4563 35.3879 26.9145 35.3879H23.5066C23.4037 35.3879 23.3253 35.2983 23.3432 35.202L24.6209 28.251C24.6344 28.1749 24.7037 28.1189 24.7843 28.1189H28.2504C29.7272 28.1189 30.4657 28.9387 30.488 29.8729C30.497 30.4665 30.2039 31.1519 29.508 31.5574C29.4006 31.6201 29.4006 31.7635 29.5035 31.8262V31.8284ZM38.8501 28.2958C37.8499 29.1762 36.8519 30.0588 35.8517 30.9391C35.7734 31.0086 35.7018 31.0578 35.7711 31.19C36.4917 32.5475 37.2032 33.9072 37.917 35.2669C37.9349 35.3005 38.0379 35.4125 37.964 35.4148C36.7646 35.4215 37.3733 35.417 36.1739 35.4237C36.0396 35.4237 35.9904 35.3655 35.939 35.2647C35.4444 34.2768 34.9454 33.2912 34.4487 32.3056C34.3838 32.1756 34.2093 32.1465 34.1018 32.2406C33.7595 32.5452 33.4216 32.8409 33.0927 33.1411C33.0457 33.1837 33.0345 33.2665 33.0211 33.3337C32.9025 33.9654 32.7816 34.5994 32.6742 35.2333C32.6384 35.4372 32.5758 35.4349 32.1752 35.4349C31.806 35.4349 30.9938 35.4125 30.8707 35.4058C31.316 33.0045 31.7568 30.6166 32.2021 28.2197C32.211 28.1682 32.258 28.1323 32.3095 28.1323H33.8535C33.9206 28.1323 33.9743 28.1906 33.9609 28.2555C33.802 29.1359 33.6431 30.0095 33.4753 30.9257C33.5693 30.8473 33.623 30.8025 33.6745 30.7554C34.5941 29.9221 35.5138 29.0911 36.429 28.2555C36.5386 28.1547 36.6505 28.1166 36.8004 28.1166C37.4606 28.1234 38.1207 28.1189 38.7785 28.1189H38.9866C38.9978 28.1637 38.8926 28.2533 38.8479 28.2914L38.8501 28.2958Z" fill="#30404F"/>
<path d="M61.9148 4.56055L61.9148 36.5605" stroke="#D9D9D9" stroke-linecap="round"/>
<path d="M79.7708 11.3045H85.6428C85.6748 11.6725 85.6908 11.9765 85.6908 12.2325C85.6908 15.4165 83.4188 17.8005 80.2508 17.8005C77.0508 17.8005 74.5548 15.3525 74.5548 12.2005C74.5548 9.06455 77.0348 6.60055 80.1868 6.60055C82.4428 6.60055 84.5708 7.65655 85.3388 9.83255L83.3868 10.5205C82.6028 9.01655 81.3548 8.64855 80.1868 8.64855C78.2668 8.64855 76.7628 10.1845 76.7628 12.2005C76.7628 14.2325 78.3148 15.7685 80.3148 15.7685C81.9468 15.7685 83.1628 14.8085 83.5308 13.2885H79.7708V11.3045ZM96.9607 17.5605H94.3047L90.7687 13.6245H89.6327V17.5605H87.4567V6.84055H92.5927C94.8967 6.84055 96.4327 8.20055 96.4327 10.2325C96.4327 12.0245 95.2327 13.3045 93.3607 13.5765L96.9607 17.5605ZM89.6327 11.6565H92.5927C93.6007 11.6565 94.2727 11.0805 94.2727 10.2325C94.2727 9.38455 93.6007 8.80855 92.5927 8.80855H89.6327V11.6565ZM103.25 6.60055C106.418 6.60055 108.898 9.09655 108.898 12.2165C108.898 15.3365 106.418 17.8005 103.25 17.8005C100.082 17.8005 97.6017 15.3365 97.6017 12.2165C97.6017 9.09655 100.082 6.60055 103.25 6.60055ZM103.25 15.7525C105.186 15.7525 106.706 14.2645 106.706 12.2165C106.706 10.1685 105.186 8.64855 103.25 8.64855C101.314 8.64855 99.7937 10.1685 99.7937 12.2165C99.7937 14.2645 101.314 15.7525 103.25 15.7525ZM119.892 6.84055V12.7605C119.892 15.7685 118.052 17.8005 115.284 17.8005C112.452 17.8005 110.564 15.7685 110.564 12.7605V6.84055H112.74V12.7605C112.74 14.5525 113.748 15.7205 115.284 15.7205C116.74 15.7205 117.716 14.5525 117.716 12.7605V6.84055H119.892ZM122.035 6.84055H127.027C129.491 6.84055 130.995 8.29655 130.995 10.4405C130.995 12.6165 129.491 14.0565 127.027 14.0565H124.211V17.5605H122.035V6.84055ZM124.211 12.0885H127.027C128.195 12.0885 128.835 11.4325 128.835 10.4405C128.835 9.48055 128.195 8.80855 127.027 8.80855H124.211V12.0885ZM146.038 6.84055V17.5605H143.862V13.1605H138.742V17.5605H136.566V6.84055H138.742V11.1925H143.862V6.84055H146.038ZM156.429 15.5925V17.5605H148.285V6.84055H156.397V8.80855H150.461V11.2245H155.933V13.1605H150.461V15.5925H156.429ZM168.617 17.5605H166.265L165.337 15.2725H160.601L159.657 17.5605H157.305L161.945 6.84055H163.977L168.617 17.5605ZM164.521 13.3045L162.969 9.48055L161.401 13.3045H164.521ZM177.45 15.5925V17.5605H169.738V6.84055H171.914V15.5925H177.45ZM186.234 8.80855H182.666V17.5605H180.49V8.80855H176.922V6.84055H186.234V8.80855ZM197.147 6.84055V17.5605H194.971V13.1605H189.851V17.5605H187.675V6.84055H189.851V11.1925H194.971V6.84055H197.147ZM77.2108 33.5605H75.0348V22.8405H77.2108V33.5605ZM89.3927 22.8405V33.5605H87.5687L81.6327 26.6805V33.5605H79.4567V22.8405H81.2807L87.2167 29.9125V22.8405H89.3927ZM95.5645 22.6005C97.7405 22.6005 99.3885 23.7845 99.8045 25.6885L97.6285 26.1365C97.4685 25.1285 96.5885 24.4725 95.5165 24.4725C94.4285 24.4725 93.7725 25.0805 93.7725 25.8005C93.7725 26.3445 94.0125 26.7285 94.8445 26.8885L97.1485 27.3525C98.8925 27.7205 99.9645 28.7605 99.9645 30.4245C99.9645 32.5045 98.2525 33.8005 95.7085 33.8005C93.4685 33.8005 91.5005 32.7605 91.2285 30.6165L93.5165 30.1525C93.8045 31.3685 94.7005 31.8965 95.9165 31.8965C97.1645 31.8965 97.8205 31.3045 97.8205 30.5365C97.8205 29.9285 97.5325 29.5605 96.5725 29.3685L94.3005 28.9365C93.0205 28.6645 91.4845 27.9605 91.4845 25.8645C91.4845 23.9445 93.0525 22.6005 95.5645 22.6005ZM111.111 22.8405V28.7605C111.111 31.7685 109.271 33.8005 106.503 33.8005C103.671 33.8005 101.783 31.7685 101.783 28.7605V22.8405H103.959V28.7605C103.959 30.5525 104.967 31.7205 106.503 31.7205C107.959 31.7205 108.935 30.5525 108.935 28.7605V22.8405H111.111ZM122.758 33.5605H120.102L116.566 29.6245H115.43V33.5605H113.254V22.8405H118.39C120.694 22.8405 122.23 24.2005 122.23 26.2325C122.23 28.0245 121.03 29.3045 119.158 29.5765L122.758 33.5605ZM115.43 27.6565H118.39C119.398 27.6565 120.07 27.0805 120.07 26.2325C120.07 25.3845 119.398 24.8085 118.39 24.8085H115.43V27.6565ZM134.383 33.5605H132.031L131.103 31.2725H126.367L125.423 33.5605H123.071L127.711 22.8405H129.743L134.383 33.5605ZM130.287 29.3045L128.735 25.4805L127.167 29.3045H130.287ZM145.44 22.8405V33.5605H143.616L137.68 26.6805V33.5605H135.504V22.8405H137.328L143.264 29.9125V22.8405H145.44ZM152.827 31.7685C154.315 31.7685 155.595 30.9525 155.995 29.0805L158.107 29.5125C157.579 32.2645 155.403 33.8005 152.827 33.8005C149.675 33.8005 147.195 31.3525 147.195 28.2005C147.195 25.0645 149.675 22.6005 152.827 22.6005C155.403 22.6005 157.563 24.1525 158.107 26.7285L155.995 27.3205C155.595 25.4645 154.315 24.6485 152.827 24.6485C150.907 24.6485 149.387 26.1685 149.387 28.2005C149.387 30.2325 150.907 31.7685 152.827 31.7685ZM168.007 31.5925V33.5605H159.863V22.8405H167.975V24.8085H162.039V27.2245H167.511V29.1605H162.039V31.5925H168.007Z" fill="#30404F"/>
</svg>
