<svg width="223" height="41" viewBox="0 0 223 41" fill="none" xmlns="http://www.w3.org/2000/svg">
<path d="M3.39203 40.9999C7.22736 20.295 27.9592 3.44746 49.6129 3.4273L49.8881 1.93094C50.0738 0.922906 49.2638 0 48.1942 0H8.69525C7.86061 0 7.1468 0.573456 7.00136 1.35972L0.0266109 39.1854C-0.159114 40.1935 0.650914 41.1164 1.72051 41.1164H3.39651C3.39651 41.0783 3.38532 41.0402 3.39427 40.9999H3.39203Z" fill="#30404F"/>
<path d="M27.4949 32.2444H25.4385C25.358 32.2444 25.2908 32.2982 25.2752 32.3721L24.9485 34.0074C24.9283 34.1059 25.0067 34.1955 25.1118 34.1955H27.1481C27.7769 34.1955 28.7659 33.9984 28.7547 33.1248C28.7435 32.5132 28.0499 32.2422 27.4949 32.2422V32.2444Z" fill="#30404F"/>
<path d="M28.0265 29.2913H25.9947C25.9141 29.2913 25.8448 29.3473 25.8313 29.4212L25.5651 30.8369C25.5472 30.9333 25.6255 31.0229 25.7284 31.0229H27.7244C28.6373 31.0229 29.1028 30.5771 29.1028 30.0776C29.1028 29.578 28.7336 29.2891 28.0287 29.2891L28.0265 29.2913Z" fill="#30404F"/>
<path d="M4.94531 41.1202H41.2265C42.0612 41.1202 42.775 40.5468 42.9204 39.7605L49.3447 4.91406C28.5525 5.07535 8.70903 21.2396 4.94531 41.1202ZM29.5035 31.8284C30.0987 32.1958 30.3605 32.823 30.2262 33.4883C29.9331 34.9533 28.4563 35.3879 26.9145 35.3879H23.5066C23.4037 35.3879 23.3253 35.2983 23.3432 35.202L24.6209 28.251C24.6344 28.1749 24.7037 28.1189 24.7843 28.1189H28.2504C29.7272 28.1189 30.4657 28.9387 30.488 29.8729C30.497 30.4665 30.2039 31.1519 29.508 31.5574C29.4006 31.6201 29.4006 31.7635 29.5035 31.8262V31.8284ZM38.8501 28.2958C37.8499 29.1762 36.8519 30.0588 35.8517 30.9391C35.7734 31.0086 35.7018 31.0578 35.7711 31.19C36.4917 32.5475 37.2032 33.9072 37.917 35.2669C37.9349 35.3005 38.0379 35.4125 37.964 35.4148C36.7646 35.4215 37.3733 35.417 36.1739 35.4237C36.0396 35.4237 35.9904 35.3655 35.939 35.2647C35.4444 34.2768 34.9454 33.2912 34.4487 32.3056C34.3838 32.1756 34.2093 32.1465 34.1018 32.2406C33.7595 32.5452 33.4216 32.8409 33.0927 33.1411C33.0457 33.1837 33.0345 33.2665 33.0211 33.3337C32.9025 33.9654 32.7816 34.5994 32.6742 35.2333C32.6384 35.4372 32.5758 35.4349 32.1752 35.4349C31.806 35.4349 30.9938 35.4125 30.8707 35.4058C31.316 33.0045 31.7568 30.6166 32.2021 28.2197C32.211 28.1682 32.258 28.1323 32.3095 28.1323H33.8535C33.9206 28.1323 33.9743 28.1906 33.9609 28.2555C33.802 29.1359 33.6431 30.0095 33.4753 30.9257C33.5693 30.8473 33.623 30.8025 33.6745 30.7554C34.5941 29.9221 35.5138 29.0911 36.429 28.2555C36.5386 28.1547 36.6505 28.1166 36.8004 28.1166C37.4606 28.1234 38.1207 28.1189 38.7785 28.1189H38.9866C38.9978 28.1637 38.8926 28.2533 38.8479 28.2914L38.8501 28.2958Z" fill="#30404F"/>
<path d="M61.9148 4.55859L61.9148 36.5586" stroke="#D9D9D9" stroke-linecap="round"/>
<path d="M79.7708 11.3026H85.6428C85.6748 11.6706 85.6908 11.9746 85.6908 12.2306C85.6908 15.4146 83.4188 17.7986 80.2508 17.7986C77.0508 17.7986 74.5548 15.3506 74.5548 12.1986C74.5548 9.06259 77.0348 6.59859 80.1868 6.59859C82.4428 6.59859 84.5708 7.65459 85.3388 9.83059L83.3868 10.5186C82.6028 9.01459 81.3548 8.64659 80.1868 8.64659C78.2668 8.64659 76.7628 10.1826 76.7628 12.1986C76.7628 14.2306 78.3148 15.7666 80.3148 15.7666C81.9468 15.7666 83.1628 14.8066 83.5308 13.2866H79.7708V11.3026ZM96.9607 17.5586H94.3047L90.7687 13.6226H89.6327V17.5586H87.4567V6.83859H92.5927C94.8967 6.83859 96.4327 8.19859 96.4327 10.2306C96.4327 12.0226 95.2327 13.3026 93.3607 13.5746L96.9607 17.5586ZM89.6327 11.6546H92.5927C93.6007 11.6546 94.2727 11.0786 94.2727 10.2306C94.2727 9.38259 93.6007 8.80659 92.5927 8.80659H89.6327V11.6546ZM103.25 6.59859C106.418 6.59859 108.898 9.09459 108.898 12.2146C108.898 15.3346 106.418 17.7986 103.25 17.7986C100.082 17.7986 97.6017 15.3346 97.6017 12.2146C97.6017 9.09459 100.082 6.59859 103.25 6.59859ZM103.25 15.7506C105.186 15.7506 106.706 14.2626 106.706 12.2146C106.706 10.1666 105.186 8.64659 103.25 8.64659C101.314 8.64659 99.7937 10.1666 99.7937 12.2146C99.7937 14.2626 101.314 15.7506 103.25 15.7506ZM119.892 6.83859V12.7586C119.892 15.7666 118.052 17.7986 115.284 17.7986C112.452 17.7986 110.564 15.7666 110.564 12.7586V6.83859H112.74V12.7586C112.74 14.5506 113.748 15.7186 115.284 15.7186C116.74 15.7186 117.716 14.5506 117.716 12.7586V6.83859H119.892ZM122.035 6.83859H127.027C129.491 6.83859 130.995 8.29459 130.995 10.4386C130.995 12.6146 129.491 14.0546 127.027 14.0546H124.211V17.5586H122.035V6.83859ZM124.211 12.0866H127.027C128.195 12.0866 128.835 11.4306 128.835 10.4386C128.835 9.47859 128.195 8.80659 127.027 8.80659H124.211V12.0866ZM136.566 6.83859H141.558C144.022 6.83859 145.526 8.29459 145.526 10.4386C145.526 12.6146 144.022 14.0546 141.558 14.0546H138.742V17.5586H136.566V6.83859ZM138.742 12.0866H141.558C142.726 12.0866 143.366 11.4306 143.366 10.4386C143.366 9.47859 142.726 8.80659 141.558 8.80659H138.742V12.0866ZM155.351 15.5906V17.5586H147.207V6.83859H155.319V8.80659H149.383V11.2226H154.855V13.1586H149.383V15.5906H155.351ZM166.851 17.5586H164.195L160.659 13.6226H159.523V17.5586H157.347V6.83859H162.483C164.787 6.83859 166.323 8.19859 166.323 10.2306C166.323 12.0226 165.123 13.3026 163.251 13.5746L166.851 17.5586ZM159.523 11.6546H162.483C163.491 11.6546 164.163 11.0786 164.163 10.2306C164.163 9.38259 163.491 8.80659 162.483 8.80659H159.523V11.6546ZM171.986 6.59859C174.162 6.59859 175.81 7.78259 176.226 9.68659L174.05 10.1346C173.89 9.12659 173.01 8.47059 171.938 8.47059C170.85 8.47059 170.194 9.07859 170.194 9.79859C170.194 10.3426 170.434 10.7266 171.266 10.8866L173.57 11.3506C175.314 11.7186 176.386 12.7586 176.386 14.4226C176.386 16.5026 174.674 17.7986 172.13 17.7986C169.89 17.7986 167.922 16.7586 167.65 14.6146L169.938 14.1506C170.226 15.3666 171.122 15.8946 172.338 15.8946C173.586 15.8946 174.242 15.3026 174.242 14.5346C174.242 13.9266 173.954 13.5586 172.994 13.3666L170.722 12.9346C169.442 12.6626 167.906 11.9586 167.906 9.86259C167.906 7.94259 169.474 6.59859 171.986 6.59859ZM183.375 6.59859C186.543 6.59859 189.023 9.09459 189.023 12.2146C189.023 15.3346 186.543 17.7986 183.375 17.7986C180.207 17.7986 177.727 15.3346 177.727 12.2146C177.727 9.09459 180.207 6.59859 183.375 6.59859ZM183.375 15.7506C185.311 15.7506 186.831 14.2626 186.831 12.2146C186.831 10.1666 185.311 8.64659 183.375 8.64659C181.439 8.64659 179.919 10.1666 179.919 12.2146C179.919 14.2626 181.439 15.7506 183.375 15.7506ZM200.721 6.83859V17.5586H198.897L192.961 10.6786V17.5586H190.785V6.83859H192.609L198.545 13.9106V6.83859H200.721ZM213.055 17.5586H210.703L209.775 15.2706H205.039L204.095 17.5586H201.743L206.383 6.83859H208.415L213.055 17.5586ZM208.959 13.3026L207.407 9.47859L205.839 13.3026H208.959ZM221.887 15.5906V17.5586H214.175V6.83859H216.351V15.5906H221.887ZM85.2268 33.5586H82.8748L81.9468 31.2706H77.2108L76.2668 33.5586H73.9148L78.5548 22.8386H80.5868L85.2268 33.5586ZM81.1308 29.3026L79.5788 25.4786L78.0108 29.3026H81.1308ZM91.1868 31.7666C92.6748 31.7666 93.9548 30.9506 94.3548 29.0786L96.4668 29.5106C95.9388 32.2626 93.7628 33.7986 91.1868 33.7986C88.0348 33.7986 85.5548 31.3506 85.5548 28.1986C85.5548 25.0626 88.0348 22.5986 91.1868 22.5986C93.7628 22.5986 95.9228 24.1506 96.4668 26.7266L94.3548 27.3186C93.9548 25.4626 92.6748 24.6466 91.1868 24.6466C89.2668 24.6466 87.7468 26.1666 87.7468 28.1986C87.7468 30.2306 89.2668 31.7666 91.1868 31.7666ZM103.374 31.7666C104.862 31.7666 106.142 30.9506 106.542 29.0786L108.654 29.5106C108.126 32.2626 105.95 33.7986 103.374 33.7986C100.222 33.7986 97.7423 31.3506 97.7423 28.1986C97.7423 25.0626 100.222 22.5986 103.374 22.5986C105.95 22.5986 108.11 24.1506 108.654 26.7266L106.542 27.3186C106.142 25.4626 104.862 24.6466 103.374 24.6466C101.454 24.6466 99.9343 26.1666 99.9343 28.1986C99.9343 30.2306 101.454 31.7666 103.374 31.7666ZM112.586 33.5586H110.41V22.8386H112.586V33.5586ZM114.832 22.8386H118.784C122.32 22.8386 124.672 24.9986 124.672 28.1986C124.672 31.3986 122.32 33.5586 118.784 33.5586H114.832V22.8386ZM117.008 31.5906H118.784C121.008 31.5906 122.48 30.2786 122.48 28.1986C122.48 26.1186 121.008 24.8066 118.784 24.8066H117.008V31.5906ZM134.569 31.5906V33.5586H126.425V22.8386H134.537V24.8066H128.601V27.2226H134.073V29.1586H128.601V31.5906H134.569ZM146.502 22.8386V33.5586H144.678L138.742 26.6786V33.5586H136.566V22.8386H138.39L144.326 29.9106V22.8386H146.502ZM157.25 24.8066H153.682V33.5586H151.506V24.8066H147.938V22.8386H157.25V24.8066Z" fill="#30404F"/>
</svg>
