<svg width="26" height="26" viewBox="0 0 26 26" fill="none" xmlns="http://www.w3.org/2000/svg">
<path d="M14.1818 7.68182C14.1818 8.33452 13.6527 8.86364 13 8.86364C12.3473 8.86364 11.8182 8.33452 11.8182 7.68182C11.8182 7.02912 12.3473 6.5 13 6.5C13.6527 6.5 14.1818 7.02912 14.1818 7.68182Z" fill="#2E2E2E"/>
<path d="M10.6364 12.1136C10.6364 11.6241 11.0332 11.2273 11.5227 11.2273H13.2955C13.785 11.2273 14.1818 11.6241 14.1818 12.1136V17.1364H15.0682C15.5577 17.1364 15.9545 17.5332 15.9545 18.0227C15.9545 18.5123 15.5577 18.9091 15.0682 18.9091H11.5227C11.0332 18.9091 10.6364 18.5123 10.6364 18.0227C10.6364 17.5332 11.0332 17.1364 11.5227 17.1364H12.4091V13H11.5227C11.0332 13 10.6364 12.6032 10.6364 12.1136Z" fill="#2E2E2E"/>
<path fill-rule="evenodd" clip-rule="evenodd" d="M13 0C5.8203 0 0 5.8203 0 13C0 20.1797 5.8203 26 13 26C20.1797 26 26 20.1797 26 13C26 5.8203 20.1797 0 13 0ZM1.77273 13C1.77273 6.79935 6.79935 1.77273 13 1.77273C19.2006 1.77273 24.2273 6.79935 24.2273 13C24.2273 19.2006 19.2006 24.2273 13 24.2273C6.79935 24.2273 1.77273 19.2006 1.77273 13Z" fill="#2E2E2E"/>
</svg>
