<svg width="302" height="265" viewBox="0 0 302 265" fill="none" xmlns="http://www.w3.org/2000/svg">
<g clip-path="url(#clip0_513_28858)">
<path d="M246.755 16.7336C246.755 16.7336 212.662 -8.45325 169.083 5.41932C125.504 19.2919 107.772 56.761 83.0878 83.117C70.1518 96.9456 50.817 102.672 35.3667 113.546C-14.0453 148.325 -5.45902 221.032 33.481 246.803C67.2101 269.136 108.91 269.727 162.828 249.651C216.747 229.574 255.398 217.26 288.172 165.328C320.946 113.395 288.8 51.1165 246.755 16.7336Z" fill="#FFB400"/>
<path opacity="0.8" d="M246.755 16.7336C246.755 16.7336 212.662 -8.45325 169.083 5.41932C125.504 19.2919 107.772 56.761 83.0878 83.117C70.1518 96.9456 50.817 102.672 35.3667 113.546C-14.0453 148.325 -5.45902 221.032 33.481 246.803C67.2101 269.136 108.91 269.727 162.828 249.651C216.747 229.574 255.398 217.26 288.172 165.328C320.946 113.395 288.8 51.1165 246.755 16.7336Z" fill="white"/>
<path d="M255.787 8.19727H45.5549V172.512H255.787V8.19727Z" fill="#0E2B72" stroke="#0E2B72" stroke-width="0.628571" stroke-miterlimit="10"/>
<path d="M263.242 1.76709H52.3752V166.472H263.242V1.76709Z" fill="#FFB400"/>
<path d="M263.242 1.76709H52.3752V166.472H263.242V1.76709Z" fill="white" stroke="#0E2B72" stroke-width="0.628571" stroke-linecap="round" stroke-linejoin="round"/>
<path d="M102.742 25.106H58.1135V53.3917H102.742V25.106Z" fill="white" stroke="#0E2B72" stroke-width="0.628571" stroke-linecap="round" stroke-linejoin="round"/>
<path d="M70.3712 37.3696H89.2284" stroke="#0E2B72" stroke-width="0.628571" stroke-miterlimit="10"/>
<path d="M65.6565 42.084H96.7708" stroke="#0E2B72" stroke-width="0.628571" stroke-miterlimit="10"/>
<path d="M102.742 58.7344H58.1135V87.0201H102.742V58.7344Z" fill="white" stroke="#0E2B72" stroke-width="0.628571" stroke-linecap="round" stroke-linejoin="round"/>
<path d="M62.7581 65.4478H78.4095" stroke="#0E2B72" stroke-width="0.628571" stroke-miterlimit="10"/>
<path d="M62.7581 69.1938H78.4095" stroke="#0E2B72" stroke-width="0.628571" stroke-miterlimit="10"/>
<path d="M62.7581 72.9404H78.4095" stroke="#0E2B72" stroke-width="0.628571" stroke-miterlimit="10"/>
<path d="M62.7581 76.6865H78.4095" stroke="#0E2B72" stroke-width="0.628571" stroke-miterlimit="10"/>
<path d="M62.7581 80.4326H78.4095" stroke="#0E2B72" stroke-width="0.628571" stroke-miterlimit="10"/>
<path d="M82.137 65.4478H97.7884" stroke="#0E2B72" stroke-width="0.628571" stroke-miterlimit="10"/>
<path d="M82.137 69.1938H97.7884" stroke="#0E2B72" stroke-width="0.628571" stroke-miterlimit="10"/>
<path d="M82.137 72.9404H97.7884" stroke="#0E2B72" stroke-width="0.628571" stroke-miterlimit="10"/>
<path d="M82.137 76.6865H97.7884" stroke="#0E2B72" stroke-width="0.628571" stroke-miterlimit="10"/>
<path d="M82.137 80.4326H97.7884" stroke="#0E2B72" stroke-width="0.628571" stroke-miterlimit="10"/>
<path d="M102.742 92.3628H58.1135V120.649H102.742V92.3628Z" fill="white" stroke="#0E2B72" stroke-width="0.628571" stroke-linecap="round" stroke-linejoin="round"/>
<path d="M62.7581 99.0762H78.4095" stroke="#0E2B72" stroke-width="0.628571" stroke-miterlimit="10"/>
<path d="M62.7581 102.823H78.4095" stroke="#0E2B72" stroke-width="0.628571" stroke-miterlimit="10"/>
<path d="M62.7581 106.569H78.4095" stroke="#0E2B72" stroke-width="0.628571" stroke-miterlimit="10"/>
<path d="M62.7581 110.315H78.4095" stroke="#0E2B72" stroke-width="0.628571" stroke-miterlimit="10"/>
<path d="M62.7581 114.062H78.4095" stroke="#0E2B72" stroke-width="0.628571" stroke-miterlimit="10"/>
<path d="M82.137 99.0762H97.7884" stroke="#0E2B72" stroke-width="0.628571" stroke-miterlimit="10"/>
<path d="M82.137 102.823H97.7884" stroke="#0E2B72" stroke-width="0.628571" stroke-miterlimit="10"/>
<path d="M82.137 106.569H97.7884" stroke="#0E2B72" stroke-width="0.628571" stroke-miterlimit="10"/>
<path d="M82.137 110.315H97.7884" stroke="#0E2B72" stroke-width="0.628571" stroke-miterlimit="10"/>
<path d="M82.137 114.062H97.7884" stroke="#0E2B72" stroke-width="0.628571" stroke-miterlimit="10"/>
<path d="M102.742 125.992H58.1135V154.277H102.742V125.992Z" fill="white" stroke="#0E2B72" stroke-width="0.628571" stroke-linecap="round" stroke-linejoin="round"/>
<path d="M62.7581 132.705H78.4095" stroke="#0E2B72" stroke-width="0.628571" stroke-miterlimit="10"/>
<path d="M62.7581 136.451H78.4095" stroke="#0E2B72" stroke-width="0.628571" stroke-miterlimit="10"/>
<path d="M62.7581 140.197H78.4095" stroke="#0E2B72" stroke-width="0.628571" stroke-miterlimit="10"/>
<path d="M62.7581 143.944H78.4095" stroke="#0E2B72" stroke-width="0.628571" stroke-miterlimit="10"/>
<path d="M62.7581 147.69H78.4095" stroke="#0E2B72" stroke-width="0.628571" stroke-miterlimit="10"/>
<path d="M82.137 132.705H97.7884" stroke="#0E2B72" stroke-width="0.628571" stroke-miterlimit="10"/>
<path d="M82.137 136.451H97.7884" stroke="#0E2B72" stroke-width="0.628571" stroke-miterlimit="10"/>
<path d="M82.137 140.197H97.7884" stroke="#0E2B72" stroke-width="0.628571" stroke-miterlimit="10"/>
<path d="M82.137 143.944H97.7884" stroke="#0E2B72" stroke-width="0.628571" stroke-miterlimit="10"/>
<path d="M82.137 147.69H97.7884" stroke="#0E2B72" stroke-width="0.628571" stroke-miterlimit="10"/>
<path d="M263.235 1.76709H109.028V166.472H263.235V1.76709Z" fill="#F5F5F5" stroke="#0E2B72" stroke-width="0.628571" stroke-linecap="round" stroke-linejoin="round"/>
<rect x="113.25" y="29.25" width="139.5" height="129.5" fill="white"/>
<rect x="113.25" y="29.25" width="139.5" height="129.5" stroke="#0E2B72" stroke-width="0.5"/>
<path d="M153.577 67.9277L134.178 82.5581L163.399 121.315L171.001 115.581" stroke="#0E2B72" stroke-width="0.521139" stroke-linecap="round" stroke-linejoin="round"/>
<path d="M143.418 84.7238L156.184 75.0703" stroke="#0E2B72" stroke-width="0.521139" stroke-linecap="round" stroke-linejoin="round"/>
<path d="M147.274 89.8338L158.478 81.3633" stroke="#0E2B72" stroke-width="0.521139" stroke-linecap="round" stroke-linejoin="round"/>
<path d="M151.143 94.9451L160.784 87.6694" stroke="#0E2B72" stroke-width="0.521139" stroke-linecap="round" stroke-linejoin="round"/>
<path d="M204.4 70.7346L199.576 57.5469L183.96 50.082L151.403 61.9833L172.46 119.574L190.02 113.152" stroke="#0E2B72" stroke-width="0.521139" stroke-linecap="round" stroke-linejoin="round"/>
<path d="M188.266 61.8532L183.96 50.082L181.393 51.0166L188.266 61.8532Z" fill="#0E2B72"/>
<path d="M188.266 61.8532L183.96 50.082L181.393 51.0166L188.266 61.8532Z" stroke="#0E2B72" stroke-width="0.521139" stroke-linecap="round" stroke-linejoin="round"/>
<path d="M161.778 67.9931L181.061 60.918" stroke="#0E2B72" stroke-width="0.521139" stroke-linecap="round" stroke-linejoin="round"/>
<path d="M164.569 75.5892L194.559 64.5864" stroke="#0E2B72" stroke-width="0.521139" stroke-linecap="round" stroke-linejoin="round"/>
<path d="M167.35 83.1957L181.038 78.1797" stroke="#0E2B72" stroke-width="0.521139" stroke-linecap="round" stroke-linejoin="round"/>
<path d="M183.959 50.082L188.265 61.8532L199.635 57.7007" stroke="#0E2B72" stroke-width="0.521139" stroke-linecap="round" stroke-linejoin="round"/>
<path d="M181.841 113.329L229.116 112.311L228.252 74.7618C228.224 73.5571 227.718 72.4131 226.846 71.5813C225.974 70.7494 224.808 70.2977 223.603 70.3254L185.426 71.1417C184.221 71.1698 183.076 71.6754 182.244 72.5473C181.412 73.4192 180.96 74.586 180.988 75.791L181.841 113.329Z" stroke="#0E2B72" stroke-width="0.521139" stroke-linecap="round" stroke-linejoin="round"/>
<path d="M236.026 79.3527L211.75 79.8614C211.172 79.8734 210.602 79.722 210.107 79.4246C209.611 79.1272 209.209 78.6959 208.948 78.1803C208.688 77.6655 208.288 77.2346 207.794 76.9372C207.3 76.6398 206.732 76.4879 206.156 76.4991L192.03 76.7712C191.334 76.7845 190.663 77.0342 190.128 77.4792C189.592 77.9243 189.224 78.5382 189.084 79.2201L181.832 113.341L229.119 112.311L237.883 81.9111C237.998 81.6185 238.038 81.301 237.998 80.9878C237.959 80.6751 237.841 80.3774 237.656 80.1224C237.471 79.8673 237.224 79.6632 236.939 79.5289C236.654 79.3943 236.34 79.3337 236.026 79.3527Z" fill="#0E2B72"/>
<path d="M236.026 79.3527L211.75 79.8614C211.172 79.8734 210.602 79.722 210.107 79.4246C209.611 79.1272 209.209 78.6959 208.948 78.1803C208.688 77.6655 208.288 77.2346 207.794 76.9372C207.3 76.6398 206.732 76.4879 206.156 76.4991L192.03 76.7712C191.334 76.7845 190.663 77.0342 190.128 77.4792C189.592 77.9243 189.224 78.5382 189.084 79.2201L181.832 113.341L229.119 112.311L237.883 81.9112C237.998 81.6185 238.038 81.301 237.998 80.9878C237.959 80.6751 237.841 80.3774 237.656 80.1224C237.471 79.8673 237.224 79.6632 236.939 79.5289C236.654 79.3943 236.34 79.3337 236.026 79.3527Z" stroke="#0E2B72" stroke-width="0.521139" stroke-linecap="round" stroke-linejoin="round"/>
<path d="M240.096 84.7573L200.333 85.5736C199.545 85.5875 198.774 85.8065 198.095 86.2089C197.417 86.6113 196.855 87.1833 196.465 87.8686L181.842 113.328L229.116 112.31L242.615 89.0162C242.869 88.5803 243.001 88.0847 243 87.5805C242.998 87.0763 242.861 86.5817 242.605 86.1476C242.348 85.7133 241.981 85.3554 241.539 85.1109C241.098 84.8665 240.6 84.7444 240.096 84.7573Z" fill="#FFB400"/>
<path d="M240.096 84.7573L200.333 85.5736C199.545 85.5875 198.774 85.8065 198.095 86.2089C197.417 86.6113 196.855 87.1833 196.465 87.8686L181.842 113.328L229.116 112.31L242.615 89.0162C242.869 88.5803 243.001 88.0847 243 87.5805C242.998 87.0763 242.862 86.5817 242.605 86.1476C242.348 85.7133 241.981 85.3554 241.539 85.1109C241.098 84.8665 240.6 84.7444 240.096 84.7573Z" stroke="#0E2B72" stroke-width="0.521139" stroke-linecap="round" stroke-linejoin="round"/>
<path d="M197.918 130.684C198.458 130.684 198.975 130.469 199.357 130.088C199.739 129.706 199.953 129.189 199.953 128.649C199.953 128.109 199.739 127.592 199.357 127.21C198.975 126.829 198.458 126.614 197.918 126.614C197.378 126.614 196.861 126.829 196.479 127.21C196.098 127.592 195.883 128.109 195.883 128.649C195.883 129.189 196.098 129.706 196.479 130.088C196.861 130.469 197.378 130.684 197.918 130.684Z" stroke="#0E2B72" stroke-width="0.521139" stroke-linecap="round" stroke-linejoin="round"/>
<path d="M128.756 66.042L128.744 74.1464" stroke="#0E2B72" stroke-width="0.521139" stroke-linecap="round" stroke-linejoin="round"/>
<path d="M132.803 70.1007L124.699 70.0889" stroke="#0E2B72" stroke-width="0.521139" stroke-linecap="round" stroke-linejoin="round"/>
<path d="M219.912 49.7764V47" stroke="#0E2B72" stroke-width="0.521139" stroke-linecap="round" stroke-linejoin="round"/>
<path d="M217.423 52.2676H214.647" stroke="#0E2B72" stroke-width="0.521139" stroke-linecap="round" stroke-linejoin="round"/>
<path d="M219.912 54.7573V57.5343" stroke="#0E2B72" stroke-width="0.521139" stroke-linecap="round" stroke-linejoin="round"/>
<path d="M222.403 52.2676H225.179" stroke="#0E2B72" stroke-width="0.521139" stroke-linecap="round" stroke-linejoin="round"/>
<path d="M219.913 54.758C220.573 54.758 221.207 54.4956 221.674 54.0286C222.141 53.5615 222.403 52.928 222.403 52.2674C222.403 51.6069 222.141 50.9734 221.674 50.5063C221.207 50.0393 220.573 49.7769 219.913 49.7769C219.252 49.7769 218.619 50.0393 218.152 50.5063C217.685 50.9734 217.422 51.6069 217.422 52.2674C217.422 52.928 217.685 53.5615 218.152 54.0286C218.619 54.4956 219.252 54.758 219.913 54.758Z" stroke="#0E2B72" stroke-width="0.521139" stroke-linecap="round" stroke-linejoin="round"/>
<path d="M263.235 1.76709H257.785V166.472H263.235V1.76709Z" fill="#B0B0B0" stroke="#0E2B72" stroke-width="0.628571" stroke-miterlimit="10"/>
<path d="M263.235 52.7944H257.785V97.2973H263.235V52.7944Z" fill="#B0B0B0"/>
<path d="M263.242 1.76709H52.3752V12.4654H263.242V1.76709Z" fill="#FFB400" stroke="#0E2B72" stroke-width="0.628571" stroke-linecap="round" stroke-linejoin="round"/>
<path d="M201.811 3.58984H66.2405V9.62413H201.811V3.58984Z" fill="white"/>
<path d="M252.964 16.2495H242.498" stroke="#0E2B72" stroke-width="0.628571" stroke-miterlimit="10"/>
<path d="M252.964 19.4741H242.498" stroke="#0E2B72" stroke-width="0.628571" stroke-miterlimit="10"/>
<path d="M252.964 22.6924H242.498" stroke="#0E2B72" stroke-width="0.628571" stroke-miterlimit="10"/>
<path d="M265.541 233.761L268.087 226.482" stroke="#0E2B72" stroke-width="0.628571" stroke-linecap="round" stroke-linejoin="round"/>
<path d="M265.725 214.105V241.222" stroke="#0E2B72" stroke-width="0.628571" stroke-linecap="round" stroke-linejoin="round"/>
<path d="M261.55 228.172C261.55 228.172 257.779 224.055 254.008 224.74C250.236 225.426 248.514 229.895 248.514 232.642C248.514 235.389 252.285 244.314 252.285 244.314C252.285 244.314 255.032 241.228 261.217 236.771C267.402 232.315 267.736 227.827 261.55 228.172Z" fill="#FFB400" stroke="#0E2B72" stroke-width="0.628571" stroke-linecap="round" stroke-linejoin="round"/>
<path d="M261.551 228.173C258.314 230.006 255.69 232.755 254.008 236.074" stroke="#0E2B72" stroke-width="0.628571" stroke-linecap="round" stroke-linejoin="round"/>
<path d="M267.709 223.339C267.709 223.339 270.852 219.951 273.938 220.523C277.024 221.095 278.458 224.778 278.451 227.041C278.445 229.304 275.308 236.658 275.308 236.658C273.073 234.341 270.616 232.249 267.973 230.41C262.888 226.721 262.611 223.044 267.709 223.339Z" fill="#FFB400" stroke="#0E2B72" stroke-width="0.628571" stroke-linecap="round" stroke-linejoin="round"/>
<path d="M267.709 223.339C270.377 224.853 272.536 227.123 273.913 229.864" stroke="#0E2B72" stroke-width="0.628571" stroke-linecap="round" stroke-linejoin="round"/>
<path d="M265.178 218.839L269.911 211.918" stroke="#0E2B72" stroke-width="0.628571" stroke-linecap="round" stroke-linejoin="round"/>
<path d="M264.386 216.833C264.386 216.833 264.311 212.232 261.602 210.592C258.892 208.951 255.404 210.761 253.902 212.477C252.399 214.193 249.828 221.724 249.828 221.724C249.828 221.724 253.21 221.315 259.464 221.944C265.719 222.572 268.384 220.001 264.386 216.833Z" fill="#FFB400" stroke="#0E2B72" stroke-width="0.628571" stroke-linecap="round" stroke-linejoin="round"/>
<path d="M264.386 216.833C261.387 216.19 258.264 216.449 255.41 217.575" stroke="#0E2B72" stroke-width="0.628571" stroke-linecap="round" stroke-linejoin="round"/>
<path d="M268.451 210.661C268.451 210.661 268.507 207.273 270.5 206.066C272.493 204.859 275.07 206.192 276.157 207.436C277.245 208.681 279.143 214.256 279.143 214.256C276.78 214.079 274.405 214.134 272.053 214.42C267.464 214.879 265.541 212.993 268.451 210.661Z" fill="#FFB400" stroke="#0E2B72" stroke-width="0.628571" stroke-linecap="round" stroke-linejoin="round"/>
<path d="M268.453 210.661C270.661 210.187 272.96 210.377 275.06 211.207" stroke="#0E2B72" stroke-width="0.628571" stroke-linecap="round" stroke-linejoin="round"/>
<path d="M277.29 238.896H252.895L255.365 264.291H274.819L277.29 238.896Z" fill="white" stroke="#0E2B72" stroke-width="0.628571" stroke-linecap="round" stroke-linejoin="round"/>
<path d="M270.823 249.959C270.823 250.175 270.887 250.387 271.007 250.567C271.127 250.746 271.298 250.887 271.498 250.969C271.698 251.052 271.917 251.074 272.13 251.032C272.342 250.989 272.537 250.885 272.69 250.732C272.843 250.579 272.947 250.385 272.989 250.172C273.031 249.96 273.009 249.74 272.927 249.54C272.844 249.341 272.704 249.17 272.524 249.05C272.344 248.929 272.133 248.865 271.916 248.865C271.772 248.864 271.63 248.892 271.497 248.947C271.364 249.001 271.243 249.082 271.141 249.184C271.039 249.285 270.959 249.406 270.904 249.539C270.849 249.673 270.822 249.815 270.823 249.959Z" fill="#0E2B72" stroke="#0E2B72" stroke-width="0.628571" stroke-linecap="round" stroke-linejoin="round"/>
<path d="M266.799 249.959C266.799 250.175 266.863 250.387 266.983 250.567C267.103 250.746 267.274 250.887 267.474 250.969C267.674 251.052 267.894 251.074 268.106 251.032C268.318 250.989 268.513 250.885 268.666 250.732C268.819 250.579 268.923 250.385 268.965 250.172C269.008 249.96 268.986 249.74 268.903 249.54C268.82 249.341 268.68 249.17 268.5 249.05C268.32 248.929 268.109 248.865 267.893 248.865C267.749 248.864 267.606 248.892 267.473 248.947C267.34 249.001 267.219 249.082 267.117 249.184C267.016 249.285 266.935 249.406 266.881 249.539C266.826 249.673 266.798 249.815 266.799 249.959Z" fill="#0E2B72" stroke="#0E2B72" stroke-width="0.628571" stroke-linecap="round" stroke-linejoin="round"/>
<path d="M253.707 247.225H276.48L276.587 246.137H253.6L253.707 247.225Z" fill="#0E2B72" stroke="#0E2B72" stroke-width="0.628571" stroke-linecap="round" stroke-linejoin="round"/>
<path d="M275.504 257.238L275.963 252.505H254.221L254.68 257.238H275.504Z" fill="#0E2B72" stroke="#0E2B72" stroke-width="0.628571" stroke-linecap="round" stroke-linejoin="round"/>
<path d="M274.826 249.959C274.826 250.102 274.855 250.244 274.91 250.377C274.965 250.509 275.046 250.629 275.147 250.73C275.249 250.831 275.369 250.911 275.502 250.966C275.635 251.02 275.777 251.047 275.92 251.047H276.109L276.31 248.96C276.185 248.912 276.053 248.886 275.92 248.884C275.633 248.884 275.358 248.997 275.153 249.198C274.949 249.399 274.831 249.672 274.826 249.959Z" fill="#0E2B72" stroke="#0E2B72" stroke-width="0.628571" stroke-linecap="round" stroke-linejoin="round"/>
<path d="M262.815 249.959C262.815 250.175 262.879 250.387 262.999 250.567C263.119 250.746 263.29 250.887 263.49 250.969C263.69 251.052 263.91 251.074 264.122 251.032C264.334 250.989 264.529 250.885 264.682 250.732C264.835 250.579 264.939 250.385 264.981 250.172C265.023 249.96 265.002 249.74 264.919 249.54C264.836 249.341 264.696 249.17 264.516 249.05C264.336 248.929 264.125 248.865 263.908 248.865C263.765 248.864 263.622 248.892 263.489 248.947C263.356 249.001 263.235 249.082 263.133 249.184C263.031 249.285 262.951 249.406 262.896 249.539C262.842 249.673 262.814 249.815 262.815 249.959Z" fill="#0E2B72" stroke="#0E2B72" stroke-width="0.628571" stroke-linecap="round" stroke-linejoin="round"/>
<path d="M254.805 249.959C254.805 250.175 254.869 250.387 254.989 250.567C255.109 250.746 255.28 250.887 255.48 250.969C255.68 251.052 255.9 251.074 256.112 251.032C256.324 250.989 256.519 250.885 256.672 250.732C256.825 250.579 256.929 250.385 256.971 250.172C257.014 249.96 256.992 249.74 256.909 249.54C256.826 249.341 256.686 249.17 256.506 249.05C256.326 248.929 256.115 248.865 255.899 248.865C255.755 248.864 255.612 248.892 255.479 248.947C255.346 249.001 255.225 249.082 255.123 249.184C255.022 249.285 254.941 249.406 254.886 249.539C254.832 249.673 254.804 249.815 254.805 249.959Z" fill="#0E2B72" stroke="#0E2B72" stroke-width="0.628571" stroke-linecap="round" stroke-linejoin="round"/>
<path d="M258.811 249.959C258.811 250.175 258.875 250.387 258.995 250.567C259.115 250.746 259.286 250.887 259.486 250.969C259.686 251.052 259.906 251.074 260.118 251.032C260.33 250.989 260.525 250.885 260.678 250.732C260.831 250.579 260.935 250.385 260.977 250.172C261.019 249.96 260.998 249.74 260.915 249.54C260.832 249.341 260.692 249.17 260.512 249.05C260.332 248.929 260.121 248.865 259.905 248.865C259.761 248.864 259.618 248.892 259.485 248.947C259.352 249.001 259.231 249.082 259.129 249.184C259.028 249.285 258.947 249.406 258.892 249.539C258.838 249.673 258.81 249.815 258.811 249.959Z" fill="#0E2B72" stroke="#0E2B72" stroke-width="0.628571" stroke-linecap="round" stroke-linejoin="round"/>
<path d="M103.428 264.291H235.145V260.525H103.428V264.291Z" fill="#F5F5F5" stroke="#0E2B72" stroke-width="0.628571" stroke-linecap="round" stroke-linejoin="round"/>
<path d="M103.429 264.291H149.666V260.525H103.429V264.291Z" fill="#0E2B72" stroke="#0E2B72" stroke-width="0.628571" stroke-linecap="round" stroke-linejoin="round"/>
<path d="M145.938 260.513H231.461L236.402 203.633C236.47 203.008 236.404 202.376 236.208 201.778C236.013 201.181 235.693 200.632 235.269 200.167C234.845 199.703 234.327 199.334 233.75 199.085C233.172 198.837 232.549 198.713 231.92 198.724H156.209C154.874 198.75 153.594 199.263 152.612 200.168C151.63 201.072 151.013 202.305 150.878 203.633L145.938 260.513Z" fill="#0E2B72" stroke="#0E2B72" stroke-width="0.628571" stroke-linecap="round" stroke-linejoin="round"/>
<path d="M147.578 260.513H233.102L238.042 203.633C238.11 203.008 238.044 202.376 237.849 201.778C237.654 201.181 237.333 200.632 236.91 200.167C236.486 199.703 235.968 199.334 235.39 199.085C234.813 198.837 234.189 198.713 233.561 198.724H157.849C156.514 198.75 155.235 199.263 154.253 200.168C153.271 201.072 152.654 202.305 152.519 203.633L147.578 260.513Z" fill="#F5F5F5" stroke="#0E2B72" stroke-width="0.628571" stroke-linecap="round" stroke-linejoin="round"/>
<path d="M190.911 227.827C191.059 226.376 191.733 225.028 192.807 224.04C193.881 223.052 195.279 222.492 196.738 222.466C197.425 222.454 198.106 222.588 198.737 222.859C199.368 223.131 199.934 223.534 200.397 224.041C200.86 224.548 201.21 225.148 201.423 225.801C201.637 226.454 201.709 227.144 201.635 227.827C201.487 229.279 200.813 230.626 199.739 231.614C198.666 232.602 197.267 233.163 195.808 233.189C195.121 233.201 194.44 233.067 193.809 232.795C193.178 232.524 192.612 232.121 192.149 231.614C191.686 231.106 191.336 230.507 191.123 229.854C190.909 229.201 190.837 228.51 190.911 227.827Z" fill="#0E2B72" stroke="#0E2B72" stroke-width="0.628571" stroke-linecap="round" stroke-linejoin="round"/>
<path d="M300.133 264.29H5.57837" stroke="#0E2B72" stroke-width="0.628571" stroke-miterlimit="10"/>
</g>
<defs>
<clipPath id="clip0_513_28858">
<rect width="301.086" height="264" fill="white" transform="translate(0.914307 0.912598)"/>
</clipPath>
</defs>
</svg>
