<svg width="474" height="474" viewBox="0 0 474 474" fill="none" xmlns="http://www.w3.org/2000/svg">
<g clip-path="url(#clip0_513_28227)">
<path d="M150.524 41.7125C150.524 41.7125 72.8355 81.2915 34.1287 142.295C-4.57818 203.299 -1.55406 281.651 45.5047 339.972C92.5634 398.293 182.576 390.577 257.932 427.463C333.289 464.35 416.429 456.766 452.054 378.584C487.68 300.403 433.967 271.214 424.705 180.756C415.443 90.2975 333.953 -42.176 150.524 41.7125Z" fill="#FFB400"/>
<path opacity="0.7" d="M150.524 41.7125C150.524 41.7125 72.8355 81.2915 34.1287 142.295C-4.57818 203.299 -1.55406 281.651 45.5047 339.972C92.5634 398.293 182.576 390.577 257.932 427.463C333.289 464.35 416.429 456.766 452.054 378.584C487.68 300.403 433.967 271.214 424.705 180.756C415.443 90.2975 333.953 -42.176 150.524 41.7125Z" fill="white"/>
<path d="M329.059 33.0806C330.271 35.1144 334.665 38.1071 334.675 38.1071C334.686 38.1071 335.729 34.6086 335.803 34.3873C336.277 31.7213 335.613 26.2943 332.937 24.9033C332.485 24.6803 331.992 24.5548 331.49 24.535C330.987 24.5152 330.485 24.6016 330.018 24.7885C329.551 24.9754 329.128 25.2586 328.778 25.6198C328.427 25.9809 328.157 26.4118 327.984 26.8844C327.183 28.8655 328.015 31.3314 329.059 33.0806Z" fill="#0E2B72"/>
<path d="M372.161 65.2855C372.161 65.2855 375.006 62.9672 375.164 62.7986C377.029 60.8386 379.474 55.9491 378.02 53.3146C377.765 52.875 377.42 52.4947 377.006 52.1989C376.593 51.9031 376.122 51.6985 375.623 51.5989C375.125 51.4992 374.611 51.5067 374.116 51.6208C373.621 51.735 373.156 51.9531 372.751 52.2609C370.991 53.4622 370.306 56.0123 370.212 58.0356C370.127 60.3539 372.161 65.2855 372.161 65.2855Z" fill="#0E2B72"/>
<path d="M321.579 46.6652C323.223 48.2459 327.902 49.8898 328.25 50.0162C327.311 52.6826 326.548 55.407 325.963 58.1725C325.615 59.7742 325.32 61.4076 325.036 63.0514C325.036 62.2822 325.036 61.5972 325.036 61.5024C324.783 58.8047 322.717 53.7466 319.767 53.0722C319.276 52.9839 318.772 52.9987 318.288 53.1156C317.803 53.2325 317.348 53.449 316.952 53.7513C316.555 54.0536 316.226 54.4351 315.985 54.8715C315.744 55.3079 315.596 55.7897 315.552 56.2862C315.309 58.3937 316.774 60.6067 318.228 61.9977C319.682 63.3887 323.687 64.9166 324.741 65.296C324.635 65.9283 324.53 66.55 324.435 67.1822C323.961 70.2066 323.497 73.2309 322.96 76.1815C322.77 77.2353 322.549 78.2364 322.327 79.2585C322.327 78.5736 322.327 77.994 322.327 77.9097C322.074 75.2226 320.009 70.1644 317.059 69.4795C316.567 69.3912 316.063 69.4063 315.577 69.5239C315.092 69.6414 314.636 69.8588 314.24 70.1622C313.843 70.4656 313.514 70.8484 313.274 71.286C313.033 71.7236 312.887 72.2066 312.843 72.704C312.59 74.8116 314.066 77.014 315.52 78.4155C316.974 79.817 320.568 81.1659 321.843 81.5768C321.579 82.6306 321.326 83.6844 321.031 84.6433C320.81 85.3177 320.641 85.9816 320.388 86.6455C320.136 87.3094 319.914 87.9627 319.672 88.6055C319.177 89.8384 318.671 91.124 318.144 92.3148C317.796 93.1473 317.438 93.9271 317.09 94.7174C317.29 93.6637 317.638 91.6615 317.649 91.4823C317.817 88.7847 316.532 83.4736 313.707 82.3777C313.225 82.1947 312.708 82.1183 312.193 82.1536C311.678 82.1889 311.176 82.3352 310.723 82.5824C310.269 82.8296 309.875 83.1719 309.566 83.5858C309.257 83.9997 309.042 84.4755 308.934 84.9805C308.365 87.0881 309.482 89.4275 310.715 91.0292C312.064 92.789 316.247 95.0441 316.763 95.3286C316.173 96.6353 315.594 97.8998 315.025 99.0906C313.37 102.547 311.863 105.413 310.63 107.679L312.285 108.859C313.476 106.551 315.004 103.495 316.648 99.8493C317.248 98.5216 317.87 97.0884 318.492 95.6342C319.973 95.9997 321.476 96.2742 322.991 96.4562C323.276 98.7323 325.373 102.642 325.647 103.137C324.435 103.906 323.244 104.644 322.117 105.318C318.892 107.247 316.057 108.817 313.844 109.997L315.636 111.283C317.743 110.103 320.23 108.627 323.012 106.846C324.245 106.077 325.552 105.224 326.88 104.328C327.28 104.76 330.515 108.237 332.57 109.101C334.435 109.892 337.028 110.366 338.893 109.302C339.336 109.064 339.725 108.735 340.034 108.338C340.342 107.94 340.564 107.482 340.684 106.993C340.804 106.504 340.82 105.996 340.731 105.5C340.642 105.005 340.45 104.534 340.168 104.117C338.387 101.662 332.928 101.767 330.357 102.6C330.199 102.6 328.618 103.369 327.628 103.843L329.251 102.789C330.304 102.041 331.421 101.261 332.581 100.418L334.235 99.1433C334.794 98.7218 335.342 98.216 335.9 97.7418C337.165 96.688 338.397 95.4551 339.62 94.2327C340.273 95.1916 342.665 98.5742 344.393 99.6386C346.122 100.703 348.609 101.556 350.6 100.777C351.075 100.609 351.509 100.343 351.873 99.9963C352.238 99.6497 352.526 99.23 352.718 98.7648C352.91 98.2995 353.001 97.799 352.987 97.2959C352.973 96.7928 352.852 96.2985 352.634 95.845C351.254 93.1473 345.837 92.4307 343.15 92.8628C342.981 92.8628 341.106 93.4213 340.073 93.7374C340.8 92.9998 341.527 92.2621 342.233 91.4929C344.288 89.2589 346.29 86.9406 348.303 84.6433C348.914 83.9373 349.536 83.2418 350.158 82.5358C350.389 82.8835 353.15 86.9616 355.079 88.1524C356.807 89.2062 359.294 90.0703 361.285 89.2905C361.76 89.1224 362.194 88.8565 362.559 88.5101C362.924 88.1637 363.212 87.7444 363.405 87.2795C363.598 86.8145 363.69 86.3143 363.678 85.8112C363.665 85.308 363.546 84.8132 363.33 84.3588C361.939 81.6717 356.522 80.9446 353.846 81.3871C353.646 81.3871 350.937 82.1775 350.263 82.4409C351.633 80.9024 353.003 79.385 354.415 77.9413C356.34 75.942 358.396 74.0727 360.569 72.3458C360.674 72.5038 363.53 76.7716 365.511 77.994C367.239 79.0478 369.726 79.9119 371.718 79.1321C372.192 78.9606 372.624 78.6909 372.986 78.3406C373.348 77.9904 373.632 77.5675 373.819 77.0998C374.006 76.6321 374.092 76.1301 374.071 75.6268C374.051 75.1234 373.924 74.6302 373.699 74.1793C372.319 71.4817 366.902 70.7545 364.215 71.1971C364.036 71.1971 361.981 71.8083 361.001 72.1034L360.927 71.9559C363.135 70.3154 365.484 68.8732 367.945 67.6459C369.294 66.9504 370.611 66.3603 371.918 65.8123C372.371 66.6659 374.468 70.5227 376.133 71.8189C377.798 73.115 380.106 74.1899 382.171 73.6314C382.662 73.5189 383.123 73.3041 383.525 73.0011C383.926 72.6981 384.259 72.3136 384.502 71.8729C384.745 71.4322 384.892 70.9451 384.933 70.4437C384.975 69.9423 384.91 69.4377 384.743 68.9631C383.689 66.1285 378.357 64.8112 375.659 64.9588C375.511 64.9588 374.026 65.2117 372.951 65.4014C373.541 65.1695 374.142 64.9061 374.711 64.6953C376.818 63.8734 378.862 63.2622 380.654 62.7353C381.708 62.4403 382.593 62.1874 383.457 61.9661C384.342 62.5772 387.904 64.9588 389.938 65.3381C391.971 65.7175 394.553 65.6121 396.134 64.1684C396.517 63.8404 396.826 63.4356 397.042 62.9802C397.258 62.5249 397.376 62.0292 397.388 61.5253C397.399 61.0214 397.305 60.5207 397.111 60.0556C396.917 59.5906 396.627 59.1716 396.26 58.8258C393.995 56.8131 388.684 58.0882 386.355 59.4686C386.155 59.5845 383.194 61.7974 383.257 61.8291H383.309C382.477 62.0187 381.571 62.24 380.601 62.5035C378.799 62.9882 376.765 63.5573 374.605 64.3371C372.259 65.1458 369.962 66.0887 367.724 67.1612C365.22 68.3534 362.826 69.7639 360.569 71.3763C360.569 71.3763 360.516 71.3763 360.485 71.4395C361.012 70.7229 362.424 68.6786 362.518 68.51C363.793 66.1285 364.858 60.7647 362.75 58.5834C362.391 58.2311 361.962 57.9584 361.491 57.7829C361.019 57.6075 360.516 57.5332 360.014 57.565C359.512 57.5968 359.023 57.734 358.577 57.9675C358.132 58.2011 357.74 58.5258 357.429 58.9206C356.048 60.554 356.069 63.1884 356.512 65.1695C357.007 67.3825 360 71.3236 360.232 71.6397C357.978 73.3427 355.838 75.1908 353.825 77.172C352.652 78.3312 351.496 79.5185 350.358 80.7338C350.8 80.1015 351.19 79.543 351.232 79.4482C352.508 77.0667 353.572 71.7135 351.464 69.5322C351.105 69.1799 350.676 68.9071 350.205 68.7317C349.733 68.5562 349.23 68.4819 348.728 68.5137C348.226 68.5456 347.737 68.6827 347.291 68.9163C346.846 69.1498 346.454 69.4746 346.143 69.8694C344.762 71.5554 344.762 74.1793 345.226 76.1604C345.69 78.1415 348.155 81.5663 348.819 82.4831L347.523 83.8951C345.416 86.1502 343.413 88.4158 341.327 90.5866C340.6 91.3453 339.852 92.0724 339.104 92.7996C339.493 92.2305 339.81 91.7458 339.852 91.6825C341.127 89.2905 342.191 83.9373 340.094 81.756C339.733 81.405 339.303 81.1334 338.831 80.9588C338.359 80.7841 337.856 80.7103 337.353 80.7421C336.851 80.7739 336.361 80.9105 335.914 81.1432C335.468 81.3759 335.076 81.6995 334.762 82.0932C333.382 83.7265 333.403 86.361 333.845 88.3315C334.288 90.3021 336.532 93.4107 337.323 94.4751C336.532 95.2022 335.753 95.9187 334.952 96.5826C334.404 97.0252 333.898 97.4889 333.318 97.8998L331.643 99.1433C330.536 99.902 329.409 100.682 328.323 101.398C327.575 101.894 326.838 102.357 326.11 102.821C326.848 102.073 328.218 100.566 328.366 100.429C329.721 98.4729 330.552 96.2015 330.779 93.8323C330.945 93.6245 331.086 93.3982 331.2 93.1578C331.44 92.7156 331.584 92.2276 331.622 91.7258C331.661 91.2241 331.592 90.72 331.422 90.2464C331.252 89.7728 330.984 89.3406 330.635 88.9779C330.286 88.6152 329.865 88.3303 329.398 88.1419C326.564 87.0881 322.074 90.1757 320.388 92.2937C320.283 92.4097 319.335 93.8955 318.797 94.8333C319.04 94.2327 319.293 93.6426 319.545 93.0208C320.041 91.7879 320.515 90.5445 321.021 89.2062L321.685 87.2251C321.927 86.5717 322.096 85.8446 322.306 85.1175C322.749 83.4947 323.128 81.8192 323.465 80.1332C324.519 80.5652 328.408 82.0721 330.431 81.9983C332.454 81.9246 335.004 81.2818 336.237 79.5325C336.545 79.1281 336.763 78.6628 336.877 78.1676C336.991 77.6724 336.999 77.1586 336.899 76.6603C336.8 76.162 336.595 75.6906 336.299 75.2773C336.003 74.8641 335.623 74.5186 335.183 74.2636C332.538 72.7778 327.628 75.1593 325.636 77.0034C325.51 77.1194 324.235 78.5946 323.529 79.4166C323.729 78.3628 323.929 77.3933 324.098 76.3501C324.582 73.3679 324.972 70.3225 325.373 67.2982C325.499 66.3708 325.636 65.4435 325.763 64.5162C326.153 64.6743 330.694 66.5605 332.971 66.4868C334.983 66.413 337.544 65.7596 338.777 64.0104C339.085 63.606 339.303 63.1407 339.417 62.6455C339.531 62.1503 339.538 61.6365 339.439 61.1382C339.339 60.6398 339.135 60.1684 338.839 59.7552C338.543 59.342 338.163 58.9964 337.723 58.7415C335.078 57.2557 330.167 59.6477 328.176 61.4813C328.028 61.6183 326.195 63.7575 325.763 64.316C326.047 62.2822 326.353 60.2484 326.743 58.2673C327.246 55.5807 327.926 52.93 328.776 50.3324C328.956 50.4061 333.687 52.4399 336.016 52.3135C338.029 52.2397 340.589 51.5969 341.822 49.8476C342.13 49.4432 342.348 48.9779 342.462 48.4827C342.576 47.9875 342.584 47.4737 342.484 46.9754C342.385 46.4771 342.18 46.0057 341.884 45.5925C341.588 45.1793 341.208 44.8337 340.768 44.5787C338.123 43.0929 333.213 45.4745 331.232 47.3186C331.095 47.4345 329.693 49.0573 329.05 49.8476L328.903 49.7633C329.826 47.1714 330.979 44.6674 332.349 42.2815C333.086 40.9643 333.866 39.7314 334.646 38.5617C335.489 39.0253 339.377 41.0802 341.475 41.2383C343.572 41.3963 346.101 41.0275 347.513 39.4258C347.852 39.062 348.112 38.6312 348.276 38.1611C348.439 37.691 348.503 37.1919 348.462 36.6958C348.421 36.1997 348.277 35.7176 348.04 35.2804C347.802 34.8432 347.475 34.4605 347.081 34.1569C344.615 32.3866 339.472 34.2201 337.291 35.8219C337.175 35.9167 336.079 36.9389 335.278 37.6976C335.647 37.1707 336.005 36.6438 336.332 36.1275C337.67 34.2623 339.009 32.6395 340.199 31.2169C340.884 30.4055 341.527 29.6889 342.128 29.025C343.182 29.025 347.481 29.025 349.388 28.2663C351.296 27.5076 353.393 25.948 353.909 23.872C354.044 23.4013 354.082 22.9078 354.019 22.422C353.956 21.9363 353.794 21.4686 353.543 21.0479C353.292 20.6272 352.958 20.2624 352.56 19.976C352.163 19.6896 351.711 19.4878 351.232 19.383C348.229 18.9509 344.509 22.9447 343.319 25.3789C343.213 25.5897 341.98 29.0566 342.044 29.0566H342.107C341.506 29.6889 340.884 30.3633 340.21 31.1642C338.977 32.5657 337.607 34.1569 336.227 36.001C334.698 37.9612 333.29 40.0129 332.012 42.1445C330.575 44.5207 329.355 47.0212 328.366 49.6158V49.7106C328.366 48.8255 328.46 46.3491 328.439 46.1594C328.186 43.4617 326.121 38.4036 323.17 37.7292C322.684 37.6393 322.183 37.6513 321.701 37.7644C321.219 37.8774 320.766 38.0892 320.37 38.3862C319.974 38.6832 319.644 39.0591 319.4 39.4902C319.157 39.9212 319.005 40.398 318.955 40.8905C318.671 43.0824 320.136 45.2742 321.579 46.6652Z" fill="#0E2B72"/>
<path d="M242.185 77.1602C244.408 76.3488 248.16 72.5763 248.16 72.5763C248.16 72.5763 244.925 70.8481 244.714 70.7743C242.174 69.8154 236.726 69.4676 234.84 71.8281C234.531 72.2319 234.311 72.6971 234.196 73.1926C234.081 73.6881 234.073 74.2025 234.173 74.7013C234.273 75.2002 234.478 75.6719 234.775 76.0851C235.071 76.4982 235.453 76.8432 235.894 77.0969C237.675 78.2245 240.288 77.8662 242.185 77.1602Z" fill="#0E2B72"/>
<path d="M281.797 40.7638C281.85 40.7638 280.048 37.6025 279.911 37.3601C278.33 35.1682 273.978 31.8594 271.09 32.7972C270.617 32.9673 270.184 33.2351 269.82 33.5832C269.456 33.9313 269.17 34.352 268.979 34.818C268.788 35.284 268.697 35.7848 268.713 36.2881C268.728 36.7914 268.849 37.2859 269.067 37.7394C269.931 39.6995 272.313 40.827 274.273 41.2907C276.581 41.8386 281.797 40.7638 281.797 40.7638Z" fill="#0E2B72"/>
<path d="M254.135 87.0029C255.99 85.6857 258.466 81.4074 258.656 81.0596C261.1 82.4817 263.639 83.7351 266.254 84.8111C267.771 85.4539 269.32 86.0545 270.88 86.6236C270.121 86.4655 269.457 86.3391 269.362 86.3285C266.665 86.0756 261.312 87.1715 260.121 89.9641C259.936 90.432 259.851 90.9338 259.872 91.4366C259.894 91.9394 260.021 92.4321 260.246 92.8824C260.471 93.3328 260.788 93.7308 261.177 94.0504C261.565 94.3701 262.017 94.6042 262.502 94.7377C264.536 95.3699 266.96 94.3372 268.604 93.157C270.248 91.9768 272.45 88.3623 273.019 87.4034L274.821 88.0567C277.708 89.1105 280.585 90.08 283.388 91.1548C284.379 91.5342 285.338 91.9452 286.297 92.3561C285.622 92.2086 285.064 92.1032 284.979 92.0927C282.282 91.8398 276.929 92.9357 275.738 95.7282C275.552 96.1962 275.468 96.6979 275.489 97.2007C275.511 97.7036 275.638 98.1962 275.863 98.6466C276.088 99.097 276.405 99.4949 276.794 99.8146C277.182 100.134 277.634 100.368 278.119 100.502C280.153 101.145 282.577 100.101 284.221 98.9317C285.865 97.762 287.856 94.4848 288.531 93.3361C289.5 93.7893 290.48 94.2318 291.397 94.706C292.019 95.0433 292.64 95.3278 293.241 95.6966L295.043 96.7504C296.17 97.4775 297.33 98.2046 298.405 98.9422C299.153 99.4375 299.859 99.9328 300.575 100.428C299.595 100.038 297.667 99.311 297.498 99.2689C294.874 98.6156 289.416 98.8895 287.814 101.471C287.56 101.906 287.401 102.389 287.346 102.89C287.291 103.39 287.343 103.896 287.497 104.376C287.651 104.855 287.904 105.296 288.24 105.671C288.576 106.046 288.988 106.345 289.447 106.55C291.365 107.488 293.915 106.824 295.717 105.918C297.709 104.917 300.691 101.218 301.06 100.755C302.24 101.577 303.378 102.388 304.443 103.168C307.53 105.433 310.112 107.467 312.072 109.069L313.537 107.667C311.492 106.066 308.763 104 305.486 101.703C304.295 100.871 302.999 99.996 301.671 99.1214C302.3 97.7288 302.845 96.3001 303.305 94.843C305.591 94.98 309.817 93.6523 310.365 93.4731C310.892 94.8114 311.419 96.1076 311.851 97.3405C313.157 100.871 314.169 103.937 314.917 106.34L316.508 104.812C315.739 102.546 314.749 99.8063 313.526 96.7082C312.989 95.3488 312.399 93.9052 311.766 92.4931C312.262 92.177 316.287 89.6374 317.509 87.7722C318.626 86.0862 319.617 83.6309 318.858 81.6181C318.707 81.1383 318.456 80.6956 318.122 80.3191C317.789 79.9426 317.379 79.6406 316.921 79.4329C316.463 79.2251 315.966 79.1162 315.462 79.1132C314.959 79.1103 314.461 79.2134 314 79.4158C311.261 80.7014 310.365 86.0967 310.713 88.7733C310.713 88.9314 311.145 90.6279 311.419 91.6922C311.166 91.0916 310.923 90.5015 310.649 89.8903C310.112 88.6679 309.543 87.4666 308.932 86.181C308.616 85.5593 308.299 84.9375 307.973 84.3158C307.646 83.6941 307.267 83.0618 306.919 82.4296C306.055 80.9753 305.131 79.5387 304.148 78.1196C305.201 77.6454 308.974 75.9278 310.344 74.4209C311.714 72.914 313.01 70.6378 312.609 68.5408C312.533 68.043 312.353 67.5668 312.08 67.1434C311.808 66.72 311.449 66.3588 311.027 66.0833C310.606 65.8079 310.131 65.6245 309.634 65.5449C309.136 65.4654 308.628 65.4916 308.141 65.6218C305.233 66.4859 303.526 71.6705 303.463 74.3787C303.463 74.5473 303.631 76.4863 303.747 77.54C303.157 76.6865 302.567 75.8329 301.945 75.0004C300.133 72.5662 298.225 70.1741 296.329 67.7715L294.611 65.5586C294.99 65.39 299.5 63.451 301.028 61.7545C302.388 60.2581 303.694 57.9714 303.294 55.8744C303.218 55.3766 303.038 54.9005 302.765 54.477C302.492 54.0536 302.134 53.6924 301.712 53.4169C301.29 53.1415 300.815 52.9581 300.318 52.8785C299.821 52.799 299.312 52.8252 298.826 52.9554C295.928 53.8195 294.21 59.0041 294.158 61.7123C294.158 61.9125 294.4 64.7156 294.506 65.4216C293.241 63.7988 291.998 62.1654 290.838 60.5005C289.263 58.2698 287.834 55.9396 286.56 53.5245C286.739 53.4507 291.46 51.4169 293.02 49.6993C294.379 48.2029 295.696 45.9162 295.296 43.8192C295.218 43.3221 295.037 42.8469 294.764 42.4244C294.491 42.0018 294.132 41.6413 293.711 41.3661C293.29 41.091 292.816 40.9073 292.319 40.8271C291.822 40.7468 291.314 40.7717 290.828 40.9002C287.919 41.7643 286.212 46.9594 286.149 49.6571C286.149 49.8363 286.339 51.9649 286.455 52.9765H286.286C285.066 50.5105 284.072 47.9394 283.314 45.2945C282.882 43.8508 282.545 42.4387 282.261 41.0794C283.177 40.7948 287.361 39.4355 288.931 38.0445C290.501 36.6535 291.998 34.5776 291.839 32.4384C291.817 31.9361 291.689 31.4441 291.464 30.9944C291.239 30.5447 290.922 30.1474 290.534 29.8284C290.145 29.5093 289.694 29.2756 289.209 29.1425C288.724 29.0094 288.216 28.9799 287.719 29.0558C284.737 29.5932 282.45 34.567 282.103 37.2436C282.103 37.3912 282.05 38.8981 282.039 39.994C281.923 39.3617 281.776 38.7189 281.671 38.1183C281.27 35.8632 281.028 33.7767 280.838 31.9221C280.743 30.8683 280.669 29.9199 280.617 29.0242C281.365 28.276 284.368 25.2095 285.116 23.2811C285.865 21.3527 286.233 18.7815 285.116 16.9584C284.863 16.5175 284.518 16.1359 284.105 15.8391C283.691 15.5423 283.22 15.3371 282.721 15.2373C282.222 15.1376 281.708 15.1455 281.212 15.2606C280.717 15.3757 280.251 15.5953 279.847 15.9047C277.445 17.7593 277.74 23.2073 278.636 25.7575C278.72 25.9788 280.353 29.2771 280.395 29.2349C280.395 30.099 280.48 31.0158 280.564 32.0274C280.712 33.8821 280.901 35.9896 281.26 38.2552C281.622 40.7093 282.125 43.1406 282.766 45.5368C283.529 48.202 284.527 50.7939 285.749 53.2821C285.762 53.3124 285.78 53.3408 285.801 53.3664C285.19 52.7131 283.451 50.9533 283.293 50.8268C281.186 49.1408 276.117 47.0964 273.588 48.7192C273.18 49.008 272.837 49.3786 272.581 49.8074C272.324 50.2362 272.16 50.7137 272.099 51.2095C272.037 51.7053 272.08 52.2085 272.224 52.687C272.368 53.1654 272.61 53.6085 272.935 53.9881C274.284 55.6426 276.876 56.0957 278.899 56.0957C281.175 56.0114 285.601 53.809 285.949 53.6298C287.188 56.1797 288.596 58.6439 290.164 61.0063C291.081 62.3762 292.05 63.725 293.03 65.0633L291.976 64.0095C289.869 62.313 284.8 60.2792 282.271 61.902C281.862 62.1897 281.518 62.5599 281.26 62.9886C281.003 63.4174 280.838 63.8953 280.777 64.3916C280.715 64.8879 280.758 65.3916 280.903 65.8703C281.048 66.3489 281.291 66.792 281.618 67.1709C282.967 68.8358 285.559 69.2784 287.582 69.2784C289.605 69.2784 293.441 67.3922 294.442 66.9074L295.58 68.4354C297.424 70.8802 299.279 73.3144 301.018 75.7592C301.629 76.6232 302.198 77.4873 302.778 78.3514C302.303 77.8667 301.892 77.4663 301.819 77.4136C299.711 75.717 294.643 73.6832 292.113 75.306C291.704 75.5937 291.36 75.9639 291.103 76.3927C290.845 76.8215 290.681 77.2994 290.619 77.7957C290.558 78.292 290.601 78.7957 290.745 79.2743C290.89 79.753 291.134 80.196 291.46 80.5749C292.819 82.2399 295.412 82.6825 297.424 82.6825C299.437 82.6825 302.915 80.9753 304.105 80.3958C304.664 81.302 305.233 82.2083 305.739 83.1145C306.065 83.7362 306.434 84.3158 306.729 84.9586C307.024 85.6014 307.341 86.2231 307.646 86.8449C308.184 88.0673 308.7 89.3107 309.237 90.512C309.585 91.3445 309.912 92.1454 310.228 92.9568C309.627 92.0927 308.415 90.4277 308.299 90.3013C306.629 88.605 304.549 87.3675 302.261 86.7079C302.086 86.51 301.892 86.3299 301.682 86.1705C301.291 85.8518 300.838 85.6193 300.351 85.4883C299.865 85.3572 299.356 85.3307 298.858 85.4103C298.361 85.4899 297.885 85.6739 297.464 85.9502C297.043 86.2265 296.684 86.5889 296.413 87.0135C294.843 89.5952 297.056 94.5901 298.826 96.6345C298.931 96.7609 300.206 97.9411 301.028 98.6682L299.385 97.6145C298.268 96.8874 297.129 96.2024 295.918 95.5069L294.084 94.4531C293.483 94.0949 292.809 93.7998 292.156 93.4626C290.649 92.725 289.079 92.0505 287.477 91.355C288.109 90.375 290.29 86.8659 290.638 84.8532C290.986 82.8405 290.786 80.2272 289.289 78.6992C288.954 78.3234 288.543 78.0228 288.084 77.8169C287.625 77.611 287.127 77.5046 286.623 77.5046C286.12 77.5046 285.622 77.611 285.163 77.8169C284.703 78.0228 284.292 78.3234 283.957 78.6992C282.008 81.0175 283.441 86.2864 284.885 88.5836C284.969 88.7206 286.191 90.2486 286.876 91.0811C285.917 90.6912 284.958 90.3118 283.968 89.9535C281.123 88.8997 278.204 87.983 275.306 87.024L272.64 86.1283C272.871 85.7806 275.559 81.6603 275.906 79.4158C276.212 77.4136 276.043 74.7897 274.547 73.2512C274.21 72.8784 273.799 72.5803 273.34 72.3764C272.88 72.1724 272.383 72.067 271.881 72.067C271.378 72.067 270.882 72.1724 270.422 72.3764C269.963 72.5803 269.552 72.8784 269.215 73.2512C267.265 75.58 268.699 80.8489 270.142 83.1356C270.248 83.3147 272.007 85.5066 272.482 86.044C270.532 85.3801 268.593 84.7057 266.717 83.9365C264.188 82.9421 261.724 81.7877 259.341 80.4801C259.457 80.3115 262.281 76.0331 262.629 73.7254C262.934 71.7337 262.766 69.0993 261.28 67.5713C260.944 67.1953 260.532 66.8945 260.072 66.6885C259.612 66.4826 259.113 66.3761 258.609 66.3761C258.104 66.3761 257.606 66.4826 257.145 66.6885C256.685 66.8945 256.273 67.1953 255.937 67.5713C253.998 69.8896 255.431 75.1585 256.875 77.4557C256.959 77.6033 258.298 79.2788 258.983 80.0586L258.877 80.185C256.458 78.8432 254.165 77.2842 252.028 75.5273C250.858 74.5578 249.804 73.5673 248.793 72.5767C249.404 71.8286 252.144 68.3616 252.692 66.3595C253.24 64.3573 253.334 61.7755 252.017 60.0368C251.722 59.6341 251.347 59.2976 250.914 59.0491C250.481 58.8006 250.001 58.6455 249.504 58.5939C249.008 58.5423 248.506 58.5952 248.032 58.7494C247.557 58.9035 247.12 59.1554 246.748 59.4888C244.557 61.5964 245.41 66.9812 246.58 69.4154C246.654 69.5419 247.454 70.8169 248.045 71.7337C247.602 71.2806 247.128 70.8275 246.706 70.3849C245.126 68.7305 243.777 67.1182 242.596 65.6745C241.933 64.8526 241.343 64.0938 240.805 63.3773C241.016 62.3235 241.859 58.1084 241.385 56.1062C240.91 54.104 239.846 51.733 237.907 50.8373C237.458 50.6101 236.966 50.4803 236.463 50.4567C235.96 50.433 235.457 50.5159 234.989 50.7C234.52 50.8841 234.096 51.1652 233.743 51.5248C233.391 51.8845 233.118 52.3145 232.944 52.7868C231.964 55.6531 235.199 60.0579 237.37 61.6702C237.559 61.8177 240.742 63.6618 240.752 63.6091V63.6407C241.258 64.3362 241.806 65.0844 242.428 65.8747C243.587 67.35 244.894 69.0361 246.453 70.6905C248.105 72.5484 249.864 74.3077 251.722 75.9594C253.783 77.7842 256.001 79.4238 258.35 80.8594H258.435C257.581 80.6487 255.147 80.1323 254.957 80.1218C252.26 79.8689 246.906 80.9648 245.716 83.7573C245.532 84.2254 245.449 84.7268 245.471 85.2291C245.494 85.7314 245.621 86.2235 245.846 86.6734C246.07 87.1233 246.386 87.5211 246.774 87.8411C247.162 88.161 247.613 88.3961 248.097 88.5309C250.11 89.2159 252.523 88.1832 254.135 87.0029Z" fill="#0E2B72"/>
<path d="M61.3905 380.743C63.2241 381.375 66.3538 384.389 66.3538 384.389C66.3538 384.389 63.7404 385.854 63.5613 385.928C61.5169 386.75 57.07 387.129 55.4893 385.222C55.2361 384.899 55.0535 384.526 54.9535 384.128C54.8535 383.73 54.8383 383.315 54.9088 382.911C54.9794 382.506 55.1341 382.121 55.363 381.78C55.5919 381.44 55.8898 381.151 56.2375 380.933C57.6917 379.953 59.8309 380.206 61.3905 380.743Z" fill="#0E2B72"/>
<path d="M94.3611 409.795C94.4138 409.795 92.9912 412.462 92.8858 412.62C91.6213 414.432 88.1228 417.204 85.7623 416.487C85.3717 416.358 85.0126 416.149 84.7086 415.872C84.4046 415.595 84.1627 415.257 83.9985 414.879C83.8343 414.502 83.7517 414.095 83.756 413.684C83.7603 413.272 83.8515 412.867 84.0236 412.493C84.6875 410.881 86.6159 409.911 88.2387 409.49C90.0933 409.016 94.3611 409.795 94.3611 409.795Z" fill="#0E2B72"/>
<path d="M71.01 372.502C72.5486 373.556 74.6456 377.002 74.8036 377.276C76.7814 376.091 78.8334 375.035 80.9471 374.115C82.1695 373.567 83.4235 373.061 84.6881 372.555C84.0769 372.703 83.5289 372.819 83.4551 372.829C81.2633 373.082 76.869 372.271 75.8469 370.026C75.686 369.647 75.6072 369.238 75.6156 368.826C75.6239 368.415 75.7193 368.009 75.8955 367.637C76.0717 367.265 76.3246 366.934 76.6377 366.667C76.9508 366.399 77.3169 366.201 77.7121 366.085C79.3665 365.526 81.3581 366.327 82.728 367.265C84.0979 368.203 85.9526 371.111 86.4268 371.891L87.881 371.333C90.2204 370.448 92.5598 369.573 94.8359 368.646C95.6368 368.319 96.406 367.971 97.1858 367.592L96.1321 367.824C93.9402 368.077 89.546 367.265 88.5238 365.01C88.3647 364.631 88.2872 364.222 88.2964 363.811C88.3056 363.4 88.4012 362.995 88.5772 362.623C88.7531 362.252 89.0054 361.921 89.3176 361.653C89.6297 361.386 89.9948 361.186 90.389 361.069C92.0434 360.521 94.035 361.322 95.405 362.26C96.7749 363.198 98.4504 365.822 99.0194 366.749C99.7992 366.37 100.59 365.99 101.338 365.579C101.833 365.295 102.392 365.052 102.824 364.736L104.278 363.84C105.184 363.229 106.111 362.608 106.986 361.996L108.735 360.742C107.934 361.08 106.375 361.701 106.238 361.733C104.13 362.312 99.6411 362.186 98.2923 360.11C98.071 359.758 97.9272 359.363 97.8703 358.951C97.8135 358.54 97.8449 358.121 97.9625 357.722C98.0801 357.323 98.2812 356.954 98.5525 356.639C98.8237 356.324 99.1589 356.07 99.5358 355.895C101.095 355.094 103.182 355.589 104.678 356.295C106.175 357.001 108.82 360.047 109.125 360.426C110.074 359.731 110.99 359.056 111.844 358.392C114.331 356.496 116.396 354.788 117.977 353.45L119.199 354.567C117.555 355.905 115.363 357.644 112.719 359.573C111.76 360.279 110.716 361.006 109.641 361.754C110.183 362.876 110.655 364.03 111.054 365.21C113.018 365.282 114.964 365.619 116.839 366.211C117.25 365.158 117.64 364.041 117.987 363.05C119.041 360.142 119.768 357.623 120.348 355.674L121.676 356.896C121.085 358.751 120.316 361.016 119.368 363.566C118.957 364.683 118.493 365.864 118.008 367.076C118.419 367.318 121.749 369.331 122.782 370.827C123.815 372.323 124.542 374.178 123.994 375.832C123.879 376.227 123.681 376.593 123.415 376.907C123.149 377.22 122.82 377.474 122.449 377.652C122.079 377.83 121.675 377.928 121.263 377.94C120.852 377.951 120.443 377.876 120.063 377.719C117.798 376.718 116.965 372.323 117.208 370.131C117.208 370.005 117.534 368.614 117.745 367.739L117.144 369.236C116.733 370.237 116.291 371.227 115.817 372.292C115.564 372.798 115.311 373.345 115.068 373.83C114.826 374.315 114.51 374.884 114.225 375.39C113.551 376.591 112.813 377.782 112.044 378.952C112.919 379.32 116.027 380.669 117.165 381.871C118.304 383.072 119.399 384.916 119.115 386.634C119.062 387.042 118.923 387.435 118.707 387.786C118.492 388.138 118.204 388.44 117.864 388.672C117.524 388.905 117.139 389.063 116.733 389.137C116.328 389.211 115.911 389.198 115.511 389.099C113.129 388.446 111.644 384.231 111.549 382.029C111.549 381.892 111.644 380.29 111.728 379.426C111.254 380.121 110.79 380.827 110.295 381.533C108.851 383.546 107.334 385.538 105.827 387.529C105.374 388.141 104.921 388.762 104.457 389.373C104.773 389.5 108.493 391.017 109.726 392.366C110.959 393.715 111.97 395.412 111.686 397.14C111.631 397.548 111.491 397.939 111.275 398.289C111.059 398.639 110.772 398.94 110.432 399.172C110.092 399.403 109.707 399.561 109.302 399.634C108.897 399.707 108.481 399.693 108.082 399.595C105.7 398.942 104.215 394.727 104.12 392.524C104.12 392.356 104.267 390.069 104.341 389.479C103.287 390.828 102.349 392.187 101.433 393.557C100.179 395.409 99.0486 397.341 98.0499 399.342C98.1975 399.395 102.086 400.965 103.393 402.345C104.531 403.547 105.637 405.391 105.353 407.109C105.298 407.516 105.158 407.908 104.942 408.259C104.726 408.609 104.439 408.91 104.099 409.143C103.759 409.375 103.375 409.534 102.97 409.608C102.565 409.682 102.149 409.671 101.749 409.574C99.3672 408.921 97.8813 404.706 97.7865 402.504C97.7865 402.356 97.8919 400.607 97.9762 399.785H97.8392C96.8877 401.82 96.119 403.936 95.542 406.107C95.2153 407.298 94.9624 408.457 94.7411 409.595C95.4998 409.806 98.9562 410.839 100.252 411.956C101.548 413.073 102.813 414.738 102.708 416.477C102.699 416.887 102.604 417.292 102.429 417.663C102.254 418.035 102.003 418.366 101.692 418.634C101.381 418.902 101.017 419.102 100.624 419.221C100.231 419.339 99.8168 419.374 99.4093 419.322C96.9645 418.932 95.0256 414.906 94.6778 412.725C94.6778 412.609 94.6146 411.376 94.583 410.481C94.4987 410.997 94.3933 411.534 94.309 412.019C94.0245 413.863 93.8664 415.57 93.74 417.088C93.6768 417.952 93.6346 418.732 93.603 419.469C94.2353 420.07 96.7643 422.515 97.3755 424.085C97.9867 425.655 98.3661 427.731 97.4809 429.227C97.2823 429.583 97.012 429.893 96.687 430.139C96.3621 430.385 95.9897 430.56 95.5934 430.654C95.1971 430.748 94.7855 430.759 94.3848 430.686C93.9842 430.612 93.6031 430.457 93.2658 430.228C91.2742 428.753 91.4111 424.296 92.1172 422.199C92.1804 422.019 93.4555 419.301 93.4871 419.332C93.4871 418.626 93.4871 417.878 93.5714 417.046C93.6557 415.528 93.7822 413.811 94.0351 411.945C94.2684 409.938 94.6202 407.947 95.0888 405.981C95.6218 403.775 96.3482 401.621 97.2596 399.542C97.2616 399.518 97.2616 399.493 97.2596 399.469C96.7749 400.017 95.3839 401.481 95.2574 401.576C93.5608 402.999 89.4617 404.738 87.3647 403.431C87.0231 403.201 86.7335 402.903 86.5145 402.555C86.2956 402.206 86.1521 401.816 86.0935 401.409C86.0349 401.002 86.0625 400.587 86.1743 400.191C86.2862 399.795 86.4799 399.427 86.7429 399.11C87.7967 397.73 89.9043 397.308 91.5798 397.329C93.4344 397.329 97.091 399.089 97.3755 399.226C98.3566 397.136 99.4798 395.115 100.737 393.178C101.454 392.04 102.223 390.922 103.003 389.805C102.571 390.259 102.181 390.67 102.118 390.712C100.421 392.134 96.3217 393.873 94.2247 392.566C93.8835 392.338 93.594 392.041 93.3751 391.693C93.1563 391.346 93.0129 390.956 92.9543 390.55C92.8956 390.143 92.9231 389.729 93.0349 389.334C93.1466 388.939 93.3402 388.572 93.603 388.256C94.6568 386.876 96.7643 386.454 98.4398 386.476C100.115 386.497 103.256 387.909 104.078 388.288L104.984 387.024C106.449 384.99 107.913 382.977 109.294 380.954C109.789 380.237 110.242 379.521 110.695 378.794C110.316 379.205 109.989 379.542 109.926 379.584C108.24 381.006 104.13 382.745 102.033 381.438C101.692 381.209 101.402 380.911 101.183 380.562C100.964 380.214 100.821 379.824 100.762 379.416C100.704 379.009 100.731 378.594 100.843 378.198C100.955 377.802 101.148 377.434 101.411 377.118C102.465 375.748 104.573 375.316 106.248 375.337C108.158 375.638 110.01 376.231 111.738 377.097C112.181 376.338 112.634 375.59 113.035 374.842C113.288 374.326 113.572 373.851 113.804 373.314C114.036 372.776 114.289 372.26 114.52 371.765C114.942 370.764 115.385 369.731 115.764 368.741C116.038 368.056 116.28 367.392 116.533 366.728C116.059 367.444 115.09 368.835 115.005 368.93C113.67 370.344 111.993 371.389 110.137 371.965C109.992 372.129 109.833 372.281 109.663 372.418C109.348 372.684 108.981 372.88 108.586 372.995C108.191 373.109 107.776 373.139 107.368 373.082C106.961 373.026 106.57 372.884 106.22 372.666C105.871 372.448 105.572 372.159 105.342 371.818C104.014 369.71 105.743 365.621 107.155 363.914C107.239 363.819 108.261 362.86 108.925 362.218L107.597 363.124C106.701 363.725 105.774 364.304 104.794 364.936L103.319 365.811C102.834 366.106 102.265 366.359 101.77 366.643C100.537 367.276 99.2723 367.855 97.9762 368.414C98.5031 369.204 100.347 372.039 100.632 373.683C100.916 375.327 100.832 377.455 99.6306 378.73C99.3613 379.041 99.0295 379.29 98.657 379.464C98.2844 379.637 97.8795 379.73 97.4687 379.736C97.0579 379.741 96.6505 379.661 96.273 379.498C95.8956 379.336 95.5567 379.096 95.2785 378.794C93.6452 376.939 94.7305 372.608 95.8686 370.711C95.9424 370.595 96.9224 369.32 97.4493 368.604C96.6695 368.93 95.9002 369.267 95.0994 369.573C92.7916 370.458 90.4206 371.28 88.0707 372.113L85.9104 372.892C86.1001 373.166 88.3657 376.486 88.6924 378.319C88.9769 379.942 88.8821 382.092 87.6386 383.377C87.3674 383.687 87.0344 383.935 86.6611 384.108C86.2878 384.28 85.8825 384.372 85.4714 384.378C85.0602 384.384 84.6524 384.304 84.2743 384.142C83.8961 383.981 83.556 383.742 83.276 383.441C81.6532 381.576 82.728 377.244 83.8661 375.348C83.9504 375.211 85.3519 373.388 85.7313 372.935C84.1506 373.514 82.57 374.094 81.0525 374.736C78.9907 375.586 76.9876 376.572 75.0565 377.687C75.1408 377.824 77.5224 381.27 77.8491 383.146C78.1336 384.779 78.0387 386.929 76.7953 388.204C76.5241 388.513 76.1911 388.762 75.8177 388.934C75.4444 389.106 75.0391 389.198 74.628 389.204C74.2169 389.21 73.809 389.13 73.4309 388.968C73.0527 388.807 72.7127 388.568 72.4326 388.267C70.8098 386.402 71.8952 382.071 73.0333 380.174C73.1071 380.058 74.1714 378.667 74.6877 378.014L74.5929 377.908C72.7506 379.077 71.0156 380.406 69.4083 381.881C68.481 382.693 67.6274 383.514 66.8265 384.336C67.3324 384.937 69.6296 387.698 70.1143 389.352C70.5991 391.007 70.715 393.083 69.6717 394.484C69.4379 394.822 69.1352 395.107 68.7837 395.32C68.4322 395.533 68.0396 395.669 67.6318 395.72C67.2239 395.771 66.8099 395.735 66.417 395.614C66.024 395.494 65.6608 395.292 65.3513 395.022C63.5282 393.346 64.1289 388.931 65.0457 386.918C65.0983 386.813 65.7306 385.759 66.2048 385C65.8465 385.369 65.4672 385.759 65.151 386.128C63.8865 387.508 62.8117 388.847 61.8738 390.037C61.3469 390.722 60.8727 391.355 60.4512 391.945C60.6409 392.798 61.3785 396.223 61.0519 397.877C60.7252 399.532 59.8716 401.471 58.291 402.23C57.9275 402.421 57.5277 402.534 57.1177 402.562C56.7076 402.589 56.2964 402.529 55.9108 402.387C55.5252 402.245 55.1738 402.024 54.8794 401.737C54.5851 401.45 54.3544 401.104 54.2023 400.723C53.3593 398.394 55.9305 394.748 57.6692 393.346C57.8273 393.23 60.388 391.66 60.3985 391.713C60.7989 391.133 61.231 390.522 61.7263 389.858C62.6431 388.636 63.6863 387.276 64.8876 385.864C66.2036 384.323 67.6111 382.863 69.1027 381.491C70.7633 379.947 72.5583 378.554 74.4664 377.329H74.5296C73.8342 377.518 71.8531 377.972 71.7055 377.993C69.5031 378.235 65.1194 377.434 64.0973 375.179C63.9381 374.8 63.8606 374.391 63.8698 373.98C63.879 373.569 63.9747 373.164 64.1507 372.792C64.3266 372.421 64.5789 372.09 64.891 371.822C65.2032 371.554 65.5682 371.355 65.9624 371.238C67.6169 370.764 69.6507 371.575 71.01 372.502Z" fill="#0E2B72"/>
<path d="M120.866 394.78C122.668 394.074 127.009 394.327 127.009 394.327C127.009 394.327 125.956 397.141 125.882 397.309C124.828 399.259 121.73 402.441 119.296 402.02C118.892 401.94 118.51 401.775 118.174 401.538C117.839 401.3 117.557 400.994 117.347 400.64C117.137 400.286 117.004 399.892 116.957 399.484C116.91 399.075 116.949 398.661 117.072 398.268C117.546 396.635 119.327 395.392 120.866 394.78Z" fill="#0E2B72"/>
<path d="M164.806 395.422C164.806 395.422 165.491 398.33 165.512 398.52C165.744 400.722 164.88 405.106 162.615 406.097C162.234 406.252 161.824 406.325 161.413 406.311C161.002 406.297 160.599 406.197 160.229 406.017C159.859 405.837 159.532 405.582 159.267 405.267C159.003 404.952 158.808 404.585 158.695 404.189C158.157 402.524 158.99 400.543 159.938 399.194C161.044 397.603 164.806 395.422 164.806 395.422Z" fill="#0E2B72"/>
<path d="M122.824 382.26C124.668 382.06 128.504 383.314 128.81 383.43C129.523 381.234 130.386 379.09 131.391 377.012C131.971 375.8 132.593 374.589 133.225 373.387C132.856 373.893 132.519 374.346 132.466 374.441C130.959 376.064 127.103 378.298 124.858 377.255C124.489 377.07 124.163 376.81 123.902 376.491C123.64 376.173 123.449 375.802 123.341 375.404C123.232 375.006 123.209 374.59 123.272 374.182C123.336 373.775 123.485 373.386 123.709 373.04C124.605 371.533 126.649 370.858 128.293 370.679C129.937 370.5 133.246 371.501 134.11 371.786L134.858 370.405C136.06 368.213 137.271 366.032 138.388 363.851C138.789 363.092 139.147 362.323 139.516 361.553L138.852 362.428C137.345 364.04 133.488 366.285 131.244 365.231C130.875 365.047 130.549 364.787 130.288 364.468C130.026 364.149 129.835 363.778 129.726 363.381C129.618 362.983 129.595 362.566 129.658 362.159C129.722 361.751 129.871 361.362 130.095 361.016C130.991 359.52 133.035 358.835 134.679 358.656C136.323 358.476 139.305 359.393 140.338 359.709C140.686 358.908 141.044 358.108 141.392 357.317C141.592 356.769 141.813 356.263 141.982 355.705C142.15 355.146 142.33 354.651 142.498 354.072C142.793 353.018 143.099 351.964 143.362 350.91C143.541 350.194 143.71 349.509 143.868 348.803C143.489 349.572 142.698 351.058 142.625 351.174C141.381 353.007 137.904 355.8 135.533 355.104C135.142 354.977 134.782 354.77 134.476 354.495C134.171 354.22 133.926 353.883 133.759 353.507C133.592 353.132 133.506 352.725 133.507 352.314C133.507 351.903 133.594 351.496 133.762 351.121C134.416 349.509 136.334 348.518 137.925 348.097C139.685 347.622 143.51 348.255 143.995 348.329C144.258 347.19 144.511 346.084 144.743 345.03C145.396 341.964 145.86 339.319 146.186 337.274L147.841 337.338C147.461 339.445 146.924 342.164 146.165 345.346C145.902 346.505 145.586 347.738 145.249 349.003C146.391 349.511 147.503 350.084 148.578 350.721C150.111 349.492 151.806 348.482 153.616 347.717C153.215 346.611 152.815 345.547 152.425 344.556C151.297 341.7 150.243 339.287 149.4 337.411L151.202 337.475C151.961 339.266 152.857 341.479 153.795 344.04C154.206 345.157 154.627 346.358 155.038 347.591C155.512 347.507 159.348 346.874 161.108 347.338C162.699 347.759 164.617 348.739 165.323 350.362C165.491 350.737 165.579 351.143 165.58 351.553C165.581 351.964 165.496 352.37 165.33 352.746C165.164 353.121 164.921 353.458 164.617 353.733C164.312 354.009 163.953 354.218 163.563 354.346C161.182 355.052 157.704 352.238 156.461 350.436C156.387 350.32 155.713 349.066 155.312 348.265C155.481 348.771 155.649 349.266 155.807 349.793C156.145 350.847 156.461 351.901 156.787 352.955C156.935 353.492 157.072 354.008 157.219 354.609C157.367 355.21 157.472 355.758 157.599 356.337C157.862 357.686 158.073 359.066 158.252 360.468C159.158 360.173 162.393 359.172 164.037 359.351C165.681 359.53 167.726 360.205 168.621 361.701C168.844 362.047 168.993 362.436 169.056 362.842C169.119 363.249 169.097 363.664 168.989 364.062C168.882 364.459 168.693 364.829 168.433 365.149C168.174 365.468 167.85 365.73 167.483 365.916C165.249 366.97 161.382 364.736 159.875 363.124C159.78 363.018 158.821 361.733 158.315 361.016C158.421 361.848 158.526 362.691 158.6 363.545C158.811 366.011 158.958 368.508 159.106 371.006C159.106 371.764 159.211 372.523 159.264 373.292C159.58 373.177 163.395 371.912 165.239 372.112C166.883 372.291 168.927 372.966 169.823 374.462C170.046 374.808 170.194 375.197 170.257 375.603C170.321 376.01 170.298 376.425 170.191 376.823C170.083 377.22 169.894 377.59 169.634 377.91C169.375 378.229 169.051 378.491 168.685 378.677C166.451 379.731 162.583 377.497 161.076 375.874C160.96 375.758 159.59 373.914 159.264 373.429C159.38 375.105 159.517 376.77 159.706 378.414C159.967 380.632 160.364 382.831 160.897 385C161.045 384.947 165.028 383.609 166.914 383.809C168.558 383.988 170.602 384.663 171.498 386.17C171.725 386.514 171.875 386.903 171.941 387.311C172.006 387.718 171.984 388.135 171.876 388.533C171.769 388.931 171.578 389.302 171.317 389.621C171.055 389.941 170.729 390.201 170.36 390.385C168.126 391.439 164.259 389.205 162.752 387.592C162.646 387.487 161.603 386.075 161.129 385.4L161.002 385.464C161.593 387.639 162.384 389.756 163.363 391.786C163.89 392.914 164.417 393.894 165.017 394.948C165.734 394.621 169.022 393.167 170.739 393.167C172.457 393.167 174.501 393.609 175.555 395C175.816 395.318 176.006 395.686 176.115 396.082C176.223 396.478 176.247 396.893 176.184 397.298C176.122 397.704 175.974 398.092 175.751 398.437C175.528 398.782 175.235 399.076 174.891 399.3C172.784 400.596 168.695 398.804 167.02 397.361C166.925 397.287 166.082 396.391 165.481 395.727C165.744 396.17 166.008 396.644 166.271 397.066C167.251 398.657 168.242 400.058 169.138 401.281C169.643 401.976 170.128 402.598 170.571 403.178C171.445 403.178 174.944 403.462 176.44 404.231C177.937 405.001 179.602 406.339 179.865 408.078C179.95 408.479 179.949 408.894 179.863 409.296C179.777 409.697 179.607 410.076 179.364 410.407C179.121 410.738 178.811 411.014 178.455 411.218C178.098 411.421 177.702 411.547 177.294 411.587C174.828 411.766 172.025 408.288 171.203 406.244C171.129 406.065 170.328 403.167 170.371 403.167H170.423C169.981 402.619 169.506 402.039 169.011 401.376C168.084 400.164 167.062 398.783 166.04 397.161C164.931 395.462 163.918 393.703 163.005 391.892C161.977 389.863 161.13 387.747 160.476 385.569C160.476 385.569 160.476 385.516 160.476 385.485C160.476 386.212 160.36 388.235 160.328 388.393C159.97 390.574 157.989 394.568 155.533 394.937C155.125 394.984 154.712 394.945 154.319 394.823C153.927 394.7 153.565 394.497 153.256 394.226C152.948 393.955 152.699 393.622 152.527 393.249C152.354 392.876 152.262 392.471 152.256 392.06C152.182 390.311 153.51 388.614 154.775 387.561C156.208 386.37 160.107 385.316 160.412 385.232C159.801 383.007 159.34 380.743 159.032 378.456C158.842 377.118 158.695 375.769 158.568 374.42C158.568 375.052 158.495 375.611 158.484 375.685C158.126 377.866 156.134 381.86 153.689 382.228C153.281 382.276 152.868 382.237 152.475 382.114C152.083 381.992 151.721 381.788 151.412 381.517C151.103 381.246 150.855 380.914 150.683 380.541C150.51 380.168 150.418 379.763 150.412 379.352C150.338 377.602 151.656 375.906 152.931 374.852C154.206 373.798 157.525 372.818 158.4 372.565C158.4 372.049 158.305 371.512 158.263 371.016C158.052 368.519 157.862 366.032 157.588 363.64C157.493 362.776 157.378 361.933 157.251 361.09C157.251 361.648 157.251 362.144 157.188 362.144C156.819 364.325 154.838 368.329 152.393 368.687C151.985 368.736 151.57 368.699 151.178 368.577C150.785 368.455 150.422 368.252 150.113 367.98C149.803 367.709 149.555 367.375 149.383 367.002C149.211 366.628 149.12 366.222 149.116 365.811C149.032 364.072 150.359 362.375 151.634 361.322C152.909 360.268 155.85 359.372 156.903 359.077C156.745 358.213 156.598 357.359 156.419 356.527C156.282 355.968 156.187 355.42 156.018 354.862L155.544 353.218C155.217 352.164 154.88 351.11 154.49 350.109C154.258 349.414 154.016 348.75 153.774 348.086C153.879 348.94 154.037 350.615 154.037 350.752C153.941 352.695 153.35 354.582 152.319 356.232C152.31 356.448 152.286 356.662 152.246 356.875C152.181 357.281 152.031 357.668 151.805 358.012C151.58 358.356 151.284 358.649 150.938 358.871C150.592 359.093 150.203 359.239 149.796 359.3C149.389 359.361 148.975 359.335 148.578 359.225C146.218 358.508 144.848 354.261 144.816 352.048C144.816 351.911 144.953 350.499 145.048 349.604C144.911 350.12 144.785 350.657 144.637 351.153C144.342 352.206 144.026 353.26 143.689 354.314C143.51 354.851 143.32 355.368 143.13 355.926C142.941 356.485 142.709 357.033 142.498 357.581C141.971 358.856 141.392 360.12 140.77 361.385C141.687 361.648 144.922 362.597 146.207 363.65C147.493 364.704 148.81 366.401 148.726 368.14C148.723 368.551 148.633 368.957 148.463 369.331C148.292 369.705 148.045 370.039 147.737 370.312C147.429 370.584 147.066 370.789 146.674 370.912C146.282 371.035 145.868 371.074 145.459 371.027C143.015 370.669 141.023 366.675 140.654 364.493C140.654 364.356 140.538 362.765 140.507 361.891C140.127 362.649 139.758 363.408 139.347 364.156C138.167 366.327 136.903 368.498 135.659 370.658C135.269 371.322 134.9 371.986 134.521 372.65C134.848 372.734 138.736 373.788 140.159 374.968C141.434 376.022 142.762 377.718 142.688 379.457C142.683 379.868 142.592 380.273 142.421 380.646C142.25 381.02 142.003 381.353 141.695 381.626C141.387 381.898 141.026 382.102 140.634 382.226C140.243 382.35 139.829 382.39 139.421 382.344C136.966 381.986 134.974 377.992 134.605 375.811C134.605 375.642 134.458 373.356 134.458 372.766C133.625 374.23 132.814 375.695 132.076 377.17C131.06 379.161 130.177 381.217 129.431 383.324C129.579 383.324 133.646 384.441 135.101 385.653C136.376 386.707 137.704 388.393 137.63 390.142C137.627 390.553 137.537 390.959 137.366 391.333C137.196 391.706 136.948 392.04 136.64 392.312C136.332 392.583 135.969 392.787 135.577 392.908C135.185 393.03 134.771 393.068 134.363 393.019C131.908 392.671 129.916 388.667 129.547 386.496C129.547 386.349 129.431 384.6 129.4 383.767H129.263C128.575 385.908 128.074 388.104 127.766 390.332C127.587 391.554 127.482 392.735 127.398 393.883C128.177 394.01 131.718 394.61 133.151 395.559C134.584 396.507 136.039 397.993 136.154 399.774C136.196 400.183 136.151 400.596 136.022 400.986C135.894 401.376 135.684 401.735 135.408 402.039C135.132 402.343 134.795 402.586 134.419 402.751C134.042 402.916 133.636 403.001 133.225 402.998C130.749 402.914 128.335 399.163 127.724 397.034C127.724 396.918 127.492 395.706 127.355 394.821C127.355 395.337 127.292 395.875 127.271 396.37C127.208 398.246 127.271 399.964 127.324 401.481C127.324 402.345 127.429 403.125 127.482 403.852C128.188 404.368 130.97 406.497 131.802 407.972C132.635 409.448 133.235 411.471 132.529 413.073C132.377 413.454 132.147 413.8 131.852 414.087C131.558 414.373 131.207 414.595 130.821 414.737C130.435 414.879 130.024 414.939 129.614 414.912C129.204 414.884 128.804 414.771 128.441 414.579C126.333 413.368 125.87 408.921 126.333 406.75C126.333 406.571 127.303 403.715 127.387 403.736C127.313 403.03 127.25 402.282 127.187 401.46C127.092 399.942 126.997 398.214 127.029 396.339C127.024 394.313 127.144 392.29 127.387 390.279C127.646 388.027 128.104 385.802 128.757 383.63C128.762 383.602 128.762 383.574 128.757 383.546C128.346 384.146 127.145 385.78 127.039 385.896C125.532 387.508 121.676 389.752 119.431 388.699C119.062 388.514 118.736 388.254 118.475 387.935C118.213 387.617 118.022 387.246 117.914 386.848C117.805 386.45 117.782 386.034 117.846 385.626C117.909 385.219 118.058 384.83 118.282 384.484C119.136 383.124 121.18 382.439 122.824 382.26Z" fill="#0E2B72"/>
<g clip-path="url(#clip1_513_28227)">
<path d="M362.692 91.665H70.377V383.98H362.692V91.665Z" fill="white"/>
<path d="M362.692 383.98C362.692 381.437 362.573 266.916 362.388 91.6653L362.692 91.9699H70.404L70.7483 91.6256C70.7483 198.665 70.7483 298.99 70.7483 383.94L70.4437 383.649L362.758 383.94L70.4437 384.245H70.1523V383.94C70.1523 298.99 70.1523 198.665 70.1523 91.6256V91.2812H70.5232H362.811H363.116V91.5726C362.811 266.916 362.692 381.437 362.692 383.98Z" fill="#0E2B72"/>
<path d="M324.752 228.168H219.342C216.069 228.168 212.929 226.868 210.615 224.553C208.3 222.239 207 219.1 207 215.826C207 212.553 208.3 209.414 210.615 207.099C212.929 204.785 216.069 203.484 219.342 203.484H324.752C328.027 203.484 331.167 204.784 333.484 207.098C335.801 209.413 337.104 212.552 337.107 215.826C337.104 219.101 335.801 222.24 333.484 224.554C331.167 226.868 328.027 228.168 324.752 228.168Z" fill="#FFB400"/>
<g opacity="0.6">
<path d="M324.751 228.17H219.34C216.067 228.17 212.928 226.87 210.613 224.555C208.299 222.241 206.998 219.102 206.998 215.828C206.998 212.555 208.299 209.416 210.613 207.101C212.928 204.787 216.067 203.486 219.34 203.486H324.751C328.025 203.486 331.166 204.786 333.482 207.1C335.799 209.415 337.102 212.554 337.106 215.828C337.102 219.103 335.799 222.242 333.482 224.556C331.166 226.87 328.025 228.17 324.751 228.17Z" fill="white"/>
</g>
<path d="M279.236 262.52H101.959C98.6847 262.517 95.5455 261.214 93.2313 258.897C90.9171 256.58 89.6172 253.44 89.6172 250.165C89.6172 246.892 90.9175 243.753 93.2321 241.438C95.5467 239.124 98.6859 237.823 101.959 237.823H279.236C282.511 237.823 285.652 239.123 287.968 241.437C290.285 243.752 291.588 246.891 291.592 250.165C291.592 253.442 290.29 256.585 287.973 258.902C285.656 261.219 282.513 262.52 279.236 262.52Z" fill="#FFB400"/>
<g opacity="0.6">
<path d="M279.234 262.52H101.957C98.6827 262.516 95.5435 261.213 93.2293 258.896C90.9151 256.579 89.6152 253.439 89.6152 250.164C89.6152 246.891 90.9156 243.752 93.2301 241.437C95.5447 239.123 98.6839 237.822 101.957 237.822H279.234C282.509 237.822 285.65 239.122 287.966 241.436C290.283 243.751 291.586 246.89 291.59 250.164C291.59 253.441 290.288 256.584 287.971 258.901C285.654 261.218 282.511 262.52 279.234 262.52Z" fill="white"/>
</g>
<path d="M225.444 224.088C229.989 218.881 229.453 210.976 224.246 206.431C219.04 201.886 211.134 202.422 206.589 207.628C202.044 212.835 202.58 220.74 207.787 225.285C212.993 229.831 220.899 229.294 225.444 224.088Z" fill="#FFB400"/>
<path d="M299.295 253.061C300.89 246.336 296.731 239.592 290.006 237.997C283.281 236.403 276.537 240.562 274.942 247.286C273.347 254.011 277.506 260.756 284.231 262.35C290.956 263.945 297.7 259.786 299.295 253.061Z" fill="#FFB400"/>
<path d="M359.077 156.672C359.077 156.858 295.844 157.017 217.846 157.017C139.848 157.017 76.5352 156.858 76.5352 156.672C76.5352 156.487 139.768 156.328 217.793 156.328C295.818 156.328 359.077 156.474 359.077 156.672Z" fill="#F5F5F5"/>
<path d="M102.846 183.634V179.211L100.688 182.853H99.9197L97.7215 179.291V183.621H96.1191V176.245H97.5229L100.291 180.827L102.939 176.245H104.343V183.621L102.846 183.634Z" fill="#0E2B72"/>
<path d="M105.669 180.8C105.627 180.174 105.774 179.55 106.091 179.008C106.408 178.467 106.881 178.034 107.447 177.765C108.014 177.496 108.649 177.404 109.269 177.5C109.889 177.597 110.465 177.878 110.923 178.307C111.381 178.735 111.7 179.292 111.837 179.904C111.974 180.517 111.924 181.156 111.693 181.739C111.462 182.322 111.061 182.823 110.541 183.175C110.022 183.527 109.409 183.715 108.781 183.713C108.382 183.741 107.982 183.685 107.605 183.551C107.229 183.417 106.884 183.207 106.592 182.934C106.3 182.66 106.067 182.33 105.908 181.963C105.75 181.596 105.668 181.2 105.669 180.8ZM110.225 180.8C110.202 180.521 110.098 180.254 109.926 180.033C109.754 179.812 109.521 179.646 109.256 179.554C108.991 179.463 108.705 179.451 108.434 179.519C108.162 179.588 107.916 179.734 107.726 179.94C107.536 180.146 107.41 180.402 107.363 180.679C107.316 180.955 107.351 181.239 107.463 181.496C107.575 181.753 107.759 181.971 107.993 182.125C108.227 182.279 108.501 182.362 108.781 182.363C108.982 182.365 109.181 182.326 109.365 182.247C109.549 182.167 109.715 182.05 109.851 181.903C109.987 181.756 110.091 181.581 110.155 181.391C110.22 181.201 110.243 181 110.225 180.8Z" fill="#0E2B72"/>
<path d="M118.78 180.389V183.634H117.138V180.615C117.138 179.701 116.728 179.29 116 179.29C115.271 179.29 114.675 179.767 114.675 180.813V183.621H113.033V177.966H114.609V178.628C114.85 178.379 115.141 178.184 115.463 178.056C115.785 177.928 116.13 177.87 116.476 177.887C116.801 177.87 117.125 177.925 117.425 178.048C117.726 178.171 117.996 178.359 118.216 178.597C118.436 178.836 118.6 179.121 118.698 179.43C118.795 179.74 118.824 180.068 118.78 180.389Z" fill="#0E2B72"/>
<path d="M135.887 177.648H133.477V176.258H139.899V177.648H137.542V183.634H135.834L135.887 177.648Z" fill="#0E2B72"/>
<path d="M146.336 177.967V183.635H144.773V182.959C144.554 183.204 144.284 183.398 143.982 183.528C143.68 183.658 143.354 183.722 143.025 183.714C142.689 183.743 142.351 183.696 142.036 183.576C141.721 183.457 141.436 183.268 141.204 183.024C140.971 182.78 140.796 182.487 140.692 182.166C140.588 181.846 140.557 181.506 140.602 181.171V177.967H142.244V180.92C142.244 181.873 142.668 182.244 143.383 182.244C144.098 182.244 144.707 181.754 144.707 180.708V177.967H146.336Z" fill="#0E2B72"/>
<path d="M153.34 181.263H149.103C149.19 181.616 149.402 181.925 149.698 182.134C149.995 182.343 150.357 182.438 150.718 182.402C150.982 182.412 151.245 182.368 151.491 182.272C151.737 182.176 151.961 182.031 152.149 181.846L153.023 182.799C152.721 183.112 152.356 183.355 151.951 183.513C151.546 183.671 151.112 183.739 150.679 183.713C150.271 183.754 149.86 183.709 149.47 183.581C149.081 183.453 148.723 183.245 148.419 182.971C148.115 182.697 147.871 182.362 147.704 181.988C147.537 181.614 147.449 181.209 147.448 180.8C147.442 180.406 147.517 180.015 147.667 179.651C147.818 179.287 148.042 178.958 148.325 178.684C148.608 178.41 148.944 178.197 149.312 178.057C149.68 177.918 150.073 177.855 150.467 177.873C150.859 177.852 151.251 177.914 151.618 178.054C151.985 178.194 152.318 178.41 152.597 178.687C152.875 178.964 153.092 179.296 153.234 179.663C153.376 180.029 153.439 180.421 153.42 180.813C153.42 180.945 153.34 181.118 153.34 181.263ZM149.037 180.296H151.831C151.775 179.966 151.604 179.667 151.348 179.451C151.093 179.235 150.769 179.116 150.434 179.116C150.099 179.116 149.775 179.235 149.519 179.451C149.263 179.667 149.093 179.966 149.037 180.296Z" fill="#0E2B72"/>
<path d="M145.395 211.735V219.111H144.641V212.397H142.893V211.722L145.395 211.735Z" fill="black"/>
<path d="M182.939 218.435V219.111H177.774V218.568L180.833 215.575C181.667 214.754 181.826 214.251 181.826 213.748C181.826 212.9 181.23 212.423 180.105 212.423C179.729 212.4 179.353 212.462 179.004 212.604C178.656 212.746 178.344 212.965 178.092 213.244L177.549 212.781C177.884 212.419 178.296 212.136 178.754 211.953C179.212 211.769 179.705 211.69 180.197 211.721C181.68 211.721 182.634 212.489 182.634 213.721C182.615 214.17 182.497 214.609 182.288 215.008C182.08 215.406 181.787 215.753 181.429 216.025L178.913 218.488L182.939 218.435Z" fill="black"/>
<path d="M218.52 216.992C218.52 218.223 217.632 219.163 215.871 219.163C214.901 219.199 213.954 218.862 213.223 218.223L213.593 217.627C214.213 218.197 215.03 218.501 215.871 218.475C217.089 218.475 217.765 217.905 217.765 216.992C217.765 216.078 217.142 215.522 215.778 215.522H215.249V214.966L217.288 212.41H213.527V211.734H218.228V212.277L216.136 214.926C217.725 215.045 218.52 215.813 218.52 216.992Z" fill="black"/>
<path d="M255.123 217.164H253.64V219.11H252.885V217.164H248.688V216.621L252.66 211.734H253.495L249.734 216.488H252.938V214.793H253.667V216.488H255.15L255.123 217.164Z" fill="black"/>
<path d="M110.012 247.596V248.152L106.993 254.972H106.172L109.204 248.271H105.417V249.596H104.662V247.543L110.012 247.596Z" fill="black"/>
<path d="M146.362 252.919C146.362 254.244 145.25 255.038 143.488 255.038C141.727 255.038 140.654 254.217 140.654 252.919C140.649 252.501 140.787 252.093 141.044 251.763C141.302 251.434 141.664 251.202 142.071 251.105C141.731 250.997 141.434 250.78 141.226 250.489C141.019 250.198 140.911 249.847 140.919 249.49C140.919 248.285 141.939 247.543 143.488 247.543C145.038 247.543 146.137 248.285 146.137 249.49C146.141 249.85 146.029 250.202 145.816 250.494C145.604 250.785 145.303 250.999 144.958 251.105C145.362 251.206 145.72 251.44 145.974 251.769C146.229 252.098 146.365 252.503 146.362 252.919ZM145.581 252.919C145.581 252.019 144.799 251.45 143.488 251.45C142.177 251.45 141.423 252.019 141.423 252.919C141.423 253.82 142.191 254.403 143.488 254.403C144.786 254.403 145.581 253.82 145.581 252.906V252.919ZM143.488 250.801C144.64 250.801 145.329 250.297 145.329 249.476C145.329 248.655 144.601 248.152 143.488 248.152C142.376 248.152 141.674 248.655 141.674 249.476C141.674 250.297 142.349 250.801 143.488 250.801Z" fill="black"/>
<path d="M182.303 251.224C182.303 253.726 180.979 255.037 178.94 255.037C178.33 255.063 177.725 254.921 177.192 254.627L177.496 254.018C177.927 254.275 178.425 254.399 178.926 254.375C180.515 254.375 181.575 253.356 181.575 251.343C181.575 251.184 181.575 250.972 181.575 250.747C181.37 251.166 181.045 251.515 180.642 251.751C180.24 251.986 179.776 252.098 179.31 252.071C178.999 252.104 178.685 252.072 178.387 251.976C178.089 251.881 177.815 251.723 177.581 251.515C177.348 251.307 177.161 251.052 177.032 250.766C176.903 250.481 176.836 250.172 176.834 249.86C176.836 249.541 176.905 249.226 177.035 248.936C177.166 248.645 177.356 248.385 177.592 248.172C177.829 247.959 178.108 247.798 178.41 247.698C178.713 247.599 179.033 247.564 179.35 247.595C181.244 247.542 182.303 248.893 182.303 251.224ZM181.257 249.754C181.257 248.946 180.582 248.178 179.31 248.178C179.084 248.152 178.855 248.174 178.638 248.242C178.421 248.311 178.221 248.424 178.051 248.576C177.881 248.727 177.745 248.912 177.651 249.12C177.558 249.328 177.51 249.552 177.509 249.78C177.509 250.747 178.224 251.369 179.363 251.369C179.595 251.395 179.83 251.373 180.053 251.304C180.275 251.236 180.482 251.122 180.659 250.971C180.837 250.819 180.981 250.633 181.084 250.424C181.187 250.215 181.246 249.987 181.257 249.754Z" fill="black"/>
<path d="M212.931 247.596V254.972H212.176V248.271H210.441V247.596H212.931Z" fill="black"/>
<path d="M214.746 251.291C214.746 248.933 215.978 247.543 217.686 247.543C219.394 247.543 220.639 248.933 220.639 251.291C220.639 253.648 219.394 255.038 217.686 255.038C215.978 255.038 214.746 253.635 214.746 251.291ZM219.858 251.291C219.858 249.317 218.97 248.232 217.686 248.232C216.401 248.232 215.514 249.317 215.514 251.291C215.514 253.264 216.401 254.336 217.686 254.336C218.97 254.336 219.858 253.25 219.858 251.291Z" fill="black"/>
<path d="M250.712 247.596V254.972H250.01V248.271H248.275V247.596H250.712Z" fill="black"/>
<path d="M254.513 247.596V254.972H253.758V248.271H252.024V247.596H254.513Z" fill="black"/>
<path d="M285.765 247.596V254.972H285.01V248.271H283.275V247.596H285.765Z" fill="black"/>
<path d="M292.56 254.296V254.971H287.395V254.428L290.454 251.435C291.288 250.614 291.447 250.111 291.447 249.608C291.447 248.76 290.838 248.284 289.712 248.284C289.337 248.262 288.962 248.325 288.613 248.467C288.265 248.609 287.953 248.827 287.7 249.105L287.17 248.641C287.505 248.28 287.917 247.999 288.375 247.817C288.834 247.636 289.327 247.56 289.818 247.595C291.315 247.595 292.255 248.35 292.255 249.581C292.239 250.031 292.123 250.472 291.915 250.871C291.706 251.269 291.411 251.616 291.05 251.886L288.547 254.349L292.56 254.296Z" fill="black"/>
<path d="M321.931 247.596V254.972H321.162V248.271H319.428V247.596H321.931Z" fill="black"/>
<path d="M328.567 252.852C328.567 254.083 327.666 255.037 325.918 255.037C324.945 255.071 323.997 254.73 323.27 254.083L323.627 253.487C324.252 254.056 325.073 254.36 325.918 254.335C327.136 254.335 327.812 253.765 327.812 252.852C327.812 251.938 327.189 251.395 325.825 251.395H325.296V250.799L327.335 248.23H323.574V247.555H328.302V248.151L326.223 250.799C327.772 250.799 328.567 251.673 328.567 252.852Z" fill="black"/>
<path d="M106.849 283.257V290.633H106.094V283.906H104.346V283.23L106.849 283.257Z" fill="black"/>
<path d="M114.938 288.7H113.468V290.633H112.713V288.7H108.555V288.143L112.527 283.257H113.362L109.601 288.024H112.792V286.316H113.534V288.024H114.938V288.7Z" fill="black"/>
<path d="M143.382 283.257V290.633H142.614V283.906H140.879V283.23L143.382 283.257Z" fill="black"/>
<path d="M150.137 288.461C150.137 289.719 149.263 290.699 147.488 290.699C146.516 290.735 145.567 290.393 144.84 289.746L145.211 289.15C145.821 289.716 146.629 290.021 147.462 289.997C148.72 289.997 149.382 289.388 149.382 288.501C149.382 287.614 148.799 286.952 146.919 286.952H145.396L145.767 283.257H149.74V283.906H146.363L146.111 286.263H147.065C149.369 286.289 150.137 287.163 150.137 288.461Z" fill="black"/>
<path d="M179.175 283.257V290.633H178.42V283.906H176.686V283.23L179.175 283.257Z" fill="black"/>
<path d="M186.447 288.435C186.443 288.753 186.373 289.067 186.242 289.356C186.111 289.646 185.921 289.905 185.685 290.118C185.449 290.331 185.171 290.492 184.869 290.592C184.567 290.692 184.248 290.729 183.931 290.7C181.972 290.7 180.912 289.375 180.912 287.005C180.912 284.635 182.236 283.204 184.276 283.204C184.884 283.174 185.489 283.311 186.024 283.602L185.719 284.211C185.284 283.963 184.789 283.844 184.289 283.867C182.7 283.867 181.64 284.886 181.64 286.886C181.64 287.058 181.64 287.257 181.64 287.482C181.853 287.076 182.179 286.741 182.579 286.518C182.979 286.294 183.435 286.192 183.892 286.224C184.209 286.176 184.533 286.197 184.842 286.287C185.15 286.376 185.436 286.531 185.678 286.741C185.921 286.951 186.116 287.212 186.249 287.504C186.381 287.796 186.449 288.114 186.447 288.435ZM185.706 288.435C185.706 287.469 184.991 286.846 183.852 286.846C183.62 286.821 183.386 286.843 183.163 286.911C182.94 286.98 182.733 287.093 182.556 287.245C182.378 287.396 182.234 287.582 182.131 287.791C182.028 288.001 181.97 288.229 181.958 288.462C181.958 289.27 182.62 290.038 183.905 290.038C184.132 290.068 184.363 290.049 184.582 289.983C184.801 289.917 185.004 289.805 185.177 289.655C185.35 289.505 185.489 289.32 185.584 289.111C185.68 288.903 185.731 288.677 185.732 288.448L185.706 288.435Z" fill="black"/>
<path d="M215.302 283.257V290.633H214.547V283.906H212.812V283.23L215.302 283.257Z" fill="black"/>
<path d="M222.268 283.257V283.8L219.182 290.633H218.361L221.394 283.932H217.606V285.257H216.904V283.204L222.268 283.257Z" fill="black"/>
<path d="M251.072 283.257V290.633H250.317V283.906H248.582V283.23L251.072 283.257Z" fill="black"/>
<path d="M258.499 288.581C258.499 289.905 257.386 290.699 255.638 290.699C253.89 290.699 252.791 289.878 252.791 288.581C252.786 288.162 252.923 287.754 253.181 287.425C253.439 287.095 253.801 286.863 254.208 286.766C253.867 286.658 253.571 286.442 253.363 286.15C253.155 285.859 253.048 285.508 253.056 285.151C253.056 283.946 254.076 283.204 255.638 283.204C257.201 283.204 258.287 283.946 258.287 285.151C258.291 285.511 258.179 285.863 257.966 286.155C257.754 286.446 257.453 286.661 257.108 286.766C257.509 286.87 257.864 287.105 258.116 287.434C258.368 287.762 258.503 288.166 258.499 288.581ZM257.717 288.581C257.717 287.68 256.936 287.111 255.638 287.111C254.341 287.111 253.559 287.68 253.559 288.581C253.559 289.481 254.327 290.064 255.638 290.064C256.949 290.064 257.717 289.481 257.717 288.567V288.581ZM255.638 286.554C256.777 286.554 257.466 286.038 257.466 285.23C257.466 284.422 256.737 283.906 255.638 283.906C254.539 283.906 253.811 284.409 253.811 285.23C253.811 286.051 254.486 286.554 255.638 286.554Z" fill="black"/>
<path d="M287.249 283.257V290.633H286.495V283.906H284.76V283.23L287.249 283.257Z" fill="black"/>
<path d="M294.334 286.886C294.334 289.388 293.01 290.699 290.957 290.699C290.348 290.726 289.743 290.584 289.209 290.289L289.514 289.68C289.947 289.932 290.443 290.056 290.944 290.037C292.533 290.037 293.592 289.004 293.592 287.005C293.603 286.806 293.603 286.607 293.592 286.409C293.388 286.826 293.066 287.174 292.666 287.409C292.265 287.644 291.805 287.757 291.341 287.733C291.029 287.766 290.714 287.734 290.416 287.638C290.117 287.543 289.842 287.386 289.608 287.178C289.373 286.969 289.185 286.715 289.055 286.429C288.925 286.144 288.855 285.835 288.852 285.522C288.854 285.203 288.922 284.889 289.053 284.598C289.183 284.307 289.373 284.047 289.61 283.834C289.847 283.621 290.125 283.46 290.428 283.36C290.731 283.261 291.051 283.226 291.368 283.257C293.261 283.204 294.334 284.555 294.334 286.886ZM293.288 285.416C293.288 284.608 292.612 283.84 291.341 283.84C291.115 283.814 290.886 283.836 290.669 283.904C290.452 283.973 290.252 284.086 290.082 284.238C289.912 284.389 289.776 284.575 289.682 284.782C289.589 284.99 289.541 285.215 289.54 285.442C289.54 286.409 290.255 287.031 291.394 287.031C291.626 287.057 291.861 287.035 292.083 286.966C292.306 286.898 292.513 286.784 292.69 286.633C292.868 286.482 293.012 286.295 293.115 286.086C293.218 285.877 293.277 285.649 293.288 285.416Z" fill="black"/>
<path d="M324.924 289.958V290.633H319.747V290.09L322.819 287.098C323.64 286.277 323.799 285.773 323.799 285.27C323.799 284.423 323.203 283.946 322.077 283.946C321.702 283.925 321.326 283.987 320.978 284.129C320.63 284.271 320.318 284.489 320.064 284.767L319.521 284.304C319.858 283.944 320.27 283.663 320.728 283.482C321.186 283.302 321.679 283.225 322.17 283.257C323.666 283.257 324.607 284.012 324.607 285.244C324.587 285.693 324.469 286.132 324.261 286.53C324.053 286.928 323.759 287.276 323.402 287.548L320.885 290.011L324.924 289.958Z" fill="black"/>
<path d="M325.824 286.952C325.824 284.595 327.056 283.204 328.764 283.204C330.472 283.204 331.717 284.595 331.717 286.952C331.717 289.309 330.472 290.699 328.764 290.699C327.056 290.699 325.824 289.296 325.824 286.952ZM330.936 286.952C330.936 284.979 330.049 283.893 328.764 283.893C327.48 283.893 326.592 284.979 326.592 286.952C326.592 288.925 327.48 289.998 328.764 289.998C330.049 289.998 330.936 288.912 330.936 286.952Z" fill="black"/>
<path d="M109.841 322.866V323.542H104.676V323.012L107.735 320.006C108.57 319.185 108.728 318.682 108.728 318.192C108.728 317.331 108.133 316.867 107.007 316.867C106.631 316.843 106.255 316.904 105.906 317.047C105.558 317.189 105.246 317.408 104.994 317.688L104.451 317.238C104.786 316.875 105.197 316.592 105.655 316.409C106.114 316.225 106.607 316.147 107.1 316.179C108.596 316.179 109.55 316.934 109.55 318.165C109.531 318.616 109.411 319.056 109.201 319.455C108.99 319.853 108.693 320.2 108.331 320.469L105.828 322.933L109.841 322.866Z" fill="black"/>
<path d="M112.831 316.179V323.542H112.077V316.854H110.342V316.179H112.831Z" fill="black"/>
<path d="M144.797 322.866V323.541H139.62V323.011L142.692 320.005C143.513 319.184 143.672 318.681 143.672 318.191C143.672 317.33 143.076 316.867 141.95 316.867C141.575 316.845 141.199 316.908 140.851 317.05C140.503 317.192 140.191 317.41 139.937 317.688L139.395 317.238C139.73 316.876 140.142 316.594 140.6 316.411C141.058 316.227 141.551 316.148 142.043 316.178C143.539 316.178 144.48 316.933 144.48 318.164C144.46 318.613 144.342 319.053 144.134 319.451C143.926 319.849 143.632 320.197 143.275 320.469L140.759 322.932L144.797 322.866Z" fill="black"/>
<path d="M150.772 322.866V323.541H145.608V323.012L148.667 320.006C149.501 319.185 149.66 318.681 149.66 318.191C149.66 317.331 149.064 316.867 147.939 316.867C147.563 316.844 147.187 316.905 146.838 317.048C146.49 317.19 146.178 317.409 145.926 317.688L145.383 317.238C145.718 316.876 146.13 316.593 146.588 316.41C147.046 316.226 147.539 316.147 148.031 316.178C149.514 316.178 150.468 316.933 150.468 318.165C150.449 318.614 150.331 319.053 150.122 319.451C149.914 319.85 149.621 320.197 149.263 320.469L146.747 322.932L150.772 322.866Z" fill="black"/>
<path d="M180.858 322.866V323.542H175.694V323.012L178.753 320.006C179.587 319.185 179.746 318.682 179.746 318.192C179.746 317.331 179.137 316.867 178.011 316.867C177.636 316.846 177.26 316.909 176.912 317.051C176.564 317.193 176.252 317.411 175.998 317.688L175.469 317.238C175.803 316.875 176.215 316.592 176.673 316.409C177.131 316.225 177.625 316.147 178.117 316.179C179.614 316.179 180.554 316.934 180.554 318.165C180.538 318.615 180.422 319.056 180.213 319.454C180.005 319.853 179.709 320.2 179.349 320.469L176.846 322.933L180.858 322.866Z" fill="black"/>
<path d="M186.686 321.423C186.686 322.654 185.785 323.608 184.037 323.608C183.065 323.639 182.118 323.298 181.389 322.654L181.746 322.058C182.367 322.635 183.19 322.944 184.037 322.919C185.255 322.919 185.931 322.35 185.931 321.423C185.931 320.496 185.308 319.966 183.944 319.966H183.415V319.41L185.454 316.854H181.693V316.179H186.447V316.708L184.368 319.357C185.891 319.423 186.686 320.244 186.686 321.423Z" fill="black"/>
<path d="M216.507 322.866V323.541H211.342V323.012L214.401 320.005C215.235 319.184 215.394 318.681 215.394 318.191C215.394 317.331 214.798 316.867 213.659 316.867C213.285 316.841 212.91 316.901 212.564 317.044C212.217 317.186 211.908 317.407 211.66 317.688L211.117 317.225C211.452 316.862 211.863 316.578 212.321 316.395C212.779 316.212 213.273 316.133 213.765 316.165C215.262 316.165 216.215 316.92 216.215 318.152C216.197 318.602 216.078 319.043 215.868 319.442C215.657 319.841 215.359 320.187 214.997 320.456L212.494 322.919L216.507 322.866Z" fill="black"/>
<path d="M223.527 321.608H222.044V323.542H221.289V321.608H217.131V321.065L221.104 316.179H221.951L218.071 320.986H221.276V319.277H222.004V320.986H223.527V321.608Z" fill="black"/>
<path d="M252.938 322.866V323.541H247.761V323.012L250.833 320.006C251.654 319.185 251.813 318.681 251.813 318.192C251.813 317.331 251.217 316.867 250.091 316.867C249.716 316.846 249.34 316.908 248.992 317.051C248.644 317.193 248.332 317.41 248.079 317.688L247.549 317.238C247.882 316.874 248.293 316.589 248.752 316.406C249.211 316.222 249.705 316.145 250.197 316.179C251.694 316.179 252.634 316.933 252.634 318.165C252.615 318.614 252.497 319.053 252.288 319.452C252.08 319.85 251.787 320.197 251.429 320.469L248.926 322.932L252.938 322.866Z" fill="black"/>
<path d="M258.883 321.37C258.883 322.694 258.009 323.608 256.234 323.608C255.261 323.645 254.312 323.303 253.586 322.654L253.943 322.058C254.555 322.633 255.369 322.942 256.208 322.919C257.466 322.919 258.128 322.297 258.128 321.41C258.128 320.522 257.545 319.873 255.665 319.873H254.102L254.473 316.179H258.512V316.854H255.135L254.884 319.198H255.837C258.049 319.198 258.883 320.072 258.883 321.37Z" fill="black"/>
<path d="M288.771 322.866V323.542H283.593V323.012L286.665 320.006C287.499 319.185 287.658 318.682 287.658 318.192C287.658 317.331 287.049 316.867 285.923 316.867C285.548 316.846 285.172 316.909 284.824 317.051C284.476 317.193 284.164 317.411 283.911 317.688L283.381 317.238C283.715 316.875 284.127 316.592 284.585 316.409C285.043 316.225 285.537 316.147 286.029 316.179C287.526 316.179 288.466 316.934 288.466 318.165C288.45 318.615 288.334 319.056 288.125 319.454C287.917 319.853 287.621 320.2 287.261 320.469L284.758 322.933L288.771 322.866Z" fill="black"/>
<path d="M295.219 321.343C295.215 321.661 295.145 321.974 295.014 322.264C294.882 322.554 294.693 322.813 294.456 323.026C294.22 323.238 293.942 323.4 293.64 323.5C293.339 323.6 293.019 323.637 292.703 323.607C290.743 323.607 289.684 322.283 289.684 319.926C289.684 317.569 291.008 316.112 293.047 316.112C293.655 316.088 294.258 316.225 294.795 316.509L294.491 317.119C294.056 316.871 293.56 316.752 293.06 316.774C291.471 316.774 290.412 317.794 290.412 319.794C290.4 319.996 290.4 320.2 290.412 320.403C290.613 319.983 290.935 319.634 291.336 319.398C291.737 319.162 292.199 319.051 292.663 319.078C292.985 319.03 293.314 319.053 293.626 319.145C293.939 319.237 294.227 319.397 294.471 319.613C294.714 319.829 294.908 320.096 295.037 320.395C295.166 320.694 295.228 321.017 295.219 321.343ZM294.464 321.343C294.464 320.376 293.749 319.754 292.61 319.754C292.379 319.726 292.145 319.747 291.922 319.814C291.699 319.881 291.492 319.993 291.315 320.143C291.137 320.293 290.992 320.479 290.889 320.687C290.786 320.896 290.728 321.124 290.717 321.356C290.717 322.164 291.392 322.945 292.663 322.945C292.887 322.971 293.114 322.95 293.329 322.883C293.544 322.816 293.743 322.705 293.913 322.556C294.082 322.408 294.219 322.226 294.314 322.021C294.409 321.817 294.46 321.595 294.464 321.369V321.343Z" fill="black"/>
<path d="M324.924 322.866V323.541H319.747V323.011L322.819 320.005C323.64 319.184 323.799 318.681 323.799 318.191C323.799 317.33 323.203 316.867 322.077 316.867C321.702 316.845 321.326 316.908 320.978 317.05C320.63 317.192 320.318 317.41 320.064 317.688L319.521 317.238C319.857 316.876 320.269 316.594 320.727 316.411C321.185 316.227 321.678 316.148 322.17 316.178C323.666 316.178 324.607 316.933 324.607 318.164C324.587 318.613 324.469 319.053 324.261 319.451C324.053 319.849 323.759 320.197 323.402 320.469L320.885 322.932L324.924 322.866Z" fill="black"/>
<path d="M331.028 316.179V316.709L327.942 323.542H327.121L330.153 316.854H326.366V318.179H325.611V316.126L331.028 316.179Z" fill="black"/>
<path d="M109.841 354.397V355.072H104.676V354.529L107.735 351.536C108.57 350.715 108.728 350.212 108.728 349.709C108.728 348.861 108.133 348.385 107.007 348.385C106.631 348.36 106.255 348.422 105.906 348.564C105.558 348.706 105.246 348.925 104.994 349.206L104.451 348.742C104.786 348.379 105.197 348.096 105.655 347.913C106.114 347.729 106.607 347.651 107.1 347.683C108.596 347.683 109.55 348.451 109.55 349.682C109.531 350.133 109.411 350.573 109.201 350.972C108.99 351.371 108.693 351.717 108.331 351.987L105.828 354.45L109.841 354.397Z" fill="black"/>
<path d="M116.462 353.019C116.462 354.343 115.349 355.124 113.588 355.124C111.827 355.124 110.754 354.316 110.754 353.019C110.749 352.6 110.886 352.192 111.144 351.863C111.402 351.533 111.764 351.301 112.171 351.204C111.83 351.096 111.534 350.88 111.326 350.588C111.118 350.297 111.011 349.946 111.019 349.589C111.019 348.384 112.039 347.629 113.588 347.629C115.137 347.629 116.236 348.384 116.236 349.589C116.241 349.949 116.128 350.301 115.916 350.593C115.704 350.884 115.402 351.099 115.058 351.204C115.461 351.305 115.819 351.539 116.074 351.868C116.329 352.197 116.465 352.603 116.462 353.019ZM115.68 353.019C115.68 352.105 114.899 351.549 113.588 351.549C112.277 351.549 111.522 352.105 111.522 353.019C111.522 353.932 112.29 354.502 113.588 354.502C114.886 354.502 115.68 353.919 115.68 353.005V353.019ZM113.614 350.926C114.767 350.926 115.455 350.41 115.455 349.602C115.455 348.794 114.727 348.278 113.614 348.278C112.502 348.278 111.8 348.781 111.8 349.602C111.8 350.423 112.449 350.926 113.614 350.926Z" fill="black"/>
<path d="M146.72 354.397V355.072H141.555V354.529L144.614 351.536C145.449 350.715 145.607 350.212 145.607 349.709C145.607 348.861 145.012 348.385 143.886 348.385C143.51 348.36 143.134 348.422 142.785 348.564C142.436 348.706 142.125 348.925 141.873 349.206L141.33 348.742C141.665 348.379 142.076 348.096 142.534 347.913C142.993 347.729 143.486 347.651 143.979 347.683C145.475 347.683 146.428 348.451 146.428 349.682C146.409 350.133 146.29 350.573 146.079 350.972C145.869 351.371 145.572 351.717 145.21 351.987L142.747 354.397H146.72Z" fill="black"/>
<path d="M153.021 351.324C153.021 353.826 151.697 355.124 149.645 355.124C149.037 355.155 148.432 355.018 147.897 354.727L148.201 354.118C148.636 354.365 149.132 354.485 149.631 354.462C151.22 354.462 152.28 353.442 152.28 351.443C152.291 351.244 152.291 351.045 152.28 350.847C152.067 351.253 151.741 351.588 151.342 351.811C150.942 352.034 150.486 352.137 150.029 352.105C149.717 352.14 149.401 352.109 149.101 352.015C148.802 351.92 148.526 351.763 148.291 351.554C148.056 351.346 147.868 351.09 147.738 350.804C147.609 350.518 147.541 350.207 147.539 349.893C147.543 349.575 147.613 349.262 147.744 348.972C147.876 348.683 148.065 348.423 148.302 348.211C148.538 347.998 148.816 347.836 149.118 347.736C149.419 347.636 149.739 347.6 150.055 347.629C152.015 347.629 153.021 348.993 153.021 351.324ZM152.015 349.854C152.015 349.046 151.34 348.278 150.068 348.278C149.842 348.252 149.613 348.274 149.396 348.342C149.179 348.411 148.979 348.524 148.809 348.676C148.639 348.827 148.503 349.012 148.41 349.22C148.316 349.428 148.268 349.653 148.267 349.88C148.267 350.847 148.983 351.469 150.121 351.469C150.353 351.495 150.588 351.473 150.811 351.404C151.034 351.336 151.24 351.222 151.417 351.071C151.595 350.92 151.739 350.733 151.842 350.524C151.945 350.315 152.004 350.087 152.015 349.854Z" fill="black"/>
<path d="M183.082 352.952C183.082 354.183 182.195 355.123 180.434 355.123C179.463 355.159 178.516 354.822 177.785 354.183L178.156 353.587C178.777 354.154 179.593 354.458 180.434 354.435C181.665 354.435 182.341 353.865 182.341 352.952C182.341 352.038 181.718 351.482 180.341 351.482H179.824V350.926L181.864 348.37H178.09V347.694H182.831V348.237L180.751 350.886C182.301 350.939 183.082 351.773 183.082 352.952Z" fill="black"/>
<path d="M184.156 351.442C184.156 349.098 185.388 347.694 187.096 347.694C188.804 347.694 190.036 349.098 190.036 351.442C190.036 353.786 188.804 355.19 187.096 355.19C185.388 355.19 184.156 353.733 184.156 351.442ZM189.268 351.442C189.268 349.482 188.381 348.396 187.096 348.396C185.812 348.396 184.924 349.482 184.924 351.442C184.924 353.402 185.812 354.501 187.096 354.501C188.381 354.501 189.268 353.349 189.268 351.442Z" fill="black"/>
<path d="M221.434 352.952C221.434 354.183 220.533 355.123 218.785 355.123C217.815 355.159 216.868 354.822 216.137 354.183L216.508 353.587C217.132 354.156 217.954 354.46 218.798 354.435C220.017 354.435 220.692 353.865 220.692 352.952C220.692 352.038 220.07 351.482 218.706 351.482H218.176V350.926L220.215 348.37H216.455V347.694H221.182V348.237L219.103 350.886C220.639 350.939 221.434 351.773 221.434 352.952Z" fill="black"/>
<path d="M224.544 347.694V355.07H223.776V348.37H222.041V347.694H224.544Z" fill="black"/>
<path d="M290.068 216.939C290.068 218.197 289.194 219.163 287.42 219.163C286.45 219.199 285.502 218.862 284.771 218.223L285.142 217.627C285.759 218.192 286.571 218.496 287.407 218.475C288.665 218.475 289.327 217.866 289.327 216.965C289.327 216.065 288.731 215.429 286.864 215.429H285.288L285.672 211.734H289.645V212.396H286.268L286.016 214.74H286.97C289.221 214.754 290.068 215.628 290.068 216.939Z" fill="black"/>
<path d="M326.088 216.899C326.088 217.217 326.021 217.531 325.892 217.822C325.763 218.112 325.574 218.372 325.339 218.586C325.103 218.799 324.825 218.961 324.523 219.06C324.221 219.16 323.902 219.195 323.585 219.163C321.625 219.163 320.553 217.839 320.553 215.482C320.553 213.125 321.877 211.668 323.93 211.668C324.539 211.642 325.144 211.784 325.678 212.079L325.373 212.688C324.94 212.436 324.444 212.312 323.943 212.33C322.34 212.33 321.294 213.363 321.294 215.363C321.283 215.561 321.283 215.76 321.294 215.959C321.507 215.553 321.833 215.218 322.233 214.994C322.632 214.771 323.089 214.669 323.546 214.701C323.861 214.655 324.183 214.678 324.488 214.767C324.794 214.857 325.077 215.011 325.318 215.22C325.56 215.428 325.753 215.686 325.886 215.976C326.019 216.265 326.088 216.58 326.088 216.899ZM325.347 216.899C325.347 215.932 324.631 215.31 323.493 215.31C323.261 215.284 323.026 215.306 322.803 215.375C322.58 215.443 322.374 215.557 322.196 215.708C322.019 215.86 321.875 216.046 321.772 216.255C321.669 216.464 321.61 216.692 321.599 216.925C321.599 217.733 322.274 218.501 323.546 218.501C323.769 218.527 323.996 218.506 324.211 218.439C324.427 218.372 324.625 218.261 324.795 218.112C324.965 217.964 325.101 217.782 325.196 217.577C325.291 217.373 325.343 217.151 325.347 216.925V216.899Z" fill="black"/>
<path d="M179.058 176.258L176.648 183.634H174.821L173.205 178.641L171.536 183.634H169.709L167.299 176.258H169.06L170.729 181.436L172.463 176.258H174.039L175.721 181.475L177.443 176.258H179.058Z" fill="#0E2B72"/>
<path d="M184.989 181.264H180.712C180.799 181.617 181.011 181.926 181.308 182.135C181.604 182.344 181.966 182.439 182.328 182.403C182.591 182.413 182.854 182.369 183.1 182.273C183.346 182.177 183.57 182.032 183.758 181.847L184.632 182.8C184.33 183.113 183.965 183.357 183.56 183.514C183.155 183.672 182.721 183.74 182.288 183.714C181.88 183.755 181.469 183.71 181.08 183.582C180.69 183.454 180.332 183.247 180.028 182.972C179.724 182.698 179.48 182.363 179.313 181.989C179.146 181.615 179.058 181.21 179.057 180.801C179.053 180.408 179.129 180.019 179.281 179.656C179.432 179.294 179.656 178.967 179.939 178.694C180.222 178.421 180.557 178.209 180.924 178.07C181.292 177.932 181.684 177.869 182.076 177.888C182.468 177.865 182.859 177.925 183.226 178.063C183.593 178.202 183.927 178.416 184.205 178.692C184.484 178.968 184.701 179.3 184.843 179.666C184.985 180.031 185.048 180.422 185.029 180.814C185.029 180.947 185.003 181.119 184.989 181.264ZM180.686 180.298H183.48C183.424 179.968 183.253 179.668 182.997 179.452C182.741 179.236 182.418 179.117 182.083 179.117C181.748 179.117 181.424 179.236 181.168 179.452C180.912 179.668 180.741 179.968 180.686 180.298Z" fill="#0E2B72"/>
<path d="M191.903 175.82V183.633H190.327V182.971C190.111 183.223 189.839 183.42 189.533 183.549C189.228 183.678 188.897 183.734 188.566 183.713C187.793 183.713 187.052 183.406 186.506 182.86C185.959 182.313 185.652 181.572 185.652 180.799C185.652 180.027 185.959 179.286 186.506 178.739C187.052 178.193 187.793 177.886 188.566 177.886C188.88 177.869 189.195 177.921 189.488 178.037C189.78 178.154 190.044 178.333 190.261 178.562V175.82H191.903ZM190.287 180.799C190.267 180.516 190.164 180.245 189.991 180.02C189.818 179.794 189.583 179.624 189.315 179.53C189.047 179.437 188.758 179.423 188.482 179.492C188.207 179.561 187.957 179.708 187.764 179.917C187.572 180.126 187.444 180.386 187.398 180.666C187.351 180.946 187.387 181.234 187.502 181.494C187.617 181.754 187.805 181.974 188.043 182.128C188.281 182.283 188.56 182.364 188.844 182.362C189.044 182.363 189.242 182.322 189.425 182.242C189.609 182.162 189.773 182.045 189.909 181.898C190.045 181.751 190.148 181.578 190.214 181.389C190.279 181.199 190.304 180.999 190.287 180.799Z" fill="#0E2B72"/>
<path d="M207.965 177.648H205.607V176.258H212.03V177.648H209.673V183.634H207.965V177.648Z" fill="#0E2B72"/>
<path d="M218.624 180.39V183.634H216.982V180.615C216.982 179.701 216.558 179.29 215.843 179.29C215.128 179.29 214.519 179.767 214.519 180.813V183.621H212.877V175.808H214.519V178.536C214.76 178.312 215.044 178.138 215.353 178.024C215.662 177.91 215.991 177.859 216.32 177.873C216.646 177.857 216.971 177.912 217.273 178.036C217.574 178.159 217.845 178.348 218.065 178.588C218.285 178.829 218.45 179.115 218.546 179.426C218.643 179.738 218.67 180.067 218.624 180.39Z" fill="#0E2B72"/>
<path d="M225.832 177.967V183.635H224.269V182.959C224.047 183.204 223.775 183.398 223.471 183.528C223.167 183.659 222.838 183.722 222.508 183.714C222.172 183.743 221.834 183.696 221.519 183.576C221.203 183.457 220.919 183.268 220.686 183.024C220.453 182.78 220.279 182.487 220.175 182.166C220.07 181.846 220.04 181.506 220.084 181.171V177.967H221.727V180.92C221.727 181.873 222.15 182.244 222.879 182.244C223.607 182.244 224.203 181.754 224.203 180.708V177.967H225.832Z" fill="#0E2B72"/>
<path d="M247.747 177.622V179.582H251.164V180.906H247.747V183.555H246.039V176.179H251.614V177.503L247.747 177.622Z" fill="#0E2B72"/>
<path d="M256.062 177.887V179.396H255.704C255.495 179.379 255.284 179.408 255.087 179.483C254.89 179.558 254.713 179.676 254.568 179.828C254.423 179.981 254.314 180.164 254.25 180.364C254.185 180.565 254.166 180.777 254.195 180.985V183.634H252.553V177.966H254.115V178.708C254.351 178.426 254.65 178.204 254.989 178.061C255.328 177.918 255.696 177.858 256.062 177.887Z" fill="#0E2B72"/>
<path d="M256.857 176.258C256.861 176.13 256.89 176.004 256.944 175.887C256.997 175.771 257.074 175.667 257.17 175.581C257.265 175.496 257.377 175.43 257.499 175.39C257.621 175.349 257.749 175.334 257.877 175.345C258.003 175.332 258.13 175.345 258.251 175.383C258.372 175.422 258.483 175.484 258.579 175.568C258.674 175.651 258.752 175.752 258.807 175.867C258.861 175.981 258.892 176.105 258.897 176.232C258.897 176.502 258.789 176.762 258.598 176.953C258.407 177.144 258.148 177.251 257.877 177.251C257.607 177.251 257.347 177.144 257.156 176.953C256.965 176.762 256.857 176.502 256.857 176.232V176.258ZM257.056 177.967H258.698V183.634H257.056V177.967Z" fill="#0E2B72"/>
<path d="M279.94 182.906L280.522 181.582C281.236 182.073 282.08 182.34 282.946 182.35C283.965 182.35 284.376 182.005 284.376 181.555C284.376 180.231 280.085 181.131 280.085 178.39C280.085 177.132 281.092 176.099 283.197 176.099C284.093 176.077 284.977 176.302 285.753 176.748L285.223 178.072C284.606 177.703 283.903 177.502 283.184 177.49C282.164 177.49 281.78 177.874 281.78 178.337C281.78 179.661 286.071 178.748 286.071 181.462C286.071 182.694 285.038 183.74 282.932 183.74C281.874 183.767 280.831 183.477 279.94 182.906Z" fill="#0E2B72"/>
<path d="M292.136 180.403V183.634H290.6V182.919C290.41 183.193 290.15 183.411 289.848 183.551C289.545 183.691 289.21 183.747 288.879 183.714C287.554 183.714 286.76 182.972 286.76 181.992C286.76 181.012 287.462 180.297 289.183 180.297H290.507C290.507 179.595 290.084 179.185 289.183 179.185C288.596 179.176 288.024 179.362 287.554 179.714L286.972 178.562C287.7 178.103 288.547 177.868 289.408 177.887C291.13 177.887 292.136 178.681 292.136 180.403ZM290.494 181.833V181.264H289.369C288.6 181.264 288.362 181.542 288.362 181.926C288.362 182.31 288.706 182.614 289.276 182.614C289.536 182.632 289.794 182.565 290.014 182.424C290.233 182.284 290.401 182.076 290.494 181.833Z" fill="#0E2B72"/>
<path d="M297.273 183.356C296.877 183.604 296.416 183.729 295.948 183.713C295.669 183.753 295.385 183.729 295.117 183.642C294.849 183.556 294.604 183.409 294.401 183.214C294.198 183.018 294.043 182.779 293.946 182.515C293.849 182.25 293.814 181.967 293.843 181.687V179.357H292.969V178.032H293.843V176.708H295.472V178.032H296.889V179.357H295.472V181.661C295.459 181.759 295.469 181.858 295.5 181.952C295.532 182.046 295.583 182.131 295.652 182.202C295.721 182.273 295.804 182.328 295.897 182.363C295.989 182.397 296.088 182.411 296.187 182.402C296.423 182.405 296.654 182.336 296.849 182.204L297.273 183.356Z" fill="#0E2B72"/>
<path d="M314.449 182.906L315.032 181.582C315.749 182.075 316.598 182.342 317.468 182.35C318.475 182.35 318.885 182.005 318.885 181.555C318.885 180.231 314.595 181.131 314.595 178.39C314.595 177.132 315.614 176.099 317.707 176.099C318.602 176.077 319.486 176.302 320.262 176.748L319.733 178.072C319.116 177.701 318.413 177.5 317.693 177.49C316.687 177.49 316.29 177.86 316.29 178.324C316.29 179.648 320.58 178.748 320.58 181.462C320.58 182.694 319.561 183.74 317.455 183.74C316.392 183.77 315.345 183.479 314.449 182.906Z" fill="#0E2B72"/>
<path d="M327.349 177.967V183.635H325.787V182.959C325.564 183.204 325.292 183.398 324.988 183.528C324.684 183.659 324.356 183.722 324.025 183.714C323.69 183.743 323.351 183.696 323.036 183.576C322.721 183.457 322.436 183.268 322.204 183.024C321.971 182.78 321.796 182.487 321.692 182.166C321.588 181.846 321.557 181.506 321.602 181.171V177.967H323.244V180.92C323.244 181.873 323.668 182.244 324.396 182.244C325.125 182.244 325.72 181.754 325.72 180.708V177.967H327.349Z" fill="#0E2B72"/>
<path d="M334.671 180.389V183.633H333.029V180.614C333.029 179.7 332.605 179.29 331.877 179.29C331.148 179.29 330.552 179.767 330.552 180.813V183.62H328.91V177.966H330.486V178.628C330.725 178.376 331.016 178.179 331.338 178.048C331.66 177.918 332.006 177.858 332.353 177.873C332.679 177.856 333.005 177.912 333.307 178.035C333.609 178.159 333.881 178.348 334.102 178.588C334.323 178.828 334.489 179.114 334.587 179.425C334.685 179.736 334.714 180.065 334.671 180.389Z" fill="#0E2B72"/>
<path d="M99.511 135.136C99.3514 135.135 99.1969 135.079 99.074 134.977L95.5383 131.812C95.4727 131.756 95.419 131.687 95.3803 131.61C95.3416 131.532 95.3188 131.448 95.3132 131.362C95.3091 131.272 95.3235 131.182 95.3553 131.098C95.3872 131.013 95.436 130.936 95.4986 130.872L99.0211 127.071C99.1448 126.95 99.3112 126.882 99.4845 126.882C99.6579 126.882 99.8243 126.95 99.948 127.071C100.01 127.133 100.059 127.206 100.093 127.287C100.127 127.367 100.144 127.454 100.144 127.541C100.144 127.629 100.127 127.715 100.093 127.796C100.059 127.877 100.01 127.95 99.948 128.011L96.8625 131.282L99.8951 133.931C100.017 134.057 100.086 134.225 100.086 134.401C100.086 134.576 100.017 134.745 99.8951 134.871C99.8026 135.002 99.6664 135.096 99.511 135.136Z" fill="#0E2B72"/>
<path d="M177.157 131.917L179.731 132.425C179.238 135.095 177.093 136.652 174.36 136.652C171.198 136.652 168.703 134.221 168.703 131.091C168.703 127.976 171.198 125.529 174.36 125.529C176.982 125.529 179.207 127.086 179.715 129.613L177.141 130.217C176.807 128.675 175.726 127.928 174.36 127.928C172.675 127.928 171.325 129.279 171.325 131.091C171.325 132.902 172.675 134.269 174.36 134.269C175.711 134.269 176.791 133.506 177.157 131.917ZM186.511 125.529C189.689 125.529 192.184 127.992 192.184 131.106C192.184 134.205 189.689 136.652 186.511 136.652C183.333 136.652 180.838 134.205 180.838 131.106C180.838 127.992 183.333 125.529 186.511 125.529ZM186.511 134.253C188.243 134.253 189.562 132.918 189.562 131.106C189.562 129.279 188.243 127.928 186.511 127.928C184.779 127.928 183.46 129.279 183.46 131.106C183.46 132.918 184.779 134.253 186.511 134.253ZM203.835 125.767V136.414H201.674L196.287 130.248V136.414H193.665V125.767H195.842L201.229 132.123V125.767H203.835ZM208.314 128.071V130.312H213.304V132.6H208.314V136.414H205.692V125.767H213.923V128.071H208.314ZM217.811 136.414H215.189V125.767H217.811V136.414ZM229.416 136.414H226.253L223.043 132.759H222.281V136.414H219.659V125.767H225.046C227.35 125.767 228.875 127.166 228.875 129.247C228.875 130.995 227.795 132.251 226.079 132.632L229.416 136.414ZM222.281 130.566H224.76C225.697 130.566 226.301 130.058 226.301 129.279C226.301 128.516 225.697 128.008 224.76 128.008H222.281V130.566ZM242.728 125.767V136.414H240.185V130.741L237.198 136.414H235.99L232.987 130.709V136.414H230.444V125.767H233.018L236.594 132.521L240.169 125.767H242.728ZM252.861 134.158V136.414H244.566V125.767H252.813V128.024H247.188V130.026H252.352V132.155H247.188V134.158H252.861ZM254.498 125.767H258.709C262.221 125.767 264.541 127.928 264.541 131.091C264.541 134.253 262.221 136.414 258.709 136.414H254.498V125.767ZM257.12 134.142H258.614C260.6 134.142 261.903 132.934 261.903 131.091C261.903 129.247 260.6 128.04 258.614 128.04H257.12V134.142Z" fill="black"/>
<path d="M333.857 135.125C333.774 135.128 333.692 135.114 333.615 135.085C333.537 135.055 333.467 135.01 333.407 134.953C333.345 134.892 333.295 134.818 333.262 134.738C333.228 134.657 333.211 134.57 333.211 134.483C333.211 134.396 333.228 134.309 333.262 134.228C333.295 134.148 333.345 134.074 333.407 134.013L336.506 130.716L333.486 128.067C333.416 128.011 333.358 127.94 333.316 127.86C333.273 127.781 333.248 127.693 333.241 127.603C333.234 127.513 333.245 127.423 333.274 127.337C333.303 127.252 333.349 127.173 333.41 127.106C333.471 127.039 333.544 126.986 333.626 126.948C333.708 126.911 333.797 126.891 333.888 126.889C333.978 126.887 334.067 126.904 334.151 126.938C334.235 126.972 334.31 127.023 334.373 127.087L337.83 130.173C337.963 130.291 338.044 130.458 338.055 130.636C338.059 130.811 337.998 130.981 337.883 131.113L334.387 134.927C334.321 135 334.239 135.057 334.146 135.091C334.054 135.126 333.955 135.138 333.857 135.125Z" fill="#0E2B72"/>
<path d="M169.924 43.6084H122.352V74.6623H169.924V43.6084Z" fill="#FFB400" stroke="#0E2B72" stroke-width="0.889541" stroke-miterlimit="10"/>
<path d="M222.12 43.6084H174.547V74.6623H222.12V43.6084Z" fill="#FFB400" stroke="#0E2B72" stroke-width="0.889541" stroke-miterlimit="10"/>
<path d="M117.725 60.7854V43.6084H70.1523V60.7854V74.6623V91.8393H362.811V60.7854H117.725Z" fill="#0E2B72" stroke="#0E2B72" stroke-width="0.889541" stroke-linecap="round" stroke-linejoin="round"/>
</g>
<path d="M428.553 345.556H255.012V425.595H428.553V345.556Z" fill="#F5F5F5"/>
<path d="M424.419 421.86H258.965V349.812H424.419V421.86ZM260.065 420.779H423.339V350.845H260.065V420.779Z" fill="#B0B0B0"/>
<path d="M470.947 345.556H428.553V425.595H470.947V345.556Z" fill="#B0B0B0"/>
<path d="M259.525 372.061H423.917C423.975 372.061 424.031 372.038 424.072 371.997C424.112 371.956 424.135 371.901 424.135 371.843C424.135 371.785 424.112 371.73 424.072 371.689C424.031 371.648 423.975 371.625 423.917 371.625H259.525C259.467 371.625 259.411 371.648 259.371 371.689C259.33 371.73 259.307 371.785 259.307 371.843C259.307 371.901 259.33 371.956 259.371 371.997C259.411 372.038 259.467 372.061 259.525 372.061Z" fill="#B0B0B0"/>
<path d="M342.239 371.844C342.694 364.606 342.713 357.347 342.296 350.106C342.285 350.055 342.257 350.009 342.216 349.976C342.176 349.943 342.125 349.925 342.073 349.925C342.021 349.925 341.97 349.943 341.929 349.976C341.889 350.009 341.861 350.055 341.85 350.106C341.433 357.347 341.452 364.606 341.907 371.844C341.916 371.881 341.937 371.914 341.967 371.938C341.997 371.962 342.035 371.974 342.073 371.974C342.111 371.974 342.148 371.962 342.178 371.938C342.209 371.914 342.23 371.881 342.239 371.844Z" fill="#B0B0B0"/>
<path d="M386.48 360.979C386.48 361.424 386.348 361.858 386.101 362.227C385.854 362.597 385.503 362.885 385.093 363.055C384.682 363.225 384.231 363.269 383.795 363.183C383.359 363.096 382.959 362.882 382.644 362.568C382.33 362.254 382.116 361.853 382.03 361.418C381.943 360.982 381.987 360.53 382.157 360.119C382.327 359.709 382.615 359.358 382.985 359.111C383.354 358.864 383.789 358.732 384.233 358.732C384.829 358.732 385.4 358.969 385.822 359.39C386.243 359.812 386.48 360.383 386.48 360.979Z" fill="#B0B0B0"/>
<path d="M300.222 360.979C300.222 361.424 300.09 361.859 299.843 362.228C299.595 362.598 299.244 362.886 298.833 363.056C298.422 363.226 297.97 363.27 297.533 363.182C297.097 363.095 296.697 362.88 296.383 362.565C296.069 362.249 295.856 361.848 295.771 361.412C295.685 360.975 295.731 360.523 295.902 360.113C296.074 359.702 296.363 359.352 296.734 359.106C297.105 358.861 297.54 358.731 297.985 358.732C298.279 358.732 298.571 358.791 298.843 358.904C299.115 359.017 299.362 359.182 299.57 359.391C299.778 359.6 299.943 359.848 300.054 360.12C300.166 360.393 300.223 360.685 300.222 360.979Z" fill="#B0B0B0"/>
<path d="M343.945 385.836C343.947 386.281 343.816 386.716 343.571 387.087C343.325 387.457 342.975 387.747 342.564 387.918C342.154 388.09 341.702 388.136 341.265 388.05C340.829 387.964 340.428 387.751 340.113 387.437C339.797 387.124 339.583 386.723 339.495 386.287C339.408 385.851 339.452 385.399 339.621 384.988C339.791 384.577 340.079 384.225 340.449 383.978C340.818 383.731 341.253 383.599 341.698 383.599C342.292 383.599 342.862 383.834 343.283 384.253C343.704 384.673 343.942 385.242 343.945 385.836Z" fill="#B0B0B0"/>
<path d="M275.752 425.596L266.822 475.84H271.847L288.323 425.596H275.752Z" fill="#B0B0B0"/>
<path d="M416.276 425.596L423.746 475.925H418.721L403.705 425.596H416.276Z" fill="#B0B0B0"/>
<path d="M449.826 425.596L458.292 475.925H453.258L437.256 425.596H449.826Z" fill="#B0B0B0"/>
<path d="M343.792 408.446C343.792 408.891 343.66 409.326 343.413 409.695C343.166 410.065 342.814 410.353 342.403 410.523C341.992 410.692 341.54 410.736 341.104 410.649C340.668 410.561 340.267 410.346 339.954 410.031C339.64 409.716 339.426 409.315 339.341 408.878C339.255 408.442 339.301 407.99 339.473 407.58C339.644 407.169 339.934 406.819 340.304 406.573C340.675 406.328 341.11 406.197 341.555 406.199C341.85 406.199 342.141 406.257 342.413 406.37C342.685 406.483 342.933 406.649 343.14 406.858C343.348 407.067 343.513 407.314 343.625 407.587C343.737 407.859 343.794 408.151 343.792 408.446Z" fill="#B0B0B0"/>
<path d="M259.525 396.852H423.917C423.975 396.852 424.031 396.829 424.072 396.788C424.112 396.747 424.135 396.692 424.135 396.634C424.135 396.576 424.112 396.521 424.072 396.48C424.031 396.439 423.975 396.416 423.917 396.416H259.525C259.467 396.416 259.411 396.439 259.371 396.48C259.33 396.521 259.307 396.576 259.307 396.634C259.307 396.692 259.33 396.747 259.371 396.788C259.411 396.829 259.467 396.852 259.525 396.852Z" fill="#B0B0B0"/>
<path d="M377.622 319.654L377.516 308.97L325.044 309.494L325.151 320.178L377.622 319.654Z" fill="#B0B0B0"/>
<path d="M382.464 345.314L382.377 328.715L323.896 329.021L323.983 345.62L382.464 345.314Z" fill="#F5F5F5"/>
<path d="M371.209 345.214C370.928 342.458 370.833 339.687 370.924 336.919C370.833 334.147 370.928 331.373 371.209 328.614C371.37 328.614 371.493 332.33 371.493 336.919C371.493 341.507 371.37 345.214 371.209 345.214Z" fill="#B0B0B0"/>
<path d="M373.673 345.214C373.393 342.458 373.298 339.687 373.389 336.919C373.298 334.147 373.393 331.373 373.673 328.614C373.835 328.614 373.958 332.33 373.958 336.919C373.958 341.507 373.825 345.214 373.673 345.214Z" fill="#B0B0B0"/>
<path d="M332.796 345.214C332.635 345.214 332.512 341.498 332.512 336.919C332.512 332.34 332.635 328.614 332.796 328.614C333.077 331.373 333.172 334.147 333.081 336.919C333.172 339.687 333.077 342.458 332.796 345.214Z" fill="#B0B0B0"/>
<path d="M335.252 345.214C334.971 342.458 334.876 339.687 334.967 336.919C334.876 334.147 334.971 331.373 335.252 328.614C335.413 328.614 335.536 332.33 335.536 336.919C335.536 341.507 335.413 345.214 335.252 345.214Z" fill="#B0B0B0"/>
<path d="M340.617 337.185C340.617 337.024 346.514 336.9 353.794 336.9C361.075 336.9 366.972 337.024 366.972 337.185C366.972 337.346 361.066 337.469 353.794 337.469C346.523 337.469 340.617 337.346 340.617 337.185Z" fill="#B0B0B0"/>
<path d="M404.427 328.636L404.371 317.952L332.201 318.33L332.257 329.014L404.427 328.636Z" fill="#A3A3A3"/>
<path d="M394.101 327.317C393.415 327.326 392.741 327.131 392.166 326.757C391.591 326.382 391.14 325.845 390.871 325.214C390.602 324.582 390.526 323.885 390.655 323.211C390.783 322.537 391.108 321.916 391.59 321.427C392.072 320.938 392.689 320.604 393.361 320.467C394.034 320.329 394.732 320.395 395.367 320.655C396.002 320.916 396.545 321.359 396.928 321.929C397.31 322.499 397.514 323.17 397.514 323.856C397.518 324.308 397.433 324.756 397.263 325.174C397.093 325.592 396.843 325.973 396.526 326.295C396.209 326.616 395.831 326.872 395.415 327.047C394.999 327.223 394.553 327.314 394.101 327.317Z" fill="#B0B0B0"/>
<path d="M384.727 324.927V322.794H336.416V324.927H384.727Z" fill="#B0B0B0"/>
</g>
<defs>
<clipPath id="clip0_513_28227">
<rect width="474" height="474" fill="white"/>
</clipPath>
<clipPath id="clip1_513_28227">
<rect width="292.659" height="340.332" fill="white" transform="translate(70.1523 43.6084)"/>
</clipPath>
</defs>
</svg>
