<svg width="92" height="85" viewBox="0 0 92 85" fill="none" xmlns="http://www.w3.org/2000/svg">
<g clip-path="url(#clip0_513_29340)">
<path d="M90.5574 21.6513L90.4482 23.1606L90.7607 23.1833L90.8699 21.6739L90.5574 21.6513Z" fill="#0E2B72"/>
<path d="M90.9679 15.9358L90.6514 20.314L90.9639 20.3366L91.2804 15.9585L90.9679 15.9358Z" fill="#0E2B72"/>
<path d="M82.4067 65.1732H5.75551C3.41473 65.1732 1.63411 63.2557 1.80309 60.909L5.85878 4.26426C6.02776 1.92064 8.08064 0 10.4214 0H87.0726C89.4134 0 91.194 1.91751 91.025 4.26426L86.9693 60.9121C86.8003 63.2557 84.7474 65.1764 82.4067 65.1764V65.1732Z" fill="#0E2B72"/>
<path d="M64.5737 85.0001H39.6951L35.2607 54.2197H60.1394L64.5737 85.0001Z" fill="#0E2B72"/>
<path d="M60.6226 83.167H33.7099L33.1748 84.9999H60.0875L60.6226 83.167Z" fill="#0E2B72"/>
<path d="M61.4537 69.0365L37.2041 67.7112L35.2607 54.2197H59.3195L61.4537 69.0365Z" fill="#050F28"/>
<path d="M81.5364 65.1732H4.88832C2.54754 65.1732 0.766919 63.2557 0.935906 60.909L4.98846 4.26426C5.15745 1.91751 7.21032 0 9.55423 0H86.2054C88.5462 0 90.3268 1.91751 90.1578 4.26426L86.1021 60.9121C85.9331 63.2557 83.8803 65.1764 81.5395 65.1764L81.5364 65.1732Z" fill="#050F28"/>
<path d="M89.9622 4.812L87.6357 37.3076L87.9358 37.3291L90.2623 4.83353L89.9622 4.812Z" fill="white"/>
<path d="M87.4375 40.1329L86.6318 51.3867L86.9318 51.4082L87.7376 40.1545L87.4375 40.1329Z" fill="white"/>
<path d="M81.3804 64.1136H5.20495C3.38052 64.1136 1.99733 62.6191 2.12876 60.7956L6.16567 4.37956C6.2971 2.55292 7.89622 1.06152 9.71752 1.06152H85.893C87.7174 1.06152 89.1006 2.55605 88.9692 4.37956L84.9292 60.7956C84.7977 62.6222 83.1986 64.1136 81.3773 64.1136H81.3804Z" fill="white"/>
<path opacity="0.2" d="M81.3804 64.1136H5.20495C3.38052 64.1136 1.99733 62.6191 2.12876 60.7956L6.16567 4.37956C6.2971 2.55292 7.89622 1.06152 9.71752 1.06152H85.893C87.7174 1.06152 89.1006 2.55605 88.9692 4.37956L84.9292 60.7956C84.7977 62.6222 83.1986 64.1136 81.3773 64.1136H81.3804Z" fill="#0E2B72"/>
<path opacity="0.5" d="M24.7449 61.6133H6.95438C6.07502 61.6133 5.40533 60.8926 5.46792 60.0091L9.3953 5.16278C9.45789 4.28236 10.2308 3.55859 11.1102 3.55859H28.9008C29.7801 3.55859 30.4498 4.27922 30.3872 5.16278L26.4598 60.0091C26.3972 60.8895 25.6243 61.6133 24.7449 61.6133Z" fill="white"/>
<path opacity="0.4" d="M24.0604 11.2921H14.8538C14.0589 11.2921 13.4581 10.6435 13.5144 9.84769L13.6145 8.43463C13.6709 7.6388 14.3656 6.99023 15.1605 6.99023H24.3671C25.162 6.99023 25.7628 7.6388 25.7065 8.43463L25.6063 9.84769C25.55 10.6435 24.8553 11.2921 24.0604 11.2921Z" fill="#0E2B72"/>
<path d="M18.2009 33.4776H4.14366C2.76048 33.4776 1.709 32.3434 1.80601 30.9585L2.81368 16.8843C2.91382 15.4994 4.12802 14.3652 5.51121 14.3652H19.5684C20.9516 14.3652 22.0031 15.4994 21.9061 16.8843L20.8984 30.9585C20.7983 32.3434 19.5841 33.4776 18.2009 33.4776Z" fill="#0E2B72"/>
<path d="M20.214 21.9382C19.6852 21.9382 19.2252 22.3706 19.1876 22.8969L19.0405 24.9398C19.003 25.4693 19.4035 25.8985 19.9324 25.8985H21.3594C21.4908 25.8985 21.6035 25.792 21.6129 25.6604L21.8632 22.1732C21.8726 22.0416 21.7725 21.9351 21.641 21.9351H20.214V21.9382Z" fill="white"/>
<path d="M14.7942 17.9465H5.93496C5.72216 17.9465 5.56256 17.7742 5.57821 17.5612C5.59385 17.3481 5.77849 17.1758 5.99129 17.1758H14.8506C15.0634 17.1758 15.223 17.3481 15.2073 17.5612C15.1917 17.7742 15.007 17.9465 14.7942 17.9465Z" fill="white"/>
<path d="M14.6497 19.9085H5.79043C5.57763 19.9085 5.41803 19.7361 5.43368 19.5231C5.44932 19.31 5.63396 19.1377 5.84675 19.1377H14.706C14.9188 19.1377 15.0784 19.31 15.0628 19.5231C15.0471 19.7361 14.8625 19.9085 14.6497 19.9085Z" fill="white"/>
<path d="M11.4486 21.8665H5.6498C5.437 21.8665 5.2774 21.6941 5.29305 21.4811C5.3087 21.268 5.49333 21.0957 5.70613 21.0957H11.5049C11.7177 21.0957 11.8773 21.268 11.8616 21.4811C11.846 21.6941 11.6614 21.8665 11.4486 21.8665Z" fill="white"/>
<path opacity="0.5" d="M14.8128 31.2027H6.24144C5.33705 31.2027 4.64858 30.4601 4.7143 29.5546L5.03663 25.046C5.10235 24.1405 5.89408 23.3979 6.79847 23.3979H15.3699C16.2743 23.3979 16.9627 24.1405 16.897 25.046L16.5747 29.5546C16.509 30.4601 15.7172 31.2027 14.8128 31.2027Z" fill="white"/>
<path opacity="0.4" d="M22.8292 38.7476H12.1643C11.7731 38.7476 11.4727 38.4249 11.5009 38.0332C11.529 37.6416 11.8733 37.3188 12.2644 37.3188H22.9294C23.3205 37.3188 23.621 37.6416 23.5928 38.0332C23.5646 38.4249 23.2204 38.7476 22.8292 38.7476Z" fill="#0E2B72"/>
<path opacity="0.8" d="M20.6753 41.5518H13.9065C13.5153 41.5518 13.2149 41.2291 13.243 40.8374C13.2712 40.4458 13.6154 40.123 14.0066 40.123H20.7755C21.1666 40.123 21.4671 40.4458 21.4389 40.8374C21.4107 41.2291 21.0665 41.5518 20.6753 41.5518Z" fill="white"/>
<path opacity="0.4" d="M22.2667 46.4834H11.6018C11.2106 46.4834 10.9102 46.1607 10.9384 45.7691C10.9665 45.3774 11.3108 45.0547 11.7019 45.0547H22.3669C22.758 45.0547 23.0585 45.3774 23.0303 45.7691C23.0021 46.1607 22.6579 46.4834 22.2667 46.4834Z" fill="#0E2B72"/>
<path opacity="0.8" d="M20.1245 49.2871H13.3557C12.9645 49.2871 12.6641 48.9644 12.6923 48.5728C12.7204 48.1811 13.0647 47.8584 13.4558 47.8584H20.2247C20.6159 47.8584 20.9163 48.1811 20.8881 48.5728C20.86 48.9644 20.5157 49.2871 20.1245 49.2871Z" fill="white"/>
<path opacity="0.4" d="M21.7159 54.2193H11.051C10.6598 54.2193 10.3594 53.8965 10.3876 53.5049C10.4157 53.1132 10.76 52.7905 11.1511 52.7905H21.8161C22.2073 52.7905 22.5077 53.1132 22.4795 53.5049C22.4514 53.8965 22.1071 54.2193 21.7159 54.2193Z" fill="#0E2B72"/>
<path opacity="0.8" d="M19.566 57.02H12.7971C12.4059 57.02 12.1055 56.6973 12.1337 56.3057C12.1618 55.914 12.5061 55.5913 12.8972 55.5913H19.6661C20.0573 55.5913 20.3577 55.914 20.3295 56.3057C20.3014 56.6973 19.9571 57.02 19.566 57.02Z" fill="white"/>
<path opacity="0.5" d="M82.2014 45.5306C82.6646 44.8256 83.7223 45.1233 83.666 45.941L82.6396 60.2753C82.5864 61.0147 82.0293 61.6132 81.3972 61.6132H29.8124C29.1803 61.6132 28.7077 61.0116 28.7609 60.2753L29.3712 51.7593C29.4525 50.6094 30.6198 49.7823 31.6932 50.1175C34.6004 51.0262 37.0913 50.4935 39.4071 49.3436C44.3578 46.881 48.5011 41.6016 54.1934 41.6016C54.4125 41.6016 54.6253 41.6078 54.835 41.6204C63.3031 42.1311 65.8817 52.6617 72.444 52.6617C74.3842 52.6617 76.1523 51.8251 77.6951 50.6282C79.5821 49.1651 81.1249 47.1724 82.1983 45.5306H82.2014Z" fill="#0E2B72"/>
<path opacity="0.5" d="M83.2717 51.4367L82.6395 60.2754C82.5863 61.0148 82.0293 61.6133 81.3972 61.6133H29.8124C29.1803 61.6133 28.7077 61.0117 28.7609 60.2754L30.0189 42.7108C30.1066 41.5077 31.6806 41.0032 32.3159 41.9745C33.962 44.4873 36.4936 47.7364 39.4071 49.3406C40.5243 49.9547 41.6915 50.3276 42.8901 50.3276C47.0584 50.3276 50.604 45.3771 54.835 41.6173C57.4323 39.3113 60.2832 37.4502 63.6974 37.4502C70.823 37.4502 71.8745 49.043 77.692 50.6283C78.8123 50.9354 80.111 50.8696 81.6632 50.2743C82.4956 49.9578 83.328 50.5657 83.2654 51.4367H83.2717Z" fill="#0E2B72"/>
<g opacity="0.8">
<path d="M83.5274 48.0094C83.4992 48.0094 83.4742 47.9968 83.4522 47.978C83.4428 47.9686 83.4334 47.9561 83.4303 47.9436C83.424 47.931 83.4209 47.9154 83.4209 47.9028C83.4209 47.8715 83.4334 47.8464 83.4522 47.8276C83.4898 47.7869 83.5619 47.7838 83.6026 47.8276C83.6246 47.8464 83.634 47.8746 83.634 47.9028C83.634 47.9154 83.634 47.931 83.6277 47.9436C83.6214 47.9561 83.612 47.9686 83.6026 47.978C83.5838 47.9968 83.5556 48.0094 83.5274 48.0094Z" fill="white"/>
<path d="M33.373 55.3503C33.3135 55.3503 33.2666 55.3033 33.2666 55.2438C33.2666 55.1874 33.3135 55.1404 33.373 55.1404C33.4324 55.1404 33.4794 55.1874 33.4794 55.2438C33.4794 55.3033 33.4324 55.3534 33.373 55.3534V55.3503ZM32.2996 55.2908C32.2401 55.2908 32.1963 55.2344 32.2026 55.1748C32.2088 55.1153 32.262 55.0746 32.3215 55.0809C32.381 55.0871 32.4216 55.1404 32.4154 55.1968C32.4091 55.2532 32.3622 55.2939 32.309 55.2939C32.309 55.2939 32.3027 55.2939 32.2965 55.2939L32.2996 55.2908ZM34.3243 55.1968C34.3181 55.1372 34.3587 55.084 34.4182 55.0777C34.4777 55.0714 34.5309 55.1122 34.5371 55.1717C34.5434 55.2312 34.5027 55.2845 34.4432 55.2908H34.4307C34.3775 55.2908 34.3306 55.25 34.3243 55.1968ZM31.2419 55.1278C31.1855 55.1153 31.148 55.0589 31.1574 54.9994C31.1699 54.943 31.2262 54.9054 31.2857 54.9148C31.342 54.9273 31.3796 54.9837 31.3702 55.0432C31.3577 55.0934 31.3138 55.1278 31.2638 55.1278H31.2419ZM35.3695 55.0213C35.3539 54.9618 35.3883 54.9054 35.4478 54.8897C35.5041 54.8772 35.5604 54.9117 35.5761 54.9681C35.5917 55.0245 35.5542 55.084 35.4978 55.0996H35.4728C35.4227 55.0996 35.3789 55.0683 35.3695 55.0213ZM69.5956 55.0652C69.5362 55.0652 69.4892 55.0182 69.4892 54.9587C69.4892 54.8991 69.5393 54.8521 69.5956 54.8521C69.6551 54.8521 69.702 54.8991 69.702 54.9587C69.702 55.0182 69.6551 55.0652 69.5956 55.0652ZM70.5501 54.9148C70.5438 54.8553 70.5876 54.802 70.644 54.7989C70.7034 54.7895 70.7566 54.8333 70.7629 54.8929C70.7691 54.9524 70.7253 55.0057 70.6659 55.0119H70.6565C70.6033 55.0119 70.5563 54.9712 70.5501 54.9148ZM68.5254 54.9994C68.469 54.9931 68.4252 54.9399 68.4346 54.8803C68.4409 54.8208 68.4941 54.7801 68.5535 54.7863C68.613 54.7957 68.6537 54.849 68.6474 54.9054C68.638 54.9618 68.5942 55.0025 68.541 55.0025C68.541 55.0025 68.5316 55.0025 68.5254 55.0025V54.9994ZM30.2029 54.8709C30.1466 54.8553 30.1122 54.7957 30.1278 54.7393C30.1466 54.6829 30.2029 54.6485 30.2624 54.6641C30.3187 54.6829 30.35 54.7393 30.3343 54.7989C30.3218 54.8459 30.278 54.8741 30.2311 54.8741C30.2311 54.8741 30.2123 54.8741 30.2029 54.8741V54.8709ZM71.6016 54.7675C71.589 54.708 71.6266 54.6516 71.686 54.6422C71.7424 54.6297 71.7987 54.6673 71.8112 54.7268C71.8237 54.7832 71.7862 54.8396 71.7267 54.8521C71.7267 54.8521 71.7142 54.8521 71.708 54.8521C71.6579 54.8521 71.6109 54.8145 71.6016 54.7644V54.7675ZM67.4739 54.8051C67.4144 54.7926 67.38 54.7362 67.3957 54.6767C67.4082 54.6203 67.4645 54.5858 67.524 54.5983C67.5803 54.6109 67.6147 54.6704 67.6022 54.7268C67.5897 54.7769 67.5459 54.8083 67.4989 54.8083C67.4989 54.8083 67.4802 54.8083 67.4739 54.8083V54.8051ZM36.3834 54.7174C36.3615 54.661 36.3897 54.5983 36.446 54.5795C36.4992 54.5576 36.5618 54.5858 36.5837 54.6391C36.6025 54.6955 36.5775 54.7581 36.5211 54.7769C36.5211 54.7769 36.4961 54.7863 36.4836 54.7863C36.4398 54.7863 36.3991 54.7581 36.3834 54.7174ZM72.6374 54.5325C72.6217 54.473 72.653 54.4135 72.7125 54.3978C72.7688 54.3822 72.8283 54.4166 72.8439 54.473C72.8596 54.5294 72.8251 54.5889 72.7688 54.6046C72.7688 54.6046 72.75 54.6109 72.7407 54.6109C72.6937 54.6109 72.6499 54.5795 72.6374 54.5325ZM66.4475 54.4949C66.3911 54.4761 66.363 54.4135 66.3817 54.3602C66.4036 54.3038 66.4631 54.2756 66.5194 54.2944C66.5758 54.3164 66.6039 54.3759 66.5851 54.4323C66.5695 54.4761 66.5257 54.5012 66.4819 54.5012C66.4819 54.5012 66.4568 54.5012 66.4475 54.4949ZM37.3567 54.2944C37.3285 54.2443 37.3504 54.1785 37.4036 54.1503C37.4568 54.1252 37.5194 54.1503 37.5476 54.2004C37.5726 54.2506 37.5538 54.3164 37.5006 54.3414C37.5006 54.3414 37.4693 54.354 37.4506 54.354C37.413 54.354 37.3755 54.332 37.3567 54.2944ZM73.6544 54.2192C73.6325 54.1628 73.6638 54.1033 73.717 54.0845C73.7702 54.0626 73.8328 54.0939 73.8516 54.1472C73.8704 54.2036 73.8422 54.2662 73.7859 54.285C73.7859 54.285 73.764 54.2913 73.7514 54.2913C73.7076 54.2913 73.6669 54.2631 73.6513 54.2192H73.6544ZM65.4586 54.0876C65.4054 54.0657 65.3803 53.9999 65.4054 53.9466C65.4304 53.8934 65.493 53.8714 65.5462 53.8934C65.6025 53.9184 65.6244 53.9811 65.5994 54.0375C65.5806 54.0751 65.5431 54.1002 65.5024 54.1002C65.5024 54.1002 65.4711 54.097 65.4586 54.0876ZM74.6464 53.8432C74.6245 53.79 74.6464 53.7273 74.7059 53.7054C74.7591 53.6803 74.8217 53.7054 74.8436 53.7618C74.8686 53.815 74.8436 53.8777 74.7873 53.9028C74.7873 53.9028 74.7591 53.909 74.7466 53.909C74.7028 53.909 74.6652 53.884 74.6464 53.8432ZM38.283 53.7806C38.2517 53.7304 38.2673 53.6615 38.3174 53.6302C38.3675 53.5989 38.4332 53.6145 38.4645 53.6647C38.4958 53.7148 38.4801 53.7806 38.4301 53.8119C38.4301 53.8119 38.3925 53.8307 38.3737 53.8307C38.3393 53.8307 38.3049 53.8119 38.283 53.7806ZM64.5041 53.6083C64.4509 53.5801 64.4321 53.5143 64.4603 53.461C64.4885 53.4109 64.5542 53.3921 64.6074 53.4203C64.6574 53.4485 64.6762 53.5111 64.6481 53.5644C64.6293 53.5989 64.5917 53.6208 64.5542 53.6208C64.5385 53.6208 64.5197 53.6145 64.5041 53.6083ZM75.6197 53.414C75.5947 53.3607 75.6197 53.2981 75.6698 53.273C75.723 53.2479 75.7887 53.273 75.8137 53.3231C75.8387 53.3764 75.8137 53.4391 75.7605 53.4641C75.7605 53.4641 75.7292 53.4767 75.7136 53.4767C75.6729 53.4767 75.6353 53.4547 75.6166 53.414H75.6197ZM39.1655 53.1915C39.131 53.1414 39.1436 53.0756 39.1905 53.0411C39.2374 53.0067 39.3063 53.0161 39.3407 53.0631C39.3751 53.1101 39.3626 53.179 39.3157 53.2135C39.2969 53.226 39.275 53.2354 39.2531 53.2354C39.2187 53.2354 39.1874 53.2197 39.1655 53.1915ZM63.5809 53.0725C63.5309 53.0412 63.5152 52.9754 63.5465 52.9252C63.5747 52.872 63.6404 52.8563 63.6905 52.8876C63.7437 52.919 63.7593 52.9848 63.728 53.0349C63.7061 53.0694 63.6717 53.0881 63.6373 53.0881C63.6185 53.0881 63.5966 53.0819 63.5809 53.0725ZM76.571 52.9378C76.5429 52.8876 76.5616 52.8218 76.6148 52.7936C76.6649 52.7654 76.7306 52.7874 76.7588 52.8375C76.7869 52.8908 76.7682 52.9534 76.715 52.9848C76.715 52.9848 76.6805 52.9973 76.6649 52.9973C76.6273 52.9973 76.5898 52.9754 76.571 52.9378ZM40.0167 52.5492C39.9791 52.5022 39.9854 52.4364 40.0323 52.3989C40.0793 52.3613 40.145 52.3706 40.1825 52.4145C40.2201 52.4615 40.2107 52.5304 40.1669 52.568C40.145 52.5837 40.1231 52.59 40.098 52.59C40.0667 52.59 40.0354 52.5774 40.0167 52.5492ZM62.6797 52.5022C62.6296 52.4678 62.6171 52.402 62.6484 52.3519C62.6828 52.3017 62.7485 52.2892 62.7986 52.3205C62.8455 52.3519 62.8612 52.4208 62.8299 52.4678C62.808 52.5022 62.7736 52.5179 62.7391 52.5179C62.7172 52.5179 62.6984 52.5116 62.6797 52.5022ZM77.5004 52.4239C77.4692 52.3707 77.4879 52.308 77.538 52.2767C77.5881 52.2485 77.6538 52.2641 77.6851 52.3143C77.7132 52.3644 77.6976 52.4302 77.6475 52.4615C77.6287 52.4709 77.61 52.4772 77.5912 52.4772C77.5568 52.4772 77.5192 52.4584 77.5004 52.4239ZM61.7941 51.9101C61.7471 51.8756 61.7315 51.8098 61.7659 51.7597C61.8003 51.7127 61.866 51.7002 61.9161 51.7315C61.963 51.7659 61.9756 51.8317 61.9443 51.8819C61.9224 51.9132 61.8879 51.9289 61.8535 51.9289C61.8347 51.9289 61.8128 51.9226 61.7941 51.9101ZM78.408 51.8725C78.3767 51.8223 78.3923 51.7565 78.4424 51.7221C78.4925 51.6908 78.5582 51.7064 78.5895 51.7565C78.6208 51.8067 78.6051 51.8725 78.555 51.9038C78.555 51.9038 78.5206 51.9226 78.4987 51.9226C78.4643 51.9226 78.4299 51.9038 78.408 51.8725ZM40.8397 51.8787C40.8021 51.8349 40.8084 51.7659 40.8522 51.7284C40.8991 51.6908 40.968 51.697 41.0056 51.7409C41.0431 51.7879 41.0368 51.8537 40.9899 51.8913C40.9711 51.9101 40.9461 51.9163 40.9211 51.9163C40.8929 51.9163 40.8616 51.9038 40.8397 51.8787ZM79.2998 51.2897C79.2654 51.2396 79.2779 51.1738 79.3249 51.1393C79.3749 51.1048 79.4407 51.1174 79.4751 51.1675C79.5064 51.2145 79.497 51.2834 79.4469 51.3148C79.4281 51.3273 79.4062 51.3336 79.3875 51.3336C79.353 51.3336 79.3186 51.3179 79.2998 51.2897ZM60.9147 51.3148C60.8646 51.2803 60.8521 51.2145 60.8865 51.1675C60.9178 51.1174 60.9835 51.1048 61.0336 51.1362C61.0837 51.1706 61.0962 51.2364 61.0618 51.2866C61.043 51.3179 61.0086 51.3336 60.9742 51.3336C60.9554 51.3336 60.9335 51.3273 60.9147 51.3148ZM41.6565 51.1957C41.6158 51.1518 41.622 51.0829 41.669 51.0453C41.7128 51.0077 41.7816 51.014 41.8192 51.0579C41.8567 51.1048 41.8505 51.1706 41.8067 51.2082C41.7848 51.227 41.7629 51.2333 41.7378 51.2333C41.7065 51.2333 41.6752 51.2208 41.6565 51.1957ZM60.0322 50.7257C59.9821 50.6913 59.9665 50.6255 60.0009 50.5785C60.0322 50.5283 60.1011 50.5127 60.148 50.5471C60.1981 50.5785 60.2106 50.6443 60.1793 50.6944C60.1605 50.7257 60.1261 50.7414 60.0917 50.7414C60.0698 50.7414 60.051 50.7414 60.0322 50.7257ZM80.1698 50.6756C80.1323 50.6286 80.1448 50.5628 80.1917 50.5283C80.2387 50.4939 80.3075 50.5033 80.3419 50.5503C80.3764 50.5973 80.3638 50.6662 80.3169 50.7007C80.2981 50.7132 80.2762 50.7195 80.2543 50.7195C80.223 50.7195 80.1886 50.7069 80.1698 50.6756ZM42.4732 50.5158C42.4357 50.4719 42.4419 50.403 42.4889 50.3654C42.5358 50.3278 42.6015 50.3372 42.6391 50.3811C42.6766 50.4281 42.6704 50.497 42.6234 50.5315C42.6047 50.5503 42.5796 50.5565 42.5546 50.5565C42.5264 50.5565 42.4951 50.544 42.4732 50.5158ZM59.1403 50.1524C59.0903 50.121 59.0746 50.0552 59.1059 50.0051C59.1372 49.955 59.2029 49.9393 59.253 49.9706C59.3031 50.002 59.3187 50.0678 59.2874 50.1179C59.2655 50.1524 59.2311 50.1712 59.1967 50.1712C59.1779 50.1712 59.156 50.1649 59.1403 50.1524ZM81.021 50.0396C80.9834 49.9926 80.9928 49.9236 81.0398 49.8892C81.0867 49.8516 81.1524 49.861 81.19 49.908C81.2244 49.955 81.215 50.0208 81.1712 50.0584C81.1524 50.074 81.1305 50.0803 81.1086 50.0803C81.0742 50.0803 81.0429 50.0646 81.0241 50.0396H81.021ZM43.3056 49.8578C43.2712 49.8108 43.2806 49.7419 43.3276 49.7074C43.3745 49.673 43.4402 49.6824 43.4778 49.7294C43.5122 49.7764 43.5028 49.8422 43.4559 49.8798C43.4371 49.8923 43.4152 49.9017 43.3933 49.9017C43.3589 49.9017 43.3276 49.886 43.3056 49.8578ZM58.2297 49.6103C58.1796 49.5821 58.1608 49.5163 58.1921 49.4631C58.2203 49.4129 58.286 49.3941 58.3361 49.4255C58.3893 49.4537 58.4081 49.5195 58.3768 49.5696C58.358 49.6041 58.3204 49.626 58.2829 49.626C58.2672 49.626 58.2485 49.6197 58.2297 49.6103ZM81.8503 49.3753C81.8127 49.3315 81.819 49.2625 81.8659 49.2249C81.9129 49.1873 81.9786 49.1936 82.0161 49.2406C82.0537 49.2845 82.0474 49.3534 82.0036 49.391C81.9817 49.4067 81.9567 49.4161 81.9348 49.4161C81.9035 49.4161 81.8722 49.4035 81.8503 49.3753ZM44.1694 49.2375C44.1349 49.1873 44.1475 49.1215 44.1975 49.0871C44.2476 49.0557 44.3133 49.0683 44.3477 49.1184C44.379 49.1654 44.3665 49.2343 44.3164 49.2657C44.2977 49.2782 44.2789 49.2845 44.257 49.2845C44.2226 49.2845 44.1881 49.2657 44.1694 49.2375ZM57.3003 49.1059C57.2502 49.0808 57.2283 49.015 57.2564 48.9618C57.2815 48.9085 57.3472 48.8897 57.4004 48.9148C57.4505 48.943 57.4724 49.0088 57.4473 49.062C57.4286 49.0965 57.3879 49.1184 57.3503 49.1184C57.3503 49.1184 57.3159 49.1184 57.3003 49.1059ZM82.6639 48.6892C82.6264 48.6453 82.6295 48.5764 82.6733 48.5388C82.7171 48.5012 82.7828 48.5043 82.8235 48.5482C82.8611 48.592 82.8548 48.661 82.811 48.6986C82.7922 48.7174 82.7672 48.7268 82.7422 48.7268C82.7109 48.7268 82.6827 48.7142 82.6608 48.6892H82.6639ZM45.0675 48.6704C45.0362 48.6202 45.055 48.5544 45.1082 48.5231C45.1582 48.4949 45.224 48.5137 45.2521 48.5638C45.2803 48.6171 45.2646 48.6798 45.2114 48.7111C45.1927 48.7205 45.1739 48.7236 45.1582 48.7236C45.1207 48.7236 45.0831 48.7048 45.0644 48.6704H45.0675ZM56.3489 48.6516C56.2957 48.6265 56.2707 48.5638 56.2957 48.5106C56.3176 48.4573 56.3833 48.4322 56.4365 48.4573C56.4897 48.4792 56.5148 48.5419 56.4897 48.5983C56.4741 48.6359 56.4334 48.661 56.3927 48.661C56.3771 48.661 56.3646 48.661 56.3489 48.6516ZM55.3726 48.2537C55.3162 48.2349 55.2881 48.1722 55.31 48.1158C55.3287 48.0625 55.3913 48.0343 55.4477 48.0531C55.5009 48.0751 55.529 48.1346 55.5102 48.191C55.4946 48.2349 55.4539 48.2599 55.4101 48.2599C55.4101 48.2599 55.3851 48.2599 55.3726 48.2537ZM46.0063 48.1785C45.9844 48.1252 46.0063 48.0594 46.0595 48.0375C46.1127 48.0124 46.1784 48.0375 46.2035 48.0907C46.2254 48.144 46.2035 48.2067 46.1471 48.2317C46.1471 48.2317 46.119 48.2411 46.1033 48.2411C46.0626 48.2411 46.0251 48.2192 46.0063 48.1785ZM54.3712 47.9247C54.3148 47.9059 54.2835 47.8495 54.2992 47.7899C54.3148 47.7335 54.3774 47.7022 54.4337 47.7179C54.4901 47.7335 54.5214 47.7931 54.5057 47.8526C54.4901 47.8965 54.4494 47.9278 54.4024 47.9278C54.4024 47.9278 54.3837 47.9278 54.3712 47.9278V47.9247ZM46.9889 47.7774C46.9702 47.721 47.0015 47.6615 47.0578 47.6427C47.1141 47.6239 47.1736 47.6552 47.1923 47.7116C47.2111 47.768 47.1798 47.8275 47.1235 47.8463C47.1235 47.8463 47.1016 47.8526 47.0891 47.8526C47.0453 47.8526 47.0046 47.8244 46.9889 47.7774ZM53.351 47.6646C53.2946 47.6521 53.2571 47.5957 53.2696 47.5393C53.2821 47.4798 53.3385 47.4422 53.3979 47.4578C53.4542 47.4672 53.4918 47.5236 53.4793 47.5832C53.4699 47.6333 53.423 47.6678 53.3729 47.6678C53.3729 47.6678 53.3604 47.6678 53.351 47.6678V47.6646ZM48.006 47.486C47.9935 47.4265 48.031 47.3701 48.0905 47.3576C48.1468 47.345 48.2031 47.3826 48.2157 47.439C48.2282 47.4986 48.1937 47.555 48.1343 47.5675C48.1343 47.5675 48.1186 47.5675 48.1124 47.5675C48.0623 47.5675 48.0185 47.533 48.006 47.4829V47.486ZM52.3151 47.486C52.2588 47.4766 52.215 47.4234 52.2244 47.3638C52.2307 47.3043 52.287 47.2636 52.3433 47.273C52.3996 47.2792 52.4403 47.3356 52.4341 47.3952C52.4247 47.4453 52.3809 47.486 52.3277 47.486H52.312H52.3151ZM49.0512 47.3074C49.0449 47.2479 49.0888 47.1978 49.1451 47.1915C49.2045 47.1821 49.2577 47.226 49.264 47.2855C49.2703 47.345 49.2264 47.3952 49.167 47.4046H49.1576C49.1044 47.4046 49.0575 47.3638 49.0512 47.3074ZM51.2668 47.3764H51.2699C51.2105 47.3764 51.1635 47.3231 51.1698 47.2636C51.1698 47.204 51.223 47.1602 51.2824 47.1633C51.3419 47.1633 51.3857 47.2197 51.3826 47.2792C51.3826 47.3356 51.3325 47.3795 51.2762 47.3795C51.2762 47.3795 51.2699 47.3764 51.2668 47.3764ZM50.1089 47.2385C50.1058 47.179 50.1559 47.132 50.2153 47.132C50.2717 47.1288 50.3217 47.179 50.3217 47.2385C50.3217 47.298 50.2748 47.345 50.2153 47.345C50.1559 47.345 50.1089 47.298 50.1089 47.2385Z" fill="white"/>
<path d="M29.1798 54.536C29.1798 54.536 29.1516 54.536 29.139 54.5266C29.1265 54.5203 29.114 54.5141 29.1046 54.5015C29.0952 54.4921 29.0858 54.4828 29.0826 54.4671C29.0764 54.4546 29.0732 54.442 29.0732 54.4264C29.0732 54.3982 29.0858 54.3731 29.1046 54.3512C29.114 54.3418 29.1265 54.3324 29.139 54.3292C29.1641 54.3167 29.1954 54.3167 29.2205 54.3292C29.2362 54.3292 29.2456 54.3418 29.255 54.3512C29.2769 54.3731 29.2863 54.3982 29.2863 54.4264C29.2863 54.442 29.2863 54.4546 29.28 54.4671C29.2738 54.4828 29.2675 54.4921 29.255 54.5015C29.2456 54.5141 29.233 54.5203 29.2205 54.5266C29.208 54.5329 29.1954 54.536 29.1798 54.536Z" fill="white"/>
</g>
<path d="M46.3418 22.4518L45.6095 21.6622C44.314 22.8748 42.5865 23.6236 40.7402 23.6236C37.6452 23.6236 35.1918 21.5181 34.6348 18.6606L33.5395 18.9489L32.5381 19.2121C32.8322 20.7097 33.5207 22.0758 34.5378 23.1724C37.7141 26.597 43.3439 26.597 47.0115 23.1724L46.3449 22.4518H46.3418Z" fill="white"/>
<path d="M47.8983 10.6836L46.9407 11.5766L46.2804 12.1938C47.4039 13.4032 48.036 15.0794 47.9015 16.928C47.77 18.7766 46.9001 20.4528 45.6045 21.6654L46.1772 22.2826L47.0033 23.1724C48.7746 21.515 49.8667 19.2716 50.0326 16.928C50.2016 14.5875 49.4317 12.341 47.8952 10.6836H47.8983Z" fill="#050F28"/>
<path d="M47.9045 10.6837C44.7281 7.25909 39.0984 7.25909 35.4307 10.6837C33.0493 12.9113 31.9415 16.1699 32.536 19.2122L33.7753 18.8863L34.6327 18.6607C34.5263 18.1093 34.4888 17.5265 34.5326 16.9281C34.7986 13.2309 38.0062 10.2325 41.6989 10.2325C43.5452 10.2325 45.1631 10.9813 46.2866 12.1938L47.1315 11.4043L47.9013 10.6837H47.9045Z" fill="#0E2B72"/>
<path d="M56.8914 22.4516L57.7363 21.6621C56.6129 20.4495 55.9839 18.7764 56.1184 16.9247C56.3406 13.826 58.6282 11.2192 61.5385 10.4547L61.3288 9.37688L61.1348 8.39307C59.6108 8.79411 58.1901 9.58367 57.0166 10.6772C53.3489 14.1017 52.9452 19.7383 56.1215 23.166L56.8914 22.4454V22.4516Z" fill="white"/>
<path d="M68.5931 23.1723L67.7638 22.2793L67.1911 21.6621C65.8955 22.8746 64.1712 23.6266 62.3218 23.6266C60.4723 23.6266 58.8544 22.8778 57.731 21.6652L57.0707 22.2825L56.1162 23.1723C57.6527 24.8298 59.8277 25.7603 62.1684 25.7603C64.5092 25.7603 66.8187 24.8298 68.5899 23.1723H68.5931Z" fill="#050F28"/>
<path d="M68.5923 23.1721C72.2568 19.7476 72.6605 14.111 69.4873 10.6833C67.4219 8.4556 64.2299 7.58457 61.1318 8.3992L61.3697 9.61487L61.5355 10.4577C62.0988 10.3104 62.6871 10.2321 63.2817 10.2321C66.9744 10.2321 69.7533 13.2306 69.4904 16.9277C69.359 18.7763 68.489 20.4494 67.1935 21.6619L67.9257 22.4515L68.5923 23.1721Z" fill="#0E2B72"/>
<path opacity="0.3" d="M83.3743 8.8851C83.5527 8.8851 83.7154 8.95402 83.8343 9.07935C83.9532 9.20468 84.0095 9.37387 83.997 9.55559L83.609 14.9603C83.5808 15.3457 83.2335 15.6716 82.8486 15.6716H77.4504C77.272 15.6716 77.1093 15.6026 76.9903 15.4773C76.8714 15.352 76.8151 15.1828 76.8276 15.0011L77.2157 9.59633C77.2438 9.21095 77.5912 8.8851 77.9761 8.8851H83.3743ZM83.3743 8.60938H77.9761C77.4441 8.60938 76.9778 9.04489 76.9403 9.57753L76.5522 14.9823C76.5147 15.5149 76.9184 15.9504 77.4504 15.9504H82.8486C83.3805 15.9504 83.8468 15.5149 83.8844 14.9823L84.2724 9.57753C84.31 9.04489 83.9063 8.60938 83.3743 8.60938Z" fill="#0E2B72"/>
<path opacity="0.3" d="M82.7102 18.1849C82.8886 18.1849 83.0513 18.2538 83.1702 18.3792C83.2892 18.5045 83.3455 18.6737 83.333 18.8554L82.9449 24.2601C82.9168 24.6455 82.5694 24.9714 82.1845 24.9714H76.7863C76.6079 24.9714 76.4452 24.9024 76.3263 24.7771C76.2074 24.6518 76.151 24.4826 76.1636 24.3009L76.5516 18.8961C76.5798 18.5108 76.9271 18.1849 77.312 18.1849H82.7102ZM82.7102 17.9092H77.312C76.78 17.9092 76.3138 18.3447 76.2762 18.8773L75.8882 24.2821C75.8506 24.8147 76.2543 25.2502 76.7863 25.2502H82.1845C82.7165 25.2502 83.1828 24.8147 83.2203 24.2821L83.6084 18.8773C83.6459 18.3447 83.2422 17.9092 82.7102 17.9092Z" fill="#0E2B72"/>
<path d="M74.8081 48.0877C74.9583 48.0877 75.096 48.1473 75.1961 48.2507C75.2931 48.3572 75.3432 48.4982 75.3307 48.6517C75.3056 48.9838 75.0177 49.2564 74.686 49.2564C74.5358 49.2564 74.3981 49.1969 74.298 49.0935C74.201 48.987 74.1509 48.846 74.1634 48.6924C74.1885 48.3603 74.4764 48.0877 74.8081 48.0877ZM74.8081 47.812C74.3324 47.812 73.9225 48.1974 73.888 48.6736C73.8536 49.1499 74.2104 49.5353 74.686 49.5353C75.1617 49.5353 75.5716 49.1499 75.6061 48.6736C75.6405 48.1974 75.2837 47.812 74.8081 47.812Z" fill="#0E2B72"/>
<path d="M74.8713 47.8154L74.7334 47.806L74.7522 47.5303L74.8901 47.5397L74.8713 47.8154Z" fill="#0E2B72"/>
<path d="M74.9336 46.9752L74.7959 46.9658L74.8366 46.3987L74.9743 46.4081L74.9336 46.9752ZM75.015 45.8441L74.8773 45.8347L74.9179 45.2676L75.0556 45.277L75.015 45.8441ZM75.0963 44.713L74.9586 44.7036L74.9993 44.1365L75.137 44.1459L75.0963 44.713ZM75.1777 43.5819L75.04 43.5725L75.0807 43.0054L75.2184 43.0148L75.1777 43.5819ZM75.259 42.4509L75.1214 42.4415L75.162 41.8744L75.2997 41.8838L75.259 42.4509ZM75.3404 41.3198L75.2027 41.3104L75.2434 40.7433L75.3811 40.7527L75.3404 41.3198ZM75.4218 40.1887L75.2841 40.1793L75.3248 39.6122L75.4625 39.6216L75.4218 40.1887ZM75.5031 39.0576L75.3654 39.0482L75.4061 38.4811L75.5438 38.4905L75.5031 39.0576ZM75.5845 37.9266L75.4468 37.9172L75.4875 37.35L75.6252 37.3594L75.5845 37.9266ZM75.6659 36.7955L75.5282 36.7861L75.5689 36.219L75.7066 36.2284L75.6659 36.7955ZM75.7472 35.6644L75.6095 35.655L75.6502 35.0879L75.7879 35.0973L75.7472 35.6644Z" fill="#0E2B72"/>
<path d="M75.6982 34.2406L75.6787 34.5156L75.8162 34.5254L75.8357 34.2504L75.6982 34.2406Z" fill="#0E2B72"/>
<path d="M81.6137 34.3958H32.0599C31.7813 34.3958 31.5247 34.2862 31.337 34.0856C31.1492 33.8851 31.0585 33.6188 31.0804 33.3399L31.3244 29.9248C31.3651 29.3545 31.8627 28.8877 32.4323 28.8877H81.9861C82.2646 28.8877 82.5212 28.9974 82.709 29.1979C82.8967 29.3984 82.9875 29.6647 82.9687 29.9436L82.7246 33.3587C82.6839 33.929 82.1863 34.3958 81.6168 34.3958H81.6137ZM32.4323 29.1885C32.016 29.1885 31.653 29.5269 31.6217 29.9467L31.3777 33.3619C31.3651 33.5593 31.4277 33.7441 31.556 33.882C31.6843 34.0198 31.8627 34.0982 32.0599 34.0982H81.6137C82.0299 34.0982 82.3929 33.7598 82.4242 33.3399L82.6683 29.9248C82.6808 29.7274 82.6182 29.5425 82.4899 29.4047C82.3616 29.2668 82.1832 29.1916 81.9861 29.1916H32.4323V29.1885Z" fill="#0E2B72"/>
<path opacity="0.8" fill-rule="evenodd" clip-rule="evenodd" d="M80.5487 31.09H33.5767C33.3201 31.09 33.126 30.8801 33.1448 30.6263C33.1636 30.3694 33.3858 30.1626 33.6424 30.1626H80.6144C80.8711 30.1626 81.0651 30.3725 81.0463 30.6263C81.0275 30.8832 80.8053 31.09 80.5487 31.09Z" fill="white"/>
<path opacity="0.8" fill-rule="evenodd" clip-rule="evenodd" d="M72.7184 33.0485H33.4321C33.1755 33.0485 32.9815 32.8386 33.0003 32.5848C33.0191 32.3279 33.2412 32.1211 33.4979 32.1211H72.7842C73.0408 32.1211 73.2348 32.331 73.216 32.5848C73.1972 32.8417 72.9751 33.0485 72.7184 33.0485Z" fill="white"/>
</g>
<defs>
<clipPath id="clip0_513_29340">
<rect width="91.0714" height="85" fill="white" transform="translate(0.928711)"/>
</clipPath>
</defs>
</svg>
