<svg width="25" height="24" viewBox="0 0 25 24" fill="none" xmlns="http://www.w3.org/2000/svg">
<path d="M6.29439 21.666C6.08188 21.666 5.87524 21.5963 5.7061 21.4676C5.53696 21.3389 5.41463 21.1584 5.35784 20.9536C5.30105 20.7488 5.31292 20.5311 5.39163 20.3337C5.47035 20.1363 5.61157 19.9701 5.7937 19.8606C9.23828 17.7917 9.23828 13.3487 9.23828 10.6945C9.23828 9.92095 9.54557 9.17908 10.0926 8.6321C10.6395 8.08512 11.3814 7.77783 12.1549 7.77783C12.9285 7.77783 13.6704 8.08512 14.2173 8.6321C14.7643 9.17908 15.0716 9.92095 15.0716 10.6945C15.0716 10.9523 14.9692 11.1996 14.7869 11.382C14.6045 11.5643 14.3572 11.6667 14.0994 11.6667C13.8415 11.6667 13.5943 11.5643 13.4119 11.382C13.2296 11.1996 13.1272 10.9523 13.1272 10.6945C13.1272 10.4366 13.0247 10.1894 12.8424 10.007C12.6601 9.8247 12.4128 9.72227 12.1549 9.72227C11.8971 9.72227 11.6498 9.8247 11.4675 10.007C11.2852 10.1894 11.1827 10.4366 11.1827 10.6945C11.1827 13.5596 11.1827 18.8942 6.79411 21.528C6.64311 21.6184 6.47039 21.6661 6.29439 21.666ZM11.1195 23.0476C13.3381 20.8114 14.6341 17.6673 14.9705 13.6938C14.9818 13.5663 14.9679 13.4379 14.9295 13.3158C14.8911 13.1938 14.829 13.0805 14.7467 12.9825C14.6644 12.8845 14.5636 12.8037 14.45 12.7447C14.3364 12.6858 14.2123 12.6498 14.0848 12.6389C13.9572 12.6259 13.8283 12.6386 13.7058 12.6764C13.5832 12.7141 13.4695 12.7762 13.3714 12.8589C13.2734 12.9415 13.193 13.043 13.135 13.1574C13.0769 13.2718 13.0426 13.3967 13.0338 13.5246C12.7315 17.0801 11.6543 19.7469 9.73995 21.6728C9.55816 21.8558 9.4565 22.1034 9.45732 22.3613C9.45814 22.6192 9.56138 22.8663 9.74432 23.048C9.92727 23.2298 10.1749 23.3315 10.4328 23.3307C10.6907 23.3298 10.9377 23.2266 11.1195 23.0437V23.0476ZM16.1751 22.8667C16.7648 21.8868 17.2559 20.8509 17.6412 19.7741C17.7217 19.5332 17.7049 19.2705 17.5942 19.0419C17.4835 18.8134 17.2877 18.6372 17.0488 18.5511C16.8099 18.465 16.5468 18.4758 16.3158 18.5811C16.0847 18.6865 15.9041 18.8781 15.8124 19.1149C15.4701 20.0697 15.0344 20.9884 14.5116 21.8576C14.4454 21.9668 14.4013 22.088 14.3818 22.2143C14.3624 22.3405 14.3681 22.4694 14.3984 22.5935C14.4288 22.7176 14.4833 22.8344 14.5589 22.9375C14.6344 23.0405 14.7295 23.1276 14.8388 23.1939C15.0594 23.3277 15.3241 23.3684 15.5747 23.3071C15.6988 23.2767 15.8157 23.2222 15.9187 23.1466C16.0217 23.071 16.1088 22.9759 16.1751 22.8667ZM18.4744 16.7135C18.8346 14.7281 18.9974 12.712 18.9605 10.6945C18.9596 9.31715 18.5408 7.97249 17.7594 6.83823C16.978 5.70397 15.8709 4.8335 14.5843 4.34184C13.2976 3.85018 11.8921 3.76049 10.5535 4.08461C9.21479 4.40872 8.00597 5.1314 7.08675 6.15713C6.99723 6.25144 6.92754 6.36275 6.88179 6.48447C6.83605 6.60619 6.81519 6.73585 6.82045 6.86578C6.8257 6.99571 6.85697 7.12326 6.9124 7.24089C6.96782 7.35851 7.04628 7.46383 7.14313 7.5506C7.23998 7.63736 7.35325 7.70382 7.47624 7.74604C7.59923 7.78825 7.72944 7.80537 7.85916 7.79637C7.98888 7.78737 8.11548 7.75244 8.23146 7.69364C8.34744 7.63485 8.45045 7.55339 8.53439 7.45408C9.19091 6.72129 10.0543 6.20497 11.0106 5.97335C11.9668 5.74173 12.9708 5.80571 13.8898 6.15685C14.8089 6.50798 15.5998 7.12973 16.158 7.93993C16.7162 8.75012 17.0154 9.71063 17.0161 10.6945C17.0519 12.5872 16.9015 14.4789 16.5669 16.3421C16.5178 16.5951 16.5711 16.8571 16.7151 17.0708C16.8591 17.2844 17.0821 17.4322 17.3349 17.4816C17.3967 17.4939 17.4596 17.5001 17.5226 17.5001C17.7478 17.4995 17.9658 17.4207 18.1394 17.2773C18.313 17.1338 18.4314 16.9346 18.4744 16.7135ZM7.29384 10.6945C7.29355 10.4231 7.31599 10.1522 7.36092 9.88463C7.38995 9.7558 7.39243 9.62241 7.36821 9.49259C7.34398 9.36277 7.29357 9.23924 7.22003 9.12955C7.1465 9.01986 7.05138 8.9263 6.9405 8.85457C6.82961 8.78285 6.70527 8.73447 6.57507 8.71239C6.44487 8.6903 6.31154 8.69497 6.1832 8.72611C6.05487 8.75726 5.93422 8.81422 5.82863 8.89353C5.72303 8.97284 5.6347 9.07282 5.56902 9.18739C5.50334 9.30196 5.46169 9.42871 5.44661 9.55991C5.38244 9.93471 5.34991 10.3142 5.34939 10.6945C5.34939 15.2105 4.04078 17.5001 1.4605 17.5001C1.20265 17.5001 0.955366 17.6025 0.773039 17.7848C0.590712 17.9671 0.488281 18.2144 0.488281 18.4723C0.488281 18.7301 0.590712 18.9774 0.773039 19.1597C0.955366 19.3421 1.20265 19.4445 1.4605 19.4445C5.22203 19.4445 7.29384 16.3334 7.29384 10.6945ZM20.6133 22.7637C22.2133 18.9468 22.9758 14.8312 22.8494 10.6945C22.8539 9.07956 22.488 7.4851 21.7799 6.03366C21.7241 5.91875 21.6461 5.81597 21.5506 5.73119C21.455 5.64641 21.3436 5.58128 21.2229 5.53952C21.1022 5.49777 20.9744 5.48021 20.8468 5.48784C20.7193 5.49547 20.5945 5.52815 20.4796 5.58401C20.3647 5.63987 20.2619 5.71781 20.1771 5.81339C20.0923 5.90897 20.0272 6.02031 19.9855 6.14106C19.9437 6.2618 19.9261 6.38959 19.9338 6.51713C19.9414 6.64467 19.9741 6.76945 20.0299 6.88436C20.6085 8.07102 20.9078 9.37433 20.9049 10.6945C21.0273 14.553 20.325 18.3932 18.8448 21.9587C18.7921 22.0751 18.7629 22.2008 18.7588 22.3285C18.7547 22.4562 18.7758 22.5835 18.821 22.7031C18.8661 22.8226 18.9344 22.9321 19.0219 23.0252C19.1094 23.1184 19.2144 23.1934 19.3309 23.2459C19.4568 23.3038 19.5938 23.3336 19.7324 23.3334C19.9184 23.3326 20.1002 23.2785 20.2563 23.1775C20.4124 23.0765 20.5363 22.9329 20.6133 22.7637ZM3.40495 13.6112V10.6945C3.40752 8.37464 4.33022 6.15054 5.97061 4.51015C7.61099 2.86977 9.83509 1.94707 12.1549 1.94449C14.0492 1.93818 15.8933 2.55289 17.4049 3.69449C17.6112 3.8492 17.8705 3.91563 18.1258 3.87917C18.381 3.8427 18.6113 3.70633 18.7661 3.50005C18.9208 3.29377 18.9872 3.03448 18.9507 2.77922C18.9143 2.52397 18.7779 2.29365 18.5716 2.13894C16.7238 0.74421 14.4701 -0.00703384 12.1549 4.96363e-05C9.31963 0.00339454 6.6014 1.1312 4.59653 3.13607C2.59166 5.14095 1.46385 7.85918 1.4605 10.6945V13.6112C1.4605 13.869 1.56293 14.1163 1.74526 14.2986C1.92759 14.481 2.17488 14.5834 2.43273 14.5834C2.69058 14.5834 2.93786 14.481 3.12019 14.2986C3.30252 14.1163 3.40495 13.869 3.40495 13.6112Z" fill="black"/>
</svg>
