<svg width="336" height="270" viewBox="0 0 336 270" fill="none" xmlns="http://www.w3.org/2000/svg">
<g clip-path="url(#clip0_513_29408)">
<path d="M322.364 165.597C312.861 191.032 293.457 218.564 266.151 226.718C224.866 239.039 219.963 272.293 146.062 269.21C135.267 268.809 124.548 267.239 114.092 264.527C108.983 263.178 103.965 261.508 99.0677 259.527C55.9052 242.039 33.3853 203.553 31.521 163.287C29.0568 110.319 66.0072 85.0772 90.0237 70.2983C114.04 55.5194 142.985 -1.76403 215.654 0.700194C226.751 1.03315 237.773 2.64357 248.501 5.49962C272.957 12.1182 297.812 26.7874 312.262 48.1526C313.345 49.7567 314.382 51.3995 315.371 53.081C334.71 85.8835 335.31 130.917 322.364 165.597Z" fill="#FFB400"/>
<path opacity="0.7" d="M322.364 165.597C312.861 191.032 293.457 218.564 266.151 226.718C224.866 239.039 219.963 272.293 146.062 269.21C135.267 268.809 124.548 267.239 114.092 264.527C108.983 263.178 103.965 261.508 99.0677 259.527C55.9052 242.039 33.3853 203.553 31.521 163.287C29.0568 110.319 66.0072 85.0772 90.0237 70.2983C114.04 55.5194 142.985 -1.76403 215.654 0.700194C226.751 1.03315 237.773 2.64357 248.501 5.49962C272.957 12.1182 297.812 26.7874 312.262 48.1526C313.345 49.7567 314.382 51.3995 315.371 53.081C334.71 85.8835 335.31 130.917 322.364 165.597Z" fill="white"/>
<path d="M326.011 262.959H335.61" stroke="#0E2B72" stroke-width="0.645084" stroke-linecap="round" stroke-linejoin="round"/>
<path d="M38.6147 262.959H321.542" stroke="#0E2B72" stroke-width="0.645084" stroke-linecap="round" stroke-linejoin="round"/>
<path d="M73.7843 219.668C77.9348 219.668 81.2995 210.845 81.2995 199.961C81.2995 189.077 77.9348 180.253 73.7843 180.253C69.6337 180.253 66.269 189.077 66.269 199.961C66.269 210.845 69.6337 219.668 73.7843 219.668Z" fill="#FFB400" stroke="#0E2B72" stroke-width="0.645084" stroke-miterlimit="10"/>
<path d="M97.1338 187.822C99.4828 180.43 98.7778 173.609 95.5589 172.586C92.3401 171.563 87.8265 176.726 85.4775 184.118C83.1284 191.509 83.8335 198.331 87.0523 199.354C90.2711 200.377 94.7847 195.214 97.1338 187.822Z" fill="#FFB400" stroke="#0E2B72" stroke-width="0.645084" stroke-miterlimit="10"/>
<path d="M41.9992 232.382C34.3485 231.092 28.6073 227.338 29.175 223.996C29.7426 220.654 36.3934 219.016 44.0119 220.313C51.6303 221.609 57.4038 225.357 56.8426 228.699C56.2814 232.04 49.6435 233.672 41.9992 232.382Z" fill="#FFB400" stroke="#0E2B72" stroke-width="0.645084" stroke-miterlimit="10"/>
<path d="M104.196 214.172C110.583 207.837 113.392 200.313 110.47 197.366C107.547 194.419 99.9997 197.165 93.6121 203.499C87.2246 209.833 84.4156 217.357 87.3381 220.305C90.2607 223.252 97.8081 220.506 104.196 214.172Z" fill="#FFB400" stroke="#0E2B72" stroke-width="0.645084" stroke-miterlimit="10"/>
<path d="M60.1851 196.786C66.3585 205.746 68.2035 215.197 64.3007 217.893C60.3979 220.59 52.2183 215.5 46.0448 206.54C39.8714 197.579 38.0264 188.135 41.9292 185.439C45.832 182.743 54.0116 187.826 60.1851 196.786Z" fill="#FFB400" stroke="#0E2B72" stroke-width="0.645084" stroke-miterlimit="10"/>
<path d="M74.3101 218.681L74.8906 245.774" stroke="#0E2B72" stroke-width="0.645084" stroke-miterlimit="10" stroke-linecap="round"/>
<path d="M73.6089 192.632L74.312 218.68" stroke="#0E2B72" stroke-width="0.645084" stroke-miterlimit="10" stroke-linecap="round"/>
<path d="M73.6605 188.381L73.6089 190.375" stroke="#0E2B72" stroke-width="0.645084" stroke-miterlimit="10" stroke-linecap="round"/>
<path d="M64.269 216.604C68.5778 225.506 71.1003 235.166 71.694 245.039" stroke="#0E2B72" stroke-width="0.645084" stroke-miterlimit="10" stroke-linecap="round"/>
<path d="M51.3667 196.864C56.5236 202.843 60.8622 209.481 64.2684 216.604" stroke="#0E2B72" stroke-width="0.645084" stroke-miterlimit="10" stroke-linecap="round"/>
<path d="M47.3022 192.568C47.3022 192.568 48.0828 193.277 49.3601 194.639" stroke="#0E2B72" stroke-width="0.645084" stroke-miterlimit="10" stroke-linecap="round"/>
<path d="M87.8115 219.391C82.5401 226.778 78.4326 234.93 75.6323 243.562" stroke="#0E2B72" stroke-width="0.645084" stroke-miterlimit="10" stroke-linecap="round"/>
<path d="M96.4561 209.456C93.2721 212.491 90.3782 215.817 87.812 219.39" stroke="#0E2B72" stroke-width="0.645084" stroke-miterlimit="10" stroke-linecap="round"/>
<path d="M105.706 202.412C103.358 203.735 101.153 205.298 99.1265 207.076" stroke="#0E2B72" stroke-width="0.645084" stroke-miterlimit="10" stroke-linecap="round"/>
<path d="M87.498 197.509C83.3307 210.604 77.7443 229.963 75.1382 246.761" stroke="#0E2B72" stroke-width="0.645084" stroke-miterlimit="10" stroke-linecap="round"/>
<path d="M90.0327 189.735C89.2909 191.948 88.4265 194.567 87.4976 197.476" stroke="#0E2B72" stroke-width="0.645084" stroke-miterlimit="10" stroke-linecap="round"/>
<path d="M92.6246 182.221C92.6246 182.221 91.9021 184.227 90.728 187.665" stroke="#0E2B72" stroke-width="0.645084" stroke-miterlimit="10" stroke-linecap="round"/>
<path d="M56.4819 226.886C61.6813 228.853 66.7581 232.659 69.2288 239.865" stroke="#0E2B72" stroke-width="0.645084" stroke-miterlimit="10" stroke-linecap="round"/>
<path d="M46.8765 224.932C50.1574 225.089 53.3957 225.742 56.4818 226.867" stroke="#0E2B72" stroke-width="0.645084" stroke-miterlimit="10" stroke-linecap="round"/>
<path d="M40.6499 225.086C40.6499 225.086 41.5788 224.951 43.1012 224.893" stroke="#0E2B72" stroke-width="0.645084" stroke-miterlimit="10" stroke-linecap="round"/>
<path d="M107.443 232.382C115.094 231.092 120.835 227.338 120.267 223.996C119.7 220.654 113.049 219.016 105.43 220.313C97.812 221.609 92.0385 225.357 92.5997 228.699C93.1609 232.04 99.7988 233.672 107.443 232.382Z" fill="#FFB400" stroke="#0E2B72" stroke-width="0.645084" stroke-miterlimit="10"/>
<path d="M93.1278 226.822C87.8703 228.757 82.7096 232.582 80.2261 239.865" stroke="#0E2B72" stroke-width="0.645084" stroke-miterlimit="10" stroke-linecap="round"/>
<path d="M103.372 224.893C99.8773 224.996 96.4203 225.649 93.1284 226.828" stroke="#0E2B72" stroke-width="0.645084" stroke-miterlimit="10" stroke-linecap="round"/>
<path d="M108.79 225.086C108.79 225.086 108.184 224.996 107.132 224.932" stroke="#0E2B72" stroke-width="0.645084" stroke-miterlimit="10" stroke-linecap="round"/>
<path d="M93.0196 262.888C95.3236 258.05 96.5349 252.765 96.5675 247.406C96.5746 244.19 96.0962 240.991 95.1483 237.917H55.1531C54.2053 240.991 53.7269 244.19 53.734 247.406C53.7657 252.765 54.9793 258.052 57.2884 262.888H93.0196Z" fill="#0E2B72"/>
<path d="M54.0999 242.33C53.9838 243.059 53.9 243.794 53.8354 244.542H96.4432C96.3787 243.794 96.2884 243.059 96.1723 242.33H54.0999Z" fill="#B0B0B0"/>
<path d="M95.9863 253.657C96.1218 252.922 96.2379 252.186 96.3282 251.444H53.9526C54.0365 252.186 54.1526 252.922 54.2881 253.657H95.9863Z" fill="#B0B0B0"/>
<path d="M58.881 247.503C58.881 247.845 58.7794 248.179 58.5892 248.464C58.3989 248.748 58.1285 248.97 57.8123 249.101C57.496 249.231 57.148 249.265 56.8125 249.198C56.477 249.131 56.1689 248.965 55.9274 248.723C55.6859 248.48 55.5218 248.172 55.4558 247.836C55.3898 247.5 55.425 247.152 55.5568 246.837C55.6886 246.521 55.9112 246.251 56.1964 246.062C56.4815 245.873 56.8164 245.773 57.1586 245.774C57.616 245.776 58.0541 245.959 58.3769 246.283C58.6997 246.607 58.881 247.045 58.881 247.503Z" fill="#D9D9D9"/>
<path d="M67.4989 247.503C67.4977 247.843 67.3956 248.175 67.2055 248.458C67.0155 248.74 66.7461 248.96 66.4312 249.089C66.1164 249.219 65.7703 249.252 65.4366 249.185C65.1029 249.118 64.7966 248.953 64.5564 248.712C64.3162 248.471 64.1528 248.164 64.0868 247.83C64.0209 247.496 64.0554 247.15 64.1859 246.836C64.3165 246.521 64.5372 246.253 64.8203 246.064C65.1034 245.875 65.4362 245.774 65.7766 245.774C66.0033 245.774 66.2278 245.819 66.4372 245.906C66.6466 245.993 66.8367 246.12 66.9967 246.281C67.1568 246.441 67.2835 246.632 67.3697 246.842C67.4559 247.051 67.4998 247.276 67.4989 247.503Z" fill="#D9D9D9"/>
<path d="M76.1251 247.503C76.1251 247.845 76.0236 248.179 75.8333 248.464C75.6431 248.748 75.3727 248.97 75.0564 249.101C74.7401 249.231 74.3922 249.265 74.0567 249.198C73.7211 249.131 73.4131 248.965 73.1716 248.723C72.93 248.48 72.7659 248.172 72.6999 247.836C72.6339 247.5 72.6691 247.152 72.8009 246.837C72.9328 246.521 73.1554 246.251 73.4405 246.062C73.7257 245.873 74.0606 245.773 74.4028 245.774C74.8602 245.776 75.2982 245.959 75.621 246.283C75.9439 246.607 76.1251 247.045 76.1251 247.503Z" fill="#D9D9D9"/>
<path d="M84.7411 247.503C84.7398 247.843 84.6378 248.175 84.4477 248.458C84.2577 248.74 83.9883 248.96 83.6734 249.089C83.3586 249.219 83.0125 249.252 82.6788 249.185C82.3451 249.118 82.0388 248.953 81.7986 248.712C81.5583 248.471 81.395 248.164 81.329 247.83C81.2631 247.496 81.2976 247.15 81.4281 246.836C81.5587 246.521 81.7794 246.253 82.0625 246.064C82.3456 245.875 82.6784 245.774 83.0188 245.774C83.2455 245.774 83.47 245.819 83.6794 245.906C83.8888 245.993 84.0789 246.12 84.2389 246.281C84.399 246.441 84.5257 246.632 84.6119 246.842C84.6981 247.051 84.742 247.276 84.7411 247.503Z" fill="#D9D9D9"/>
<path d="M93.3673 247.503C93.3673 247.845 93.2658 248.179 93.0755 248.464C92.8853 248.748 92.6149 248.97 92.2986 249.101C91.9823 249.231 91.6344 249.265 91.2988 249.198C90.9633 249.131 90.6553 248.965 90.4137 248.723C90.1722 248.48 90.0081 248.172 89.9421 247.836C89.8761 247.5 89.9113 247.152 90.0431 246.837C90.175 246.521 90.3976 246.251 90.6827 246.062C90.9679 245.873 91.3027 245.773 91.6449 245.774C92.1023 245.776 92.5404 245.959 92.8632 246.283C93.1861 246.607 93.3673 247.045 93.3673 247.503Z" fill="#D9D9D9"/>
<path d="M288.546 27.8911H137.416V241.595H288.546V27.8911Z" fill="#0E2B72"/>
<path d="M284.811 24.1558H133.681V237.859H284.811V24.1558Z" fill="white" stroke="#0E2B72" stroke-width="0.645084" stroke-linecap="round" stroke-linejoin="round"/>
<path d="M277.393 45.3662H140.048V84.0777H277.393V45.3662Z" fill="white" stroke="#0E2B72" stroke-width="0.645084" stroke-linecap="round" stroke-linejoin="round"/>
<path d="M185.12 37.4121H140.048V45.366H185.12V37.4121Z" fill="white" stroke="#0E2B72" stroke-width="0.645084" stroke-linecap="round" stroke-linejoin="round"/>
<path d="M277.386 37.4121H232.314V45.366H277.386V37.4121Z" fill="white" stroke="#0E2B72" stroke-width="0.645084" stroke-linecap="round" stroke-linejoin="round"/>
<path d="M140.048 58.0938H277.393" stroke="#0E2B72" stroke-width="0.645084" stroke-linecap="round" stroke-linejoin="round"/>
<path d="M140.048 70.2915H277.393" stroke="#0E2B72" stroke-width="0.645084" stroke-linecap="round" stroke-linejoin="round"/>
<path d="M277.393 95.9985H140.048V134.71H277.393V95.9985Z" fill="white" stroke="#0E2B72" stroke-width="0.645084" stroke-linecap="round" stroke-linejoin="round"/>
<path d="M140.048 108.726H277.393" stroke="#0E2B72" stroke-width="0.645084" stroke-linecap="round" stroke-linejoin="round"/>
<path d="M140.048 120.924H277.393" stroke="#0E2B72" stroke-width="0.645084" stroke-linecap="round" stroke-linejoin="round"/>
<path d="M142.287 48.4756H158.988" stroke="#0E2B72" stroke-width="0.645084" stroke-linecap="round" stroke-linejoin="round"/>
<path d="M227.462 48.4756H244.164" stroke="#0E2B72" stroke-width="0.645084" stroke-linecap="round" stroke-linejoin="round"/>
<path d="M142.287 39.4185H158.988" stroke="#0E2B72" stroke-width="0.645084" stroke-linecap="round" stroke-linejoin="round"/>
<path d="M233.017 39.4185H249.718" stroke="#0E2B72" stroke-width="0.645084" stroke-linecap="round" stroke-linejoin="round"/>
<path d="M142.287 60.5449H158.988" stroke="#0E2B72" stroke-width="0.645084" stroke-linecap="round" stroke-linejoin="round"/>
<path d="M142.287 73.8208H158.988" stroke="#0E2B72" stroke-width="0.645084" stroke-linecap="round" stroke-linejoin="round"/>
<path d="M193.869 73.8208H210.563" stroke="#0E2B72" stroke-width="0.645084" stroke-linecap="round" stroke-linejoin="round"/>
<path d="M191.177 38.0122H224.573" stroke="#0E2B72" stroke-width="0.645084" stroke-linecap="round" stroke-linejoin="round"/>
<path d="M191.177 41.4312H224.573" stroke="#0E2B72" stroke-width="0.645084" stroke-linecap="round" stroke-linejoin="round"/>
<path d="M187.81 81.0386H195.383" stroke="#0E2B72" stroke-width="0.645084" stroke-linecap="round" stroke-linejoin="round"/>
<path d="M197.273 81.0386H204.846" stroke="#0E2B72" stroke-width="0.645084" stroke-linecap="round" stroke-linejoin="round"/>
<path d="M206.738 81.0386H214.311" stroke="#0E2B72" stroke-width="0.645084" stroke-linecap="round" stroke-linejoin="round"/>
<path d="M277.393 142.845H140.048V181.556H277.393V142.845Z" fill="white" stroke="#0E2B72" stroke-width="0.645084" stroke-linecap="round" stroke-linejoin="round"/>
<path d="M143.06 152.804C143.06 152.804 145.641 146.418 144.08 147.947C142.518 149.476 141.267 154.849 145.099 153.572C148.931 152.295 151.485 146.67 150.466 148.973C149.447 151.275 149.956 153.056 153.046 151.269C156.136 149.482 156.62 149.482 156.878 150.501C157.136 151.521 157.897 151.269 160.71 150.25C163.522 149.231 163.29 151.017 163.29 151.779C163.29 152.54 166.87 152.295 168.148 151.779C169.425 151.263 170.444 149.74 170.728 151.527C171.012 153.314 173.534 153.314 173.534 153.314H180.43" stroke="#FFB400" stroke-width="0.645084" stroke-linecap="round" stroke-linejoin="round"/>
<path d="M140.048 155.572H277.393" stroke="#0E2B72" stroke-width="0.645084" stroke-linecap="round" stroke-linejoin="round"/>
<path d="M140.048 167.771H277.393" stroke="#0E2B72" stroke-width="0.645084" stroke-linecap="round" stroke-linejoin="round"/>
<path d="M142.287 145.954H158.988" stroke="#0E2B72" stroke-width="0.645084" stroke-linecap="round" stroke-linejoin="round"/>
<path d="M227.462 145.954H244.164" stroke="#0E2B72" stroke-width="0.645084" stroke-linecap="round" stroke-linejoin="round"/>
<path d="M142.287 158.023H158.988" stroke="#0E2B72" stroke-width="0.645084" stroke-linecap="round" stroke-linejoin="round"/>
<path d="M142.287 171.299H158.988" stroke="#0E2B72" stroke-width="0.645084" stroke-linecap="round" stroke-linejoin="round"/>
<path d="M193.869 171.299H210.563" stroke="#0E2B72" stroke-width="0.645084" stroke-linecap="round" stroke-linejoin="round"/>
<path d="M187.81 178.518H195.383" stroke="#0E2B72" stroke-width="0.645084" stroke-linecap="round" stroke-linejoin="round"/>
<path d="M197.273 178.518H204.846" stroke="#0E2B72" stroke-width="0.645084" stroke-linecap="round" stroke-linejoin="round"/>
<path d="M206.738 178.518H214.311" stroke="#0E2B72" stroke-width="0.645084" stroke-linecap="round" stroke-linejoin="round"/>
<path d="M143.332 99.9658H182.604" stroke="#0E2B72" stroke-width="0.645084" stroke-linecap="round" stroke-linejoin="round"/>
<path d="M143.332 112.739H167.464" stroke="#0E2B72" stroke-width="0.645084" stroke-linecap="round" stroke-linejoin="round"/>
<path d="M204.369 112.739H228.501" stroke="#0E2B72" stroke-width="0.645084" stroke-linecap="round" stroke-linejoin="round"/>
<path d="M242.23 128.833H266.363" stroke="#0E2B72" stroke-width="0.645084" stroke-linecap="round" stroke-linejoin="round"/>
<path d="M237.023 112.739H261.156" stroke="#0E2B72" stroke-width="0.645084" stroke-linecap="round" stroke-linejoin="round"/>
<path d="M237.965 125.989H232.289V131.666H237.965V125.989Z" stroke="#0E2B72" stroke-width="0.645084" stroke-linecap="round" stroke-linejoin="round"/>
<path d="M202.951 128.833H227.083" stroke="#0E2B72" stroke-width="0.645084" stroke-linecap="round" stroke-linejoin="round"/>
<path d="M198.694 125.989H193.017V131.666H198.694V125.989Z" stroke="#0E2B72" stroke-width="0.645084" stroke-linecap="round" stroke-linejoin="round"/>
<path d="M163.679 128.833H187.812" stroke="#0E2B72" stroke-width="0.645084" stroke-linecap="round" stroke-linejoin="round"/>
<path d="M159.415 125.989H153.738V131.666H159.415V125.989Z" stroke="#0E2B72" stroke-width="0.645084" stroke-linecap="round" stroke-linejoin="round"/>
<path d="M260.943 188.923H276.767" stroke="#0E2B72" stroke-width="0.645084" stroke-linecap="round" stroke-linejoin="round"/>
<path d="M198.138 188.923H258.905" stroke="#0E2B72" stroke-width="0.645084" stroke-linecap="round" stroke-linejoin="round"/>
<path d="M158.988 188.923H196.306" stroke="#0E2B72" stroke-width="0.645084" stroke-linecap="round" stroke-linejoin="round"/>
<path d="M140.964 188.923H157.556" stroke="#0E2B72" stroke-width="0.645084" stroke-linecap="round" stroke-linejoin="round"/>
<path d="M242.185 192.594H276.768" stroke="#0E2B72" stroke-width="0.645084" stroke-linecap="round" stroke-linejoin="round"/>
<path d="M176.115 192.594H240.552" stroke="#0E2B72" stroke-width="0.645084" stroke-linecap="round" stroke-linejoin="round"/>
<path d="M140.964 192.594H174.077" stroke="#0E2B72" stroke-width="0.645084" stroke-linecap="round" stroke-linejoin="round"/>
<path d="M251.158 196.264H276.768" stroke="#0E2B72" stroke-width="0.645084" stroke-linecap="round" stroke-linejoin="round"/>
<path d="M196.099 196.264H249.731" stroke="#0E2B72" stroke-width="0.645084" stroke-linecap="round" stroke-linejoin="round"/>
<path d="M164.697 196.264H193.242" stroke="#0E2B72" stroke-width="0.645084" stroke-linecap="round" stroke-linejoin="round"/>
<path d="M140.964 196.264H162.859" stroke="#0E2B72" stroke-width="0.645084" stroke-linecap="round" stroke-linejoin="round"/>
<path d="M265.226 199.935H276.767" stroke="#0E2B72" stroke-width="0.645084" stroke-linecap="round" stroke-linejoin="round"/>
<path d="M149.601 199.935H263.187" stroke="#0E2B72" stroke-width="0.645084" stroke-linecap="round" stroke-linejoin="round"/>
<path d="M140.964 199.935H147.976" stroke="#0E2B72" stroke-width="0.645084" stroke-linecap="round" stroke-linejoin="round"/>
<path d="M267.878 203.604H276.768" stroke="#0E2B72" stroke-width="0.645084" stroke-linecap="round" stroke-linejoin="round"/>
<path d="M239.533 203.604H266.046" stroke="#0E2B72" stroke-width="0.645084" stroke-linecap="round" stroke-linejoin="round"/>
<path d="M196.099 203.604H238.107" stroke="#0E2B72" stroke-width="0.645084" stroke-linecap="round" stroke-linejoin="round"/>
<path d="M155.517 203.604H194.467" stroke="#0E2B72" stroke-width="0.645084" stroke-linecap="round" stroke-linejoin="round"/>
<path d="M140.964 203.604H153.273" stroke="#0E2B72" stroke-width="0.645084" stroke-linecap="round" stroke-linejoin="round"/>
<path d="M260.744 207.275H276.768" stroke="#0E2B72" stroke-width="0.645084" stroke-linecap="round" stroke-linejoin="round"/>
<path d="M209.357 207.275H258.499" stroke="#0E2B72" stroke-width="0.645084" stroke-linecap="round" stroke-linejoin="round"/>
<path d="M176.115 207.275H206.705" stroke="#0E2B72" stroke-width="0.645084" stroke-linecap="round" stroke-linejoin="round"/>
<path d="M140.964 207.275H174.077" stroke="#0E2B72" stroke-width="0.645084" stroke-linecap="round" stroke-linejoin="round"/>
<path d="M237.287 210.953H276.766" stroke="#0E2B72" stroke-width="0.645084" stroke-linecap="round" stroke-linejoin="round"/>
<path d="M158.988 210.953H234.437" stroke="#0E2B72" stroke-width="0.645084" stroke-linecap="round" stroke-linejoin="round"/>
<path d="M140.964 210.953H156.743" stroke="#0E2B72" stroke-width="0.645084" stroke-linecap="round" stroke-linejoin="round"/>
<path d="M142.384 222.048H159.421" stroke="#0E2B72" stroke-width="0.645084" stroke-linecap="round" stroke-linejoin="round"/>
<path d="M226.611 222.048H243.648" stroke="#0E2B72" stroke-width="0.645084" stroke-linecap="round" stroke-linejoin="round"/>
<path d="M163.679 222.048H220.937" stroke="#0E2B72" stroke-width="0.645084" stroke-linecap="round" stroke-linejoin="round"/>
<path d="M248.378 222.048H276.298" stroke="#0E2B72" stroke-width="0.645084" stroke-linecap="round" stroke-linejoin="round"/>
<path d="M144.511 107.139C144.511 107.139 147.143 107.746 147.737 104.707C148.33 101.669 145.911 103.288 145.911 104.907C145.911 106.527 146.724 108.133 149.782 105.72C152.839 103.308 152.007 103.695 153.833 105.514C155.658 107.333 154.033 107.746 157.703 106.327C161.374 104.907 161.574 105.514 161.348 106.733C161.122 107.952 160.335 107.339 163.78 106.127C167.225 104.914 168.844 103.895 168.437 105.481C168.031 107.068 166.612 107.507 169.244 105.688C171.876 103.869 173.501 97.9921 171.269 102.462C169.037 106.933 168.231 106.333 171.476 105.688C174.721 105.043 175.727 102.85 175.727 104.469C175.727 106.088 173.095 107.107 175.727 106.094C178.359 105.082 179.372 104.069 179.372 105.082C179.372 106.094 176.94 107.913 180.384 106.294C183.829 104.675 184.842 102.85 184.842 104.269C184.842 105.688 184.229 105.282 184.842 105.688C185.455 106.094 184.229 104.875 186.055 105.481C187.88 106.088 187.067 107.307 189.699 106.294C192.331 105.282 192.131 103.862 193.57 105.282C195.008 106.701 193.57 108.726 197.44 106.901C201.311 105.075 202.298 106.094 203.517 106.294C204.522 106.448 205.539 106.515 206.555 106.494C207.362 106.494 207.162 105.688 209.187 106.494C210.39 107.083 211.72 107.362 213.058 107.307H215.367" stroke="#FFB400" stroke-width="0.645084" stroke-linecap="round" stroke-linejoin="round"/>
<path d="M227.74 107.339C228.71 106.92 229.655 106.446 230.572 105.92C232.397 104.907 237.055 101.469 237.255 103.695C237.455 105.92 232.191 108.759 232.804 106.327C233.416 103.895 237.055 105.114 239.687 106.127C242.319 107.139 242.912 105.92 246.17 105.92C249.427 105.92 249.002 106.933 250.621 107.339C252.24 107.746 251.634 107.339 254.491 106.127C257.349 104.914 255.298 99.0307 253.479 103.088C251.659 107.146 251.047 108.759 255.298 106.733C259.549 104.707 258.336 107.139 258.942 107.139C259.549 107.139 258.536 107.339 260.968 106.327C263.4 105.314 260.362 106.733 262.187 107.139C264.013 107.546 265.019 105.514 266.638 104.907C268.257 104.301 268.464 106.127 268.464 106.127H270.083" stroke="#FFB400" stroke-width="0.645084" stroke-linecap="round" stroke-linejoin="round"/>
<path d="M143.292 68.2344C143.292 68.2344 144.305 67.828 145.924 65.4025C147.544 62.9769 144.912 62.177 144.305 64.7961C143.699 67.4151 142.28 70.4664 146.737 68.2344C151.195 66.0024 149.569 61.7835 148.156 65.009C146.744 68.2344 147.144 71.492 151.382 69.0601C155.62 66.6281 156.039 65.1896 156.646 66.4281C157.252 67.6667 155.027 68.0473 158.671 68.2473C162.316 68.4473 162.922 67.2345 164.542 66.6281C166.161 66.0217 166.974 66.6281 166.974 66.6281C167.434 66.7668 167.912 66.8364 168.393 66.8345C169.199 66.8345 170.212 66.1895 170.618 66.8345C171.025 67.4796 166.567 68.2473 171.837 67.4409C177.108 66.6346 178.288 63.1834 178.72 65.8218C179.153 68.4601 175.076 70.6792 175.076 68.2473C175.076 65.8153 177.508 63.3898 181.352 65.6153C185.197 67.8409 184.997 68.4537 187.023 68.8408C189.048 69.2278 192.287 67.0216 192.287 67.0216C192.287 67.0216 192.087 67.2216 193.299 67.828C194.512 68.4343 194.112 68.4408 196.338 67.828C198.563 67.2151 196.744 67.628 199.782 67.2216C202.821 66.8152 204.234 67.0216 203.008 68.0344C201.782 69.0472 198.35 67.628 202.808 66.8216C207.265 66.0153 207.865 67.428 207.865 68.0344C207.865 68.6408 209.085 68.8408 210.097 68.4408C211.086 68.1329 212.105 67.9276 213.136 67.828" stroke="#FFB400" stroke-width="0.645084" stroke-linecap="round" stroke-linejoin="round"/>
<path d="M148.558 56.3068C150.187 56.0361 151.792 55.637 153.358 55.1134C154.693 54.6425 155.938 54.0232 156.46 53.2685C157.873 51.2429 153.622 51.8493 150.99 54.4877C148.358 57.1261 152.609 57.3196 158.086 55.5005C163.563 53.6813 163.35 49.0174 159.705 52.4621C156.06 55.9069 157.48 56.7132 163.15 55.5005C168.82 54.2877 175.903 52.8621 173.678 54.8554C171.452 56.8487 170.846 55.8682 174.69 55.0618C178.535 54.2555 180.967 52.4299 180.361 53.8426C179.754 55.2554 178.135 57.068 181.174 55.6682C184.212 54.2684 183.806 55.6682 183.806 55.6682C189.269 55.0618 192.308 48.1723 188.463 50.6043C184.618 53.0363 184.593 56.2746 188.057 56.0746C191.521 55.8746 194.74 52.6299 193.121 54.249C191.501 55.8682 188.869 57.0874 194.533 55.6682C200.197 54.249 202.029 51.2107 201.629 53.2362C201.229 55.2618 201.023 55.0618 203.048 55.0618C205.074 55.0618 208.719 52.2235 207.506 54.249C206.293 56.2746 205.68 56.4746 207.506 56.0746C209.331 55.6747 211.957 54.249 212.77 54.249C213.583 54.249 211.151 56.4746 213.576 56.2746C216.002 56.0746 221.072 53.0492 221.072 53.0492" stroke="#FFB400" stroke-width="0.645084" stroke-linecap="round" stroke-linejoin="round"/>
<path d="M215.369 53.0684C215.369 53.0684 220.433 56.5067 221.645 56.5067" stroke="#FFB400" stroke-width="0.645084" stroke-linecap="round" stroke-linejoin="round"/>
<path d="M194.39 127.44L194.99 130.253L201.215 122.828" stroke="#FFB400" stroke-width="0.645084" stroke-linecap="round" stroke-linejoin="round"/>
<path d="M148.56 179.011C148.454 178.943 148.363 178.853 148.292 178.749L144.121 172.572C144.047 172.467 143.994 172.348 143.966 172.222C143.938 172.097 143.936 171.966 143.959 171.84C143.982 171.713 144.03 171.592 144.101 171.484C144.171 171.376 144.262 171.283 144.369 171.211C144.476 171.139 144.596 171.089 144.723 171.064C144.849 171.039 144.979 171.039 145.106 171.065C145.232 171.091 145.352 171.142 145.458 171.215C145.564 171.288 145.655 171.381 145.725 171.49L149.895 177.666C150.018 177.852 150.073 178.074 150.051 178.296C150.03 178.517 149.932 178.724 149.775 178.882C149.618 179.04 149.412 179.139 149.19 179.163C148.969 179.186 148.746 179.132 148.56 179.011Z" fill="white" stroke="#0E2B72" stroke-width="0.645084" stroke-linecap="round" stroke-linejoin="round"/>
<path d="M133.384 162.997L43.5216 21.4139C42.835 20.3295 42.6068 19.0169 42.8871 17.7644C43.1675 16.5118 43.9334 15.4217 45.0167 14.7334C46.0998 14.0465 47.4113 13.8177 48.663 14.0974C49.9147 14.3771 51.0042 15.1423 51.6918 16.225L141.554 157.808L133.384 162.997Z" fill="white" stroke="#0E2B72" stroke-width="0.645084" stroke-linecap="round" stroke-linejoin="round"/>
<path d="M61.564 31.7755L51.7194 16.243C51.0337 15.156 49.9442 14.3859 48.6907 14.1022C47.4372 13.8184 46.1223 14.0443 45.0353 14.73C43.9482 15.4158 43.1782 16.5053 42.8944 17.7588C42.6107 19.0123 42.8365 20.3272 43.5223 21.4142L53.1184 36.6204L61.564 31.7755Z" fill="white" stroke="#0E2B72" stroke-width="0.645084" stroke-linecap="round" stroke-linejoin="round"/>
<path d="M141.555 157.807L148.559 174.997L146.64 176.173L133.385 162.996L141.555 157.807Z" fill="white" stroke="#0E2B72" stroke-width="0.645084" stroke-linecap="round" stroke-linejoin="round"/>
<path d="M59.1695 28.0237L51.6844 16.2357C50.9712 15.2134 49.891 14.5058 48.669 14.2603C47.4469 14.0149 46.1773 14.2506 45.1247 14.9183C44.0721 15.5859 43.3179 16.6341 43.0192 17.8442C42.7204 19.0544 42.9003 20.3331 43.5212 21.4139L50.691 32.7078L59.1695 28.0237Z" fill="#FFB400" stroke="#0E2B72" stroke-width="0.645084" stroke-linecap="round" stroke-linejoin="round"/>
</g>
<defs>
<clipPath id="clip0_513_29408">
<rect width="335.444" height="269" fill="white" transform="translate(0.556152 0.5)"/>
</clipPath>
</defs>
</svg>
