<svg width="450" height="390" viewBox="0 0 450 390" fill="none" xmlns="http://www.w3.org/2000/svg">
<g clip-path="url(#clip0_513_28734)">
<path d="M402.536 139.087C402.536 139.087 359.188 67.3271 297.998 34.4384C236.808 1.5498 161.876 9.88607 109.209 59.0631C56.5426 108.24 70.1882 194.03 40.041 268.858C9.89372 343.686 22.9352 422.894 100.385 451.636C177.836 480.378 202.102 426.84 288.212 411.681C374.321 396.523 495.714 309.18 402.536 139.087Z" fill="#FFB400"/>
<path opacity="0.8" d="M402.536 139.087C402.536 139.087 359.188 67.3271 297.998 34.4384C236.808 1.5498 161.876 9.88607 109.209 59.0631C56.5426 108.24 70.1882 194.03 40.041 268.858C9.89372 343.686 22.9352 422.894 100.385 451.636C177.836 480.378 202.102 426.84 288.212 411.681C374.321 396.523 495.714 309.18 402.536 139.087Z" fill="white"/>
<path fill-rule="evenodd" clip-rule="evenodd" d="M88.8617 372.364C90.4101 372.452 92.0083 372.502 93.637 372.517C94.0805 372.517 94.436 372.177 94.436 371.737C94.436 371.298 94.0805 370.938 93.6523 370.938C92.035 370.919 90.4713 370.869 88.942 370.785C88.4985 370.766 88.1238 371.106 88.1085 371.531C88.0741 371.974 88.4144 372.349 88.8579 372.364H88.8617ZM103.195 372.196C104.759 372.078 106.342 371.925 107.955 371.737C108.399 371.684 108.705 371.294 108.651 370.854C108.601 370.426 108.211 370.105 107.768 370.154C106.185 370.342 104.621 370.495 103.077 370.613C102.633 370.648 102.312 371.022 102.346 371.466C102.381 371.89 102.771 372.23 103.195 372.196ZM74.6162 370.529C76.1455 370.85 77.7283 371.141 79.3417 371.397C79.7661 371.466 80.1752 371.16 80.244 370.732C80.3129 370.292 80.007 369.898 79.5788 369.833C77.9807 369.577 76.4513 369.306 74.9373 368.981C74.5129 368.897 74.0886 369.168 74.0006 369.592C73.9165 370.036 74.188 370.445 74.6123 370.529H74.6162ZM117.406 370.307C118.936 370.021 120.499 369.696 122.082 369.34C122.507 369.252 122.778 368.828 122.679 368.403C122.595 367.979 122.17 367.708 121.742 367.792C120.178 368.147 118.63 368.453 117.1 368.744C116.676 368.828 116.385 369.237 116.47 369.661C116.554 370.105 116.963 370.376 117.402 370.307H117.406ZM60.8447 366.431C62.3052 367.012 63.8039 367.555 65.3677 368.063C65.7767 368.201 66.2164 367.979 66.3541 367.555C66.4917 367.146 66.2699 366.706 65.8609 366.568C64.3315 366.06 62.8519 365.532 61.4411 364.955C61.0321 364.798 60.5733 365.004 60.405 365.414C60.2521 365.819 60.4394 366.278 60.8485 366.431H60.8447ZM131.331 367.061C132.845 366.652 134.374 366.243 135.922 365.819C136.347 365.7 136.599 365.276 136.481 364.852C136.362 364.427 135.922 364.171 135.513 364.29C133.965 364.714 132.436 365.123 130.922 365.513C130.497 365.632 130.241 366.075 130.36 366.484C130.482 366.908 130.906 367.165 131.331 367.061ZM145.083 363.253C146.582 362.829 148.111 362.386 149.64 361.942C150.065 361.808 150.306 361.384 150.187 360.959C150.065 360.531 149.625 360.294 149.201 360.413C147.668 360.856 146.157 361.296 144.643 361.739C144.219 361.858 143.978 362.282 144.1 362.707C144.219 363.135 144.659 363.372 145.083 363.253ZM48.0253 359.954C49.3328 360.787 50.713 361.586 52.1582 362.386C52.5482 362.588 53.0261 362.435 53.2287 362.064C53.4505 361.671 53.2976 361.196 52.9229 360.99C51.493 360.21 50.151 359.426 48.8587 358.612C48.4841 358.39 47.9908 358.493 47.7691 358.868C47.5321 359.239 47.6506 359.732 48.0253 359.954ZM158.77 359.258C160.265 358.815 161.798 358.356 163.309 357.897C163.737 357.778 163.974 357.335 163.855 356.911C163.718 356.502 163.278 356.264 162.869 356.383C161.34 356.842 159.826 357.285 158.312 357.744C157.887 357.863 157.65 358.306 157.784 358.711C157.902 359.14 158.346 359.377 158.77 359.258ZM172.423 355.194C173.937 354.735 175.451 354.292 176.981 353.833C177.386 353.714 177.627 353.271 177.508 352.846C177.386 352.441 176.946 352.2 176.522 352.319C175.008 352.781 173.479 353.221 171.964 353.68C171.555 353.798 171.318 354.242 171.437 354.651C171.555 355.075 171.999 355.312 172.423 355.194ZM36.6166 351.183C37.7215 352.219 38.9106 353.29 40.2219 354.36C40.5622 354.632 41.0707 354.582 41.346 354.242C41.6174 353.902 41.5677 353.408 41.2428 353.137C39.9505 352.082 38.7767 351.046 37.7062 350.044C37.3812 349.738 36.8919 349.753 36.586 350.078C36.2801 350.384 36.2954 350.893 36.6204 351.183H36.6166ZM186.092 351.164C187.606 350.725 189.12 350.281 190.649 349.838C191.058 349.719 191.31 349.279 191.192 348.87C191.073 348.446 190.63 348.205 190.205 348.324C188.676 348.767 187.162 349.191 185.652 349.635C185.224 349.773 184.987 350.212 185.105 350.621C185.224 351.046 185.667 351.283 186.092 351.164ZM199.779 347.253C201.308 346.829 202.822 346.42 204.352 345.995C204.776 345.877 205.032 345.452 204.914 345.028C204.795 344.603 204.352 344.363 203.942 344.466C202.413 344.89 200.884 345.315 199.354 345.743C198.926 345.842 198.689 346.286 198.808 346.71C198.93 347.134 199.354 347.375 199.779 347.253ZM27.284 340.18C27.284 340.18 28.1863 341.728 30.0903 344.145C30.3617 344.485 30.874 344.535 31.2105 344.263C31.5507 343.992 31.6004 343.499 31.329 343.158C29.5091 340.845 28.6451 339.381 28.6451 339.381C28.4233 339.01 27.9492 338.872 27.5745 339.094C27.1846 339.316 27.066 339.809 27.284 340.18ZM213.531 343.564C215.064 343.174 216.594 342.784 218.123 342.394C218.547 342.29 218.803 341.866 218.7 341.442C218.597 341.013 218.157 340.761 217.733 340.86C216.204 341.235 214.671 341.625 213.126 342.034C212.698 342.137 212.445 342.581 212.564 343.005C212.663 343.411 213.107 343.667 213.531 343.564ZM227.337 340.18C228.885 339.824 230.43 339.469 231.963 339.129C232.403 339.044 232.659 338.616 232.575 338.192C232.472 337.767 232.063 337.496 231.623 337.58C230.094 337.92 228.545 338.276 226.982 338.635C226.557 338.735 226.301 339.163 226.404 339.587C226.488 340.012 226.913 340.268 227.337 340.18ZM311.357 336.663C312.856 337.156 314.317 337.718 315.747 338.31C316.152 338.482 316.611 338.295 316.783 337.905C316.951 337.496 316.764 337.037 316.358 336.865C314.913 336.238 313.399 335.676 311.87 335.168C311.442 335.015 311.002 335.252 310.864 335.661C310.73 336.066 310.952 336.525 311.357 336.663ZM241.246 337.205C242.81 336.9 244.354 336.613 245.903 336.338C246.346 336.253 246.618 335.848 246.549 335.42C246.465 334.98 246.056 334.709 245.631 334.774C244.068 335.064 242.519 335.355 240.956 335.661C240.512 335.745 240.241 336.154 240.325 336.578C240.413 337.003 240.822 337.29 241.246 337.205ZM255.255 334.808C256.834 334.571 258.401 334.369 259.946 334.162C260.389 334.112 260.695 333.703 260.626 333.279C260.577 332.835 260.183 332.53 259.743 332.598C258.179 332.786 256.612 333.007 255.033 333.244C254.589 333.298 254.303 333.703 254.352 334.128C254.421 334.571 254.83 334.877 255.255 334.808ZM297.62 333.55C299.203 333.772 300.752 334.028 302.281 334.315C302.705 334.403 303.114 334.112 303.199 333.688C303.283 333.264 302.992 332.835 302.568 332.751C301.023 332.465 299.44 332.208 297.842 331.987C297.418 331.918 297.009 332.224 296.959 332.667C296.89 333.092 297.196 333.501 297.62 333.55ZM269.366 333.176C270.945 333.042 272.528 332.939 274.073 332.855C274.516 332.82 274.857 332.445 274.822 332.021C274.807 331.578 274.432 331.241 273.989 331.272C272.425 331.36 270.827 331.459 269.229 331.597C268.785 331.631 268.464 332.021 268.498 332.445C268.548 332.889 268.923 333.21 269.366 333.176ZM283.528 332.617C285.107 332.617 286.69 332.667 288.238 332.736C288.678 332.751 289.052 332.411 289.068 331.971C289.087 331.547 288.747 331.172 288.303 331.153C286.739 331.084 285.141 331.035 283.528 331.035C283.103 331.019 282.744 331.375 282.744 331.818C282.729 332.243 283.084 332.598 283.528 332.617Z" fill="#0E2B72"/>
<path fill-rule="evenodd" clip-rule="evenodd" d="M1.16022 294.109C0.896415 293.96 0.556141 293.975 0.303805 294.167C0.0514683 294.358 -0.0517586 294.683 0.024707 294.977L10.0952 336.804C10.1564 337.041 10.3323 337.247 10.554 337.335C10.7911 337.438 11.0549 337.423 11.2651 337.293L29.2384 326.924L46.5922 320.455C46.8713 320.352 47.0816 320.085 47.0931 319.775C47.1237 319.465 46.9593 319.171 46.6955 319.022L1.16404 294.109H1.16022ZM1.97075 296.353C1.97075 296.353 36.6632 315.344 44.4015 319.584L28.6114 325.46C28.5655 325.475 28.5387 325.491 28.4928 325.521L11.3913 335.401L1.96693 296.353H1.97075Z" fill="#0E2B72"/>
<path fill-rule="evenodd" clip-rule="evenodd" d="M29.0864 325.58L2.05959 295.055C1.78049 294.73 1.27582 294.684 0.950837 294.979C0.625858 295.277 0.579978 295.778 0.878194 296.103L27.905 326.628C28.1841 326.953 28.6887 326.983 29.0137 326.689C29.354 326.41 29.3846 325.905 29.0864 325.58Z" fill="#0E2B72"/>
<path fill-rule="evenodd" clip-rule="evenodd" d="M27.4943 326.275L22.8719 335.726L19.4463 331.578C19.1672 331.238 18.6625 331.192 18.3222 331.459C17.982 331.739 17.9399 332.239 18.219 332.58L22.4284 337.676C22.6043 337.883 22.8719 337.986 23.1357 337.955C23.3995 337.928 23.6366 337.764 23.7551 337.527L28.9089 326.967C29.1001 326.585 28.9395 326.111 28.5533 325.92C28.1557 325.728 27.6816 325.889 27.4904 326.275H27.4943Z" fill="#0E2B72"/>
<path fill-rule="evenodd" clip-rule="evenodd" d="M93.6371 293.755L114.585 284.062C114.975 283.875 115.143 283.401 114.975 283.007C114.788 282.598 114.31 282.43 113.92 282.617L92.9757 292.325C92.5819 292.512 92.4137 292.971 92.601 293.38C92.7692 293.77 93.2472 293.942 93.6371 293.755Z" fill="#0E2B72"/>
<path fill-rule="evenodd" clip-rule="evenodd" d="M287.499 91.7991C289.097 92.0017 290.695 92.1394 292.278 92.2235C292.717 92.2579 293.092 91.9176 293.111 91.4741C293.127 91.0306 292.805 90.6751 292.362 90.6406C290.814 90.5718 289.269 90.4189 287.686 90.2316C287.262 90.1627 286.853 90.4686 286.803 90.9121C286.753 91.3365 287.059 91.7456 287.499 91.7953V91.7991ZM301.882 92.0017C303.499 91.8297 305.097 91.6118 306.642 91.3212C307.085 91.2371 307.376 90.828 307.288 90.4036C307.204 89.9792 306.795 89.6887 306.37 89.7575C304.841 90.048 303.293 90.266 301.729 90.4189C301.289 90.4533 300.983 90.8433 301.014 91.2868C301.068 91.7112 301.458 92.0361 301.882 92.0017ZM273.49 88.4652C275.02 89.0081 276.553 89.486 278.082 89.9104C278.491 90.0136 278.931 89.7728 279.049 89.3484C279.168 88.924 278.915 88.4996 278.487 88.3811C277.011 87.972 275.513 87.4979 274.018 86.9703C273.609 86.8327 273.15 87.0544 273.016 87.4635C272.863 87.8726 273.081 88.3314 273.49 88.4652ZM315.944 88.8743C317.473 88.3467 318.968 87.7503 320.432 87.1232C320.822 86.9359 321.01 86.4771 320.842 86.068C320.654 85.678 320.195 85.4907 319.786 85.6589C318.376 86.2859 316.911 86.8671 315.432 87.3756C315.007 87.5285 314.805 87.972 314.942 88.3964C315.095 88.8055 315.535 89.0272 315.944 88.8743ZM260.434 82.4665C261.845 83.2808 263.255 84.0302 264.666 84.726C265.056 84.9287 265.519 84.7757 265.721 84.3858C265.909 83.9958 265.756 83.5179 265.366 83.3152C263.986 82.6347 262.609 81.8853 261.217 81.1054C260.843 80.8836 260.35 81.0213 260.143 81.396C259.925 81.7706 260.059 82.2638 260.434 82.4665ZM328.897 82.5697C330.258 81.6865 331.566 80.7498 332.828 79.7825C333.164 79.5264 333.233 79.0332 332.977 78.6776C332.705 78.3373 332.212 78.2685 331.856 78.54C330.633 79.4767 329.356 80.3751 328.033 81.2277C327.674 81.4648 327.555 81.958 327.792 82.3327C328.029 82.6882 328.523 82.8106 328.897 82.5697ZM248.532 74.5638C249.637 75.294 250.742 76.0778 251.847 76.8921C252.034 77.0107 252.206 77.1483 252.393 77.2668C252.749 77.523 253.242 77.4542 253.498 77.0948C253.751 76.7392 253.667 76.246 253.311 75.9898C253.139 75.8522 252.971 75.7337 252.799 75.5999C251.659 74.7664 250.524 73.9826 249.4 73.2524C249.025 72.9962 248.532 73.0994 248.295 73.4741C248.058 73.8297 248.157 74.3229 248.532 74.5638ZM339.931 73.3059C341.036 72.1169 342.076 70.8934 343.059 69.6317C343.315 69.2915 343.246 68.783 342.91 68.5268C342.569 68.2553 342.057 68.3242 341.801 68.6644C340.849 69.8879 339.847 71.0769 338.777 72.2354C338.486 72.5604 338.505 73.0536 338.826 73.3594C339.132 73.65 339.644 73.6309 339.931 73.3097V73.3059ZM182.091 72.6751C182.091 72.6751 183.521 71.6887 186.121 70.362C186.495 70.1746 186.664 69.7006 186.461 69.3068C186.258 68.9168 185.78 68.7638 185.39 68.9512C182.687 70.3467 181.189 71.3828 181.189 71.3828C180.833 71.6198 180.73 72.113 180.986 72.4724C181.242 72.8471 181.735 72.9312 182.091 72.6751ZM236.072 68.0183C237.498 68.5803 238.928 69.2265 240.373 69.9223C240.763 70.1096 241.237 69.9376 241.424 69.5476C241.612 69.1576 241.459 68.6797 241.069 68.4924C239.589 67.7774 238.11 67.1313 236.664 66.554C236.259 66.3858 235.8 66.5884 235.644 66.9975C235.475 67.3875 235.678 67.8654 236.072 68.0183ZM194.773 66.7949C196.184 66.3361 197.678 65.8926 199.277 65.5026C199.701 65.3994 199.957 64.9597 199.854 64.5353C199.751 64.1109 199.311 63.8548 198.902 63.958C197.254 64.3671 195.721 64.8259 194.276 65.2847C193.851 65.4185 193.63 65.8811 193.767 66.2864C193.905 66.7107 194.344 66.9325 194.769 66.7987L194.773 66.7949ZM222.537 64.3288C224.051 64.5506 225.581 64.8373 227.144 65.212C227.569 65.3153 227.997 65.0438 228.096 64.6156C228.181 64.1912 227.928 63.7668 227.504 63.6636C225.906 63.2889 224.323 63.0022 222.774 62.7613C222.331 62.6925 221.941 62.9983 221.872 63.4227C221.803 63.8662 222.109 64.2562 222.534 64.325L222.537 64.3288ZM208.51 63.9389C210.024 63.8012 211.587 63.7171 213.201 63.7018C213.625 63.6827 213.985 63.3271 213.985 62.9028C213.969 62.4593 213.61 62.1037 213.186 62.1228C211.538 62.1381 209.921 62.226 208.372 62.3598C207.929 62.3943 207.607 62.7842 207.657 63.2277C207.692 63.6521 208.082 63.9771 208.506 63.9427L208.51 63.9389Z" fill="#0E2B72"/>
<path fill-rule="evenodd" clip-rule="evenodd" d="M364.143 30.7992C364.219 30.4895 364.105 30.1798 363.856 29.981C363.608 29.7936 363.275 29.7707 363 29.9198L324.694 50.879C324.434 51.0281 324.274 51.3264 324.285 51.636C324.312 51.9343 324.511 52.2057 324.809 52.3204L339.395 57.7495L354.501 66.4704C354.715 66.5965 354.975 66.6195 355.212 66.5201C355.433 66.4207 355.609 66.2219 355.659 65.9733L364.143 30.7992ZM362.193 32.1641L354.367 64.5664L340.129 56.3425C340.091 56.3196 340.052 56.2928 340.003 56.2813L326.981 51.4372L362.193 32.1679V32.1641Z" fill="#0E2B72"/>
<path fill-rule="evenodd" clip-rule="evenodd" d="M340.657 57.4626L363.383 31.7816C363.681 31.4605 363.643 30.9634 363.321 30.6652C362.996 30.3785 362.488 30.4167 362.201 30.7379L339.464 56.4188C339.181 56.7438 339.204 57.2523 339.541 57.539C339.862 57.8258 340.359 57.799 340.657 57.4664V57.4626Z" fill="#0E2B72"/>
<path fill-rule="evenodd" clip-rule="evenodd" d="M339.589 57.7365L343.936 66.6065C344.062 66.8435 344.299 67.0156 344.559 67.0423C344.83 67.0806 345.094 66.9659 345.266 66.7556L348.807 62.4697C349.082 62.1332 349.032 61.6362 348.696 61.3648C348.359 61.078 347.862 61.1277 347.591 61.4642L344.819 64.8057L341.019 57.0406C340.82 56.643 340.346 56.4824 339.96 56.6698C339.562 56.8686 339.401 57.3388 339.589 57.7365Z" fill="#0E2B72"/>
<path fill-rule="evenodd" clip-rule="evenodd" d="M400.843 286.531C400.178 284.049 397.635 282.585 395.15 283.25C385.844 285.743 364.537 291.451 355.224 293.948C352.746 294.613 351.274 297.156 351.94 299.637C353.614 305.888 356.631 317.147 358.305 323.398C358.967 325.872 361.517 327.344 363.994 326.683C373.308 324.186 394.615 318.478 403.921 315.981C406.406 315.316 407.87 312.77 407.209 310.296C405.534 304.041 402.518 292.785 400.843 286.531Z" fill="#0E2B72"/>
<path fill-rule="evenodd" clip-rule="evenodd" d="M351.849 296.436C351.849 296.436 369.16 303.441 376.555 306.427C378.822 307.348 381.429 306.648 382.932 304.718C387.826 298.455 399.257 283.812 399.257 283.812C399.529 283.472 399.464 282.975 399.12 282.707C398.776 282.439 398.275 282.5 398.003 282.841L381.689 303.743C380.619 305.119 378.761 305.616 377.147 304.958L352.441 294.972C352.04 294.811 351.577 295.006 351.413 295.408C351.248 295.813 351.443 296.28 351.849 296.436Z" fill="white"/>
<path fill-rule="evenodd" clip-rule="evenodd" d="M1.60001 389.239H414.411C414.847 389.239 415.202 388.884 415.202 388.459C415.202 388.035 414.847 387.66 414.411 387.66H1.60001C1.16416 387.66 0.808594 388.016 0.808594 388.459C0.808594 388.903 1.16798 389.239 1.60001 389.239Z" fill="#0E2B72"/>
<path fill-rule="evenodd" clip-rule="evenodd" d="M312.884 241.363C312.884 238.963 311.957 236.693 310.265 234.991C308.573 233.309 306.282 232.372 303.898 232.372H147.336C144.951 232.372 142.661 233.309 140.969 234.991C139.277 236.693 138.329 238.963 138.329 241.363V340.226C138.329 342.605 139.277 344.896 140.969 346.572C142.661 348.275 144.951 349.212 147.336 349.212H303.903C306.287 349.212 308.578 348.275 310.27 346.572C311.962 344.896 312.889 342.605 312.889 340.226V241.363H312.884Z" fill="#0E2B72"/>
<path fill-rule="evenodd" clip-rule="evenodd" d="M292.556 168.342C292.556 164.219 289.219 160.877 285.085 160.877H166.881C162.748 160.877 159.395 164.219 159.395 168.342V247.22C159.395 247.22 200.736 278.399 218.276 291.622C222.831 295.069 229.12 295.069 233.675 291.622C251.215 278.399 292.556 247.22 292.556 247.22V168.342Z" fill="white"/>
<path d="M259.288 236.484C258.831 236.167 258.71 235.544 259.028 235.087C259.345 234.631 259.968 234.51 260.425 234.827C261.78 235.762 262.911 236.995 263.792 238.5C264.072 238.978 263.91 239.591 263.432 239.871C263.352 239.923 263.267 239.956 263.18 239.979C262.752 240.09 262.289 239.91 262.061 239.512C261.329 238.259 260.39 237.246 259.285 236.475L259.288 236.484ZM265.179 242.907C264.89 247.22 262.172 248.552 260.577 248.967C259.205 249.325 257.852 249.033 256.624 248.387C255.711 249.591 254.458 250.562 252.795 250.995C251.131 251.429 249.421 250.887 247.682 249.834C246.771 251.318 245.051 253.013 244.04 253.276C243.592 253.393 243.1 253.178 242.884 252.746C242.64 252.249 242.846 251.645 243.343 251.401C244.401 250.876 245.298 249.894 246.027 248.665C242.835 246.1 240.089 242.1 239.394 239.434C238.652 236.584 240.471 233.44 243.282 232.708C246.094 231.975 249.365 233.845 250.095 236.646C250.777 239.263 250.337 244.156 248.611 248.055C249.953 248.9 251.249 249.331 252.29 249.059C253.428 248.763 254.314 248.096 254.959 247.263C253.214 245.785 251.95 243.767 251.605 242.444C251.139 240.654 252.326 238.672 254.145 238.198C255.964 237.724 257.948 238.88 258.415 240.67C258.798 242.139 258.621 244.532 257.66 246.663C258.461 247.067 259.287 247.247 260.075 247.041C261.972 246.547 263.021 245.11 263.173 242.785C263.207 242.236 263.688 241.81 264.249 241.851C264.798 241.884 265.224 242.365 265.184 242.926L265.179 242.907ZM248.149 237.153C247.693 235.402 245.569 234.189 243.789 234.653C242.009 235.117 240.876 237.147 241.34 238.927C241.946 241.252 244.341 244.586 246.936 246.808C248.287 243.464 248.707 239.293 248.149 237.153ZM255.975 245.461C256.613 243.84 256.71 242.101 256.469 241.177C256.284 240.466 255.382 239.954 254.652 240.144C253.923 240.334 253.368 241.237 253.551 241.937C253.792 242.861 254.745 244.327 255.975 245.461Z" fill="#0E2B72"/>
<path fill-rule="evenodd" clip-rule="evenodd" d="M293.647 168.342C293.647 163.615 289.795 159.794 285.083 159.794H166.879C162.147 159.794 158.315 163.615 158.315 168.342V247.22C158.315 247.574 158.477 247.876 158.758 248.073C158.758 248.073 200.084 279.279 217.623 292.476C222.569 296.224 229.384 296.224 234.329 292.476C251.869 279.273 293.21 248.073 293.21 248.073C293.491 247.87 293.652 247.568 293.652 247.22V168.342H293.647ZM291.476 168.342V246.689C287.062 250.01 249.515 278.347 233.038 290.763C228.853 293.908 223.095 293.908 218.909 290.763L160.466 246.689V168.342C160.466 164.823 163.344 161.928 166.879 161.928H285.083C288.613 161.928 291.476 164.818 291.476 168.342Z" fill="#0E2B72"/>
<path fill-rule="evenodd" clip-rule="evenodd" d="M140.869 234.621C140.869 234.621 196.662 276.707 217.564 292.44C222.531 296.198 229.413 296.198 234.38 292.44C255.256 276.707 311.076 234.621 311.076 234.621C311.529 234.257 311.633 233.58 311.279 233.106C310.925 232.638 310.243 232.533 309.764 232.898C309.764 232.898 253.97 274.984 233.094 290.717C228.882 293.897 223.062 293.897 218.85 290.717C197.974 274.984 142.18 232.898 142.18 232.898C141.702 232.533 141.02 232.638 140.666 233.106C140.312 233.575 140.39 234.257 140.869 234.621Z" fill="white"/>
<path fill-rule="evenodd" clip-rule="evenodd" d="M174.062 186H221.266C221.869 186 222.354 185.551 222.354 184.99C222.354 184.43 221.869 184 221.266 184H174.062C173.484 184 173 184.449 173 184.99C173 185.531 173.484 186 174.062 186Z" fill="#0E2B72"/>
<path fill-rule="evenodd" clip-rule="evenodd" d="M174.067 200H264.872C265.496 200 265.986 199.551 265.986 198.979C265.986 198.449 265.496 198 264.872 198H174.067C173.489 198 173 198.449 173 198.979C173 199.551 173.489 200 174.067 200Z" fill="#0E2B72"/>
<path fill-rule="evenodd" clip-rule="evenodd" d="M174.251 214H280.694C281.426 214 282 213.551 282 212.979C282 212.449 281.426 212 280.694 212H174.251C173.574 212 173 212.449 173 212.979C173 213.551 173.574 214 174.251 214Z" fill="#0E2B72"/>
<path fill-rule="evenodd" clip-rule="evenodd" d="M173.562 228H221.413C221.742 228 222 227.551 222 226.979C222 226.449 221.742 226 221.413 226H173.562C173.258 226 173 226.449 173 226.979C173 227.551 173.258 228 173.562 228Z" fill="#0E2B72"/>
<path fill-rule="evenodd" clip-rule="evenodd" d="M154.121 154.532L124.607 125.018C124.186 124.597 123.504 124.597 123.082 125.018C122.66 125.44 122.66 126.122 123.082 126.544L152.595 156.057C153.017 156.479 153.699 156.479 154.121 156.057C154.542 155.635 154.542 154.953 154.121 154.532Z" fill="#0E2B72"/>
<path fill-rule="evenodd" clip-rule="evenodd" d="M166.859 141.484L161.023 119.702C160.867 119.129 160.278 118.786 159.701 118.942C159.128 119.098 158.784 119.686 158.941 120.259L164.777 142.041C164.933 142.619 165.521 142.958 166.099 142.801C166.672 142.645 167.015 142.057 166.859 141.484Z" fill="#0E2B72"/>
<path fill-rule="evenodd" clip-rule="evenodd" d="M140.104 166.718L116.562 160.414C115.989 160.258 115.396 160.601 115.245 161.174C115.089 161.746 115.432 162.34 116.005 162.496L139.547 168.801C140.119 168.957 140.713 168.613 140.869 168.041C141.025 167.468 140.682 166.874 140.104 166.718Z" fill="#0E2B72"/>
<path fill-rule="evenodd" clip-rule="evenodd" d="M335.181 152.166C332.715 152.166 330.711 154.173 330.711 156.639C330.711 159.105 332.719 161.124 335.181 161.124C337.643 161.124 339.669 159.121 339.669 156.639C339.669 154.158 337.662 152.166 335.181 152.166ZM335.181 153.749C336.794 153.749 338.087 155.041 338.087 156.639C338.087 158.237 336.794 159.545 335.181 159.545C333.567 159.545 332.29 158.253 332.29 156.639C332.29 155.026 333.583 153.749 335.181 153.749Z" fill="#0E2B72"/>
<path fill-rule="evenodd" clip-rule="evenodd" d="M151.062 73.7891C149.124 73.7891 147.575 75.3566 147.575 77.2759C147.575 79.1952 149.124 80.7627 151.062 80.7627C153 80.7627 154.545 79.1952 154.545 77.2759C154.545 75.3566 152.977 73.7891 151.062 73.7891ZM151.062 75.3757C152.106 75.3757 152.958 76.2283 152.958 77.2721C152.958 78.3158 152.106 79.1684 151.062 79.1684C150.018 79.1684 149.143 78.3158 149.143 77.2721C149.143 76.2283 149.995 75.3757 151.062 75.3757Z" fill="#0E2B72"/>
</g>
<defs>
<clipPath id="clip0_513_28734">
<rect width="450" height="389.21" fill="white"/>
</clipPath>
</defs>
</svg>
