<svg width="48" height="48" viewBox="0 0 48 48" fill="none" xmlns="http://www.w3.org/2000/svg">
<path d="M35.948 14.2848C35.286 14.1528 34.744 13.7387 34.464 13.1466C31.364 6.60349 24.178 2.94485 16.996 4.26908C10.452 5.46929 5.322 10.6942 4.228 17.2733C3.904 19.2157 3.928 21.16 4.294 23.0544C4.414 23.6725 4.148 24.3606 3.602 24.8567C1.312 26.939 0 29.9055 0 32.9981C0 39.0631 4.934 44 11 44H33C41.272 44 48 37.2708 48 28.9974C48 21.8661 42.932 15.6771 35.948 14.2848ZM33 39.9973H11C7.14 39.9973 4 36.8568 4 32.9961C4 31.0297 4.836 29.1394 6.292 27.8152C7.864 26.3849 8.602 24.2686 8.218 22.2882C7.942 20.864 7.926 19.3977 8.17 17.9255C8.976 13.0806 12.9 9.08192 17.712 8.19977C18.482 8.05974 19.248 7.99173 20.004 7.99173C24.628 7.99173 28.814 10.5702 30.848 14.8609C31.674 16.6052 33.248 17.8254 35.164 18.2075C40.284 19.2297 43.998 23.7665 43.998 28.9974C43.998 35.0624 39.062 39.9993 32.998 39.9993L33 39.9973ZM30.242 24.5806C31.024 25.3628 31.024 26.627 30.242 27.4091C29.852 27.7992 29.34 27.9952 28.828 27.9952C28.316 27.9952 27.804 27.7992 27.414 27.4091L24 23.9945V33.9963C24 35.1024 23.104 35.9966 22 35.9966C20.896 35.9966 20 35.1024 20 33.9963V23.9945L16.586 27.4091C15.804 28.1912 14.54 28.1912 13.758 27.4091C12.976 26.627 12.976 25.3628 13.758 24.5806L19.172 19.1657C19.944 18.3935 20.958 18.0055 21.972 17.9995L22 17.9935L22.028 17.9995C23.044 18.0055 24.056 18.3935 24.828 19.1657L30.242 24.5806Z" fill="#0E2B72"/>
</svg>
