<svg width="218" height="45" viewBox="0 0 218 45" fill="none" xmlns="http://www.w3.org/2000/svg">
<rect width="218" height="45" fill="#D9D9D9"/>
<path d="M47.12 19.576C46.96 20.552 46.584 21.448 45.992 22.264C45.4 23.064 44.592 23.712 43.568 24.208C42.56 24.704 41.368 24.952 39.992 24.952H37.448L36.368 31H32.264L35.24 14.152H41.888C43.648 14.152 44.976 14.544 45.872 15.328C46.768 16.096 47.216 17.144 47.216 18.472C47.216 18.872 47.184 19.24 47.12 19.576ZM40.232 21.736C41.768 21.736 42.672 21.016 42.944 19.576C42.976 19.32 42.992 19.136 42.992 19.024C42.992 18.512 42.824 18.12 42.488 17.848C42.168 17.56 41.672 17.416 41 17.416H38.768L38.024 21.736H40.232ZM47.1446 24.28C47.3846 22.904 47.8566 21.696 48.5606 20.656C49.2646 19.616 50.1126 18.816 51.1046 18.256C52.0966 17.696 53.1446 17.416 54.2486 17.416C55.1926 17.416 55.9846 17.608 56.6246 17.992C57.2646 18.376 57.7286 18.88 58.0166 19.504L58.3526 17.608H62.4566L60.0806 31H55.9766L56.3366 29.104C55.8246 29.728 55.1766 30.232 54.3926 30.616C53.6086 31 52.7446 31.192 51.8006 31.192C50.8566 31.192 50.0166 30.976 49.2806 30.544C48.5606 30.112 48.0006 29.504 47.6006 28.72C47.2006 27.92 47.0006 26.984 47.0006 25.912C47.0006 25.4 47.0486 24.856 47.1446 24.28ZM57.1766 24.304C57.2246 24.016 57.2486 23.752 57.2486 23.512C57.2486 22.728 57.0166 22.112 56.5526 21.664C56.1046 21.216 55.5286 20.992 54.8246 20.992C54.0086 20.992 53.2646 21.288 52.5926 21.88C51.9206 22.456 51.4966 23.256 51.3206 24.28C51.2726 24.568 51.2486 24.832 51.2486 25.072C51.2486 25.856 51.4726 26.48 51.9206 26.944C52.3846 27.392 52.9606 27.616 53.6486 27.616C54.4646 27.616 55.2086 27.32 55.8806 26.728C56.5526 26.136 56.9846 25.328 57.1766 24.304ZM67.9936 17.608L69.6256 25.984L74.1856 17.608H78.6256L66.7456 37.36H62.3296L66.6016 30.544L63.4336 17.608H67.9936ZM96.7417 17.464C98.1817 17.464 99.3017 17.848 100.102 18.616C100.918 19.368 101.326 20.424 101.326 21.784C101.326 22.2 101.278 22.664 101.182 23.176L99.7897 31H95.7097L97.0057 23.728C97.0377 23.568 97.0537 23.352 97.0537 23.08C97.0537 22.408 96.8617 21.896 96.4777 21.544C96.1097 21.192 95.5897 21.016 94.9177 21.016C94.1177 21.016 93.4457 21.256 92.9017 21.736C92.3577 22.2 92.0137 22.864 91.8697 23.728L90.5737 31H86.4937L87.7897 23.728C87.8217 23.568 87.8377 23.352 87.8377 23.08C87.8377 22.408 87.6457 21.896 87.2617 21.544C86.8937 21.192 86.3737 21.016 85.7017 21.016C84.9017 21.016 84.2297 21.256 83.6857 21.736C83.1417 22.2 82.7977 22.864 82.6537 23.728V23.608L81.3577 31H77.2537L79.6057 17.608H83.7097L83.4217 19.312C83.9337 18.736 84.5497 18.288 85.2697 17.968C86.0057 17.632 86.7977 17.464 87.6457 17.464C88.6697 17.464 89.5337 17.68 90.2377 18.112C90.9577 18.544 91.4697 19.168 91.7737 19.984C92.3657 19.232 93.1017 18.624 93.9817 18.16C94.8617 17.696 95.7817 17.464 96.7417 17.464ZM110.532 17.416C112.26 17.416 113.628 17.888 114.636 18.832C115.66 19.76 116.172 21.032 116.172 22.648C116.172 23.176 116.132 23.648 116.052 24.064C115.988 24.432 115.892 24.824 115.764 25.24H106.476C106.46 25.336 106.452 25.488 106.452 25.696C106.452 26.4 106.644 26.936 107.028 27.304C107.412 27.672 107.924 27.856 108.564 27.856C109.588 27.856 110.372 27.424 110.916 26.56H115.284C114.708 27.92 113.772 29.032 112.476 29.896C111.18 30.76 109.724 31.192 108.108 31.192C106.38 31.192 104.996 30.712 103.956 29.752C102.932 28.792 102.42 27.488 102.42 25.84C102.42 25.344 102.468 24.832 102.564 24.304C102.804 22.912 103.3 21.696 104.052 20.656C104.804 19.616 105.74 18.816 106.86 18.256C107.98 17.696 109.204 17.416 110.532 17.416ZM112.02 23.152C112.052 22.928 112.068 22.776 112.068 22.696C112.068 22.056 111.868 21.568 111.468 21.232C111.068 20.88 110.54 20.704 109.884 20.704C109.18 20.704 108.556 20.92 108.012 21.352C107.484 21.768 107.1 22.368 106.86 23.152H112.02ZM127.025 17.464C128.369 17.464 129.425 17.84 130.193 18.592C130.961 19.344 131.345 20.392 131.345 21.736C131.345 22.184 131.297 22.664 131.201 23.176L129.809 31H125.729L127.025 23.728C127.073 23.456 127.097 23.216 127.097 23.008C127.097 22.336 126.905 21.816 126.521 21.448C126.153 21.08 125.633 20.896 124.961 20.896C124.161 20.896 123.489 21.144 122.945 21.64C122.401 22.136 122.049 22.832 121.889 23.728V23.608L120.593 31H116.489L118.841 17.608H122.945L122.633 19.408C123.161 18.816 123.801 18.344 124.553 17.992C125.321 17.64 126.145 17.464 127.025 17.464ZM137.749 26.392C137.733 26.472 137.725 26.576 137.725 26.704C137.725 26.992 137.805 27.2 137.965 27.328C138.141 27.456 138.421 27.52 138.805 27.52H140.269L139.645 31H137.557C134.869 31 133.525 29.872 133.525 27.616C133.525 27.28 133.565 26.856 133.645 26.344L134.605 21.016H132.973L133.573 17.608H135.205L135.781 14.344H139.885L139.309 17.608H141.997L141.397 21.016H138.709L137.749 26.392ZM157.542 28.024H151.254L149.718 31H145.422L154.494 14.152H159.246L162.366 31H158.022L157.542 28.024ZM157.062 24.904L156.078 18.664L152.862 24.904H157.062ZM178.597 19.576C178.437 20.552 178.061 21.448 177.469 22.264C176.877 23.064 176.069 23.712 175.045 24.208C174.037 24.704 172.845 24.952 171.469 24.952H168.925L167.845 31H163.741L166.717 14.152H173.365C175.125 14.152 176.453 14.544 177.349 15.328C178.245 16.096 178.693 17.144 178.693 18.472C178.693 18.872 178.661 19.24 178.597 19.576ZM171.709 21.736C173.245 21.736 174.149 21.016 174.421 19.576C174.453 19.32 174.469 19.136 174.469 19.024C174.469 18.512 174.301 18.12 173.965 17.848C173.645 17.56 173.149 17.416 172.477 17.416H170.245L169.501 21.736H171.709ZM185.317 14.152L182.341 31H178.237L181.213 14.152H185.317Z" fill="#050F28"/>
</svg>
