<svg width="531" height="312" viewBox="0 0 531 312" fill="none" xmlns="http://www.w3.org/2000/svg">
<path d="M398.982 1.24346C398.982 1.24346 48.2294 74.2949 33.0968 109.852C25.3621 128.017 33.0968 285.553 85.0882 288.846C122.889 291.236 377.631 310.09 501.64 279.657C539.165 270.467 489.142 63.1522 470.057 36.831C450.973 10.5099 422.018 -4.01771 398.982 1.24346Z" fill="#FFB400"/>
<path opacity="0.7" d="M398.982 1.24346C398.982 1.24346 48.2294 74.2949 33.0968 109.852C25.3621 128.017 33.0968 285.553 85.0882 288.846C122.889 291.236 377.631 310.09 501.64 279.657C539.165 270.467 489.142 63.1522 470.057 36.831C450.973 10.5099 422.018 -4.01771 398.982 1.24346Z" fill="white"/>
<path d="M394.606 244.01L346.724 243.871C345.797 243.869 345.043 244.618 345.04 245.545L345.029 249.28C345.027 250.207 345.776 250.962 346.704 250.965L394.586 251.103C395.514 251.105 396.268 250.355 396.27 249.428L396.281 245.694C396.283 244.766 395.534 244.012 394.606 244.009V244.01Z" fill="black"/>
<path d="M359.417 243.908L354.939 243.896C354.182 243.893 353.566 244.506 353.563 245.263L353.551 249.613C353.548 250.37 354.161 250.987 354.918 250.989L359.396 251.002C358.75 251 358.228 250.475 358.231 249.83L358.244 245.074C358.246 244.428 358.771 243.907 359.417 243.909V243.908Z" fill="#0E2B72"/>
<path d="M394.433 303.701L346.55 303.563C345.623 303.56 344.869 304.31 344.866 305.237L344.855 308.971C344.853 309.899 345.603 310.653 346.53 310.656L394.412 310.794C395.34 310.796 396.094 310.047 396.097 309.12L396.108 305.385C396.11 304.457 395.36 303.703 394.433 303.7L394.433 303.701Z" fill="black"/>
<path d="M359.248 303.599L354.771 303.585C354.014 303.583 353.397 304.196 353.395 304.953L353.383 309.303C353.38 310.06 353.993 310.676 354.75 310.679L359.228 310.692C358.582 310.69 358.061 310.165 358.063 309.519L358.076 304.764C358.078 304.118 358.603 303.597 359.249 303.599H359.248Z" fill="#0E2B72"/>
<path d="M364.264 272.277H364.213C357.004 272.256 351.179 265.465 351.204 257.108L351.222 250.978L348.13 250.969L348.113 257.099C348.089 265.456 354.844 272.25 363.201 272.274H363.259C364.341 272.277 365.216 273.157 365.213 274.239L365.204 277.318L365.195 280.397C365.192 281.479 364.312 282.354 363.23 282.35H363.171C354.814 282.326 348.021 289.08 347.997 297.437L347.979 303.567L351.07 303.576L351.088 297.446C351.112 289.089 356.976 282.332 364.185 282.353H364.236C365.169 282.356 365.929 281.481 365.932 280.399L365.941 277.32L365.95 274.241C365.953 273.159 365.199 272.28 364.265 272.277H364.264Z" fill="#DBDFEA"/>
<path d="M390.045 257.22C390.021 265.577 384.158 272.334 376.948 272.313C376.015 272.31 375.255 273.186 375.252 274.268L375.243 277.347L375.234 280.426C375.231 281.508 375.986 282.387 376.919 282.39C384.128 282.411 389.953 289.202 389.928 297.559L389.911 303.688L393.002 303.697L393.02 297.568C393.044 289.211 386.289 282.417 377.932 282.393C376.85 282.39 375.976 281.51 375.979 280.428L375.988 277.349L375.997 274.27C376 273.188 376.879 272.313 377.961 272.317C386.318 272.341 393.112 265.586 393.136 257.229L393.154 251.1L390.063 251.091L390.045 257.22L390.045 257.22Z" fill="#DBDFEA"/>
<path d="M351.207 257.106C351.183 265.463 357.007 272.255 364.217 272.275H364.268C365.201 272.278 365.955 273.157 365.952 274.239L365.943 277.318L365.934 280.396C365.931 281.478 365.171 282.353 364.238 282.351H364.187C356.978 282.33 351.114 289.087 351.09 297.444L351.072 303.574L389.916 303.686L389.933 297.556C389.957 289.2 384.132 282.408 376.923 282.388C375.989 282.385 375.235 281.506 375.239 280.423L375.248 277.344L375.257 274.266C375.26 273.184 376.019 272.309 376.952 272.311C384.162 272.332 390.025 265.574 390.049 257.217L390.067 251.088L351.223 250.976L351.206 257.105L351.207 257.106Z" fill="white"/>
<path d="M377.907 291.908C374.203 291.897 371.199 288.875 371.209 285.171L371.241 274.255C371.252 270.551 374.274 267.546 377.978 267.557C381.327 267.567 384.314 265.979 386.218 263.513L354.998 263.423C356.889 265.899 359.866 267.505 363.215 267.514H363.274C366.978 267.525 369.983 270.547 369.972 274.251L369.94 285.167C369.929 288.871 366.907 291.876 363.203 291.865H363.144C357.425 291.849 352.758 296.488 352.742 302.208L352.738 303.579L388.247 303.682L388.25 302.311C388.267 296.591 383.627 291.924 377.908 291.908H377.907Z" fill="#FFB400"/>
<g opacity="0.6">
<mask id="mask0_513_29186" style="mask-type:luminance" maskUnits="userSpaceOnUse" x="356" y="284" width="7" height="5">
<path d="M362.998 284.127H356.779V288.538H362.998V284.127Z" fill="white"/>
</mask>
<g mask="url(#mask0_513_29186)">
<path d="M362.158 284.133L360.16 284.127C359.976 284.127 359.796 284.184 359.649 284.295C358.63 285.076 357.71 286.068 356.922 287.228C356.547 287.78 356.955 288.526 357.622 288.529L360.837 288.538C361.186 288.539 361.5 288.325 361.622 287.999C361.988 287.028 362.409 286.156 362.874 285.405C363.218 284.851 362.81 284.135 362.158 284.133Z" fill="white"/>
</g>
</g>
<g opacity="0.6">
<mask id="mask1_513_29186" style="mask-type:luminance" maskUnits="userSpaceOnUse" x="354" y="252" width="7" height="6">
<path d="M360.163 252.698H354.08V257.275H360.163V252.698Z" fill="white"/>
</mask>
<g mask="url(#mask1_513_29186)">
<path d="M357.93 252.704L356.326 252.699C355.089 252.695 354.084 253.695 354.08 254.931V255.025C354.076 256.262 355.076 257.267 356.313 257.27L357.917 257.275C359.155 257.279 360.161 256.277 360.163 255.039C360.163 254.982 360.163 254.949 360.163 254.949C360.167 253.712 359.167 252.707 357.93 252.704H357.93Z" fill="white"/>
</g>
</g>
<g opacity="0.6">
<mask id="mask2_513_29186" style="mask-type:luminance" maskUnits="userSpaceOnUse" x="354" y="259" width="15" height="22">
<path d="M368.082 259.633H354.689V280.02H368.082V259.633Z" fill="white"/>
</mask>
<g mask="url(#mask2_513_29186)">
<path d="M367.176 272.285H367.148C363.984 272.276 361.322 267.774 360.455 261.589C360.3 260.477 359.364 259.64 358.241 259.637L356.942 259.634C355.474 259.63 354.381 261.021 354.768 262.438C356.334 268.175 360.387 272.266 365.154 272.28H365.197C365.993 272.282 366.635 273.161 366.632 274.243L366.623 277.322L366.618 279.294C366.617 279.694 366.94 280.019 367.34 280.02C367.741 280.022 368.066 279.698 368.067 279.298L368.073 277.326L368.082 274.247C368.085 273.165 367.679 272.287 367.176 272.286V272.285Z" fill="white"/>
</g>
</g>
<g opacity="0.6">
<mask id="mask3_513_29186" style="mask-type:luminance" maskUnits="userSpaceOnUse" x="353" y="292" width="8" height="9">
<path d="M360.206 292.235H353.953V300.851H360.206V292.235Z" fill="white"/>
</mask>
<g mask="url(#mask3_513_29186)">
<path d="M358.253 292.241L356.222 292.235C355.282 292.232 354.463 292.894 354.292 293.818C354.077 294.983 353.962 296.201 353.957 297.455L353.953 298.881C353.95 299.963 354.825 300.842 355.907 300.845L358.071 300.851C359.153 300.854 360.033 299.98 360.036 298.898L360.04 297.473C360.043 296.415 360.097 295.384 360.196 294.388C360.31 293.239 359.407 292.244 358.252 292.241H358.253Z" fill="white"/>
</g>
</g>
<path d="M53.077 175.888C53.0878 175.877 53.0938 175.862 53.0938 175.846C53.0938 175.831 53.0878 175.816 53.077 175.804C53.0644 175.793 53.048 175.787 53.0311 175.787C53.0141 175.787 52.9978 175.793 52.9851 175.804C51.0453 180.44 49.508 185.234 48.3902 190.133C47.2686 195.031 46.4249 199.988 45.863 204.982L45.5107 208.734C45.4571 209.362 45.3882 209.99 45.3423 210.618L45.235 212.502C45.1814 213.758 45.1049 215.014 45.0742 216.27V220.038L45.1202 221.929C45.1202 222.557 45.1891 223.178 45.235 223.806C45.3269 225.062 45.4035 226.318 45.5184 227.566C45.7635 230.07 46.1387 232.559 46.5216 235.033C46.5251 235.048 46.5339 235.062 46.5465 235.072C46.5591 235.081 46.5746 235.087 46.5905 235.086C46.6062 235.084 46.6209 235.078 46.632 235.066C46.6432 235.055 46.6501 235.041 46.6518 235.025C46.6518 233.769 46.5905 232.521 46.5676 231.265C46.5446 230.009 46.4221 228.768 46.4374 227.52C46.4527 226.272 46.4374 225.023 46.4374 223.775V221.906V220.038V216.301L46.5369 212.563V210.695C46.5369 210.075 46.6059 209.447 46.6441 208.826L46.8739 205.097C47.2986 200.121 48.0043 195.174 48.9876 190.278C49.9359 185.373 51.3041 180.559 53.077 175.888Z" fill="black"/>
<path d="M53.5768 195.44C53.582 195.424 53.581 195.406 53.5739 195.39C53.5668 195.375 53.5542 195.362 53.5385 195.356C53.5305 195.352 53.5218 195.35 53.5131 195.35C53.5043 195.35 53.4956 195.352 53.4876 195.356C53.4796 195.359 53.4725 195.365 53.4668 195.371C53.461 195.378 53.4567 195.386 53.4543 195.394C52.3878 198.507 51.4955 201.678 50.7815 204.89C50.0944 208.112 49.5831 211.369 49.2499 214.647C48.9206 217.917 48.553 221.194 48.4841 224.48C48.4024 227.772 48.5201 231.066 48.8364 234.343C48.8364 234.343 48.8364 234.397 48.8976 234.405C48.9147 234.405 48.9311 234.399 48.9439 234.387C48.9566 234.376 48.9647 234.36 48.9666 234.343C49.3495 231.073 49.5792 227.803 49.809 224.541C50.0387 221.279 50.0693 218.001 50.2838 214.739C50.4876 211.48 50.8762 208.235 51.4478 205.02C51.981 201.79 52.6918 198.592 53.5768 195.44Z" fill="black"/>
<path d="M64.4137 202.317C64.408 202.31 64.4009 202.305 64.393 202.301C64.3851 202.298 64.3765 202.296 64.3678 202.296C64.3591 202.296 64.3505 202.298 64.3426 202.301C64.3347 202.305 64.3276 202.31 64.3218 202.317C61.612 204.061 59.1714 206.192 57.0772 208.642C56.0219 209.871 55.0739 211.188 54.2437 212.579L53.6616 213.681L53.2098 214.769C53.0509 215.145 52.9179 215.531 52.8116 215.925C52.6891 216.316 52.5589 216.691 52.4593 217.097C51.6153 220.22 51.102 223.424 50.9277 226.654C50.768 229.867 50.8884 233.088 51.2876 236.281C51.2895 236.296 51.2968 236.309 51.308 236.319C51.3193 236.329 51.3339 236.334 51.3489 236.334C51.3575 236.335 51.3663 236.335 51.3747 236.332C51.383 236.329 51.3907 236.325 51.3972 236.319C51.4038 236.313 51.409 236.306 51.4125 236.298C51.4161 236.29 51.4179 236.282 51.4178 236.273L52.3138 226.769C52.5399 223.617 52.9413 220.48 53.5161 217.373C53.608 216.99 53.7153 216.607 53.8148 216.232C53.9048 215.853 54.0147 215.48 54.1441 215.113L54.5347 214.011L55.0325 212.969C55.7863 211.584 56.6547 210.265 57.6286 209.025C59.5625 206.501 61.8533 204.273 64.429 202.409C64.4347 202.402 64.4389 202.394 64.4412 202.385C64.4436 202.377 64.444 202.368 64.4426 202.359C64.4411 202.35 64.4378 202.342 64.4328 202.335C64.4278 202.327 64.4213 202.321 64.4137 202.317Z" fill="black"/>
<path d="M59.205 214.555C57.7961 215.584 56.6646 216.947 55.912 218.522C55.1186 220.064 54.4996 221.69 54.0664 223.369C53.9362 223.783 53.8367 224.204 53.7448 224.633L53.4461 225.896C53.2853 226.747 53.1778 227.606 53.1244 228.47C53.1244 229.335 53.0861 230.2 53.1244 231.058C53.1867 231.922 53.2992 232.781 53.4614 233.631C53.463 233.645 53.4692 233.658 53.4789 233.667C53.4886 233.677 53.5014 233.683 53.515 233.685C53.5241 233.687 53.5335 233.687 53.5427 233.686C53.5519 233.684 53.5607 233.681 53.5686 233.676C53.5765 233.671 53.5833 233.664 53.5885 233.657C53.5938 233.649 53.5974 233.64 53.5992 233.631C53.7967 232.798 53.9475 231.954 54.0511 231.104C54.1889 230.262 54.3191 229.427 54.4187 228.592C54.5182 227.757 54.6484 226.938 54.7173 226.096C54.7863 225.253 54.8935 224.426 55.0696 223.607C55.3639 221.959 55.839 220.349 56.4864 218.805C57.0684 217.228 58.0158 215.81 59.251 214.67C59.2618 214.658 59.2678 214.643 59.2678 214.627C59.2678 214.612 59.2618 214.597 59.251 214.585C59.2459 214.577 59.2391 214.57 59.2312 214.565C59.2233 214.56 59.2144 214.556 59.205 214.555Z" fill="black"/>
<path d="M43.9731 224.105C43.6132 219.87 42.9163 215.681 42.2577 211.5C41.5991 207.318 40.8639 203.137 40.0981 198.971C39.3323 194.805 38.4822 190.654 37.5785 186.519C37.5777 186.51 37.575 186.501 37.5705 186.493C37.566 186.486 37.56 186.479 37.5527 186.474C37.5454 186.469 37.5371 186.465 37.5283 186.464C37.5196 186.462 37.5106 186.463 37.502 186.465C37.4865 186.47 37.4733 186.481 37.4649 186.495C37.4565 186.509 37.4533 186.525 37.456 186.542C38.1759 190.713 38.8396 194.891 39.4471 199.078C40.0828 203.267 40.6801 207.456 41.2085 211.645C41.7369 215.834 42.1352 220.069 42.6559 224.243L44.1875 236.833C44.1894 236.85 44.1975 236.865 44.2103 236.877C44.223 236.888 44.2394 236.894 44.2565 236.894C44.2735 236.894 44.29 236.888 44.3027 236.877C44.3154 236.865 44.3235 236.85 44.3254 236.833C44.3713 235.768 44.3713 234.711 44.3943 233.647C44.4173 232.582 44.356 231.526 44.3331 230.461C44.3101 228.332 44.1339 226.257 43.9731 224.105Z" fill="black"/>
<path d="M41.4405 224.043C41.2108 222.366 40.9044 220.704 40.5828 219.042L39.9854 216.569C39.794 215.749 39.6102 214.922 39.3728 214.111C38.525 210.831 37.4424 207.616 36.1334 204.492L35.6279 203.328L35.0612 202.187C34.709 201.421 34.2954 200.655 33.8589 199.951C33.0246 198.469 31.9942 197.106 30.7956 195.899C30.783 195.888 30.7666 195.882 30.7497 195.882C30.7327 195.882 30.7164 195.888 30.7037 195.899C30.6958 195.904 30.6892 195.911 30.6847 195.919C30.6801 195.927 30.6777 195.936 30.6777 195.945C30.6777 195.955 30.6801 195.964 30.6847 195.972C30.6892 195.98 30.6958 195.987 30.7037 195.991C31.8153 197.242 32.7554 198.635 33.499 200.134C33.8666 200.9 34.2648 201.666 34.5711 202.432L35.0689 203.581L35.5054 204.76C36.6783 207.896 37.6202 211.113 38.3236 214.386C38.7142 216.01 38.9669 217.672 39.2809 219.31L39.6791 221.792C39.8246 222.611 40.0008 223.431 40.1156 224.265C40.376 225.919 40.6823 227.566 40.9734 229.22C41.2644 230.874 41.5324 232.536 41.8847 234.198C41.8865 234.213 41.8938 234.227 41.9051 234.236C41.9164 234.246 41.9309 234.252 41.9459 234.252C41.9642 234.252 41.9817 234.244 41.9947 234.231C42.0076 234.218 42.0149 234.201 42.0149 234.183C42.0149 232.498 41.974 230.808 41.8923 229.113C41.8158 227.405 41.5937 225.728 41.4405 224.043Z" fill="black"/>
<path d="M37.9284 224.258C37.1626 222.037 36.2436 219.869 35.2557 217.733C34.2539 215.611 33.1287 213.55 31.8861 211.56C31.8728 211.55 31.8567 211.545 31.8401 211.545C31.8236 211.545 31.8074 211.55 31.7942 211.56C31.7877 211.566 31.7824 211.573 31.7789 211.581C31.7753 211.589 31.7734 211.597 31.7734 211.606C31.7734 211.615 31.7753 211.623 31.7789 211.631C31.7824 211.639 31.7877 211.646 31.7942 211.652C32.8816 213.715 33.8407 215.843 34.666 218.024C35.5314 220.183 36.3048 222.381 36.9635 224.61C37.6221 226.838 38.1045 229.113 38.6942 231.349C39.2839 233.585 39.82 235.844 40.5092 238.111C40.5137 238.124 40.522 238.135 40.5329 238.143C40.5438 238.152 40.5568 238.156 40.5705 238.157C40.5875 238.157 40.6039 238.151 40.6167 238.14C40.6294 238.128 40.6375 238.113 40.6394 238.096C40.6655 235.731 40.4448 233.37 39.9808 231.05C39.4817 228.734 38.7953 226.462 37.9284 224.258Z" fill="black"/>
<path d="M37.7643 231.656C37.3413 230.285 36.7223 228.982 35.9264 227.788C35.1817 226.546 34.2694 225.412 33.2154 224.419C32.6819 223.933 32.1051 223.497 31.4923 223.117C30.892 222.722 30.2328 222.425 29.5394 222.236C29.5286 222.227 29.5151 222.223 29.5012 222.223C29.4872 222.223 29.4737 222.227 29.4629 222.236C29.4516 222.249 29.4453 222.265 29.4453 222.282C29.4453 222.299 29.4516 222.315 29.4629 222.328C30.7115 222.928 31.8183 223.787 32.7099 224.848C33.6256 225.881 34.3983 227.032 35.0074 228.271C35.6507 229.488 35.98 230.829 36.539 232.1C36.7841 232.735 37.0291 233.386 37.3048 234.022C37.5479 234.692 37.8317 235.347 38.1549 235.983C38.1593 235.993 38.1666 236.003 38.1761 236.009C38.1856 236.016 38.1969 236.02 38.2085 236.021C38.2268 236.021 38.2443 236.014 38.2572 236.001C38.2702 235.988 38.2774 235.97 38.2774 235.952C38.3017 235.231 38.2761 234.51 38.2008 233.792C38.109 233.057 37.9634 232.383 37.7643 231.656Z" fill="black"/>
<path d="M38.0534 192.561C35.9391 191.971 34.0261 190.814 32.5212 189.216C31.0163 187.618 29.9766 185.639 29.5146 183.493C27.9217 176.027 33.0756 179.228 28.4501 167.495C23.8245 155.763 24.8967 153.098 26.4972 149.721C28.0978 146.343 28.9862 147.423 30.4106 151.85C31.835 156.276 36.9813 163.23 38.9418 176.203C40.9023 189.176 38.0534 192.561 38.0534 192.561Z" fill="#FFB400"/>
<path d="M51.738 179.955C51.738 179.955 47.1431 178.355 46.9363 169.647C46.7296 160.94 50.3136 162.709 50.8497 151.865C51.3857 141.021 52.0903 133.386 54.0508 133.202C56.0113 133.018 61.1576 138.563 62.9343 150.625C64.711 162.686 60.6368 170.712 57.0681 174.265C53.4994 177.819 51.738 179.955 51.738 179.955Z" fill="#FFB400"/>
<path d="M35.5631 203.06C35.5631 203.06 34.491 196.666 32.362 193.641C30.233 190.616 25.6075 187.966 22.5825 182.084C19.5575 176.203 16.1879 173.377 16.364 181.732C16.5402 190.087 20.2774 194.353 24.8953 197.194C29.5131 200.035 35.5631 203.06 35.5631 203.06Z" fill="#FFB400"/>
<path d="M33.6037 214.08C33.6037 214.08 29.3381 205.909 23.1197 199.859C16.9012 193.809 11.9234 190.799 13.7001 193.817C15.4768 196.834 17.6058 196.665 20.6308 201.996C23.6558 207.326 22.7597 211.239 27.033 214.249C31.3063 217.258 33.6037 214.08 33.6037 214.08Z" fill="#FFB400"/>
<path d="M33.0747 224.572C32.8909 224.036 32.7147 220.122 26.6724 216.914C20.6301 213.705 14.9401 214.953 15.6523 216.554C16.3645 218.154 20.094 220.819 23.8312 222.42C27.5684 224.02 33.0747 224.572 33.0747 224.572Z" fill="#FFB400"/>
<path d="M51.3783 203.42C51.3783 203.42 48.7132 200.043 50.1377 192.928C51.5621 185.814 54.7326 187.567 58.3166 183.861C61.9006 180.154 61.1578 179.595 64.7112 175.69C68.2646 171.784 71.4657 169.647 72.8901 171.24C74.3145 172.833 72.1779 177.819 70.0413 180.667C67.9046 183.516 64.5657 184.902 62.9345 188.486C61.3033 192.07 62.0461 197.73 57.9567 200.395C53.8672 203.06 51.3783 203.42 51.3783 203.42Z" fill="#FFB400"/>
<path d="M60.2695 205.372C60.2695 205.372 66.6641 198.082 71.2897 192.752C75.9152 187.422 77.6919 183.332 77.868 186.885C78.0442 190.439 79.4686 193.288 75.7314 197.906C71.9942 202.524 60.2695 205.372 60.2695 205.372Z" fill="#FFB400"/>
<path d="M56.9064 217.105C56.9064 217.105 56.7303 214.256 66.8621 207.686C76.9939 201.115 81.2595 199.859 80.1873 202.524C79.1152 205.189 74.6811 207.885 69.8794 212.656C65.0777 217.427 56.9064 217.105 56.9064 217.105Z" fill="#FFB400"/>
<path d="M38.4718 191.795C38.4718 191.795 36.0901 179.044 33.6012 169.977C31.1123 160.91 29.5117 155.426 29.5117 155.426" stroke="black" stroke-width="0.765818" stroke-linecap="round" stroke-linejoin="round"/>
<path d="M51.3242 180.085C51.3242 180.085 55.6434 166.3 57.0679 157.914C58.4923 149.529 56.8917 143.364 56.1795 139.604" stroke="black" stroke-width="0.765818" stroke-linecap="round" stroke-linejoin="round"/>
<path d="M34.9973 202.792C33.0857 199.501 30.895 196.38 28.4495 193.464C24.5439 188.869 21.5189 186.349 19.7422 181.908" stroke="black" stroke-width="0.765818" stroke-linecap="round" stroke-linejoin="round"/>
<path d="M51.3789 203.421C51.3789 203.421 52.8033 194.882 56.1806 190.44C59.5578 185.998 66.3124 179.068 68.9774 174.618" stroke="black" stroke-width="0.765818" stroke-linecap="round" stroke-linejoin="round"/>
<path d="M32.6549 224.372C32.6549 224.372 26.6738 220.482 22.4082 218.345" stroke="black" stroke-width="0.765818" stroke-linecap="round" stroke-linejoin="round"/>
<path d="M66.9008 260.205C66.5026 249.414 54.5175 242.223 54.5175 242.223H36.1379C36.1379 242.223 24.1528 249.414 23.7469 260.205C23.3411 270.995 37.3326 310.534 37.3326 310.534H53.3228C53.3228 310.534 67.299 270.987 66.9008 260.205Z" fill="black" stroke="black" stroke-width="0.765818" stroke-linecap="round" stroke-linejoin="round"/>
<path d="M56.8851 231.618H33.4434L36.1544 242.224H54.1817L56.8851 231.618Z" fill="black" stroke="black" stroke-width="0.765818" stroke-linecap="round" stroke-linejoin="round"/>
<path d="M272.209 253.291V292.883C272.216 293.988 272.004 295.083 271.587 296.105C271.169 297.127 270.552 298.056 269.774 298.84C268.995 299.623 268.069 300.244 267.049 300.667C266.029 301.091 264.935 301.308 263.831 301.307H197.052C195.943 301.314 194.845 301.101 193.819 300.681C192.794 300.26 191.863 299.64 191.079 298.856C190.295 298.072 189.675 297.141 189.254 296.115C188.833 295.09 188.62 293.992 188.628 292.883V253.291H176.443V294.415C176.443 297.315 177.596 300.097 179.646 302.148C181.697 304.199 184.479 305.351 187.379 305.351H273.473C274.909 305.352 276.332 305.07 277.66 304.521C278.988 303.971 280.194 303.166 281.21 302.151C282.227 301.135 283.033 299.929 283.583 298.602C284.133 297.274 284.416 295.852 284.416 294.415V253.291H272.209Z" fill="#0E2B72" stroke="#0E2B72" stroke-width="0.765818" stroke-linecap="round" stroke-linejoin="round"/>
<path d="M282.412 253.291V292.883C282.419 293.988 282.207 295.083 281.789 296.105C281.371 297.127 280.755 298.056 279.976 298.84C279.198 299.623 278.272 300.244 277.252 300.667C276.232 301.091 275.138 301.308 274.034 301.307H199.351C198.243 301.314 197.144 301.101 196.119 300.681C195.094 300.26 194.162 299.64 193.379 298.856C192.595 298.072 191.975 297.141 191.554 296.115C191.133 295.09 190.92 293.992 190.927 292.883V253.291H186.631V294.415C186.631 297.315 187.783 300.097 189.834 302.148C191.885 304.199 194.666 305.351 197.567 305.351H275.764C277.201 305.352 278.624 305.07 279.952 304.521C281.279 303.971 282.486 303.166 283.502 302.151C284.519 301.135 285.325 299.929 285.875 298.602C286.425 297.274 286.708 295.852 286.708 294.415V253.291H282.412Z" fill="white" stroke="#0E2B72" stroke-width="0.765818" stroke-linecap="round" stroke-linejoin="round"/>
<path d="M315.532 305.052H142.863V310.535H315.532V305.052Z" fill="#0E2B72" stroke="#0E2B72" stroke-width="0.765818" stroke-linecap="round" stroke-linejoin="round"/>
<path d="M315.532 305.052H185.488V310.535H315.532V305.052Z" fill="white" stroke="#0E2B72" stroke-width="0.765818" stroke-linecap="round" stroke-linejoin="round"/>
<path d="M363.794 43.0044H97.2201C93.6166 43.0044 90.6953 45.9256 90.6953 49.5292V253.053C90.6953 256.657 93.6166 259.578 97.2201 259.578H363.794C367.397 259.578 370.319 256.657 370.319 253.053V49.5292C370.319 45.9256 367.397 43.0044 363.794 43.0044Z" fill="#0E2B72" stroke="#0E2B72" stroke-width="0.765818" stroke-linecap="round" stroke-linejoin="round"/>
<path d="M369.96 43.0044H103.386C99.7826 43.0044 96.8613 45.9256 96.8613 49.5292V253.053C96.8613 256.657 99.7826 259.578 103.386 259.578H369.96C373.563 259.578 376.485 256.657 376.485 253.053V49.5292C376.485 45.9256 373.563 43.0044 369.96 43.0044Z" fill="#FFB400" stroke="#0E2B72" stroke-width="0.765818" stroke-linecap="round" stroke-linejoin="round"/>
<path d="M108.662 47.0552H364.675C366.405 47.0552 368.065 47.7426 369.288 48.9662C370.512 50.1899 371.199 51.8495 371.199 53.5799V238.739H102.137V53.6182C102.132 52.7582 102.297 51.9056 102.622 51.1096C102.948 50.3135 103.428 49.5897 104.034 48.9798C104.641 48.3698 105.362 47.8858 106.156 47.5555C106.95 47.2252 107.802 47.0552 108.662 47.0552Z" fill="white" stroke="#0E2B72" stroke-width="0.765818" stroke-linecap="round" stroke-linejoin="round"/>
<path d="M0.425781 310.534H529.484" stroke="#263238" stroke-width="0.765818" stroke-linecap="round" stroke-linejoin="round"/>
<path d="M279.028 73.3266V83.7105C279.028 85.95 277.212 87.766 274.966 87.766H174.308C172.062 87.766 170.246 85.95 170.246 83.7105V73.3266C170.246 71.0806 172.062 69.2646 174.308 69.2646H274.966C277.212 69.2646 279.028 71.0806 279.028 73.3266Z" fill="#0B2056"/>
<path d="M174.309 83.6689L174.343 73.3257L274.967 73.3598L274.933 83.6689H174.309Z" fill="#050F28"/>
<path d="M176.377 74.0952C181.593 74.0952 185.826 78.3141 185.826 83.5369V240.19C185.826 247.031 191.37 252.575 198.204 252.575H295.216C302.05 252.575 307.594 247.031 307.594 240.19V86.4731C307.594 79.6326 302.05 74.0952 295.216 74.0952H176.377Z" fill="white"/>
<path d="M198.203 252.913H295.214C302.227 252.913 307.934 247.207 307.934 240.193V86.4706C307.934 79.457 302.227 73.7505 295.214 73.7505H176.376V74.4333C181.397 74.4333 185.483 78.5189 185.483 83.5401V240.193C185.483 247.207 191.189 252.913 198.203 252.913L198.203 252.913ZM295.214 74.4333C301.852 74.4333 307.251 79.8333 307.251 86.4706V240.193C307.251 246.831 301.851 252.231 295.214 252.231H198.203C191.565 252.231 186.166 246.831 186.166 240.193V83.5401C186.166 79.4098 183.595 75.8681 179.97 74.4333H295.214Z" fill="#050F28"/>
<path d="M225.561 86.2046H196.58C195.967 86.2046 195.471 86.7014 195.471 87.3142V92.8085C195.471 93.4213 195.967 93.9181 196.58 93.9181H225.561C226.173 93.9181 226.67 93.4213 226.67 92.8085V87.3142C226.67 86.7014 226.173 86.2046 225.561 86.2046Z" fill="#DBDFEA"/>
<path d="M262.933 87.1655H247.762V90.0618H262.933V87.1655Z" fill="#DBDFEA"/>
<path d="M273.693 87.1655H266.631V90.0618H273.693V87.1655Z" fill="#DBDFEA"/>
<path d="M299.885 87.1655H276.947V90.0618H299.885V87.1655Z" fill="#DBDFEA"/>
<path d="M277.451 92.7139H247.762V95.6102H277.451V92.7139Z" fill="#DBDFEA"/>
<g opacity="0.08">
<path d="M241.4 129.947C241.4 131.798 239.919 133.292 238.075 133.292H188.102V105.731H237.932C239.776 105.731 241.257 107.234 241.257 109.076L241.4 129.947V129.947Z" fill="black"/>
</g>
<path d="M239.542 107.112L239.686 127.985C239.686 129.829 238.2 131.327 236.356 131.327H178.318C176.474 131.327 174.988 129.829 174.988 127.985L174.844 107.112C174.844 105.268 176.33 103.77 178.174 103.77H236.212C238.056 103.77 239.542 105.268 239.542 107.112Z" fill="#FFB400"/>
<path d="M275.036 107.432H269.713V110.328H275.036V107.432Z" fill="#DBDFEA"/>
<path d="M266.453 107.432H253.402V110.328H266.453V107.432Z" fill="#DBDFEA"/>
<path d="M292.905 107.432H277.662V110.328H292.905V107.432Z" fill="#DBDFEA"/>
<path d="M296.036 113.1H292.09V115.996H296.036V113.1Z" fill="#DBDFEA"/>
<path d="M262.38 113.1H255.992V115.996H262.38V113.1Z" fill="#DBDFEA"/>
<path d="M271.585 113.1H264.32V115.996H271.585V113.1Z" fill="#DBDFEA"/>
<path d="M281.047 113.1H273.344V115.996H281.047V113.1Z" fill="#DBDFEA"/>
<path d="M264.323 118.766H253.402V121.662H264.323V118.766Z" fill="#DBDFEA"/>
<path d="M276.033 118.766H267.516V121.662H276.033V118.766Z" fill="#DBDFEA"/>
<path d="M297.98 118.766H279.855V121.662H297.98V118.766Z" fill="#DBDFEA"/>
<path d="M260.44 124.434H253.402V127.33H260.44V124.434Z" fill="#DBDFEA"/>
<path d="M291.527 124.434H265.512V127.33H291.527V124.434Z" fill="#DBDFEA"/>
<path d="M261.536 166.903H211.07V179.021H261.536V166.903Z" fill="#DBDFEA"/>
<path d="M208.698 181.396H194.387V193.513H208.698V181.396Z" fill="#DBDFEA"/>
<path d="M208.698 166.903H194.387V179.021H208.698V166.903Z" fill="#DBDFEA"/>
<path d="M273.882 154.867H263.91V164.529H273.882V154.867Z" fill="#0E2B72"/>
<path d="M261.536 154.867H211.07V164.529H261.536V154.867Z" fill="#0E2B72"/>
<path d="M273.882 166.903H263.91V179.021H273.882V166.903Z" fill="#DBDFEA"/>
<path d="M301.547 154.867H293.295V164.529H301.547V154.867Z" fill="#0E2B72"/>
<path d="M290.921 154.867H276.26V164.529H290.921V154.867Z" fill="#0E2B72"/>
<path d="M273.882 181.396H263.91V193.513H273.882V181.396Z" fill="#DBDFEA"/>
<path d="M290.921 166.903H276.26V179.021H290.921V166.903Z" fill="#DBDFEA"/>
<path d="M261.536 195.888H211.07V206.643H261.536V195.888Z" fill="#DBDFEA"/>
<path d="M208.698 154.867H194.387V164.529H208.698V154.867Z" fill="#0E2B72"/>
<path d="M208.698 195.888H194.387V206.643H208.698V195.888Z" fill="#DBDFEA"/>
<path d="M301.547 166.903H293.295V179.021H301.547V166.903Z" fill="#DBDFEA"/>
<path d="M301.547 195.888H293.295V206.643H301.547V195.888Z" fill="#DBDFEA"/>
<path d="M290.921 181.396H276.26V193.513H290.921V181.396Z" fill="#DBDFEA"/>
<path d="M290.921 195.888H276.26V206.643H290.921V195.888Z" fill="#DBDFEA"/>
<path d="M301.547 181.396H293.295V193.513H301.547V181.396Z" fill="#DBDFEA"/>
<path d="M273.882 195.888H263.91V206.643H273.882V195.888Z" fill="#DBDFEA"/>
<path d="M261.536 181.396H211.07V193.513H261.536V181.396Z" fill="#DBDFEA"/>
<path d="M206.868 171.888H196.137V174.5H206.868V171.888Z" fill="#B4BDD3"/>
<path d="M206.869 185.735H197.082V188.347H206.869V185.735Z" fill="#B4BDD3"/>
<path d="M230.668 185.735H214.209V188.347H230.668V185.735Z" fill="#B4BDD3"/>
<path d="M244.731 185.735H235.307V188.347H244.731V185.735Z" fill="#B4BDD3"/>
<path d="M206.869 199.583H197.082V202.196H206.869V199.583Z" fill="#B4BDD3"/>
<path d="M230.668 199.583H214.209V202.196H230.668V199.583Z" fill="#B4BDD3"/>
<path d="M244.731 199.583H235.307V202.196H244.731V199.583Z" fill="#B4BDD3"/>
<path d="M237.508 171.887H214.324V174.5H237.508V171.887Z" fill="#B4BDD3"/>
<path d="M232.495 219.074H197.082V222.675H232.495V219.074Z" fill="#DBDFEA"/>
<path d="M246.349 219.074H237.523V222.675H246.349V219.074Z" fill="#DBDFEA"/>
<path d="M216.609 226.047H197.082V229.647H216.609V226.047Z" fill="#DBDFEA"/>
<path d="M236.198 226.047H224.725V229.647H236.198V226.047Z" fill="#DBDFEA"/>
<path d="M299.088 217.013H258.055C257.415 217.013 256.896 217.531 256.896 218.171V232.558C256.896 233.197 257.415 233.716 258.055 233.716H299.088C299.728 233.716 300.246 233.197 300.246 232.558V218.171C300.246 217.531 299.728 217.013 299.088 217.013Z" fill="#FFB400"/>
<mask id="path-106-outside-1_513_29186" maskUnits="userSpaceOnUse" x="263.445" y="220.477" width="28" height="11" fill="black">
<rect fill="white" x="263.445" y="220.477" width="28" height="11"/>
<path d="M264.686 221.423H270.512C270.545 221.428 270.561 221.444 270.561 221.473V222.027C270.561 222.06 270.545 222.076 270.512 222.076H268.319V222.126C268.631 222.294 268.874 222.639 269.046 223.16L269.071 223.339H270.512C270.545 223.343 270.561 223.359 270.561 223.388V223.942C270.561 223.975 270.545 223.992 270.512 223.992H269.126C269.126 224.612 268.746 225.215 267.987 225.802C267.313 226.188 266.835 226.381 266.552 226.381C266.552 226.398 266.535 226.406 266.502 226.406L269.631 230.459V230.508H268.442C268.43 230.508 267.221 228.939 264.815 225.802V225.778H265.191C266.521 225.778 267.319 225.299 267.586 224.343C267.603 224.228 267.611 224.135 267.611 224.066V223.992H264.686C264.653 223.992 264.636 223.975 264.636 223.942V223.388C264.64 223.355 264.657 223.339 264.686 223.339H267.586C267.488 222.965 267.278 222.661 266.958 222.427C266.515 222.193 266.11 222.076 265.745 222.076H264.686C264.653 222.076 264.636 222.06 264.636 222.027V221.473C264.64 221.44 264.657 221.423 264.686 221.423ZM275.008 221.423H280.834C280.867 221.428 280.883 221.444 280.883 221.473V222.027C280.883 222.06 280.867 222.076 280.834 222.076H278.642V222.126C278.954 222.294 279.196 222.639 279.368 223.16L279.393 223.339H280.834C280.867 223.343 280.883 223.359 280.883 223.388V223.942C280.883 223.975 280.867 223.992 280.834 223.992H279.448C279.448 224.612 279.069 225.215 278.309 225.802C277.636 226.188 277.157 226.381 276.874 226.381C276.874 226.398 276.858 226.406 276.825 226.406L279.953 230.459V230.508H278.765C278.752 230.508 277.543 228.939 275.137 225.802V225.778H275.513C276.843 225.778 277.642 225.299 277.909 224.343C277.925 224.228 277.933 224.135 277.933 224.066V223.992H275.008C274.975 223.992 274.959 223.975 274.959 223.942V223.388C274.963 223.355 274.979 223.339 275.008 223.339H277.909C277.81 222.965 277.601 222.661 277.281 222.427C276.837 222.193 276.433 222.076 276.067 222.076H275.008C274.975 222.076 274.959 222.06 274.959 222.027V221.473C274.963 221.44 274.979 221.423 275.008 221.423ZM285.33 221.423H291.157C291.189 221.428 291.206 221.444 291.206 221.473V222.027C291.206 222.06 291.189 222.076 291.157 222.076H288.964V222.126C289.276 222.294 289.518 222.639 289.691 223.16L289.715 223.339H291.157C291.189 223.343 291.206 223.359 291.206 223.388V223.942C291.206 223.975 291.189 223.992 291.157 223.992H289.771C289.771 224.612 289.391 225.215 288.631 225.802C287.958 226.188 287.48 226.381 287.196 226.381C287.196 226.398 287.18 226.406 287.147 226.406L290.276 230.459V230.508H289.087C289.075 230.508 287.866 228.939 285.46 225.802V225.778H285.835C287.166 225.778 287.964 225.299 288.231 224.343C288.247 224.228 288.256 224.135 288.256 224.066V223.992H285.33C285.297 223.992 285.281 223.975 285.281 223.942V223.388C285.285 223.355 285.301 223.339 285.33 223.339H288.231C288.133 222.965 287.923 222.661 287.603 222.427C287.159 222.193 286.755 222.076 286.39 222.076H285.33C285.297 222.076 285.281 222.06 285.281 222.027V221.473C285.285 221.44 285.301 221.423 285.33 221.423Z"/>
</mask>
<path d="M264.686 221.423H270.512C270.545 221.428 270.561 221.444 270.561 221.473V222.027C270.561 222.06 270.545 222.076 270.512 222.076H268.319V222.126C268.631 222.294 268.874 222.639 269.046 223.16L269.071 223.339H270.512C270.545 223.343 270.561 223.359 270.561 223.388V223.942C270.561 223.975 270.545 223.992 270.512 223.992H269.126C269.126 224.612 268.746 225.215 267.987 225.802C267.313 226.188 266.835 226.381 266.552 226.381C266.552 226.398 266.535 226.406 266.502 226.406L269.631 230.459V230.508H268.442C268.43 230.508 267.221 228.939 264.815 225.802V225.778H265.191C266.521 225.778 267.319 225.299 267.586 224.343C267.603 224.228 267.611 224.135 267.611 224.066V223.992H264.686C264.653 223.992 264.636 223.975 264.636 223.942V223.388C264.64 223.355 264.657 223.339 264.686 223.339H267.586C267.488 222.965 267.278 222.661 266.958 222.427C266.515 222.193 266.11 222.076 265.745 222.076H264.686C264.653 222.076 264.636 222.06 264.636 222.027V221.473C264.64 221.44 264.657 221.423 264.686 221.423ZM275.008 221.423H280.834C280.867 221.428 280.883 221.444 280.883 221.473V222.027C280.883 222.06 280.867 222.076 280.834 222.076H278.642V222.126C278.954 222.294 279.196 222.639 279.368 223.16L279.393 223.339H280.834C280.867 223.343 280.883 223.359 280.883 223.388V223.942C280.883 223.975 280.867 223.992 280.834 223.992H279.448C279.448 224.612 279.069 225.215 278.309 225.802C277.636 226.188 277.157 226.381 276.874 226.381C276.874 226.398 276.858 226.406 276.825 226.406L279.953 230.459V230.508H278.765C278.752 230.508 277.543 228.939 275.137 225.802V225.778H275.513C276.843 225.778 277.642 225.299 277.909 224.343C277.925 224.228 277.933 224.135 277.933 224.066V223.992H275.008C274.975 223.992 274.959 223.975 274.959 223.942V223.388C274.963 223.355 274.979 223.339 275.008 223.339H277.909C277.81 222.965 277.601 222.661 277.281 222.427C276.837 222.193 276.433 222.076 276.067 222.076H275.008C274.975 222.076 274.959 222.06 274.959 222.027V221.473C274.963 221.44 274.979 221.423 275.008 221.423ZM285.33 221.423H291.157C291.189 221.428 291.206 221.444 291.206 221.473V222.027C291.206 222.06 291.189 222.076 291.157 222.076H288.964V222.126C289.276 222.294 289.518 222.639 289.691 223.16L289.715 223.339H291.157C291.189 223.343 291.206 223.359 291.206 223.388V223.942C291.206 223.975 291.189 223.992 291.157 223.992H289.771C289.771 224.612 289.391 225.215 288.631 225.802C287.958 226.188 287.48 226.381 287.196 226.381C287.196 226.398 287.18 226.406 287.147 226.406L290.276 230.459V230.508H289.087C289.075 230.508 287.866 228.939 285.46 225.802V225.778H285.835C287.166 225.778 287.964 225.299 288.231 224.343C288.247 224.228 288.256 224.135 288.256 224.066V223.992H285.33C285.297 223.992 285.281 223.975 285.281 223.942V223.388C285.285 223.355 285.301 223.339 285.33 223.339H288.231C288.133 222.965 287.923 222.661 287.603 222.427C287.159 222.193 286.755 222.076 286.39 222.076H285.33C285.297 222.076 285.281 222.06 285.281 222.027V221.473C285.285 221.44 285.301 221.423 285.33 221.423Z" fill="black"/>
<path d="M270.512 221.423L270.54 221.195L270.526 221.194H270.512V221.423ZM268.319 222.076V221.847H268.09V222.076H268.319ZM268.319 222.126H268.09V222.263L268.21 222.328L268.319 222.126ZM269.046 223.16L269.274 223.129L269.271 223.108L269.264 223.088L269.046 223.16ZM269.071 223.339L268.843 223.37L268.87 223.569H269.071V223.339ZM270.512 223.339L270.54 223.111L270.526 223.109H270.512V223.339ZM269.126 223.992V223.762H268.896V223.992H269.126ZM267.987 225.802L268.101 226.002L268.115 225.994L268.127 225.984L267.987 225.802ZM266.552 226.381V226.152H266.322V226.381H266.552ZM266.502 226.406V226.176H266.035L266.321 226.546L266.502 226.406ZM269.631 230.459H269.861V230.38L269.813 230.318L269.631 230.459ZM269.631 230.508V230.738H269.861V230.508H269.631ZM264.815 225.802H264.585V225.88L264.633 225.942L264.815 225.802ZM264.815 225.778V225.548H264.585V225.778H264.815ZM267.586 224.343L267.808 224.404L267.812 224.39L267.814 224.375L267.586 224.343ZM267.611 223.992H267.841V223.762H267.611V223.992ZM264.636 223.388L264.408 223.36L264.406 223.374V223.388H264.636ZM267.586 223.339V223.569H267.885L267.809 223.28L267.586 223.339ZM266.958 222.427L267.094 222.242L267.08 222.232L267.065 222.224L266.958 222.427ZM264.636 221.473L264.408 221.444L264.406 221.458V221.473H264.636ZM264.686 221.653H270.512V221.194H264.686V221.653ZM270.483 221.651C270.47 221.65 270.427 221.642 270.386 221.601C270.342 221.557 270.331 221.504 270.331 221.473H270.791C270.791 221.413 270.772 221.337 270.711 221.276C270.654 221.219 270.586 221.201 270.54 221.195L270.483 221.651ZM270.331 221.473V222.027H270.791V221.473H270.331ZM270.331 222.027C270.331 222.008 270.336 221.952 270.386 221.902C270.436 221.851 270.493 221.847 270.512 221.847V222.306C270.564 222.306 270.645 222.293 270.711 222.226C270.778 222.16 270.791 222.079 270.791 222.027H270.331ZM270.512 221.847H268.319V222.306H270.512V221.847ZM268.09 222.076V222.126H268.549V222.076H268.09ZM268.21 222.328C268.449 222.456 268.664 222.737 268.828 223.232L269.264 223.088C269.083 222.541 268.814 222.131 268.428 221.923L268.21 222.328ZM268.818 223.192L268.843 223.37L269.298 223.307L269.274 223.129L268.818 223.192ZM269.071 223.569H270.512V223.109H269.071V223.569ZM270.483 223.567C270.47 223.565 270.427 223.557 270.386 223.517C270.342 223.472 270.331 223.419 270.331 223.388H270.791C270.791 223.328 270.772 223.253 270.711 223.192C270.654 223.135 270.586 223.117 270.54 223.111L270.483 223.567ZM270.331 223.388V223.942H270.791V223.388H270.331ZM270.331 223.942C270.331 223.923 270.336 223.867 270.386 223.817C270.436 223.767 270.493 223.762 270.512 223.762V224.221C270.564 224.221 270.645 224.208 270.711 224.142C270.778 224.075 270.791 223.994 270.791 223.942H270.331ZM270.512 223.762H269.126V224.221H270.512V223.762ZM268.896 223.992C268.896 224.509 268.581 225.053 267.846 225.621L268.127 225.984C268.912 225.378 269.356 224.715 269.356 223.992H268.896ZM267.872 225.603C267.541 225.793 267.263 225.932 267.037 226.024C266.806 226.117 266.649 226.152 266.552 226.152V226.611C266.738 226.611 266.961 226.55 267.209 226.45C267.461 226.348 267.759 226.198 268.101 226.002L267.872 225.603ZM266.322 226.381C266.322 226.345 266.332 226.303 266.357 226.265C266.382 226.227 266.413 226.206 266.437 226.194C266.459 226.183 266.477 226.179 266.486 226.178C266.496 226.176 266.502 226.176 266.502 226.176V226.636C266.531 226.636 266.586 226.633 266.642 226.605C266.673 226.59 266.711 226.563 266.74 226.52C266.77 226.475 266.781 226.426 266.781 226.381H266.322ZM266.321 226.546L269.449 230.599L269.813 230.318L266.684 226.266L266.321 226.546ZM269.401 230.459V230.508H269.861V230.459H269.401ZM269.631 230.278H268.442V230.738H269.631V230.278ZM268.442 230.278C268.505 230.278 268.549 230.304 268.555 230.308C268.57 230.316 268.58 230.324 268.584 230.327C268.594 230.335 268.6 230.341 268.602 230.343C268.605 230.346 268.607 230.348 268.608 230.349C268.609 230.35 268.609 230.35 268.61 230.351C268.61 230.351 268.608 230.349 268.603 230.343C268.595 230.333 268.581 230.316 268.562 230.291C268.523 230.243 268.466 230.17 268.39 230.073C268.238 229.877 268.011 229.583 267.708 229.191C267.104 228.407 266.2 227.231 264.997 225.663L264.633 225.942C265.836 227.511 266.74 228.687 267.344 229.472C267.647 229.864 267.874 230.158 268.028 230.355C268.104 230.453 268.162 230.527 268.202 230.577C268.222 230.602 268.237 230.622 268.249 230.636C268.254 230.642 268.261 230.65 268.266 230.656C268.268 230.659 268.273 230.664 268.28 230.67C268.282 230.673 268.29 230.68 268.3 230.688C268.304 230.692 268.315 230.7 268.329 230.708C268.335 230.711 268.379 230.738 268.442 230.738V230.278ZM265.045 225.802V225.778H264.585V225.802H265.045ZM264.815 226.008H265.191V225.548H264.815V226.008ZM265.191 226.008C265.88 226.008 266.458 225.884 266.905 225.616C267.359 225.345 267.66 224.935 267.808 224.404L267.365 224.281C267.246 224.707 267.014 225.015 266.669 225.222C266.318 225.432 265.831 225.548 265.191 225.548V226.008ZM267.814 224.375C267.831 224.256 267.841 224.151 267.841 224.066H267.381C267.381 224.12 267.375 224.2 267.359 224.31L267.814 224.375ZM267.841 224.066V223.992H267.381V224.066H267.841ZM267.611 223.762H264.686V224.221H267.611V223.762ZM264.686 223.762C264.705 223.762 264.761 223.767 264.811 223.817C264.861 223.867 264.866 223.923 264.866 223.942H264.406C264.406 223.994 264.42 224.075 264.486 224.142C264.553 224.208 264.634 224.221 264.686 224.221V223.762ZM264.866 223.942V223.388H264.406V223.942H264.866ZM264.864 223.417C264.863 223.43 264.855 223.473 264.814 223.514C264.769 223.558 264.717 223.569 264.686 223.569V223.109C264.626 223.109 264.55 223.128 264.489 223.189C264.432 223.246 264.414 223.314 264.408 223.36L264.864 223.417ZM264.686 223.569H267.586V223.109H264.686V223.569ZM267.809 223.28C267.696 222.854 267.455 222.506 267.094 222.242L266.823 222.613C267.102 222.817 267.28 223.076 267.364 223.397L267.809 223.28ZM267.065 222.224C266.601 221.979 266.159 221.847 265.745 221.847V222.306C266.062 222.306 266.429 222.408 266.851 222.631L267.065 222.224ZM265.745 221.847H264.686V222.306H265.745V221.847ZM264.686 221.847C264.705 221.847 264.761 221.851 264.811 221.902C264.861 221.952 264.866 222.008 264.866 222.027H264.406C264.406 222.079 264.42 222.16 264.486 222.226C264.553 222.293 264.634 222.306 264.686 222.306V221.847ZM264.866 222.027V221.473H264.406V222.027H264.866ZM264.864 221.501C264.863 221.514 264.855 221.558 264.814 221.598C264.769 221.643 264.717 221.653 264.686 221.653V221.194C264.626 221.194 264.55 221.212 264.489 221.273C264.432 221.33 264.414 221.398 264.408 221.444L264.864 221.501ZM280.834 221.423L280.863 221.195L280.849 221.194H280.834V221.423ZM278.642 222.076V221.847H278.412V222.076H278.642ZM278.642 222.126H278.412V222.263L278.533 222.328L278.642 222.126ZM279.368 223.16L279.596 223.129L279.593 223.108L279.587 223.088L279.368 223.16ZM279.393 223.339L279.165 223.37L279.193 223.569H279.393V223.339ZM280.834 223.339L280.863 223.111L280.849 223.109H280.834V223.339ZM279.448 223.992V223.762H279.219V223.992H279.448ZM278.309 225.802L278.423 226.002L278.437 225.994L278.45 225.984L278.309 225.802ZM276.874 226.381V226.152H276.644V226.381H276.874ZM276.825 226.406V226.176H276.357L276.643 226.546L276.825 226.406ZM279.953 230.459H280.183V230.38L280.135 230.318L279.953 230.459ZM279.953 230.508V230.738H280.183V230.508H279.953ZM275.137 225.802H274.907V225.88L274.955 225.942L275.137 225.802ZM275.137 225.778V225.548H274.907V225.778H275.137ZM277.909 224.343L278.13 224.404L278.134 224.39L278.136 224.375L277.909 224.343ZM277.933 223.992H278.163V223.762H277.933V223.992ZM274.959 223.388L274.731 223.36L274.729 223.374V223.388H274.959ZM277.909 223.339V223.569H278.207L278.131 223.28L277.909 223.339ZM277.281 222.427L277.416 222.242L277.403 222.232L277.388 222.224L277.281 222.427ZM274.959 221.473L274.731 221.444L274.729 221.458V221.473H274.959ZM275.008 221.653H280.834V221.194H275.008V221.653ZM280.806 221.651C280.792 221.65 280.749 221.642 280.709 221.601C280.664 221.557 280.654 221.504 280.654 221.473H281.113C281.113 221.413 281.095 221.337 281.034 221.276C280.977 221.219 280.909 221.201 280.863 221.195L280.806 221.651ZM280.654 221.473V222.027H281.113V221.473H280.654ZM280.654 222.027C280.654 222.008 280.659 221.952 280.709 221.902C280.759 221.851 280.815 221.847 280.834 221.847V222.306C280.886 222.306 280.967 222.293 281.034 222.226C281.1 222.16 281.113 222.079 281.113 222.027H280.654ZM280.834 221.847H278.642V222.306H280.834V221.847ZM278.412 222.076V222.126H278.871V222.076H278.412ZM278.533 222.328C278.771 222.456 278.986 222.737 279.15 223.232L279.587 223.088C279.405 222.541 279.136 222.131 278.751 221.923L278.533 222.328ZM279.141 223.192L279.165 223.37L279.621 223.307L279.596 223.129L279.141 223.192ZM279.393 223.569H280.834V223.109H279.393V223.569ZM280.806 223.567C280.792 223.565 280.749 223.557 280.709 223.517C280.664 223.472 280.654 223.419 280.654 223.388H281.113C281.113 223.328 281.095 223.253 281.034 223.192C280.977 223.135 280.909 223.117 280.863 223.111L280.806 223.567ZM280.654 223.388V223.942H281.113V223.388H280.654ZM280.654 223.942C280.654 223.923 280.659 223.867 280.709 223.817C280.759 223.767 280.815 223.762 280.834 223.762V224.221C280.886 224.221 280.967 224.208 281.034 224.142C281.1 224.075 281.113 223.994 281.113 223.942H280.654ZM280.834 223.762H279.448V224.221H280.834V223.762ZM279.219 223.992C279.219 224.509 278.903 225.053 278.169 225.621L278.45 225.984C279.234 225.378 279.678 224.715 279.678 223.992H279.219ZM278.195 225.603C277.863 225.793 277.585 225.932 277.359 226.024C277.129 226.117 276.971 226.152 276.874 226.152V226.611C277.06 226.611 277.283 226.55 277.531 226.45C277.784 226.348 278.082 226.198 278.423 226.002L278.195 225.603ZM276.644 226.381C276.644 226.345 276.654 226.303 276.68 226.265C276.705 226.227 276.736 226.206 276.759 226.194C276.781 226.183 276.8 226.179 276.809 226.178C276.818 226.176 276.824 226.176 276.825 226.176V226.636C276.853 226.636 276.908 226.633 276.964 226.605C276.996 226.59 277.033 226.563 277.062 226.52C277.092 226.475 277.104 226.426 277.104 226.381H276.644ZM276.643 226.546L279.772 230.599L280.135 230.318L277.007 226.266L276.643 226.546ZM279.724 230.459V230.508H280.183V230.459H279.724ZM279.953 230.278H278.765V230.738H279.953V230.278ZM278.765 230.278C278.828 230.278 278.872 230.304 278.878 230.308C278.892 230.316 278.902 230.324 278.907 230.327C278.916 230.335 278.923 230.341 278.925 230.343C278.927 230.346 278.929 230.348 278.93 230.349C278.931 230.35 278.932 230.35 278.932 230.351C278.932 230.351 278.93 230.349 278.926 230.343C278.917 230.333 278.903 230.316 278.884 230.291C278.846 230.243 278.789 230.17 278.712 230.073C278.56 229.877 278.333 229.583 278.031 229.191C277.426 228.407 276.523 227.231 275.32 225.663L274.955 225.942C276.158 227.511 277.062 228.687 277.667 229.472C277.969 229.864 278.197 230.158 278.35 230.355C278.426 230.453 278.485 230.527 278.524 230.577C278.544 230.602 278.56 230.622 278.571 230.636C278.577 230.642 278.583 230.65 278.588 230.656C278.591 230.659 278.596 230.664 278.602 230.67C278.605 230.673 278.612 230.68 278.622 230.688C278.627 230.692 278.637 230.7 278.652 230.708C278.658 230.711 278.702 230.738 278.765 230.738V230.278ZM275.367 225.802V225.778H274.907V225.802H275.367ZM275.137 226.008H275.513V225.548H275.137V226.008ZM275.513 226.008C276.203 226.008 276.781 225.884 277.228 225.616C277.681 225.345 277.982 224.935 278.13 224.404L277.687 224.281C277.569 224.707 277.337 225.015 276.992 225.222C276.64 225.432 276.153 225.548 275.513 225.548V226.008ZM278.136 224.375C278.153 224.256 278.163 224.151 278.163 224.066H277.704C277.704 224.12 277.697 224.2 277.681 224.31L278.136 224.375ZM278.163 224.066V223.992H277.704V224.066H278.163ZM277.933 223.762H275.008V224.221H277.933V223.762ZM275.008 223.762C275.027 223.762 275.083 223.767 275.133 223.817C275.183 223.867 275.188 223.923 275.188 223.942H274.729C274.729 223.994 274.742 224.075 274.808 224.142C274.875 224.208 274.956 224.221 275.008 224.221V223.762ZM275.188 223.942V223.388H274.729V223.942H275.188ZM275.187 223.417C275.185 223.43 275.177 223.473 275.136 223.514C275.092 223.558 275.039 223.569 275.008 223.569V223.109C274.948 223.109 274.873 223.128 274.812 223.189C274.755 223.246 274.736 223.314 274.731 223.36L275.187 223.417ZM275.008 223.569H277.909V223.109H275.008V223.569ZM278.131 223.28C278.018 222.854 277.778 222.506 277.416 222.242L277.145 222.613C277.424 222.817 277.602 223.076 277.687 223.397L278.131 223.28ZM277.388 222.224C276.923 221.979 276.481 221.847 276.067 221.847V222.306C276.384 222.306 276.751 222.408 277.173 222.631L277.388 222.224ZM276.067 221.847H275.008V222.306H276.067V221.847ZM275.008 221.847C275.027 221.847 275.083 221.851 275.133 221.902C275.183 221.952 275.188 222.008 275.188 222.027H274.729C274.729 222.079 274.742 222.16 274.808 222.226C274.875 222.293 274.956 222.306 275.008 222.306V221.847ZM275.188 222.027V221.473H274.729V222.027H275.188ZM275.187 221.501C275.185 221.514 275.177 221.558 275.136 221.598C275.092 221.643 275.039 221.653 275.008 221.653V221.194C274.948 221.194 274.873 221.212 274.812 221.273C274.755 221.33 274.736 221.398 274.731 221.444L275.187 221.501ZM291.157 221.423L291.185 221.195L291.171 221.194H291.157V221.423ZM288.964 222.076V221.847H288.734V222.076H288.964ZM288.964 222.126H288.734V222.263L288.855 222.328L288.964 222.126ZM289.691 223.16L289.918 223.129L289.915 223.108L289.909 223.088L289.691 223.16ZM289.715 223.339L289.488 223.37L289.515 223.569H289.715V223.339ZM291.157 223.339L291.185 223.111L291.171 223.109H291.157V223.339ZM289.771 223.992V223.762H289.541V223.992H289.771ZM288.631 225.802L288.746 226.002L288.759 225.994L288.772 225.984L288.631 225.802ZM287.196 226.381V226.152H286.967V226.381H287.196ZM287.147 226.406V226.176H286.679L286.965 226.546L287.147 226.406ZM290.276 230.459H290.506V230.38L290.458 230.318L290.276 230.459ZM290.276 230.508V230.738H290.506V230.508H290.276ZM285.46 225.802H285.23V225.88L285.277 225.942L285.46 225.802ZM285.46 225.778V225.548H285.23V225.778H285.46ZM288.231 224.343L288.452 224.404L288.456 224.39L288.459 224.375L288.231 224.343ZM288.256 223.992H288.485V223.762H288.256V223.992ZM285.281 223.388L285.053 223.36L285.051 223.374V223.388H285.281ZM288.231 223.339V223.569H288.529L288.453 223.28L288.231 223.339ZM287.603 222.427L287.738 222.242L287.725 222.232L287.71 222.224L287.603 222.427ZM285.281 221.473L285.053 221.444L285.051 221.458V221.473H285.281ZM285.33 221.653H291.157V221.194H285.33V221.653ZM291.128 221.651C291.115 221.65 291.072 221.642 291.031 221.601C290.986 221.557 290.976 221.504 290.976 221.473H291.436C291.436 221.413 291.417 221.337 291.356 221.276C291.299 221.219 291.231 221.201 291.185 221.195L291.128 221.651ZM290.976 221.473V222.027H291.436V221.473H290.976ZM290.976 222.027C290.976 222.008 290.981 221.952 291.031 221.902C291.081 221.851 291.138 221.847 291.157 221.847V222.306C291.208 222.306 291.289 222.293 291.356 222.226C291.422 222.16 291.436 222.079 291.436 222.027H290.976ZM291.157 221.847H288.964V222.306H291.157V221.847ZM288.734 222.076V222.126H289.194V222.076H288.734ZM288.855 222.328C289.093 222.456 289.309 222.737 289.473 223.232L289.909 223.088C289.728 222.541 289.459 222.131 289.073 221.923L288.855 222.328ZM289.463 223.192L289.488 223.37L289.943 223.307L289.918 223.129L289.463 223.192ZM289.715 223.569H291.157V223.109H289.715V223.569ZM291.128 223.567C291.115 223.565 291.072 223.557 291.031 223.517C290.986 223.472 290.976 223.419 290.976 223.388H291.436C291.436 223.328 291.417 223.253 291.356 223.192C291.299 223.135 291.231 223.117 291.185 223.111L291.128 223.567ZM290.976 223.388V223.942H291.436V223.388H290.976ZM290.976 223.942C290.976 223.923 290.981 223.867 291.031 223.817C291.081 223.767 291.138 223.762 291.157 223.762V224.221C291.208 224.221 291.289 224.208 291.356 224.142C291.422 224.075 291.436 223.994 291.436 223.942H290.976ZM291.157 223.762H289.771V224.221H291.157V223.762ZM289.541 223.992C289.541 224.509 289.226 225.053 288.491 225.621L288.772 225.984C289.556 225.378 290.001 224.715 290.001 223.992H289.541ZM288.517 225.603C288.186 225.793 287.908 225.932 287.682 226.024C287.451 226.117 287.294 226.152 287.196 226.152V226.611C287.383 226.611 287.606 226.55 287.854 226.45C288.106 226.348 288.404 226.198 288.746 226.002L288.517 225.603ZM286.967 226.381C286.967 226.345 286.976 226.303 287.002 226.265C287.027 226.227 287.058 226.206 287.081 226.194C287.104 226.183 287.122 226.179 287.131 226.178C287.14 226.176 287.146 226.176 287.147 226.176V226.636C287.175 226.636 287.231 226.633 287.287 226.605C287.318 226.59 287.355 226.563 287.384 226.52C287.414 226.475 287.426 226.426 287.426 226.381H286.967ZM286.965 226.546L290.094 230.599L290.458 230.318L287.329 226.266L286.965 226.546ZM290.046 230.459V230.508H290.506V230.459H290.046ZM290.276 230.278H289.087V230.738H290.276V230.278ZM289.087 230.278C289.15 230.278 289.194 230.304 289.2 230.308C289.214 230.316 289.225 230.324 289.229 230.327C289.239 230.335 289.245 230.341 289.247 230.343C289.25 230.346 289.252 230.348 289.253 230.349C289.253 230.35 289.254 230.35 289.254 230.351C289.254 230.351 289.253 230.349 289.248 230.343C289.239 230.333 289.226 230.316 289.206 230.291C289.168 230.243 289.111 230.17 289.035 230.073C288.882 229.877 288.655 229.583 288.353 229.191C287.749 228.407 286.845 227.231 285.642 225.663L285.277 225.942C286.48 227.511 287.384 228.687 287.989 229.472C288.291 229.864 288.519 230.158 288.672 230.355C288.749 230.453 288.807 230.527 288.847 230.577C288.866 230.602 288.882 230.622 288.894 230.636C288.899 230.642 288.905 230.65 288.911 230.656C288.913 230.659 288.918 230.664 288.924 230.67C288.927 230.673 288.934 230.68 288.944 230.688C288.949 230.692 288.959 230.7 288.974 230.708C288.98 230.711 289.024 230.738 289.087 230.738V230.278ZM285.689 225.802V225.778H285.23V225.802H285.689ZM285.46 226.008H285.835V225.548H285.46V226.008ZM285.835 226.008C286.525 226.008 287.103 225.884 287.55 225.616C288.003 225.345 288.304 224.935 288.452 224.404L288.01 224.281C287.891 224.707 287.659 225.015 287.314 225.222C286.962 225.432 286.476 225.548 285.835 225.548V226.008ZM288.459 224.375C288.476 224.256 288.485 224.151 288.485 224.066H288.026C288.026 224.12 288.019 224.2 288.004 224.31L288.459 224.375ZM288.485 224.066V223.992H288.026V224.066H288.485ZM288.256 223.762H285.33V224.221H288.256V223.762ZM285.33 223.762C285.349 223.762 285.406 223.767 285.456 223.817C285.506 223.867 285.511 223.923 285.511 223.942H285.051C285.051 223.994 285.064 224.075 285.131 224.142C285.197 224.208 285.278 224.221 285.33 224.221V223.762ZM285.511 223.942V223.388H285.051V223.942H285.511ZM285.509 223.417C285.507 223.43 285.499 223.473 285.459 223.514C285.414 223.558 285.361 223.569 285.33 223.569V223.109C285.27 223.109 285.195 223.128 285.134 223.189C285.077 223.246 285.059 223.314 285.053 223.36L285.509 223.417ZM285.33 223.569H288.231V223.109H285.33V223.569ZM288.453 223.28C288.341 222.854 288.1 222.506 287.738 222.242L287.467 222.613C287.746 222.817 287.924 223.076 288.009 223.397L288.453 223.28ZM287.71 222.224C287.245 221.979 286.804 221.847 286.39 221.847V222.306C286.706 222.306 287.074 222.408 287.496 222.631L287.71 222.224ZM286.39 221.847H285.33V222.306H286.39V221.847ZM285.33 221.847C285.349 221.847 285.406 221.851 285.456 221.902C285.506 221.952 285.511 222.008 285.511 222.027H285.051C285.051 222.079 285.064 222.16 285.131 222.226C285.197 222.293 285.278 222.306 285.33 222.306V221.847ZM285.511 222.027V221.473H285.051V222.027H285.511ZM285.509 221.501C285.507 221.514 285.499 221.558 285.459 221.598C285.414 221.643 285.361 221.653 285.33 221.653V221.194C285.27 221.194 285.195 221.212 285.134 221.273C285.077 221.33 285.059 221.398 285.053 221.444L285.509 221.501Z" fill="black" mask="url(#path-106-outside-1_513_29186)"/>
<path d="M182.376 122.028H180.421V113.198H182.376V122.028ZM186.029 113.198L190.481 118.938L190.355 116.163V113.198H192.335V122.028H190.645L186.256 116.377L186.331 119.278V122.028H184.338V113.198H186.029ZM202.666 113.198L198.996 122.066H196.965L193.282 113.198H195.489L197.974 119.72L200.459 113.198H202.666ZM212.364 117.613C212.364 120.489 210.421 122.242 207.596 122.242C204.77 122.242 202.828 120.489 202.828 117.613C202.828 114.737 204.77 112.984 207.596 112.984C210.421 112.984 212.364 114.737 212.364 117.613ZM210.434 117.613C210.434 115.999 209.311 114.75 207.596 114.75C205.918 114.75 204.758 116.011 204.758 117.613C204.758 119.265 205.918 120.464 207.596 120.464C209.311 120.464 210.434 119.253 210.434 117.613ZM215.782 122.028H213.827V113.198H215.782V122.028ZM224.127 119.593L225.35 120.956C224.442 121.851 223.269 122.255 221.957 122.255C218.59 122.255 217.253 120.085 217.24 117.676C217.227 115.393 218.716 112.997 221.957 112.997C223.168 112.997 224.291 113.463 225.199 114.359L223.963 115.582C223.433 115.065 222.664 114.851 221.957 114.851C219.952 114.851 219.17 116.402 219.182 117.689C219.195 118.975 219.889 120.439 221.957 120.439C222.664 120.439 223.597 120.123 224.127 119.593ZM233.25 120.211V122.028H226.527C226.527 119.089 226.527 116.137 226.527 113.198H233.073V115.002H228.457V116.705H232.809V118.433H228.457V120.211H233.25Z" fill="white"/>
<rect x="399.42" y="131.486" width="31.7815" height="34.8447" rx="2.106" fill="white"/>
<rect x="399.42" y="131.486" width="31.7815" height="34.8447" rx="2.106" stroke="#0E2B72" stroke-width="0.382909"/>
<path d="M423.226 138.529C423.117 138.529 423.009 138.502 422.913 138.447C420.298 137.082 418.038 136.503 415.328 136.503C412.618 136.503 410.072 137.151 407.743 138.447C407.413 138.622 407.001 138.499 406.817 138.171C406.641 137.838 406.763 137.418 407.089 137.234C409.622 135.841 412.4 135.125 415.328 135.125C418.256 135.125 420.762 135.773 423.54 137.22C423.88 137.399 424.003 137.813 423.826 138.144C423.716 138.378 423.482 138.528 423.226 138.529ZM403.739 145.766H403.735C403.362 145.766 403.055 145.455 403.055 145.077C403.055 144.934 403.099 144.794 403.181 144.678C404.529 142.748 406.245 141.232 408.288 140.17C412.564 137.937 418.038 137.923 422.327 140.156C424.37 141.218 426.086 142.72 427.434 144.636C427.517 144.753 427.561 144.893 427.561 145.037C427.561 145.262 427.452 145.472 427.271 145.601C427.156 145.685 427.017 145.73 426.875 145.73C426.653 145.73 426.445 145.62 426.317 145.436C425.125 143.727 423.541 142.337 421.701 141.384C417.792 139.357 412.795 139.357 408.9 141.397C407.048 142.362 405.496 143.74 404.27 145.478C404.161 145.671 403.957 145.767 403.739 145.767L403.739 145.766ZM412.25 162.405C412.07 162.407 411.896 162.331 411.773 162.198C410.589 160.998 409.949 160.226 409.036 158.558C408.097 156.863 407.607 154.795 407.607 152.576C407.607 148.482 411.065 145.146 415.314 145.146C419.563 145.146 423.022 148.482 423.022 152.576C423.022 152.962 422.722 153.265 422.341 153.265C421.96 153.265 421.66 152.962 421.66 152.576C421.66 149.24 418.814 146.524 415.315 146.524C411.815 146.524 408.969 149.24 408.969 152.576C408.969 154.561 409.405 156.394 410.235 157.883C411.107 159.469 411.706 160.144 412.754 161.219C413.013 161.495 413.013 161.922 412.754 162.198C412.604 162.336 412.428 162.405 412.251 162.405L412.25 162.405ZM422.014 159.854C420.393 159.854 418.964 159.441 417.793 158.628C415.764 157.236 414.552 154.975 414.552 152.576C414.552 152.19 414.851 151.887 415.233 151.887C415.614 151.887 415.913 152.19 415.913 152.576C415.913 154.52 416.894 156.353 418.555 157.483C419.522 158.145 420.652 158.462 422.014 158.462C422.341 158.462 422.886 158.421 423.43 158.324C423.798 158.255 424.152 158.503 424.22 158.889C424.288 159.262 424.043 159.62 423.662 159.689C422.886 159.84 422.205 159.854 422.015 159.854L422.014 159.854ZM419.277 162.694C419.223 162.694 419.155 162.681 419.1 162.667C416.935 162.06 415.518 161.247 414.034 159.772C412.135 157.874 411.069 155.278 411.079 152.576C411.079 150.344 412.958 148.524 415.274 148.524C417.589 148.524 419.468 150.344 419.468 152.576C419.468 154.052 420.734 155.251 422.3 155.251C423.867 155.251 425.133 154.052 425.133 152.576C425.133 147.38 420.707 143.162 415.26 143.162C411.393 143.162 407.852 145.339 406.259 148.717C405.728 149.834 405.455 151.143 405.455 152.577C405.455 153.652 405.551 155.348 406.368 157.553C406.504 157.911 406.327 158.311 405.973 158.435C405.619 158.573 405.224 158.38 405.101 158.036C404.445 156.292 404.108 154.443 404.107 152.577C404.107 150.923 404.421 149.42 405.033 148.111C406.844 144.264 410.862 141.769 415.26 141.769C421.456 141.769 426.495 146.608 426.495 152.563C426.495 154.796 424.616 156.615 422.3 156.615C419.985 156.615 418.106 154.796 418.106 152.563C418.106 151.088 416.84 149.889 415.274 149.889C413.707 149.889 412.441 151.088 412.441 152.563C412.441 154.92 413.34 157.126 414.988 158.78C416.282 160.075 417.52 160.792 419.441 161.33C419.809 161.427 420.013 161.813 419.918 162.171C419.85 162.488 419.563 162.695 419.277 162.695L419.277 162.694Z" fill="#FFB400"/>
<path d="M415.311 131.295L415.311 91.4724" stroke="#0B2056" stroke-width="0.765818" stroke-linecap="round" stroke-dasharray="2.3 3.06"/>
<path d="M415.311 206.345L415.311 167.288" stroke="#0B2056" stroke-width="0.765818" stroke-linecap="round" stroke-dasharray="2.3 3.06"/>
<path d="M463.557 206.345V219.364" stroke="#0B2056" stroke-width="0.765818" stroke-linecap="round" stroke-dasharray="2.3 3.06"/>
<path d="M415.311 206.345H463.557" stroke="#0B2056" stroke-width="0.765818" stroke-linecap="round" stroke-dasharray="2.3 3.06"/>
<path d="M376.252 91.4731L415.309 91.4731" stroke="#0B2056" stroke-width="0.765818" stroke-linecap="round" stroke-dasharray="2.3 3.06"/>
<path fill-rule="evenodd" clip-rule="evenodd" d="M463.699 224.441C463.607 224.412 463.508 224.412 463.416 224.441L448.252 229.359C448.061 229.421 447.935 229.597 447.935 229.794L447.935 239.029C447.935 249.066 453.965 256.457 463.43 260.029C463.511 260.06 463.603 260.06 463.685 260.029C473.15 256.457 479.18 249.066 479.18 239.029V229.795C479.18 229.597 479.053 229.421 478.862 229.359L463.699 224.441ZM462.565 221.819C463.21 221.61 463.905 221.61 464.55 221.819L479.713 226.737C481.038 227.167 481.937 228.4 481.937 229.795V239.029C481.937 250.404 475.006 258.704 464.658 262.608C463.95 262.876 463.165 262.876 462.456 262.608C452.108 258.704 445.178 250.404 445.178 239.029V229.794C445.178 228.399 446.077 227.166 447.402 226.737L462.565 221.819ZM465.397 242.211C466.494 241.575 467.233 240.388 467.233 239.028C467.233 236.998 465.587 235.352 463.557 235.352C461.527 235.352 459.881 236.998 459.881 239.028C459.881 240.389 460.621 241.578 461.721 242.213V247.299C461.721 248.314 462.544 249.137 463.559 249.137C464.574 249.137 465.397 248.314 465.397 247.299V242.211Z" fill="#FFB400"/>
</svg>
