<svg width="752" height="644" viewBox="0 0 752 644" fill="none" xmlns="http://www.w3.org/2000/svg">
<g clip-path="url(#clip0_1_131)">
<g clip-path="url(#clip1_1_131)">
<rect width="752.346" height="752.346" transform="translate(0 -109)" fill="white"/>
<path d="M797.254 485.402C754.716 443.786 705.977 409.218 654.189 385.002C575.315 348.128 488.42 330.344 401.525 329.293C147.581 326.218 128.234 624.546 50.1543 666.033C-27.9254 707.52 -169.453 712.389 -174.321 878.311C-177.396 982.682 -153.027 1089.97 -84.5312 1171.28C-21.7753 1245.75 70.3981 1283.5 161.213 1311.38C263.201 1342.69 371.365 1373.41 478.631 1352.27C588.717 1330.59 666.053 1243.42 756.459 1184.51C813.372 1147.43 864.468 1108.37 899.626 1048.85C903.828 1041.75 907.775 1034.47 911.516 1027.12C958.564 934.635 967.789 827.958 941.856 727.892C918.563 638.102 866.006 552.565 797.305 485.376L797.254 485.402Z" fill="#FFE8B0"/>
<path opacity="0.7" d="M797.254 485.402C754.716 443.786 705.977 409.218 654.189 385.002C575.315 348.128 488.42 330.344 401.525 329.293C147.581 326.218 128.234 624.546 50.1543 666.033C-27.9254 707.52 -169.453 712.389 -174.321 878.311C-177.396 982.682 -153.027 1089.97 -84.5312 1171.28C-21.7753 1245.75 70.3981 1283.5 161.213 1311.38C263.201 1342.69 371.365 1373.41 478.631 1352.27C588.717 1330.59 666.053 1243.42 756.459 1184.51C813.372 1147.43 864.468 1108.37 899.626 1048.85C903.828 1041.75 907.775 1034.47 911.516 1027.12C958.564 934.635 967.789 827.958 941.856 727.892C918.563 638.102 866.006 552.565 797.305 485.376L797.254 485.402Z" fill="white"/>
<path d="M514.019 327.921H251.369L209.464 518.64H555.924L514.019 327.921Z" fill="#F5F5F5" stroke="#0E2B72" stroke-width="3.86933" stroke-linecap="round" stroke-linejoin="round"/>
<path d="M597.794 515.157H167.603L98.9607 799.746H666.475L597.794 515.157Z" fill="#D9D9D9" stroke="#0E2B72" stroke-width="3.86933" stroke-linecap="round" stroke-linejoin="round"/>
<path d="M513.708 515.657H251.677V550.211H513.708V515.657Z" fill="white" stroke="#0E2B72" stroke-width="3.86933" stroke-linecap="round" stroke-linejoin="round"/>
<path d="M520.788 546.998H244.634V582.287H520.788V546.998Z" fill="white" stroke="#0E2B72" stroke-width="3.86933" stroke-linecap="round" stroke-linejoin="round"/>
<path d="M527.833 580.158H237.556V616.142H527.833V580.158Z" fill="white" stroke="#0E2B72" stroke-width="3.86933" stroke-linecap="round" stroke-linejoin="round"/>
<path d="M534.915 614.251H230.515V650.971H534.915V614.251Z" fill="white" stroke="#0E2B72" stroke-width="3.86933" stroke-linecap="round" stroke-linejoin="round"/>
<path d="M443.954 328.387H321.49V351.216H443.954V328.387Z" fill="white" stroke="#0E2B72" stroke-width="3.86933" stroke-linecap="round" stroke-linejoin="round"/>
<path d="M447.249 349.129H318.168V372.422H447.249V349.129Z" fill="white" stroke="#0E2B72" stroke-width="3.86933" stroke-linecap="round" stroke-linejoin="round"/>
<path d="M450.533 371.026H314.874V394.784H450.533V371.026Z" fill="white" stroke="#0E2B72" stroke-width="3.86933" stroke-linecap="round" stroke-linejoin="round"/>
<path d="M453.878 393.508H311.603V417.768H453.878V393.508Z" fill="white" stroke="#0E2B72" stroke-width="3.86933" stroke-linecap="round" stroke-linejoin="round"/>
<path d="M457.148 416.607H308.257V441.332H457.148V416.607Z" fill="white" stroke="#0E2B72" stroke-width="3.86933" stroke-linecap="round" stroke-linejoin="round"/>
<path d="M460.441 440.325H304.971V465.514H460.441V440.325Z" fill="white" stroke="#0E2B72" stroke-width="3.86933" stroke-linecap="round" stroke-linejoin="round"/>
<path d="M463.764 465.208H301.677V490.9H463.764V465.208Z" fill="white" stroke="#0E2B72" stroke-width="3.86933" stroke-linecap="round" stroke-linejoin="round"/>
<path d="M467.02 489.503H298.356V515.66H467.02V489.503Z" fill="white" stroke="#0E2B72" stroke-width="3.86933" stroke-linecap="round" stroke-linejoin="round"/>
<path d="M9.45718 517.682L-25.1346 548.095" stroke="#0E2B72" stroke-width="3.86933" stroke-linecap="round" stroke-linejoin="round"/>
<path d="M317.654 246.712L30.7818 498.915" stroke="#0E2B72" stroke-width="3.86933" stroke-linecap="round" stroke-linejoin="round"/>
<path d="M287.507 239.203L91.6417 310.747" stroke="#0E2B72" stroke-width="3.86933" stroke-linecap="round" stroke-linejoin="round"/>
<path d="M108.122 209.873L-17.6311 220.359" stroke="#0E2B72" stroke-width="3.86933" stroke-linecap="round" stroke-linejoin="round"/>
<path d="M253.61 197.763L122.131 208.713" stroke="#0E2B72" stroke-width="3.86933" stroke-linecap="round" stroke-linejoin="round"/>
<path d="M197.85 119.681L-73.6217 33.9363" stroke="#0E2B72" stroke-width="3.86933" stroke-linecap="round" stroke-linejoin="round"/>
<path d="M242.312 133.728L216.078 125.448" stroke="#0E2B72" stroke-width="3.86933" stroke-linecap="round" stroke-linejoin="round"/>
<path d="M460.808 246.712L747.68 498.915" stroke="#0E2B72" stroke-width="3.86933" stroke-linecap="round" stroke-linejoin="round"/>
<path d="M490.949 239.203L686.853 310.747" stroke="#0E2B72" stroke-width="3.86933" stroke-linecap="round" stroke-linejoin="round"/>
<path d="M670.323 209.873L796.076 220.359" stroke="#0E2B72" stroke-width="3.86933" stroke-linecap="round" stroke-linejoin="round"/>
<path d="M524.846 197.763L656.325 208.713" stroke="#0E2B72" stroke-width="3.86933" stroke-linecap="round" stroke-linejoin="round"/>
<path d="M580.6 119.681L852.072 33.9363" stroke="#0E2B72" stroke-width="3.86933" stroke-linecap="round" stroke-linejoin="round"/>
<path d="M536.138 133.728L562.372 125.448" stroke="#0E2B72" stroke-width="3.86933" stroke-linecap="round" stroke-linejoin="round"/>
<g clip-path="url(#clip2_1_131)">
<path d="M393.01 214.09H372.27V302.388H393.01V214.09Z" fill="#FFB400" stroke="#0E2B72" stroke-width="3.86933" stroke-linecap="round" stroke-linejoin="round"/>
<path d="M413.289 321.31H351.999L359.196 287.066H406.053L413.289 321.31Z" fill="#FFB400" stroke="#0E2B72" stroke-width="3.86933" stroke-linecap="round" stroke-linejoin="round"/>
<path d="M450.2 335.74H315.045L329.477 304.205H435.806L450.2 335.74Z" fill="#FFB400" stroke="#0E2B72" stroke-width="3.86933" stroke-linecap="round" stroke-linejoin="round"/>
<path d="M314.157 120.647C287.768 120.647 266.409 142.431 266.409 169.284C266.409 196.137 287.807 217.921 314.157 217.921C340.507 217.921 361.904 196.137 361.904 169.284C361.904 142.431 340.507 120.647 314.157 120.647ZM314.157 205.578C294.5 205.578 278.559 189.327 278.559 169.284C278.559 149.241 294.5 132.99 314.157 132.99C333.813 132.99 349.754 149.241 349.754 169.284C349.754 189.327 333.813 205.578 314.157 205.578Z" fill="#FFB400" stroke="#0E2B72" stroke-width="3.86933" stroke-linecap="round" stroke-linejoin="round"/>
<path d="M458.329 120.646C431.94 120.646 410.581 142.431 410.581 169.284C410.581 196.137 431.979 217.921 458.329 217.921C484.679 217.921 506.076 196.137 506.076 169.284C506.076 142.431 484.679 120.646 458.329 120.646ZM458.329 205.578C438.673 205.578 422.731 189.327 422.731 169.284C422.731 149.241 438.673 132.99 458.329 132.99C477.985 132.99 493.927 149.241 493.927 169.284C493.927 189.327 477.985 205.578 458.329 205.578Z" fill="#FFB400" stroke="#0E2B72" stroke-width="3.86933" stroke-linecap="round" stroke-linejoin="round"/>
<path d="M382.645 238.427C349.291 238.427 322.283 211.419 322.283 178.065V115.885H443.006V178.065C443.006 211.419 415.999 238.427 382.645 238.427Z" fill="#FFB400" stroke="#0E2B72" stroke-width="3.86933" stroke-linecap="round" stroke-linejoin="round"/>
<path d="M340.582 149.046L366.12 194.201L372.852 179.072L389.452 181.78L354.821 138.328L340.582 149.046Z" fill="#0E2B72" stroke="#0E2B72" stroke-width="3.86933" stroke-linecap="round" stroke-linejoin="round"/>
<path d="M339.242 143.709L330.342 194.823L345.162 187.394L356.267 200.008L357.002 144.444L339.242 143.709Z" fill="#0E2B72" stroke="#0E2B72" stroke-width="3.86933" stroke-linecap="round" stroke-linejoin="round"/>
<path d="M377.001 130.358C377.001 116.042 365.393 104.434 351.077 104.434C336.76 104.434 325.152 116.042 325.152 130.358C325.152 144.675 336.76 156.283 351.077 156.283C365.393 156.283 377.001 144.675 377.001 130.358Z" fill="white" stroke="#0E2B72" stroke-width="3.86933" stroke-linecap="round" stroke-linejoin="round"/>
<path d="M371.087 130.359C371.087 119.331 362.149 110.354 351.082 110.354C340.016 110.354 331.078 119.293 331.078 130.359C331.078 141.425 340.016 150.363 351.082 150.363C362.149 150.363 371.087 141.425 371.087 130.359Z" fill="white" stroke="#0E2B72" stroke-width="3.86933" stroke-linecap="round" stroke-linejoin="round"/>
<path d="M345.228 120.296C348.4 120.296 349.097 118.787 349.716 117.007H352.463V143.048H348.362V123.198H345.189V120.296H345.228Z" fill="#0E2B72"/>
</g>
<path d="M452.506 755.291C449.411 737.724 444.922 694.078 471.466 672.68C505.168 645.518 529.08 694.426 558.41 656.391C587.739 618.355 596.445 535.745 683.428 536.828C770.371 537.912 776.91 586.82 776.91 603.149C776.91 619.477 802.99 631.395 808.445 631.395C813.901 631.395 844.314 617.272 855.187 648.768C866.06 680.303 858.669 698.528 875.965 699.185C893.222 699.843 914.697 676.279 938.223 688.08C961.748 699.843 961.748 724.878 971.538 733.545C981.327 742.251 997.617 727.006 1019.36 735.712C1032.52 740.974 1036.5 749.409 1037.63 755.291H452.583H452.506Z" fill="white" stroke="black" stroke-width="3.86933" stroke-miterlimit="10"/>
<path d="M534.09 175.356C533.084 169.59 531.614 155.235 540.32 148.193C551.386 139.255 559.241 155.351 568.876 142.853C578.51 130.355 581.374 103.193 609.968 103.58C638.562 103.967 640.69 120.024 640.69 125.364C640.69 130.704 649.28 134.65 651.06 134.65C652.84 134.65 662.862 130.007 666.421 140.377C669.981 150.747 667.582 156.744 673.231 156.938C678.919 157.17 685.961 149.431 693.7 153.301C701.439 157.17 701.439 165.373 704.65 168.236C707.862 171.099 713.24 166.108 720.36 168.933C724.693 170.674 726.009 173.421 726.357 175.356H534.09Z" fill="white" stroke="black" stroke-width="3.86933" stroke-miterlimit="10"/>
<path d="M446.844 420.244C444.948 409.526 442.239 382.905 458.413 369.866C478.959 353.305 493.546 383.137 511.461 359.921C529.376 336.705 534.677 286.327 587.726 286.985C640.774 287.642 644.76 317.475 644.76 327.419C644.76 337.363 660.663 344.676 663.99 344.676C667.318 344.676 685.891 336.048 692.507 355.278C699.124 374.509 694.635 385.614 705.16 386.039C715.684 386.426 728.802 372.071 743.118 379.268C757.473 386.465 757.473 401.71 763.432 407.011C769.391 412.312 779.335 403.026 792.607 408.327C800.655 411.538 803.054 416.684 803.75 420.244H446.844Z" fill="white" stroke="black" stroke-width="3.86933" stroke-miterlimit="10"/>
<path d="M335.704 98.0851C337.059 90.3464 339.032 71.1158 327.347 61.7134C312.489 49.7571 301.964 71.2706 289.04 54.5164C276.117 37.7622 272.286 1.39053 233.98 1.85485C195.674 2.31917 192.81 23.8713 192.81 31.0683C192.81 38.2652 181.318 43.5275 178.919 43.5275C176.52 43.5275 163.132 37.2979 158.334 51.1888C153.537 65.0797 156.787 73.0892 149.203 73.3987C141.58 73.7083 132.139 63.2998 121.808 68.4847C111.438 73.6696 111.438 84.6972 107.143 88.5278C102.848 92.3585 95.6514 85.6645 86.0942 89.4951C80.2902 91.8167 78.549 95.5313 78.046 98.1238H335.743L335.704 98.0851Z" fill="white" stroke="black" stroke-width="3.86933" stroke-miterlimit="10"/>
<path d="M463.226 643.264C467.057 621.634 472.551 567.889 439.856 541.539C398.376 508.069 368.931 568.315 332.791 521.457C296.652 474.6 285.934 372.914 178.869 374.229C71.8052 375.584 63.757 435.79 63.757 455.872C63.757 475.954 31.6416 490.657 24.9476 490.657C18.2537 490.657 -19.2014 473.245 -32.5893 512.055C-45.9771 550.864 -36.8842 573.306 -58.1655 574.157C-79.4468 574.97 -105.836 545.95 -134.817 560.46C-163.759 574.97 -163.759 605.731 -175.832 616.449C-187.865 627.167 -207.947 608.401 -234.723 619.119C-250.935 625.62 -255.849 635.989 -257.204 643.225H463.188L463.226 643.264Z" fill="white" stroke="black" stroke-width="3.86933" stroke-miterlimit="10"/>
<path d="M162.819 414.789C164.019 407.94 165.76 390.915 155.429 382.596C142.273 371.994 132.948 391.07 121.534 376.25C110.08 361.431 106.714 329.199 72.78 329.625C38.846 330.05 36.3309 349.126 36.3309 355.472C36.3309 361.818 26.1546 366.5 24.0265 366.5C21.8984 366.5 10.0582 361.005 5.80196 373.271C1.5457 385.575 4.44768 392.656 -2.28495 392.927C-9.01758 393.198 -17.3753 383.989 -26.5456 388.593C-35.7159 393.198 -35.7159 402.949 -39.5466 406.315C-43.3772 409.72 -49.7229 403.761 -58.1967 407.166C-63.3429 409.217 -64.8907 412.506 -65.3163 414.789H162.781H162.819Z" fill="white" stroke="black" stroke-width="3.86933" stroke-miterlimit="10"/>
</g>
</g>
<defs>
<clipPath id="clip0_1_131">
<rect width="752" height="644" fill="white"/>
</clipPath>
<clipPath id="clip1_1_131">
<rect width="752.346" height="752.346" fill="white" transform="translate(0 -109)"/>
</clipPath>
<clipPath id="clip2_1_131">
<rect width="239.668" height="231.307" fill="white" transform="translate(266.409 104.434)"/>
</clipPath>
</defs>
</svg>
