<svg width="48" height="48" viewBox="0 0 48 48" fill="none" xmlns="http://www.w3.org/2000/svg">
<path d="M7.97252 15.8714C8.05301 15.7817 8.15208 15.7228 8.27281 15.6919C8.59168 15.6114 8.91364 15.8126 8.98174 16.1222C9.55136 18.4131 10.3625 19.3418 10.9321 19.7319C10.5141 6.29004 21.1357 2.29031 21.7951 2.05194C21.9251 2.00241 22.0645 1.98074 22.1945 2.02098C22.5133 2.12005 22.6836 2.45129 22.5938 2.76087C21.4051 6.71107 22.8539 8.81309 24.4141 11.073C25.5751 12.754 26.7948 14.5124 27.1941 17.0943C28.643 15.2244 30.2032 15.0542 30.6057 15.0449C31.0267 15.1656 31.197 15.4938 31.0948 15.8064C30.3859 18.0168 31.3734 19.7473 32.4136 21.5584C33.8934 24.1402 35.4629 26.88 33.203 31.3596C34.1318 31.2791 35.6549 29.9603 35.8035 29.8303C35.9521 29.7002 36.1626 29.6414 36.3731 29.7002C36.6827 29.79 36.8622 30.1213 36.7724 30.4308C34.6209 37.7833 30.7419 42.0523 26.3707 44.0336C23.6495 45.2627 20.7611 45.6032 17.9595 45.2534C15.1702 44.9035 12.48 43.8634 10.1581 42.3124C6.18317 39.6469 3.3103 35.4862 3.00072 30.7559C2.99143 30.567 3.07192 30.3751 3.22981 30.2451C3.48985 30.0439 3.86135 30.0965 4.05947 30.3565C4.67863 31.1676 5.2111 31.4277 5.5795 31.4865C1.82743 22.5335 7.95085 15.8931 7.96943 15.8745L7.97252 15.8714Z" fill="url(#paint0_linear_70_31988)"/>
<path d="M18.7945 6.79184C19.0452 6.58132 19.4136 6.61228 19.6241 6.86304C19.8346 7.1138 19.7944 7.49458 19.5436 7.70199C17.033 9.8133 15.7637 12.1042 15.1724 14.6334C14.5718 17.2029 14.6709 20.0541 14.8721 23.1746C14.8907 23.4935 14.6523 23.7752 14.3211 23.7938H14.2313C13.9124 23.7845 13.5998 23.7845 13.3119 23.7845C11.5906 23.7845 10.0923 23.7752 8.53199 22.5555C7.98094 24.3944 7.95308 25.9546 8.25337 27.4468C8.5939 29.1371 9.34308 30.7778 10.2439 32.6786C10.3833 32.9789 10.2532 33.3288 9.95294 33.4681C9.66194 33.6074 9.31212 33.4773 9.17281 33.1894C8.24408 31.2081 7.45156 29.4993 7.09245 27.679C6.72096 25.8401 6.79217 23.9176 7.60326 21.5989C7.62183 21.5494 7.6435 21.4998 7.65279 21.4596L7.71161 21.3203C7.74257 21.2398 7.78281 21.1593 7.85092 21.1005C8.09239 20.8714 8.46078 20.8807 8.68987 21.119C8.74869 21.1902 8.82918 21.2584 8.90038 21.3296C8.99016 21.41 9.06136 21.4782 9.12947 21.5308C10.4204 22.6019 11.7609 22.6112 13.3088 22.6112H13.6493C13.4697 19.6517 13.4295 16.9212 14.0208 14.3796C14.6616 11.6089 16.0423 9.0889 18.7914 6.79803L18.7945 6.79184Z" fill="url(#paint1_linear_70_31988)"/>
<path d="M15.2817 32.6226L15.5342 32.23L16.0522 32.2052V32.2021V31.9292L16.0281 31.9137C15.3737 23.9958 20.2205 19.6181 20.6 19.2904L20.6138 19.2784L20.6268 19.2655C20.6372 19.255 20.6613 19.2413 20.697 19.2407C20.7493 19.25 20.7877 19.2962 20.7865 19.3498C20.6233 21.2969 20.8589 23.6113 21.2958 25.7722C21.7335 27.9367 22.3813 29.9871 23.0643 31.401L23.0649 31.4022C23.3971 32.0854 23.7545 32.6627 24.1235 32.9673C24.1751 33.0104 24.2497 33.0643 24.3417 33.1002C24.3872 33.1179 24.4675 33.1434 24.5677 33.1405C24.6774 33.1374 24.8335 33.0971 24.9529 32.9578L24.9595 32.95L24.9659 32.942C25.1929 32.6542 25.343 32.2074 25.4544 31.6607C25.5697 31.0948 25.6568 30.3491 25.7132 29.4023L25.7141 29.3874V29.3725C25.7141 29.3575 25.7196 29.3378 25.7338 29.3191C25.7476 29.3011 25.7644 29.2908 25.7804 29.2866L25.7804 29.2867L25.7892 29.2842C25.8148 29.277 25.8353 29.2813 25.8514 29.2907C25.8676 29.3002 25.8829 29.3171 25.8899 29.3452L25.8898 29.3452L25.8921 29.3537C27.8175 36.5176 26.8826 40.7833 24.9701 42.9438C23.3881 44.7268 21.0911 45.208 18.7808 44.6501L18.7798 44.6499C16.5292 44.1114 14.3206 42.5705 12.9464 40.3622C11.1081 37.3823 10.7562 33.1455 14.0039 28.4464L14.013 28.4331L14.0213 28.4193C14.0349 28.3968 14.0513 28.3832 14.0656 28.3758C14.0786 28.3692 14.0932 28.3658 14.1111 28.3675C14.1338 28.3709 14.1555 28.383 14.1721 28.4039C14.1887 28.4245 14.1955 28.4478 14.1941 28.4699C13.8957 30.9847 14.5169 32.1306 15.2817 32.6226Z" fill="url(#paint2_linear_70_31988)" stroke="white"/>
<g filter="url(#filter0_d_70_31988)">
<path d="M33.5475 26.1746C39.7471 26.1746 44.7728 21.1489 44.7728 14.9494C44.7728 8.74984 39.7471 3.72412 33.5475 3.72412C27.348 3.72412 22.3223 8.74984 22.3223 14.9494C22.3223 21.1489 27.348 26.1746 33.5475 26.1746Z" fill="url(#paint3_linear_70_31988)"/>
<g style="mix-blend-mode:soft-light">
<path d="M44.7689 14.7296C44.7689 14.8411 44.7689 14.9494 44.7627 15.0609C44.5924 9.01486 39.6361 4.16689 33.5436 4.16689C27.4511 4.16689 22.4979 9.01486 22.3245 15.0609C22.3215 14.9494 22.3184 14.8411 22.3184 14.7296C22.3184 8.52882 27.3428 3.50439 33.5436 3.50439C39.7444 3.50439 44.7689 8.52882 44.7689 14.7296Z" fill="white"/>
</g>
<path d="M33.5467 3.72724C39.7445 3.72724 44.772 8.75167 44.772 14.9525C44.772 21.1533 39.7476 26.1777 33.5467 26.1777C27.3459 26.1777 22.3215 21.1533 22.3215 14.9525C22.3215 8.75167 27.3459 3.72724 33.5467 3.72724ZM33.5467 3.396C27.1756 3.396 21.9902 8.57831 21.9902 14.9525C21.9902 21.3267 27.1725 26.509 33.5467 26.509C39.9209 26.509 45.1032 21.3267 45.1032 14.9525C45.1032 8.57831 39.9178 3.396 33.5467 3.396Z" fill="white"/>
<path d="M35.274 23.58C35.2152 23.58 35.1626 23.5553 35.1223 23.5119L32.1101 20.2118C31.9151 19.9982 31.9306 19.6701 32.1442 19.475C32.2402 19.3884 32.364 19.3388 32.494 19.3388H34.0202V12.1783C34.0202 12.0638 34.1131 11.974 34.2246 11.974H36.3204C36.4349 11.974 36.5247 12.0669 36.5247 12.1783V19.3388H38.0509C38.3388 19.3388 38.571 19.571 38.571 19.8589C38.571 19.9889 38.5215 20.1128 38.4348 20.2087L35.4226 23.5088C35.3824 23.5522 35.3297 23.5769 35.2709 23.5769L35.274 23.58ZM32.494 19.7506C32.4321 19.7506 32.3826 19.8001 32.3826 19.862C32.3826 19.8899 32.3919 19.9177 32.4104 19.9363L35.2709 23.0723L38.1314 19.9363C38.1717 19.8899 38.1686 19.8218 38.1252 19.7784C38.1035 19.7598 38.0788 19.7506 38.0509 19.7506H36.3204C36.2058 19.7506 36.1161 19.6577 36.1161 19.5462V12.3857H34.4289V19.5462C34.4289 19.6608 34.336 19.7506 34.2246 19.7506H32.494ZM32.4042 17.8312H30.3084C30.1939 17.8312 30.1041 17.7383 30.1041 17.6269V10.4664H28.5748C28.2869 10.4664 28.0547 10.2342 28.0547 9.94627C28.0547 9.81624 28.1042 9.69241 28.1909 9.59645L31.2062 6.29326C31.2867 6.20968 31.4198 6.20658 31.5034 6.29017C31.5034 6.29017 31.5034 6.29017 31.5065 6.29326L34.5186 9.59335C34.7137 9.80696 34.6982 10.1351 34.4846 10.3301C34.3886 10.4168 34.2648 10.4664 34.1348 10.4664H32.6086V17.6269C32.6086 17.7414 32.5157 17.8312 32.4042 17.8312ZM30.5127 17.4225H32.1999V10.262C32.1999 10.1475 32.2928 10.0577 32.4042 10.0577H34.1348C34.1967 10.0577 34.2462 10.0082 34.2462 9.94627C34.2462 9.9184 34.2369 9.89054 34.2184 9.87197L31.3579 6.73596L28.4943 9.87197C28.454 9.91531 28.4571 9.98651 28.5005 10.0268C28.5221 10.0453 28.5469 10.0546 28.5748 10.0546H30.3084C30.4229 10.0546 30.5127 10.1475 30.5127 10.2589V17.4194V17.4225Z" fill="white"/>
</g>
<defs>
<filter id="filter0_d_70_31988" x="19.5136" y="0.919383" width="28.0665" height="28.066" filterUnits="userSpaceOnUse" color-interpolation-filters="sRGB">
<feFlood flood-opacity="0" result="BackgroundImageFix"/>
<feColorMatrix in="SourceAlpha" type="matrix" values="0 0 0 0 0 0 0 0 0 0 0 0 0 0 0 0 0 0 127 0" result="hardAlpha"/>
<feOffset/>
<feGaussianBlur stdDeviation="1.23831"/>
<feColorMatrix type="matrix" values="0 0 0 0 1 0 0 0 0 0.760784 0 0 0 0 0 0 0 0 0.75 0"/>
<feBlend mode="normal" in2="BackgroundImageFix" result="effect1_dropShadow_70_31988"/>
<feBlend mode="normal" in="SourceGraphic" in2="effect1_dropShadow_70_31988" result="shape"/>
</filter>
<linearGradient id="paint0_linear_70_31988" x1="3.00072" y1="23.6883" x2="36.8003" y2="23.6883" gradientUnits="userSpaceOnUse">
<stop stop-color="#FFB400"/>
<stop offset="0.18" stop-color="#FFBC00"/>
<stop offset="0.64" stop-color="#FFCC00"/>
<stop offset="1" stop-color="#FFD200"/>
</linearGradient>
<linearGradient id="paint1_linear_70_31988" x1="6.87575" y1="20.0882" x2="19.7603" y2="20.0882" gradientUnits="userSpaceOnUse">
<stop offset="0.43" stop-color="white"/>
<stop offset="0.77" stop-color="#FFC100"/>
<stop offset="1" stop-color="#FFB400"/>
</linearGradient>
<linearGradient id="paint2_linear_70_31988" x1="11.0602" y1="32.0566" x2="27.4492" y2="32.0566" gradientUnits="userSpaceOnUse">
<stop offset="0.43" stop-color="#FFD200"/>
<stop offset="0.77" stop-color="#FFC100"/>
<stop offset="1" stop-color="#FFB400"/>
</linearGradient>
<linearGradient id="paint3_linear_70_31988" x1="22.3223" y1="14.9494" x2="44.7697" y2="14.9494" gradientUnits="userSpaceOnUse">
<stop stop-color="white" stop-opacity="0.84"/>
<stop offset="0.03" stop-color="white" stop-opacity="0.73"/>
<stop offset="0.05" stop-color="white" stop-opacity="0.65"/>
<stop offset="0.08" stop-color="white" stop-opacity="0.58"/>
<stop offset="0.11" stop-color="white" stop-opacity="0.53"/>
<stop offset="0.16" stop-color="white" stop-opacity="0.51"/>
<stop offset="0.28" stop-color="white" stop-opacity="0.5"/>
<stop offset="0.46" stop-color="#FDFDFD" stop-opacity="0.48"/>
<stop offset="0.67" stop-color="#F9F9F9" stop-opacity="0.43"/>
<stop offset="0.89" stop-color="#F3F3F3" stop-opacity="0.35"/>
<stop offset="1" stop-color="#EFEFEF" stop-opacity="0.3"/>
</linearGradient>
</defs>
</svg>
