<svg width="48" height="48" viewBox="0 0 48 48" fill="none" xmlns="http://www.w3.org/2000/svg">
<path fill-rule="evenodd" clip-rule="evenodd" d="M5.533 12.6146C5.533 11.6394 4.74176 10.8481 3.7665 10.8481C2.79125 10.8481 2 11.6394 2 12.6146V27.636C2 28.6113 2.79125 29.4025 3.7665 29.4025C4.74176 29.4025 5.533 28.6113 5.533 27.636V21.8918H8.40357C9.37882 21.8918 10.1701 21.1006 10.1701 20.1253C10.1701 19.1501 9.37882 18.3588 8.40357 18.3588H5.533V12.6146Z" fill="url(#paint0_linear_72_32075)"/>
<path d="M38.7694 31.1262C39.5545 30.3043 39.9961 29.2095 39.9961 28.0717V25.2042C39.9961 24.9588 40.1955 24.7625 40.4377 24.7625H43.9708C45.1914 24.7625 46.1789 23.775 46.1789 22.5544V17.583C46.1789 16.3624 45.1883 15.3749 43.9708 15.3749H40.4377C40.1924 15.3749 39.9961 15.1786 39.9961 14.9333V11.0691C39.9961 9.84847 39.0086 8.86095 37.788 8.86095H34.3163C33.7122 8.86095 33.1356 8.61253 32.7185 8.17704L29.3848 4.68391C28.9678 4.24841 28.3912 4 27.787 4H19.9574C19.3532 4 18.7766 4.24841 18.3595 4.68391L15.0259 8.17704C14.6088 8.61253 14.0322 8.86095 13.4281 8.86095H9.51477C8.29416 8.86095 7.30664 9.84847 7.30664 11.0691V27.9582C7.30664 29.1634 7.79734 30.3135 8.66832 31.1477L11.3273 33.6962C12.1492 34.4844 13.244 34.923 14.3849 34.923H33.2521C34.4574 34.923 35.6105 34.4292 36.4447 33.5582L38.7755 31.1232L38.7694 31.1262Z" fill="url(#paint1_linear_72_32075)"/>
<path fill-rule="evenodd" clip-rule="evenodd" d="M44.411 13.0562C45.3863 13.0562 46.1775 13.8474 46.1775 14.8227V24.9831C46.1775 25.9584 45.3863 26.7496 44.411 26.7496C43.4358 26.7496 42.6445 25.9584 42.6445 24.9831V14.8227C42.6445 13.8474 43.4358 13.0562 44.411 13.0562Z" fill="url(#paint2_linear_72_32075)"/>
<path fill-rule="evenodd" clip-rule="evenodd" d="M22.3214 7.75391C21.3461 7.75391 20.5549 8.54515 20.5549 9.52041C20.5549 10.4957 21.3461 11.2869 22.3214 11.2869H25.8544C26.8296 11.2869 27.6209 10.4957 27.6209 9.52041C27.6209 8.54515 26.8296 7.75391 25.8544 7.75391H22.3214ZM16.3563 13.0565C15.3811 13.0565 14.5898 13.8477 14.5898 14.823C14.5898 15.7982 15.3811 16.5895 16.3563 16.5895H31.3777C32.353 16.5895 33.1442 15.7982 33.1442 14.823C33.1442 13.8477 32.353 13.0565 31.3777 13.0565H16.3563Z" stroke="white" stroke-width="0.613369" stroke-miterlimit="10"/>
<g filter="url(#filter0_d_72_32075)">
<path d="M24.3972 43.789C29.9172 43.789 34.392 39.3142 34.392 33.7942C34.392 28.2742 29.9172 23.7993 24.3972 23.7993C18.8772 23.7993 14.4023 28.2742 14.4023 33.7942C14.4023 39.3142 18.8772 43.789 24.3972 43.789Z" fill="url(#paint3_linear_72_32075)"/>
<g style="mix-blend-mode:soft-light">
<path d="M34.392 33.5979C34.392 33.696 34.392 33.7941 34.3859 33.8923C34.2326 28.51 29.8194 24.1919 24.3972 24.1919C18.975 24.1919 14.5618 28.51 14.4085 33.8923C14.4054 33.7941 14.4023 33.696 14.4023 33.5979C14.4023 28.0776 18.8769 23.603 24.3972 23.603C29.9175 23.603 34.392 28.0776 34.392 33.5979Z" fill="white"/>
</g>
<path d="M24.3972 23.7993C29.9175 23.7993 34.3921 28.2739 34.3921 33.7942C34.3921 39.3145 29.9175 43.789 24.3972 43.789C18.8769 43.789 14.4024 39.3145 14.4024 33.7942C14.4024 28.2739 18.8769 23.7993 24.3972 23.7993ZM24.3972 23.4712C18.7052 23.4712 14.0742 28.1021 14.0742 33.7942C14.0742 39.4862 18.7052 44.1172 24.3972 44.1172C30.0893 44.1172 34.7202 39.4862 34.7202 33.7942C34.7202 28.1021 30.0893 23.4712 24.3972 23.4712Z" fill="url(#paint4_linear_72_32075)"/>
<path fill-rule="evenodd" clip-rule="evenodd" d="M26.3201 29.6635C26.3201 28.6882 25.5289 27.897 24.5536 27.897C23.5784 27.897 22.7871 28.6882 22.7871 29.6635V33.4173C22.7871 34.3925 23.5784 35.1838 24.5536 35.1838C25.5289 35.1838 26.3201 34.3925 26.3201 33.4173V29.6635ZM24.5536 39.8239C25.5289 39.8239 26.3201 39.0327 26.3201 38.0574C26.3201 37.0822 25.5289 36.2909 24.5536 36.2909C23.5784 36.2909 22.7871 37.0822 22.7871 38.0574C22.7871 39.0327 23.5784 39.8239 24.5536 39.8239Z" fill="url(#paint5_linear_72_32075)"/>
<g style="mix-blend-mode:overlay">
<g opacity="0.6">
<path style="mix-blend-mode:hard-light" d="M13.3227 33.8617C12.6173 32.6779 17.42 28.5193 24.0505 24.5753C30.681 20.6314 36.6245 18.3926 37.3299 19.5764C38.0353 20.7602 33.2326 24.9188 26.6021 28.8628C19.9716 32.8067 14.028 35.0455 13.3227 33.8617Z" fill="url(#paint6_radial_72_32075)"/>
<path d="M15.5192 32.5526C15.1665 31.9607 19.2699 28.8693 24.686 25.646C30.102 22.4258 34.7759 20.2944 35.1286 20.8863C35.4813 21.4782 31.3778 24.5696 25.9618 27.7928C20.5457 31.013 15.8719 33.1445 15.5192 32.5526Z" fill="url(#paint7_radial_72_32075)"/>
</g>
<path d="M28.7088 24.6031C30.0245 27.259 30.871 29.5193 30.598 29.6542C30.3281 29.7891 29.0431 27.7436 27.7274 25.0877C26.4118 22.4318 25.5653 20.1715 25.8383 20.0366C26.1082 19.9016 27.3932 21.9472 28.7088 24.6031Z" fill="url(#paint8_radial_72_32075)"/>
<path style="mix-blend-mode:hard-light" d="M28.3892 24.7596C28.6345 25.2565 28.7572 25.6981 28.6652 25.7441C28.5701 25.7901 28.2972 25.4251 28.0488 24.9283C27.8034 24.4315 27.6807 23.9899 27.7727 23.9439C27.8678 23.8979 28.1408 24.2628 28.3892 24.7596Z" fill="url(#paint9_radial_72_32075)"/>
<path d="M27.9485 24.2965C30.5461 23.0085 32.7757 22.2111 32.926 22.5147C33.0763 22.8183 31.089 24.1064 28.4913 25.3914C25.8937 26.6795 23.6641 27.4768 23.5139 27.1732C23.3636 26.8696 25.3509 25.5815 27.9485 24.2965Z" fill="url(#paint10_radial_72_32075)"/>
<path style="mix-blend-mode:hard-light" d="M28.126 24.6551C28.6229 24.4097 29.0676 24.2963 29.1197 24.4005C29.1718 24.5048 28.8099 24.79 28.3131 25.0354C27.8163 25.2807 27.3716 25.3942 27.3194 25.2899C27.2673 25.1856 27.6292 24.9004 28.126 24.6551Z" fill="url(#paint11_radial_72_32075)"/>
<g opacity="0.5">
<path d="M28.7088 24.6031C30.0245 27.259 30.871 29.5193 30.598 29.6542C30.3281 29.7891 29.0431 27.7436 27.7274 25.0877C26.4118 22.4318 25.5653 20.1715 25.8383 20.0366C26.1082 19.9016 27.3932 21.9472 28.7088 24.6031Z" fill="url(#paint12_radial_72_32075)"/>
<path style="mix-blend-mode:hard-light" d="M28.3892 24.7596C28.6345 25.2565 28.7572 25.6981 28.6652 25.7441C28.5701 25.7901 28.2972 25.4251 28.0488 24.9283C27.8034 24.4315 27.6807 23.9899 27.7727 23.9439C27.8678 23.8979 28.1408 24.2628 28.3892 24.7596Z" fill="url(#paint13_radial_72_32075)"/>
<path d="M27.9485 24.2965C30.5461 23.0085 32.7757 22.2111 32.926 22.5147C33.0763 22.8183 31.089 24.1064 28.4913 25.3914C25.8937 26.6795 23.6641 27.4768 23.5139 27.1732C23.3636 26.8696 25.3509 25.5815 27.9485 24.2965Z" fill="url(#paint14_radial_72_32075)"/>
<path style="mix-blend-mode:hard-light" d="M28.126 24.6551C28.6229 24.4097 29.0676 24.2963 29.1197 24.4005C29.1718 24.5048 28.8099 24.79 28.3131 25.0354C27.8163 25.2807 27.3716 25.3942 27.3194 25.2899C27.2673 25.1856 27.6292 24.9004 28.126 24.6551Z" fill="url(#paint15_radial_72_32075)"/>
</g>
</g>
</g>
<defs>
<filter id="filter0_d_72_32075" x="10.8004" y="16.8063" width="29.0515" height="29.7644" filterUnits="userSpaceOnUse" color-interpolation-filters="sRGB">
<feFlood flood-opacity="0" result="BackgroundImageFix"/>
<feColorMatrix in="SourceAlpha" type="matrix" values="0 0 0 0 0 0 0 0 0 0 0 0 0 0 0 0 0 0 127 0" result="hardAlpha"/>
<feOffset/>
<feGaussianBlur stdDeviation="1.22674"/>
<feColorMatrix type="matrix" values="0 0 0 0 0.0196078 0 0 0 0 0.14902 0 0 0 0 0.909804 0 0 0 0.75 0"/>
<feBlend mode="normal" in2="BackgroundImageFix" result="effect1_dropShadow_72_32075"/>
<feBlend mode="normal" in="SourceGraphic" in2="effect1_dropShadow_72_32075" result="shape"/>
</filter>
<linearGradient id="paint0_linear_72_32075" x1="2" y1="20.1253" x2="10.1731" y2="20.1253" gradientUnits="userSpaceOnUse">
<stop stop-color="#0E2B72"/>
<stop offset="0.04" stop-color="#0E2E79"/>
<stop offset="0.26" stop-color="#143FA8"/>
<stop offset="0.48" stop-color="#194DCD"/>
<stop offset="0.68" stop-color="#1C57E8"/>
<stop offset="0.86" stop-color="#1E5DF8"/>
<stop offset="1" stop-color="#1F60FE"/>
</linearGradient>
<linearGradient id="paint1_linear_72_32075" x1="7.30357" y1="19.463" x2="46.1789" y2="19.463" gradientUnits="userSpaceOnUse">
<stop stop-color="#0E2B72"/>
<stop offset="0.04" stop-color="#0E2E79"/>
<stop offset="0.26" stop-color="#143FA8"/>
<stop offset="0.48" stop-color="#194DCD"/>
<stop offset="0.68" stop-color="#1C57E8"/>
<stop offset="0.86" stop-color="#1E5DF8"/>
<stop offset="1" stop-color="#1F60FE"/>
</linearGradient>
<linearGradient id="paint2_linear_72_32075" x1="42.6445" y1="19.9044" x2="46.1775" y2="19.9044" gradientUnits="userSpaceOnUse">
<stop stop-color="#0E2B72"/>
<stop offset="0.04" stop-color="#0E2E79"/>
<stop offset="0.26" stop-color="#143FA8"/>
<stop offset="0.48" stop-color="#194DCD"/>
<stop offset="0.68" stop-color="#1C57E8"/>
<stop offset="0.86" stop-color="#1E5DF8"/>
<stop offset="1" stop-color="#1F60FE"/>
</linearGradient>
<linearGradient id="paint3_linear_72_32075" x1="14.4023" y1="33.7942" x2="34.392" y2="33.7942" gradientUnits="userSpaceOnUse">
<stop stop-color="white" stop-opacity="0.84"/>
<stop offset="0.03" stop-color="white" stop-opacity="0.73"/>
<stop offset="0.05" stop-color="white" stop-opacity="0.65"/>
<stop offset="0.08" stop-color="white" stop-opacity="0.58"/>
<stop offset="0.11" stop-color="white" stop-opacity="0.53"/>
<stop offset="0.16" stop-color="white" stop-opacity="0.51"/>
<stop offset="0.28" stop-color="white" stop-opacity="0.5"/>
<stop offset="0.46" stop-color="#FDFDFD" stop-opacity="0.48"/>
<stop offset="0.67" stop-color="#F9F9F9" stop-opacity="0.43"/>
<stop offset="0.89" stop-color="#F3F3F3" stop-opacity="0.35"/>
<stop offset="1" stop-color="#EFEFEF" stop-opacity="0.3"/>
</linearGradient>
<linearGradient id="paint4_linear_72_32075" x1="14.0742" y1="33.7942" x2="34.7202" y2="33.7942" gradientUnits="userSpaceOnUse">
<stop stop-color="white" stop-opacity="0.9"/>
<stop offset="0.03" stop-color="white" stop-opacity="0.83"/>
<stop offset="0.11" stop-color="white" stop-opacity="0.68"/>
<stop offset="0.17" stop-color="white" stop-opacity="0.58"/>
<stop offset="0.23" stop-color="white" stop-opacity="0.52"/>
<stop offset="0.28" stop-color="white" stop-opacity="0.5"/>
<stop offset="0.46" stop-color="#FDFDFD" stop-opacity="0.48"/>
<stop offset="0.67" stop-color="#F9F9F9" stop-opacity="0.43"/>
<stop offset="0.89" stop-color="#F3F3F3" stop-opacity="0.35"/>
<stop offset="1" stop-color="#EFEFEF" stop-opacity="0.3"/>
</linearGradient>
<linearGradient id="paint5_linear_72_32075" x1="22.7871" y1="33.8589" x2="26.3201" y2="33.8589" gradientUnits="userSpaceOnUse">
<stop stop-color="#0E2B72"/>
<stop offset="0.04" stop-color="#0E2E79"/>
<stop offset="0.26" stop-color="#143FA8"/>
<stop offset="0.48" stop-color="#194DCD"/>
<stop offset="0.68" stop-color="#1C57E8"/>
<stop offset="0.86" stop-color="#1E5DF8"/>
<stop offset="1" stop-color="#1F60FE"/>
</linearGradient>
<radialGradient id="paint6_radial_72_32075" cx="0" cy="0" r="1" gradientUnits="userSpaceOnUse" gradientTransform="translate(35.9007 44.7041) rotate(149.25) scale(13.9654 2.505)">
<stop stop-color="white" stop-opacity="0.6"/>
<stop offset="0.15" stop-color="white" stop-opacity="0.45"/>
<stop offset="0.33" stop-color="white" stop-opacity="0.29"/>
<stop offset="0.52" stop-color="white" stop-opacity="0.16"/>
<stop offset="0.69" stop-color="white" stop-opacity="0.07"/>
<stop offset="0.86" stop-color="white" stop-opacity="0.02"/>
<stop offset="1" stop-color="white" stop-opacity="0"/>
</radialGradient>
<radialGradient id="paint7_radial_72_32075" cx="0" cy="0" r="1" gradientUnits="userSpaceOnUse" gradientTransform="translate(30.0803 34.6014) rotate(149.25) scale(11.4094 1.25008)">
<stop stop-color="white" stop-opacity="0.96"/>
<stop offset="0.05" stop-color="white" stop-opacity="0.78"/>
<stop offset="0.09" stop-color="white" stop-opacity="0.61"/>
<stop offset="0.14" stop-color="white" stop-opacity="0.47"/>
<stop offset="0.2" stop-color="white" stop-opacity="0.34"/>
<stop offset="0.25" stop-color="white" stop-opacity="0.23"/>
<stop offset="0.32" stop-color="white" stop-opacity="0.15"/>
<stop offset="0.4" stop-color="white" stop-opacity="0.08"/>
<stop offset="0.49" stop-color="white" stop-opacity="0.03"/>
<stop offset="0.63" stop-color="white" stop-opacity="0"/>
<stop offset="1" stop-color="white" stop-opacity="0"/>
</radialGradient>
<radialGradient id="paint8_radial_72_32075" cx="0" cy="0" r="1" gradientUnits="userSpaceOnUse" gradientTransform="translate(41.2314 17.9505) rotate(-26.35) scale(0.550652 5.36161)">
<stop stop-color="white"/>
<stop offset="0.05" stop-color="white" stop-opacity="0.89"/>
<stop offset="0.15" stop-color="white" stop-opacity="0.69"/>
<stop offset="0.26" stop-color="white" stop-opacity="0.5"/>
<stop offset="0.37" stop-color="white" stop-opacity="0.35"/>
<stop offset="0.48" stop-color="white" stop-opacity="0.22"/>
<stop offset="0.6" stop-color="white" stop-opacity="0.12"/>
<stop offset="0.72" stop-color="white" stop-opacity="0.05"/>
<stop offset="0.85" stop-color="white" stop-opacity="0.01"/>
<stop offset="1" stop-color="white" stop-opacity="0"/>
</radialGradient>
<radialGradient id="paint9_radial_72_32075" cx="0" cy="0" r="1" gradientUnits="userSpaceOnUse" gradientTransform="translate(41.5175 18.1294) rotate(-26.35) scale(0.190543 1.00286)">
<stop stop-color="white"/>
<stop offset="0.05" stop-color="white" stop-opacity="0.89"/>
<stop offset="0.15" stop-color="white" stop-opacity="0.69"/>
<stop offset="0.26" stop-color="white" stop-opacity="0.5"/>
<stop offset="0.37" stop-color="white" stop-opacity="0.35"/>
<stop offset="0.48" stop-color="white" stop-opacity="0.22"/>
<stop offset="0.6" stop-color="white" stop-opacity="0.12"/>
<stop offset="0.72" stop-color="white" stop-opacity="0.05"/>
<stop offset="0.85" stop-color="white" stop-opacity="0.01"/>
<stop offset="1" stop-color="white" stop-opacity="0"/>
</radialGradient>
<radialGradient id="paint10_radial_72_32075" cx="0" cy="0" r="1" gradientUnits="userSpaceOnUse" gradientTransform="translate(30.3899 22.6141) rotate(-116.34) scale(0.608615 5.24568)">
<stop stop-color="white"/>
<stop offset="0.05" stop-color="white" stop-opacity="0.89"/>
<stop offset="0.15" stop-color="white" stop-opacity="0.69"/>
<stop offset="0.26" stop-color="white" stop-opacity="0.5"/>
<stop offset="0.37" stop-color="white" stop-opacity="0.35"/>
<stop offset="0.48" stop-color="white" stop-opacity="0.22"/>
<stop offset="0.6" stop-color="white" stop-opacity="0.12"/>
<stop offset="0.72" stop-color="white" stop-opacity="0.05"/>
<stop offset="0.85" stop-color="white" stop-opacity="0.01"/>
<stop offset="1" stop-color="white" stop-opacity="0"/>
</radialGradient>
<radialGradient id="paint11_radial_72_32075" cx="0" cy="0" r="1" gradientUnits="userSpaceOnUse" gradientTransform="translate(27.7445 23.867) rotate(-116.34) scale(0.2106 1.00286)">
<stop stop-color="white"/>
<stop offset="0.05" stop-color="white" stop-opacity="0.89"/>
<stop offset="0.15" stop-color="white" stop-opacity="0.69"/>
<stop offset="0.26" stop-color="white" stop-opacity="0.5"/>
<stop offset="0.37" stop-color="white" stop-opacity="0.35"/>
<stop offset="0.48" stop-color="white" stop-opacity="0.22"/>
<stop offset="0.6" stop-color="white" stop-opacity="0.12"/>
<stop offset="0.72" stop-color="white" stop-opacity="0.05"/>
<stop offset="0.85" stop-color="white" stop-opacity="0.01"/>
<stop offset="1" stop-color="white" stop-opacity="0"/>
</radialGradient>
<radialGradient id="paint12_radial_72_32075" cx="0" cy="0" r="1" gradientUnits="userSpaceOnUse" gradientTransform="translate(41.2314 17.9505) rotate(-26.35) scale(0.550652 5.36161)">
<stop stop-color="white"/>
<stop offset="0.05" stop-color="white" stop-opacity="0.89"/>
<stop offset="0.15" stop-color="white" stop-opacity="0.69"/>
<stop offset="0.26" stop-color="white" stop-opacity="0.5"/>
<stop offset="0.37" stop-color="white" stop-opacity="0.35"/>
<stop offset="0.48" stop-color="white" stop-opacity="0.22"/>
<stop offset="0.6" stop-color="white" stop-opacity="0.12"/>
<stop offset="0.72" stop-color="white" stop-opacity="0.05"/>
<stop offset="0.85" stop-color="white" stop-opacity="0.01"/>
<stop offset="1" stop-color="white" stop-opacity="0"/>
</radialGradient>
<radialGradient id="paint13_radial_72_32075" cx="0" cy="0" r="1" gradientUnits="userSpaceOnUse" gradientTransform="translate(41.5175 18.1294) rotate(-26.35) scale(0.190543 1.00286)">
<stop stop-color="white"/>
<stop offset="0.05" stop-color="white" stop-opacity="0.89"/>
<stop offset="0.15" stop-color="white" stop-opacity="0.69"/>
<stop offset="0.26" stop-color="white" stop-opacity="0.5"/>
<stop offset="0.37" stop-color="white" stop-opacity="0.35"/>
<stop offset="0.48" stop-color="white" stop-opacity="0.22"/>
<stop offset="0.6" stop-color="white" stop-opacity="0.12"/>
<stop offset="0.72" stop-color="white" stop-opacity="0.05"/>
<stop offset="0.85" stop-color="white" stop-opacity="0.01"/>
<stop offset="1" stop-color="white" stop-opacity="0"/>
</radialGradient>
<radialGradient id="paint14_radial_72_32075" cx="0" cy="0" r="1" gradientUnits="userSpaceOnUse" gradientTransform="translate(30.3899 22.6141) rotate(-116.34) scale(0.608615 5.24568)">
<stop stop-color="white"/>
<stop offset="0.05" stop-color="white" stop-opacity="0.89"/>
<stop offset="0.15" stop-color="white" stop-opacity="0.69"/>
<stop offset="0.26" stop-color="white" stop-opacity="0.5"/>
<stop offset="0.37" stop-color="white" stop-opacity="0.35"/>
<stop offset="0.48" stop-color="white" stop-opacity="0.22"/>
<stop offset="0.6" stop-color="white" stop-opacity="0.12"/>
<stop offset="0.72" stop-color="white" stop-opacity="0.05"/>
<stop offset="0.85" stop-color="white" stop-opacity="0.01"/>
<stop offset="1" stop-color="white" stop-opacity="0"/>
</radialGradient>
<radialGradient id="paint15_radial_72_32075" cx="0" cy="0" r="1" gradientUnits="userSpaceOnUse" gradientTransform="translate(27.7445 23.867) rotate(-116.34) scale(0.2106 1.00286)">
<stop stop-color="white"/>
<stop offset="0.05" stop-color="white" stop-opacity="0.89"/>
<stop offset="0.15" stop-color="white" stop-opacity="0.69"/>
<stop offset="0.26" stop-color="white" stop-opacity="0.5"/>
<stop offset="0.37" stop-color="white" stop-opacity="0.35"/>
<stop offset="0.48" stop-color="white" stop-opacity="0.22"/>
<stop offset="0.6" stop-color="white" stop-opacity="0.12"/>
<stop offset="0.72" stop-color="white" stop-opacity="0.05"/>
<stop offset="0.85" stop-color="white" stop-opacity="0.01"/>
<stop offset="1" stop-color="white" stop-opacity="0"/>
</radialGradient>
</defs>
</svg>
