<svg width="48" height="48" viewBox="0 0 48 48" fill="none" xmlns="http://www.w3.org/2000/svg">
<path d="M17.9469 23.8228V23.9923H17.7773L17.9469 23.8228Z" fill="url(#paint0_linear_72_32126)"/>
<path d="M43.1979 9.39844V45.005H5.25586V23.992H7.85501L18.0978 13.7461L17.9471 23.8225L17.7776 23.992H17.9471V23.8225L28.0236 13.7461L27.8698 23.992H35.6107V9.39844H43.1979Z" fill="url(#paint1_linear_72_32126)"/>
<path d="M17.9469 23.8228V23.9923H17.7773L17.9469 23.8228Z" fill="url(#paint2_linear_72_32126)"/>
<path d="M43.1965 3.56006H35.6094V8.231H43.1965V3.56006Z" fill="url(#paint3_linear_72_32126)"/>
<g filter="url(#filter0_d_72_32126)">
<path d="M4.82548 21.6823H25.6627C26.2968 21.6823 26.6954 21.0011 26.3752 20.4549L16.4652 3.55414C16.0383 2.82587 14.9804 2.81332 14.5346 3.52903L4.12233 20.4392C3.78645 20.9823 4.18197 21.6792 4.82548 21.6792V21.6823Z" stroke="url(#paint4_linear_72_32126)" stroke-width="0.539921" stroke-miterlimit="10"/>
<path d="M4.47002 21.2145H25.9947C26.2113 21.2145 26.3462 20.9822 26.2395 20.7939L16.4016 4.01865C15.9967 3.32805 14.9922 3.3155 14.5716 3.99667L4.22831 20.7907C4.1153 20.9759 4.25028 21.2145 4.47002 21.2145Z" fill="url(#paint5_linear_72_32126)"/>
<path d="M15.5186 7.5H14.8468C14.6111 7.5 14.4199 7.69114 14.4199 7.92691V15.5109C14.4199 15.7467 14.6111 15.9378 14.8468 15.9378H15.5186C15.7544 15.9378 15.9455 15.7467 15.9455 15.5109V7.92691C15.9455 7.69114 15.7544 7.5 15.5186 7.5Z" fill="white"/>
<path d="M15.5171 17.0867C15.7526 17.0867 15.9409 17.2782 15.9409 17.5105V18.3204C15.9409 18.5558 15.7494 18.7441 15.5171 18.7441H14.8422C14.6068 18.7441 14.4185 18.5527 14.4185 18.3204V17.5105C14.4185 17.275 14.6099 17.0867 14.8422 17.0867H15.5171ZM15.5171 17.0679H14.8422C14.5974 17.0679 14.3965 17.2656 14.3965 17.5136V18.3235C14.3965 18.5683 14.5942 18.7692 14.8422 18.7692H15.5171C15.762 18.7692 15.9629 18.5715 15.9629 18.3235V17.5136C15.9629 17.2688 15.7651 17.0679 15.5171 17.0679Z" fill="url(#paint6_linear_72_32126)"/>
<path d="M15.5166 17.0864H14.8449C14.6091 17.0864 14.418 17.2776 14.418 17.5133V18.3201C14.418 18.5559 14.6091 18.747 14.8449 18.747H15.5166C15.7524 18.747 15.9436 18.5559 15.9436 18.3201V17.5133C15.9436 17.2776 15.7524 17.0864 15.5166 17.0864Z" fill="white"/>
</g>
<path d="M24.4496 38.3124L24.2079 38.0769C24.1168 37.989 24.0917 37.8541 24.142 37.7379C24.1828 37.6406 24.2204 37.5433 24.2581 37.446C24.2989 37.3267 24.4119 37.2451 24.5406 37.2419L24.8796 37.2357C25.3882 37.2262 25.79 36.8087 25.7868 36.3033L25.7711 35.076C25.7617 34.5674 25.3474 34.1625 24.8388 34.1688H24.4998C24.3711 34.1751 24.2581 34.0966 24.211 33.9773C24.1733 33.88 24.1325 33.7827 24.0886 33.6885C24.0321 33.5724 24.0541 33.4374 24.1451 33.3463L24.3805 33.1046C24.7352 32.7405 24.7258 32.1566 24.3617 31.8019L23.4827 30.9449C23.1186 30.5902 22.5347 30.5997 22.18 30.9638L21.9446 31.2055C21.8567 31.2965 21.7217 31.3216 21.6056 31.2714C21.5083 31.2306 21.411 31.1929 21.3136 31.1553C21.1944 31.1145 21.1127 31.0015 21.1096 30.8727L21.1033 30.5337C21.0939 30.0252 20.6796 29.6203 20.171 29.6265L18.9436 29.6454C18.4351 29.6548 18.0302 30.0691 18.0365 30.5777V30.9167C18.0427 31.0454 17.9643 31.1584 17.845 31.2055C17.7477 31.2432 17.6503 31.284 17.5562 31.3279C17.44 31.3844 17.305 31.3593 17.214 31.2714L16.9723 31.036C16.6082 30.6813 16.0243 30.6907 15.6696 31.0548L14.8126 31.9338C14.4579 32.2979 14.4673 32.8818 14.8315 33.2365L15.0732 33.4719C15.1642 33.5598 15.1893 33.6948 15.1391 33.8109C15.0983 33.9082 15.0606 34.0055 15.0229 34.1029C14.9821 34.2221 14.8691 34.3038 14.7404 34.3069L14.4014 34.3132C13.8929 34.3226 13.4879 34.737 13.4942 35.2455L13.5099 36.4729C13.5193 36.9814 13.9337 37.3863 14.4422 37.3801H14.7812C14.9099 37.3738 15.0229 37.4523 15.07 37.5715C15.1077 37.6688 15.1485 37.7662 15.1925 37.8603C15.249 37.9765 15.227 38.1115 15.1391 38.2056L14.9037 38.4473C14.5489 38.8115 14.5584 39.3953 14.9225 39.7501L15.8014 40.607C16.1656 40.9617 16.7494 40.9523 17.1041 40.5882L17.3396 40.3465C17.4275 40.2554 17.5625 40.2303 17.6786 40.2806C17.7759 40.3214 17.8732 40.359 17.9705 40.3967C18.0898 40.4375 18.1714 40.5505 18.1746 40.6792L18.1809 41.0182C18.1903 41.5268 18.6078 41.9286 19.1132 41.9254L20.3405 41.9097C20.8491 41.9003 21.254 41.486 21.2477 40.9774V40.6384C21.2414 40.5097 21.3199 40.3967 21.4392 40.3496C21.5365 40.3119 21.6338 40.2711 21.728 40.2272C21.8442 40.1707 21.9791 40.1927 22.0702 40.2837L22.3119 40.5191C22.676 40.8738 23.2599 40.8644 23.6146 40.5003L24.4716 39.6214C24.8263 39.2572 24.8169 38.6734 24.4527 38.3186L24.4496 38.3124ZM23.172 40.0671C23.0527 40.1895 22.8581 40.1927 22.7388 40.0734L22.4971 39.8379C22.224 39.5743 21.8128 39.5052 21.4675 39.6653C21.3827 39.703 21.3011 39.7406 21.2163 39.772C20.8616 39.9101 20.6262 40.2554 20.6293 40.6384V40.9774C20.6356 41.1469 20.5006 41.2851 20.3311 41.2882L19.1037 41.3039C18.9342 41.3039 18.7961 41.1721 18.793 41.0025L18.7867 40.6635C18.7804 40.2806 18.5356 39.9447 18.1777 39.8128C18.093 39.7814 18.0051 39.7469 17.9234 39.7124C17.5719 39.5617 17.1669 39.6433 16.9001 39.9133L16.6647 40.155C16.5454 40.2774 16.3508 40.2806 16.2315 40.1613L15.3525 39.3043C15.2301 39.185 15.227 38.9904 15.3463 38.8711L15.5817 38.6294C15.8454 38.3563 15.9144 37.9451 15.7543 37.5998C15.7167 37.515 15.679 37.4334 15.6476 37.3487C15.5095 36.9939 15.1642 36.7585 14.7812 36.7617H14.4422C14.2727 36.7679 14.1346 36.633 14.1314 36.4634L14.1126 35.2392C14.1126 35.0697 14.2445 34.9316 14.414 34.9284L14.753 34.9222C15.1359 34.9159 15.4718 34.671 15.6037 34.3132C15.6351 34.2284 15.6696 34.1405 15.7041 34.0589C15.8548 33.7073 15.7763 33.3024 15.5032 33.0356L15.2615 32.8001C15.1391 32.6809 15.1359 32.4862 15.2552 32.367L16.1122 31.488C16.2315 31.3656 16.4261 31.3624 16.5454 31.4817L16.7871 31.7172C17.0602 31.9808 17.4714 32.0499 17.8167 31.8898C17.9015 31.8521 17.9831 31.8145 18.0678 31.7831C18.4226 31.645 18.658 31.2997 18.6549 30.9167L18.6486 30.5777C18.6486 30.4082 18.7804 30.27 18.9499 30.2669L20.1773 30.2512C20.3468 30.2512 20.4849 30.3831 20.4881 30.5526L20.4943 30.8916C20.5006 31.2746 20.7455 31.6104 21.1033 31.7423C21.1881 31.7737 21.276 31.8082 21.3576 31.8427C21.7092 31.9934 22.1141 31.9149 22.3809 31.6418L22.6164 31.4001C22.7356 31.2777 22.9303 31.2746 23.0496 31.3938L23.9285 32.2508C24.0509 32.3701 24.0541 32.5647 23.9348 32.684L23.6993 32.9257C23.4357 33.1988 23.3666 33.61 23.5267 33.9553C23.5644 34.0401 23.602 34.1217 23.6334 34.2064C23.7715 34.5612 24.1168 34.7966 24.4998 34.7935H24.8388C25.0083 34.7872 25.1465 34.9222 25.1496 35.0917L25.1653 36.319C25.1653 36.4886 25.0335 36.6267 24.8639 36.6298L24.5249 36.6361C24.142 36.6424 23.8061 36.8872 23.6742 37.2451C23.6428 37.3298 23.6083 37.4177 23.5738 37.4993C23.4231 37.8509 23.5047 38.2559 23.7747 38.5227L24.0164 38.7581C24.1388 38.8774 24.142 39.072 24.0227 39.1913L23.1657 40.0702L23.172 40.0671Z" fill="white"/>
<path d="M21.7032 37.6097C21.7534 37.5563 21.8005 37.4998 21.8444 37.4402C21.8915 37.3774 21.9386 37.3146 21.9794 37.2456C22.0077 37.2016 22.0296 37.1577 22.0547 37.1106C22.0861 37.0541 22.1175 36.9944 22.1426 36.9348C22.1615 36.894 22.1803 36.8532 22.1991 36.8124C22.24 36.715 22.2745 36.6146 22.3027 36.511C22.3027 36.5047 22.309 36.4953 22.309 36.489C22.3498 36.3321 22.3781 36.172 22.3906 36.0088C22.3906 35.9962 22.3906 35.9805 22.3906 35.9648C22.3938 35.8989 22.3969 35.833 22.3969 35.7702C22.3969 35.7357 22.3969 35.7011 22.3969 35.6666C22.3969 35.6258 22.3938 35.5818 22.3906 35.541C22.3875 35.4908 22.3812 35.4437 22.3749 35.3935L22.3655 35.3307C22.2745 34.7437 21.992 34.2038 21.5682 33.7926C21.5462 33.7706 21.5211 33.7518 21.4991 33.7329C21.452 33.689 21.4018 33.645 21.3485 33.6042C21.3202 33.5823 21.292 33.5603 21.2637 33.5414C21.1821 33.4818 21.0973 33.4253 21.0126 33.3751C19.6879 32.6186 17.9991 33.08 17.2425 34.4047C16.7434 35.2774 16.7591 36.3541 17.2834 37.211C17.2865 37.2142 17.2896 37.2204 17.2928 37.2236C17.3493 37.3178 17.4121 37.4056 17.4811 37.4904C17.5251 37.5469 17.5753 37.5971 17.6255 37.6505C17.6569 37.685 17.6852 37.7227 17.7197 37.7572C17.7825 37.8169 17.8515 37.8765 17.9237 37.9361C17.93 37.9424 17.9394 37.9487 17.9488 37.955C18.0085 38.0021 18.0713 38.046 18.1372 38.09C18.1623 38.1057 18.1905 38.1214 18.2157 38.137C18.2627 38.1653 18.3098 38.1936 18.3632 38.2218C18.404 38.2438 18.4448 38.2595 18.4825 38.2783C18.5233 38.2971 18.5641 38.316 18.608 38.3348C18.652 38.3536 18.6897 38.3662 18.7305 38.3788C18.7838 38.3976 18.8372 38.4164 18.8937 38.4321C19.2045 38.5232 19.5278 38.5702 19.8543 38.5734C19.9422 38.5734 20.0269 38.564 20.1117 38.5451C20.5511 38.4384 20.9623 38.2375 21.3233 37.9644C21.3704 37.9267 21.4175 37.8922 21.4615 37.8514C21.5023 37.8137 21.5431 37.7761 21.5839 37.7384C21.5964 37.7258 21.609 37.7164 21.6216 37.7039C21.6529 37.6725 21.6781 37.6411 21.7032 37.6097ZM21.1256 37.3272C21.1067 37.346 21.0879 37.3617 21.0691 37.3805C21.0126 37.4308 20.9561 37.4778 20.8933 37.5218C20.3659 37.8985 19.6973 38.0178 19.0726 37.8483C19.0318 37.8357 18.991 37.8231 18.9533 37.8106L18.9251 37.8012C18.7399 37.7352 18.5672 37.6442 18.4071 37.5312C18.3946 37.5218 18.3852 37.5155 18.3726 37.5061C18.3412 37.4841 18.3098 37.459 18.2816 37.437C18.2439 37.4056 18.2062 37.3743 18.1686 37.3366L18.1215 37.2926C18.0713 37.2424 18.021 37.189 17.974 37.1325L17.952 37.1043C17.8986 37.0384 17.8515 36.9693 17.8044 36.8971C17.186 35.8863 17.5062 34.5648 18.517 33.9432C19.1856 33.5352 20.0238 33.5226 20.7049 33.9119C20.8619 34.0029 21.0063 34.1128 21.1381 34.2383C21.2009 34.3011 21.2606 34.3639 21.3139 34.4329C21.3296 34.4518 21.3422 34.4706 21.3579 34.4894C21.3987 34.5428 21.4364 34.5993 21.4709 34.6558C21.4834 34.6747 21.4929 34.6935 21.5054 34.7123C21.5902 34.8599 21.6561 35.0168 21.7032 35.18C21.7094 35.2052 21.7157 35.2334 21.7251 35.2585C21.7377 35.315 21.7503 35.3684 21.7597 35.4249C21.766 35.4563 21.7691 35.4845 21.7754 35.5159C21.7848 35.5913 21.7911 35.6697 21.7911 35.7451C21.7911 35.7765 21.7911 35.8079 21.7879 35.8392C21.7879 35.8926 21.7848 35.9428 21.7785 35.9962C21.7754 36.0339 21.7691 36.0684 21.766 36.1061C21.7565 36.1594 21.7471 36.2128 21.7346 36.2662C21.7283 36.2944 21.722 36.3227 21.7157 36.3541C21.6938 36.4325 21.6655 36.511 21.6341 36.5895C21.6216 36.6209 21.609 36.6491 21.5933 36.6805C21.5682 36.7339 21.5399 36.7872 21.5117 36.8406C21.496 36.8689 21.4834 36.894 21.4677 36.9191C21.4238 36.9913 21.3736 37.0603 21.3202 37.1263C21.3045 37.1451 21.2888 37.1608 21.2763 37.1765C21.2292 37.2299 21.1821 37.2832 21.1287 37.3303L21.1256 37.3272Z" fill="white"/>
<path d="M31.8468 39.5119L31.1562 38.8401C31.062 38.7522 31.0369 38.6141 31.0903 38.4979C31.2221 38.228 31.332 37.9486 31.423 37.6629C31.4638 37.5405 31.5768 37.4558 31.7056 37.4558L32.6724 37.4432C33.1809 37.4369 33.5859 37.0194 33.5796 36.5109L33.5513 34.6683C33.545 34.1597 33.1276 33.7548 32.619 33.7611L31.6522 33.7736C31.5235 33.7736 31.4073 33.6951 31.3634 33.5759C31.2661 33.2902 31.1468 33.014 31.0087 32.7471C30.949 32.631 30.971 32.4929 31.062 32.4018L31.7338 31.7112C32.0885 31.3471 32.0791 30.7632 31.715 30.4085L30.3966 29.1247C30.0324 28.7699 29.4486 28.7794 29.0938 29.1435L28.4221 29.8341C28.3342 29.9283 28.1961 29.9534 28.0799 29.9C27.81 29.7713 27.5306 29.6583 27.2418 29.5673C27.1194 29.5265 27.0346 29.4134 27.0346 29.2847L27.0221 28.3179C27.0126 27.8094 26.5983 27.4044 26.0897 27.4107L24.2471 27.4358C23.7386 27.4421 23.3336 27.8596 23.3399 28.3681L23.3588 29.7933C23.365 29.9628 23.5063 30.0946 23.6758 30.0915C23.8422 30.0852 23.974 29.9502 23.974 29.787L23.9552 28.3619C23.9552 28.1923 24.087 28.0542 24.2565 28.0511L26.0992 28.026C26.2687 28.026 26.4068 28.1578 26.4099 28.3273L26.4256 29.2942C26.4288 29.6865 26.6862 30.035 27.0597 30.1543C27.3203 30.2359 27.5714 30.3363 27.8162 30.4556C28.171 30.6251 28.5947 30.5467 28.8647 30.2641L29.5364 29.5735C29.6557 29.4511 29.8504 29.448 29.9696 29.5673L31.2881 30.8511C31.4105 30.9704 31.4136 31.1651 31.2943 31.2843L30.6226 31.9749C30.3463 32.2543 30.2835 32.6812 30.4625 33.0297C30.588 33.2714 30.6948 33.5225 30.7827 33.7799C30.9145 34.1503 31.2661 34.3952 31.6585 34.392L32.6253 34.3795C32.7948 34.3795 32.9329 34.5113 32.9361 34.6808L32.9612 36.5235C32.9612 36.693 32.8293 36.8311 32.6598 36.8342L31.693 36.8499C31.3006 36.8531 30.9522 37.1105 30.8329 37.484C30.7513 37.7446 30.6508 37.9957 30.5315 38.2405C30.362 38.5952 30.4374 39.019 30.723 39.289L31.4136 39.9607C31.536 40.08 31.5392 40.2746 31.4199 40.3939L30.136 41.7123C30.0167 41.8348 29.8221 41.8379 29.7028 41.7186L29.0122 41.0469C28.7328 40.7706 28.3059 40.7078 27.9575 40.8868C27.7158 41.0123 27.4647 41.1191 27.2073 41.207C26.8368 41.3357 26.592 41.6904 26.5951 42.0828L26.6077 43.0496C26.6077 43.2191 26.4759 43.3572 26.3063 43.3604L24.4637 43.3855C24.2942 43.3855 24.1561 43.2536 24.1529 43.0841L24.131 41.659C24.131 41.4895 23.9928 41.3513 23.8233 41.3513C23.6538 41.3513 23.5157 41.4895 23.5157 41.659C23.5157 41.6621 23.5157 41.6653 23.5157 41.6684L23.5377 43.0935C23.544 43.6021 23.9615 44.007 24.47 44.0007L26.3095 43.9756C26.818 43.9693 27.223 43.5518 27.2167 43.0433L27.2041 42.0765C27.2041 41.9478 27.2826 41.8316 27.4019 41.7877C27.6875 41.6904 27.9638 41.5711 28.2306 41.433C28.3467 41.3733 28.4849 41.3953 28.5759 41.4863L29.2665 42.1581C29.6306 42.5128 30.2145 42.5034 30.5692 42.1393L31.8531 40.8208C32.2078 40.4567 32.1984 39.8728 31.8343 39.5181L31.8468 39.5119Z" fill="white"/>
<path d="M29.2711 35.6411C29.2397 33.4406 27.4284 31.6796 25.228 31.7079C25.0584 31.7141 24.9266 31.8554 24.9297 32.0249C24.936 32.1913 25.071 32.32 25.2342 32.3231C27.0988 32.2854 28.6401 33.7639 28.6778 35.6286C28.7155 37.4932 27.237 39.0345 25.3724 39.0721C25.3567 39.0721 25.341 39.0721 25.3284 39.0721C25.1589 39.0721 25.0208 39.2071 25.0208 39.3766C25.0208 39.5461 25.1558 39.6842 25.3253 39.6842C25.3284 39.6842 25.3315 39.6842 25.3347 39.6842C27.5352 39.6529 29.2962 37.8416 29.2679 35.6411H29.2711Z" fill="white"/>
<defs>
<filter id="filter0_d_72_32126" x="1.39932" y="0.400787" width="27.6896" height="23.8806" filterUnits="userSpaceOnUse" color-interpolation-filters="sRGB">
<feFlood flood-opacity="0" result="BackgroundImageFix"/>
<feColorMatrix in="SourceAlpha" type="matrix" values="0 0 0 0 0 0 0 0 0 0 0 0 0 0 0 0 0 0 127 0" result="hardAlpha"/>
<feOffset/>
<feGaussianBlur stdDeviation="1.1646"/>
<feColorMatrix type="matrix" values="0 0 0 0 1 0 0 0 0 0.807843 0 0 0 0 0 0 0 0 0.75 0"/>
<feBlend mode="normal" in2="BackgroundImageFix" result="effect1_dropShadow_72_32126"/>
<feBlend mode="normal" in="SourceGraphic" in2="effect1_dropShadow_72_32126" result="shape"/>
</filter>
<linearGradient id="paint0_linear_72_32126" x1="17.7773" y1="23.9075" x2="17.9469" y2="23.9075" gradientUnits="userSpaceOnUse">
<stop stop-color="#FB8999"/>
<stop offset="0.05" stop-color="#FB8599"/>
<stop offset="0.42" stop-color="#FB6A99"/>
<stop offset="0.74" stop-color="#FB5A99"/>
<stop offset="1" stop-color="#FB5599"/>
</linearGradient>
<linearGradient id="paint1_linear_72_32126" x1="5.25586" y1="27.2033" x2="43.1979" y2="27.2033" gradientUnits="userSpaceOnUse">
<stop stop-color="#FFB400"/>
<stop offset="0.18" stop-color="#FFBC00"/>
<stop offset="0.64" stop-color="#FFCC00"/>
<stop offset="1" stop-color="#FFD200"/>
</linearGradient>
<linearGradient id="paint2_linear_72_32126" x1="17.7773" y1="23.9075" x2="17.9469" y2="23.9075" gradientUnits="userSpaceOnUse">
<stop stop-color="#FB8999"/>
<stop offset="0.05" stop-color="#FB8599"/>
<stop offset="0.42" stop-color="#FB6A99"/>
<stop offset="0.74" stop-color="#FB5A99"/>
<stop offset="1" stop-color="#FB5599"/>
</linearGradient>
<linearGradient id="paint3_linear_72_32126" x1="35.6094" y1="5.89553" x2="0.467437" y2="5.89553" gradientUnits="userSpaceOnUse">
<stop stop-color="#FFB400"/>
<stop offset="0.18" stop-color="#FFBC00"/>
<stop offset="0.64" stop-color="#FFCC00"/>
<stop offset="1" stop-color="#FFD200"/>
</linearGradient>
<linearGradient id="paint4_linear_72_32126" x1="15.2409" y1="21.9523" x2="15.2409" y2="2.7317" gradientUnits="userSpaceOnUse">
<stop stop-color="white" stop-opacity="0.84"/>
<stop offset="0.03" stop-color="white" stop-opacity="0.73"/>
<stop offset="0.05" stop-color="white" stop-opacity="0.65"/>
<stop offset="0.08" stop-color="white" stop-opacity="0.58"/>
<stop offset="0.11" stop-color="white" stop-opacity="0.53"/>
<stop offset="0.16" stop-color="white" stop-opacity="0.51"/>
<stop offset="0.28" stop-color="white" stop-opacity="0.5"/>
<stop offset="0.46" stop-color="#FDFDFD" stop-opacity="0.48"/>
<stop offset="0.67" stop-color="#F9F9F9" stop-opacity="0.43"/>
<stop offset="0.89" stop-color="#F3F3F3" stop-opacity="0.35"/>
<stop offset="1" stop-color="#EFEFEF" stop-opacity="0.3"/>
</linearGradient>
<linearGradient id="paint5_linear_72_32126" x1="4.1875" y1="12.3529" x2="26.274" y2="12.3529" gradientUnits="userSpaceOnUse">
<stop stop-color="white" stop-opacity="0.84"/>
<stop offset="0.03" stop-color="white" stop-opacity="0.73"/>
<stop offset="0.05" stop-color="white" stop-opacity="0.65"/>
<stop offset="0.08" stop-color="white" stop-opacity="0.58"/>
<stop offset="0.11" stop-color="white" stop-opacity="0.53"/>
<stop offset="0.16" stop-color="white" stop-opacity="0.51"/>
<stop offset="0.28" stop-color="white" stop-opacity="0.5"/>
<stop offset="0.46" stop-color="#FDFDFD" stop-opacity="0.48"/>
<stop offset="0.67" stop-color="#F9F9F9" stop-opacity="0.43"/>
<stop offset="0.89" stop-color="#F3F3F3" stop-opacity="0.35"/>
<stop offset="1" stop-color="#EFEFEF" stop-opacity="0.3"/>
</linearGradient>
<linearGradient id="paint6_linear_72_32126" x1="14.3996" y1="17.9186" x2="15.9597" y2="17.9186" gradientUnits="userSpaceOnUse">
<stop stop-color="#EFEFEF" stop-opacity="0.3"/>
<stop offset="0.11" stop-color="#F3F3F3" stop-opacity="0.35"/>
<stop offset="0.33" stop-color="#F9F9F9" stop-opacity="0.43"/>
<stop offset="0.54" stop-color="#FDFDFD" stop-opacity="0.48"/>
<stop offset="0.72" stop-color="white" stop-opacity="0.5"/>
<stop offset="0.77" stop-color="white" stop-opacity="0.52"/>
<stop offset="0.83" stop-color="white" stop-opacity="0.58"/>
<stop offset="0.89" stop-color="white" stop-opacity="0.68"/>
<stop offset="0.97" stop-color="white" stop-opacity="0.83"/>
<stop offset="1" stop-color="white" stop-opacity="0.9"/>
</linearGradient>
</defs>
</svg>
